<svg id="レイヤー_1" data-name="レイヤー 1" xmlns="http://www.w3.org/2000/svg" viewBox="0 0 1118.66 1380.2"><defs><style>.cls-1,.cls-4{fill:#040000;}.cls-2,.cls-3{fill:#231815;}.cls-3{font-size:12px;font-family:TBUDRGoStd-Regular-90ms-RKSJ-H, TBUDRGothic Std;}.cls-4{stroke:#231815;stroke-width:3.96px;}.cls-4,.cls-5{stroke-linecap:round;stroke-linejoin:round;}.cls-5{fill:none;stroke:#040000;stroke-width:5.94px;}.cls-6{letter-spacing:-0.5em;}.cls-7{letter-spacing:0.25em;}</style></defs><title>hayato</title><path class="cls-1" d="M310.31,22.15a50.6,50.6,0,0,0-71.47-.1,3,3,0,0,0-.87,2.1,2.94,2.94,0,0,0,.87,2.1l11,11,22.69,22.7a3,3,0,0,0,4.2,0l11.33-11.33h0l11.3-11.3,10.95-10.95a3,3,0,0,0,0-4.2ZM274.62,53.64l-6.92-6.92a13.11,13.11,0,0,1,13.81,0Zm11.15-11.15a19,19,0,0,0-22.33,0l-7.21-7.21a29.15,29.15,0,0,1,36.72.06ZM297.16,31.1A35.07,35.07,0,0,0,252,31l-6.81-6.81a44.67,44.67,0,0,1,58.73.1Z"/><path class="cls-1" d="M192.7,12.89c0-.05,0-.11,0-.16a2.82,2.82,0,0,0-.15-.7s0,0,0-.08l0,0a3.21,3.21,0,0,0-.39-.7l-.11-.13a2.78,2.78,0,0,0-.53-.5l-.06,0a2.87,2.87,0,0,0-.7-.35l-.17,0a2.75,2.75,0,0,0-.81-.13h-61a2.75,2.75,0,0,0-.81.13l-.17,0a2.87,2.87,0,0,0-.7.35.1.1,0,0,0,0,0,2.57,2.57,0,0,0-.54.5l-.11.13a3.21,3.21,0,0,0-.39.7l0,0s0,.06,0,.08a2.82,2.82,0,0,0-.15.7s0,.11,0,.16,0,.06,0,.09V55.15a3,3,0,0,0,3,3h61a3,3,0,0,0,3-3V13S192.7,12.92,192.7,12.89ZM181.75,16,159.26,35.37,136.76,16Zm5,36.23h-55V19.47l25.57,22.07a3,3,0,0,0,3.89,0l25.57-22.07Z"/><path class="cls-1" d="M423.11,30.94,392,.81a3.22,3.22,0,0,0-4.27,0L356.68,30.94a2.65,2.65,0,0,0-.6,3,3,3,0,0,0,2.74,1.69h6.23V65.36a2.88,2.88,0,0,0,3,2.77h43.75a2.88,2.88,0,0,0,3-2.77V35.64H421A3,3,0,0,0,423.71,34,2.65,2.65,0,0,0,423.11,30.94Zm-27.4,31.64H384.08V36.8h11.63ZM411.77,30.1a2.88,2.88,0,0,0-3,2.77V62.58h-7.15V34a2.88,2.88,0,0,0-3-2.77H381.11a2.88,2.88,0,0,0-3,2.77V62.58H371V32.87a2.88,2.88,0,0,0-3-2.77H365.8L389.9,6.74,414,30.1Z"/><path class="cls-2" d="M620.54,6.34a27.72,27.72,0,1,0,27.72,27.72A27.75,27.75,0,0,0,620.54,6.34Zm0,49.5a21.78,21.78,0,1,1,21.78-21.78A21.8,21.8,0,0,1,620.54,55.84Z"/><path class="cls-2" d="M626.12,22.47a12.87,12.87,0,1,0,6.56,7.35A12.76,12.76,0,0,0,626.12,22.47Zm.66,14.6a6.93,6.93,0,1,1-6.24-9.94,6.93,6.93,0,0,1,6.24,9.94Z"/><path class="cls-1" d="M735.86,6.34a27.72,27.72,0,1,0,27.72,27.72A27.75,27.75,0,0,0,735.86,6.34Zm0,49.5a21.78,21.78,0,1,1,21.78-21.78A21.8,21.8,0,0,1,735.86,55.84Z"/><path class="cls-1" d="M750.71,22.87a3.66,3.66,0,0,0-6.25-2.59l-8.6,8.61-8.61-8.61A3.66,3.66,0,0,0,721,22.87a3.61,3.61,0,0,0,1.07,2.58l8.61,8.61-8.61,8.61a3.66,3.66,0,0,0,5.18,5.18l8.61-8.61,8.61,8.61a3.66,3.66,0,0,0,5.17-5.18L741,34.06l8.61-8.6A3.65,3.65,0,0,0,750.71,22.87Z"/><path class="cls-1" d="M966.5,6.34a27.72,27.72,0,1,0,27.72,27.72A27.75,27.75,0,0,0,966.5,6.34Zm0,49.5a21.78,21.78,0,1,1,21.78-21.78A21.8,21.8,0,0,1,966.5,55.84Z"/><path class="cls-1" d="M974.93,24.54,962.18,37.29l-4.12-4.12a3,3,0,0,0-4.2,4.2l6.22,6.22a2.94,2.94,0,0,0,2.1.87,3,3,0,0,0,2.1-.87l14.85-14.85a3,3,0,0,0-4.2-4.2Z"/><path class="cls-2" d="M48.41,56.78A2.93,2.93,0,0,1,47,56.44L9.53,36.69a3,3,0,0,1,0-5.25L47,11.69a3,3,0,0,1,4.35,2.63v9.19H77a3,3,0,0,1,3,3V41.65a3,3,0,0,1-3,3H51.38v9.19A3,3,0,0,1,50,56.35,2.91,2.91,0,0,1,48.41,56.78ZM17.29,34.06,45.44,48.89V41.65a3,3,0,0,1,3-3H74V29.45H48.41a3,3,0,0,1-3-3V19.24Z"/><path class="cls-2" d="M1101.42,14.46a27.72,27.72,0,1,0,8.12,19.6A27.78,27.78,0,0,0,1101.42,14.46Zm-35,4.2A21.8,21.8,0,0,1,1095,16.72l-30.49,30.49a21.77,21.77,0,0,1,1.94-28.55Zm30.81,30.8a21.79,21.79,0,0,1-28.55,1.94l30.49-30.48a21.73,21.73,0,0,1-1.94,28.54Z"/><path class="cls-2" d="M505.22,6.34a27.72,27.72,0,1,0,27.72,27.72A27.76,27.76,0,0,0,505.22,6.34Zm0,49.5A21.78,21.78,0,1,1,527,34.06,21.81,21.81,0,0,1,505.22,55.84Z"/><path class="cls-2" d="M505.22,28.76a3,3,0,0,0-3,3V47.11a3,3,0,1,0,5.94,0V31.73A3,3,0,0,0,505.22,28.76Z"/><path class="cls-2" d="M503.62,24.6a3,3,0,1,0-1.09-4.06A3,3,0,0,0,503.62,24.6Z"/><path class="cls-2" d="M851.18,6.34A27.72,27.72,0,1,0,878.9,34.06,27.75,27.75,0,0,0,851.18,6.34Zm0,49.5A21.78,21.78,0,1,1,873,34.06,21.8,21.8,0,0,1,851.18,55.84Z"/><path class="cls-2" d="M851.18,39.37a3,3,0,0,0,3-3V21a3,3,0,0,0-5.94,0V36.4A3,3,0,0,0,851.18,39.37Z"/><path class="cls-2" d="M852.77,43.53a3,3,0,1,0,1.09,4.06A3,3,0,0,0,852.77,43.53Z"/><path class="cls-2" d="M63.54,155.16a27.71,27.71,0,1,0,0,39.2A27.58,27.58,0,0,0,63.54,155.16Zm-4.2,35a21.78,21.78,0,1,1,0-30.8A21.8,21.8,0,0,1,59.34,190.16Z"/><path class="cls-2" d="M52.84,163.64l-8.9,8.9-6.4-6.39a3,3,0,1,0-4.2,4.2l8.5,8.49a3,3,0,0,0,4.2,0l11-11a3,3,0,0,0-4.2-4.2Z"/><path class="cls-2" d="M182.09,137.53H136.42a3,3,0,0,0-3,3V209a3,3,0,0,0,3,3h45.67a3,3,0,0,0,3-3V140.5A3,3,0,0,0,182.09,137.53Zm-3,68.51H139.39V143.47h39.73Z"/><path class="cls-2" d="M147.14,192.81h24.23a2,2,0,0,0,2-2V150.71a2,2,0,0,0-2-2H147.14a2,2,0,0,0-2,2v40.12A2,2,0,0,0,147.14,192.81Zm2-40.12h20.27v36.16H149.12Z"/><path class="cls-2" d="M159.26,194.43A4.77,4.77,0,1,0,164,199.2,4.78,4.78,0,0,0,159.26,194.43Zm0,7.12a2.35,2.35,0,1,1,2.34-2.35A2.35,2.35,0,0,1,159.26,201.55Z"/><path class="cls-2" d="M633.58,180.61H623.51v-8.75a17.08,17.08,0,1,0-5.94,0v36.69a3,3,0,0,0,5.94,0V201h5.36a3,3,0,1,0,0-5.94h-5.36v-8.47h10.07a3,3,0,0,0,0-5.94Zm-13-14.41a11.14,11.14,0,1,1,11.13-11.14A11.16,11.16,0,0,1,620.54,166.2Z"/><path class="cls-2" d="M306.29,204.49,283.81,182c.11-.14.2-.29.31-.43l.06-.09a25.11,25.11,0,1,0-4.59,4.73h0l22.48,22.48a3,3,0,0,0,4.2-4.2Zm-42.14-18.86a19,19,0,1,1,12.07-4.32A19.11,19.11,0,0,1,264.15,185.63Z"/><path class="cls-2" d="M272,163.63h-4.95v-5a3,3,0,0,0-5.94,0v5h-4.95a3,3,0,0,0,0,5.94h4.95v5a3,3,0,0,0,5.94,0v-5H272a3,3,0,1,0,0-5.94Z"/><path class="cls-2" d="M421.85,204.49,399.36,182a25,25,0,1,0-4.2,4.2l22.49,22.48a3,3,0,0,0,4.2-4.2ZM393.19,180h0a19.08,19.08,0,1,1,5.6-13.5A19,19,0,0,1,393.19,180Z"/><path class="cls-2" d="M387.32,163.86H371.48a3,3,0,0,0,0,5.94h15.84a3,3,0,1,0,0-5.94Z"/><path class="cls-2" d="M537.41,204.49,514.92,182a25,25,0,1,0-4.2,4.2l22.49,22.48a3,3,0,0,0,4.2-4.2ZM508.75,180h0a19.08,19.08,0,1,1,5.6-13.5A19.06,19.06,0,0,1,508.75,180Z"/><path class="cls-2" d="M967.14,146.7a27.75,27.75,0,0,0-27.72,27.72,27.27,27.27,0,0,0,2.41,11.24l-3.6,13.42a3,3,0,0,0,.77,2.86,3,3,0,0,0,2.87.77l13-3.47a27.72,27.72,0,1,0,12.32-52.54Zm0,49.5a21.76,21.76,0,0,1-10.53-2.72,3,3,0,0,0-1.44-.38,2.87,2.87,0,0,0-.77.11l-9.1,2.43,2.54-9.49a3,3,0,0,0-.2-2.09,21.52,21.52,0,0,1-2.28-9.64,21.78,21.78,0,1,1,21.78,21.78Z"/><path class="cls-2" d="M760.54,142.05H715.93a3,3,0,0,0-3,3v14.29a3,3,0,0,0,5.94,0V148h38.67v53.54H718.9V190.2a3,3,0,0,0-5.94,0v14.3a3,3,0,0,0,3,3h44.61a3,3,0,0,0,3-3V145A3,3,0,0,0,760.54,142.05Z"/><path class="cls-2" d="M721.54,184.87a2,2,0,0,0,1,1.72,2,2,0,0,0,1,.26,2.06,2.06,0,0,0,1-.26L742,176.47a2,2,0,0,0,0-3.43l-17.51-10.11a2,2,0,0,0-3,1.71v4.25H710.18a2,2,0,0,0-2,2v7.77a2,2,0,0,0,2,2h11.36Z"/><path class="cls-2" d="M870.44,187.23a3,3,0,0,0-3,3v11.33H828.8V148h38.67v11.32a3,3,0,1,0,5.94,0V145a3,3,0,0,0-3-3H825.83a3,3,0,0,0-3,3V204.5a3,3,0,0,0,3,3h44.61a3,3,0,0,0,3-3V190.2A3,3,0,0,0,870.44,187.23Z"/><path class="cls-2" d="M878.5,173,861,162.93a1.91,1.91,0,0,0-1-.27,2,2,0,0,0-2,2v4.25H846.66a2,2,0,0,0-2,2v7.77a2,2,0,0,0,2,2H858v4.25a2,2,0,0,0,3,1.72l17.52-10.12a2,2,0,0,0,1-1.71A2,2,0,0,0,878.5,173Z"/><path class="cls-2" d="M1115.3,167a3,3,0,0,0-2.4-2l-19.64-2.85-8.78-17.79a3,3,0,0,0-5.33,0l-8.78,17.79-19.64,2.85a3,3,0,0,0-1.64,5.07l14.21,13.85-3.36,19.56a3,3,0,0,0,4.31,3.13l17.57-9.23,17.56,9.23a3,3,0,0,0,1.38.34,3,3,0,0,0,2.93-3.47l-3.36-19.56L1114.55,170A3,3,0,0,0,1115.3,167Zm-20.23,13.73a3,3,0,0,0-.85,2.63l2.6,15.16-13.62-7.16a3.06,3.06,0,0,0-1.38-.34,3.1,3.1,0,0,0-1.39.34l-13.62,7.16,2.61-15.16a3,3,0,0,0-.86-2.63l-11-10.74,15.23-2.22a3,3,0,0,0,2.24-1.62l6.81-13.8,6.81,13.8a2.94,2.94,0,0,0,2.23,1.62l15.23,2.22Z"/><path class="cls-2" d="M46.3,286.66A27.72,27.72,0,1,0,74,314.38,27.75,27.75,0,0,0,46.3,286.66Zm0,49.5a21.78,21.78,0,1,1,21.78-21.78A21.8,21.8,0,0,1,46.3,336.16Z"/><path class="cls-2" d="M56.86,312.66l-15.6-9a2,2,0,0,0-2,0,2,2,0,0,0-1,1.71v18a2,2,0,0,0,1,1.72,2.06,2.06,0,0,0,1,.26,2,2,0,0,0,1-.26l15.6-9a2,2,0,0,0,0-3.43Z"/><path class="cls-2" d="M161.3,286.66A27.72,27.72,0,1,0,189,314.38,27.75,27.75,0,0,0,161.3,286.66Zm0,49.5a21.78,21.78,0,1,1,21.78-21.78A21.8,21.8,0,0,1,161.3,336.16Z"/><path class="cls-2" d="M155.32,303.3a3,3,0,0,0-3,3v16.22a3,3,0,0,0,5.94,0V306.27A3,3,0,0,0,155.32,303.3Z"/><path class="cls-2" d="M167.28,303.3a3,3,0,0,0-3,3v16.22a3,3,0,0,0,5.94,0V306.27A3,3,0,0,0,167.28,303.3Z"/><path class="cls-2" d="M276.3,286.66A27.72,27.72,0,1,0,304,314.38,27.75,27.75,0,0,0,276.3,286.66Zm0,49.5a21.78,21.78,0,1,1,21.78-21.78A21.8,21.8,0,0,1,276.3,336.16Z"/><path class="cls-2" d="M286.58,310.51h-4.24v-10a2,2,0,0,0-2-2H272.6a2,2,0,0,0-2,2v10h-4.24a2,2,0,0,0-1.67,3.05l10.1,15.77a2,2,0,0,0,3.34,0l10.09-15.77a2,2,0,0,0-1.66-3.05Z"/><path class="cls-2" d="M391.3,286.66A27.72,27.72,0,1,0,419,314.38,27.75,27.75,0,0,0,391.3,286.66Zm0,49.5a21.78,21.78,0,1,1,21.78-21.78A21.8,21.8,0,0,1,391.3,336.16Z"/><path class="cls-2" d="M392.79,299.43a2,2,0,0,0-3.33,0l-10.1,15.76a2,2,0,0,0,1.67,3.05h4.24v10a2,2,0,0,0,2,2H395a2,2,0,0,0,2-2v-10h4.24a2,2,0,0,0,1.67-3.05Z"/><path class="cls-2" d="M651,287.91H591.6a3,3,0,0,0-3,3v33.2a3,3,0,0,0,3,3h26.73v7.86H600.5a3,3,0,0,0,0,5.94h41.61a3,3,0,1,0,0-5.94H624.27v-7.86H651a3,3,0,0,0,3-3v-33.2A3,3,0,0,0,651,287.91Zm-3,33.2H594.57V293.85H648Z"/><path class="cls-2" d="M876.57,304.62c0-.1,0-.2,0-.3a2.51,2.51,0,0,0,0-.27,2.46,2.46,0,0,0-.09-.29,2.67,2.67,0,0,0-.09-.26,2.15,2.15,0,0,0-.14-.26A1.4,1.4,0,0,0,876,303a2,2,0,0,0-.18-.23c-.05-.06-.09-.12-.15-.18l-.06,0,0-.05-22.3-20.06-.16-.11-.25-.19-.25-.14-.26-.12-.3-.09a2,2,0,0,0-.26-.06l-.33,0H829a3,3,0,0,0-3,3v59.48a3,3,0,0,0,3,3h44.61a3,3,0,0,0,3-3V304.7S876.57,304.65,876.57,304.62Zm-22.3-13.32,11.66,10.49-11.66.09Zm16.37,49.85H832V287.61h16.36v17.26a3,3,0,0,0,.88,2.11,3.2,3.2,0,0,0,2.12.86l19.31-.15Z"/><path class="cls-2" d="M968.59,321.71a3,3,0,0,0,3-3V304.11a3,3,0,1,0-5.94,0v11.66h-9a3,3,0,0,0,0,5.94Z"/><path class="cls-2" d="M993.44,309a27.67,27.67,0,0,0-47.07-13.87l-4.77-2.75a2,2,0,0,0-2,0,2,2,0,0,0-1,1.71v18a2,2,0,0,0,2,2,1.91,1.91,0,0,0,1-.27l15.6-9a2,2,0,0,0,0-3.43l-5.48-3.17a21.76,21.76,0,1,1-5.56,24.63,3,3,0,0,0-5.48,2.29A27.73,27.73,0,0,0,993.44,309Z"/><path class="cls-2" d="M1109.62,332.37a3.19,3.19,0,0,0-.45-.45l-10.27-8.39a3.16,3.16,0,0,0-.86-.48c-4.08-1.5-7.21,1.66-9.16,3.8a76.28,76.28,0,0,1-9-10.79,79,79,0,0,1-7.66-11.59c2.62-1.25,6.56-3.33,6.3-7.68a2.8,2.8,0,0,0-.22-1l-5-12.26a2.73,2.73,0,0,0-.3-.56c-.29-.42-3-4.11-7.4-4.39-3-.16-5.82,1.19-8.43,4.09-5.54,6.18-9.6,12.59-3.15,28.48a2.58,2.58,0,0,0,.08.26c.24.63,6.08,15.64,18.22,26.72a2.33,2.33,0,0,0,.36.28c10.29,8.53,17,11.68,22.93,11.68a22.6,22.6,0,0,0,9.71-2.53c3.54-1.66,5.68-4,6.36-6.89C1112.69,336.4,1109.93,332.77,1109.62,332.37Zm-3.73,7c-.31,1.32-1.85,2.28-3.09,2.87-5.62,2.62-10.47,4.89-26.62-8.58l-.12-.09c-10-9.2-15.37-21.67-16.29-23.89,0-.11-.07-.23-.11-.34-5.8-14-2.05-18.22,1.92-22.64.91-1,2.31-2.21,3.61-2.13a4.42,4.42,0,0,1,2.77,1.66l4.59,11.14a12.3,12.3,0,0,1-3.2,1.92c-.51.24-1,.47-1.44.71a3.61,3.61,0,0,0-1.88,2.49c-.23,1-.91,4.19,9.12,17.12,9.55,13.45,12.76,13.71,13.82,13.79a3.61,3.61,0,0,0,2.94-1.07c.35-.36.71-.76,1.09-1.18a12.51,12.51,0,0,1,2.76-2.5l9.35,7.63A4.53,4.53,0,0,1,1105.89,339.36Z"/><path class="cls-2" d="M506.3,286.66A27.72,27.72,0,1,0,534,314.38,27.75,27.75,0,0,0,506.3,286.66Zm0,49.5a21.78,21.78,0,1,1,21.78-21.78A21.8,21.8,0,0,1,506.3,336.16Z"/><path class="cls-2" d="M505.12,305.27v4.33a1,1,0,0,0,.5.86,1.05,1.05,0,0,0,.49.13,1.13,1.13,0,0,0,.5-.13l11-6.36a1,1,0,0,0,.49-.85,1,1,0,0,0-.49-.86l-11-6.35a1,1,0,0,0-1.49.85v4.42a16,16,0,0,0-15.24,16,2,2,0,1,0,4,0A12.05,12.05,0,0,1,505.12,305.27Z"/><path class="cls-2" d="M520.74,309.49a2,2,0,0,0-2,2,12.06,12.06,0,0,1-11.28,12v-4.34a1,1,0,0,0-.49-.85,1,1,0,0,0-.5-.14,1,1,0,0,0-.49.14l-11,6.35a1,1,0,0,0-.49.86,1,1,0,0,0,.49.86l11,6.35a1,1,0,0,0,1,0,1,1,0,0,0,.49-.86v-4.41a16,16,0,0,0,15.24-16A2,2,0,0,0,520.74,309.49Z"/><path class="cls-2" d="M161.3,427.43A27.72,27.72,0,1,0,189,455.15,27.75,27.75,0,0,0,161.3,427.43Zm0,49.5a21.78,21.78,0,1,1,21.78-21.78A21.8,21.8,0,0,1,161.3,476.93Z"/><path class="cls-2" d="M158.27,447.08a2,2,0,0,0-2,0l-11,6.35a2,2,0,0,0,0,3.43l11,6.35a2,2,0,0,0,1,.27,1.94,1.94,0,0,0,1-.27,2,2,0,0,0,1-1.71V448.79A2,2,0,0,0,158.27,447.08Z"/><path class="cls-2" d="M174.71,447.08a2,2,0,0,0-2,0l-11,6.35a2,2,0,0,0,0,3.43l11,6.35a2,2,0,0,0,3-1.71V448.79A2,2,0,0,0,174.71,447.08Z"/><path class="cls-2" d="M756.43,483.52a2.92,2.92,0,0,1-1.68-.52l-24.34-16.67H716.18a3,3,0,0,1-3-3v-17.2a3,3,0,0,1,3-3h15.36l23.21-15.9a3,3,0,0,1,4.65,2.45v50.81a3,3,0,0,1-1.59,2.63A2.93,2.93,0,0,1,756.43,483.52Zm-37.28-23.13h12.18a3,3,0,0,1,1.68.52l20.45,14V435.38l-19.34,13.24a3,3,0,0,1-1.92.51H719.15Z"/><path class="cls-2" d="M875.31,439.07a3,3,0,0,0-4.2,4.2,16.81,16.81,0,0,1,0,23.75,3,3,0,1,0,4.2,4.2A22.75,22.75,0,0,0,875.31,439.07Z"/><path class="cls-2" d="M865.25,427.11a3,3,0,0,0-3.07.18L839,443.19H823.61a3,3,0,0,0-3,3v17.2a3,3,0,0,0,3,3h14.24L862.18,483a3,3,0,0,0,3.07.18,3,3,0,0,0,1.58-2.63V429.74A3,3,0,0,0,865.25,427.11Zm-4.36,47.81-20.44-14a3,3,0,0,0-1.68-.52H826.58V449.13h13.06a3,3,0,0,0,1.91-.51l19.34-13.24Z"/><path class="cls-2" d="M979.59,439.07a3,3,0,0,0,0,4.2,16.81,16.81,0,0,1,0,23.75,3,3,0,1,0,4.2,4.2,22.75,22.75,0,0,0,0-32.15A3,3,0,0,0,979.59,439.07Z"/><path class="cls-2" d="M995.69,434.68a3,3,0,1,0-4.2,4.19,23,23,0,0,1,0,32.55,3,3,0,1,0,4.2,4.2A29,29,0,0,0,995.69,434.68Z"/><path class="cls-2" d="M973.05,427.11a3,3,0,0,0-3.07.18l-23.21,15.9H931.41a3,3,0,0,0-3,3v17.2a3,3,0,0,0,3,3h14.24L970,483a3,3,0,0,0,4.65-2.45V429.74A3,3,0,0,0,973.05,427.11Zm-4.36,47.81-20.44-14a3,3,0,0,0-1.68-.52H934.38V449.13h13.06a3,3,0,0,0,1.92-.51l19.33-13.24Z"/><path class="cls-2" d="M391.3,419.51a26.1,26.1,0,0,0-26.18,25.22,13.19,13.19,0,0,0,.17,2.47c5.43,36,17.14,43.58,26,43.58,8.65,0,15.71-7.76,21-23.06a127.88,127.88,0,0,0,5.19-21.61,2.83,2.83,0,0,0,0-.41A26.22,26.22,0,0,0,391.3,419.51Zm0,65.33c-9,0-16.5-14.4-20.16-38.65a6.21,6.21,0,0,1-.08-1.24,20.25,20.25,0,0,1,40.49.56C410.09,455.94,403.37,484.84,391.3,484.84Z"/><path class="cls-2" d="M396.62,436.64a12.26,12.26,0,1,0,6.25,7A12.19,12.19,0,0,0,396.62,436.64Zm-3.24,17a6.32,6.32,0,1,1,3.88-8A6.32,6.32,0,0,1,393.38,453.65Z"/><path class="cls-2" d="M529.67,423.74H482.93a3,3,0,0,0-3,3v56.87a3,3,0,1,0,5.94,0V463.39h43.77a3,3,0,0,0,3-3V426.71A3,3,0,0,0,529.67,423.74Zm-3,33.71H485.9V429.68h40.8Z"/><path class="cls-2" d="M614.08,443.67h27.55a3,3,0,1,0,0-5.94H614.08a3,3,0,1,0,0,5.94Z"/><path class="cls-2" d="M604.64,436.87a4.43,4.43,0,1,0,1.62,6.05A4.44,4.44,0,0,0,604.64,436.87Z"/><path class="cls-2" d="M641.63,452.18H614.08a3,3,0,1,0,0,5.94h27.55a3,3,0,1,0,0-5.94Z"/><path class="cls-2" d="M604.64,451.31a4.43,4.43,0,1,0,1.62,6.05A4.44,4.44,0,0,0,604.64,451.31Z"/><path class="cls-2" d="M641.63,466.62H614.08a3,3,0,1,0,0,5.94h27.55a3,3,0,1,0,0-5.94Z"/><path class="cls-2" d="M604.64,465.76a4.42,4.42,0,1,0,1.62,6A4.43,4.43,0,0,0,604.64,465.76Z"/><path class="cls-2" d="M46.3,427.43A27.72,27.72,0,1,0,74,455.15,27.75,27.75,0,0,0,46.3,427.43Zm0,49.5a21.78,21.78,0,1,1,21.78-21.78A21.8,21.8,0,0,1,46.3,476.93Z"/><path class="cls-2" d="M62.31,453.43l-11-6.35a2,2,0,0,0-3,1.71V461.5a2,2,0,0,0,2,2,1.94,1.94,0,0,0,1-.27l11-6.35a2,2,0,0,0,0-3.43Z"/><path class="cls-2" d="M45.88,453.43l-11-6.35a2,2,0,0,0-3,1.71V461.5a2,2,0,0,0,2,2,1.91,1.91,0,0,0,1-.27l11-6.35a2,2,0,0,0,0-3.43Z"/><path class="cls-2" d="M1084.8,487.63a3,3,0,0,1-2.6-1.54l-11.31-20.53-20.53-11.32a3,3,0,0,1,.23-5.31l59-26a3,3,0,0,1,3.91,3.92l-26,59a3,3,0,0,1-2.58,1.77Zm-26.32-35.69,16,8.83a3,3,0,0,1,1.16,1.17l8.84,16,20.5-46.53Z"/><path class="cls-1" d="M276.3,427.43A27.72,27.72,0,1,0,304,455.15,27.75,27.75,0,0,0,276.3,427.43Zm0,49.5a21.78,21.78,0,1,1,21.78-21.78A21.8,21.8,0,0,1,276.3,476.93Z"/><path class="cls-1" d="M292.82,462.43l-11-6.35a1,1,0,0,0-1.48.86v4.2c-2.37-.46-6.14-1.86-7.56-5.94,1.42-4.09,5.19-5.49,7.55-5.95v4.1a1,1,0,0,0,.5.86,1,1,0,0,0,.49.13,1,1,0,0,0,.5-.13l11-6.35a1,1,0,0,0,.5-.86,1,1,0,0,0-.5-.86l-11-6.35a1,1,0,0,0-1,0,1,1,0,0,0-.5.86v4.57a14.8,14.8,0,0,0-9.41,5.19,10.81,10.81,0,0,0-10.59-5.3,2,2,0,0,0,.54,3.92c.61-.07,6-.54,7.77,6.17-1.77,6.69-7.13,6.24-7.77,6.16a2,2,0,0,0-.54,3.92,9.18,9.18,0,0,0,1.23.08,10.83,10.83,0,0,0,9.35-5.38,14.82,14.82,0,0,0,9.43,5.19v4.47a1,1,0,0,0,.49.86,1,1,0,0,0,.5.13,1,1,0,0,0,.49-.13l11-6.35a1,1,0,0,0,0-1.72Z"/><path class="cls-2" d="M73,573.89a2,2,0,0,0-2,0l-4.76,2.76a27.68,27.68,0,1,0,5.68,30,3,3,0,0,0-5.48-2.29,21.84,21.84,0,0,1-24.33,12.92,21.78,21.78,0,1,1,18.78-37.55l-5.48,3.17a2,2,0,0,0,0,3.43l15.59,9a2,2,0,0,0,1,.27,1.91,1.91,0,0,0,1-.27,2,2,0,0,0,1-1.71v-18A2,2,0,0,0,73,573.89Z"/><path class="cls-2" d="M194.49,572.07l-16.34-2.87a3,3,0,0,0-1,0L161.3,572l-15.82-2.78a3,3,0,0,0-1,0l-16.33,2.87a3,3,0,0,0-2.46,2.93v44.7a3,3,0,0,0,1.07,2.28,3,3,0,0,0,2.43.64L145,619.78l15.81,2.84h0a3,3,0,0,0,.52,0,2.74,2.74,0,0,0,.5,0l15.84-2.72,15.83,2.72a3,3,0,0,0,3.47-2.93V575A3,3,0,0,0,194.49,572.07Zm-50.05,41.77-12.84,2.31V577.49L145,575.14l13.36,2.35v38.66l-12.84-2.31A2.65,2.65,0,0,0,144.44,613.84ZM191,616.18,178.14,614a2.8,2.8,0,0,0-1,0l-12.87,2.21V577.49l13.37-2.35L191,577.49Z"/><path class="cls-2" d="M306,620.26H246.56a3,3,0,0,1-3-3V574.54a3,3,0,0,1,3-3h20.59a3,3,0,0,1,2,.73l6.85,6H306a3,3,0,0,1,3,3v36A3,3,0,0,1,306,620.26Zm-56.51-5.94h53.54V584.23H274.84a2.92,2.92,0,0,1-1.95-.74l-6.85-6H249.53Z"/><path class="cls-2" d="M862.52,619H822.26a3,3,0,0,1-3-3V575.79a3,3,0,0,1,3-3h40.26a3,3,0,0,1,3,3v6.57l13.17-9a3,3,0,0,1,4.65,2.45V616a3,3,0,0,1-4.65,2.45l-13.17-9V616A3,3,0,0,1,862.52,619Zm-37.29-5.94h34.32v-9.24a3,3,0,0,1,4.65-2.45l13.17,9v-29l-13.17,9a3,3,0,0,1-3.07.17,3,3,0,0,1-1.58-2.62v-9.24H825.23Z"/><path class="cls-2" d="M541.51,569.59a9.7,9.7,0,0,0-6.62-3.55,9.79,9.79,0,0,0-8.35,16.21L520,593.09a9.85,9.85,0,0,0-1.32-.23,9.67,9.67,0,0,0-7.19,2.17c-.12.09-.22.19-.33.29l-6.66-3.92a9.87,9.87,0,0,0,.21-1.21,9.81,9.81,0,1,0-17.14,5.47L481,606.5a9.85,9.85,0,0,0-1.32-.23,9.81,9.81,0,0,0-2,19.53c.33,0,.66.05,1,.05a9.82,9.82,0,0,0,7.59-16c-.07-.09-.15-.16-.22-.24l6.56-10.84A9.32,9.32,0,0,0,494,599a8.15,8.15,0,0,0,1,0,9.79,9.79,0,0,0,6.54-2.51l6.65,3.92a9.81,9.81,0,0,0,8.58,12c.33,0,.66.05,1,.05a9.82,9.82,0,0,0,7.6-16c-.07-.09-.15-.16-.22-.24l6.56-10.84a9.32,9.32,0,0,0,1.32.23,8.15,8.15,0,0,0,1,.05,9.81,9.81,0,0,0,7.59-16Zm-46.59,15.75a2.55,2.55,0,0,1,.39,0,3.88,3.88,0,0,1,3.47,4.24,3.87,3.87,0,1,1-3.86-4.26Zm-12.38,31.08a3.9,3.9,0,0,1-4.24,3.47,3.85,3.85,0,0,1-2.61-1.41,3.88,3.88,0,0,1,3-6.32l.4,0a3.86,3.86,0,0,1,3.46,4.24Zm39-13.41a3.87,3.87,0,1,1-6.3-3.39,3.82,3.82,0,0,1,2.44-.87l.4,0a3.86,3.86,0,0,1,3.46,4.24Zm16.24-26.83a3.87,3.87,0,1,1-3.86-4.26l.39,0a3.89,3.89,0,0,1,3.47,4.24Z"/><path class="cls-2" d="M410.21,607.41a11.6,11.6,0,0,0-8.07,3.26l-18.56-11.38a11.64,11.64,0,0,0,0-6.75l18.56-11.38a11.67,11.67,0,1,0-3.62-8.43,11.81,11.81,0,0,0,.5,3.38l-18.55,11.37a11.7,11.7,0,1,0,0,16.87L399,615.72a11.69,11.69,0,1,0,11.19-8.31Zm0-40.43a5.75,5.75,0,1,1-5.75,5.75A5.76,5.76,0,0,1,410.21,567Zm-37.82,34.69a5.76,5.76,0,1,1,5.75-5.75A5.76,5.76,0,0,1,372.39,601.67Zm37.82,23.18A5.75,5.75,0,1,1,416,619.1,5.76,5.76,0,0,1,410.21,624.85Z"/><path class="cls-2" d="M613.31,611.32a7.78,7.78,0,0,0,2.56,15.12,7.81,7.81,0,0,0,7-4.4,7.77,7.77,0,0,0-9.57-10.72Zm6,9a3.73,3.73,0,0,1-2.18,1.94,3.81,3.81,0,0,1-4.86-2.34,3.81,3.81,0,0,1,2.34-4.86,3.72,3.72,0,0,1,1.26-.22,3.83,3.83,0,0,1,3.61,2.56A3.75,3.75,0,0,1,619.31,620.32Z"/><path class="cls-2" d="M634.59,611.32a7.78,7.78,0,0,0,2.56,15.12,7.59,7.59,0,0,0,2.57-.44,7.78,7.78,0,1,0-5.13-14.68Zm6,9a3.76,3.76,0,0,1-2.18,1.94,3.81,3.81,0,1,1-2.52-7.2,3.66,3.66,0,0,1,1.25-.22,3.83,3.83,0,0,1,3.45,5.48Z"/><path class="cls-2" d="M654.31,575.32a2.94,2.94,0,0,0-2.26-1.05l-39-.1h0a3,3,0,0,0,0,5.94l35.49.09-3.74,22.1h-33l-6.32-34.48a3,3,0,0,0-2.92-2.43H590.56a3,3,0,1,0,0,5.94H600l6.32,34.48a3,3,0,0,0,2.92,2.43h38a3,3,0,0,0,2.93-2.47l4.74-28A2.93,2.93,0,0,0,654.31,575.32Z"/><path class="cls-2" d="M763.93,616.25l-7.65-11.17V587.42a20,20,0,0,0-17-19.73v-3.42a3,3,0,0,0-5.94,0v3.42a20,20,0,0,0-17,19.73v17.66l-7.65,11.17a3,3,0,0,0,2.45,4.65h15a10,10,0,0,0,.55,2.78,10.24,10.24,0,0,0,9.66,6.85,10.23,10.23,0,0,0,10.2-9.63h15a3,3,0,0,0,2.45-4.65ZM736.3,573.39a14,14,0,0,1,14,14V603H722.27V587.42A14,14,0,0,1,736.3,573.39Zm3.86,48.78a4.28,4.28,0,0,1-7.9-.45,4.08,4.08,0,0,1-.2-.82h8.47A4.19,4.19,0,0,1,740.16,622.17ZM716.76,615l4.1-6h30.88l4.1,6Z"/><path class="cls-2" d="M960.18,617h.15a3,3,0,0,0,2.82-3.11L961.82,586a3,3,0,0,0-5.93.28l1.33,27.86A3,3,0,0,0,960.18,617Z"/><path class="cls-2" d="M972.28,617h.14a3,3,0,0,0,3-2.83l1.33-27.86a3,3,0,0,0-5.94-.28l-1.32,27.86A3,3,0,0,0,972.28,617Z"/><path class="cls-2" d="M993.31,573.84H974.7v-5.66a3,3,0,0,0-3-3H960.87a3,3,0,0,0-3,3v5.66H939.3a3.13,3.13,0,1,0,0,6.26h3.18L946.87,624a3,3,0,0,0,3,2.67h32.95a3,3,0,0,0,3-2.67l4.4-43.85h3.18a3.13,3.13,0,1,0,0-6.26Zm-29.47-2.69h4.92v2.69h-4.92Zm16.25,49.53H952.51l-4.06-40.58h35.71Z"/><path class="cls-2" d="M1078,621.28a18.33,18.33,0,0,1-9.64-2.7,18.34,18.34,0,0,1-6.38,1.61c-9.17.65-17.21-5.44-18-13.53-.58-6.18,3.21-11.9,9.39-14.51.86-7,7.16-12.55,15.32-13.1.5,0,1,0,1.51,0a16.88,16.88,0,0,1,13.8-8.41c8-.55,15.06,3.85,17.29,10.44,5.81,2.09,9.78,6.82,10.3,12.45,0,.15,0,.3,0,.46a14.45,14.45,0,0,1,7,10.83,13.62,13.62,0,0,1-3.3,10.1,17.34,17.34,0,0,1-12.07,5.84,17.86,17.86,0,0,1-13-4.19,17.57,17.57,0,0,1-11,4.7C1078.83,621.26,1078.4,621.28,1078,621.28Zm-9.42-9.15a3,3,0,0,1,1.87.66,12.25,12.25,0,0,0,8.41,2.52,11,11,0,0,0,8.74-4.87A3,3,0,0,1,1090,609h.08a3,3,0,0,1,2.45,1.28,12.09,12.09,0,0,0,18.23.73,7.64,7.64,0,0,0,1.9-5.7h0a8.88,8.88,0,0,0-5.34-7,3,3,0,0,1-1.67-3,6.87,6.87,0,0,0,0-1.35c-.33-3.58-3.37-6.7-7.57-7.77A3,3,0,0,1,1096,584c-.87-4.54-6-7.78-11.52-7.43-4.5.31-8.33,2.94-9.51,6.53a2.94,2.94,0,0,1-3.21,2,13.47,13.47,0,0,0-2.6-.09c-5.76.4-10.09,4.42-9.86,9.15a3,3,0,0,1-2.15,3c-4.6,1.33-7.55,5-7.19,9,.46,4.91,5.69,8.52,11.64,8.15a12.16,12.16,0,0,0,5.48-1.7A3,3,0,0,1,1068.56,612.13Z"/><path class="cls-2" d="M760.36,322.7h-3.29L752.75,287c0-.07,0-.13,0-.2h2.8a3,3,0,1,0,0-5.94H721a3,3,0,0,0,0,5.94h2.81a1.46,1.46,0,0,0,0,.2L719.4,322.7h-3.29a3,3,0,0,0,0,5.94H732.2l3.11,16.85s0,0,0,.05a1.66,1.66,0,0,0,.06.21,3,3,0,0,0,.1.32l.09.19c0,.1.11.2.17.3l.12.17.21.25c0,.06.11.11.16.16a2.43,2.43,0,0,0,.25.2l.19.13.3.16.18.08a2.46,2.46,0,0,0,.51.15h0a3.07,3.07,0,0,0,.53.05h0a3,3,0,0,0,.52-.05h0l.09,0a2.23,2.23,0,0,0,.44-.13,1.76,1.76,0,0,0,.2-.09,2,2,0,0,0,.29-.15,1.33,1.33,0,0,0,.19-.14,1.55,1.55,0,0,0,.24-.19,1.29,1.29,0,0,0,.17-.16l.21-.25.12-.17.16-.29a1.86,1.86,0,0,0,.1-.2c0-.1.07-.2.1-.3a2.1,2.1,0,0,0,.06-.24l0,0,3.11-16.85h16.09a3,3,0,1,0,0-5.94ZM746.9,286.78a3.06,3.06,0,0,0,0,.91l4.24,35H725.38l4.24-35a2.76,2.76,0,0,0,0-.91Z"/><text class="cls-3" transform="translate(34.96 107.63)">矢印</text><text class="cls-3" transform="translate(143.89 107.63)">メール</text><text class="cls-3" transform="translate(264.82 107.63)">電波</text><text class="cls-3" transform="translate(373.74 107.63)">ホーム</text><text class="cls-3" transform="translate(452.67 107.63)">インフォメーション</text><text class="cls-3" transform="translate(609.59 107.63)">まる</text><text class="cls-3" transform="translate(724.52 107.63)">ばつ</text><text class="cls-3" transform="translate(833.45 107.63)">感嘆符</text><text class="cls-3" transform="translate(924.38 107.63)">チェックマーク</text><text class="cls-3" transform="translate(1051.3 107.63)">禁止マーク</text><text class="cls-3" transform="translate(34.96 247.7)">時計</text><text class="cls-3" transform="translate(143.89 247.7)">スマホ</text><text class="cls-3" transform="translate(264.82 247.7)">拡大</text><text class="cls-3" transform="translate(379.74 247.7)">縮小</text><text class="cls-3" transform="translate(494.67 247.7)">検索</text><text class="cls-3" transform="translate(615.6 247.7)">鍵</text><text class="cls-3" transform="translate(712.52 247.7)">ログイン</text><text class="cls-3" transform="translate(821.45 247.7)">ログアウト</text><text class="cls-3" transform="translate(942.38 247.7)">コメント</text><text class="cls-3" transform="translate(1051.3 247.7)">お気に入り</text><text class="cls-3" transform="translate(34.96 387.77)">再生</text><text class="cls-3" transform="translate(138.69 387.77)">一時停止</text><text class="cls-3" transform="translate(240.82 387.77)">ダウンロード</text><text class="cls-3" transform="translate(355.74 387.77)">アップロード</text><text class="cls-3" transform="translate(482.67 387.77)">リピート</text><text class="cls-3" transform="translate(585.6 387.77)">ディスプレイ</text><text class="cls-3" transform="translate(726.23 387.77)">ピン</text><text class="cls-3" transform="translate(827.45 387.77)">ファイル</text><text class="cls-3" transform="translate(954.38 387.77)">履歴</text><text class="cls-3" transform="translate(1069.3 387.77)">電話</text><text class="cls-3" transform="translate(28.96 527.84)">早送り</text><text class="cls-3" transform="translate(143.89 527.84)">逆再生</text><text class="cls-3" transform="translate(379.74 527.84)">位置</text><text class="cls-3" transform="translate(494.67 527.84)">はた</text><text class="cls-3" transform="translate(603.6 527.84)">リスト</text><text class="cls-3" transform="translate(724.52 527.84)">音量</text><text class="cls-3" transform="translate(821.45 527.84)">音量下げる</text><text class="cls-3" transform="translate(1069.3 527.84)">方角</text><text class="cls-3" transform="translate(252.82 527.84)">スキップ</text><text class="cls-3" transform="translate(936.38 527.84)">音量あげる</text><text class="cls-3" transform="translate(28.96 667.91)">ループ</text><text class="cls-3" transform="translate(155.89 667.91)">本</text><text class="cls-3" transform="translate(379.74 667.91)">共有</text><text class="cls-3" transform="translate(488.67 667.91)">グラフ</text><text class="cls-3" transform="translate(603.59 667.91)">カート</text><text class="cls-3" transform="translate(724.52 667.91)">着信</text><text class="cls-3" transform="translate(839.45 667.91)">放映</text><text class="cls-3" transform="translate(1057.3 667.91)">クラウド</text><text class="cls-3" transform="translate(252.82 667.91)">フォルダ</text><text class="cls-3" transform="translate(948.37 667.91)">ゴミ箱</text><path class="cls-2" d="M275.3,745.26c7.28,0,13.19-6.89,13.19-15.34V717c0-8.45-5.91-15.34-13.19-15.34S262.11,708.5,262.11,717v13C262.11,738.37,268,745.26,275.3,745.26ZM267.72,717c0-5.36,3.4-9.73,7.58-9.73s7.59,4.37,7.59,9.73v13c0,5.36-3.4,9.73-7.59,9.73s-7.58-4.37-7.58-9.73Z"/><path class="cls-2" d="M295.53,724.3a2.81,2.81,0,0,0-2.81,2.81v6.24a17.42,17.42,0,0,1-34.84,0v-6.24a2.8,2.8,0,1,0-5.6,0v6.24a22.84,22.84,0,0,0,20.22,22.52v8.59h-9.95a2.81,2.81,0,1,0,0,5.61h25.51a2.81,2.81,0,0,0,0-5.61h-10v-8.59a22.85,22.85,0,0,0,20.23-22.52v-6.24A2.81,2.81,0,0,0,295.53,724.3Z"/><path class="cls-2" d="M505.3,708.12A27.72,27.72,0,1,0,533,735.84,27.75,27.75,0,0,0,505.3,708.12Zm0,49.5a21.78,21.78,0,1,1,21.78-21.78A21.8,21.8,0,0,1,505.3,757.62Z"/><path class="cls-2" d="M494.08,732a3.8,3.8,0,1,0,3.79,3.8A3.8,3.8,0,0,0,494.08,732Z"/><path class="cls-2" d="M505.3,732a3.8,3.8,0,1,0,3.8,3.8A3.8,3.8,0,0,0,505.3,732Z"/><path class="cls-2" d="M516.53,732a3.8,3.8,0,1,0,3.79,3.8A3.8,3.8,0,0,0,516.53,732Z"/><path class="cls-2" d="M652.73,735.84A32.45,32.45,0,1,0,635,764.72a2.46,2.46,0,0,0,1.83-1A32.43,32.43,0,0,0,652.73,735.84ZM608.21,759.4v-6.25c0-7.5,1.95-11.37,6.52-12.93a2.51,2.51,0,0,0,1.66-2,2.47,2.47,0,0,0-1.08-2.37,9,9,0,1,1,10,0,2.5,2.5,0,0,0-1,2.56,2.47,2.47,0,0,0,2,1.93c3.35.63,6.19,6.52,6.19,12.85v6.25a26.43,26.43,0,0,1-24.19,0Zm29.14-3.3v-3c0-6-2.19-12.67-6.32-15.91a13.95,13.95,0,1,0-21.43,0c-5.6,3.82-6.33,10.69-6.33,15.87v3a26.48,26.48,0,1,1,34.08,0Z"/><path class="cls-2" d="M757.24,719.37c-7-3.69-15.65-6.08-21.94-6.08s-14.9,2.39-21.93,6.08c-8.83,4.63-13.69,10.48-13.69,16.47s4.86,11.84,13.69,16.47c7,3.69,15.64,6.08,21.93,6.08s14.9-2.39,21.94-6.08c8.82-4.63,13.69-10.48,13.69-16.47S766.06,724,757.24,719.37ZM735.3,752.45c-5.32,0-13-2.17-19.17-5.4-6.58-3.45-10.51-7.64-10.51-11.21,0-8.24,19-16.61,29.68-16.61,5.32,0,13,2.17,19.18,5.4,6.58,3.45,10.51,7.64,10.51,11.21C765,744.08,745.94,752.45,735.3,752.45Z"/><path class="cls-2" d="M747.45,731.59a12.87,12.87,0,1,0-17.74,15.84,12.74,12.74,0,0,0,5.58,1.29,13.07,13.07,0,0,0,4.26-.73,12.89,12.89,0,0,0,7.9-16.4Zm-9.86,10.79a6.93,6.93,0,1,1,4.25-8.83A6.87,6.87,0,0,1,737.59,742.38Z"/><polygon class="cls-4" points="995.29 735.84 982.21 727.46 982.21 732.62 973.81 732.62 972.25 732.62 968.52 732.62 968.52 728.89 968.52 718.93 973.68 718.93 965.3 705.85 956.92 718.93 962.09 718.93 962.09 727.33 962.09 728.89 962.09 732.62 958.35 732.62 948.4 732.62 948.4 727.46 935.32 735.84 948.4 744.22 948.4 739.06 956.79 739.06 958.35 739.06 962.09 739.06 962.09 742.79 962.09 752.74 956.92 752.74 965.3 765.83 973.68 752.74 968.52 752.74 968.52 744.35 968.52 742.79 968.52 739.06 972.25 739.06 982.21 739.06 982.21 744.22 995.29 735.84"/><polygon class="cls-4" points="1067.68 711.37 1052.51 708.04 1055.83 723.22 1059.48 719.57 1065.41 725.5 1066.52 726.61 1068.8 724.33 1071.07 722.06 1064.03 715.02 1067.68 711.37"/><polygon class="cls-4" points="1094.08 726.61 1101.12 719.57 1104.77 723.22 1108.1 708.04 1092.92 711.37 1096.57 715.02 1090.64 720.95 1089.53 722.06 1091.81 724.33 1094.08 726.61"/><polygon class="cls-4" points="1101.12 752.11 1095.19 746.18 1094.08 745.07 1091.81 747.35 1089.53 749.62 1096.57 756.66 1092.92 760.31 1108.1 763.64 1104.77 748.46 1101.12 752.11"/><polygon class="cls-4" points="1066.52 745.07 1059.48 752.11 1055.83 748.46 1052.51 763.64 1067.68 760.31 1064.03 756.66 1069.96 750.73 1071.07 749.62 1068.8 747.35 1066.52 745.07"/><polygon class="cls-5" points="133.38 752.3 133.38 763.31 187.23 763.31 187.23 752.3 175.55 752.3 133.38 752.3"/><polygon class="cls-5" points="175.55 730.34 133.38 730.34 133.38 741.34 187.23 741.34 187.23 730.34 175.55 730.34"/><polygon class="cls-5" points="187.23 708.37 175.55 708.37 133.38 708.37 133.38 719.38 187.23 719.38 187.23 708.37"/><path class="cls-2" d="M37.23,700.57H13a3,3,0,0,0-3,3v24.22a3,3,0,0,0,3,3H37.23a3,3,0,0,0,3-3V703.54A3,3,0,0,0,37.23,700.57Zm-3,24.22H16V706.51H34.26Z"/><path class="cls-2" d="M77.6,700.57H53.38a3,3,0,0,0-3,3v24.22a3,3,0,0,0,3,3H77.6a3,3,0,0,0,3-3V703.54A3,3,0,0,0,77.6,700.57Zm-3,24.22H56.35V706.51H74.63Z"/><path class="cls-2" d="M77.6,740.94H53.38a3,3,0,0,0-3,3v24.23a3,3,0,0,0,3,3H77.6a3,3,0,0,0,3-3V743.91A3,3,0,0,0,77.6,740.94Zm-3,24.23H56.35V746.88H74.63Z"/><path class="cls-2" d="M37.23,740.94H13a3,3,0,0,0-3,3v24.23a3,3,0,0,0,3,3H37.23a3,3,0,0,0,3-3V743.91A3,3,0,0,0,37.23,740.94Zm-3,24.23H16V746.88H34.26Z"/><path class="cls-2" d="M1108.6,854.83a2,2,0,0,0-.58-1.4l-4.55-4.55a2,2,0,0,0-2.8,0l-5.64,5.64-2.25-2.25a2,2,0,0,0-3.33,1l-3.33,15.17a2,2,0,0,0,1.93,2.41,2.1,2.1,0,0,0,.43-.05l15.17-3.33a2,2,0,0,0,1-3.33l-2.25-2.25,5.64-5.64A2,2,0,0,0,1108.6,854.83Z"/><path class="cls-2" d="M1072.13,882.41,1057,885.74a2,2,0,0,0-1,3.34l2.25,2.24-5.64,5.64a2,2,0,0,0,0,2.8l4.54,4.55a2,2,0,0,0,2.81,0l5.64-5.64,2.24,2.25a2,2,0,0,0,3.34-1l3.32-15.18A2,2,0,0,0,1074,883,2,2,0,0,0,1072.13,882.41Z"/><path class="cls-1" d="M75.79,852.56h-61a3,3,0,0,0-3,3v42.16a3,3,0,0,0,3,3h61a3,3,0,0,0,3-3V855.53A3,3,0,0,0,75.79,852.56Zm-3,5.94v5.79h-55V858.5Zm-55,36.22V872.21h55v22.51Z"/><path class="cls-2" d="M160.3,868.12a8.49,8.49,0,1,0,8.49,8.49A8.5,8.5,0,0,0,160.3,868.12Z"/><path class="cls-2" d="M160.3,845.64a31,31,0,1,0,31,31A31,31,0,0,0,160.3,845.64Zm0,45.4a14.43,14.43,0,1,1,14.43-14.43A14.46,14.46,0,0,1,160.3,891Z"/><path class="cls-2" d="M275.3,843.52A22.52,22.52,0,0,0,252.81,866V887.2a22.49,22.49,0,0,0,45,0V866A22.52,22.52,0,0,0,275.3,843.52Zm1.77,21.88v4.06a1.77,1.77,0,1,1-3.53,0V865.4a1.77,1.77,0,1,1,3.53,0Zm14.78,21.8a16.55,16.55,0,0,1-33.1,0V866a16.58,16.58,0,0,1,14.57-16.42V860a5.74,5.74,0,0,0-3.74,5.37v4.06a5.73,5.73,0,1,0,11.45,0V865.4a5.75,5.75,0,0,0-3.75-5.37V849.59A16.57,16.57,0,0,1,291.85,866Z"/><path class="cls-1" d="M414,863.35h-3.83a20.08,20.08,0,0,0-39.72,0h-3.82a3,3,0,0,0-3,3V904a3,3,0,0,0,3,3H414a3,3,0,0,0,3-3V866.32A3,3,0,0,0,414,863.35Zm-23.69-11.2a14.19,14.19,0,0,1,13.85,11.2H376.46A14.18,14.18,0,0,1,390.3,852.15ZM411,901.06H369.59V869.29H411Z"/><path class="cls-1" d="M390.3,876.57a4.92,4.92,0,0,0-3,8.85v6.68a3,3,0,1,0,5.94,0v-6.68a4.92,4.92,0,0,0-3-8.85Z"/><path class="cls-1" d="M529,866.66h-4.58a20.1,20.1,0,0,0-38.32-11.39,3,3,0,1,0,5.48,2.29,14.16,14.16,0,0,1,26.75,9.1h-36.7a3,3,0,0,0-3,3v37.71a3,3,0,0,0,3,3H529a3,3,0,0,0,3-3V869.63A3,3,0,0,0,529,866.66Zm-3,37.71H484.59V872.6H526Z"/><path class="cls-1" d="M505.3,879.88a4.92,4.92,0,0,0-3,8.85v6.68a3,3,0,1,0,5.94,0v-6.68a4.92,4.92,0,0,0-3-8.85Z"/><path class="cls-2" d="M648.46,856.53H635.31v-4.26a3,3,0,0,0-3-3H608.26a3,3,0,0,0-3,3v4.26H592.14a3,3,0,0,0-3,3V901a3,3,0,0,0,3,3h56.32a3,3,0,0,0,3-3V859.5A3,3,0,0,0,648.46,856.53Zm-3,41.45H595.11V862.47h13.15a3,3,0,0,0,3-3v-4.26h18.14v4.26a3,3,0,0,0,3,3h13.15Z"/><path class="cls-2" d="M620.3,863.16a16.26,16.26,0,1,0,16.26,16.26A16.27,16.27,0,0,0,620.3,863.16Zm0,26.57a10.32,10.32,0,1,1,10.32-10.31A10.32,10.32,0,0,1,620.3,889.73Z"/><path class="cls-2" d="M995.79,849.8h-6.35v-3.21a3,3,0,1,0-5.94,0v3.21H949.38v-3.21a3,3,0,1,0-5.93,0v3.21h-8.64a3,3,0,0,0-3,3v53.85a3,3,0,0,0,3,3h61a3,3,0,0,0,3-3V852.77A3,3,0,0,0,995.79,849.8Zm-52.34,5.94V859a3,3,0,1,0,5.93,0v-3.21H983.5V859a3,3,0,1,0,5.94,0v-3.21h3.38v8.2h-55v-8.2Zm-5.67,47.91V867.9h55v35.75Z"/><path class="cls-2" d="M987.16,873.09H966.44a2,2,0,0,0-2,2v20.71a2,2,0,0,0,2,2h20.72a2,2,0,0,0,2-2V875.07A2,2,0,0,0,987.16,873.09Zm-2,20.71H968.42V877.05h16.76Z"/><rect class="cls-2" x="941.43" y="874.89" width="6.93" height="6.93" rx="0.99"/><rect class="cls-2" x="953.29" y="874.89" width="6.93" height="6.93" rx="0.99"/><rect class="cls-2" x="941.43" y="889.03" width="6.93" height="6.93" rx="0.99"/><rect class="cls-2" x="953.29" y="889.03" width="6.93" height="6.93" rx="0.99"/><path class="cls-2" d="M73,1017.57a27.72,27.72,0,1,0-47.32,19.6,28.2,28.2,0,0,0,4,3.34L24.13,1046a3,3,0,1,0,4.16,4.24l7-6.86a27.75,27.75,0,0,0,20.08,0l7,6.86a3,3,0,0,0,4.17-4.24l-5.61-5.51a28.12,28.12,0,0,0,4-3.34A27.5,27.5,0,0,0,73,1017.57ZM29.9,1033a21.78,21.78,0,1,1,30.8,0A21.64,21.64,0,0,1,29.9,1033Z"/><path class="cls-2" d="M19.57,999.47a10.37,10.37,0,0,1,10.88-9.87,3,3,0,0,0,.29-5.94,16.34,16.34,0,0,0-17.11,15.52,3,3,0,0,0,2.82,3.11h.15A3,3,0,0,0,19.57,999.47Z"/><path class="cls-2" d="M71.63,987.88a16.23,16.23,0,0,0-11.77-4.22,3,3,0,0,0,.29,5.94A10.39,10.39,0,0,1,71,999.47a3,3,0,0,0,3,2.82h.15A3,3,0,0,0,77,999.18,16.21,16.21,0,0,0,71.63,987.88Z"/><path class="cls-2" d="M54.2,1007.85l-8.91,8.9-6.4-6.39a3,3,0,1,0-4.2,4.2l8.5,8.49a3,3,0,0,0,4.2,0l11-11a3,3,0,0,0-4.2-4.2Z"/><path class="cls-2" d="M416.89,990.79a17.06,17.06,0,0,0-24.09,0L382,1001.59a3,3,0,1,0,4.2,4.2L397,995a11.09,11.09,0,0,1,15.69,15.69l-10.8,10.79a3,3,0,1,0,4.2,4.2l10.8-10.79A17.06,17.06,0,0,0,416.89,990.79Z"/><path class="cls-2" d="M394.4,1029l-10.79,10.79a11.09,11.09,0,1,1-15.68-15.68l10.79-10.79a3,3,0,0,0-4.2-4.2l-10.79,10.79A17,17,0,1,0,387.81,1044l10.79-10.79a3,3,0,1,0-4.2-4.2Z"/><path class="cls-2" d="M379.08,1028.6a3,3,0,0,0,4.2,0l18.25-18.25a3,3,0,0,0-4.2-4.2l-18.25,18.25A3,3,0,0,0,379.08,1028.6Z"/><path class="cls-1" d="M649,987.48H635.77a3,3,0,0,0-3,3v53.85a3,3,0,0,0,3,3H649a3,3,0,0,0,3-3V990.45A3,3,0,0,0,649,987.48Zm-3,53.85h-7.33V993.42h7.33Z"/><path class="cls-1" d="M626.93,1010.6H613.67a3,3,0,0,0-3,3v30.73a3,3,0,0,0,3,3h13.26a3,3,0,0,0,3-3v-30.73A3,3,0,0,0,626.93,1010.6Zm-3,30.73h-7.32v-24.79H624Z"/><path class="cls-1" d="M604.83,999.43H591.57a3,3,0,0,0-3,3v41.9a3,3,0,0,0,3,3h13.26a3,3,0,0,0,3-3v-41.9A3,3,0,0,0,604.83,999.43Zm-3,41.9h-7.32v-36h7.32Z"/><path class="cls-2" d="M535.79,987.48h-61a3,3,0,0,0-3,3v53.85a3,3,0,0,0,3,3h61a3,3,0,0,0,3-3V990.45A3,3,0,0,0,535.79,987.48Zm-3,5.94v9.29h-55v-9.29Zm-55,47.91v-34.66h55v34.66Z"/><path class="cls-2" d="M483.78,1000.47a2.13,2.13,0,1,0-2.13-2.13A2.14,2.14,0,0,0,483.78,1000.47Z"/><path class="cls-2" d="M492.5,1000.47a2.13,2.13,0,1,0-2.13-2.13A2.14,2.14,0,0,0,492.5,1000.47Z"/><path class="cls-2" d="M501.22,1000.47a2.13,2.13,0,1,0-2.13-2.13A2.14,2.14,0,0,0,501.22,1000.47Z"/><path class="cls-2" d="M965.31,1049.75a4,4,0,0,1-.49,0,3,3,0,0,1-1.62-.83l-29.75-29.76a18.25,18.25,0,0,1-5.29-13.85A21.43,21.43,0,0,1,948.4,985a18.26,18.26,0,0,1,13.85,5.29l3.06,3.06,3.05-3.06A18.28,18.28,0,0,1,982.21,985a21,21,0,0,1,14,6.25h0c7.94,7.94,8.37,20.43.95,27.85l-29.76,29.76A3,3,0,0,1,965.31,1049.75ZM949.21,991h-.57a15.49,15.49,0,0,0-14.55,14.55,12.4,12.4,0,0,0,3.56,9.41l27.66,27.66L993,1014.92c5.1-5.1,4.67-13.83-1-19.45A15.1,15.1,0,0,0,982,991a12.37,12.37,0,0,0-9.41,3.55l-5.15,5.16a3,3,0,0,1-2.1.87h0a3,3,0,0,1-2.1-.87l-5.16-5.16A12.33,12.33,0,0,0,949.21,991Z"/><path class="cls-2" d="M759.36,1039.24H711.24a3,3,0,0,0,0,5.94h48.12a3,3,0,0,0,0-5.94Z"/><path class="cls-2" d="M733.63,1034.22a2,2,0,0,0,1.67.91,2,2,0,0,0,1.67-.91l15.12-23.62a2,2,0,0,0-1.66-3.05h-7.34v-16a2,2,0,0,0-2-2H729.49a2,2,0,0,0-2,2v16h-7.33a2,2,0,0,0-1.74,1,2,2,0,0,0,.07,2Z"/><path class="cls-2" d="M874.36,1039.24H826.24a3,3,0,0,0,0,5.94h48.12a3,3,0,0,0,0-5.94Z"/><path class="cls-2" d="M835.18,1017.15h7.33v16a2,2,0,0,0,2,2h11.62a2,2,0,0,0,2-2v-16h7.34a2,2,0,0,0,1.66-3L852,990.49a2,2,0,0,0-3.33,0l-15.13,23.61a2,2,0,0,0,1.67,3Z"/><path class="cls-2" d="M1080.3,989.66a27.72,27.72,0,1,0,27.72,27.72A27.75,27.75,0,0,0,1080.3,989.66Zm0,49.5a21.78,21.78,0,1,1,21.78-21.78A21.8,21.8,0,0,1,1080.3,1039.16Z"/><path class="cls-2" d="M1080.3,999.68a11.6,11.6,0,0,0-11.58,11.58,3,3,0,0,0,5.94,0,5.65,5.65,0,0,1,5.64-5.64c1.7,0,5.64.55,5.64,5.64,0,2.13-.74,2.72-2.88,4.12s-5.73,3.75-5.73,9.5a3,3,0,1,0,5.94,0c0-2.54,1-3.2,3-4.53,2.22-1.45,5.57-3.64,5.57-9.09C1091.88,1004.34,1087.23,999.68,1080.3,999.68Z"/><path class="cls-2" d="M1080.3,1030.06a3,3,0,0,0-3,3v.38a3,3,0,0,0,5.94,0V1033A3,3,0,0,0,1080.3,1030.06Z"/><path class="cls-2" d="M193.4,1013.44a3,3,0,0,0-3,0l-11.5,6.64v-6a2.92,2.92,0,0,0-2.92-2.92h-4.1a14,14,0,1,0-21.66-15.59,12.13,12.13,0,1,0-18.11,15.59h-3.5a2.92,2.92,0,0,0-2.92,2.92v31.79a2.92,2.92,0,0,0,2.92,2.92H176a2.92,2.92,0,0,0,2.92-2.92v-6l11.5,6.64a3,3,0,0,0,3,0,3,3,0,0,0,1.48-2.58v-28A3,3,0,0,0,193.4,1013.44Zm-29.82-21.57a8.08,8.08,0,1,1-8.08,8.08A8.08,8.08,0,0,1,163.58,991.87Zm-23.73,3.76a6.2,6.2,0,1,1-6.2,6.2A6.21,6.21,0,0,1,139.85,995.63Zm11.26,10.7a14,14,0,0,0,4.14,4.87h-7.69A12.16,12.16,0,0,0,151.11,1006.33Zm22,36.66H131.56v-26h41.53Zm15.85-4.12-10-5.78v-6.15l10-5.78Z"/><path class="cls-2" d="M505.3,1130.43A27.72,27.72,0,1,0,533,1158.15,27.75,27.75,0,0,0,505.3,1130.43Zm0,49.5a21.78,21.78,0,1,1,21.78-21.78A21.81,21.81,0,0,1,505.3,1179.93Z"/><path class="cls-2" d="M517.57,1161.89a3,3,0,0,0-4.1.89,8.61,8.61,0,1,1-.12-9.44,3,3,0,0,0,4.93-3.33,14.55,14.55,0,1,0,.19,16A3,3,0,0,0,517.57,1161.89Z"/><path class="cls-2" d="M197.61,1167.28a14.46,14.46,0,0,0-7-10.83c0-.15,0-.31,0-.46-.52-5.62-4.49-10.36-10.3-12.45-2.23-6.59-9.32-11-17.29-10.44a16.88,16.88,0,0,0-13.8,8.41c-.51,0-1,0-1.51,0-8.16.56-14.46,6.13-15.31,13.1-6.19,2.62-10,8.33-9.4,14.52.75,8.08,8.79,14.14,18,13.52a3,3,0,0,0-.41-5.93c-6,.43-11.18-3.24-11.64-8.14-.37-4,2.59-7.67,7.19-9a3,3,0,0,0,2.15-3c-.23-4.74,4.1-8.76,9.86-9.15a12.69,12.69,0,0,1,2.6.09,3,3,0,0,0,3.21-2c1.18-3.59,5-6.21,9.51-6.52,5.59-.39,10.65,2.88,11.52,7.43a3,3,0,0,0,2.18,2.31c4.2,1.08,7.24,4.2,7.57,7.77a7,7,0,0,1,0,1.36,3,3,0,0,0,1.67,3,8.87,8.87,0,0,1,5.34,7,7.64,7.64,0,0,1-1.9,5.7,11.46,11.46,0,0,1-8,3.77,3,3,0,0,0,.2,5.93h.21a17.39,17.39,0,0,0,12.07-5.85A13.61,13.61,0,0,0,197.61,1167.28Z"/><path class="cls-2" d="M168.68,1163.68H165.5v-8a2,2,0,0,0-2-2h-6.43a2,2,0,0,0-2,2v8h-3.18a2,2,0,0,0-1.67,3l8.37,13.09a2,2,0,0,0,1.67.91,2,2,0,0,0,1.67-.91l8.38-13.09a2,2,0,0,0-1.67-3Z"/><path class="cls-2" d="M82.61,1167.28a14.46,14.46,0,0,0-7-10.83c0-.15,0-.31,0-.46-.52-5.62-4.49-10.36-10.3-12.45-2.23-6.59-9.33-11-17.29-10.44a16.9,16.9,0,0,0-13.8,8.41,15.07,15.07,0,0,0-1.51,0c-8.16.56-14.46,6.13-15.31,13.1-6.19,2.62-10,8.33-9.4,14.52.75,8.08,8.8,14.15,18,13.52a3,3,0,0,0-.41-5.93c-6,.44-11.18-3.24-11.64-8.14-.37-4,2.59-7.67,7.19-9a3,3,0,0,0,2.15-3c-.23-4.74,4.1-8.76,9.87-9.15a12.62,12.62,0,0,1,2.59.09,3,3,0,0,0,3.21-2c1.18-3.59,5-6.21,9.51-6.52,5.59-.39,10.65,2.88,11.52,7.43a3,3,0,0,0,2.18,2.31c4.2,1.07,7.24,4.2,7.57,7.77a7,7,0,0,1,0,1.36,3,3,0,0,0,1.67,3,8.87,8.87,0,0,1,5.34,7,7.64,7.64,0,0,1-1.9,5.7,11.46,11.46,0,0,1-8,3.77,3,3,0,0,0,.2,5.93h.21a17.39,17.39,0,0,0,12.07-5.85A13.61,13.61,0,0,0,82.61,1167.28Z"/><path class="cls-2" d="M47,1154.63a2.07,2.07,0,0,0-3.34,0l-8.37,13.08a2,2,0,0,0,1.67,3h3.18v8a2,2,0,0,0,2,2h6.43a2,2,0,0,0,2-2v-8h3.18a2,2,0,0,0,1.67-3Z"/><path class="cls-2" d="M304.1,1127H259.35a3,3,0,0,0-3,3v8.63H246.5a3,3,0,0,0-3,3v44.75a3,3,0,0,0,3,3h44.75a3,3,0,0,0,3-3v-8.63h9.88a3,3,0,0,0,3-3V1130A3,3,0,0,0,304.1,1127Zm-15.82,56.35H249.47v-38.81h38.81Zm12.85-11.6h-6.91v-30.18a3,3,0,0,0-3-3H262.32v-5.66h38.81Z"/><path class="cls-2" d="M414.92,1130.56H365.69a3,3,0,0,0-3,3v49.23a3,3,0,0,0,3,3h49.23a3,3,0,0,0,3-3v-49.23A3,3,0,0,0,414.92,1130.56Zm-3,49.23H368.66V1136.5H412Z"/><path class="cls-2" d="M376.5,1161.12h10.83V1172a3,3,0,1,0,5.94,0v-10.83H404.1a3,3,0,0,0,0-5.94H393.27v-10.83a3,3,0,0,0-5.94,0v10.83H376.5a3,3,0,0,0,0,5.94Z"/><path class="cls-2" d="M620.3,1130.43A27.72,27.72,0,1,0,648,1158.15,27.75,27.75,0,0,0,620.3,1130.43Zm0,49.5a21.78,21.78,0,1,1,21.78-21.78A21.81,21.81,0,0,1,620.3,1179.93Z"/><path class="cls-2" d="M631.15,1145.55H609.46a2.48,2.48,0,1,0,0,5h21.69a2.48,2.48,0,0,0,0-5Z"/><path class="cls-2" d="M631.15,1155.67H609.46a2.48,2.48,0,1,0,0,4.95h21.69a2.48,2.48,0,0,0,0-4.95Z"/><path class="cls-2" d="M631.15,1165.79H609.46a2.48,2.48,0,1,0,0,5h21.69a2.48,2.48,0,0,0,0-5Z"/><path class="cls-2" d="M735.3,1130.43A27.72,27.72,0,1,0,763,1158.15,27.75,27.75,0,0,0,735.3,1130.43Zm0,49.5a21.78,21.78,0,1,1,21.78-21.78A21.81,21.81,0,0,1,735.3,1179.93Z"/><path class="cls-2" d="M736.91,1156.43l-11-6.35a2,2,0,0,0-3,1.71v12.71a2,2,0,0,0,2,2,1.91,1.91,0,0,0,1-.27l11-6.35a2,2,0,0,0,0-3.43Z"/><path class="cls-2" d="M740.87,1147.07a3,3,0,0,0-3,3v16.22a3,3,0,0,0,5.94,0V1150A3,3,0,0,0,740.87,1147.07Z"/><path class="cls-2" d="M850.3,1185.87a27.72,27.72,0,1,0-27.72-27.72A27.75,27.75,0,0,0,850.3,1185.87Zm0-49.5a21.78,21.78,0,1,1-21.78,21.78A21.8,21.8,0,0,1,850.3,1136.37Z"/><path class="cls-2" d="M848.7,1159.86l11,6.35a2,2,0,0,0,2,0,2,2,0,0,0,1-1.71v-12.71a2,2,0,0,0-3-1.71l-11,6.35a2,2,0,0,0,0,3.43Z"/><path class="cls-2" d="M844.74,1169.23a3,3,0,0,0,3-3V1150a3,3,0,1,0-5.94,0v16.22A3,3,0,0,0,844.74,1169.23Z"/><path class="cls-2" d="M1112.61,1129.63c0-.12.07-.23.1-.35l0-.18c0-.12,0-.24,0-.36v-.16a2.07,2.07,0,0,0,0-.5.24.24,0,0,0,0-.08,3.31,3.31,0,0,0-.12-.42l-.07-.16c0-.11-.11-.22-.17-.33l-.09-.14a2.58,2.58,0,0,0-.76-.76l-.14-.09-.33-.17-.16-.07a2.23,2.23,0,0,0-.44-.13l0,0a4.57,4.57,0,0,0-.52,0h-.14a2.45,2.45,0,0,0-.38,0l-.17,0-.35.1-.16.06h0l-59,26a3,3,0,0,0-.23,5.32l20.53,11.32,11.32,20.53a3,3,0,0,0,2.6,1.54h.13a2.94,2.94,0,0,0,2.58-1.77l26-59,0,0Zm-16.1,8.11-25,25-14.07-7.75Zm-13,43.23-7.76-14.08,25-25Z"/><path class="cls-2" d="M194.05,1291.49h-3v-11a3,3,0,0,0-3-3h-61a3,3,0,0,0-3,3v37a3,3,0,0,0,3,3h61a3,3,0,0,0,3-3v-11.05h3a2.39,2.39,0,0,0,2.39-2.38v-10.09A2.39,2.39,0,0,0,194.05,1291.49Zm-8.91,22.93h-55v-31h55Z"/><path class="cls-1" d="M1097.91,1264.64h-35.22a3,3,0,0,0-3,3v62.61a3,3,0,0,0,1.74,2.71,2.92,2.92,0,0,0,1.23.26,3,3,0,0,0,2-.72l15.66-13.59,15.67,13.59a3,3,0,0,0,4.91-2.25v-62.61A3,3,0,0,0,1097.91,1264.64Zm-3,5.94v6h-29.28v-6Zm-12.69,42.12a3,3,0,0,0-2-.72,3,3,0,0,0-2,.73l-12.69,11v-41.24h29.28v41.24Z"/><path class="cls-2" d="M74.74,1307.81l-24.47-37.27a2.94,2.94,0,0,0-2.08-1.31l-23.11-3.11a3,3,0,0,0-3.25,2.14l-6.34,22.43a3,3,0,0,0,.37,2.44l24.47,37.27a3,3,0,0,0,1.88,1.27,2.46,2.46,0,0,0,.6.07,2.94,2.94,0,0,0,1.63-.49l29.45-19.33A3,3,0,0,0,74.74,1307.81Zm-31.07,16.84L21.57,1291l5.27-18.65,19.21,2.58,22.09,33.65Z"/><path class="cls-2" d="M37.43,1277.53a7.69,7.69,0,1,0,4.19,10A7.68,7.68,0,0,0,37.43,1277.53Zm.53,8.53a3.73,3.73,0,0,1-6.9-2.83,3.69,3.69,0,0,1,3.45-2.31,3.73,3.73,0,0,1,3.45,5.14Z"/><path class="cls-2" d="M409.9,1280.2a3,3,0,0,0-4.2,4.2,21.78,21.78,0,1,1-30.8,0,3,3,0,0,0-4.2-4.2,27.72,27.72,0,1,0,39.2,0Z"/><path class="cls-2" d="M390.3,1300.45a3,3,0,0,0,3-3v-24.19a3,3,0,1,0-5.94,0v24.19A3,3,0,0,0,390.3,1300.45Z"/><path class="cls-2" d="M873.65,1285.45a23.35,23.35,0,0,0-46.69-.87,12.19,12.19,0,0,0,.15,2.23c1.78,11.83,4.34,20.19,7.27,26,.54,3.66,4,22.9,15.69,22.9s15.12-19.13,15.69-22.87c5.44-10.64,7.53-24.57,7.86-27A2.69,2.69,0,0,0,873.65,1285.45ZM840.83,1315h18.48c-.15.65-.32,1.32-.5,2l-16.39,3.52A48.63,48.63,0,0,1,840.83,1315Zm9.24,14.79c-2,0-3.65-1.53-5.07-3.75l11.48-2.46C854.84,1327.08,852.68,1329.8,850.07,1329.8ZM861,1309.07H839.23c-2.65-5.69-4.8-13.56-6.26-23.25a5.61,5.61,0,0,1-.08-1,17.42,17.42,0,0,1,34.82.45C867,1290.5,864.72,1301.07,861,1309.07Z"/><path class="cls-2" d="M542.53,1327.22,508,1267.46a3.15,3.15,0,0,0-5.45,0l-34.5,59.76a3.15,3.15,0,0,0,2.72,4.72h69a3.15,3.15,0,0,0,2.73-4.72Zm-66.27-1.57,29-50.32,29.05,50.32Z"/><path class="cls-2" d="M502.33,1293.54v15.37a3,3,0,1,0,5.94,0v-15.37a3,3,0,1,0-5.94,0Z"/><path class="cls-2" d="M506.79,1316.05a3,3,0,1,0,1.08,4A3,3,0,0,0,506.79,1316.05Z"/><path class="cls-1" d="M644.92,1295.94a3,3,0,0,0-3,3v21.65H598.66v-43.29H636.1a3,3,0,1,0,0-5.94H595.69a3,3,0,0,0-3,3v49.23a3,3,0,0,0,3,3h49.23a3,3,0,0,0,3-3v-24.62A3,3,0,0,0,644.92,1295.94Z"/><path class="cls-1" d="M610,1297.18a3,3,0,0,0-4.2,4.2l10.27,10.27a3,3,0,0,0,2.1.87,3,3,0,0,0,2.1-.87l24.51-24.52a3,3,0,0,0-4.2-4.2l-22.41,22.42Z"/><path class="cls-2" d="M733.47,1292.81l.08,0a1.67,1.67,0,0,0,.16.12,2.79,2.79,0,0,0,.33.19l.18.09a2.29,2.29,0,0,0,.37.12l.16,0a2.57,2.57,0,0,0,.55.06h0a2.51,2.51,0,0,0,.55-.06l.16,0a2.78,2.78,0,0,0,.38-.12l.18-.09a2.07,2.07,0,0,0,.32-.19l.17-.12.07,0,22.42-18.9a2.84,2.84,0,0,0-3.65-4.34l-20.6,17.37-20.59-17.37a2.84,2.84,0,1,0-3.66,4.34Z"/><path class="cls-2" d="M755.9,1287.29l-20.6,17.37-20.59-17.37a2.84,2.84,0,1,0-3.66,4.34l22.42,18.91.08,0,.16.12.33.19.18.08a2.29,2.29,0,0,0,.37.12l.16.05a3.43,3.43,0,0,0,.55.06h0a3.31,3.31,0,0,0,.55-.06l.16-.05a2.78,2.78,0,0,0,.38-.12l.18-.08a2.14,2.14,0,0,0,.32-.2l.17-.11.07,0,22.42-18.91a2.84,2.84,0,0,0-3.65-4.34Z"/><path class="cls-2" d="M755.9,1305l-20.6,17.36L714.71,1305a2.83,2.83,0,1,0-3.66,4.33l22.42,18.91.08,0,.16.12.33.19.18.08a1.63,1.63,0,0,0,.37.13l.16,0a2.57,2.57,0,0,0,.55.06h0a2.51,2.51,0,0,0,.55-.06l.16,0a1.9,1.9,0,0,0,.38-.13l.18-.08a3.37,3.37,0,0,0,.32-.19l.17-.12.07,0,22.42-18.91a2.83,2.83,0,1,0-3.65-4.33Z"/><path class="cls-1" d="M991,1265.46H939.63a3,3,0,0,0-3,3v61a3,3,0,0,0,3,3H991a3,3,0,0,0,3-3v-61A3,3,0,0,0,991,1265.46Zm-48.37,5.94h7.57v55H942.6Zm45.4,55H956.11v-55H988Z"/><path class="cls-1" d="M962.69,1285.25H981.8a3,3,0,0,0,0-5.94H962.69a3,3,0,1,0,0,5.94Z"/><path class="cls-1" d="M309.05,1291.49h-3v-11a3,3,0,0,0-3-3h-61a3,3,0,0,0-3,3v37a3,3,0,0,0,3,3h61a3,3,0,0,0,3-3v-11.05h3a2.39,2.39,0,0,0,2.39-2.38v-10.09A2.39,2.39,0,0,0,309.05,1291.49Zm-8.27,21.76a1.49,1.49,0,0,1-1.49,1.48H246a1.49,1.49,0,0,1-1.49-1.48v-28.67a1.49,1.49,0,0,1,1.49-1.48h53.33a1.49,1.49,0,0,1,1.49,1.48Z"/><rect class="cls-1" x="247.44" y="1286.07" width="50.36" height="25.69"/><path class="cls-2" d="M734.48,847.89a29.16,29.16,0,1,0,29.16,29.16A29.19,29.19,0,0,0,734.48,847.89Zm-24.74,31.32h8.52a37.48,37.48,0,0,0,1.75,9.4h-7.5A24.55,24.55,0,0,1,709.74,879.21Zm26.9-17.82v-7.48a28.54,28.54,0,0,1,6,7.48Zm7.93,4.32a32.77,32.77,0,0,1,1.93,9.18h-9.86v-9.18ZM732.32,854v7.35h-5.81A28.89,28.89,0,0,1,732.32,854Zm0,11.67v9.18H722.6a32.93,32.93,0,0,1,1.94-9.18Zm-14.05,9.18h-8.53a24.7,24.7,0,0,1,2.65-9.18H720A36.8,36.8,0,0,0,718.27,874.89Zm4.32,4.32h9.73v9.4h-7.74A32.87,32.87,0,0,1,722.59,879.21Zm9.73,13.72v7.22a28.61,28.61,0,0,1-5.74-7.22Zm4.32,7.34v-7.34h5.89A28.2,28.2,0,0,1,736.64,900.27Zm0-11.66v-9.4h9.87a32.54,32.54,0,0,1-2,9.4Zm14.2-9.4h8.38a24.55,24.55,0,0,1-2.77,9.4h-7.36A37,37,0,0,0,750.84,879.21Zm0-4.32a37.64,37.64,0,0,0-1.71-9.18h7.44a24.52,24.52,0,0,1,2.65,9.18Zm2.9-13.5h-6.3a33.74,33.74,0,0,0-5.17-7.93A25,25,0,0,1,753.74,861.39Zm-26.83-8a33.9,33.9,0,0,0-5.24,8h-6.45A24.89,24.89,0,0,1,726.91,853.39ZM715.4,892.93h6.32a34,34,0,0,0,5,7.73A25,25,0,0,1,715.4,892.93Zm27,7.66a33.22,33.22,0,0,0,5-7.66h6.18A24.92,24.92,0,0,1,742.39,900.59Z"/><path class="cls-2" d="M869.91,849.45a27.72,27.72,0,1,0-39.2,39.2,3,3,0,0,0,4.2-4.2,21.78,21.78,0,1,1,30.8,0,3,3,0,1,0,4.2,4.2A27.75,27.75,0,0,0,869.91,849.45Z"/><path class="cls-2" d="M863.55,855.54A18.73,18.73,0,1,0,837.07,882a2.64,2.64,0,0,0,3.73-3.74,13.45,13.45,0,1,1,19,0,2.64,2.64,0,0,0,3.73,3.74,18.72,18.72,0,0,0,0-26.49Z"/><path class="cls-2" d="M857.63,860.28A10.36,10.36,0,0,0,843,874.93a2.31,2.31,0,1,0,3.26-3.27,5.74,5.74,0,1,1,8.11,0A2.31,2.31,0,0,0,856,875.6a2.29,2.29,0,0,0,1.63-.67,10.37,10.37,0,0,0,0-14.65Z"/><path class="cls-2" d="M850.31,863.94a3.72,3.72,0,0,0-2,6.88v41a2,2,0,0,0,4,0v-41a3.72,3.72,0,0,0-2-6.88Z"/><polygon class="cls-2" points="845.04 738.72 855.57 738.72 850.3 724.86 845.04 738.72"/><path class="cls-2" d="M874.92,708.25H825.69a3,3,0,0,0-3,3v49.24a3,3,0,0,0,3,3h49.23a3,3,0,0,0,3-3V711.22A3,3,0,0,0,874.92,708.25ZM866.05,758a3,3,0,0,1-1,.2,3,3,0,0,1-2.78-1.92l-4.73-12.44H843.11l-4.73,12.44a3,3,0,0,1-2.77,1.92,3.06,3.06,0,0,1-1.06-.2,3,3,0,0,1-1.72-3.83l14.7-38.68,0-.07a2.8,2.8,0,0,1,.15-.3,1.59,1.59,0,0,1,.13-.22,2.35,2.35,0,0,1,.19-.25c.06-.07.11-.14.17-.2a2.31,2.31,0,0,1,.24-.2l.2-.16.27-.15.25-.13.09,0a1.33,1.33,0,0,1,.19-.05l.28-.08.3,0,.28,0,.29,0,.29,0,.29.08a1.8,1.8,0,0,1,.19.05l.08,0,.26.13a2.2,2.2,0,0,1,.26.15l.21.16.23.2a1.63,1.63,0,0,1,.17.2,2.43,2.43,0,0,1,.2.25l.12.22a1.68,1.68,0,0,1,.15.3.43.43,0,0,1,0,.07l14.69,38.68A3,3,0,0,1,866.05,758Z"/><path class="cls-2" d="M388,708.12a27.72,27.72,0,1,0,27.72,27.72A27.74,27.74,0,0,0,388,708.12Zm0,49.5a21.78,21.78,0,1,1,21.78-21.78A21.8,21.8,0,0,1,388,757.62Z"/><path class="cls-2" d="M400.44,738.36a11.63,11.63,0,0,1-15-15,2,2,0,0,0-.46-2.1,2,2,0,0,0-2.09-.45A15.61,15.61,0,1,0,403,740.91a2,2,0,0,0-2.55-2.55Zm-3.8,5.27a11.65,11.65,0,1,1-16.48-16.47c.19-.19.39-.38.59-.55A15.57,15.57,0,0,0,397.19,743C397,743.25,396.83,743.44,396.64,743.63Z"/><path class="cls-2" d="M303.7,1012.45h0l-4.85,0a22.26,22.26,0,0,0-3.56-8.61l3.44-3.47a4.08,4.08,0,0,0-5.79-5.75l-3.42,3.45a22.14,22.14,0,0,0-8.6-3.57l0-4.89a4.09,4.09,0,0,0-4.09-4.06h0a4.09,4.09,0,0,0-4.07,4.1l0,4.85a22.26,22.26,0,0,0-8.61,3.56l-3.47-3.44a4.08,4.08,0,0,0-5.75,5.79l3.45,3.42a22.14,22.14,0,0,0-3.57,8.6l-4.89,0a4.09,4.09,0,0,0,0,8.17h0l4.84,0a22.45,22.45,0,0,0,3.57,8.6l-3.44,3.47a4.08,4.08,0,1,0,5.79,5.75l3.42-3.45a22.14,22.14,0,0,0,8.6,3.57l0,4.89a4.08,4.08,0,0,0,4.08,4.06h0a4.08,4.08,0,0,0,4.07-4.1l0-4.85a22.26,22.26,0,0,0,8.61-3.56l3.47,3.44a4.08,4.08,0,0,0,5.75-5.79l-3.45-3.42a22.14,22.14,0,0,0,3.57-8.6l4.89,0a4.08,4.08,0,0,0,0-8.16Zm-26.89,19.25A15.16,15.16,0,1,1,292,1016.54,15.18,15.18,0,0,1,276.81,1031.7Z"/><path class="cls-2" d="M276.82,1006.78a9.75,9.75,0,1,0,9.75,9.75A9.76,9.76,0,0,0,276.82,1006.78Zm0,13.86a4.12,4.12,0,1,1,4.12-4.11A4.12,4.12,0,0,1,276.82,1020.64Z"/><path class="cls-2" d="M965.3,1130.43A27.72,27.72,0,1,0,993,1158.15,27.75,27.75,0,0,0,965.3,1130.43Zm0,49.5a21.78,21.78,0,1,1,21.78-21.78A21.8,21.8,0,0,1,965.3,1179.93Z"/><path class="cls-2" d="M974.25,1151a1.78,1.78,0,0,0-1.79-1.79H958.15a1.8,1.8,0,0,0-1.6,1,1.83,1.83,0,0,0-.2.81h0v14.31h0a1.78,1.78,0,0,0,.14.7,1.82,1.82,0,0,0,1.66,1.1h14.31a1.82,1.82,0,0,0,1-.31l.08-.07c.06,0,.13-.09.19-.15a1.79,1.79,0,0,0,.52-1.27h0V1151Z"/><text class="cls-3" transform="translate(27.18 1375.13) scale(1.01 1)">マーク</text><text class="cls-3" transform="translate(110.59 1375.13) scale(1.01 1)">バッテリー（0%<tspan class="cls-6" x="92.76" y="0">）</tspan></text><text class="cls-3" transform="translate(378.22 1375.13) scale(1.01 1)">電源</text><text class="cls-3" transform="translate(493.22 1375.13) scale(1.01 1)">注意</text><text class="cls-3" transform="translate(571.98 1375.13) scale(1.01 1)">チェックボックス</text><text class="cls-3" transform="translate(705.1 1375.13) scale(1.01 1)">スクロール</text><text class="cls-3" transform="translate(832.18 1375.13) scale(1.01 1)">ヒント</text><text class="cls-3" transform="translate(1062.18 1375.13) scale(1.01 1)">マーク</text><text class="cls-3" transform="translate(216.41 1375.13) scale(1.01 1)">バッテリー（100%<tspan class="cls-6" x="111" y="0">）</tspan></text><text class="cls-3" transform="translate(947.18 1375.13) scale(1.01 1)">ノート</text><text class="cls-3" transform="translate(0 811.23) scale(1.01 1)">表示（ボックス<tspan class="cls-6" x="84" y="0">）</tspan></text><text class="cls-3" transform="translate(121.04 811.23) scale(1.01 1)">表示（横並び<tspan class="cls-6" x="72" y="0">）</tspan></text><text class="cls-3" transform="translate(257.18 811.23) scale(1.01 1)">マイク</text><text class="cls-3" transform="translate(351.71 811.23) scale(1.01 1)">ダークモード</text><text class="cls-3" transform="translate(493.22 811.23) scale(1.01 1)">情報</text><text class="cls-3" transform="translate(590.1 811.23) scale(1.01 1)">アカウント</text><text class="cls-3" transform="translate(717.18 811.23) scale(1.01 1)">カメラ</text><text class="cls-3" transform="translate(826.14 811.23) scale(1.01 1)">テキスト</text><text class="cls-3" transform="translate(953.22 811.23) scale(1.01 1)">移動</text><text class="cls-3" transform="translate(1068.22 811.23) scale(1.01 1)">拡大</text><text class="cls-3" transform="translate(27.18 952.2) scale(1.01 1)">カード</text><text class="cls-3" transform="translate(150.39 952.2) scale(1.01 1)">CD</text><text class="cls-3" transform="translate(257.18 952.2) scale(1.01 1)">マウス</text><text class="cls-3" transform="translate(372.18 952.2) scale(1.01 1)">ロック</text><text class="cls-3" transform="translate(475.1 952.2) scale(1.01 1)">ロック解除</text><text class="cls-3" transform="translate(602.18 952.2) scale(1.01 1)">カメラ</text><text class="cls-3" transform="translate(692.2 952.2) scale(1.01 1)">インターネット</text><text class="cls-3" transform="translate(838.22 952.2) scale(1.01 1)">通信</text><text class="cls-3" transform="translate(935.1 952.2) scale(1.01 1)">カレンダー</text><text class="cls-3" transform="translate(1068.22 952.2) scale(1.01 1)">縮小</text><text class="cls-3" transform="translate(21.14 1093.18) scale(1.01 1)">目覚まし</text><text class="cls-3" transform="translate(148.22 1093.18) scale(1.01 1)">撮影</text><text class="cls-3" transform="translate(264.73 1093.18) scale(1.01 1)">設定</text><text class="cls-3" transform="translate(372.18 1093.18) scale(1.01 1)">リンク</text><text class="cls-3" transform="translate(469.06 1093.18) scale(1.01 1)">デスクトップ</text><text class="cls-3" transform="translate(602.18 1093.18) scale(1.01 1)">グラフ</text><text class="cls-3" transform="translate(699.06 1093.18) scale(1.01 1)">ダウンロード</text><text class="cls-3" transform="translate(814.06 1093.18) scale(1.01 1)">アップロード</text><text class="cls-3" transform="translate(947.18 1093.18) scale(1.01 1)">ハート</text><text class="cls-3" transform="translate(1062.18 1093.18) scale(1.01 1)">疑問符</text><text class="cls-3" transform="translate(11.05 1234.15) scale(1.01 1)">クラウ<tspan class="cls-7" x="36" y="0">ド</tspan><tspan x="51" y="0">UL</tspan></text><text class="cls-3" transform="translate(125.94 1234.15) scale(1.01 1)">クラウ<tspan class="cls-7" x="36" y="0">ド</tspan><tspan x="51" y="0">DL</tspan></text><text class="cls-3" transform="translate(366.14 1234.15) scale(1.01 1)">新規タブ</text><text class="cls-3" transform="translate(469.06 1234.15) scale(1.01 1)">コピーライト</text><text class="cls-3" transform="translate(596.14 1234.15) scale(1.01 1)">メニュー</text><text class="cls-3" transform="translate(723.22 1234.15) scale(1.01 1)">進む</text><text class="cls-3" transform="translate(838.22 1234.15) scale(1.01 1)">戻る</text><text class="cls-3" transform="translate(1068.22 1234.15) scale(1.01 1)">送信</text><text class="cls-3" transform="translate(263.22 1234.15) scale(1.01 1)">タブ</text><text class="cls-3" transform="translate(953.22 1234.15) scale(1.01 1)">停止</text></svg>