<svg id="レイヤー_1" data-name="レイヤー 1" xmlns="http://www.w3.org/2000/svg" viewBox="0 0 1119.04 1378.59"><defs><style>.cls-1{font-size:85px;font-family:PMichikusaStd-Regular-90ms-RKSJ-H, A P-OTF Michikusa Std;}.cls-1,.cls-10,.cls-12,.cls-13,.cls-14,.cls-2,.cls-4,.cls-5,.cls-6,.cls-7,.cls-8,.cls-9{fill:#231815;}.cls-3{fill:#fff;}.cls-4{font-size:75px;font-family:PA1GothicStdN-Light-90ms-RKSJ-H, A P-OTF A1Gothic StdN;}.cls-5{font-size:36px;}.cls-12,.cls-13,.cls-5,.cls-6,.cls-7,.cls-8,.cls-9{font-family:PA1GothicStdN-Regular-90ms-RKSJ-H, A P-OTF A1Gothic StdN;}.cls-6{font-size:48px;}.cls-7{font-size:60px;}.cls-8{font-size:53px;}.cls-9{font-size:26.56px;}.cls-10{font-size:12px;}.cls-10,.cls-14{font-family:KozGoPro-Regular-90ms-RKSJ-H, Kozuka Gothic Pro;}.cls-11{letter-spacing:0.25em;}.cls-12{font-size:72px;}.cls-13{font-size:70px;}.cls-14{font-size:32px;}</style></defs><title>ken</title><text class="cls-1" transform="translate(376.29 208.82)">i</text><path class="cls-2" d="M363,576.83v52.55h51V576.83Zm20.59,4.33h9.85v1.09h-9.85Zm5.84,46.65a3.09,3.09,0,1,1,3.09-3.09A3.09,3.09,0,0,1,389.46,627.81Zm21-8.54H366V586.83h44.52Z"/><rect class="cls-2" x="711.29" y="579.82" width="2.41" height="45.53" rx="1.15"/><rect class="cls-2" x="751.11" y="579.82" width="2.41" height="45.53" rx="1.15"/><rect class="cls-2" x="745.41" y="579.82" width="2.41" height="45.53" rx="1.15"/><rect class="cls-2" x="739.26" y="579.82" width="2.41" height="45.53" rx="1.15"/><rect class="cls-2" x="733.41" y="579.82" width="2.41" height="45.53" rx="1.15"/><rect class="cls-2" x="728.07" y="579.82" width="2.41" height="45.53" rx="1.15"/><rect class="cls-2" x="722.7" y="579.82" width="2.41" height="45.53" rx="1.15"/><rect class="cls-2" x="717.21" y="579.82" width="2.41" height="45.53" rx="1.15"/><rect class="cls-2" x="706.27" y="588.16" width="51.73" height="28.85"/><path class="cls-2" d="M284.45,581.16v45.61h20.83V581.16Zm16.34,5.67a1.5,1.5,0,1,1,1.5-1.49A1.5,1.5,0,0,1,300.79,586.83Z"/><rect class="cls-2" x="593.58" y="437.25" width="46.75" height="7.69"/><rect class="cls-2" x="593.72" y="450.02" width="46.75" height="7.69"/><rect class="cls-2" x="599.03" y="466.04" width="35.9" height="7.69" transform="translate(1086.86 -147.1) rotate(90)"/><circle class="cls-2" cx="157.06" cy="444.52" r="5.93"/><path class="cls-2" d="M166.28,347.15H146.93V330.93H130.72V311.58h16.21V295.37h19.35v16.21h16.21v19.35H166.28Zm-15.35-4h11.35V326.93h16.21V315.58H162.28V299.37H150.93v16.21H134.72v11.35h16.21Z"/><path class="cls-2" d="M272.1,209.56l-5.05-23.1-23.58-.41,51.58-33.47Zm-15.47-27.28,13.65.23,3,13.52,13.38-33.21Z"/><path class="cls-2" d="M527.58,359.85H477.5a14,14,0,0,1-14-14V295.77a14,14,0,0,1,14-14h50.08a14,14,0,0,1,14,14v50.08A14,14,0,0,1,527.58,359.85ZM477.5,285.77a10,10,0,0,0-10,10v50.08a10,10,0,0,0,10,10h50.08a10,10,0,0,0,10-10V295.77a10,10,0,0,0-10-10Z"/><path class="cls-2" d="M527.58,359.85H477.5a14,14,0,0,1-14-14V295.77a14,14,0,0,1,14-14h50.08a14,14,0,0,1,14,14v50.08A14,14,0,0,1,527.58,359.85ZM477.5,285.77a10,10,0,0,0-10,10v50.08a10,10,0,0,0,10,10h50.08a10,10,0,0,0,10-10V295.77a10,10,0,0,0-10-10Z"/><path class="cls-2" d="M527.58,359.85H477.5a14,14,0,0,1-14-14V295.77a14,14,0,0,1,14-14h50.08a14,14,0,0,1,14,14v50.08A14,14,0,0,1,527.58,359.85ZM477.5,285.77a10,10,0,0,0-10,10v50.08a10,10,0,0,0,10,10h50.08a10,10,0,0,0,10-10V295.77a10,10,0,0,0-10-10Z"/><path class="cls-2" d="M527.58,359.85H477.5a14,14,0,0,1-14-14V295.77a14,14,0,0,1,14-14h50.08a14,14,0,0,1,14,14v50.08A14,14,0,0,1,527.58,359.85ZM477.5,285.77a10,10,0,0,0-10,10v50.08a10,10,0,0,0,10,10h50.08a10,10,0,0,0,10-10V295.77a10,10,0,0,0-10-10Z"/><path class="cls-2" d="M987.11,359.85H937a14,14,0,0,1-14-14V295.77a14,14,0,0,1,14-14h50.08a14,14,0,0,1,14,14v50.08A14,14,0,0,1,987.11,359.85ZM937,285.77a10,10,0,0,0-10,10v50.08a10,10,0,0,0,10,10h50.08a10,10,0,0,0,10-10V295.77a10,10,0,0,0-10-10Z"/><path class="cls-2" d="M1102,359.85H1052a14,14,0,0,1-14-14V295.77a14,14,0,0,1,14-14H1102a14,14,0,0,1,14,14v50.08A14,14,0,0,1,1102,359.85ZM1052,285.77a10,10,0,0,0-10,10v50.08a10,10,0,0,0,10,10H1102a10,10,0,0,0,10-10V295.77a10,10,0,0,0-10-10Z"/><path class="cls-2" d="M67.4,359.85H17.32a14,14,0,0,1-14-14V295.77a14,14,0,0,1,14-14H67.4a14,14,0,0,1,14,14v50.08A14,14,0,0,1,67.4,359.85ZM17.32,285.77a10,10,0,0,0-10,10v50.08a10,10,0,0,0,10,10H67.4a10,10,0,0,0,10-10V295.77a10,10,0,0,0-10-10Z"/><path class="cls-2" d="M872,359.85H822a14,14,0,0,1-14-14V295.77a14,14,0,0,1,14-14H872a14,14,0,0,1,14,14v50.08A14,14,0,0,1,872,359.85ZM822,285.77a10,10,0,0,0-10,10v50.08a10,10,0,0,0,10,10H872a10,10,0,0,0,10-10V295.77a10,10,0,0,0-10-10Z"/><path class="cls-2" d="M757,359.85H707a14,14,0,0,1-14-14V295.77a14,14,0,0,1,14-14H757a14,14,0,0,1,14,14v50.08A14,14,0,0,1,757,359.85ZM707,285.77a10,10,0,0,0-10,10v50.08a10,10,0,0,0,10,10H757a10,10,0,0,0,10-10V295.77a10,10,0,0,0-10-10Z"/><path class="cls-2" d="M642,359.85H592a14,14,0,0,1-14-14V295.77a14,14,0,0,1,14-14H642a14,14,0,0,1,14,14v50.08A14,14,0,0,1,642,359.85ZM592,285.77a10,10,0,0,0-10,10v50.08a10,10,0,0,0,10,10H642a10,10,0,0,0,10-10V295.77a10,10,0,0,0-10-10Z"/><path class="cls-2" d="M527.58,359.85H477.5a14,14,0,0,1-14-14V295.77a14,14,0,0,1,14-14h50.08a14,14,0,0,1,14,14v50.08A14,14,0,0,1,527.58,359.85ZM477.5,285.77a10,10,0,0,0-10,10v50.08a10,10,0,0,0,10,10h50.08a10,10,0,0,0,10-10V295.77a10,10,0,0,0-10-10Z"/><path class="cls-2" d="M413,359.85H363a14,14,0,0,1-14-14V295.77a14,14,0,0,1,14-14H413a14,14,0,0,1,14,14v50.08A14,14,0,0,1,413,359.85ZM363,285.77a10,10,0,0,0-10,10v50.08a10,10,0,0,0,10,10H413a10,10,0,0,0,10-10V295.77a10,10,0,0,0-10-10Z"/><path class="cls-2" d="M297.71,359.85H247.63a14,14,0,0,1-14-14V295.77a14,14,0,0,1,14-14h50.08a14,14,0,0,1,14,14v50.08A14,14,0,0,1,297.71,359.85Zm-50.08-74.08a10,10,0,0,0-10,10v50.08a10,10,0,0,0,10,10h50.08a10,10,0,0,0,10-10V295.77a10,10,0,0,0-10-10Z"/><path class="cls-2" d="M181.61,359.85H131.53a14,14,0,0,1-14-14V295.77a14,14,0,0,1,14-14h50.08a14,14,0,0,1,14,14v50.08A14,14,0,0,1,181.61,359.85Zm-50.08-74.08a10,10,0,0,0-10,10v50.08a10,10,0,0,0,10,10h50.08a10,10,0,0,0,10-10V295.77a10,10,0,0,0-10-10Z"/><path class="cls-2" d="M987.11,641.86H937a14,14,0,0,1-14-14V577.78a14,14,0,0,1,14-14h50.08a14,14,0,0,1,14,14v50.08A14,14,0,0,1,987.11,641.86ZM937,567.78a10,10,0,0,0-10,10v50.08a10,10,0,0,0,10,10h50.08a10,10,0,0,0,10-10V577.78a10,10,0,0,0-10-10Z"/><path class="cls-2" d="M1102,641.86H1052a14,14,0,0,1-14-14V577.78a14,14,0,0,1,14-14H1102a14,14,0,0,1,14,14v50.08A14,14,0,0,1,1102,641.86ZM1052,567.78a10,10,0,0,0-10,10v50.08a10,10,0,0,0,10,10H1102a10,10,0,0,0,10-10V577.78a10,10,0,0,0-10-10Z"/><path class="cls-2" d="M67.4,641.86H17.32a14,14,0,0,1-14-14V577.78a14,14,0,0,1,14-14H67.4a14,14,0,0,1,14,14v50.08A14,14,0,0,1,67.4,641.86ZM17.32,567.78a10,10,0,0,0-10,10v50.08a10,10,0,0,0,10,10H67.4a10,10,0,0,0,10-10V577.78a10,10,0,0,0-10-10Z"/><path class="cls-2" d="M872,641.86H822a14,14,0,0,1-14-14V577.78a14,14,0,0,1,14-14H872a14,14,0,0,1,14,14v50.08A14,14,0,0,1,872,641.86ZM822,567.78a10,10,0,0,0-10,10v50.08a10,10,0,0,0,10,10H872a10,10,0,0,0,10-10V577.78a10,10,0,0,0-10-10Z"/><path class="cls-2" d="M757,641.86H707a14,14,0,0,1-14-14V577.78a14,14,0,0,1,14-14H757a14,14,0,0,1,14,14v50.08A14,14,0,0,1,757,641.86ZM707,567.78a10,10,0,0,0-10,10v50.08a10,10,0,0,0,10,10H757a10,10,0,0,0,10-10V577.78a10,10,0,0,0-10-10Z"/><path class="cls-2" d="M413,641.86H363a14,14,0,0,1-14-14V577.78a14,14,0,0,1,14-14H413a14,14,0,0,1,14,14v50.08A14,14,0,0,1,413,641.86ZM363,567.78a10,10,0,0,0-10,10v50.08a10,10,0,0,0,10,10H413a10,10,0,0,0,10-10V577.78a10,10,0,0,0-10-10Z"/><path class="cls-2" d="M297.71,641.86H247.63a14,14,0,0,1-14-14V577.78a14,14,0,0,1,14-14h50.08a14,14,0,0,1,14,14v50.08A14,14,0,0,1,297.71,641.86Zm-50.08-74.08a10,10,0,0,0-10,10v50.08a10,10,0,0,0,10,10h50.08a10,10,0,0,0,10-10V577.78a10,10,0,0,0-10-10Z"/><path class="cls-2" d="M181.61,641.86H131.53a14,14,0,0,1-14-14V577.78a14,14,0,0,1,14-14h50.08a14,14,0,0,1,14,14v50.08A14,14,0,0,1,181.61,641.86Zm-50.08-74.08a10,10,0,0,0-10,10v50.08a10,10,0,0,0,10,10h50.08a10,10,0,0,0,10-10V577.78a10,10,0,0,0-10-10Z"/><path class="cls-2" d="M527.58,641.86H477.5a14,14,0,0,1-14-14V577.78a14,14,0,0,1,14-14h50.08a14,14,0,0,1,14,14v50.08A14,14,0,0,1,527.58,641.86ZM477.5,567.78a10,10,0,0,0-10,10v50.08a10,10,0,0,0,10,10h50.08a10,10,0,0,0,10-10V577.78a10,10,0,0,0-10-10Z"/><path class="cls-2" d="M527.58,641.86H477.5a14,14,0,0,1-14-14V577.78a14,14,0,0,1,14-14h50.08a14,14,0,0,1,14,14v50.08A14,14,0,0,1,527.58,641.86ZM477.5,567.78a10,10,0,0,0-10,10v50.08a10,10,0,0,0,10,10h50.08a10,10,0,0,0,10-10V577.78a10,10,0,0,0-10-10Z"/><path class="cls-2" d="M527.58,641.86H477.5a14,14,0,0,1-14-14V577.78a14,14,0,0,1,14-14h50.08a14,14,0,0,1,14,14v50.08A14,14,0,0,1,527.58,641.86ZM477.5,567.78a10,10,0,0,0-10,10v50.08a10,10,0,0,0,10,10h50.08a10,10,0,0,0,10-10V577.78a10,10,0,0,0-10-10Z"/><path class="cls-2" d="M642,641.86H592a14,14,0,0,1-14-14V577.78a14,14,0,0,1,14-14H642a14,14,0,0,1,14,14v50.08A14,14,0,0,1,642,641.86ZM592,567.78a10,10,0,0,0-10,10v50.08a10,10,0,0,0,10,10H642a10,10,0,0,0,10-10V577.78a10,10,0,0,0-10-10Z"/><path class="cls-2" d="M987.11,501.09H937a14,14,0,0,1-14-14V437a14,14,0,0,1,14-14h50.08a14,14,0,0,1,14,14v50.08A14,14,0,0,1,987.11,501.09ZM937,427a10,10,0,0,0-10,10v50.08a10,10,0,0,0,10,10h50.08a10,10,0,0,0,10-10V437a10,10,0,0,0-10-10Z"/><path class="cls-2" d="M1102,501.09H1052a14,14,0,0,1-14-14V437a14,14,0,0,1,14-14H1102a14,14,0,0,1,14,14v50.08A14,14,0,0,1,1102,501.09ZM1052,427a10,10,0,0,0-10,10v50.08a10,10,0,0,0,10,10H1102a10,10,0,0,0,10-10V437a10,10,0,0,0-10-10Z"/><path class="cls-2" d="M67.4,501.09H17.32a14,14,0,0,1-14-14V437a14,14,0,0,1,14-14H67.4a14,14,0,0,1,14,14v50.08A14,14,0,0,1,67.4,501.09ZM17.32,427a10,10,0,0,0-10,10v50.08a10,10,0,0,0,10,10H67.4a10,10,0,0,0,10-10V437a10,10,0,0,0-10-10Z"/><path class="cls-2" d="M872,501.09H822a14,14,0,0,1-14-14V437a14,14,0,0,1,14-14H872a14,14,0,0,1,14,14v50.08A14,14,0,0,1,872,501.09ZM822,427a10,10,0,0,0-10,10v50.08a10,10,0,0,0,10,10H872a10,10,0,0,0,10-10V437a10,10,0,0,0-10-10Z"/><path class="cls-2" d="M757,501.09H707a14,14,0,0,1-14-14V437a14,14,0,0,1,14-14H757a14,14,0,0,1,14,14v50.08A14,14,0,0,1,757,501.09ZM707,427a10,10,0,0,0-10,10v50.08a10,10,0,0,0,10,10H757a10,10,0,0,0,10-10V437a10,10,0,0,0-10-10Z"/><path class="cls-2" d="M642,219.32H592a14,14,0,0,1-14-14V155.24a14,14,0,0,1,14-14H642a14,14,0,0,1,14,14v50.08A14,14,0,0,1,642,219.32ZM592,145.24a10,10,0,0,0-10,10v50.08a10,10,0,0,0,10,10H642a10,10,0,0,0,10-10V155.24a10,10,0,0,0-10-10Z"/><path class="cls-2" d="M527.58,359.85H477.5a14,14,0,0,1-14-14V295.77a14,14,0,0,1,14-14h50.08a14,14,0,0,1,14,14v50.08A14,14,0,0,1,527.58,359.85ZM477.5,285.77a10,10,0,0,0-10,10v50.08a10,10,0,0,0,10,10h50.08a10,10,0,0,0,10-10V295.77a10,10,0,0,0-10-10Z"/><path class="cls-2" d="M413,501.09H363a14,14,0,0,1-14-14V437a14,14,0,0,1,14-14H413a14,14,0,0,1,14,14v50.08A14,14,0,0,1,413,501.09ZM363,427a10,10,0,0,0-10,10v50.08a10,10,0,0,0,10,10H413a10,10,0,0,0,10-10V437a10,10,0,0,0-10-10Z"/><path class="cls-2" d="M297.71,501.09H247.63a14,14,0,0,1-14-14V437a14,14,0,0,1,14-14h50.08a14,14,0,0,1,14,14v50.08A14,14,0,0,1,297.71,501.09ZM247.63,427a10,10,0,0,0-10,10v50.08a10,10,0,0,0,10,10h50.08a10,10,0,0,0,10-10V437a10,10,0,0,0-10-10Z"/><path class="cls-2" d="M181.61,501.09H131.53a14,14,0,0,1-14-14V437a14,14,0,0,1,14-14h50.08a14,14,0,0,1,14,14v50.08A14,14,0,0,1,181.61,501.09ZM131.53,427a10,10,0,0,0-10,10v50.08a10,10,0,0,0,10,10h50.08a10,10,0,0,0,10-10V437a10,10,0,0,0-10-10Z"/><path class="cls-2" d="M527.58,501.09H477.5a14,14,0,0,1-14-14V437a14,14,0,0,1,14-14h50.08a14,14,0,0,1,14,14v50.08A14,14,0,0,1,527.58,501.09ZM477.5,427a10,10,0,0,0-10,10v50.08a10,10,0,0,0,10,10h50.08a10,10,0,0,0,10-10V437a10,10,0,0,0-10-10Z"/><path class="cls-2" d="M527.58,501.09H477.5a14,14,0,0,1-14-14V437a14,14,0,0,1,14-14h50.08a14,14,0,0,1,14,14v50.08A14,14,0,0,1,527.58,501.09ZM477.5,427a10,10,0,0,0-10,10v50.08a10,10,0,0,0,10,10h50.08a10,10,0,0,0,10-10V437a10,10,0,0,0-10-10Z"/><path class="cls-2" d="M987.11,359.85H937a14,14,0,0,1-14-14V295.77a14,14,0,0,1,14-14h50.08a14,14,0,0,1,14,14v50.08A14,14,0,0,1,987.11,359.85ZM937,285.77a10,10,0,0,0-10,10v50.08a10,10,0,0,0,10,10h50.08a10,10,0,0,0,10-10V295.77a10,10,0,0,0-10-10Z"/><path class="cls-2" d="M1102,359.85H1052a14,14,0,0,1-14-14V295.77a14,14,0,0,1,14-14H1102a14,14,0,0,1,14,14v50.08A14,14,0,0,1,1102,359.85ZM1052,285.77a10,10,0,0,0-10,10v50.08a10,10,0,0,0,10,10H1102a10,10,0,0,0,10-10V295.77a10,10,0,0,0-10-10Z"/><path class="cls-2" d="M67.4,359.85H17.32a14,14,0,0,1-14-14V295.77a14,14,0,0,1,14-14H67.4a14,14,0,0,1,14,14v50.08A14,14,0,0,1,67.4,359.85ZM17.32,285.77a10,10,0,0,0-10,10v50.08a10,10,0,0,0,10,10H67.4a10,10,0,0,0,10-10V295.77a10,10,0,0,0-10-10Z"/><path class="cls-2" d="M872,359.85H822a14,14,0,0,1-14-14V295.77a14,14,0,0,1,14-14H872a14,14,0,0,1,14,14v50.08A14,14,0,0,1,872,359.85ZM822,285.77a10,10,0,0,0-10,10v50.08a10,10,0,0,0,10,10H872a10,10,0,0,0,10-10V295.77a10,10,0,0,0-10-10Z"/><path class="cls-2" d="M757,359.85H707a14,14,0,0,1-14-14V295.77a14,14,0,0,1,14-14H757a14,14,0,0,1,14,14v50.08A14,14,0,0,1,757,359.85ZM707,285.77a10,10,0,0,0-10,10v50.08a10,10,0,0,0,10,10H757a10,10,0,0,0,10-10V295.77a10,10,0,0,0-10-10Z"/><path class="cls-2" d="M642,359.85H592a14,14,0,0,1-14-14V295.77a14,14,0,0,1,14-14H642a14,14,0,0,1,14,14v50.08A14,14,0,0,1,642,359.85ZM592,285.77a10,10,0,0,0-10,10v50.08a10,10,0,0,0,10,10H642a10,10,0,0,0,10-10V295.77a10,10,0,0,0-10-10Z"/><path class="cls-2" d="M527.58,501.09H477.5a14,14,0,0,1-14-14V437a14,14,0,0,1,14-14h50.08a14,14,0,0,1,14,14v50.08A14,14,0,0,1,527.58,501.09ZM477.5,427a10,10,0,0,0-10,10v50.08a10,10,0,0,0,10,10h50.08a10,10,0,0,0,10-10V437a10,10,0,0,0-10-10Z"/><path class="cls-2" d="M413,359.85H363a14,14,0,0,1-14-14V295.77a14,14,0,0,1,14-14H413a14,14,0,0,1,14,14v50.08A14,14,0,0,1,413,359.85ZM363,285.77a10,10,0,0,0-10,10v50.08a10,10,0,0,0,10,10H413a10,10,0,0,0,10-10V295.77a10,10,0,0,0-10-10Z"/><path class="cls-2" d="M297.71,359.85H247.63a14,14,0,0,1-14-14V295.77a14,14,0,0,1,14-14h50.08a14,14,0,0,1,14,14v50.08A14,14,0,0,1,297.71,359.85Zm-50.08-74.08a10,10,0,0,0-10,10v50.08a10,10,0,0,0,10,10h50.08a10,10,0,0,0,10-10V295.77a10,10,0,0,0-10-10Z"/><path class="cls-2" d="M181.61,359.85H131.53a14,14,0,0,1-14-14V295.77a14,14,0,0,1,14-14h50.08a14,14,0,0,1,14,14v50.08A14,14,0,0,1,181.61,359.85Zm-50.08-74.08a10,10,0,0,0-10,10v50.08a10,10,0,0,0,10,10h50.08a10,10,0,0,0,10-10V295.77a10,10,0,0,0-10-10Z"/><path class="cls-2" d="M527.58,78.08H477.5a14,14,0,0,1-14-14V14a14,14,0,0,1,14-14h50.08a14,14,0,0,1,14,14V64.08A14,14,0,0,1,527.58,78.08ZM477.5,4a10,10,0,0,0-10,10V64.08a10,10,0,0,0,10,10h50.08a10,10,0,0,0,10-10V14a10,10,0,0,0-10-10Z"/><path class="cls-2" d="M527.58,78.08H477.5a14,14,0,0,1-14-14V14a14,14,0,0,1,14-14h50.08a14,14,0,0,1,14,14V64.08A14,14,0,0,1,527.58,78.08ZM477.5,4a10,10,0,0,0-10,10V64.08a10,10,0,0,0,10,10h50.08a10,10,0,0,0,10-10V14a10,10,0,0,0-10-10Z"/><path class="cls-2" d="M527.58,78.08H477.5a14,14,0,0,1-14-14V14a14,14,0,0,1,14-14h50.08a14,14,0,0,1,14,14V64.08A14,14,0,0,1,527.58,78.08ZM477.5,4a10,10,0,0,0-10,10V64.08a10,10,0,0,0,10,10h50.08a10,10,0,0,0,10-10V14a10,10,0,0,0-10-10Z"/><path class="cls-2" d="M527.58,78.08H477.5a14,14,0,0,1-14-14V14a14,14,0,0,1,14-14h50.08a14,14,0,0,1,14,14V64.08A14,14,0,0,1,527.58,78.08ZM477.5,4a10,10,0,0,0-10,10V64.08a10,10,0,0,0,10,10h50.08a10,10,0,0,0,10-10V14a10,10,0,0,0-10-10Z"/><path class="cls-2" d="M987.11,78.08H937a14,14,0,0,1-14-14V14A14,14,0,0,1,937,0h50.08a14,14,0,0,1,14,14V64.08A14,14,0,0,1,987.11,78.08ZM937,4a10,10,0,0,0-10,10V64.08a10,10,0,0,0,10,10h50.08a10,10,0,0,0,10-10V14a10,10,0,0,0-10-10Z"/><path class="cls-2" d="M1102,78.08H1052a14,14,0,0,1-14-14V14a14,14,0,0,1,14-14H1102a14,14,0,0,1,14,14V64.08A14,14,0,0,1,1102,78.08ZM1052,4a10,10,0,0,0-10,10V64.08a10,10,0,0,0,10,10H1102a10,10,0,0,0,10-10V14a10,10,0,0,0-10-10Z"/><path class="cls-2" d="M67.4,78.08H17.32a14,14,0,0,1-14-14V14a14,14,0,0,1,14-14H67.4a14,14,0,0,1,14,14V64.08A14,14,0,0,1,67.4,78.08ZM17.32,4a10,10,0,0,0-10,10V64.08a10,10,0,0,0,10,10H67.4a10,10,0,0,0,10-10V14a10,10,0,0,0-10-10Z"/><path class="cls-2" d="M872,78.08H822a14,14,0,0,1-14-14V14A14,14,0,0,1,822,0H872a14,14,0,0,1,14,14V64.08A14,14,0,0,1,872,78.08ZM822,4a10,10,0,0,0-10,10V64.08a10,10,0,0,0,10,10H872a10,10,0,0,0,10-10V14A10,10,0,0,0,872,4Z"/><path class="cls-2" d="M757,78.08H707a14,14,0,0,1-14-14V14A14,14,0,0,1,707,0H757a14,14,0,0,1,14,14V64.08A14,14,0,0,1,757,78.08ZM707,4a10,10,0,0,0-10,10V64.08a10,10,0,0,0,10,10H757a10,10,0,0,0,10-10V14A10,10,0,0,0,757,4Z"/><path class="cls-2" d="M642,78.08H592a14,14,0,0,1-14-14V14A14,14,0,0,1,592,0H642a14,14,0,0,1,14,14V64.08A14,14,0,0,1,642,78.08ZM592,4a10,10,0,0,0-10,10V64.08a10,10,0,0,0,10,10H642a10,10,0,0,0,10-10V14A10,10,0,0,0,642,4Z"/><path class="cls-2" d="M413,78.08H363a14,14,0,0,1-14-14V14A14,14,0,0,1,363,0H413a14,14,0,0,1,14,14V64.08A14,14,0,0,1,413,78.08ZM363,4a10,10,0,0,0-10,10V64.08a10,10,0,0,0,10,10H413a10,10,0,0,0,10-10V14A10,10,0,0,0,413,4Z"/><path class="cls-2" d="M297.71,78.08H247.63a14,14,0,0,1-14-14V14a14,14,0,0,1,14-14h50.08a14,14,0,0,1,14,14V64.08A14,14,0,0,1,297.71,78.08ZM247.63,4a10,10,0,0,0-10,10V64.08a10,10,0,0,0,10,10h50.08a10,10,0,0,0,10-10V14a10,10,0,0,0-10-10Z"/><path class="cls-2" d="M181.61,78.08H131.53a14,14,0,0,1-14-14V14a14,14,0,0,1,14-14h50.08a14,14,0,0,1,14,14V64.08A14,14,0,0,1,181.61,78.08ZM131.53,4a10,10,0,0,0-10,10V64.08a10,10,0,0,0,10,10h50.08a10,10,0,0,0,10-10V14a10,10,0,0,0-10-10Z"/><path class="cls-2" d="M987.11,219.32H937a14,14,0,0,1-14-14V155.24a14,14,0,0,1,14-14h50.08a14,14,0,0,1,14,14v50.08A14,14,0,0,1,987.11,219.32ZM937,145.24a10,10,0,0,0-10,10v50.08a10,10,0,0,0,10,10h50.08a10,10,0,0,0,10-10V155.24a10,10,0,0,0-10-10Z"/><path class="cls-2" d="M1102,219.32H1052a14,14,0,0,1-14-14V155.24a14,14,0,0,1,14-14H1102a14,14,0,0,1,14,14v50.08A14,14,0,0,1,1102,219.32ZM1052,145.24a10,10,0,0,0-10,10v50.08a10,10,0,0,0,10,10H1102a10,10,0,0,0,10-10V155.24a10,10,0,0,0-10-10Z"/><path class="cls-2" d="M67.4,219.32H17.32a14,14,0,0,1-14-14V155.24a14,14,0,0,1,14-14H67.4a14,14,0,0,1,14,14v50.08A14,14,0,0,1,67.4,219.32ZM17.32,145.24a10,10,0,0,0-10,10v50.08a10,10,0,0,0,10,10H67.4a10,10,0,0,0,10-10V155.24a10,10,0,0,0-10-10Z"/><path class="cls-2" d="M872,219.32H822a14,14,0,0,1-14-14V155.24a14,14,0,0,1,14-14H872a14,14,0,0,1,14,14v50.08A14,14,0,0,1,872,219.32ZM822,145.24a10,10,0,0,0-10,10v50.08a10,10,0,0,0,10,10H872a10,10,0,0,0,10-10V155.24a10,10,0,0,0-10-10Z"/><path class="cls-2" d="M757,219.32H707a14,14,0,0,1-14-14V155.24a14,14,0,0,1,14-14H757a14,14,0,0,1,14,14v50.08A14,14,0,0,1,757,219.32ZM707,145.24a10,10,0,0,0-10,10v50.08a10,10,0,0,0,10,10H757a10,10,0,0,0,10-10V155.24a10,10,0,0,0-10-10Z"/><path class="cls-2" d="M642,501.09H592a14,14,0,0,1-14-14V437a14,14,0,0,1,14-14H642a14,14,0,0,1,14,14v50.08A14,14,0,0,1,642,501.09ZM592,427a10,10,0,0,0-10,10v50.08a10,10,0,0,0,10,10H642a10,10,0,0,0,10-10V437a10,10,0,0,0-10-10Z"/><path class="cls-2" d="M413,219.32H363a14,14,0,0,1-14-14V155.24a14,14,0,0,1,14-14H413a14,14,0,0,1,14,14v50.08A14,14,0,0,1,413,219.32ZM363,145.24a10,10,0,0,0-10,10v50.08a10,10,0,0,0,10,10H413a10,10,0,0,0,10-10V155.24a10,10,0,0,0-10-10Z"/><path class="cls-2" d="M297.71,219.32H247.63a14,14,0,0,1-14-14V155.24a14,14,0,0,1,14-14h50.08a14,14,0,0,1,14,14v50.08A14,14,0,0,1,297.71,219.32Zm-50.08-74.08a10,10,0,0,0-10,10v50.08a10,10,0,0,0,10,10h50.08a10,10,0,0,0,10-10V155.24a10,10,0,0,0-10-10Z"/><path class="cls-2" d="M181.61,219.32H131.53a14,14,0,0,1-14-14V155.24a14,14,0,0,1,14-14h50.08a14,14,0,0,1,14,14v50.08A14,14,0,0,1,181.61,219.32Zm-50.08-74.08a10,10,0,0,0-10,10v50.08a10,10,0,0,0,10,10h50.08a10,10,0,0,0,10-10V155.24a10,10,0,0,0-10-10Z"/><path class="cls-2" d="M527.58,219.32H477.5a14,14,0,0,1-14-14V155.24a14,14,0,0,1,14-14h50.08a14,14,0,0,1,14,14v50.08A14,14,0,0,1,527.58,219.32ZM477.5,145.24a10,10,0,0,0-10,10v50.08a10,10,0,0,0,10,10h50.08a10,10,0,0,0,10-10V155.24a10,10,0,0,0-10-10Z"/><path class="cls-2" d="M527.58,219.32H477.5a14,14,0,0,1-14-14V155.24a14,14,0,0,1,14-14h50.08a14,14,0,0,1,14,14v50.08A14,14,0,0,1,527.58,219.32ZM477.5,145.24a10,10,0,0,0-10,10v50.08a10,10,0,0,0,10,10h50.08a10,10,0,0,0,10-10V155.24a10,10,0,0,0-10-10Z"/><path class="cls-2" d="M987.11,78.08H937a14,14,0,0,1-14-14V14A14,14,0,0,1,937,0h50.08a14,14,0,0,1,14,14V64.08A14,14,0,0,1,987.11,78.08ZM937,4a10,10,0,0,0-10,10V64.08a10,10,0,0,0,10,10h50.08a10,10,0,0,0,10-10V14a10,10,0,0,0-10-10Z"/><path class="cls-2" d="M1102,78.08H1052a14,14,0,0,1-14-14V14a14,14,0,0,1,14-14H1102a14,14,0,0,1,14,14V64.08A14,14,0,0,1,1102,78.08ZM1052,4a10,10,0,0,0-10,10V64.08a10,10,0,0,0,10,10H1102a10,10,0,0,0,10-10V14a10,10,0,0,0-10-10Z"/><path class="cls-2" d="M67.4,78.08H17.32a14,14,0,0,1-14-14V14a14,14,0,0,1,14-14H67.4a14,14,0,0,1,14,14V64.08A14,14,0,0,1,67.4,78.08ZM17.32,4a10,10,0,0,0-10,10V64.08a10,10,0,0,0,10,10H67.4a10,10,0,0,0,10-10V14a10,10,0,0,0-10-10Z"/><path class="cls-2" d="M872,78.08H822a14,14,0,0,1-14-14V14A14,14,0,0,1,822,0H872a14,14,0,0,1,14,14V64.08A14,14,0,0,1,872,78.08ZM822,4a10,10,0,0,0-10,10V64.08a10,10,0,0,0,10,10H872a10,10,0,0,0,10-10V14A10,10,0,0,0,872,4Z"/><path class="cls-2" d="M757,78.08H707a14,14,0,0,1-14-14V14A14,14,0,0,1,707,0H757a14,14,0,0,1,14,14V64.08A14,14,0,0,1,757,78.08ZM707,4a10,10,0,0,0-10,10V64.08a10,10,0,0,0,10,10H757a10,10,0,0,0,10-10V14A10,10,0,0,0,757,4Z"/><path class="cls-2" d="M642,78.08H592a14,14,0,0,1-14-14V14A14,14,0,0,1,592,0H642a14,14,0,0,1,14,14V64.08A14,14,0,0,1,642,78.08ZM592,4a10,10,0,0,0-10,10V64.08a10,10,0,0,0,10,10H642a10,10,0,0,0,10-10V14A10,10,0,0,0,642,4Z"/><text/><path class="cls-2" d="M413,78.08H363a14,14,0,0,1-14-14V14A14,14,0,0,1,363,0H413a14,14,0,0,1,14,14V64.08A14,14,0,0,1,413,78.08ZM363,4a10,10,0,0,0-10,10V64.08a10,10,0,0,0,10,10H413a10,10,0,0,0,10-10V14A10,10,0,0,0,413,4Z"/><path class="cls-2" d="M297.71,78.08H247.63a14,14,0,0,1-14-14V14a14,14,0,0,1,14-14h50.08a14,14,0,0,1,14,14V64.08A14,14,0,0,1,297.71,78.08ZM247.63,4a10,10,0,0,0-10,10V64.08a10,10,0,0,0,10,10h50.08a10,10,0,0,0,10-10V14a10,10,0,0,0-10-10Z"/><path class="cls-2" d="M181.61,78.08H131.53a14,14,0,0,1-14-14V14a14,14,0,0,1,14-14h50.08a14,14,0,0,1,14,14V64.08A14,14,0,0,1,181.61,78.08ZM131.53,4a10,10,0,0,0-10,10V64.08a10,10,0,0,0,10,10h50.08a10,10,0,0,0,10-10V14a10,10,0,0,0-10-10Z"/><rect class="cls-3" x="242.96" y="32.25" width="8.15" height="17.68"/><path class="cls-2" d="M253.11,51.93H241V30.25h12.15Zm-8.15-4h4.15V34.25H245Z"/><path class="cls-2" d="M273.71,61.44l-24.6-10.18V31.07l24.6-13.61Zm-20.6-12.85,16.6,6.86V24.24l-16.6,9.19Z"/><rect class="cls-2" x="279.03" y="39.09" width="23.34" height="4"/><rect class="cls-3" x="128.69" y="32.25" width="8.15" height="17.68"/><path class="cls-2" d="M138.83,51.93H126.69V30.25h12.14Zm-8.14-4h4.14V34.25h-4.14Z"/><path class="cls-2" d="M159.44,61.44,134.83,51.26V31.07l24.61-13.61ZM138.83,48.59l16.61,6.86V24.24l-16.61,9.19Z"/><rect class="cls-3" x="21.04" y="29.42" width="11.2" height="24.31"/><path class="cls-2" d="M34.24,55.73H19V27.42h15.2Zm-11.2-4h7.2V31.42H23Z"/><path class="cls-2" d="M62.57,68.44,30.24,55.07V28.24L62.57,10.36Zm-28.33-16L58.57,62.45V17.14L34.24,30.6Z"/><rect class="cls-2" x="174.43" y="29.42" width="4" height="23.34"/><rect class="cls-2" x="164.76" y="39.09" width="23.34" height="4"/><circle class="cls-3" cx="388.33" cy="39.43" r="14.44"/><path class="cls-2" d="M388.33,55.86a16.44,16.44,0,1,1,16.43-16.43A16.45,16.45,0,0,1,388.33,55.86Zm0-28.87a12.44,12.44,0,1,0,12.43,12.44A12.45,12.45,0,0,0,388.33,27Z"/><rect class="cls-2" x="386.33" y="58.9" width="4" height="9.21"/><rect class="cls-2" x="386.33" y="10.02" width="4" height="9.21"/><rect class="cls-2" x="408.15" y="36.99" width="9.21" height="4"/><rect class="cls-2" x="359.27" y="36.99" width="9.21" height="4"/><rect class="cls-2" x="405.61" y="51.53" width="4" height="9.21" transform="translate(126.32 356.42) rotate(-54.71)"/><rect class="cls-2" x="369.5" y="16.17" width="4" height="9.21" transform="translate(139.93 312.01) rotate(-54.71)"/><rect class="cls-2" x="366.15" y="54.57" width="9.21" height="4" transform="translate(35.45 224.58) rotate(-35.29)"/><rect class="cls-2" x="401.17" y="19.55" width="9.21" height="4" transform="translate(62.11 238.38) rotate(-35.29)"/><circle class="cls-3" cx="847.01" cy="39.43" r="14.44"/><path class="cls-2" d="M847,55.86a16.44,16.44,0,1,1,16.44-16.43A16.45,16.45,0,0,1,847,55.86ZM847,27a12.44,12.44,0,1,0,12.44,12.44A12.45,12.45,0,0,0,847,27Z"/><rect class="cls-2" x="845.01" y="58.9" width="4" height="9.21"/><rect class="cls-2" x="845.01" y="10.02" width="4" height="9.21"/><rect class="cls-2" x="866.84" y="36.99" width="9.21" height="4"/><rect class="cls-2" x="817.96" y="36.99" width="9.21" height="4"/><rect class="cls-2" x="864.3" y="51.53" width="4" height="9.21" transform="translate(320.06 730.85) rotate(-54.71)"/><rect class="cls-2" x="828.19" y="16.17" width="4" height="9.21" transform="translate(333.67 686.44) rotate(-54.71)"/><rect class="cls-2" x="824.84" y="54.57" width="9.21" height="4" transform="translate(119.73 489.56) rotate(-35.29)"/><rect class="cls-2" x="859.86" y="19.55" width="9.21" height="4" transform="translate(146.4 503.36) rotate(-35.29)"/><circle class="cls-3" cx="388.33" cy="39.43" r="14.44"/><path class="cls-2" d="M388.33,55.86a16.44,16.44,0,1,1,16.43-16.43A16.45,16.45,0,0,1,388.33,55.86Zm0-28.87a12.44,12.44,0,1,0,12.43,12.44A12.45,12.45,0,0,0,388.33,27Z"/><rect class="cls-2" x="386.33" y="58.9" width="4" height="9.21"/><rect class="cls-2" x="386.33" y="10.02" width="4" height="9.21"/><rect class="cls-2" x="408.15" y="36.99" width="9.21" height="4"/><rect class="cls-2" x="359.27" y="36.99" width="9.21" height="4"/><rect class="cls-2" x="405.61" y="51.53" width="4" height="9.21" transform="translate(126.32 356.42) rotate(-54.71)"/><rect class="cls-2" x="369.5" y="16.17" width="4" height="9.21" transform="translate(139.93 312.01) rotate(-54.71)"/><rect class="cls-2" x="366.15" y="54.57" width="9.21" height="4" transform="translate(35.45 224.58) rotate(-35.29)"/><rect class="cls-2" x="401.17" y="19.55" width="9.21" height="4" transform="translate(62.11 238.38) rotate(-35.29)"/><path class="cls-2" d="M742.37,68.81a35.76,35.76,0,0,1-13-2.42c-8.14-3.2-14-9.17-16.48-16.8s-1.41-16.53,2.93-24.48A34.11,34.11,0,0,1,734.63,8.86l4.51-1.47L737,11.65c-.08.16-7.71,15.88-3.14,29.92s19.8,21.72,20,21.79l4.38,2.18-4.65,1.52A36.38,36.38,0,0,1,742.37,68.81ZM731.55,14.54A31.18,31.18,0,0,0,719.29,27c-3.82,7-4.78,14.76-2.64,21.32h0c2.11,6.47,7.13,11.55,14.14,14.31a32.41,32.41,0,0,0,17,1.71c-5.35-3.57-14.13-10.79-17.64-21.57S729.38,20.69,731.55,14.54Z"/><path class="cls-2" d="M845.58,26.66V53.91c0,1,1.95.69,1.95-.15V26.5c0-1-1.95-.69-1.95.16Z"/><path class="cls-2" d="M842.15,40.25c-.41-1.54-.47-4.84,1.36-5.75h-4l.25.19-1.86-2.43c.24,1.46-.65,4-.85,5.42-.11.84-.22,1.67-.27,2.5a9.85,9.85,0,0,0,0,1.33c-.2,1.35.54,1.23,2.22-.38L840,49l.41-.06-3.85-1a14.89,14.89,0,0,1,1.61,2.86c2.52,4.48,9.43.44,6.9-4-1.79-3.17-3-6.05-7.14-5.46-4.72.68-3.19,7.52,1,7.86,5.49.45,5.64-5,5.88-8.89.26-4.29,2.79-9.58-1.28-12.67-1.15-.87-2.85-.57-4,0-5,2.5-6.33,9.84-5,14.73s9,2.91,7.73-2.07Z"/><path class="cls-2" d="M845.79,50.84A30.32,30.32,0,0,1,844,37l-2.56,1.05c.78.89.34,3.33.34,4.4v4.36a1.5,1.5,0,0,0,3,0V41.52c0-.5-.32-4.11,0-4.29l-2.06-.53c1.14,2.24.64,5.09.73,7.51a58.92,58.92,0,0,0,.64,6.49c.27,1.9,3.17,1.11,2.89-.78a60.73,60.73,0,0,1-.56-8.94,11.9,11.9,0,0,0-1.11-5.8,1.53,1.53,0,0,0-2.05-.54c-1.35.71-1.47,1.89-1.52,3.3-.09,3,0,5.93,0,8.88l3,0c0-3.27,1.08-8.26-1.24-10.91-.93-1.06-2.43-.11-2.55,1.06a32.27,32.27,0,0,0,1.88,14.63c.66,1.79,3.57,1,2.9-.78Z"/><path class="cls-2" d="M845.93,28l-.36.91-2.21-.9a13.63,13.63,0,0,1,0,2.71,1.5,1.5,0,0,0,1.49,1.51,1.53,1.53,0,0,0,1.51-1.49,18.72,18.72,0,0,0-.15-3.51,1.51,1.51,0,0,0-2.21-.91,2.14,2.14,0,0,0-1,2.45,1.5,1.5,0,0,0,2.9-.77Z"/><text class="cls-4" transform="translate(925.14 67.32)">￥</text><path class="cls-2" d="M1102.85,64.36H1051.2V26.78h51.65Zm-47.65-4h43.65V30.78H1055.2Z"/><circle class="cls-2" cx="1077.43" cy="43.12" r="4.08"/><polygon class="cls-2" points="1076.75 46 1074.88 54.5 1080.61 54.5 1078.44 46 1076.75 46"/><polygon class="cls-2" points="1069.6 28.23 1065.6 28.23 1065.6 12.19 1087.8 12.19 1087.8 22.89 1083.8 22.89 1083.8 16.19 1069.6 16.19 1069.6 28.23"/><path class="cls-2" d="M42.16,182.48V150.87l25.42,15.81Zm4-24.41v17.22L60,166.68Z"/><path class="cls-2" d="M42.16,209.1V177.49l25.42,15.8Zm4-24.42V201.9L60,193.29Z"/><rect class="cls-2" x="13.31" y="185.18" width="34.88" height="4" transform="translate(-93.99 44.28) rotate(-31.79)"/><rect class="cls-2" x="30.35" y="156.39" width="4" height="34.94" transform="translate(-131.59 107.54) rotate(-57.44)"/><path class="cls-2" d="M156.6,205.1a24.27,24.27,0,0,1-11.77-45.5l2.43,4.37a19.27,19.27,0,1,0,17.68-.52l2.17-4.5A24.27,24.27,0,0,1,156.6,205.1Z"/><rect class="cls-2" x="154.1" y="154.68" width="5" height="22.27"/><polygon class="cls-2" points="498.13 172.46 518.04 151.03 506.25 178.29 519.69 178.29 488.68 210.43 497.46 187.15 483.99 186.7 498.13 172.46"/><path class="cls-2" d="M625.08,192.43A21.92,21.92,0,1,1,647,170.51,21.94,21.94,0,0,1,625.08,192.43Zm0-38.83A16.92,16.92,0,1,0,642,170.51,16.93,16.93,0,0,0,625.08,153.6Z"/><rect class="cls-2" x="584.52" y="195.56" width="33.4" height="4" transform="translate(38.58 487.27) rotate(-45.44)"/><text class="cls-5" transform="translate(620.14 183.09)">!</text><path class="cls-2" d="M733,213.21l-17.73-24.76V148.84l17.51,15.85,16.39-16.11v41Zm-13.73-26.05,13.66,19.07,12.24-17.91v-30.2l-12.27,12.07-13.63-12.33Z"/><rect class="cls-2" x="731.82" y="167.44" width="2" height="43.37"/><path class="cls-2" d="M736.13,171.32A55.79,55.79,0,0,1,746.71,157l-2.56-1.06a163.53,163.53,0,0,1-3.42,32.64,1.51,1.51,0,0,0,2.51,1.46,22.27,22.27,0,0,0,5.42-8.62l-2.94-.4c.17,5.19-4.34,8.63-7.11,12.53a22.85,22.85,0,0,0-2.68,4.74c-.73,1.81-.88,4.64-2.58,5.88l2.21.9c-1.79-11.94,3.3-23.53,2.8-35.48a1.51,1.51,0,0,0-3-.4,35.91,35.91,0,0,0-1.26,7.12c-.1,1.68,1.12,6.89-.48,7.92a1.51,1.51,0,0,0,.76,2.79c6.59-.17,3.66-13.3.76-16.31a1.51,1.51,0,0,0-2.56,1.06,76.84,76.84,0,0,0,1.46,16.37,1.51,1.51,0,0,0,2.74.36,66.09,66.09,0,0,0,6.08-24h-3l.36,7.83a1.5,1.5,0,0,0,3,0,6.21,6.21,0,0,0-2.34-6c-.66-.53-1.94-.67-2.36.31l-1,2.42h2.59l-.92-2.12c-.71-1.65-3-.4-2.74,1.16a8.94,8.94,0,0,0,1.41,3.45,1.51,1.51,0,0,0,2.79-.76c.12-1.06.47-5.94.83-6-.18,0,1.1,1.05,1.09,1a1.51,1.51,0,0,0,1.51,0l.43-.22-2.26-1.29a29.35,29.35,0,0,0,.55,6.28c.34,1.78,2.79,1.17,2.94-.4a79.47,79.47,0,0,0,.32-10.12c-.06-1.92-3.06-1.93-3,0a56.22,56.22,0,0,1-.15,6.36l3-.4a24.14,24.14,0,0,1-1.26-5.14c-.24-1.85-3.08-2-3,0a90.21,90.21,0,0,1-2.68,26.08l2.74-.35-1-1.55c-.63-1-2.51-1-2.74.36l-.89,5.09H740l-.86-2.61a1.51,1.51,0,0,0-3,.4l-.53,6.4,3-.4-.49-3c-.28-1.65-3.11-1.28-3,.4a58.76,58.76,0,0,1,.26,7.39l2.26-1.3c-.33-.18,4.59-9.41,5-10.11l-2.8-.76v2.33h3a80.84,80.84,0,0,1-.17-8.09c.05-1.94-2.95-1.93-3,0a80.84,80.84,0,0,0,.17,8.09c.13,1.91,3,1.95,3,0v-2.33a1.51,1.51,0,0,0-2.79-.76c-1.34,2.59-8.46,11.8-3.88,14.22a1.51,1.51,0,0,0,2.25-1.29,58.76,58.76,0,0,0-.26-7.39l-2.94.4.49,3c.29,1.77,2.81,1.17,2.94-.4l.53-6.4-2.94.4.85,2.6c.43,1.29,2.63,1.57,2.9,0l.88-5.09-2.74.36,1,1.55a1.51,1.51,0,0,0,2.74-.36,92.88,92.88,0,0,0,2.79-26.88h-3A28.92,28.92,0,0,0,743,166.8a1.5,1.5,0,0,0,2.94-.4,56.22,56.22,0,0,0,.15-6.36h-3a79.53,79.53,0,0,1-.32,10.12l3-.39a24.86,24.86,0,0,1-.44-5.49A1.52,1.52,0,0,0,743,163c2.06-1-1.39-2.1-2.78-1.41-2.75,1.4-2.28,6.73-2.56,9.2l2.8-.76a4.83,4.83,0,0,1-1.1-2.73l-2.75,1.15.92,2.12a1.5,1.5,0,0,0,2.59,0l1-2.42-2.36.3a3.47,3.47,0,0,1,1.47,3.9h3l-.36-7.83a1.5,1.5,0,0,0-3,0A62,62,0,0,1,734.24,187l2.74.35a73.32,73.32,0,0,1-1.35-15.57l-2.56,1.06c1.85,1.92,2.13,4,2.16,6.44,0,1,0,4.73-.8,4.75l.75,2.8a4.45,4.45,0,0,0,2.16-4.12c.22-4.39-.23-8.31,1-12.71l-2.95-.4c.52,12.26-4.54,24-2.7,36.27a1.51,1.51,0,0,0,2.21.9,7.13,7.13,0,0,0,2.7-3.63c1.38-3.53,2.37-6.52,4.77-9.56,3.07-3.91,6.55-7.25,6.38-12.55a1.51,1.51,0,0,0-3-.4,18.5,18.5,0,0,1-4.66,7.3l2.51,1.46a167.07,167.07,0,0,0,3.53-33.44,1.51,1.51,0,0,0-2.56-1.06,58.28,58.28,0,0,0-11.05,14.93c-.89,1.71,1.7,3.23,2.59,1.52Z"/><path class="cls-2" d="M740.76,192V176.38a1.5,1.5,0,0,0-3,0V192a1.5,1.5,0,0,0,3,0Z"/><path class="cls-2" d="M733.7,199.17a5.1,5.1,0,0,0-.49,2,1.5,1.5,0,0,0,3,0,2,2,0,0,1,.08-.45,1.54,1.54,0,0,0-.54-2.05,1.5,1.5,0,0,0-2,.54Z"/><path class="cls-2" d="M740.44,173.57a4.14,4.14,0,0,0-1-2.6,1.49,1.49,0,0,0-1.64-.31,1.55,1.55,0,0,0-.92,1.37q-.14,1.2-.21,2.4a1.5,1.5,0,0,0,3,0q.08-1.2.21-2.4l-2.56,1.06c-.18-.22.17.41.07.13a2.45,2.45,0,0,1,.08.29c0-.14,0-.12,0,.06a1.5,1.5,0,0,0,3,0Z"/><path class="cls-2" d="M845.77,186.28A10.26,10.26,0,0,1,835.52,176V158.86a10.25,10.25,0,0,1,20.5,0V176A10.26,10.26,0,0,1,845.77,186.28Zm0-33.67a6.25,6.25,0,0,0-6.25,6.25V176a6.25,6.25,0,0,0,12.5,0V158.86A6.26,6.26,0,0,0,845.77,152.61Z"/><path class="cls-2" d="M845.77,195.25c-11.69,0-21.56-6.63-21.56-14.47h4c0,4.94,7.51,10.47,17.56,10.47s17.56-5.53,17.56-10.47h4C867.33,188.62,857.45,195.25,845.77,195.25Z"/><rect class="cls-2" x="843.77" y="194.69" width="4" height="18.19"/><text class="cls-6" transform="translate(932.05 198.04)">AF</text><polygon class="cls-2" points="1078.94 201.84 1061.51 172.23 1050.95 191.32 1047.45 189.39 1061.41 164.17 1079.11 194.24 1098.04 165.18 1101.39 167.36 1078.94 201.84"/><polygon class="cls-2" points="1104.05 156.57 1092.32 163.45 1103.71 171.47 1104.05 156.57"/><path class="cls-2" d="M56.64,337.67H18.25v-5H56.64a6.47,6.47,0,0,0,5.72-3.51A18.12,18.12,0,0,0,64.54,320c0-6.57-2.8-13.36-7.49-13.36H20v-5h37.1c8.2,0,12.49,9.24,12.49,18.36a23,23,0,0,1-2.9,11.74A11.46,11.46,0,0,1,56.64,337.67Z"/><polygon class="cls-2" points="26.36 327.55 13.71 334.97 25.99 342.61 26.36 327.55"/><path class="cls-2" d="M26.11,342.84,13.47,335l13-7.64ZM14,335l11.92,7.42.35-14.61Z"/><path class="cls-2" d="M282,343.44c-4.74,0-8.81-.7-10.25-2.82-1.4-1.69-13.24-1.3-25.34.85l-2.35.42V301.27l1.1-.56c.77-.38,19-9.4,30.8.24,9.65,7.88,21.75.2,22.27-.13l3.08-2v42.34l-1.62.31A105.78,105.78,0,0,1,282,343.44Zm-17.62-7.88c5,0,9.25.7,10.69,2.82,1.22,1.62,11.4,1.34,22.24-.55v-32c-5,2.3-15.11,5.38-23.88-1.78-8.32-6.8-21.5-1.93-25.37-.26v33.34A109.17,109.17,0,0,1,264.36,335.56Z"/><path class="cls-2" d="M281.68,325.56c-4.69,0-8.89-.9-10.69-3.66-2.19-3.36-15-1.49-22.94.83l-1.12-3.84c3.77-1.1,22.81-6.23,27.41.83,2.2,3.37,15.88,1.5,24.43-.84l1.05,3.86C297.38,323.41,289,325.56,281.68,325.56Z"/><rect class="cls-2" x="270.39" y="301.5" width="4" height="37"/><path class="cls-2" d="M407.14,310.15a27.53,27.53,0,0,0-2.3-6c-1.15-1.94-1.87-2.45-5.84-2.45h-7.2v35.07c0,5.62.58,6.41,7.42,6.84v2h-21v-2c6.69-.43,7.27-1.15,7.27-6.84V301.72H379c-4,0-5.11.43-6.34,2.59a33.4,33.4,0,0,0-2.38,5.84h-2.16c.44-4.4.87-8.93,1.08-13h1.66c1.08,1.72,1.87,1.65,3.89,1.65h28.51c2,0,2.6-.29,3.68-1.65h1.72c0,3.38.29,8.56.65,12.74Z"/><rect class="cls-2" x="479.48" y="319.63" width="50.37" height="4"/><polygon class="cls-2" points="490.58 339.37 474.41 321.63 490.58 303.89 493.54 306.58 479.82 321.63 493.54 336.67 490.58 339.37"/><path class="cls-2" d="M617.12,350.53l-24.87-15.22V294H642v41.35Zm-20.87-17.47,20.87,12.78L638,333.06V298H596.25Z"/><rect class="cls-2" x="617.12" y="296.87" width="22.88" height="22.73"/><polyline class="cls-2" points="592.8 335.19 592.8 319.19 617.12 319.19 617.12 348.19"/><path class="cls-2" d="M762.42,306.93H701.58v30.52h60.84l-14.51-16.08Zm-54.31,17.49a2.61,2.61,0,1,1,2.61-2.61A2.61,2.61,0,0,1,708.11,324.42Z"/><path class="cls-2" d="M877.22,338.58H816.85V299.05h60.37Zm-56.37-4h52.37V303.05H820.85Z"/><rect class="cls-2" x="826.9" y="341.58" width="40.08" height="4"/><path class="cls-2" d="M961.68,291.36c-10.64,0-20.55,10.78-19.26,23.94,1.11,11.39,19.69,36,19.69,36s17.1-22.53,18.84-36C982.65,302.19,972.33,291.36,961.68,291.36Zm-.21,26.89A7.23,7.23,0,1,1,968.7,311,7.22,7.22,0,0,1,961.47,318.25Z"/><circle class="cls-2" cx="1076.88" cy="346.95" r="3.8"/><rect class="cls-2" x="1075" y="296.87" width="4" height="49.14"/><polygon class="cls-2" points="1076.15 338.44 1063.63 332.52 1063.63 313.26 1067.63 313.26 1067.63 329.99 1077.86 334.82 1076.15 338.44"/><polygon class="cls-2" points="1078.13 330.07 1075.87 326.78 1084.55 320.8 1084.5 306.01 1088.5 306 1088.56 322.9 1078.13 330.07"/><polygon class="cls-2" points="1076.87 290.08 1071.04 297.62 1082.7 297.62 1076.87 290.08"/><circle class="cls-2" cx="1065.55" cy="310.93" r="3.8"/><rect class="cls-2" x="1083.2" y="302.51" width="5.95" height="5.95"/><path class="cls-2" d="M25.79,432.6v59.55H59.5V432.6Zm12.33,3.15H47.2a.39.39,0,0,1,.39.39.4.4,0,0,1-.39.39H38.12a.39.39,0,0,1-.39-.39A.38.38,0,0,1,38.12,435.75ZM42.66,490a2.3,2.3,0,1,1,2.3-2.3A2.3,2.3,0,0,1,42.66,490Zm12.56-7.12H29.66V440.74H55.22Z"/><rect class="cls-2" x="155.56" y="443.81" width="3" height="47.33"/><path class="cls-2" d="M168.46,462.27l-2.12-3.39c1-.65,4.41-3.27,4.41-9.94h4C174.75,457.66,169.93,461.35,168.46,462.27Z"/><path class="cls-2" d="M174.75,448.94h-4A12.54,12.54,0,0,0,166,438.77l2.72-2.93A16.43,16.43,0,0,1,174.75,448.94Z"/><path class="cls-2" d="M177.5,465.28l-2.12-3.39c1.37-.85,5.8-4.29,5.8-12.95h4C185.18,459.65,179.31,464.16,177.5,465.28Z"/><path class="cls-2" d="M185.18,448.94h-4c0-7.52-3.67-10.92-6.1-13.18l2.73-2.93C180.38,435.22,185.18,439.68,185.18,448.94Z"/><path class="cls-2" d="M145.23,462.29a16.45,16.45,0,0,1-6-13.1c0-8.73,4.82-12.41,6.29-13.33l2.12,3.39c-1,.65-4.41,3.27-4.41,9.94A12.56,12.56,0,0,0,148,459.36Z"/><path class="cls-2" d="M137.42,465.7c-2.58-2.39-7.38-6.84-7.38-16.11,0-10.71,5.88-15.21,7.68-16.34l2.12,3.39c-1.36.85-5.8,4.3-5.8,12.95,0,7.52,3.67,10.93,6.1,13.18Z"/><polygon class="cls-2" points="280.36 487.24 253.12 462.17 280.27 434.62 283.83 438.13 260.31 462 283.75 483.56 280.36 487.24"/><path class="cls-2" d="M388.53,436.14A25.5,25.5,0,1,0,414,461.64,25.5,25.5,0,0,0,388.53,436.14Zm17.25,28.63h-14v13.12h-6.34V464.77h-14v-6.35h14V443.56h6.34v14.86h14Z"/><circle class="cls-2" cx="519.27" cy="440.11" r="6.86"/><circle class="cls-2" cx="482.84" cy="464.54" r="6.86"/><circle class="cls-2" cx="516.72" cy="484.46" r="6.86"/><rect class="cls-2" x="479.68" y="450.22" width="42.75" height="4" transform="translate(-162.59 329.17) rotate(-31.56)"/><rect class="cls-2" x="497.47" y="455.86" width="4" height="37.88" transform="translate(-156.39 686.34) rotate(-61.43)"/><text class="cls-7" transform="translate(703.22 484.68)">JP</text><text class="cls-8" transform="translate(813.78 482.68)">EN</text><path class="cls-2" d="M992,484.62H932.4V443.46H992Zm-55.6-4H988V447.46H936.4Z"/><rect class="cls-2" x="947.86" y="438.72" width="3.53" height="11.46" rx="1.73"/><rect class="cls-2" x="960.22" y="438.49" width="3.53" height="11.46" rx="1.73"/><rect class="cls-2" x="972.67" y="438.49" width="3.53" height="11.46" rx="1.73"/><text class="cls-9" transform="translate(953.39 474.89)">6</text><path class="cls-2" d="M1082.12,491.61H1072a14,14,0,0,1-14-14v-31a14,14,0,0,1,14-14h10.11a14,14,0,0,1,14,14v31A14,14,0,0,1,1082.12,491.61Zm-10.11-55a10,10,0,0,0-10,10v31a10,10,0,0,0,10,10h10.11a10,10,0,0,0,10-10v-31a10,10,0,0,0-10-10Z"/><rect class="cls-2" x="1075" y="434.64" width="4" height="24.15"/><ellipse class="cls-2" cx="1077.03" cy="447.43" rx="3.49" ry="3.98"/><path class="cls-2" d="M72.88,623.71H11V584.19H72.88Zm-57.92-4H68.88V588.19H15Z"/><ellipse class="cls-2" cx="27.27" cy="599.6" rx="4.04" ry="4.08"/><path class="cls-2" d="M20.3,613.81c0-3.13,3.43-6.86,7.6-6.86s7.5,3.73,7.5,6.86"/><rect class="cls-2" x="43.15" y="611.22" width="19.08" height="2"/><rect class="cls-2" x="43.15" y="606.11" width="19.08" height="2"/><rect class="cls-2" x="43.15" y="600.87" width="19.08" height="2"/><rect class="cls-2" x="43.15" y="595.62" width="19.08" height="2"/><path class="cls-2" d="M186.16,618.44H126.91V583.12h59.25Zm-55.25-4h51.25V587.12H130.91Z"/><rect class="cls-2" x="125.41" y="621.7" width="61.94" height="3.28" rx="1.29"/><path class="cls-2" d="M282.12,618.44H240.63V581.3h41.49Zm-37.49-4h33.49V585.3H244.63Z"/><rect class="cls-2" x="258.93" y="617.27" width="4" height="7.69"/><rect class="cls-2" x="247.79" y="624.13" width="26.28" height="4"/><polygon class="cls-2" points="502.54 576.83 508.68 595.75 528.57 595.75 512.48 607.44 518.63 626.36 502.54 614.67 486.44 626.36 492.59 607.44 476.5 595.75 496.39 595.75 502.54 576.83"/><path class="cls-2" d="M617.27,612.52a9.44,9.44,0,1,1,9.43-9.43A9.45,9.45,0,0,1,617.27,612.52Zm0-14.87a5.44,5.44,0,1,0,5.43,5.44A5.44,5.44,0,0,0,617.27,597.65Z"/><path class="cls-2" d="M617.22,631.38a28.3,28.3,0,1,1,28.29-28.29A28.32,28.32,0,0,1,617.22,631.38Zm0-52.59a24.3,24.3,0,1,0,24.29,24.3A24.32,24.32,0,0,0,617.22,578.79Z"/><path class="cls-3" d="M617.27,610.89a7.81,7.81,0,1,1,7.8-7.8A7.81,7.81,0,0,1,617.27,610.89Zm0-14.86a7.06,7.06,0,1,0,7.05,7.06A7.07,7.07,0,0,0,617.27,596Z"/><polygon class="cls-2" points="988.65 631.01 944.63 631.01 944.63 619.01 948.63 619.01 948.63 627.01 984.65 627.01 984.65 579.92 948.63 579.92 948.63 590.91 944.63 590.91 944.63 575.92 988.65 575.92 988.65 631.01"/><rect class="cls-2" x="952.21" y="586.33" width="4" height="34.79" transform="translate(335.93 1548.56) rotate(-89.12)"/><polygon class="cls-2" points="943.83 616.23 932.48 603.39 944.22 590.9 947.13 593.63 937.89 603.47 946.83 613.58 943.83 616.23"/><polygon class="cls-2" points="874.82 631.01 830.8 631.01 830.8 619.01 834.8 619.01 834.8 627.01 870.82 627.01 870.82 579.92 834.8 579.92 834.8 590.91 830.8 590.91 830.8 575.92 874.82 575.92 874.82 631.01"/><rect class="cls-2" x="833.61" y="586.06" width="4" height="34.79" transform="translate(219.42 1429.72) rotate(-89.12)"/><polygon class="cls-2" points="845.6 616.28 842.69 613.54 851.93 603.71 842.99 593.59 845.99 590.94 857.34 603.79 845.6 616.28"/><path class="cls-2" d="M1089.83,608.48c-3.57,0-6.46-.57-7.62-2.17-1.4-.95-9.32-.6-17.07.77l-2.34.42V578.17l1.1-.56c.55-.27,13.56-6.71,22.06.24,6.39,5.22,14.67-.07,14.75-.13l3.09-2v31.06l-1.63.31A71.7,71.7,0,0,1,1089.83,608.48Zm-4.42-4.56c1.22.88,7.68.64,14.39-.49V582.64c-3.81,1.57-10.5,3.11-16.37-1.69-5.3-4.34-13.66-1.49-16.63-.26v22.06C1074.56,601.52,1083.25,600.94,1085.41,603.92Zm0,.07Z"/><rect class="cls-2" x="1056.2" y="575.3" width="4" height="56.33"/><path class="cls-2" d="M515.06,56.85l-17.66.33c-6.38.12-16,2.17-18.77-5.41-.83-2.29-1.18-5.59,0-7.86,1.88-3.57,4.47-2.22,7.3-3.22,3.49-1.22,4.22-2.94,5.48-6.12s3.09-6,6.42-7.41c2.75-1.17,5.35-1.41,7.82,1.41.48.55.62,1.41,1.12,2,1.95,2.25,3.95,1.49,6.18.18,6.9-4.05,12.64,2,13.13,9s-2.83,16.36-11,17.09c-2.23.2-2.25,3.7,0,3.5,13.59-1.21,19.85-21.91,10.21-31.25a12.18,12.18,0,0,0-6.8-3.29,10.13,10.13,0,0,0-4.1.25c-1,.3-2.93,2-3.71,2.06-1.94.07-3.93-3.9-6.19-4.75a10.8,10.8,0,0,0-8.21.61,14.41,14.41,0,0,0-6.83,6.5c-.75,1.38-1,3.35-1.89,4.59-1.7,2.44-3.9,2-6.53,2.6-5.32,1.3-7.07,6.83-6.46,11.85.75,6.1,4.71,10.65,10.95,11.25,9.64.92,19.88-.24,29.56-.42,2.25,0,2.26-3.54,0-3.5Z"/><path class="cls-2" d="M630.17,49.54l-17.66.32c-6.38.12-16,2.18-18.77-5.4-.84-2.29-1.18-5.6,0-7.86,1.88-3.58,4.48-2.23,7.31-3.22,3.49-1.22,4.22-2.94,5.48-6.12s3.09-6,6.42-7.41c2.75-1.18,5.34-1.42,7.81,1.41.48.55.63,1.41,1.12,2,2,2.25,4,1.49,6.19.18,6.89-4.05,12.63,2,13.12,9s-2.82,16.36-11,17.09c-2.23.19-2.25,3.7,0,3.5,13.59-1.21,19.85-21.91,10.21-31.25a12.12,12.12,0,0,0-6.8-3.29,10,10,0,0,0-4.1.25c-1,.29-2.94,2-3.72,2.05-1.93.08-3.93-3.89-6.18-4.74a10.8,10.8,0,0,0-8.21.61,14.3,14.3,0,0,0-6.83,6.49c-.75,1.39-1,3.35-1.9,4.6-1.69,2.44-3.9,2-6.52,2.6-5.32,1.29-7.08,6.83-6.46,11.84.75,6.11,4.71,10.66,11,11.25,9.64.93,19.87-.23,29.56-.41,2.24,0,2.25-3.54,0-3.5Z"/><rect class="cls-2" x="625.77" y="59.09" width="8.14" height="2" transform="translate(158.65 482.34) rotate(-47.31)"/><rect class="cls-2" x="597.34" y="59.09" width="8.15" height="2" transform="translate(149.49 461.44) rotate(-47.31)"/><rect class="cls-2" x="611.35" y="59.09" width="8.14" height="2" transform="translate(154.01 471.74) rotate(-47.31)"/><text class="cls-10" transform="translate(18 115.61)">サウンド</text><text class="cls-10" transform="translate(122.29 115.61)">サウン<tspan class="cls-11" x="36" y="0">ド-</tspan><tspan x="58.09" y="0">大</tspan></text><text class="cls-10" transform="translate(237.62 115.61)">サウン<tspan class="cls-11" x="36" y="0">ド-</tspan><tspan x="58.09" y="0">小</tspan></text><text class="cls-10" transform="translate(376 115.61)">晴れ</text><text class="cls-10" transform="translate(491.33 115.61)">曇り</text><text class="cls-10" transform="translate(612.67 115.61)">雨</text><text class="cls-10" transform="translate(698 115.61)">お休みモード</text><text class="cls-10" transform="translate(831.33 115.61)">明るさ</text><text class="cls-10" transform="translate(958.67 115.61)">金</text><text class="cls-10" transform="translate(1074 115.61)">鍵</text><text class="cls-10" transform="translate(15.35 254.1)">Bluetooth</text><text class="cls-10" transform="translate(145.33 254.1)">電源</text><text class="cls-10" transform="translate(248.67 254.1)">位置情報</text><text class="cls-10" transform="translate(334 254.1)">インフォメーション</text><text class="cls-10" transform="translate(491.33 254.1)">充電</text><text class="cls-10" transform="translate(600.67 254.1)">ヒント</text><text class="cls-10" transform="translate(716 254.1)">初心者</text><text class="cls-10" transform="translate(831.33 254.1)">マイク</text><text class="cls-10" transform="translate(916.67 254.1)">オートフォーカス</text><text class="cls-10" transform="translate(1062 254.1)">グラフ</text><text class="cls-10" transform="translate(0 394.6)">ブラウザバック</text><text class="cls-10" transform="translate(127.33 394.6)">ヘルスケア</text><text class="cls-10" transform="translate(248.29 394.6)">windows</text><text class="cls-10" transform="translate(364 394.6)">テキスト</text><text class="cls-10" transform="translate(491.33 394.6)">戻る</text><text class="cls-10" transform="translate(582.67 394.6)">プライバシー</text><text class="cls-10" transform="translate(728 394.6)">栞</text><text class="cls-10" transform="translate(831.33 394.6)">テレビ</text><text class="cls-10" transform="translate(940.67 394.6)">位置情報</text><text class="cls-10" transform="translate(1069.19 394.6)">USB</text><text class="cls-10" transform="translate(24 533.09)">スマホ</text><text class="cls-10" transform="translate(147.68 533.09)">wifi</text><text class="cls-10" transform="translate(248.67 533.09)">方向キー</text><text class="cls-10" transform="translate(376 533.09)">追加</text><text class="cls-10" transform="translate(491.33 533.09)">接続</text><text class="cls-10" transform="translate(600.67 533.09)">郵便局</text><text class="cls-10" transform="translate(716 533.09)">日本語</text><text class="cls-10" transform="translate(837.33 533.09)">英語</text><text class="cls-10" transform="translate(934.67 533.09)">カレンダー</text><text class="cls-10" transform="translate(1062 533.09)">マウス</text><text class="cls-10" transform="translate(36.2 675.58)">ID</text><text class="cls-10" transform="translate(130.69 675.58)">ノー<tspan class="cls-11" x="24" y="0">ト</tspan><tspan x="39" y="0">PC</tspan></text><text class="cls-10" transform="translate(228.02 675.58)">デスクトッ<tspan class="cls-11" x="60" y="0">プ</tspan><tspan x="75" y="0">PC</tspan></text><text class="cls-10" transform="translate(358 675.58)">タブレット</text><text class="cls-10" transform="translate(467.33 675.58)">ブックマーク</text><text class="cls-10" transform="translate(606.56 675.58)">DVD</text><text class="cls-10" transform="translate(716 675.58)">メモリ</text><text class="cls-10" transform="translate(825.33 675.58)">ログイン</text><text class="cls-10" transform="translate(934.67 675.58)">ログアウト</text><text class="cls-10" transform="translate(1074 675.58)">旗</text><text/><polygon class="cls-2" points="1069.6 900.3 1052.87 900.3 1052.87 849.71 1089.58 849.71 1089.58 856.16 1085.58 856.16 1085.58 853.71 1056.87 853.71 1056.87 896.3 1069.6 896.3 1069.6 900.3"/><path class="cls-2" d="M1108.41,907.82H1071.7l.23-49.52h36.71Zm-32.69-4h28.71l.19-41.52h-28.7Z"/><rect class="cls-2" x="1052.99" y="713.53" width="14.08" height="50.94"/><path class="cls-2" d="M644.47,1185.52H594.89V1136.9h49.58Zm-45.58-4h41.58V1140.9H598.89Z"/><rect class="cls-2" x="721.53" y="875.56" width="4.82" height="4.82"/><path class="cls-2" d="M868.69,1190.51H831.44l-4-54.23h44.62Zm-33.53-4h29.77l2.92-46.23H831.79Z"/><path class="cls-2" d="M857.45,1140.05H842.06v-9.68h15.39Zm-11.39-4h7.39v-1.68h-7.39Z"/><rect class="cls-2" x="819.64" y="1136.28" width="10" height="4"/><rect class="cls-2" x="869.98" y="1136.28" width="9.05" height="4"/><rect class="cls-2" x="838.36" y="1155.12" width="4" height="14.26"/><rect class="cls-2" x="848.11" y="1155.12" width="4" height="14.26"/><rect class="cls-2" x="857.27" y="1155.33" width="4" height="14.26"/><polygon class="cls-2" points="24.1 1170.23 15.65 1170.23 15.65 1137 74.24 1137 74.03 1169.21 65.07 1169.42 64.97 1165.42 70.05 1165.3 70.21 1141 19.65 1141 19.65 1166.23 24.1 1166.23 24.1 1170.23"/><rect class="cls-2" x="22.85" y="1143.81" width="11.29" height="4"/><polygon class="cls-2" points="34.87 1041.42 18.13 1041.42 18.13 990.83 54.84 990.83 54.84 997.27 50.84 997.27 50.84 994.83 22.13 994.83 22.13 1037.42 34.87 1037.42 34.87 1041.42"/><path class="cls-2" d="M73.68,1048.94H37l.23-49.52H73.91Zm-32.7-4H69.69l.2-41.52H41.18Z"/><path class="cls-2" d="M530.58,1058.85H480.5a14,14,0,0,1-14-14V994.77a14,14,0,0,1,14-14h50.08a14,14,0,0,1,14,14v50.08A14,14,0,0,1,530.58,1058.85ZM480.5,984.77a10,10,0,0,0-10,10v50.08a10,10,0,0,0,10,10h50.08a10,10,0,0,0,10-10V994.77a10,10,0,0,0-10-10Z"/><path class="cls-2" d="M530.58,1058.85H480.5a14,14,0,0,1-14-14V994.77a14,14,0,0,1,14-14h50.08a14,14,0,0,1,14,14v50.08A14,14,0,0,1,530.58,1058.85ZM480.5,984.77a10,10,0,0,0-10,10v50.08a10,10,0,0,0,10,10h50.08a10,10,0,0,0,10-10V994.77a10,10,0,0,0-10-10Z"/><path class="cls-2" d="M530.58,1058.85H480.5a14,14,0,0,1-14-14V994.77a14,14,0,0,1,14-14h50.08a14,14,0,0,1,14,14v50.08A14,14,0,0,1,530.58,1058.85ZM480.5,984.77a10,10,0,0,0-10,10v50.08a10,10,0,0,0,10,10h50.08a10,10,0,0,0,10-10V994.77a10,10,0,0,0-10-10Z"/><path class="cls-2" d="M530.58,1058.85H480.5a14,14,0,0,1-14-14V994.77a14,14,0,0,1,14-14h50.08a14,14,0,0,1,14,14v50.08A14,14,0,0,1,530.58,1058.85ZM480.5,984.77a10,10,0,0,0-10,10v50.08a10,10,0,0,0,10,10h50.08a10,10,0,0,0,10-10V994.77a10,10,0,0,0-10-10Z"/><path class="cls-2" d="M990.11,1058.85H940a14,14,0,0,1-14-14V994.77a14,14,0,0,1,14-14h50.08a14,14,0,0,1,14,14v50.08A14,14,0,0,1,990.11,1058.85ZM940,984.77a10,10,0,0,0-10,10v50.08a10,10,0,0,0,10,10h50.08a10,10,0,0,0,10-10V994.77a10,10,0,0,0-10-10Z"/><path class="cls-2" d="M1105,1058.85H1055a14,14,0,0,1-14-14V994.77a14,14,0,0,1,14-14H1105a14,14,0,0,1,14,14v50.08A14,14,0,0,1,1105,1058.85ZM1055,984.77a10,10,0,0,0-10,10v50.08a10,10,0,0,0,10,10H1105a10,10,0,0,0,10-10V994.77a10,10,0,0,0-10-10Z"/><path class="cls-2" d="M70.4,1058.85H20.32a14,14,0,0,1-14-14V994.77a14,14,0,0,1,14-14H70.4a14,14,0,0,1,14,14v50.08A14,14,0,0,1,70.4,1058.85ZM20.32,984.77a10,10,0,0,0-10,10v50.08a10,10,0,0,0,10,10H70.4a10,10,0,0,0,10-10V994.77a10,10,0,0,0-10-10Z"/><path class="cls-2" d="M875,1058.85H825a14,14,0,0,1-14-14V994.77a14,14,0,0,1,14-14H875a14,14,0,0,1,14,14v50.08A14,14,0,0,1,875,1058.85ZM825,984.77a10,10,0,0,0-10,10v50.08a10,10,0,0,0,10,10H875a10,10,0,0,0,10-10V994.77a10,10,0,0,0-10-10Z"/><path class="cls-2" d="M760,1058.85H710a14,14,0,0,1-14-14V994.77a14,14,0,0,1,14-14H760a14,14,0,0,1,14,14v50.08A14,14,0,0,1,760,1058.85ZM710,984.77a10,10,0,0,0-10,10v50.08a10,10,0,0,0,10,10H760a10,10,0,0,0,10-10V994.77a10,10,0,0,0-10-10Z"/><path class="cls-2" d="M645,1058.85H595a14,14,0,0,1-14-14V994.77a14,14,0,0,1,14-14H645a14,14,0,0,1,14,14v50.08A14,14,0,0,1,645,1058.85ZM595,984.77a10,10,0,0,0-10,10v50.08a10,10,0,0,0,10,10H645a10,10,0,0,0,10-10V994.77a10,10,0,0,0-10-10Z"/><path class="cls-2" d="M530.58,1058.85H480.5a14,14,0,0,1-14-14V994.77a14,14,0,0,1,14-14h50.08a14,14,0,0,1,14,14v50.08A14,14,0,0,1,530.58,1058.85ZM480.5,984.77a10,10,0,0,0-10,10v50.08a10,10,0,0,0,10,10h50.08a10,10,0,0,0,10-10V994.77a10,10,0,0,0-10-10Z"/><path class="cls-2" d="M990.11,1340.86H940a14,14,0,0,1-14-14v-50.08a14,14,0,0,1,14-14h50.08a14,14,0,0,1,14,14v50.08A14,14,0,0,1,990.11,1340.86ZM940,1266.78a10,10,0,0,0-10,10v50.08a10,10,0,0,0,10,10h50.08a10,10,0,0,0,10-10v-50.08a10,10,0,0,0-10-10Z"/><path class="cls-2" d="M1105,1340.86H1055a14,14,0,0,1-14-14v-50.08a14,14,0,0,1,14-14H1105a14,14,0,0,1,14,14v50.08A14,14,0,0,1,1105,1340.86ZM1055,1266.78a10,10,0,0,0-10,10v50.08a10,10,0,0,0,10,10H1105a10,10,0,0,0,10-10v-50.08a10,10,0,0,0-10-10Z"/><path class="cls-2" d="M70.4,1340.86H20.32a14,14,0,0,1-14-14v-50.08a14,14,0,0,1,14-14H70.4a14,14,0,0,1,14,14v50.08A14,14,0,0,1,70.4,1340.86Zm-50.08-74.08a10,10,0,0,0-10,10v50.08a10,10,0,0,0,10,10H70.4a10,10,0,0,0,10-10v-50.08a10,10,0,0,0-10-10Z"/><path class="cls-2" d="M875,1340.86H825a14,14,0,0,1-14-14v-50.08a14,14,0,0,1,14-14H875a14,14,0,0,1,14,14v50.08A14,14,0,0,1,875,1340.86ZM825,1266.78a10,10,0,0,0-10,10v50.08a10,10,0,0,0,10,10H875a10,10,0,0,0,10-10v-50.08a10,10,0,0,0-10-10Z"/><path class="cls-2" d="M760,1340.86H710a14,14,0,0,1-14-14v-50.08a14,14,0,0,1,14-14H760a14,14,0,0,1,14,14v50.08A14,14,0,0,1,760,1340.86ZM710,1266.78a10,10,0,0,0-10,10v50.08a10,10,0,0,0,10,10H760a10,10,0,0,0,10-10v-50.08a10,10,0,0,0-10-10Z"/><path class="cls-2" d="M416,1340.86H366a14,14,0,0,1-14-14v-50.08a14,14,0,0,1,14-14H416a14,14,0,0,1,14,14v50.08A14,14,0,0,1,416,1340.86ZM366,1266.78a10,10,0,0,0-10,10v50.08a10,10,0,0,0,10,10H416a10,10,0,0,0,10-10v-50.08a10,10,0,0,0-10-10Z"/><path class="cls-2" d="M300.71,1340.86H250.63a14,14,0,0,1-14-14v-50.08a14,14,0,0,1,14-14h50.08a14,14,0,0,1,14,14v50.08A14,14,0,0,1,300.71,1340.86Zm-50.08-74.08a10,10,0,0,0-10,10v50.08a10,10,0,0,0,10,10h50.08a10,10,0,0,0,10-10v-50.08a10,10,0,0,0-10-10Z"/><path class="cls-2" d="M184.61,1340.86H134.53a14,14,0,0,1-14-14v-50.08a14,14,0,0,1,14-14h50.08a14,14,0,0,1,14,14v50.08A14,14,0,0,1,184.61,1340.86Zm-50.08-74.08a10,10,0,0,0-10,10v50.08a10,10,0,0,0,10,10h50.08a10,10,0,0,0,10-10v-50.08a10,10,0,0,0-10-10Z"/><path class="cls-2" d="M530.58,1340.86H480.5a14,14,0,0,1-14-14v-50.08a14,14,0,0,1,14-14h50.08a14,14,0,0,1,14,14v50.08A14,14,0,0,1,530.58,1340.86Zm-50.08-74.08a10,10,0,0,0-10,10v50.08a10,10,0,0,0,10,10h50.08a10,10,0,0,0,10-10v-50.08a10,10,0,0,0-10-10Z"/><path class="cls-2" d="M530.58,1340.86H480.5a14,14,0,0,1-14-14v-50.08a14,14,0,0,1,14-14h50.08a14,14,0,0,1,14,14v50.08A14,14,0,0,1,530.58,1340.86Zm-50.08-74.08a10,10,0,0,0-10,10v50.08a10,10,0,0,0,10,10h50.08a10,10,0,0,0,10-10v-50.08a10,10,0,0,0-10-10Z"/><path class="cls-2" d="M530.58,1340.86H480.5a14,14,0,0,1-14-14v-50.08a14,14,0,0,1,14-14h50.08a14,14,0,0,1,14,14v50.08A14,14,0,0,1,530.58,1340.86Zm-50.08-74.08a10,10,0,0,0-10,10v50.08a10,10,0,0,0,10,10h50.08a10,10,0,0,0,10-10v-50.08a10,10,0,0,0-10-10Z"/><path class="cls-2" d="M645,1340.86H595a14,14,0,0,1-14-14v-50.08a14,14,0,0,1,14-14H645a14,14,0,0,1,14,14v50.08A14,14,0,0,1,645,1340.86ZM595,1266.78a10,10,0,0,0-10,10v50.08a10,10,0,0,0,10,10H645a10,10,0,0,0,10-10v-50.08a10,10,0,0,0-10-10Z"/><path class="cls-2" d="M990.11,1200.09H940a14,14,0,0,1-14-14V1136a14,14,0,0,1,14-14h50.08a14,14,0,0,1,14,14v50.08A14,14,0,0,1,990.11,1200.09ZM940,1126a10,10,0,0,0-10,10v50.08a10,10,0,0,0,10,10h50.08a10,10,0,0,0,10-10V1136a10,10,0,0,0-10-10Z"/><path class="cls-2" d="M1105,1200.09H1055a14,14,0,0,1-14-14V1136a14,14,0,0,1,14-14H1105a14,14,0,0,1,14,14v50.08A14,14,0,0,1,1105,1200.09ZM1055,1126a10,10,0,0,0-10,10v50.08a10,10,0,0,0,10,10H1105a10,10,0,0,0,10-10V1136a10,10,0,0,0-10-10Z"/><path class="cls-2" d="M70.4,1200.09H20.32a14,14,0,0,1-14-14V1136a14,14,0,0,1,14-14H70.4a14,14,0,0,1,14,14v50.08A14,14,0,0,1,70.4,1200.09ZM20.32,1126a10,10,0,0,0-10,10v50.08a10,10,0,0,0,10,10H70.4a10,10,0,0,0,10-10V1136a10,10,0,0,0-10-10Z"/><path class="cls-2" d="M875,1200.09H825a14,14,0,0,1-14-14V1136a14,14,0,0,1,14-14H875a14,14,0,0,1,14,14v50.08A14,14,0,0,1,875,1200.09ZM825,1126a10,10,0,0,0-10,10v50.08a10,10,0,0,0,10,10H875a10,10,0,0,0,10-10V1136a10,10,0,0,0-10-10Z"/><path class="cls-2" d="M760,1200.09H710a14,14,0,0,1-14-14V1136a14,14,0,0,1,14-14H760a14,14,0,0,1,14,14v50.08A14,14,0,0,1,760,1200.09ZM710,1126a10,10,0,0,0-10,10v50.08a10,10,0,0,0,10,10H760a10,10,0,0,0,10-10V1136a10,10,0,0,0-10-10Z"/><path class="cls-2" d="M645,918.32H595a14,14,0,0,1-14-14V854.24a14,14,0,0,1,14-14H645a14,14,0,0,1,14,14v50.08A14,14,0,0,1,645,918.32ZM595,844.24a10,10,0,0,0-10,10v50.08a10,10,0,0,0,10,10H645a10,10,0,0,0,10-10V854.24a10,10,0,0,0-10-10Z"/><path class="cls-2" d="M530.58,1058.85H480.5a14,14,0,0,1-14-14V994.77a14,14,0,0,1,14-14h50.08a14,14,0,0,1,14,14v50.08A14,14,0,0,1,530.58,1058.85ZM480.5,984.77a10,10,0,0,0-10,10v50.08a10,10,0,0,0,10,10h50.08a10,10,0,0,0,10-10V994.77a10,10,0,0,0-10-10Z"/><path class="cls-2" d="M416,1200.09H366a14,14,0,0,1-14-14V1136a14,14,0,0,1,14-14H416a14,14,0,0,1,14,14v50.08A14,14,0,0,1,416,1200.09ZM366,1126a10,10,0,0,0-10,10v50.08a10,10,0,0,0,10,10H416a10,10,0,0,0,10-10V1136a10,10,0,0,0-10-10Z"/><path class="cls-2" d="M300.71,1200.09H250.63a14,14,0,0,1-14-14V1136a14,14,0,0,1,14-14h50.08a14,14,0,0,1,14,14v50.08A14,14,0,0,1,300.71,1200.09ZM250.63,1126a10,10,0,0,0-10,10v50.08a10,10,0,0,0,10,10h50.08a10,10,0,0,0,10-10V1136a10,10,0,0,0-10-10Z"/><path class="cls-2" d="M184.61,1200.09H134.53a14,14,0,0,1-14-14V1136a14,14,0,0,1,14-14h50.08a14,14,0,0,1,14,14v50.08A14,14,0,0,1,184.61,1200.09ZM134.53,1126a10,10,0,0,0-10,10v50.08a10,10,0,0,0,10,10h50.08a10,10,0,0,0,10-10V1136a10,10,0,0,0-10-10Z"/><path class="cls-2" d="M530.58,1200.09H480.5a14,14,0,0,1-14-14V1136a14,14,0,0,1,14-14h50.08a14,14,0,0,1,14,14v50.08A14,14,0,0,1,530.58,1200.09ZM480.5,1126a10,10,0,0,0-10,10v50.08a10,10,0,0,0,10,10h50.08a10,10,0,0,0,10-10V1136a10,10,0,0,0-10-10Z"/><path class="cls-2" d="M530.58,1200.09H480.5a14,14,0,0,1-14-14V1136a14,14,0,0,1,14-14h50.08a14,14,0,0,1,14,14v50.08A14,14,0,0,1,530.58,1200.09ZM480.5,1126a10,10,0,0,0-10,10v50.08a10,10,0,0,0,10,10h50.08a10,10,0,0,0,10-10V1136a10,10,0,0,0-10-10Z"/><path class="cls-2" d="M990.11,1058.85H940a14,14,0,0,1-14-14V994.77a14,14,0,0,1,14-14h50.08a14,14,0,0,1,14,14v50.08A14,14,0,0,1,990.11,1058.85ZM940,984.77a10,10,0,0,0-10,10v50.08a10,10,0,0,0,10,10h50.08a10,10,0,0,0,10-10V994.77a10,10,0,0,0-10-10Z"/><path class="cls-2" d="M1105,1058.85H1055a14,14,0,0,1-14-14V994.77a14,14,0,0,1,14-14H1105a14,14,0,0,1,14,14v50.08A14,14,0,0,1,1105,1058.85ZM1055,984.77a10,10,0,0,0-10,10v50.08a10,10,0,0,0,10,10H1105a10,10,0,0,0,10-10V994.77a10,10,0,0,0-10-10Z"/><path class="cls-2" d="M70.4,1058.85H20.32a14,14,0,0,1-14-14V994.77a14,14,0,0,1,14-14H70.4a14,14,0,0,1,14,14v50.08A14,14,0,0,1,70.4,1058.85ZM20.32,984.77a10,10,0,0,0-10,10v50.08a10,10,0,0,0,10,10H70.4a10,10,0,0,0,10-10V994.77a10,10,0,0,0-10-10Z"/><path class="cls-2" d="M875,1058.85H825a14,14,0,0,1-14-14V994.77a14,14,0,0,1,14-14H875a14,14,0,0,1,14,14v50.08A14,14,0,0,1,875,1058.85ZM825,984.77a10,10,0,0,0-10,10v50.08a10,10,0,0,0,10,10H875a10,10,0,0,0,10-10V994.77a10,10,0,0,0-10-10Z"/><path class="cls-2" d="M760,1058.85H710a14,14,0,0,1-14-14V994.77a14,14,0,0,1,14-14H760a14,14,0,0,1,14,14v50.08A14,14,0,0,1,760,1058.85ZM710,984.77a10,10,0,0,0-10,10v50.08a10,10,0,0,0,10,10H760a10,10,0,0,0,10-10V994.77a10,10,0,0,0-10-10Z"/><path class="cls-2" d="M645,1058.85H595a14,14,0,0,1-14-14V994.77a14,14,0,0,1,14-14H645a14,14,0,0,1,14,14v50.08A14,14,0,0,1,645,1058.85ZM595,984.77a10,10,0,0,0-10,10v50.08a10,10,0,0,0,10,10H645a10,10,0,0,0,10-10V994.77a10,10,0,0,0-10-10Z"/><path class="cls-2" d="M530.58,1200.09H480.5a14,14,0,0,1-14-14V1136a14,14,0,0,1,14-14h50.08a14,14,0,0,1,14,14v50.08A14,14,0,0,1,530.58,1200.09ZM480.5,1126a10,10,0,0,0-10,10v50.08a10,10,0,0,0,10,10h50.08a10,10,0,0,0,10-10V1136a10,10,0,0,0-10-10Z"/><path class="cls-2" d="M530.58,777.08H480.5a14,14,0,0,1-14-14V713a14,14,0,0,1,14-14h50.08a14,14,0,0,1,14,14v50.08A14,14,0,0,1,530.58,777.08ZM480.5,703a10,10,0,0,0-10,10v50.08a10,10,0,0,0,10,10h50.08a10,10,0,0,0,10-10V713a10,10,0,0,0-10-10Z"/><path class="cls-2" d="M530.58,777.08H480.5a14,14,0,0,1-14-14V713a14,14,0,0,1,14-14h50.08a14,14,0,0,1,14,14v50.08A14,14,0,0,1,530.58,777.08ZM480.5,703a10,10,0,0,0-10,10v50.08a10,10,0,0,0,10,10h50.08a10,10,0,0,0,10-10V713a10,10,0,0,0-10-10Z"/><path class="cls-2" d="M530.58,777.08H480.5a14,14,0,0,1-14-14V713a14,14,0,0,1,14-14h50.08a14,14,0,0,1,14,14v50.08A14,14,0,0,1,530.58,777.08ZM480.5,703a10,10,0,0,0-10,10v50.08a10,10,0,0,0,10,10h50.08a10,10,0,0,0,10-10V713a10,10,0,0,0-10-10Z"/><path class="cls-2" d="M530.58,777.08H480.5a14,14,0,0,1-14-14V713a14,14,0,0,1,14-14h50.08a14,14,0,0,1,14,14v50.08A14,14,0,0,1,530.58,777.08ZM480.5,703a10,10,0,0,0-10,10v50.08a10,10,0,0,0,10,10h50.08a10,10,0,0,0,10-10V713a10,10,0,0,0-10-10Z"/><path class="cls-2" d="M990.11,777.08H940a14,14,0,0,1-14-14V713a14,14,0,0,1,14-14h50.08a14,14,0,0,1,14,14v50.08A14,14,0,0,1,990.11,777.08ZM940,703a10,10,0,0,0-10,10v50.08a10,10,0,0,0,10,10h50.08a10,10,0,0,0,10-10V713a10,10,0,0,0-10-10Z"/><path class="cls-2" d="M1105,777.08H1055a14,14,0,0,1-14-14V713a14,14,0,0,1,14-14H1105a14,14,0,0,1,14,14v50.08A14,14,0,0,1,1105,777.08ZM1055,703a10,10,0,0,0-10,10v50.08a10,10,0,0,0,10,10H1105a10,10,0,0,0,10-10V713a10,10,0,0,0-10-10Z"/><path class="cls-2" d="M70.4,777.08H20.32a14,14,0,0,1-14-14V713a14,14,0,0,1,14-14H70.4a14,14,0,0,1,14,14v50.08A14,14,0,0,1,70.4,777.08ZM20.32,703a10,10,0,0,0-10,10v50.08a10,10,0,0,0,10,10H70.4a10,10,0,0,0,10-10V713a10,10,0,0,0-10-10Z"/><path class="cls-2" d="M875,777.08H825a14,14,0,0,1-14-14V713a14,14,0,0,1,14-14H875a14,14,0,0,1,14,14v50.08A14,14,0,0,1,875,777.08ZM825,703a10,10,0,0,0-10,10v50.08a10,10,0,0,0,10,10H875a10,10,0,0,0,10-10V713a10,10,0,0,0-10-10Z"/><path class="cls-2" d="M760,777.08H710a14,14,0,0,1-14-14V713a14,14,0,0,1,14-14H760a14,14,0,0,1,14,14v50.08A14,14,0,0,1,760,777.08ZM710,703a10,10,0,0,0-10,10v50.08a10,10,0,0,0,10,10H760a10,10,0,0,0,10-10V713a10,10,0,0,0-10-10Z"/><path class="cls-2" d="M645,777.08H595a14,14,0,0,1-14-14V713a14,14,0,0,1,14-14H645a14,14,0,0,1,14,14v50.08A14,14,0,0,1,645,777.08ZM595,703a10,10,0,0,0-10,10v50.08a10,10,0,0,0,10,10H645a10,10,0,0,0,10-10V713a10,10,0,0,0-10-10Z"/><path class="cls-2" d="M530.58,777.08H480.5a14,14,0,0,1-14-14V713a14,14,0,0,1,14-14h50.08a14,14,0,0,1,14,14v50.08A14,14,0,0,1,530.58,777.08ZM480.5,703a10,10,0,0,0-10,10v50.08a10,10,0,0,0,10,10h50.08a10,10,0,0,0,10-10V713a10,10,0,0,0-10-10Z"/><path class="cls-2" d="M416,777.08H366a14,14,0,0,1-14-14V713a14,14,0,0,1,14-14H416a14,14,0,0,1,14,14v50.08A14,14,0,0,1,416,777.08ZM366,703a10,10,0,0,0-10,10v50.08a10,10,0,0,0,10,10H416a10,10,0,0,0,10-10V713a10,10,0,0,0-10-10Z"/><path class="cls-2" d="M300.71,777.08H250.63a14,14,0,0,1-14-14V713a14,14,0,0,1,14-14h50.08a14,14,0,0,1,14,14v50.08A14,14,0,0,1,300.71,777.08ZM250.63,703a10,10,0,0,0-10,10v50.08a10,10,0,0,0,10,10h50.08a10,10,0,0,0,10-10V713a10,10,0,0,0-10-10Z"/><path class="cls-2" d="M184.61,777.08H134.53a14,14,0,0,1-14-14V713a14,14,0,0,1,14-14h50.08a14,14,0,0,1,14,14v50.08A14,14,0,0,1,184.61,777.08ZM134.53,703a10,10,0,0,0-10,10v50.08a10,10,0,0,0,10,10h50.08a10,10,0,0,0,10-10V713a10,10,0,0,0-10-10Z"/><path class="cls-2" d="M990.11,918.32H940a14,14,0,0,1-14-14V854.24a14,14,0,0,1,14-14h50.08a14,14,0,0,1,14,14v50.08A14,14,0,0,1,990.11,918.32ZM940,844.24a10,10,0,0,0-10,10v50.08a10,10,0,0,0,10,10h50.08a10,10,0,0,0,10-10V854.24a10,10,0,0,0-10-10Z"/><path class="cls-2" d="M1105,918.32H1055a14,14,0,0,1-14-14V854.24a14,14,0,0,1,14-14H1105a14,14,0,0,1,14,14v50.08A14,14,0,0,1,1105,918.32ZM1055,844.24a10,10,0,0,0-10,10v50.08a10,10,0,0,0,10,10H1105a10,10,0,0,0,10-10V854.24a10,10,0,0,0-10-10Z"/><path class="cls-2" d="M70.4,918.32H20.32a14,14,0,0,1-14-14V854.24a14,14,0,0,1,14-14H70.4a14,14,0,0,1,14,14v50.08A14,14,0,0,1,70.4,918.32ZM20.32,844.24a10,10,0,0,0-10,10v50.08a10,10,0,0,0,10,10H70.4a10,10,0,0,0,10-10V854.24a10,10,0,0,0-10-10Z"/><path class="cls-2" d="M875,918.32H825a14,14,0,0,1-14-14V854.24a14,14,0,0,1,14-14H875a14,14,0,0,1,14,14v50.08A14,14,0,0,1,875,918.32ZM825,844.24a10,10,0,0,0-10,10v50.08a10,10,0,0,0,10,10H875a10,10,0,0,0,10-10V854.24a10,10,0,0,0-10-10Z"/><path class="cls-2" d="M760,918.32H710a14,14,0,0,1-14-14V854.24a14,14,0,0,1,14-14H760a14,14,0,0,1,14,14v50.08A14,14,0,0,1,760,918.32ZM710,844.24a10,10,0,0,0-10,10v50.08a10,10,0,0,0,10,10H760a10,10,0,0,0,10-10V854.24a10,10,0,0,0-10-10Z"/><path class="cls-2" d="M645,1200.09H595a14,14,0,0,1-14-14V1136a14,14,0,0,1,14-14H645a14,14,0,0,1,14,14v50.08A14,14,0,0,1,645,1200.09ZM595,1126a10,10,0,0,0-10,10v50.08a10,10,0,0,0,10,10H645a10,10,0,0,0,10-10V1136a10,10,0,0,0-10-10Z"/><path class="cls-2" d="M530.58,777.08H480.5a14,14,0,0,1-14-14V713a14,14,0,0,1,14-14h50.08a14,14,0,0,1,14,14v50.08A14,14,0,0,1,530.58,777.08ZM480.5,703a10,10,0,0,0-10,10v50.08a10,10,0,0,0,10,10h50.08a10,10,0,0,0,10-10V713a10,10,0,0,0-10-10Z"/><path class="cls-2" d="M416,918.32H366a14,14,0,0,1-14-14V854.24a14,14,0,0,1,14-14H416a14,14,0,0,1,14,14v50.08A14,14,0,0,1,416,918.32ZM366,844.24a10,10,0,0,0-10,10v50.08a10,10,0,0,0,10,10H416a10,10,0,0,0,10-10V854.24a10,10,0,0,0-10-10Z"/><path class="cls-2" d="M300.71,918.32H250.63a14,14,0,0,1-14-14V854.24a14,14,0,0,1,14-14h50.08a14,14,0,0,1,14,14v50.08A14,14,0,0,1,300.71,918.32Zm-50.08-74.08a10,10,0,0,0-10,10v50.08a10,10,0,0,0,10,10h50.08a10,10,0,0,0,10-10V854.24a10,10,0,0,0-10-10Z"/><path class="cls-2" d="M184.61,918.32H134.53a14,14,0,0,1-14-14V854.24a14,14,0,0,1,14-14h50.08a14,14,0,0,1,14,14v50.08A14,14,0,0,1,184.61,918.32Zm-50.08-74.08a10,10,0,0,0-10,10v50.08a10,10,0,0,0,10,10h50.08a10,10,0,0,0,10-10V854.24a10,10,0,0,0-10-10Z"/><path class="cls-2" d="M530.58,918.32H480.5a14,14,0,0,1-14-14V854.24a14,14,0,0,1,14-14h50.08a14,14,0,0,1,14,14v50.08A14,14,0,0,1,530.58,918.32ZM480.5,844.24a10,10,0,0,0-10,10v50.08a10,10,0,0,0,10,10h50.08a10,10,0,0,0,10-10V854.24a10,10,0,0,0-10-10Z"/><path class="cls-2" d="M530.58,918.32H480.5a14,14,0,0,1-14-14V854.24a14,14,0,0,1,14-14h50.08a14,14,0,0,1,14,14v50.08A14,14,0,0,1,530.58,918.32ZM480.5,844.24a10,10,0,0,0-10,10v50.08a10,10,0,0,0,10,10h50.08a10,10,0,0,0,10-10V854.24a10,10,0,0,0-10-10Z"/><path class="cls-2" d="M990.11,777.08H940a14,14,0,0,1-14-14V713a14,14,0,0,1,14-14h50.08a14,14,0,0,1,14,14v50.08A14,14,0,0,1,990.11,777.08ZM940,703a10,10,0,0,0-10,10v50.08a10,10,0,0,0,10,10h50.08a10,10,0,0,0,10-10V713a10,10,0,0,0-10-10Z"/><path class="cls-2" d="M1105,777.08H1055a14,14,0,0,1-14-14V713a14,14,0,0,1,14-14H1105a14,14,0,0,1,14,14v50.08A14,14,0,0,1,1105,777.08ZM1055,703a10,10,0,0,0-10,10v50.08a10,10,0,0,0,10,10H1105a10,10,0,0,0,10-10V713a10,10,0,0,0-10-10Z"/><path class="cls-2" d="M70.4,777.08H20.32a14,14,0,0,1-14-14V713a14,14,0,0,1,14-14H70.4a14,14,0,0,1,14,14v50.08A14,14,0,0,1,70.4,777.08ZM20.32,703a10,10,0,0,0-10,10v50.08a10,10,0,0,0,10,10H70.4a10,10,0,0,0,10-10V713a10,10,0,0,0-10-10Z"/><path class="cls-2" d="M875,777.08H825a14,14,0,0,1-14-14V713a14,14,0,0,1,14-14H875a14,14,0,0,1,14,14v50.08A14,14,0,0,1,875,777.08ZM825,703a10,10,0,0,0-10,10v50.08a10,10,0,0,0,10,10H875a10,10,0,0,0,10-10V713a10,10,0,0,0-10-10Z"/><path class="cls-2" d="M760,777.08H710a14,14,0,0,1-14-14V713a14,14,0,0,1,14-14H760a14,14,0,0,1,14,14v50.08A14,14,0,0,1,760,777.08ZM710,703a10,10,0,0,0-10,10v50.08a10,10,0,0,0,10,10H760a10,10,0,0,0,10-10V713a10,10,0,0,0-10-10Z"/><path class="cls-2" d="M645,777.08H595a14,14,0,0,1-14-14V713a14,14,0,0,1,14-14H645a14,14,0,0,1,14,14v50.08A14,14,0,0,1,645,777.08ZM595,703a10,10,0,0,0-10,10v50.08a10,10,0,0,0,10,10H645a10,10,0,0,0,10-10V713a10,10,0,0,0-10-10Z"/><path class="cls-2" d="M530.58,918.32H480.5a14,14,0,0,1-14-14V854.24a14,14,0,0,1,14-14h50.08a14,14,0,0,1,14,14v50.08A14,14,0,0,1,530.58,918.32ZM480.5,844.24a10,10,0,0,0-10,10v50.08a10,10,0,0,0,10,10h50.08a10,10,0,0,0,10-10V854.24a10,10,0,0,0-10-10Z"/><path class="cls-2" d="M416,777.08H366a14,14,0,0,1-14-14V713a14,14,0,0,1,14-14H416a14,14,0,0,1,14,14v50.08A14,14,0,0,1,416,777.08ZM366,703a10,10,0,0,0-10,10v50.08a10,10,0,0,0,10,10H416a10,10,0,0,0,10-10V713a10,10,0,0,0-10-10Z"/><path class="cls-2" d="M300.71,777.08H250.63a14,14,0,0,1-14-14V713a14,14,0,0,1,14-14h50.08a14,14,0,0,1,14,14v50.08A14,14,0,0,1,300.71,777.08ZM250.63,703a10,10,0,0,0-10,10v50.08a10,10,0,0,0,10,10h50.08a10,10,0,0,0,10-10V713a10,10,0,0,0-10-10Z"/><path class="cls-2" d="M184.61,777.08H134.53a14,14,0,0,1-14-14V713a14,14,0,0,1,14-14h50.08a14,14,0,0,1,14,14v50.08A14,14,0,0,1,184.61,777.08ZM134.53,703a10,10,0,0,0-10,10v50.08a10,10,0,0,0,10,10h50.08a10,10,0,0,0,10-10V713a10,10,0,0,0-10-10Z"/><text class="cls-12" transform="translate(19.78 762.52)">A</text><text class="cls-13" transform="translate(125.57 763.37)">あ</text><path class="cls-2" d="M287.1,753.75H264v-22H287.1Zm-20.06-3H284.1v-16H267Z"/><rect class="cls-2" x="265.54" y="741.23" width="20.06" height="3"/><rect class="cls-2" x="274.07" y="733.21" width="3" height="19.03"/><rect class="cls-2" x="251.14" y="725.71" width="4" height="37.19"/><rect class="cls-2" x="247.01" y="761.42" width="57.13" height="4"/><rect class="cls-2" x="295.9" y="724.67" width="4" height="38.24"/><rect class="cls-2" x="244.46" y="717.52" width="34.47" height="4" transform="translate(-338.01 243.55) rotate(-31.58)"/><rect class="cls-2" x="287.45" y="702.28" width="4" height="34.47" transform="translate(-475.11 589.4) rotate(-58.43)"/><path class="cls-2" d="M880.74,761.94H819.33V719.28h16.95l5-5.68h17l4.17,5.68,18.32,0Zm-57.41-4h53.41V723.25l-16.34,0-4.17-5.68H843.07l-5,5.68H823.33Z"/><path class="cls-2" d="M765.7,761.94H704.3V717.85l61.4-.05Zm-57.4-4h53.4V721.82l-17.16,0H708.3Z"/><path class="cls-2" d="M651,761.94h-61.4V717.85l61.4-.05Zm-57.4-4H647V721.82l-17.17,0H593.57Z"/><path class="cls-2" d="M421.89,761.94h-61.4V719.85h39.39l4.43-4.52,17.58,0Zm-57.4-4h53.4v-38.6H406l-4.42,4.52H364.49Z"/><path class="cls-2" d="M490.84,731.63l-16.22-14.77h32.44Zm-8.47-11.77,8.47,7.72,8.47-7.72Z"/><rect class="cls-2" x="488.84" y="717.66" width="4" height="43.94"/><rect class="cls-2" x="526.14" y="717.73" width="3" height="43.94"/><rect class="cls-2" x="513.17" y="729.37" width="3" height="32.29"/><rect class="cls-2" x="500.93" y="743.78" width="3" height="17.89"/><polygon class="cls-2" points="620 739.81 591.62 721.93 593.22 719.39 620 736.27 646.95 719.39 648.54 721.93 620 739.81"/><polygon class="cls-2" points="726.67 739.88 714.71 752.8 738.63 752.8 726.67 739.88"/><path class="cls-2" d="M742.06,754.3H711.28l15.39-16.63Zm-23.92-3H735.2l-8.53-9.22Z"/><polygon class="cls-2" points="743.96 737 732 752.8 755.92 752.8 743.96 737"/><path class="cls-2" d="M758.94,754.3H729l15-19.79Zm-23.92-3H752.9L744,739.49Z"/><circle class="cls-2" cx="719.41" cy="733.66" r="3.58"/><path class="cls-2" d="M850,749.41a9.54,9.54,0,1,1,9.53-9.53A9.54,9.54,0,0,1,850,749.41Zm0-16.07a6.54,6.54,0,1,0,6.53,6.54A6.54,6.54,0,0,0,850,733.34Z"/><path class="cls-2" d="M850,754.21a14.34,14.34,0,1,1,14.33-14.33A14.35,14.35,0,0,1,850,754.21Zm0-25.67a11.34,11.34,0,1,0,11.33,11.34A11.35,11.35,0,0,0,850,728.54Z"/><path class="cls-2" d="M850,754.21a14.34,14.34,0,1,1,14.33-14.33A14.35,14.35,0,0,1,850,754.21Zm0-25.67a11.34,11.34,0,1,0,11.33,11.34A11.35,11.35,0,0,0,850,728.54Z"/><polygon class="cls-2" points="987.39 722.33 950.45 725.22 950.45 719.59 987.4 716.83 987.39 722.33"/><path class="cls-2" d="M949,726.85V718.2l39.95-3v8.5Zm3-5.87v2.62l33.94-2.66v-2.5Z"/><rect class="cls-2" x="948.95" y="722.3" width="3" height="31.54"/><rect class="cls-2" x="985.9" y="717.79" width="3" height="36.91"/><ellipse class="cls-2" cx="944.54" cy="754.52" rx="5.95" ry="4.94"/><path class="cls-2" d="M944.54,761c-4.11,0-7.45-2.89-7.45-6.44s3.34-6.44,7.45-6.44S952,751,952,754.52,948.65,761,944.54,761Zm0-9.88c-2.45,0-4.45,1.55-4.45,3.44s2,3.44,4.45,3.44,4.45-1.55,4.45-3.44S947,751.08,944.54,751.08Z"/><ellipse class="cls-2" cx="981.52" cy="753.71" rx="5.95" ry="4.94"/><path class="cls-2" d="M981.52,760.15c-4.11,0-7.45-2.89-7.45-6.44s3.34-6.44,7.45-6.44,7.45,2.89,7.45,6.44S985.63,760.15,981.52,760.15Zm0-9.88c-2.45,0-4.45,1.55-4.45,3.44s2,3.44,4.45,3.44,4.45-1.55,4.45-3.44S984,750.27,981.52,750.27Z"/><path class="cls-2" d="M169,891.56a21.92,21.92,0,1,1,21.92-21.91A21.94,21.94,0,0,1,169,891.56Zm0-38.83a16.92,16.92,0,1,0,16.92,16.92A16.94,16.94,0,0,0,169,852.73Z"/><rect class="cls-2" x="128.45" y="894.69" width="33.4" height="4" transform="translate(-595.56 370.88) rotate(-45.44)"/><path class="cls-2" d="M283.51,891.56a21.92,21.92,0,1,1,21.92-21.91A21.94,21.94,0,0,1,283.51,891.56Zm0-38.83a16.92,16.92,0,1,0,16.92,16.92A16.94,16.94,0,0,0,283.51,852.73Z"/><rect class="cls-2" x="242.95" y="894.69" width="33.4" height="4" transform="translate(-561.4 452.46) rotate(-45.44)"/><rect class="cls-2" x="167.1" y="858.15" width="4" height="23.34"/><rect class="cls-2" x="271.69" y="867.82" width="23.34" height="4"/><rect class="cls-2" x="157.43" y="867.82" width="23.34" height="4"/><path class="cls-2" d="M46.16,904.34A25.35,25.35,0,1,1,71.51,879,25.38,25.38,0,0,1,46.16,904.34Zm0-46.7A21.35,21.35,0,1,0,67.51,879,21.38,21.38,0,0,0,46.16,857.64Z"/><path class="cls-2" d="M840.5,1316.24v-30.85l26.71,15.42Zm4-23.92v17l14.71-8.5Z"/><path class="cls-2" d="M37,894.33V863.49l26.72,15.42Zm4-23.92v17l14.72-8.5Z"/><path class="cls-2" d="M949.17,1319.41v-34.16l18.62,16.6Zm4-25.24v16l8.7-8.21Z"/><path class="cls-2" d="M969.24,1319.49v-33.1l17.8,15.87Zm4-24.17v14.74l7.93-7.67Z"/><path class="cls-2" d="M1094.84,1320.72h-13.32v-38.28h13.32Zm-9.32-4h5.32v-30.28h-5.32Z"/><path class="cls-2" d="M1078.39,1320.72h-13.32v-38.28h13.32Zm-9.32-4h5.32v-30.28h-5.32Z"/><path class="cls-2" d="M411.1,907.65,392.26,894l-18.84,13.69,7.19-22.15-18.83-13.68h23.28l7.2-22.15,7.19,22.15h23.29L403.9,885.5Zm-37-31.83L385.32,884,381,897.18,392.26,889l11.23,8.15L399.2,884l11.23-8.15H396.55l-4.29-13.21L388,875.82Z"/><text class="cls-13" transform="translate(470.51 904.64)">！</text><text class="cls-13" transform="translate(586.65 905.05)">？</text><path class="cls-2" d="M850.22,907.27l-11.34-2.62,4.3-17L834,885.52l23.28-34.77L863,892.2l-8.82-2Zm-6.46-5.6,3.46.8,3.95-17.1,7.07,1.63-3.46-25.27-14.2,21.19,7.47,1.73Z"/><path class="cls-2" d="M988.22,908.82H942.9V850.08h35.53l9.79,7.59Zm-41.32-4h37.32V859.63l-7.16-5.55H946.9Z"/><polygon class="cls-2" points="986.72 862.23 974.4 862.23 973.97 852.17 977.97 852 978.24 858.23 986.72 858.23 986.72 862.23"/><rect class="cls-2" x="963.61" y="868.82" width="4" height="23.34"/><rect class="cls-2" x="953.94" y="878.49" width="23.34" height="4"/><path class="cls-2" d="M416.42,1059.09H366.34a14,14,0,0,1-14-14V995a14,14,0,0,1,14-14h50.08a14,14,0,0,1,14,14v50.08A14,14,0,0,1,416.42,1059.09ZM366.34,985a10,10,0,0,0-10,10v50.08a10,10,0,0,0,10,10h50.08a10,10,0,0,0,10-10V995a10,10,0,0,0-10-10Z"/><path class="cls-2" d="M301.09,1059.09H251a14,14,0,0,1-14-14V995a14,14,0,0,1,14-14h50.08a14,14,0,0,1,14,14v50.08A14,14,0,0,1,301.09,1059.09ZM251,985a10,10,0,0,0-10,10v50.08a10,10,0,0,0,10,10h50.08a10,10,0,0,0,10-10V995a10,10,0,0,0-10-10Z"/><path class="cls-2" d="M185,1059.09H134.91a14,14,0,0,1-14-14V995a14,14,0,0,1,14-14H185a14,14,0,0,1,14,14v50.08A14,14,0,0,1,185,1059.09ZM134.91,985a10,10,0,0,0-10,10v50.08a10,10,0,0,0,10,10H185a10,10,0,0,0,10-10V995a10,10,0,0,0-10-10Z"/><path class="cls-2" d="M416.42,1059.09H366.34a14,14,0,0,1-14-14V995a14,14,0,0,1,14-14h50.08a14,14,0,0,1,14,14v50.08A14,14,0,0,1,416.42,1059.09ZM366.34,985a10,10,0,0,0-10,10v50.08a10,10,0,0,0,10,10h50.08a10,10,0,0,0,10-10V995a10,10,0,0,0-10-10Z"/><path class="cls-2" d="M301.09,1059.09H251a14,14,0,0,1-14-14V995a14,14,0,0,1,14-14h50.08a14,14,0,0,1,14,14v50.08A14,14,0,0,1,301.09,1059.09ZM251,985a10,10,0,0,0-10,10v50.08a10,10,0,0,0,10,10h50.08a10,10,0,0,0,10-10V995a10,10,0,0,0-10-10Z"/><path class="cls-2" d="M185,1059.09H134.91a14,14,0,0,1-14-14V995a14,14,0,0,1,14-14H185a14,14,0,0,1,14,14v50.08A14,14,0,0,1,185,1059.09ZM134.91,985a10,10,0,0,0-10,10v50.08a10,10,0,0,0,10,10H185a10,10,0,0,0,10-10V995a10,10,0,0,0-10-10Z"/><path class="cls-2" d="M273.79,1019.71a13,13,0,1,1,13-13A13,13,0,0,1,273.79,1019.71Zm0-22.05a9,9,0,1,0,9,9A9,9,0,0,0,273.79,997.66Z"/><path class="cls-2" d="M298,1045.12h-4c0-7.5-8.22-16.57-18.44-16.57-10.07,0-18.71,9.11-18.71,16.57h-4c0-9.31,10.13-20.57,22.71-20.57S298,1035.61,298,1045.12Z"/><rect class="cls-2" x="252.8" y="1045.12" width="45.16" height="4"/><path class="cls-2" d="M391.05,1019.71a13,13,0,1,1,13-13A13,13,0,0,1,391.05,1019.71Zm0-22.05a9,9,0,1,0,9,9A9,9,0,0,0,391.05,997.66Z"/><path class="cls-2" d="M415.21,1045.12h-4c0-7.5-8.23-16.57-18.44-16.57s-18.71,9.11-18.71,16.57h-4c0-9.31,10.13-20.57,22.71-20.57S415.21,1035.61,415.21,1045.12Z"/><rect class="cls-2" x="370.06" y="1045.12" width="45.16" height="4"/><path class="cls-2" d="M159,1019.71a13,13,0,1,1,13-13A13,13,0,0,1,159,1019.71Zm0-22.05a9,9,0,1,0,9,9A9,9,0,0,0,159,997.66Z"/><path class="cls-2" d="M183.16,1045.12h-4c0-7.5-8.23-16.57-18.44-16.57S142,1037.66,142,1045.12h-4c0-9.31,10.13-20.57,22.71-20.57S183.16,1035.61,183.16,1045.12Z"/><rect class="cls-2" x="138.01" y="1045.12" width="45.16" height="4"/><rect class="cls-2" x="263.31" y="1001.07" width="12.37" height="1" transform="translate(-462.39 266.65) rotate(-29.82)"/><rect class="cls-2" x="277.72" y="995.21" width="1" height="12.37" transform="translate(-740.62 796) rotate(-63.08)"/><path class="cls-2" d="M266.41,1002.28a32.89,32.89,0,0,1,6.21-3.33c2.69-.85,5.65,1.31,8,2.55,1.7.91,3.22-1.68,1.51-2.59-2.38-1.28-5.72-3.79-8.6-3.42s-6.1,2.72-8.59,4.19a1.5,1.5,0,0,0,1.51,2.6Z"/><path class="cls-2" d="M274,999a41.25,41.25,0,0,0,8.29,4c1.82.65,2.61-2.25.8-2.89a37.31,37.31,0,0,1-7.58-3.73c-1.63-1-3.14,1.56-1.51,2.59Z"/><path class="cls-2" d="M265.38,1003.68c2.8-.87,4.61-3.52,7.41-4.25a1.51,1.51,0,0,0-.8-2.9c-2.88.76-4.63,3.39-7.4,4.26-1.84.57-1.06,3.47.79,2.89Z"/><path class="cls-2" d="M505.66,1017.71a13,13,0,1,1,13-13A13,13,0,0,1,505.66,1017.71Zm0-22.05a9,9,0,1,0,9,9A9,9,0,0,0,505.66,995.66Z"/><path class="cls-2" d="M529.82,1043.12h-4c0-7.5-8.22-16.57-18.44-16.57-10.07,0-18.71,9.11-18.71,16.57h-4c0-9.31,10.13-20.57,22.71-20.57S529.82,1033.61,529.82,1043.12Z"/><rect class="cls-2" x="484.67" y="1043.12" width="45.16" height="4"/><rect class="cls-2" x="499.13" y="987.25" width="4" height="28.91" transform="translate(-507.36 1489.05) rotate(-89.21)"/><path class="cls-2" d="M618.41,1298.56a13,13,0,1,1,13-13A13,13,0,0,1,618.41,1298.56Zm0-22a9,9,0,1,0,9,9A9,9,0,0,0,618.41,1276.51Z"/><path class="cls-2" d="M642.57,1324h-4c0-7.5-8.23-16.57-18.44-16.57s-18.71,9.11-18.71,16.57h-4c0-9.32,10.13-20.57,22.71-20.57S642.57,1314.46,642.57,1324Z"/><rect class="cls-2" x="597.42" y="1323.97" width="45.16" height="4"/><path class="cls-2" d="M733.41,1298.56a13,13,0,1,1,13-13A13,13,0,0,1,733.41,1298.56Zm0-22a9,9,0,1,0,9,9A9,9,0,0,0,733.41,1276.51Z"/><path class="cls-2" d="M757.57,1324h-4c0-7.5-8.23-16.57-18.44-16.57s-18.71,9.11-18.71,16.57h-4c0-9.32,10.13-20.57,22.71-20.57S757.57,1314.46,757.57,1324Z"/><rect class="cls-2" x="712.42" y="1323.97" width="45.16" height="4"/><rect class="cls-2" x="39.99" y="1001.42" width="30.65" height="45.53"/><rect class="cls-2" x="601.94" y="1007.86" width="36.79" height="4.35" rx="2.17"/><rect class="cls-2" x="601.94" y="1017.18" width="36.79" height="4.35" rx="2.17"/><rect class="cls-2" x="601.94" y="1026.64" width="36.79" height="4.35" rx="2.17"/><polygon class="cls-2" points="762.45 1045.76 707.7 1045.76 707.7 1033.84 712.7 1033.84 712.7 1040.76 757.43 1040.76 757.42 1037.85 762.42 1037.83 762.45 1045.76"/><rect class="cls-2" x="732.57" y="991.43" width="5" height="42.62"/><polygon class="cls-2" points="735.07 1039.44 719.52 1025.26 722.88 1021.56 735.07 1032.67 747.26 1021.56 750.63 1025.26 735.07 1039.44"/><path class="cls-2" d="M530.72,1328.69H481.91v-53.33h48.81Zm-44.81-4h40.81v-45.33H485.91Z"/><rect class="cls-2" x="478.63" y="1311.39" width="12.85" height="4"/><rect class="cls-2" x="478.63" y="1300.03" width="12.85" height="4"/><rect class="cls-2" x="478.63" y="1288.66" width="12.85" height="4"/><path class="cls-2" d="M507.08,1302.13a7.62,7.62,0,1,1,7.62-7.62A7.63,7.63,0,0,1,507.08,1302.13Zm0-12.24a4.62,4.62,0,1,0,4.62,4.62A4.63,4.63,0,0,0,507.08,1289.89Z"/><path class="cls-2" d="M520.88,1315.86h-3c0-4-4.56-8.81-9.87-8.81s-10,4.84-10,8.81h-3c0-5.46,5.69-11.81,13-11.81S520.88,1310.4,520.88,1315.86Z"/><rect class="cls-2" x="494.99" y="1315.47" width="25.87" height="3"/><path class="cls-2" d="M179.76,1331.52H140.23v-56.76h39.53Zm-35.53-4h31.53v-48.76H144.23Z"/><path class="cls-2" d="M411.17,1331.52H371.63v-60h39.54Zm-35.54-4h31.54v-52H375.63Z"/><rect class="cls-2" x="397.98" y="1294.68" width="11.63" height="35.01"/><rect class="cls-2" x="373.63" y="1294.68" width="11.63" height="35.01"/><rect class="cls-2" x="374.78" y="1293.87" width="33.08" height="4"/><rect class="cls-2" x="149.07" y="1295.41" width="21.26" height="3.01" rx="1.5"/><rect class="cls-2" x="149.07" y="1301.85" width="21.26" height="3.01" rx="1.5"/><rect class="cls-2" x="149.07" y="1308.39" width="21.26" height="3.01" rx="1.5"/><rect class="cls-2" x="148.26" y="1271.34" width="4" height="10.06"/><rect class="cls-2" x="158.31" y="1271.34" width="4" height="10.06"/><rect class="cls-2" x="168.36" y="1271.34" width="4" height="10.06"/><path class="cls-2" d="M64.34,1290a27,27,0,0,0-2.3-6c-1.15-1.94-1.87-2.45-5.83-2.45H49v35.07c0,5.62.57,6.41,7.41,6.84v2h-21v-2c6.7-.43,7.27-1.15,7.27-6.84V1281.6H36.19c-4,0-5.11.43-6.34,2.59a33.05,33.05,0,0,0-2.37,5.84H25.32c.43-4.39.86-8.93,1.08-13h1.65c1.08,1.72,1.87,1.65,3.89,1.65H60.46c2,0,2.59-.28,3.67-1.65h1.73c0,3.38.28,8.57.64,12.74Z"/><rect class="cls-2" x="855.54" y="1033.22" width="21.51" height="4"/><rect class="cls-2" x="855.54" y="1003.01" width="21.51" height="4"/><rect class="cls-2" x="823.04" y="1033.89" width="21.51" height="4" transform="translate(-488.27 892.99) rotate(-45)"/><rect class="cls-2" x="831.53" y="1025.35" width="4" height="20.53" transform="translate(-488.16 892.76) rotate(-45)"/><rect class="cls-2" x="822.77" y="1003.01" width="21.5" height="4"/><rect class="cls-2" x="831.53" y="994.36" width="4" height="20.53"/><circle class="cls-2" cx="866" cy="1042.46" r="2.7"/><circle class="cls-2" cx="866" cy="1027.62" r="2.7"/><path class="cls-2" d="M1080.65,1048a24.52,24.52,0,1,1,24.52-24.52A24.54,24.54,0,0,1,1080.65,1048Zm0-45a20.52,20.52,0,1,0,20.52,20.51A20.53,20.53,0,0,0,1080.65,1002.92Z"/><polygon class="cls-2" points="1096.51 1026.87 1078.22 1026.87 1078.22 1009.35 1082.22 1009.35 1082.22 1022.87 1096.51 1022.87 1096.51 1026.87"/><path class="cls-2" d="M965.56,1048A27.43,27.43,0,1,1,993,1020.53,27.45,27.45,0,0,1,965.56,1048Zm0-50.85A23.43,23.43,0,1,0,989,1020.53,23.45,23.45,0,0,0,965.56,997.1Z"/><polygon class="cls-2" points="983.46 1024.15 963.07 1024.15 963.07 1004.63 967.07 1004.63 967.07 1020.15 983.46 1020.15 983.46 1024.15"/><rect class="cls-2" x="1071.23" y="990.42" width="18.95" height="4"/><rect class="cls-2" x="1078.65" y="992.42" width="4" height="9.5"/><path class="cls-2" d="M63,1188H25.83v-27.15l37.15,0Zm-33.15-4H59v-19.16H29.83Z"/><polygon class="cls-2" points="40.21 1173.54 34.42 1179.8 46 1179.8 40.21 1173.54"/><path class="cls-2" d="M49.43,1181.3H31l9.22-10Zm-11.58-3h4.71l-2.35-2.55Z"/><polygon class="cls-2" points="48.57 1172.15 42.79 1179.8 54.36 1179.8 48.57 1172.15"/><path class="cls-2" d="M57.38,1181.3H39.77l8.8-11.64Zm-11.58-3h5.55l-2.78-3.67Z"/><circle class="cls-2" cx="36.7" cy="1170.53" r="1.73"/><rect class="cls-2" x="971.76" y="1129.59" width="13.8" height="25.38" rx="4.71" transform="translate(880.7 -358.71) rotate(36.85)"/><rect class="cls-2" x="970.18" y="1138.43" width="4" height="25.09" transform="translate(-528.68 1282.5) rotate(-54.82)"/><polygon class="cls-2" points="946.58 1193.58 938.7 1187.88 943.64 1182.06 946.44 1174.01 966.18 1146.75 969.42 1149.09 950.02 1175.88 947.17 1184.08 944.55 1187.17 945.84 1188.11 948.49 1184.81 955.16 1179.66 974.71 1152.66 977.95 1155.01 958.06 1182.47 951.31 1187.68 946.58 1193.58"/><rect class="cls-2" x="1056.01" y="1131.81" width="45.7" height="15.98"/><polygon class="cls-2" points="1079.01 1165.27 1077.01 1165.27 1077.01 1156.79 1107.78 1150.5 1107.78 1140.8 1095.31 1140.8 1095.31 1138.8 1109.78 1138.8 1109.78 1152.13 1079.01 1158.43 1079.01 1165.27"/><path class="cls-2" d="M1082.37,1193.75h-9v-29h9Zm-6-3h3v-23h-3Z"/><text class="cls-12" transform="translate(240.29 1188.51)">×</text><path class="cls-2" d="M505.84,1189.85a25.31,25.31,0,1,1,25.32-25.31A25.34,25.34,0,0,1,505.84,1189.85Zm0-46.62a21.31,21.31,0,1,0,21.32,21.31A21.33,21.33,0,0,0,505.84,1143.23Z"/><polygon class="cls-2" points="522.26 1168.03 503.4 1168.03 503.4 1149.96 507.4 1149.96 507.4 1164.03 522.26 1164.03 522.26 1168.03"/><path class="cls-2" d="M530.67,1148.5l-16.47-11.27.53-1.15a6.89,6.89,0,0,1,4.13-3.19,10.7,10.7,0,0,1,8.31.4,9.82,9.82,0,0,1,4.91,5.82,10.32,10.32,0,0,1-.62,7.89Zm-12.3-12.06,11,7.55a7.53,7.53,0,0,0-.18-4,6.85,6.85,0,0,0-3.39-4.06,7.84,7.84,0,0,0-6-.25A6.38,6.38,0,0,0,518.37,1136.44Z"/><path class="cls-2" d="M480.6,1149l-.79-1.5a10.32,10.32,0,0,1-.61-7.89,9.74,9.74,0,0,1,4.9-5.82,10.77,10.77,0,0,1,8.32-.41,7,7,0,0,1,4.12,3.19l.53,1.15Zm8.07-13.25a7.18,7.18,0,0,0-3.22.72,6.8,6.8,0,0,0-3.4,4.06,7.53,7.53,0,0,0-.18,4l11-7.55a6.38,6.38,0,0,0-1.48-.72A8.2,8.2,0,0,0,488.67,1135.72Z"/><path class="cls-2" d="M183.69,1185.34H135.36V1137h48.33Zm-44.33-4h40.33V1141H139.36Z"/><rect class="cls-2" x="149.4" y="1152.62" width="21.26" height="3.01" rx="1.5"/><rect class="cls-2" x="149.4" y="1159.06" width="21.26" height="3.01" rx="1.5"/><rect class="cls-2" x="149.4" y="1165.6" width="21.26" height="3.01" rx="1.5"/><path class="cls-2" d="M270.92,1325.46l-16.59-11.53,31.72-45.64,16.59,11.53Zm-11-12.53,10,7,27.16-39.07-10-7Z"/><polygon class="cls-2" points="251.51 1335.23 254.39 1313.96 258.36 1314.5 256.5 1328.16 268.89 1321.79 270.72 1325.34 251.51 1335.23"/><polygon class="cls-2" points="254.65 1331.07 254.2 1319.84 265.34 1327.58 254.65 1331.07"/><rect class="cls-2" x="252.29" y="1295.09" width="52.1" height="4" transform="translate(-945.55 785.22) rotate(-55.19)"/><path class="cls-2" d="M382.94,1184.56a26.21,26.21,0,1,1,20.2-.71l-1.68-3.64a22.21,22.21,0,1,0-17.11.61Z"/><polygon class="cls-2" points="392.51 1182.22 403.41 1188.51 403.41 1175.92 392.51 1182.22"/><path class="cls-2" d="M403.79,1004.13c-.46-.5-.46-.5-.63-1.67-.07-.53-.65-.75-1-1a30.18,30.18,0,0,0-2.39-3.79c-1.15-1.53-3.75,0-2.6,1.52l.44.6-.27-.11a22.93,22.93,0,0,1-2.84-1.7,3.59,3.59,0,0,0-.2-.86c1.13-.55,1.36-2.48-.17-2.77-3.29-.61-5.46-1-9.67.92a9.08,9.08,0,0,0-3.22,2.64,15,15,0,0,0-4.47,11c.17,3.11-.08,5.79,2.36,8,1.31,1.16,3.76,3.14,5.51,1.88a1.52,1.52,0,0,0,0-2.59c-4.07-2.58-3.46-6.27-3-10.08a2.45,2.45,0,0,0,.39,0,15.59,15.59,0,0,0,7.15-1.67,16.81,16.81,0,0,0,1.72-1,16.18,16.18,0,0,0,10.05,2.78,21.75,21.75,0,0,1,.61,2.31A13.49,13.49,0,0,1,402,1013a1.57,1.57,0,0,0-1.43,1.87s0,0,0,.07a11.58,11.58,0,0,1-2,.61c-.39,0-.72,0-.81,0a1.51,1.51,0,0,0-.4,3,5.27,5.27,0,0,0,4.16-.44,2.79,2.79,0,0,0,1.69-1.2,5.43,5.43,0,0,0,1.74-3.15A19.49,19.49,0,0,0,403.79,1004.13Zm-20-3.13a11.55,11.55,0,0,1-1.32.11,1.45,1.45,0,0,0,.15-.65,1.12,1.12,0,0,1,.11-.47,5.71,5.71,0,0,1,1.57-.66A2.32,2.32,0,0,0,383.78,1001Z"/><path class="cls-2" d="M721.53,906.37l-4.62-10.63h-8.68V859.68H762.6v36.06H726Zm-9.3-14.63h7.3l1.94,4.45,1.86-4.45H758.6V863.68H712.23Z"/><rect class="cls-2" x="743.01" y="875.56" width="4.82" height="4.82"/><rect class="cls-2" x="732.49" y="875.56" width="4.82" height="4.82"/><rect class="cls-2" x="740.5" y="1282.62" width="21.5" height="4"/><rect class="cls-2" x="627.82" y="1282.62" width="21.5" height="4"/><rect class="cls-2" x="636.57" y="1273.98" width="4" height="20.53"/><polygon class="cls-2" points="612.72 1176.12 601.04 1166.77 603.54 1163.64 612.44 1170.78 635.96 1147.56 638.77 1150.41 612.72 1176.12"/><rect class="cls-2" x="1070.38" y="713.53" width="36.65" height="50.94"/><circle class="cls-3" cx="1078.29" cy="743.56" r="2.36"/><circle class="cls-3" cx="1098.92" cy="743.56" r="2.36"/><circle class="cls-3" cx="1092.03" cy="743.56" r="2.36"/><circle class="cls-3" cx="1085.45" cy="743.56" r="2.36"/><rect class="cls-2" x="1070.38" y="713.53" width="36.65" height="50.94"/><circle class="cls-3" cx="1088.71" cy="733.88" r="2.36"/><circle class="cls-3" cx="1098.92" cy="733.88" r="2.36"/><circle class="cls-3" cx="1092.03" cy="733.88" r="2.36"/><circle class="cls-3" cx="1085.45" cy="733.88" r="2.36"/><rect class="cls-2" x="1070.38" y="713.53" width="36.65" height="50.94"/><rect class="cls-3" x="1075.94" y="717.47" width="25.73" height="8.44"/><circle class="cls-3" cx="1078.16" cy="733.9" r="2.03"/><circle class="cls-3" cx="1078.16" cy="753.73" r="2.03"/><circle class="cls-3" cx="1087.8" cy="753.71" r="2.36"/><circle class="cls-3" cx="1097.85" cy="753.71" r="2.36"/><circle class="cls-3" cx="1078.16" cy="743.58" r="2.03"/><circle class="cls-3" cx="1087.8" cy="743.56" r="2.36"/><circle class="cls-3" cx="1097.85" cy="743.56" r="2.36"/><circle class="cls-3" cx="1078.16" cy="733.9" r="2.03"/><circle class="cls-3" cx="1087.8" cy="733.88" r="2.36"/><circle class="cls-3" cx="1097.85" cy="733.88" r="2.36"/><text class="cls-10" transform="translate(33 814.61)">英語</text><text class="cls-10" transform="translate(142.33 814.61)">日本語</text><text class="cls-10" transform="translate(257.67 814.61)">ホーム</text><text class="cls-10" transform="translate(367 814.61)">ファイル</text><text class="cls-10" transform="translate(482.33 814.61)">電波強度</text><text class="cls-10" transform="translate(603.67 814.61)">メール</text><text class="cls-10" transform="translate(725 814.61)">画像</text><text class="cls-10" transform="translate(834.33 814.61)">カメラ</text><text class="cls-10" transform="translate(955.67 814.61)">音楽</text><text class="cls-10" transform="translate(1071 814.61)">電話</text><text class="cls-10" transform="translate(33 953.1)">動画</text><text class="cls-10" transform="translate(148.33 953.1)">拡大</text><text class="cls-10" transform="translate(263.67 953.1)">縮小</text><text class="cls-10" transform="translate(361 953.1)">お気に入り</text><text class="cls-10" transform="translate(494.33 953.1)">注意</text><text class="cls-10" transform="translate(603.67 953.1)">ヘルプ</text><text class="cls-10" transform="translate(713 953.1)">チャット</text><text class="cls-10" transform="translate(840.33 953.1)">検索</text><text class="cls-10" transform="translate(937.67 953.1)">新規ページ</text><text class="cls-10" transform="translate(1065 953.1)">コピー</text><text class="cls-10" transform="translate(21 1093.6)">ペースト</text><text class="cls-10" transform="translate(124.33 1093.6)">プロフィール</text><text class="cls-10" transform="translate(263.67 1093.6)">男性</text><text class="cls-10" transform="translate(379 1093.6)">女性</text><text class="cls-10" transform="translate(494.33 1093.6)">子供</text><text class="cls-10" transform="translate(597.67 1093.6)">メニュー</text><text class="cls-10" transform="translate(701 1093.6)">ダウンロード</text><text class="cls-10" transform="translate(840.33 1093.6)">電卓</text><text class="cls-10" transform="translate(955.67 1093.6)">履歴</text><text class="cls-10" transform="translate(1059 1093.6)">タイマー</text><text class="cls-10" transform="translate(21 1232.09)">アイコン</text><text class="cls-10" transform="translate(142.33 1232.09)">リスト</text><text class="cls-10" transform="translate(251.67 1232.09)">更新中止</text><text class="cls-10" transform="translate(379 1232.09)">更新</text><text class="cls-10" transform="translate(482.33 1232.09)">アラーム</text><text class="cls-10" transform="translate(597.67 1232.09)">チェック</text><text class="cls-10" transform="translate(707 1232.09)">パスワード</text><text class="cls-10" transform="translate(834.33 1232.09)">ゴミ箱</text><text class="cls-10" transform="translate(943.67 1232.09)">スポイト</text><text class="cls-10" transform="translate(1053 1232.09)">塗りつぶし</text><text class="cls-10" transform="translate(21 1374.58)">テキスト</text><text class="cls-10" transform="translate(148.33 1374.58)">メモ</text><text class="cls-10" transform="translate(263.67 1374.58)">ペン</text><text class="cls-10" transform="translate(367 1374.58)">消しゴム</text><text class="cls-10" transform="translate(488.33 1374.58)">連絡先</text><text class="cls-10" transform="translate(597.67 1374.58)">友達追加</text><text class="cls-10" transform="translate(713 1374.58)">友達削除</text><text class="cls-10" transform="translate(840.33 1374.58)">再生</text><text class="cls-10" transform="translate(949.67 1374.58)">早送り</text><text class="cls-10" transform="translate(1059 1374.58)">一時停止</text><text class="cls-14" transform="translate(713.14 1179.47)">***</text></svg>