<svg id="レイヤー_1" data-name="レイヤー 1" xmlns="http://www.w3.org/2000/svg" viewBox="0 0 1134.91 1397.78"><defs><style>.cls-1,.cls-3,.cls-4{fill:#231815;}.cls-2{fill:#040000;}.cls-3{stroke:#231815;stroke-miterlimit:10;}.cls-4{font-size:12px;font-family:KozGoPro-Regular-90ms-RKSJ-H, Kozuka Gothic Pro;}.cls-5{letter-spacing:0.25em;}</style></defs><title>kimura</title><path class="cls-1" d="M539.1,337.8v9.45l-1.1,1.14c-.38.4-9.6,9.77-27.82,10.2h-1.12a46.38,46.38,0,0,1-29-10l-1.32-1.17V337.8c-8.8,3.63-14.31,8.83-14.31,14.6,0,11,19.92,19.88,44.5,19.88s44.5-8.9,44.5-19.88C553.41,346.63,547.89,341.43,539.1,337.8Z"/><path class="cls-1" d="M654.1,337.8v9.45l-1.1,1.14c-.38.4-9.6,9.77-27.82,10.2h-1.12a46.38,46.38,0,0,1-29-10l-1.32-1.17V337.8c-8.8,3.63-14.31,8.83-14.31,14.6,0,11,19.92,19.88,44.5,19.88s44.5-8.9,44.5-19.88C668.41,346.63,662.89,341.43,654.1,337.8Z"/><path class="cls-1" d="M884.1,478.3v9.45l-1.1,1.14c-.38.4-9.6,9.77-27.82,10.2h-1.12a46.38,46.38,0,0,1-29-10l-1.32-1.17V478.3c-8.8,3.63-14.31,8.83-14.31,14.6,0,11,19.92,19.88,44.5,19.88s44.5-8.9,44.5-19.88C898.41,487.13,892.89,481.93,884.1,478.3Z"/><path class="cls-1" d="M182.87,632.05V638l-.69.72c-.24.25-6,6.13-17.47,6.4H164a29.19,29.19,0,0,1-18.23-6.27l-.83-.74v-6.05c-5.52,2.28-9,5.54-9,9.17,0,6.89,12.52,12.48,28,12.48s28-5.59,28-12.48C191.86,637.59,188.4,634.33,182.87,632.05Z"/><path class="cls-1" d="M269.77,588.94V570.22s1.73-2.77,9.14-2.77,9.13,2.77,9.13,2.77v18.72s-2.88,3-8.72,3.13A14.81,14.81,0,0,1,269.77,588.94Z"/><path class="cls-1" d="M289.4,586.47v3.28l-.38.4c-.13.13-3.34,3.39-9.67,3.54H279a16.13,16.13,0,0,1-10.09-3.48l-.46-.4v-3.35c-3.06,1.26-5,3.07-5,5.07,0,3.82,6.93,6.91,15.48,6.91s15.47-3.09,15.47-6.91C294.38,589.54,292.46,587.73,289.4,586.47Z"/><path class="cls-1" d="M999.1,478.3v9.45l-1.1,1.14c-.38.4-9.6,9.77-27.82,10.2h-1.12a46.38,46.38,0,0,1-29-10l-1.32-1.17V478.3c-8.8,3.63-14.31,8.83-14.31,14.6,0,11,19.92,19.88,44.5,19.88s44.5-8.9,44.5-19.88C1013.41,487.13,1007.89,481.93,999.1,478.3Z"/><path class="cls-1" d="M423,335.81v9.09l-1,1.1c-.37.38-9.24,9.4-26.77,9.82h-1.08a44.7,44.7,0,0,1-27.94-9.62l-1.27-1.12v-9.28c-8.47,3.5-13.78,8.5-13.78,14.05,0,10.57,19.18,19.13,42.84,19.13s42.83-8.56,42.83-19.13C436.74,344.31,431.43,339.31,423,335.81Z"/><path class="cls-1" d="M397.21,24.84c-12.92-7.88-24.08-2.55-26.72,0s-8.32,10.66,1.27,18.08c-17.61,0-19.18-9.89-19.18-9.89V58.37s1.57-9.89,19.18-9.89c-9.59,7.42-3.91,15.53-1.27,18.08s13.8,7.88,26.72,0,15-20.86,22-20.86C412.18,45.7,410.13,32.72,397.21,24.84Z"/><path class="cls-1" d="M857.51,19.15c-3,4.83-1,9,0,10s4,3.11,6.77-.48c0,6.6-3.7,7.18-3.7,7.18h9.49s-3.71-.58-3.71-7.18c2.78,3.59,5.82,1.47,6.77.48s3-5.17,0-10-7.81-5.61-7.81-8.24C865.32,13.54,860.46,14.31,857.51,19.15Z"/><path class="cls-1" d="M64,17.91c-17.22-10.5-32.08-3.4-35.6,0S17.28,32.11,30.06,42C6.59,42,4.5,28.82,4.5,28.82V62.58S6.59,49.41,30.06,49.41c-12.78,9.88-5.21,20.69-1.69,24.08S46.75,84,64,73.49s20-27.79,29.34-27.79C83.92,45.7,81.18,28.41,64,17.91ZM41.2,60.61V30.8L67,45.7Z"/><path class="cls-1" d="M170.43,21.5c-15-9.14-27.92-2.95-31,0s-9.65,12.37,1.48,21C120.48,42.48,118.66,31,118.66,31V60.4s1.82-11.47,22.26-11.47c-11.13,8.6-4.55,18-1.48,21s16,9.14,31,0S187.8,45.7,196,45.7C187.8,45.7,185.42,30.65,170.43,21.5ZM155.68,55.05h-4.5V36.35h4.5Zm9.62,0h-4.5V36.35h4.5Z"/><rect class="cls-1" x="198.66" y="13.54" width="10.13" height="64.33"/><path class="cls-1" d="M294,17.91c-17.22-10.5-32.08-3.4-35.6,0S247.28,32.11,260.06,42c-23.47,0-25.56-13.18-25.56-13.18V62.58s2.09-13.17,25.56-13.17c-12.78,9.88-5.21,20.69-1.69,24.08s18.38,10.5,35.6,0S313.92,45.7,323.31,45.7C313.92,45.7,311.18,28.41,294,17.91Zm.27,39.29h-24v-24h24Z"/><polygon class="cls-2" points="413.01 73.37 411.46 72.14 433.45 45.7 411.46 19.27 413.01 18.04 436.03 45.7 413.01 73.37"/><path class="cls-1" d="M554.58,54V37.37l-13.66-.93v.05c-.06-.2-.13-.4-.2-.6s-.19-.61-.29-.92-.25-.7-.38-1-.25-.65-.38-1-.27-.64-.41-1l-.48-1c-.14-.29-.29-.58-.44-.86s-.18-.38-.29-.56l0,0,9-10.33L535.31,7.51l-10.32,9,0,0-.58-.29-.79-.41-1.08-.51L521.7,15c-.34-.14-.69-.28-1.05-.41s-.63-.24-1-.35l-1-.33-.53-.17h0L517.24,0H500.58l-.93,13.66h0l-.5.16-1.05.34-.93.34c-.36.13-.73.28-1.09.43s-.55.23-.83.36-.75.34-1.12.53l-.76.38-.58.3,0,0-10.32-9L470.72,19.3l9,10.32h0c-.11.19-.2.39-.31.59l-.39.78c-.18.36-.35.73-.52,1.1s-.25.57-.37.86-.29.7-.42,1.06-.23.63-.34,1-.23.68-.33,1c-.06.18-.12.36-.17.54v-.07l-13.67.93V54L476.9,55v-.07c.05.21.13.4.19.61l.3.93c.12.35.25.7.38,1s.24.65.38,1,.27.64.41,1,.31.66.47,1l.45.89c.1.18.19.37.29.56l0-.06-9,10.33L482.5,83.89l10.32-9-.05,0,.5.25c.32.17.64.34,1,.49l.91.44c.35.15.7.31,1.05.45l.87.35,1.15.41.82.26c.21.07.42.15.64.21h0l.93,13.67h16.67l.92-13.67h0l.62-.2.8-.26q.58-.19,1.17-.42l.84-.33c.37-.15.73-.31,1.08-.47s.59-.27.89-.42l1-.5c.15-.08.31-.15.46-.24v0l10.32,9L547.09,72.1l-9-10.33,0,0c.09-.16.16-.33.25-.49l.49-.95c.15-.31.29-.62.43-.93s.31-.68.45-1,.24-.59.35-.89.28-.74.4-1.12.19-.57.28-.86.14-.4.2-.61V55ZM508.91,73.7a28,28,0,1,1,28-28A28,28,0,0,1,508.91,73.7Z"/><path class="cls-1" d="M508.91,49c-9.12,0-16.5,3.81-16.5,8.5s7.38,5.67,16.5,5.67,16.5-1,16.5-5.67S518,49,508.91,49Zm0,11.5c-5.43,0-9.84-1.34-9.84-3s4.41-3,9.84-3,9.83,1.34,9.83,3S514.34,60.45,508.91,60.45Z"/><path class="cls-1" d="M508.91,48a29.51,29.51,0,0,1,9.25,1.41V31.5s-1.75-2.8-9.25-2.8-9.25,2.8-9.25,2.8V49.36A29.46,29.46,0,0,1,508.91,48Z"/><path class="cls-1" d="M623.91,4.7c-9.57,7.78-44.57,28.85-44.89,44.4s15.72,17.51,22.44,13c2.88-2,7.42-4.61,11.66-7L601.46,86.7h14.83V60.31h15.23V86.7h14.83L634.69,55.06c4.24,2.4,8.78,5.06,11.66,7,6.73,4.54,22.77,2.59,22.45-13S633.47,12.48,623.91,4.7Z"/><circle class="cls-1" cx="619.17" cy="73.9" r="1.09"/><path class="cls-1" d="M693.74,15.7v60h90.33v-60Zm32,8.54a7.3,7.3,0,0,1,10.29,0l2.84,2.83,2.83-2.83A7.28,7.28,0,1,1,752,34.53l-2.83,2.83-10.29,10.3-10.3-10.3-2.83-2.83A7.3,7.3,0,0,1,725.78,24.24Zm54,47.19H698V20h.46l40.44,33.38L779.35,20h.45Z"/><path class="cls-1" d="M851.64,37.41h0a5.37,5.37,0,0,0-7.57,0L842,39.5l-2.09-2.09a5.36,5.36,0,0,0-7.56,0h0a5.37,5.37,0,0,0,0,7.57l2.08,2.09L842,54.63l7.57-7.56L851.64,45A5.37,5.37,0,0,0,851.64,37.41Z"/><path class="cls-1" d="M147,444.73h0a3.07,3.07,0,0,0-4.34,0l-1.2,1.2-1.2-1.2a3.07,3.07,0,0,0-4.34,0h0a3.08,3.08,0,0,0,0,4.35l1.19,1.19,4.35,4.35,4.34-4.35,1.2-1.19A3.08,3.08,0,0,0,147,444.73Z"/><path class="cls-1" d="M957.15,293h0a3.37,3.37,0,0,0-4.76,0l-1.32,1.31L949.76,293a3.39,3.39,0,0,0-4.77,0h0a3.39,3.39,0,0,0,0,4.77l1.31,1.31,4.77,4.77,4.77-4.77,1.31-1.31A3.37,3.37,0,0,0,957.15,293Z"/><path class="cls-1" d="M982.05,318.58h0a7.29,7.29,0,0,0-10.3,0l-2.84,2.84-2.84-2.84a7.3,7.3,0,0,0-10.31,0h0a7.31,7.31,0,0,0,0,10.3l2.84,2.84L968.91,342l10.3-10.31,2.84-2.84A7.29,7.29,0,0,0,982.05,318.58Z"/><rect class="cls-1" x="885.07" y="23.7" width="5.17" height="67.78"/><rect class="cls-1" x="862.74" y="35.85" width="5.17" height="55.32"/><rect class="cls-1" x="839.41" y="55.15" width="5.17" height="36.02"/><rect class="cls-1" x="816.19" y="68.28" width="5.17" height="22.89"/><path class="cls-1" d="M278.91,230.34l-31.28-42.52,31.27-45.37,31.28,45.37Zm-26.37-42.59,26.37,35.84,26.36-35.84L278.9,149.5Z"/><path class="cls-1" d="M892.4,6.67A5,5,0,0,0,892.68,5a5,5,0,1,0-10,0,5,5,0,0,0,.28,1.64,5,5,0,0,0,.19,10,5,5,0,0,0,1.81-.34L883.1,23.7h9.11l-1.8-7.33a4.88,4.88,0,0,0,1.8.34,5,5,0,0,0,.19-10Z"/><path class="cls-1" d="M950,3.37,930.36,20.49V87.93h55l22.11-20V3.37Zm35.36,17.12H968.91a11.06,11.06,0,0,1-22.11,0H932.23L950.4,4.54h56.24Z"/><path class="cls-1" d="M69.26,186.05V150.33s-3.85-5.47-20.32-5.47-20.31,5.47-20.31,5.47v35.72H13.73v9.43H84.16v-9.43Z"/><path class="cls-1" d="M67.32,202.37a11.61,11.61,0,0,0-10.81,7.4,8.56,8.56,0,0,0-15.29,0A11.58,11.58,0,1,0,42,214c0-5,3.54-7.21,6.84-7.21S55.7,209,55.7,214a11.62,11.62,0,1,0,11.62-11.62ZM30.41,223.89a9.9,9.9,0,1,1,9.9-9.9A9.91,9.91,0,0,1,30.41,223.89Zm36.91,0a9.9,9.9,0,1,1,9.9-9.9A9.91,9.91,0,0,1,67.32,223.89Z"/><path class="cls-1" d="M197.72,151.06V142H173v39.68a13.49,13.49,0,0,0-7.14,3.74l-5.3,5.29-5.29-5.29a13.62,13.62,0,0,0-19.22,0h0a13.62,13.62,0,0,0,0,19.22l5.29,5.29,19.22,19.22,19.22-19.22,5.3-5.29a13.64,13.64,0,0,0,0-19.22h0a13.51,13.51,0,0,0-7.57-3.8V151.06Z"/><path class="cls-1" d="M1083.91,9.45c-24.94,0-45.15,8.23-45.15,18.38,0,6,7,11.28,17.84,14.64v35s5.17,8.27,27.31,8.27,27.3-8.27,27.3-8.27v-35c10.84-3.36,17.84-8.66,17.84-14.64C1129.05,17.68,1108.84,9.45,1083.91,9.45Zm0,69.31a17.47,17.47,0,0,1-17-13.56h-2.1l5.12-7.89L1075,65.2h-2.42a11.95,11.95,0,0,0,22.59,0h5.73A17.47,17.47,0,0,1,1083.91,78.76ZM1098,65.2l-5.13-7.89h2.33a12,12,0,0,0-22.57,0h-5.73a17.47,17.47,0,0,1,34,0h2.19ZM1083.91,35c-13.59,0-24.6-3.51-24.6-7.84s11-7.84,24.6-7.84,24.59,3.51,24.59,7.84S1097.49,35,1083.91,35Z"/><path class="cls-1" d="M286.66,178.4a10.55,10.55,0,0,0-7.75,3.16,10.58,10.58,0,0,0-7.75-3.16c-5.38,0-9.75,3.59-9.75,8s4.37,8,9.75,8a10.59,10.59,0,0,0,7.75-3.17,10.55,10.55,0,0,0,7.75,3.17c5.37,0,9.75-3.59,9.75-8S292,178.4,286.66,178.4Zm-15.5,12c-3.12,0-5.75-1.84-5.75-4s2.63-4,5.75-4,5.75,1.83,5.75,4S274.27,190.4,271.16,190.4Zm15.5,0c-3.12,0-5.75-1.84-5.75-4s2.63-4,5.75-4,5.75,1.83,5.75,4S289.77,190.4,286.66,190.4Z"/><polygon class="cls-1" points="818.77 68.39 827.99 56.38 818.77 44.37 809.56 56.38 818.77 68.39"/><polygon class="cls-1" points="394.91 166.47 404.12 154.46 394.91 142.45 385.69 154.46 394.91 166.47"/><polygon class="cls-1" points="520.19 188.6 516.38 189.81 527.78 225.69 510.16 225.69 508.99 225.69 491.37 225.69 502.76 189.81 498.95 188.6 485.9 229.69 508.99 229.69 510.16 229.69 533.25 229.69 520.19 188.6"/><path class="cls-1" d="M515.34,172.94a5.47,5.47,0,0,0-5.23-2.91c-3.88,0-4.91,2.76-4.92,2.78l-3.77-1.34a8.92,8.92,0,0,1,8.69-5.44,9.47,9.47,0,0,1,8.91,5.34Z"/><path class="cls-1" d="M521.33,165.5c-.11-.26-2.9-6.45-11.33-6.45s-10.72,6.09-10.82,6.35l-3.76-1.35c.13-.37,3.34-9,14.58-9s14.87,8.53,15,8.9Z"/><path class="cls-1" d="M527.33,156.49c-.17-.41-4.44-10-17.44-10s-16.67,9.81-16.7,9.91L489.42,155c.18-.51,4.67-12.56,20.47-12.56s20.92,12,21.13,12.47Z"/><path class="cls-1" d="M526.91,195.25l-1.54-3.69.77,1.85-.79-1.84a5.48,5.48,0,0,0,2.91-5.23c0-3.72-2.53-4.82-2.82-4.93l1.37-3.76a8.91,8.91,0,0,1,5.45,8.69A9.48,9.48,0,0,1,526.91,195.25Z"/><path class="cls-1" d="M534.51,201.25,533,197.57c.27-.12,6.46-2.9,6.46-11.33s-6.1-10.73-6.36-10.83l1.36-3.76c.37.13,9,3.35,9,14.59S534.87,201.1,534.51,201.25Z"/><path class="cls-1" d="M542.18,207.25l-1.54-3.69.77,1.85-.78-1.85c.41-.17,10-4.44,10-17.43s-9.8-16.68-9.9-16.71l1.34-3.77c.52.19,12.56,4.67,12.56,20.48S542.69,207,542.18,207.25Z"/><path class="cls-1" d="M492.45,195.29A8.92,8.92,0,0,1,487,186.6a9.47,9.47,0,0,1,5.34-8.91l1.54,3.69-.77-1.84.8,1.83A5.47,5.47,0,0,0,491,186.6c0,3.72,2.52,4.82,2.81,4.93Z"/><path class="cls-1" d="M484.85,201.29c-.36-.13-9-3.34-9-14.58s8.54-14.87,8.9-15l1.55,3.69-.77-1.84.78,1.84c-.26.11-6.46,2.9-6.46,11.33s6.1,10.72,6.36,10.82Z"/><path class="cls-1" d="M477.18,207.29c-.51-.18-12.56-4.67-12.56-20.47s11.95-20.92,12.46-21.13l1.55,3.69-.78-1.84.78,1.84c-.4.17-10,4.44-10,17.44s9.81,16.67,9.91,16.7Z"/><rect class="cls-1" x="387.74" y="168.08" width="14.33" height="62.64"/><rect class="cls-1" x="961.74" y="185.54" width="14.33" height="46.33"/><rect class="cls-1" x="961.74" y="174.69" width="14.33" height="8.18"/><rect class="cls-1" x="649.87" y="149.07" width="13.37" height="8.83" transform="translate(300.83 -419.3) rotate(45)"/><polygon class="cls-1" points="633.37 186.1 654.86 162.94 650.98 159.06 647.11 155.18 623.57 177.01 600.04 155.18 596.16 159.06 592.28 162.94 613.77 186.1 582.74 214.9 588.94 221.1 595.15 227.3 623.57 196.66 652 227.3 658.2 221.1 664.41 214.9 633.37 186.1"/><rect class="cls-1" x="583.9" y="149.07" width="13.37" height="8.83" transform="translate(64.45 462.56) rotate(-45)"/><polygon class="cls-1" points="726.76 163.15 734.99 171.37 741.61 146.63 716.87 153.26 723.83 160.22 693.3 186.45 732.41 220.96 735.14 217.86 699.6 186.49 726.76 163.15"/><polygon class="cls-1" points="783.16 186.47 744.05 151.97 741.31 155.06 776.86 186.43 749.7 209.78 741.47 201.55 734.85 226.29 759.59 219.66 752.63 212.71 783.16 186.47"/><path d="M892.43,155.22h0a21.43,21.43,0,0,0-30.2,0l-8.32,8.32-8.32-8.32a21.44,21.44,0,0,0-30.21,0h0a21.43,21.43,0,0,0,0,30.2l8.32,8.32L853.91,224l30.2-30.21,8.32-8.32A21.43,21.43,0,0,0,892.43,155.22Zm-16,15-29.06,28.08-9.44-13.68a1.27,1.27,0,1,1,2.09-1.44l7.74,11.21,26.9-26a1.27,1.27,0,0,1,1.77,1.83Z"/><path class="cls-1" d="M968.91,142.67a14,14,0,1,0,14,14A14,14,0,0,0,968.91,142.67Zm6.83,15.87h-5.33v5.33h-3v-5.33h-5.34v-3h5.34V150.2h3v5.34h5.33Z"/><rect class="cls-1" x="1076.74" y="185.89" width="14.33" height="46.33"/><rect class="cls-1" x="1076.74" y="175.04" width="14.33" height="8.18"/><rect class="cls-1" x="41.74" y="326.88" width="14.33" height="46.33"/><rect class="cls-1" x="41.74" y="316.03" width="14.33" height="8.18"/><path class="cls-1" d="M1083.91,143a14,14,0,1,0,14,14A14,14,0,0,0,1083.91,143Zm6.83,16h-13.67v-3h13.67Z"/><ellipse class="cls-1" cx="22.02" cy="319.92" rx="9.83" ry="2.5"/><ellipse class="cls-1" cx="48.91" cy="293.17" rx="2.5" ry="9.83"/><ellipse class="cls-1" cx="31.69" cy="300.26" rx="2.5" ry="9.83" transform="translate(-203.03 110.35) rotate(-45)"/><ellipse class="cls-1" cx="65.85" cy="300.26" rx="9.83" ry="2.5" transform="translate(-193.03 134.51) rotate(-45)"/><ellipse class="cls-1" cx="75.68" cy="320.01" rx="9.83" ry="2.5"/><path class="cls-1" d="M181.63,348.61a53.59,53.59,0,0,1-14.25-2c-18.06-5-20.93-22.26-21.39-27.45l-27.05-8.77,10.33-.7c.07,0,7.91-.74,18.84-10l1.49-1.28c9.05-7.72,15-12.82,25.7-7.49,5.84,2.92,7.42,11,9.09,19.58,1.48,7.58,3,15.4,7.51,18,2.9,1.65,5.55,3,7.68,4.14,5.44,2.83,7.93,4.13,8.06,6.43a3.15,3.15,0,0,1-1.62,2.83A45.33,45.33,0,0,1,181.63,348.61Zm-45.35-36.78,13.63,4.42v1.45c0,.81.27,20.05,18.53,25.07,17.95,4.94,30.67-1.37,34.54-3.71-1.13-.76-3.22-1.84-5.25-2.9s-4.85-2.52-7.82-4.22c-6.09-3.48-7.79-12.22-9.44-20.68-1.42-7.24-2.88-14.73-7-16.77-8.3-4.15-12.38-.67-21.31,7l-1.5,1.28A54.21,54.21,0,0,1,136.28,311.83Z"/><rect class="cls-1" x="173.41" y="346.45" width="4" height="20"/><polygon class="cls-1" points="182.18 367.8 175.23 360.22 167.19 366.98 164.62 363.92 175.59 354.69 185.13 365.1 182.18 367.8"/><path class="cls-1" d="M182.39,341.36a55.05,55.05,0,0,1-8.29-.68c-9.15-1.41-13.21-14.51-14.82-22.19l-.07-.31,3.89-1c0,.07.05.22.09.45,2.34,11.18,6.65,18.31,11.52,19.06,8.21,1.26,12.68.31,14.59-.1.31-.06.57-.12.78-.15l.65,3.94-.6.13A35,35,0,0,1,182.39,341.36Z"/><path class="cls-1" d="M160.53,307a5.8,5.8,0,0,1-3.16-.94,10,10,0,0,0-5.29-1.37c-.79,0-.86-.46-.86-.64,0-1.31,8.19-3.4,9.93-3.37a5.58,5.58,0,0,1,3.56,1.85,3.88,3.88,0,0,0,2.32,1.35c.81,0,1,.35,1,.63C168,305.72,162.4,307,160.53,307Zm-7.34-3.25a10.4,10.4,0,0,1,4.66,1.44,5,5,0,0,0,2.68.81,18.19,18.19,0,0,0,5.65-1.26,6.36,6.36,0,0,1-2.14-1.47,4.63,4.63,0,0,0-2.91-1.59C159.37,301.69,155.17,302.94,153.19,303.76Z"/><path class="cls-1" d="M160.72,307c-1.19,0-2.13-1.22-2.13-2.78s.94-2.78,2.13-2.78,2.12,1.22,2.12,2.78S161.91,307,160.72,307Zm0-4.56c-.61,0-1.13.82-1.13,1.78s.52,1.78,1.13,1.78,1.12-.81,1.12-1.78S161.33,302.39,160.72,302.39Z"/><path class="cls-1" d="M299.61,352.25a43.27,43.27,0,0,1-11.47-1.59c-14.35-4-16.87-17.5-17.31-22l-23.15-7.5,10.12-.69s6.21-.6,14.83-7.92l1.19-1c7.33-6.26,12.17-10.39,20.91-6,4.81,2.41,6.15,9.26,7.45,15.89,1.16,6,2.36,12.13,5.81,14.1,2.31,1.32,4.42,2.42,6.12,3.3,4.47,2.33,6.52,3.39,6.63,5.43a2.87,2.87,0,0,1-1.46,2.58A36.48,36.48,0,0,1,299.61,352.25Zm-35.17-29.77,10.22,3.32v1.42c0,.64.23,15.73,14.52,19.66,13.49,3.72,23.23-.6,26.78-2.63-.95-.57-2.36-1.3-3.66-2-1.72-.9-3.87-2-6.25-3.37-5-2.86-6.38-9.92-7.72-16.75-1.11-5.7-2.26-11.58-5.36-13.13-6.41-3.21-9.39-.66-16.61,5.5l-1.2,1A44.53,44.53,0,0,1,264.44,322.48Z"/><path class="cls-1" d="M299.61,352.25a43.27,43.27,0,0,1-11.47-1.59c-14.35-4-16.87-17.5-17.31-22l-23.15-7.5,10.12-.69s6.21-.6,14.83-7.92l1.19-1c7.33-6.26,12.17-10.39,20.91-6,4.81,2.41,6.15,9.26,7.45,15.89,1.16,6,2.36,12.13,5.81,14.1,2.31,1.32,4.42,2.42,6.12,3.3,4.47,2.33,6.52,3.39,6.63,5.43a2.87,2.87,0,0,1-1.46,2.58A36.48,36.48,0,0,1,299.61,352.25Zm-35.17-29.77,10.22,3.32v1.42c0,.64.23,15.73,14.52,19.66,13.49,3.72,23.23-.6,26.78-2.63-.95-.57-2.36-1.3-3.66-2-1.72-.9-3.87-2-6.25-3.37-5-2.86-6.38-9.92-7.72-16.75-1.11-5.7-2.26-11.58-5.36-13.13-6.41-3.21-9.39-.66-16.61,5.5l-1.2,1A44.53,44.53,0,0,1,264.44,322.48Z"/><polygon class="cls-1" points="299.79 367.46 294.47 361.66 288.33 366.83 285.8 363.84 294.82 356.24 302.68 364.81 299.79 367.46"/><path class="cls-1" d="M300.22,346.47a44.73,44.73,0,0,1-6.67-.55c-7.52-1.16-10.82-11.77-12.13-18l-.05-.23,3.8-.94c0,.06.05.18.09.37,1.83,8.77,5.16,14.35,8.89,14.93,6.48,1,10,.25,11.51-.07l.64-.13.64,3.86-.46.1A28,28,0,0,1,300.22,346.47Z"/><rect class="cls-1" x="292.69" y="350.17" width="3.92" height="15.96"/><path class="cls-1" d="M299.61,352.25a43.27,43.27,0,0,1-11.47-1.59c-14.35-4-16.87-17.5-17.31-22l-23.15-7.5,10.12-.69s6.21-.6,14.83-7.92l1.19-1c7.33-6.26,12.17-10.39,20.91-6,4.81,2.41,6.15,9.26,7.45,15.89,1.16,6,2.36,12.13,5.81,14.1,2.31,1.32,4.42,2.42,6.12,3.3,4.47,2.33,6.52,3.39,6.63,5.43a2.87,2.87,0,0,1-1.46,2.58A36.48,36.48,0,0,1,299.61,352.25Zm-35.17-29.77,10.22,3.32v1.42c0,.64.23,15.73,14.52,19.66,13.49,3.72,23.23-.6,26.78-2.63-.95-.57-2.36-1.3-3.66-2-1.72-.9-3.87-2-6.25-3.37-5-2.86-6.38-9.92-7.72-16.75-1.11-5.7-2.26-11.58-5.36-13.13-6.41-3.21-9.39-.66-16.61,5.5l-1.2,1A44.53,44.53,0,0,1,264.44,322.48Z"/><polygon class="cls-1" points="299.79 367.46 294.47 361.66 288.33 366.83 285.8 363.84 294.82 356.24 302.68 364.81 299.79 367.46"/><path class="cls-1" d="M300.22,346.47a44.73,44.73,0,0,1-6.67-.55c-7.52-1.16-10.82-11.77-12.13-18l-.05-.23,3.8-.94c0,.06.05.18.09.37,1.83,8.77,5.16,14.35,8.89,14.93,6.48,1,10,.25,11.51-.07l.64-.13.64,3.86-.46.1A28,28,0,0,1,300.22,346.47Z"/><rect class="cls-1" x="292.69" y="350.17" width="3.92" height="15.96"/><path class="cls-1" d="M276.62,311.27l-12.4-12.4,5.52-5.52-30.23-8.1,8.1,30.23,6.41-6.42,9.73,9.74A38.22,38.22,0,0,0,276.62,311.27Z"/><path class="cls-1" d="M393.91,283.91c-20.51,0-25.3,7.67-25.3,7.67v51.81a41.13,41.13,0,0,0,26.44,8.66c16.18-.38,24.15-8.66,24.15-8.66V291.58S414.41,283.91,393.91,283.91Zm-.75,48.88a2.28,2.28,0,0,1-2.26-2.34,2.35,2.35,0,0,1,2.3-2.61,2.48,2.48,0,0,1,0,5Zm4.34-16.46c-2.27,1.91-3.24,3.7-3.24,5.69a8.61,8.61,0,0,0,.08,1l.19,1.21H391.6a11.62,11.62,0,0,1-.31-2.42c0-2.18,1-4.21,3.71-6.63s4.29-4,4.29-6.25c0-2.41-2.15-4.17-6.48-4.17a14.23,14.23,0,0,0-6.47,1.52L385.28,304a18.48,18.48,0,0,1,7.88-1.8c6.75,0,9.37,3.16,9.37,6.4C402.53,311.61,400.58,313.71,397.5,316.33Z"/><rect class="cls-1" x="509.46" y="315.95" width="6.88" height="5.11"/><rect class="cls-1" x="501.3" y="315.95" width="6.88" height="5.11"/><rect class="cls-1" x="492.84" y="315.95" width="7.17" height="5.11"/><rect class="cls-1" x="492.84" y="322.49" width="7.17" height="5.19"/><rect class="cls-1" x="492.84" y="329.1" width="7.17" height="5.19"/><rect class="cls-1" x="509.46" y="322.49" width="6.88" height="5.19"/><rect class="cls-1" x="501.3" y="329.1" width="6.88" height="5.19"/><rect class="cls-1" x="501.3" y="322.49" width="6.88" height="5.19"/><rect class="cls-1" x="509.46" y="329.1" width="6.88" height="5.19"/><rect class="cls-1" x="517.63" y="335.71" width="7.17" height="5.24"/><rect class="cls-1" x="517.63" y="322.49" width="7.17" height="5.19"/><rect class="cls-1" x="517.63" y="329.1" width="7.17" height="5.19"/><rect class="cls-1" x="517.63" y="315.95" width="7.17" height="5.11"/><rect class="cls-1" x="492.84" y="335.71" width="7.17" height="5.24"/><rect class="cls-1" x="501.3" y="335.71" width="6.88" height="5.24"/><path class="cls-1" d="M508.91,283.13c-21.31,0-26.28,8-26.28,8v53.82a42.69,42.69,0,0,0,27.46,9c16.81-.4,25.09-9,25.09-9V291.09S530.21,283.13,508.91,283.13Zm.73,23.23,1.44-1.44c2.45-2.37,3.89-3.92,3.89-5.55a1.82,1.82,0,0,0-2-1.94,4.49,4.49,0,0,0-2.42.88l-.7-1.69a6.46,6.46,0,0,1,3.63-1.09c2.78,0,4,1.65,4,3.61,0,2.15-1.56,3.91-3.45,5.69l-1.08,1v0h4.77v2h-8.11Zm-5.95-10.64h2.13v12.1h-2.47v-10h0l-2.23,1.09-.55-1.7Zm22.64,19.73v26.88H491.48V314.45h34.85Z"/><rect class="cls-1" x="509.46" y="335.71" width="6.88" height="5.24"/><path class="cls-1" d="M623.91,283.13c-21.31,0-26.28,8-26.28,8v53.82a42.69,42.69,0,0,0,27.46,9c16.81-.4,25.09-9,25.09-9V291.09S645.21,283.13,623.91,283.13Zm-2.84,52.57H608.41V323h12.66Zm0-19H608.41V304h12.66Zm18.67,19H627.07V323h12.67Zm0-19H627.07V304h12.67Z"/><path d="M738.91,310.41a19,19,0,1,0,19,19A19,19,0,0,0,738.91,310.41Zm7.24,25.44v-2.11h-5.87v0h-2.75V320.58H736l1.5-4v-.46h.17l1.21-3.25,1.2,3.25h.17v.46l1.5,4h-1.5V329h5.87v-2.1l7.76,4.48Z"/><path d="M777.24,299.21h0a21.3,21.3,0,0,0-30,0l-8.28,8.28-8.28-8.28a21.31,21.31,0,0,0-30.06,0h0a21.3,21.3,0,0,0,0,30.05l8.28,8.29,30.06,30.05L769,337.55l8.28-8.29A21.3,21.3,0,0,0,777.24,299.21Zm-38.33,50.2a20,20,0,1,1,20-20A20,20,0,0,1,738.91,349.41Z"/><path class="cls-1" d="M985.86,372.16H952a14,14,0,0,1-14-14V296.32a14,14,0,0,1,14-14h33.91a14,14,0,0,1,14,14v61.84A14,14,0,0,1,985.86,372.16ZM952,286.32a10,10,0,0,0-10,10v61.84a10,10,0,0,0,10,10h33.91a10,10,0,0,0,10-10V296.32a10,10,0,0,0-10-10Z"/><path class="cls-1" d="M1100.86,372.16H1067a14,14,0,0,1-14-14V296.32a14,14,0,0,1,14-14h33.91a14,14,0,0,1,14,14v61.84A14,14,0,0,1,1100.86,372.16ZM1067,286.32a10,10,0,0,0-10,10v61.84a10,10,0,0,0,10,10h33.91a10,10,0,0,0,10-10V296.32a10,10,0,0,0-10-10Z"/><path class="cls-1" d="M1103.16,335c2,0,2.5-2.25,2.5-5s-3.75-1-2-1.75,1.75-5,1.25-6.25-15.25-1-16.25-1.5.75-5.75,1.25-9.25-3.5-5.25-7.5-6.75-.25,7.75-1,10.5-3.75,6.5-7.75,10.75l-.75,19s3,2.75,4.5,2.75l2.43.06a25.68,25.68,0,0,0,17.49,0,10.89,10.89,0,0,0,3.33-.55c2.25-1.25-1.5-4.5,0-4.5s3-2,3.5-4.5S1101.16,335,1103.16,335Z"/><path class="cls-1" d="M39.24,480.09c4,4.25,7,8,7.75,10.75s-3,12,1,10.5,8-3.25,7.5-6.75-2.25-8.75-1.25-9.25,15.75-.25,16.25-1.5.5-5.5-1.25-6.25,2,1,2-1.75-.5-5-2.5-5,1.5-.5,1-3-2-4.5-3.5-4.5,2.25-3.25,0-4.5-21.75-.5-23.25-.5-4.5,2.75-4.5,2.75Z"/><rect class="cls-1" x="1058.16" y="324.95" width="14" height="22"/><rect class="cls-1" x="23.16" y="460.45" width="14" height="22"/><path class="cls-1" d="M182.41,425H156.53a14.07,14.07,0,0,0-10.5,4.8,14.18,14.18,0,0,0-7.2,4.58,14,14,0,0,0-10.09,13.42v49.94a14,14,0,0,0,14,14h25.88a13.9,13.9,0,0,0,10.5-4.78,13.94,13.94,0,0,0,7.6-4.72,14,14,0,0,0,9.69-13.3V439A14,14,0,0,0,182.41,425Zm3,68.27a10,10,0,0,1-2.66,6.76,14.27,14.27,0,0,0,.2-2.36V447.73a14,14,0,0,0-14-14H147.57l.56-.15.11-.16a11,11,0,0,1,1.29-.09h25.88a10,10,0,0,1,10,10Zm-42.67,14.47a10,10,0,0,1-10-10V447.8a10,10,0,0,1,6.82-9.46l.9-.24a10.08,10.08,0,0,1,1.19-.25l.11,0h0a9.75,9.75,0,0,1,1.31-.1H169a10,10,0,0,1,10,10v49.94a9.86,9.86,0,0,1-1.75,5.59l-.27.05-.47.59a9.94,9.94,0,0,1-7.84,3.84Zm49.67-18.8a10,10,0,0,1-3.37,7.44,14,14,0,0,0,.37-3.11V443.33a14,14,0,0,0-14-14H154a10,10,0,0,1,2.52-.33h25.88a10,10,0,0,1,10,10Z"/><circle class="cls-1" cx="308.91" cy="498.54" r="4"/><rect class="cls-1" x="300.36" y="505.45" width="17.08" height="2"/><circle class="cls-1" cx="248.91" cy="498.54" r="4"/><rect class="cls-1" x="240.36" y="505.45" width="17.08" height="2"/><circle class="cls-1" cx="278.91" cy="498.54" r="4"/><rect class="cls-1" x="270.36" y="505.45" width="17.08" height="2"/><path class="cls-1" d="M300.57,442.65h0a12,12,0,0,0-7.12-3.42c-2.38-6.94-7.9-11.81-14.32-11.81s-11.91,4.85-14.3,11.77a11.9,11.9,0,0,0-7.59,3.46h0a12,12,0,0,0,0,17l4.68,4.68,17,17,17-17,4.68-4.68A12,12,0,0,0,300.57,442.65Zm-21.8,20a3.89,3.89,0,1,1,3.88-3.88A3.89,3.89,0,0,1,278.77,462.69Zm.14-15.36-4.68-4.68a12,12,0,0,0-4.48-2.81c1.82-4.5,5.34-7.56,9.38-7.56s7.48,3,9.32,7.43a11.91,11.91,0,0,0-4.87,2.94Z"/><path class="cls-1" d="M545.18,448.15h0a20,20,0,0,0-13.31-5.81C528,431.54,519.37,424,509.37,424s-18.59,7.52-22.48,18.29a20,20,0,0,0-14.08,5.85h0a20.12,20.12,0,0,0,0,28.37l7.82,7.81L509,512.7l28.37-28.37,7.81-7.81A20.12,20.12,0,0,0,545.18,448.15Zm-36.41,33.48a6.49,6.49,0,1,1,6.49-6.49A6.49,6.49,0,0,1,508.77,481.63ZM509,456l-7.82-7.81a19.88,19.88,0,0,0-8.71-5.09c3.24-8.05,9.6-13.53,16.9-13.53s13.58,5.41,16.84,13.36a19.88,19.88,0,0,0-9.4,5.26Z"/><path class="cls-1" d="M417.47,430.1c-10,0-18.32,9.53-19.47,21.77a15.58,15.58,0,0,0-7.15,4.07l-6.15,6.15-6.14-6.15a15.83,15.83,0,0,0-22.31,0h0a15.83,15.83,0,0,0,0,22.31l6.15,6.14,22.3,22.31L407,484.39l6.15-6.14a15.83,15.83,0,0,0,0-22.31h0a15.72,15.72,0,0,0-10.33-4.56c1.22-9.37,7.31-16.52,14.64-16.52,8.2,0,14.88,8.94,14.88,19.94h4.75C437.1,441.18,428.29,430.1,417.47,430.1Zm-33,52.17a5.1,5.1,0,1,1,5.11-5.1A5.11,5.11,0,0,1,384.52,482.27Z"/><path class="cls-1" d="M667.07,500.18h-31.5v-4h29.5v-59h-29.5v-4h31.5a2,2,0,0,1,2,2v63A2,2,0,0,1,667.07,500.18Z"/><path class="cls-1" d="M643.44,447.71c-11.47-7-21.37-2.26-23.72,0s-7.38,9.46,1.13,16.05c-15.64,0-17-8.78-17-8.78v22.49s1.39-8.77,17-8.77c-8.51,6.58-3.47,13.78-1.13,16s12.25,7,23.72,0,13.29-18.51,19.55-18.51C656.73,466.23,654.91,454.71,643.44,447.71Z"/><rect class="cls-1" x="578.91" y="460.2" width="23.5" height="1.5"/><rect class="cls-1" x="578.91" y="465.54" width="23.5" height="1.5"/><rect class="cls-1" x="578.91" y="470.2" width="23.5" height="1.5"/><path class="cls-1" d="M780.67,465.19l-39.1-39.11-2.83-2.82-2.83,2.82-39.1,39.11L694,468l2.83,2.82L735.91,510l2.83,2.83,2.83-2.83,39.1-39.11L783.5,468Zm-41.93,41.93-17.9-17.9,32.23.17v-6.5L713,481.33l-11-10.94h40.06v-6.5H703.76l10.78-10.78,21.53-.22v-6.5H721.26l17.48-17.48L777.84,468Z"/><path class="cls-1" d="M853.91,423.63c-21.31,0-26.28,8-26.28,8v53.82a42.69,42.69,0,0,0,27.46,9c16.81-.4,25.09-9,25.09-9V431.59S875.21,423.63,853.91,423.63Zm-1.4,60V460.77h-4.59L855.3,437V459.8h4.59Z"/><path class="cls-1" d="M968.91,423.63c-21.31,0-26.28,8-26.28,8v53.82a42.69,42.69,0,0,0,27.46,9c16.81-.4,25.09-9,25.09-9V431.59S990.21,423.63,968.91,423.63Zm15.25,43.87h-11v11h-8.5v-11h-11V459h11V448h8.5v11h11Z"/><path class="cls-1" d="M1077.86,473.65c-10.1-10.1-21.62-14.95-25.73-10.84-2.42,2.42-1.73,7.41,1.3,13.16l-14.18,14.17s-1.26,5.45,7.71,14.41,14.4,7.71,14.4,7.71l14.18-14.18c5.75,3,10.73,3.72,13.15,1.3C1092.8,495.27,1088,483.75,1077.86,473.65ZM1067.51,484c-5.5-5.5-8.54-11.39-6.79-13.14s7.64,1.29,13.14,6.79,8.54,11.38,6.79,13.14S1073,489.5,1067.51,484Z"/><path class="cls-1" d="M54.74,595c-19.05,0-34.49,6.29-34.49,14,0,4.56,5.35,8.62,13.63,11.18v26.75s3.95,6.32,20.86,6.32,20.86-6.32,20.86-6.32V620.18c8.28-2.56,13.63-6.62,13.63-11.18C89.23,601.24,73.79,595,54.74,595Zm0,19.52c-10.38,0-18.8-2.68-18.8-6s8.42-6,18.8-6,18.79,2.69,18.79,6S65.12,614.47,54.74,614.47Z"/><path class="cls-1" d="M1111.54,426.66l12.07,12.07L1105.37,457l-12.06-12.07,18.23-18.24m0-4a4,4,0,0,0-2.83,1.18l-18.23,18.23a4,4,0,0,0,0,5.66l12.07,12.06a4,4,0,0,0,5.65,0l18.24-18.23a4,4,0,0,0,0-5.66l-12.07-12.06a4,4,0,0,0-2.83-1.18Z"/><rect class="cls-1" x="1072.6" y="460.08" width="17.94" height="1.38" transform="translate(-9.03 899.74) rotate(-45)"/><rect class="cls-1" x="1076.07" y="463.55" width="17.94" height="1.38" transform="translate(-10.47 903.21) rotate(-45)"/><rect class="cls-1" x="1079.1" y="466.58" width="17.94" height="1.38" transform="translate(-11.72 906.24) rotate(-45)"/><path class="cls-1" d="M69.93,579.48c0-7.64-13.89-13.83-31-13.83s-31,6.19-31,13.83,13.88,13.83,31,13.83a65.76,65.76,0,0,0,11.26-.94,126.06,126.06,0,0,1,5.64,17.94l4-20.62C66,587.16,69.93,583.52,69.93,579.48Z"/><path class="cls-1" d="M164.74,597.71V587L184,575.87l-19.24-11.11v-.06h-2.67v33c-11.83.43-14.67,5-14.67,5v33.82a26.81,26.81,0,0,0,17.25,5.65c10.56-.25,15.76-5.65,15.76-5.65V602.7S177.41,597.92,164.74,597.71Z"/><path class="cls-1" d="M278.91,604.7c-10.15,0-18.38,8.3-18.38,47.25h36.75C297.28,613,289.05,604.7,278.91,604.7Zm6.74,10-6.33-2-6.33,2v-5.83l6.33,2,6.33-2Z"/><path class="cls-3" d="M408.78,564.2H375.53A13.57,13.57,0,0,0,362,577.73v61.44a13.57,13.57,0,0,0,13.53,13.53h33.25a13.57,13.57,0,0,0,13.53-13.53V577.73A13.57,13.57,0,0,0,408.78,564.2Zm-16.34,84.74a6.39,6.39,0,1,1,6.39-6.38A6.39,6.39,0,0,1,392.44,648.94Zm23.39-16.53h-46.5V572.66h46.5Z"/><polygon class="cls-1" points="392.45 615.42 402.84 601.88 392.45 588.34 382.06 601.88 392.45 615.42"/><path class="cls-1" d="M550.37,624.11V566.2H464.94v57.91h37.84v15.77H472.4V652.2h72V639.88H513.1V624.11Zm-77-52.17h68.51v46.44H473.4Z"/><path class="cls-1" d="M498.72,589.46c-3.13,5.12-1,9.55,0,10.59s4.22,3.3,7.16-.5c0,7-3.92,7.61-3.92,7.61H512s-3.92-.62-3.92-7.61c2.94,3.8,6.16,1.55,7.17.5s3.12-5.47,0-10.59-8.27-5.94-8.27-8.73C507,583.52,501.84,584.34,498.72,589.46Z"/><path class="cls-3" d="M653,564.7H594.83a13.73,13.73,0,0,0-13.68,13.68v62.14a13.72,13.72,0,0,0,13.68,13.68H653a13.72,13.72,0,0,0,13.68-13.68V578.38A13.73,13.73,0,0,0,653,564.7Zm-29.64,85.42a6.47,6.47,0,1,1,6.46-6.46A6.47,6.47,0,0,1,623.34,650.12Zm33-16.44H590.4V573.25h65.93Z"/><path d="M636.14,594.11h0a6.8,6.8,0,0,0-9.59,0l-2.64,2.64-2.65-2.64a6.8,6.8,0,0,0-9.59,0h0a6.8,6.8,0,0,0,0,9.59l2.64,2.64,9.6,9.6,9.59-9.6,2.64-2.64A6.8,6.8,0,0,0,636.14,594.11Z"/><path class="cls-1" d="M775.24,619.84V571.23h-71.7v48.61l-9.47,29.83h89.67ZM710.64,576h57.5v39h-57.5Z"/><path class="cls-1" d="M743.47,591.41a4.84,4.84,0,1,0-9.13,0,4.84,4.84,0,1,0,1.92,9.34l-1.74,7.06h8.77l-1.74-7.06a4.83,4.83,0,1,0,1.92-9.34Z"/><path class="cls-1" d="M865.49,589.07v9c4.59,1.23,7.52,3.06,7.52,5.12,0,3.7-9.41,6.7-21,6.7s-21-3-21-6.7c0-1.66,1.93-3.17,5.07-4.34v-9.38c-13.34,2.48-22.62,7.94-22.62,14.3,0,5.1,6,9.64,15.24,12.51v29.92s4.42,7.07,23.34,7.07,23.33-7.07,23.33-7.07V616.3c9.27-2.87,15.25-7.41,15.25-12.51C890.57,597.05,880.14,591.3,865.49,589.07Z"/><path class="cls-1" d="M980.82,589.07v9c4.6,1.23,7.53,3.07,7.53,5.13,0,3.7-9.42,6.7-21,6.7s-21-3-21-6.7c0-1.66,1.91-3.18,5.06-4.35v-9.37c-13.34,2.47-22.62,7.94-22.62,14.3,0,5.1,6,9.64,15.25,12.51v29.92s4.41,7.07,23.33,7.07,23.34-7.07,23.34-7.07V616.3c9.26-2.87,15.25-7.41,15.25-12.51C1005.91,597.05,995.47,591.3,980.82,589.07Z"/><polygon class="cls-1" points="980.32 568.7 958.86 568.7 958.86 574.7 951.86 574.7 951.86 605.53 973.32 605.53 973.32 599.53 980.32 599.53 980.32 568.7"/><path class="cls-1" d="M1086.82,588.08c-21.31,0-38.58,7-38.58,15.71,0,5.1,6,9.64,15.25,12.51v29.92s4.41,7.07,23.33,7.07,23.34-7.07,23.34-7.07V616.3c9.26-2.87,15.25-7.41,15.25-12.51C1125.41,595.11,1108.13,588.08,1086.82,588.08Zm0,21.83c-11.61,0-21-3-21-6.7s9.41-6.7,21-6.7,21,3,21,6.7S1098.43,609.91,1086.82,609.91Z"/><polygon class="cls-1" points="1099.32 599.03 1093.82 599.03 1093.82 600.03 1100.32 600.03 1100.32 593.53 1099.32 593.53 1099.32 599.03"/><polygon class="cls-1" points="1078.86 569.2 1084.36 569.2 1084.36 568.2 1077.86 568.2 1077.86 574.7 1071.36 574.7 1071.36 605.53 1092.82 605.53 1092.82 574.7 1078.86 574.7 1078.86 569.2"/><polygon class="cls-1" points="1093.82 568.2 1093.82 569.2 1099.32 569.2 1099.32 574.7 1100.32 574.7 1100.32 568.2 1093.82 568.2"/><rect class="cls-1" x="1099.32" y="580.98" width="1" height="6.28"/><path class="cls-1" d="M843.53,568.7v6h-7v30.84H858v-6h7V568.7Zm10,27.44H839.64v-1.07h13.87Zm0-3H839.64v-1.07h13.87Zm0-2.79H839.64v-1.07h13.87Zm0-4.36H839.64v-1.06h13.87Zm0-3H839.64v-1.07h13.87Zm0-2.79H839.64v-1.07h13.87Z"/><path class="cls-1" d="M65.86,512.92H32a14,14,0,0,1-14-14V437.09a14,14,0,0,1,14-14H65.86a14,14,0,0,1,14,14v61.83A14,14,0,0,1,65.86,512.92ZM32,427.09a10,10,0,0,0-10,10v61.83a10,10,0,0,0,10,10H65.86a10,10,0,0,0,10-10V437.09a10,10,0,0,0-10-10Z"/><path class="cls-1" d="M870.21,371.16H837.6a14,14,0,0,1-14-14v-59.9a14,14,0,0,1,14-14h32.61a14,14,0,0,1,14,14v59.9A14,14,0,0,1,870.21,371.16ZM837.6,287.31a10,10,0,0,0-10,10v59.9a10,10,0,0,0,10,10h32.61a10,10,0,0,0,10-10v-59.9a10,10,0,0,0-10-10Z"/><path class="cls-1" d="M834.94,302.56a.67.67,0,0,1-.75.68.68.68,0,0,1-.76-.68v-7.25h-2.11a.61.61,0,0,1,0-1.22h5.74a.61.61,0,0,1,0,1.22h-2.12Z"/><path class="cls-1" d="M851,319.33h-8.69a1.84,1.84,0,0,1-1-.27,2.4,2.4,0,0,1-1.05-2.22,2.61,2.61,0,0,1,.79-2,1.73,1.73,0,0,1,1.27-.49h23.11a2,2,0,0,1,1.13.34,2.57,2.57,0,0,1,.93,2.17,2.53,2.53,0,0,1-.83,2.08,1.84,1.84,0,0,1-1.23.43h-8.69v23.31a2.1,2.1,0,0,1-.73,1.66,3.15,3.15,0,0,1-2.14.7,2.74,2.74,0,0,1-2.53-1.17,2.1,2.1,0,0,1-.33-1.19Z"/><path class="cls-1" d="M1067.07,297.12c0-.34-.07-.44-.43-.44h-1.39a.59.59,0,1,1,0-1.18h1.93a1.15,1.15,0,0,1,1.24,1.29V300a.6.6,0,0,1-.66.67.59.59,0,0,1-.64-.66v-.16a2.61,2.61,0,0,1-2.07.87c-2.33,0-4.08-1.67-4.08-4.72s1.83-4.71,4.09-4.71a4.23,4.23,0,0,1,2.59.78.84.84,0,0,1,.44.72.73.73,0,0,1-1.26.45,2.41,2.41,0,0,0-1.77-.69c-1.45,0-2.57,1.29-2.57,3.45s1.08,3.47,2.57,3.47a2.18,2.18,0,0,0,2-1.07Z"/><path class="cls-1" d="M28.52,443.69c-1.39,0-1.8-.47-1.8-1.62v-6c0-1.15.42-1.62,1.8-1.62H30c1.91,0,2.84.87,2.84,2.31a2,2,0,0,1-1.35,1.94,2.22,2.22,0,0,1,1.85,2.37c0,1.61-1.18,2.62-3.23,2.62Zm1.38-5.4A1.33,1.33,0,0,0,31.39,437c0-.86-.53-1.32-1.44-1.32H28.86c-.55,0-.67.16-.67.64v2Zm.18,4.22c1.12,0,1.74-.6,1.74-1.51s-.58-1.54-1.77-1.54H28.19v2.42c0,.48.12.63.67.63Z"/><text class="cls-4" transform="translate(36.91 121.8)">再生</text><text class="cls-4" transform="translate(140.24 121.8)">一時停止</text><text class="cls-4" transform="translate(267.57 121.8)">停止</text><text class="cls-4" transform="translate(380.68 121.8)">NEXT</text><text class="cls-4" transform="translate(498.24 121.8)">設定</text><text class="cls-4" transform="translate(608.6 121.8)">HOME</text><text class="cls-4" transform="translate(722.91 121.8)">メール</text><text class="cls-4" transform="translate(844.24 121.8)">電波</text><text class="cls-4" transform="translate(960.02 121.8)">BOX</text><text class="cls-4" transform="translate(1068.91 121.8)">ごみ箱</text><text class="cls-4" transform="translate(36.91 260.3)">検索</text><text class="cls-4" transform="translate(146.45 260.3)">MUSIC</text><text class="cls-4" transform="translate(255.57 260.3)">リピート</text><text class="cls-4" transform="translate(382.91 260.3)">情報</text><text class="cls-4" transform="translate(498.64 260.3)">WiFi</text><text class="cls-4" transform="translate(607.57 260.3)">閉じる</text><text class="cls-4" transform="translate(728.91 260.3)">更新</text><text class="cls-4" transform="translate(832.24 260.3)">チェック</text><text class="cls-4" transform="translate(941.57 260.3)">ズームイン</text><text class="cls-4" transform="translate(1050.91 260.3)">ズームアウト</text><text class="cls-4" transform="translate(30.91 400.79)">ヒント</text><text class="cls-4" transform="translate(152.24 400.79)">監視</text><text class="cls-4" transform="translate(261.57 400.79)">リンク</text><text class="cls-4" transform="translate(382.91 400.79)">質問</text><text class="cls-4" transform="translate(480.24 400.79)">カレンダー</text><text class="cls-4" transform="translate(601.57 400.79)">メニュー</text><text class="cls-4" transform="translate(728.91 400.79)">時計</text><text class="cls-4" transform="translate(832.24 400.79)">テキスト</text><text class="cls-4" transform="translate(941.57 400.79)">お気に入り</text><text class="cls-4" transform="translate(1069.67 400.79)">GOOD</text><text class="cls-4" transform="translate(37.22 539.28)">BAD</text><text class="cls-4" transform="translate(140.24 539.28)">ファイル</text><text class="cls-4" transform="translate(249.57 539.28)">パスワード</text><text class="cls-4" transform="translate(364.91 539.28)">アンロック</text><text class="cls-4" transform="translate(492.24 539.28)">ロック</text><text class="cls-4" transform="translate(601.57 539.28)">ログイン</text><text class="cls-4" transform="translate(716.91 539.28)">チャート</text><text class="cls-4" transform="translate(844.24 539.28)">充電</text><text class="cls-4" transform="translate(941.57 539.28)">インポート</text><text class="cls-4" transform="translate(1050.91 539.28)">エクスポート</text><text class="cls-4" transform="translate(24.91 681.78)">コメント</text><text class="cls-4" transform="translate(152.24 681.78)">タグ</text><text class="cls-4" transform="translate(243.57 681.78)">プロフィール</text><text class="cls-4" transform="translate(376.91 681.78)">スマホ</text><text class="cls-4" transform="translate(474.24 681.78)">デスクトップ</text><text class="cls-4" transform="translate(595.57 681.78)">タブレット</text><text class="cls-4" transform="translate(698.91 681.78)">ノートパソコン</text><text class="cls-4" transform="translate(814.24 681.78)">コピーテキスト</text><text class="cls-4" transform="translate(953.57 681.78)">コピー</text><text class="cls-4" transform="translate(1050.91 681.78)">コピーカット</text><path class="cls-1" d="M79.77,1330.93v9.66l-1.11,1.17c-.4.4-9.83,10-28.45,10.43H49.06A47.4,47.4,0,0,1,19.39,1342L18,1340.79v-9.86c-9,3.72-14.63,9-14.63,14.93,0,11.22,20.37,20.32,45.5,20.32s45.5-9.1,45.5-20.32C94.41,1340,88.77,1334.65,79.77,1330.93Z"/><path class="cls-1" d="M48.91,736.24c-21.31,0-38.59,7-38.59,15.72,0,5.1,6,9.64,15.25,12.51v29.92s4.42,7.07,23.34,7.07,23.33-7.07,23.33-7.07V764.47c9.26-2.87,15.25-7.41,15.25-12.51C87.49,743.28,70.21,736.24,48.91,736.24Zm0,21.84c-11.62,0-21-3-21-6.7s9.41-6.7,21-6.7,21,3,21,6.7S60.52,758.08,48.91,758.08Z"/><path class="cls-1" d="M63.91,748.2H41.45V716.37H63.91Zm-21.46-1H62.91V717.37H42.45Z"/><rect class="cls-1" x="34.95" y="722.87" width="21.46" height="30.83"/><path class="cls-1" d="M164.25,743.07a14.63,14.63,0,1,0,14.63,14.63A14.62,14.62,0,0,0,164.25,743.07Zm7.14,16.57h-5.57v5.56h-3.13v-5.56h-5.57v-3.13h5.57v-5.57h3.13v5.57h5.57Z"/><path class="cls-1" d="M874.91,767.19a14,14,0,1,0,14,14A14,14,0,0,0,874.91,767.19Zm6.83,15.87h-5.33v5.33h-3v-5.33h-5.34v-3h5.34v-5.34h3v5.34h5.33Z"/><path class="cls-1" d="M194.82,795.15,184,784.34l-.12.12a9.91,9.91,0,0,0,1.6-5.41v-42.7a9.91,9.91,0,0,0-1.65-5.48l.14.14,10.81-10.82,2,2,2.53-9.45-9.45,2.53,1.9,1.9L180.92,728l.09.09a9.88,9.88,0,0,0-5.48-1.65H152.28a9.94,9.94,0,0,0-5.44,1.62l0,0-10.81-10.82,2-2-9.45-2.53,2.53,9.45,1.91-1.9L143.82,731l.12-.12a10,10,0,0,0-1.62,5.44v42.7a9.9,9.9,0,0,0,1.55,5.33l-10.8,10.8-1.95-2-2.54,9.45,9.46-2.53-1.91-1.9,10.8-10.8a9.82,9.82,0,0,0,5.35,1.58h23.25A9.87,9.87,0,0,0,181,787.4l10.81,10.81-2,2,9.46,2.53-2.54-9.45Zm-19.29-9H152.28a7.13,7.13,0,0,1-7.12-7.12v-42.7a7.14,7.14,0,0,1,7.12-7.12h23.25a7.14,7.14,0,0,1,7.12,7.12v42.7A7.13,7.13,0,0,1,175.53,786.17Z"/><path class="cls-1" d="M305.37,786.88,298.46,785a9.92,9.92,0,0,0,2-6V736.37a9.89,9.89,0,0,0-2-6l6.92-1.85-1.9-1.9,10.81-10.81-3.06-3.06-10.81,10.81-2-2-1.85,6.91a9.88,9.88,0,0,0-6.07-2.08H267.26a9.92,9.92,0,0,0-6.08,2.09l-1.85-6.89-1.9,1.9L246.62,712.7l-3.06,3.06,10.81,10.81-2,2,6.91,1.85a9.86,9.86,0,0,0-2,6v42.69a9.84,9.84,0,0,0,2,6l-6.86,1.83,1.9,1.91-10.81,10.81,3.06,3,10.81-10.81,2,2,1.83-6.85a9.93,9.93,0,0,0,6,2H290.5a9.87,9.87,0,0,0,6.11-2.11l1.84,6.88,1.9-1.9,10.81,10.81,3.06-3.06-10.81-10.81Zm-14.87-.7H267.26a7.13,7.13,0,0,1-7.11-7.12V736.37a7.12,7.12,0,0,1,7.11-7.11H290.5a7.12,7.12,0,0,1,7.12,7.11v42.69A7.13,7.13,0,0,1,290.5,786.18Z"/><path class="cls-1" d="M278.91,742.73a14.63,14.63,0,1,0,14.62,14.62A14.63,14.63,0,0,0,278.91,742.73ZM286,759.44H271.78v-3.13H286Z"/><path class="cls-1" d="M985.59,767.19a14,14,0,1,0,14,14A14,14,0,0,0,985.59,767.19Zm6.83,16H978.75v-3h13.67Z"/><path class="cls-1" d="M418.9,740.11a3.51,3.51,0,0,0-3.26,3.71,4.11,4.11,0,0,0,.26,1.46l-13,6.36-7.76-21.8a3.75,3.75,0,0,0,2-3.44,3.28,3.28,0,1,0-6.51,0,3.75,3.75,0,0,0,2,3.44l-7.76,21.8-13-6.36a4.11,4.11,0,0,0,.26-1.46,3.28,3.28,0,1,0-3.26,3.72,2.32,2.32,0,0,0,.38,0l2.25,24h44.73l2.25-24a2.47,2.47,0,0,0,.38,0,3.75,3.75,0,0,0,0-7.43Zm-26.34,28.83a6.62,6.62,0,0,1-3.54-1l.5-1.28a6,6,0,0,0,3.06.9,3,3,0,0,0,3.34-3.14c0-2.2-1.86-3.2-3.82-3.2h-1V760h1c1.44,0,3.3-.9,3.3-2.78a2.31,2.31,0,0,0-2.58-2.42,4.92,4.92,0,0,0-2.74,1l-.5-1.22a6.26,6.26,0,0,1,3.56-1.12c2.74,0,4,1.74,4,3.54a3.78,3.78,0,0,1-2.72,3.54v.06a3.84,3.84,0,0,1,3.26,3.88C397.64,766.86,395.92,768.94,392.56,768.94Z"/><circle cx="508.91" cy="759.58" r="8.88"/><path d="M548.05,731h0a21.76,21.76,0,0,0-30.69,0l-8.45,8.45L500.45,731a21.76,21.76,0,0,0-30.69,0h0a21.76,21.76,0,0,0,0,30.69l8.46,8.45,30.69,30.69,30.69-30.69,8.45-8.45A21.76,21.76,0,0,0,548.05,731Zm-39.14,41a12.38,12.38,0,1,1,12.37-12.38A12.38,12.38,0,0,1,508.91,772Zm22.25-31.2a3.42,3.42,0,1,1,3.41-3.42A3.42,3.42,0,0,1,531.16,740.76Z"/><path class="cls-1" d="M1086.77,1310.7v-29.62s2.73-4.38,14.45-4.38,14.46,4.38,14.46,4.38v29.62s-4.55,4.73-13.8,5A23.47,23.47,0,0,1,1086.77,1310.7Z"/><path class="cls-1" d="M1117.83,1306.37v5.2l-.6.62c-.21.22-5.28,5.38-15.3,5.61h-.62a25.49,25.49,0,0,1-16-5.5l-.73-.64v-5.3c-4.84,2-7.87,4.85-7.87,8,0,6,11,10.94,24.48,10.94s24.49-4.9,24.49-10.94C1125.71,1311.22,1122.67,1308.37,1117.83,1306.37Z"/><path class="cls-1" d="M1005.85,1313.46v5l-.58.6c-.2.21-5.07,5.16-14.69,5.39H990c-.79,0-1.54,0-2.28-.11v-2.07a21.59,21.59,0,0,0,2.82.11c8.88-.21,13.25-4.75,13.25-4.75v-28.43s-2.62-4.2-13.87-4.2-13.88,4.2-13.88,4.2v5.67a47.34,47.34,0,0,0-7.12-.49,46.26,46.26,0,0,0-8.46.71v-5.89s-2.63-4.2-13.88-4.2-13.87,4.2-13.87,4.2v28.43a22.52,22.52,0,0,0,14.5,4.75,23.62,23.62,0,0,0,2.9-.24v2.08a27.65,27.65,0,0,1-2.85.23h-.6a24.54,24.54,0,0,1-15.32-5.27l-.7-.62v-5.09c-4.65,1.92-7.56,4.66-7.56,7.71,0,5.8,10.52,10.5,23.5,10.5,1.2,0,2.38,0,3.53-.12v7a30.56,30.56,0,0,0,19.65,6.45c12-.29,18-6.45,18-6.45v-7c.72,0,1.45.05,2.2.05,13,0,23.5-4.7,23.5-10.5C1013.41,1318.12,1010.49,1315.38,1005.85,1313.46Z"/><path class="cls-1" d="M990.51,1333v6.76l-.78.81c-.28.29-6.88,7-19.91,7.3H969a33.21,33.21,0,0,1-20.77-7.15l-1-.83V1333c-6.29,2.6-10.24,6.32-10.24,10.45,0,7.85,14.26,14.22,31.85,14.22s31.84-6.37,31.84-14.22C1000.75,1339.27,996.8,1335.55,990.51,1333Z"/><path class="cls-1" d="M769.28,1330.94v9.5l-1.1,1.15c-.39.4-9.67,9.83-28,10.26h-1.13a46.63,46.63,0,0,1-29.19-10l-1.33-1.18v-9.69c-8.85,3.65-14.4,8.88-14.4,14.69,0,11,20,20,44.77,20s44.76-8.95,44.76-20C783.67,1339.82,778.13,1334.59,769.28,1330.94Z"/><path class="cls-1" d="M884.28,1330.94v9.5l-1.1,1.15c-.39.4-9.67,9.83-28,10.26h-1.13a46.63,46.63,0,0,1-29.19-10l-1.33-1.18v-9.69c-8.85,3.65-14.4,8.88-14.4,14.69,0,11,20,20,44.77,20s44.76-8.95,44.76-20C898.67,1339.82,893.13,1334.59,884.28,1330.94Z"/><polygon class="cls-1" points="611.74 791.3 597.41 795.3 597.41 767.8 611.74 771.8 611.74 791.3"/><rect class="cls-1" x="614.74" y="771.79" width="37.33" height="19.51"/><polygon class="cls-1" points="838.8 771.45 853.13 767.45 853.13 794.95 838.8 790.95 838.8 771.45"/><rect class="cls-1" x="826.57" y="771.8" width="7.33" height="19.51" transform="translate(1660.48 1563.11) rotate(180)"/><polygon class="cls-1" points="949.96 771.45 964.29 767.45 964.29 794.95 949.96 790.95 949.96 771.45"/><rect class="cls-1" x="937.73" y="771.8" width="7.33" height="19.51" transform="translate(1882.8 1563.11) rotate(180)"/><path class="cls-1" d="M744.91,778.33c0,7.11-2.69,6.87-6,6.87s-6,.24-6-6.87,2.68-11.87,6-11.87S744.91,771.23,744.91,778.33Z"/><path class="cls-1" d="M752.41,781.2h-2c0,5.5-6.88,7.5-11.5,7.5s-11.5-2-11.5-7.5h-2c0,5.38,5.05,8.54,10.75,9.31V802.2h5.5V790.51C747.35,789.74,752.41,786.58,752.41,781.2Z"/><path class="cls-1" d="M1100.42,713.2h-33a14.17,14.17,0,0,0-14.16,14.16V788a14.17,14.17,0,0,0,14.16,14.16h33A14.17,14.17,0,0,0,1114.58,788V727.36A14.17,14.17,0,0,0,1100.42,713.2Zm-8,20.38v-3.2h4.14v-4.13h3.19v4.13h4.13v3.2h-4.13v4.13h-3.19v-4.13Zm18.1,54.46a10.13,10.13,0,0,1-10.12,10.12h-33A10.13,10.13,0,0,1,1057.27,788V727.36a10.12,10.12,0,0,1,10.12-10.11h24V751.7l7.52-4.7,6.37,4.7V718.49a10.11,10.11,0,0,1,5.27,8.87Z"/><path class="cls-1" d="M65.52,853.7H32.29A14.26,14.26,0,0,0,18,868v61a14.26,14.26,0,0,0,14.25,14.25H65.52A14.26,14.26,0,0,0,79.77,929V868A14.26,14.26,0,0,0,65.52,853.7Zm-8,17.29H69v3.21H57.49ZM75.7,929a10.19,10.19,0,0,1-10.18,10.18H32.29A10.2,10.2,0,0,1,22.11,929V868a10.2,10.2,0,0,1,10.18-10.18H56.43v34.67L64,887.7l6.41,4.74V859A10.17,10.17,0,0,1,75.7,868Z"/><path class="cls-1" d="M179.25,865.45c-17.47-7.72-32.55-2.5-36.12,0s-11.25,10.44,1.72,17.71c-23.82,0-25.94-9.69-25.94-9.69v24.82s2.12-9.68,25.94-9.68c-13,7.26-5.3,15.21-1.72,17.7s18.65,7.72,36.12,0,20.24-20.43,29.77-20.43C199.49,885.88,196.71,873.17,179.25,865.45Z"/><polygon class="cls-1" points="208.41 929.52 190.18 919 190.18 926.19 118.11 926.19 118.11 932.85 190.18 932.85 190.18 940.04 208.41 929.52"/><path class="cls-1" d="M629.55,885.05v7.68c8.6.59,15.06,3,15.06,5.92,0,3.35-8.53,6.07-19,6.07s-19-2.72-19-6.07c0-2.78,5.89-5.11,13.91-5.83v-7.71c-16.86,1-29.81,6.92-29.81,14.07,0,4.62,5.42,8.72,13.81,11.32v27.09s4,6.4,21.12,6.4,21.13-6.4,21.13-6.4V910.5c8.38-2.6,13.8-6.7,13.8-11.32C660.5,891.87,647,885.85,629.55,885.05Z"/><polygon class="cls-1" points="634.24 870.81 625.07 853.03 615.91 870.81 620.95 870.81 620.95 900.71 629.05 900.71 629.05 870.81 634.24 870.81"/><path class="cls-1" d="M746.06,885.31l-3.91,7.42c8.63.58,15.12,3,15.12,5.92,0,3.35-8.52,6.07-19,6.07s-19-2.72-19-6.07c0-2.81,6-5.16,14.15-5.85l-3.89-7.39c-15,1.59-26.16,7.14-26.16,13.77,0,4.62,5.42,8.72,13.8,11.32v27.09s4,6.4,21.13,6.4,21.12-6.4,21.12-6.4V910.5c8.39-2.6,13.81-6.7,13.81-11.32C773.17,892.42,761.58,886.76,746.06,885.31Z"/><polygon class="cls-1" points="728.57 882.63 737.74 900.03 746.9 882.63 741.87 882.63 741.87 853.37 733.76 853.37 733.76 882.63 728.57 882.63"/><path class="cls-1" d="M856,1046.47c1.35,0,2.69-.11,4-.22v-6.86c-1.27.16-2.61.27-4,.33Z"/><path class="cls-1" d="M872.53,1024v-23.89s-3.52-5.64-18.62-5.64-18.63,5.64-18.63,5.64V1024c-7.4,2.29-12.18,5.91-12.18,10,0,5.55,8.87,10.26,21.14,11.91v-7.08c-4.3-1-7.12-2.57-7.12-4.37,0-3,7.52-5.35,16.79-5.35s16.78,2.39,16.78,5.35c0,1.83-2.89,3.44-7.28,4.4v7.07c12.36-1.63,21.3-6.36,21.3-11.93C884.71,1029.88,879.93,1026.26,872.53,1024Z"/><path class="cls-1" d="M847.61,1046.24c1.64.14,3.33.22,5.06.25v-6.74a49.17,49.17,0,0,1-5.06-.38Z"/><path class="cls-1" d="M853.91,852.71a45.76,45.76,0,1,0,45.75,45.76A45.81,45.81,0,0,0,853.91,852.71Zm34.27,72.47a26.77,26.77,0,0,1-9.3,9.3l-5.82-5.82a35.56,35.56,0,0,1-12.71,5v8.13a26.77,26.77,0,0,1-13.15,0v-8.18a35.58,35.58,0,0,1-13.86-5.88l-5.52,5.51a26.77,26.77,0,0,1-9.3-9.3l5.63-5.63a35.62,35.62,0,0,1-5.52-14h-7.94a26.81,26.81,0,0,1,0-13.16h8.21a35.59,35.59,0,0,1,6.22-13.91l-5.75-5.74a25.27,25.27,0,0,1,4.07-5.23,25.58,25.58,0,0,1,5.23-4.07l6.08,6.07a35.48,35.48,0,0,1,12.45-4.94v-8.43a26.77,26.77,0,0,1,13.15,0v8.38a35.72,35.72,0,0,1,14.21,6l5.58-5.58a26.91,26.91,0,0,1,9.3,9.31l-5.72,5.71A35.7,35.7,0,0,1,889,891.54h7.74a26.77,26.77,0,0,1,0,13.15h-7.62a35.53,35.53,0,0,1-6.42,15Z"/><path class="cls-1" d="M853.91,865.63a32.66,32.66,0,0,0-12.46,2.44l.75,1.85a30.73,30.73,0,0,1,4.74-1.5h0l.29-.07h.17l.21,0h.19l.21-.05h.26l.12,0h5.49v-2Zm-23.06,9.44a32.89,32.89,0,0,0-7.16,10.49l1.84.79a29,29,0,0,1,1.52-3.06h0l0-.08h.49v0h0l0-.07h.67l.08-.12h.67v0h0v0h0a.64.64,0,0,0,.1-.13h0l0,0h0l0,0H830v0h0v0l0,0h0l0,0h0l0,0h.73l0,0h0l0,0h0l0,0h0v0h.83l.2-.21h0l0,0h0l.05-.05h.15l-1.41-1.43ZM821.05,898v.5a32.7,32.7,0,0,0,2.26,12l1.86-.73c-.26-.67-.5-1.36-.72-2h0l0-.09h0v0h0v0h-.08l0-.06h0l0-.1h0v0h0a30.21,30.21,0,0,1-1-5.57h0a1.37,1.37,0,0,1,0-.19h0v-.15h0v-.09h0v0h0v-.1h0v-.08h0v-.07h0V900h0v0h0v0h0v0h0v0h0v0h0v-.06h0V898l-2,0Zm10.54,21.81-1.44,1.38a32.67,32.67,0,0,0,10.37,7.33l.82-1.83a31.22,31.22,0,0,1-7.75-5h-.48l0,0h0c-.51-.47-1-1-1.49-1.46Zm33.14,7.6c-.69.25-1.38.48-2.09.69h0l-.09,0h0l-.06,0h-.91l-.06,0h-.14l-.06,0h0a32.16,32.16,0,0,1-4.19.72H853l-.06,2,1,0a32.71,32.71,0,0,0,11.52-2.08l-.7-1.87Zm17.17-15.91a31,31,0,0,1-7,9.64l1.36,1.47a32.79,32.79,0,0,0,7.48-10.27l-1.81-.84Zm3-24.05-1.89.67a30.48,30.48,0,0,1,1.7,8h0v.07h0v0h0v0h0v.06h0v.06h0v.07h0v0h0v.05h0v.06h0v0h0v0h0v0h0v0h0v0h0v0h0v0h0v0h0v0h0v0h0v0h0v0h0v0h0v0h0v0h0v0h0v0h0v0h0v.05h0c0,.22,0,.43,0,.65l2,.09c0-.5,0-1,0-1.51a32.87,32.87,0,0,0-1.9-11.05ZM868.2,868.89l-.87,1.8a32.56,32.56,0,0,1,3,1.67h.26l.07.05h0l.1.06h.6a30.92,30.92,0,0,1,5.47,4.8l1.49-1.33a32.88,32.88,0,0,0-10.15-7.64Zm-14.29-3.26v2h.49l1.39,0,.12-2c-.66,0-1.34-.06-2-.06Z"/><path class="cls-1" d="M48.91,993.48a45.76,45.76,0,1,0,45.75,45.76A45.81,45.81,0,0,0,48.91,993.48ZM83.18,1066a26.77,26.77,0,0,1-9.3,9.3l-5.82-5.82a35.56,35.56,0,0,1-12.71,5v8.13a26.77,26.77,0,0,1-13.15,0v-8.18a35.58,35.58,0,0,1-13.86-5.88L22.82,1074a26.77,26.77,0,0,1-9.3-9.3l5.63-5.63a35.62,35.62,0,0,1-5.52-14H5.69a26.81,26.81,0,0,1,0-13.16H13.9A35.59,35.59,0,0,1,20.12,1018l-5.75-5.74a25.27,25.27,0,0,1,4.07-5.23,25.58,25.58,0,0,1,5.23-4.07l6.08,6.07a35.48,35.48,0,0,1,12.45-4.94v-8.43a26.77,26.77,0,0,1,13.15,0v8.38a35.58,35.58,0,0,1,14.21,6l5.58-5.58a26.77,26.77,0,0,1,9.3,9.3l-5.72,5.72A35.7,35.7,0,0,1,84,1032.31h7.74a26.77,26.77,0,0,1,0,13.15H84.11a35.49,35.49,0,0,1-6.42,15Z"/><path class="cls-1" d="M48.91,1006.38a32.67,32.67,0,0,0-12.46,2.45l.75,1.85a31.89,31.89,0,0,1,4.74-1.51h0l.29-.07h.17l.21-.05h.19l.21,0h.26l.12,0h5.49v-2Zm-23.06,9.45a32.89,32.89,0,0,0-7.16,10.49l1.84.78a31.1,31.1,0,0,1,1.52-3.06h0l0-.08h.49v0h0l.05-.08h0v0h.66l.08-.12h.67v0h0v0h0v0h0a1.13,1.13,0,0,0,.1-.13h0l0,0h0l0,0H25v0h0l0,0h0l0,0h0l0,0h0v0h.71l0,0h0l0,0h0l0,0h0v0H26v0h.74l0,0h0l.2-.21h0l0,0h0l.05-.05h.15l-1.41-1.43Zm-9.8,22.91v.5a32.65,32.65,0,0,0,2.26,12l1.86-.73q-.39-1-.72-2h0l0-.09h0v0h0v0h-.08l0-.06h0l0-.1h0v0h0a30.17,30.17,0,0,1-1-5.58h0a1.1,1.1,0,0,1,0-.18h0v-.15h0v0h0v-.09h0v-.09h0v-.08h0v-.07h0v-.07h0v0h0v0h0v0h0v0h0v0h0v0h0v-.06h0v-.28l-2,0Zm10.54,21.81-1.44,1.38a32.64,32.64,0,0,0,10.37,7.32l.82-1.82a31.22,31.22,0,0,1-7.75-5h-.51c-.51-.46-1-1-1.49-1.45Zm33.14,7.59c-.69.26-1.38.49-2.09.7h0l-.09,0h-1l-.06,0h-.24a30.54,30.54,0,0,1-4.19.71h-.19l-.2,0h0l-.18,0H48l-.06,2h1A32.93,32.93,0,0,0,60.43,1070l-.7-1.88Zm17.17-15.9a31,31,0,0,1-7,9.64l1.36,1.46a32.64,32.64,0,0,0,7.48-10.26l-1.81-.84Zm3-24-1.89.67a30.39,30.39,0,0,1,1.7,8h0v.07h0v0h0v0h0v.07h0v.06h0v.06h0v0h0v0h0v0h0v0h0v.06h0v0h0v0h0v0h0v0h0v0h0v0h0v0h0v0h0v0h0v0h0v0h0v0h0v0h0v0h0v0h0v0h0v0h0v0h0v0h0v0h0v0h0c0,.22,0,.43,0,.65l2,.09c0-.5,0-1,0-1.51a32.87,32.87,0,0,0-1.9-11ZM63.2,1009.65l-.87,1.8a30.37,30.37,0,0,1,3,1.67h.26l.07,0h0l0,0h0l.1.06h.6a30.52,30.52,0,0,1,5.47,4.8l1.49-1.34a33,33,0,0,0-10.15-7.63Zm-14.29-3.27v2h.49c.47,0,.93,0,1.39.05l.12-2c-.66-.05-1.34-.07-2-.07Z"/><path class="cls-1" d="M163.91,993.48a45.76,45.76,0,1,0,45.75,45.76A45.81,45.81,0,0,0,163.91,993.48ZM198.18,1066a26.77,26.77,0,0,1-9.3,9.3l-5.82-5.82a35.56,35.56,0,0,1-12.71,5v8.13a26.77,26.77,0,0,1-13.15,0v-8.18a35.58,35.58,0,0,1-13.86-5.88l-5.52,5.51a26.77,26.77,0,0,1-9.3-9.3l5.63-5.63a35.62,35.62,0,0,1-5.52-14h-7.94a26.81,26.81,0,0,1,0-13.16h8.21a35.59,35.59,0,0,1,6.22-13.91l-5.75-5.74a25.27,25.27,0,0,1,4.07-5.23,25.58,25.58,0,0,1,5.23-4.07l6.08,6.07a35.48,35.48,0,0,1,12.45-4.94v-8.43a26.77,26.77,0,0,1,13.15,0v8.38a35.58,35.58,0,0,1,14.21,6l5.58-5.58a26.77,26.77,0,0,1,9.3,9.3l-5.72,5.72a35.7,35.7,0,0,1,5.27,12.81h7.74a26.77,26.77,0,0,1,0,13.15h-7.62a35.49,35.49,0,0,1-6.42,15Z"/><path class="cls-1" d="M163.91,1006.38a32.67,32.67,0,0,0-12.46,2.45l.75,1.85a31.89,31.89,0,0,1,4.74-1.51h0l.29-.07h.17l.21-.05h.19l.21,0h.26l.12,0h5.49v-2Zm-23.06,9.45a32.89,32.89,0,0,0-7.16,10.49l1.84.78a31.1,31.1,0,0,1,1.52-3.06h0l0-.08h.49v0h0l0-.08h0v0h.66l.08-.12h.67v0h0v0h0v0h0a1.13,1.13,0,0,0,.1-.13h0l0,0h0l0,0H140v0h0l0,0h0l0,0h0l0,0h0v0h.71l0,0h0l0,0h0l0,0h0v0H141v0h.74l0,0h0l.2-.21h0l0,0h0l.05-.05h.15l-1.41-1.43Zm-9.8,22.91v.5a32.65,32.65,0,0,0,2.26,12l1.86-.73q-.39-1-.72-2h0l0-.09h0v0h0v0h-.08l0-.06h0l0-.1h0v0h0a30.17,30.17,0,0,1-1-5.58h0a1.1,1.1,0,0,1,0-.18h0v-.15h0v0h0v-.09h0v-.09h0v-.08h0v-.07h0v-.07h0v0h0v0h0v0h0v0h0v0h0v0h0v-.06h0v-.28l-2,0Zm10.54,21.81-1.44,1.38a32.64,32.64,0,0,0,10.37,7.32l.82-1.82a31.22,31.22,0,0,1-7.75-5h-.51c-.51-.46-1-1-1.49-1.45Zm33.14,7.59c-.69.26-1.38.49-2.09.7h0l-.09,0h-1l-.06,0h-.24a30.54,30.54,0,0,1-4.19.71h-.19l-.2,0h0l-.18,0H163l-.06,2h1a32.93,32.93,0,0,0,11.52-2.07l-.7-1.88Zm17.17-15.9a31,31,0,0,1-7,9.64l1.36,1.46a32.64,32.64,0,0,0,7.48-10.26l-1.81-.84Zm3-24-1.89.67a30.39,30.39,0,0,1,1.7,8h0v.07h0v0h0v0h0v.07h0v.06h0v.06h0v0h0v0h0v0h0v0h0v.06h0v0h0v0h0v0h0v0h0v0h0v0h0v0h0v0h0v0h0v0h0v0h0v0h0v0h0v0h0v0h0v0h0v0h0v0h0v0h0v0h0v0h0c0,.22,0,.43,0,.65l2,.09c0-.5,0-1,0-1.51a32.87,32.87,0,0,0-1.9-11Zm-16.66-18.54-.87,1.8a30.37,30.37,0,0,1,3,1.67h.26l.07,0h0l0,0h0l.1.06h.6a30.52,30.52,0,0,1,5.47,4.8l1.49-1.34a33,33,0,0,0-10.15-7.63Zm-14.29-3.27v2h.49c.47,0,.93,0,1.39.05l.12-2c-.66-.05-1.34-.07-2-.07Z"/><path class="cls-1" d="M278.91,993.48a45.76,45.76,0,1,0,45.75,45.76A45.81,45.81,0,0,0,278.91,993.48ZM313.18,1066a26.77,26.77,0,0,1-9.3,9.3l-5.82-5.82a35.56,35.56,0,0,1-12.71,5v8.13a26.77,26.77,0,0,1-13.15,0v-8.18a35.58,35.58,0,0,1-13.86-5.88l-5.52,5.51a26.77,26.77,0,0,1-9.3-9.3l5.63-5.63a35.62,35.62,0,0,1-5.52-14h-7.94a26.81,26.81,0,0,1,0-13.16h8.21a35.59,35.59,0,0,1,6.22-13.91l-5.75-5.74a25.27,25.27,0,0,1,4.07-5.23,25.58,25.58,0,0,1,5.23-4.07l6.08,6.07a35.48,35.48,0,0,1,12.45-4.94v-8.43a26.77,26.77,0,0,1,13.15,0v8.38a35.58,35.58,0,0,1,14.21,6l5.58-5.58a26.77,26.77,0,0,1,9.3,9.3l-5.72,5.72a35.7,35.7,0,0,1,5.27,12.81h7.74a26.77,26.77,0,0,1,0,13.15h-7.62a35.49,35.49,0,0,1-6.42,15Z"/><path class="cls-1" d="M278.91,1006.38a32.67,32.67,0,0,0-12.46,2.45l.75,1.85a31.89,31.89,0,0,1,4.74-1.51h0l.29-.07h.17l.21-.05h.19l.21,0h.26l.12,0h5.49v-2Zm-23.06,9.45a32.89,32.89,0,0,0-7.16,10.49l1.84.78a31.1,31.1,0,0,1,1.52-3.06h0l0-.08h.49v0h0l0-.08h0v0h.66l.08-.12h.67v0h0v0h0v0h0a1.13,1.13,0,0,0,.1-.13h0l0,0h0l0,0H255v0h0l0,0h0l0,0h0l0,0h0v0h.71l0,0h0l0,0h0l0,0h0v0H256v0h.74l0,0h0l.2-.21h0l0,0h0l.05-.05h.15l-1.41-1.43Zm-9.8,22.91v.5a32.65,32.65,0,0,0,2.26,12l1.86-.73q-.39-1-.72-2h0l0-.09h0v0h0v0h-.08l0-.06h0l0-.1h0v0h0a30.17,30.17,0,0,1-1-5.58h0a1.1,1.1,0,0,1,0-.18h0v-.15h0v0h0v-.09h0v-.09h0v-.08h0v-.07h0v-.07h0v0h0v0h0v0h0v0h0v0h0v0h0v-.06h0v-.28l-2,0Zm10.54,21.81-1.44,1.38a32.64,32.64,0,0,0,10.37,7.32l.82-1.82a31.22,31.22,0,0,1-7.75-5h-.51c-.51-.46-1-1-1.49-1.45Zm33.14,7.59c-.69.26-1.38.49-2.09.7h0l-.09,0h-1l-.06,0h-.24a30.54,30.54,0,0,1-4.19.71h-.19l-.2,0h0l-.18,0H278l-.06,2h1a32.93,32.93,0,0,0,11.52-2.07l-.7-1.88Zm17.17-15.9a31,31,0,0,1-7,9.64l1.36,1.46a32.64,32.64,0,0,0,7.48-10.26l-1.81-.84Zm3-24-1.89.67a30.39,30.39,0,0,1,1.7,8h0v.07h0v0h0v0h0v.07h0v.06h0v.06h0v0h0v0h0v0h0v0h0v.06h0v0h0v0h0v0h0v0h0v0h0v0h0v0h0v0h0v0h0v0h0v0h0v0h0v0h0v0h0v0h0v0h0v0h0v0h0v0h0v0h0v0h0c0,.22,0,.43,0,.65l2,.09c0-.5,0-1,0-1.51a32.87,32.87,0,0,0-1.9-11Zm-16.66-18.54-.87,1.8a30.37,30.37,0,0,1,3,1.67h.26l.07,0h0l0,0h0l.1.06h.6a30.52,30.52,0,0,1,5.47,4.8l1.49-1.34a33,33,0,0,0-10.15-7.63Zm-14.29-3.27v2h.49c.47,0,.93,0,1.39.05l.12-2c-.66-.05-1.34-.07-2-.07Z"/><path class="cls-1" d="M968.91,852.71a45.76,45.76,0,1,0,45.75,45.76A45.81,45.81,0,0,0,968.91,852.71Zm34.27,72.47a26.77,26.77,0,0,1-9.3,9.3l-5.82-5.82a35.56,35.56,0,0,1-12.71,5v8.13a26.77,26.77,0,0,1-13.15,0v-8.18a35.58,35.58,0,0,1-13.86-5.88l-5.52,5.51a26.77,26.77,0,0,1-9.3-9.3l5.63-5.63a35.62,35.62,0,0,1-5.52-14h-7.94a26.81,26.81,0,0,1,0-13.16h8.21a35.59,35.59,0,0,1,6.22-13.91l-5.75-5.74a25.27,25.27,0,0,1,4.07-5.23,25.58,25.58,0,0,1,5.23-4.07l6.08,6.07a35.48,35.48,0,0,1,12.45-4.94v-8.43a26.77,26.77,0,0,1,13.15,0v8.38a35.72,35.72,0,0,1,14.21,6l5.58-5.58a26.91,26.91,0,0,1,9.3,9.31l-5.72,5.71a35.7,35.7,0,0,1,5.27,12.81h7.74a26.77,26.77,0,0,1,0,13.15h-7.62a35.53,35.53,0,0,1-6.42,15Z"/><path class="cls-1" d="M968.91,865.62a32.66,32.66,0,0,0-12.46,2.44l.75,1.85a30.73,30.73,0,0,1,4.74-1.5h0l.29-.07h.17l.21,0h.19l.21,0h.26l.12,0h.32l.07,0h5.1v-2Zm-23.06,9.44a32.89,32.89,0,0,0-7.16,10.49l1.84.78a31.1,31.1,0,0,1,1.52-3.06h0l0-.08h.49v0h0l0-.08h0v0h.66l.08-.12h.67v0h0v0h0v0h0a1.13,1.13,0,0,0,.1-.13h0l0,0h0l0,0H945v0h0l0,0h0l0,0h0l0,0h0v0h.71l0,0h0l0,0h0l0,0h0v0h0v0h.77l.2-.21h0l0,0h0l.05,0h.15l-1.41-1.43ZM936.05,898v.5a32.65,32.65,0,0,0,2.26,12l1.86-.73q-.39-1-.72-2h0l0-.09h0v0h0v0h-.08l0-.06h0l0-.1h0v0h0a30.17,30.17,0,0,1-1-5.58h0a1.1,1.1,0,0,1,0-.18h0v-.15h0v-.1h0v-.09h0v-.08h0v-.07h0V900h0v0h0v-.05h0v0h0v0h0v0h0v-.06h0V898l-2,0Zm10.54,21.81-1.44,1.38a32.64,32.64,0,0,0,10.37,7.32l.82-1.82a31.22,31.22,0,0,1-7.75-5h-.48l0,0h0c-.51-.46-1-1-1.49-1.45Zm33.14,7.59c-.69.26-1.38.49-2.09.7h0l-.09,0h-1l-.06,0h-.14l-.06,0h0a32.16,32.16,0,0,1-4.19.72h-.4l-.18,0H968l-.06,2,1,0a32.71,32.71,0,0,0,11.52-2.08l-.7-1.88Zm17.17-15.9a31,31,0,0,1-7,9.64l1.36,1.46a32.64,32.64,0,0,0,7.48-10.26l-1.81-.84Zm3-24.05-1.89.67a30.39,30.39,0,0,1,1.7,8h0v.07h0v0h0v0h0v0h0v.06h0v.06h0v.06h0v0h0v0h0v.05h0v.06h0v0h0v0h0v0h0v0h0v0h0v0h0v0h0v0h0v0h0v0h0v0h0v0h0v0h0v0h0v0h0v0h0v0h0v.05h0c0,.22,0,.43,0,.65l2,.09c0-.5,0-1,0-1.51a32.87,32.87,0,0,0-1.9-11.05ZM983.2,868.88l-.87,1.8a30.37,30.37,0,0,1,3,1.67h.26l.07,0h0l0,0h0l.1.06h.6a30.52,30.52,0,0,1,5.47,4.8l1.49-1.33a32.88,32.88,0,0,0-10.15-7.64Zm-14.29-3.26v2h.49c.47,0,.93,0,1.39,0l.12-2c-.66,0-1.34-.06-2-.06Z"/><path class="cls-1" d="M1083.91,852.71a45.76,45.76,0,1,0,45.75,45.76A45.81,45.81,0,0,0,1083.91,852.71Zm34.27,72.47a26.77,26.77,0,0,1-9.3,9.3l-5.82-5.82a35.56,35.56,0,0,1-12.71,5v8.13a26.77,26.77,0,0,1-13.15,0v-8.18a35.58,35.58,0,0,1-13.86-5.88l-5.52,5.51a26.77,26.77,0,0,1-9.3-9.3l5.63-5.63a35.62,35.62,0,0,1-5.52-14h-7.94a26.81,26.81,0,0,1,0-13.16h8.21a35.59,35.59,0,0,1,6.22-13.91l-5.75-5.74a25.27,25.27,0,0,1,4.07-5.23,25.58,25.58,0,0,1,5.23-4.07l6.08,6.07a35.48,35.48,0,0,1,12.45-4.94v-8.43a26.77,26.77,0,0,1,13.15,0v8.38a35.72,35.72,0,0,1,14.21,6l5.58-5.58a26.91,26.91,0,0,1,9.3,9.31l-5.72,5.71a35.7,35.7,0,0,1,5.27,12.81h7.74a26.77,26.77,0,0,1,0,13.15h-7.62a35.53,35.53,0,0,1-6.42,15Z"/><path class="cls-1" d="M1083.91,865.62a32.66,32.66,0,0,0-12.46,2.44l.75,1.85a30.73,30.73,0,0,1,4.74-1.5h0l.29-.07h.17l.21,0h.19l.21,0h.26l.12,0h.32l.07,0h5.1v-2Zm-23.06,9.44a32.89,32.89,0,0,0-7.16,10.49l1.84.78a31.1,31.1,0,0,1,1.52-3.06h0l0-.08h.49v0h0l.05-.08h0v0h.66l.08-.12h.67v0h0v0h0v0h0a1.13,1.13,0,0,0,.1-.13h0l0,0h0l0,0h.73v0h0l0,0h0l0,0h0l0,0h0v0h.71l0,0h0l0,0h0l0,0h0v0h0v0h.77l.2-.21h0l0,0h0l0,0h.15l-1.41-1.43Zm-9.8,22.91v.5a32.65,32.65,0,0,0,2.26,12l1.86-.73q-.39-1-.72-2h0l0-.09h0v0h0v0h-.08l0-.06h0l0-.1h0v0h0a30.17,30.17,0,0,1-1-5.58h0a1.1,1.1,0,0,1,0-.18h0v-.15h0v-.1h0v-.09h0v-.08h0v-.07h0V900h0v0h0v-.05h0v0h0v0h0v0h0v-.06h0V898l-2,0Zm10.54,21.81-1.44,1.38a32.64,32.64,0,0,0,10.37,7.32l.82-1.82a31.22,31.22,0,0,1-7.75-5h-.48l0,0h0c-.51-.46-1-1-1.49-1.45Zm33.14,7.59c-.69.26-1.38.49-2.09.7h0l-.09,0h-1l-.06,0h-.14l-.06,0h0a32.16,32.16,0,0,1-4.19.72h-.4l-.18,0H1083l-.06,2,1,0a32.71,32.71,0,0,0,11.52-2.08l-.7-1.88Zm17.17-15.9a31,31,0,0,1-7,9.64l1.36,1.46a32.64,32.64,0,0,0,7.48-10.26l-1.81-.84Zm3-24.05-1.89.67a30.39,30.39,0,0,1,1.7,8h0v.07h0v0h0v0h0v0h0v.06h0v.06h0v.06h0v0h0v0h0v.05h0v.06h0v0h0v0h0v0h0v0h0v0h0v0h0v0h0v0h0v0h0v0h0v0h0v0h0v0h0v0h0v0h0v0h0v0h0v.05h0c0,.22,0,.43,0,.65l2,.09c0-.5,0-1,0-1.51a32.87,32.87,0,0,0-1.9-11.05Zm-16.66-18.54-.87,1.8a30.37,30.37,0,0,1,3,1.67h.26l.07,0h0l0,0h0l.1.06h.6a30.52,30.52,0,0,1,5.47,4.8l1.49-1.33a32.88,32.88,0,0,0-10.15-7.64Zm-14.29-3.26v2h.49c.47,0,.93,0,1.39,0l.12-2c-.66,0-1.34-.06-2-.06Z"/><path class="cls-1" d="M858.29,884.07l1,8.76H848.5l1-8.76h8.77m1.78-2H847.74l-.2,1.77-1,8.76-.26,2.23h15.29l-.26-2.23-1-8.76-.2-1.77Z"/><path class="cls-1" d="M843.32,904.69a2.13,2.13,0,1,1-2.12,2.13,2.13,2.13,0,0,1,2.12-2.13m0-2a4.13,4.13,0,1,0,4.12,4.13,4.12,4.12,0,0,0-4.12-4.13Z"/><path class="cls-1" d="M876.1,897.89h-9.49l-.13-1.08-2-17.18-.21-1.77H843.54l-.21,1.77-2,17.18-.13,1.08H829.71v16.59h12.94a4.75,4.75,0,0,0,9.47,0H856a4.74,4.74,0,0,0,9.44,0H878.1V897.89Zm-30.78-18h17.17l2,17.18H843.32Zm2.06,37a2.76,2.76,0,0,1-2.73-2.39h5.47A2.77,2.77,0,0,1,847.38,916.87Zm13.34-.12a2.77,2.77,0,0,1-2.72-2.27h5.44A2.78,2.78,0,0,1,860.72,916.75Zm15.38-4.27H831.71V899.89H876.1Z"/><path class="cls-1" d="M864.49,904.69a2.13,2.13,0,1,1-2.12,2.13,2.13,2.13,0,0,1,2.12-2.13m0-2a4.13,4.13,0,1,0,4.13,4.13,4.13,4.13,0,0,0-4.13-4.13Z"/><path class="cls-1" d="M956.29,897v4.29H952V897h4.3m2-2H950v8.29h8.3V895Z"/><path class="cls-1" d="M986.49,897v4.29H982.2V897h4.29m2-2H980.2v8.29h8.29V895Z"/><path class="cls-1" d="M976.49,897v4.29H972.2V897h4.29m2-2H970.2v8.29h8.29V895Z"/><path class="cls-1" d="M966.49,897v4.29H962.2V897h4.29m2-2H960.2v8.29h8.29V895Z"/><path class="cls-1" d="M991.1,887.54H979.57l0,0,4.86-4.86,1.41-1.42-1.41-1.41-4.86-4.86-1.42-1.42-1.41,1.42-4.86,4.86-1.41,1.41,1.41,1.42,4.86,4.86.05,0H961.57l0,0,4.86-4.86,1.41-1.42-1.41-1.41-4.86-4.86-1.42-1.42-1.41,1.42-4.86,4.86-1.41,1.41,1.41,1.42,4.86,4.86.05,0H944.71v26.93h12.94a4.75,4.75,0,0,0,9.47,0H971a4.74,4.74,0,0,0,9.44,0H993.1V887.54Zm-17.76-6.33,4.86-4.86,4.86,4.86-4.86,4.86Zm-18,0,4.86-4.86,4.86,4.86-4.86,4.86Zm7,35.65a2.76,2.76,0,0,1-2.73-2.39h5.47A2.77,2.77,0,0,1,962.38,916.86Zm13.34-.13a2.76,2.76,0,0,1-2.72-2.26h5.44A2.77,2.77,0,0,1,975.72,916.73Zm15.38-4.26H946.71V889.54H991.1Z"/><path class="cls-1" d="M1099.43,898.55a8.75,8.75,0,0,0-1.63.16,16.45,16.45,0,0,0-3.71-4.12c-8-6.34-20.84-5.56-24.68-5.16v-5.84h7.36v-2.16H1059.9v2.16h7.36v15a8.49,8.49,0,1,0,2.15,0v-7.17c3.3-.34,16-1.21,23.44,4.72a14.31,14.31,0,0,1,3,3.2,8.47,8.47,0,1,0,3.6-.81ZM1074.94,907a6.48,6.48,0,1,1-7.68-6.37V907h2.15v-6.4A6.47,6.47,0,0,1,1074.94,907Zm24.49,6.48a6.48,6.48,0,0,1-2.6-12.42,16.67,16.67,0,0,1,1.61,6l2-.17a19.14,19.14,0,0,0-1.63-6.36q.32,0,.63,0a6.48,6.48,0,0,1,0,13Z"/><path class="cls-1" d="M38.19,1045.44a2.13,2.13,0,1,1-2.12,2.12,2.12,2.12,0,0,1,2.12-2.12m0-2a4.13,4.13,0,1,0,4.12,4.12,4.13,4.13,0,0,0-4.12-4.12Z"/><path class="cls-1" d="M59.36,1045.44a2.13,2.13,0,1,1-2.12,2.12,2.12,2.12,0,0,1,2.12-2.12m0-2a4.13,4.13,0,1,0,4.13,4.12,4.13,4.13,0,0,0-4.13-4.12Z"/><path class="cls-1" d="M58.36,1041.43H39.19v-12.09H58.36Zm-17.17-2H56.36v-8.09H41.19Z"/><path class="cls-1" d="M52,1018.86H45.78a16,16,0,0,0-16,16v16.44a4,4,0,0,0,4,4h3.87a4.75,4.75,0,0,0,9.46,0H51a4.75,4.75,0,0,0,9.43,0H64a4,4,0,0,0,4-4v-16.44A16,16,0,0,0,52,1018.86Zm-9.65,38.75a2.77,2.77,0,0,1-2.73-2.31h5.11v0h.35A2.78,2.78,0,0,1,42.38,1057.61Zm8.41-4.31h-4v-1.5h4Zm4.93,4.19A2.78,2.78,0,0,1,53,1055.3h5.42A2.78,2.78,0,0,1,55.72,1057.49ZM66,1051.3a2,2,0,0,1-2,2H52.79v-3.5h-8v3.5h-11a2,2,0,0,1-2-2v-16.44a14,14,0,0,1,14-14H52a14,14,0,0,1,14,14Z"/><rect class="cls-1" x="40.31" y="1023.93" width="17.05" height="2.33"/><path class="cls-1" d="M296.57,1056.17h-28a2.42,2.42,0,0,1-2.39-2.07l-8.81-15.58,35.15,5.52c5.86,0,8.17.51,7.81,3l-1,6.74A2.84,2.84,0,0,1,296.57,1056.17Z"/><path class="cls-1" d="M298.25,1040.4H277.19l6-8.14h9.93a5.13,5.13,0,0,1,5.13,5.13Z"/><rect class="cls-1" x="287.28" y="1022.31" width="4.83" height="8.63"/><path class="cls-1" d="M511.08,1000.79l-.1-5.86a.54.54,0,0,1,.18-.42.87.87,0,0,1,.61-.21.84.84,0,0,1,.66.26.56.56,0,0,1,.13.37v7.3a1.2,1.2,0,0,1-.24.77.91.91,0,0,1-.73.32,1.28,1.28,0,0,1-1.15-.72l-3.71-6.4.1,6.48a.59.59,0,0,1-.19.45.93.93,0,0,1-.61.2.78.78,0,0,1-.69-.31.64.64,0,0,1-.09-.34v-7.21a1.09,1.09,0,0,1,.61-1,1.37,1.37,0,0,1,.64-.15,1.43,1.43,0,0,1,1.3.81Z"/><path class="cls-1" d="M508.9,1074.22a4.18,4.18,0,0,1,2.07.52c.58.33.87.69.87,1.06a.7.7,0,0,1-.21.5.78.78,0,0,1-.58.24.9.9,0,0,1-.61-.3,2.16,2.16,0,0,0-1.54-.65,2.19,2.19,0,0,0-1.1.23.85.85,0,0,0-.49.79.94.94,0,0,0,.44.78,7.11,7.11,0,0,0,1.56.6,7.08,7.08,0,0,1,2.19.94,2.2,2.2,0,0,1,.88,1.81,2.33,2.33,0,0,1-1,2,4.1,4.1,0,0,1-2.42.65,4.46,4.46,0,0,1-2.48-.68c-.68-.43-1-.84-1-1.25a.68.68,0,0,1,.17-.45.71.71,0,0,1,.58-.29.72.72,0,0,1,.46.16,2.22,2.22,0,0,1,.25.24,2.83,2.83,0,0,0,2,.87,2.39,2.39,0,0,0,1.24-.29,1,1,0,0,0,.51-.86,1.06,1.06,0,0,0-.53-.92,8.78,8.78,0,0,0-1.64-.62,7.15,7.15,0,0,1-2-.88,2,2,0,0,1-.82-1.72,2.18,2.18,0,0,1,.67-1.6A3.4,3.4,0,0,1,508.9,1074.22Z"/><path class="cls-1" d="M481.37,1053.3l1.25-5.66a1.17,1.17,0,0,1,2.3,0l1.25,5.66,1.49-6.12a.68.68,0,0,1,.74-.55,1.13,1.13,0,0,1,.36.06.65.65,0,0,1,.51.65.75.75,0,0,1,0,.2l-1.85,7.19a1.09,1.09,0,0,1-1.16.92,1.14,1.14,0,0,1-.89-.37,1.37,1.37,0,0,1-.27-.57l-1.3-5.8-1.3,5.8a1.22,1.22,0,0,1-.31.61,1.16,1.16,0,0,1-.85.33,1.09,1.09,0,0,1-1.16-.92l-1.85-7.19a.75.75,0,0,1,0-.2.65.65,0,0,1,.39-.6,1.06,1.06,0,0,1,.49-.11.67.67,0,0,1,.73.55Z"/><path class="cls-1" d="M532.14,1052v2.18c0,.14.07.21.22.21h4.19a.54.54,0,0,1,.4.17.8.8,0,0,1,.18.54.67.67,0,0,1-.31.64.5.5,0,0,1-.27.07h-4.89a1,1,0,0,1-1.16-1.17v-6.42a1,1,0,0,1,1.16-1.17h4.71a.57.57,0,0,1,.37.14.75.75,0,0,1,.21.56.64.64,0,0,1-.31.61.5.5,0,0,1-.27.07h-4c-.15,0-.22.08-.22.23v2h3.71a.47.47,0,0,1,.34.13.73.73,0,0,1,.21.56.65.65,0,0,1-.28.6.46.46,0,0,1-.27.08Z"/><path class="cls-1" d="M522.53,1047.83c-.35,0-.66.62-.84,1.56H511.23l1-37.53-3.94-5.82-3.32,5.82,1,37.53h-9.79c-.18-.94-.49-1.56-.84-1.56-.55,0-1,1.54-1,3.43s.45,3.44,1,3.44c.33,0,.62-.56.8-1.41h10.81a47.19,47.19,0,0,0-.28,6.33c0,1.82,0,3.16.09,4.14a3,3,0,1,0,4,.07c.05-1,.09-2.39.09-4.29a46.87,46.87,0,0,0-.27-6.25h11.22c.18.85.47,1.41.8,1.41.55,0,1-1.54,1-3.44S523.08,1047.83,522.53,1047.83Z"/><path class="cls-1" d="M773,1049.76a3,3,0,0,0-2.3-.88c-.68-.75-1.62-1.75-3-3.1-1.72-1.72-2.89-2.8-3.68-3.48l8.16-8.16a.49.49,0,0,0,.41-.09.45.45,0,0,0,.08-.41l0-.05-.07-.06a6.64,6.64,0,0,0-1.79-2.62c-1.34-1.34-2.74-2.11-3.13-1.72s.2,1.46,1.24,2.63l-7.31,7.32L735,1011.06l-6.91-1.33,1.78,6.47L758,1042.86l-6.85,6.85c-1.17-1-2.29-1.59-2.63-1.25s.38,1.79,1.72,3.14,2.75,2.11,3.14,1.72a.45.45,0,0,0,.08-.41l7.88-7.87c.69.81,1.78,2,3.53,3.74,1.29,1.29,2.26,2.21,3,2.87a3,3,0,1,0,5.17-1.89Z"/><path class="cls-1" d="M656.09,1015.7H634.92c-.75,1.3-1.59,2.64-2.44,4h19.91l4.69,60.33H590.73l4.69-60.33h20.1c-.89-1.36-1.75-2.7-2.53-4H591.72L586.41,1084h75Z"/><path class="cls-1" d="M623.91,995c-7.45,0-13.49,5.69-13.49,12.72s13.74,19.72,13.74,29.78c0-10.18,13.23-22.75,13.23-29.78S631.36,995,623.91,995Zm.12,16.79a5.73,5.73,0,1,1,5.73-5.72A5.72,5.72,0,0,1,624,1011.83Z"/><path class="cls-1" d="M703.91,1035v26l16,14.29L735.79,1061v-26Zm27.5,13.5h-12v12h-12v-12h12v-12h12Z"/><path class="cls-1" d="M869.88,1062.79H848.34v4h17.54v9.9h-1.11a4.33,4.33,0,0,0-6.11,0h-6.18a4.33,4.33,0,0,0-6.11,0h-.81v-18.24H827.93v4h13.63v18.24h3.62a4.34,4.34,0,0,0,8.49,0h3.8a4.34,4.34,0,0,0,8.49,0h3.92Z"/><rect class="cls-1" x="834.9" y="1043.74" width="22.21" height="2.37" transform="translate(-198.92 1890.94) rotate(-90)"/><rect class="cls-1" x="843.33" y="1043.74" width="22.21" height="2.37" transform="translate(-190.5 1899.36) rotate(-90)"/><rect class="cls-1" x="850.7" y="1043.74" width="22.21" height="2.37" transform="translate(-183.13 1906.73) rotate(-90)"/><path class="cls-1" d="M1006.54,1031.84a37.64,37.64,0,1,0-65.47,25.31h0l-4.21,27.12H1001l-4.21-27.12A37.47,37.47,0,0,0,1006.54,1031.84Zm-11.91,27.44-.12.11Zm-.81-5c.37-.41.73-.82,1.07-1.25C994.55,1053.45,994.19,1053.86,993.82,1054.27Zm1.07-1.25c.35-.42.68-.86,1-1.3C995.57,1052.16,995.24,1052.6,994.89,1053Zm-26-54.7a33.52,33.52,0,0,1,27,53.4h0a31.69,31.69,0,0,1-2.08,2.55,33.52,33.52,0,0,1-50.9-1.24c.35.42.71.84,1.08,1.25-.74-.82-1.43-1.67-2.09-2.56h0c.33.44.66.88,1,1.3a33.52,33.52,0,0,1,26-54.7Zm-25.61,61.07-.12-.11Zm-.44,19.74,2.76-17.75a37.53,37.53,0,0,0,46.58,0l2.75,17.75Z"/><path class="cls-1" d="M86.54,1172.61a37.64,37.64,0,1,0-65.47,25.31h0L16.86,1225H81l-4.21-27.12A37.47,37.47,0,0,0,86.54,1172.61Zm-11.91,27.44-.12.11Zm-.81-5c.37-.41.73-.82,1.07-1.25C74.55,1194.22,74.19,1194.63,73.82,1195Zm1.07-1.25c.35-.42.68-.86,1-1.3C75.57,1192.93,75.24,1193.37,74.89,1193.79Zm-26-54.7a33.52,33.52,0,0,1,27,53.4h0c-.65.88-1.34,1.73-2.08,2.55a33.52,33.52,0,0,1-50.9-1.24c.35.42.71.84,1.08,1.25-.74-.82-1.43-1.67-2.09-2.56h0c.33.44.66.87,1,1.3a33.52,33.52,0,0,1,26-54.7ZM23.3,1200.16l-.12-.11Zm-.44,19.74,2.76-17.75a37.53,37.53,0,0,0,46.58,0L75,1219.9Z"/><path class="cls-1" d="M1121.54,1031.84a37.64,37.64,0,1,0-65.47,25.31h0l-4.21,27.12H1116l-4.21-27.12A37.47,37.47,0,0,0,1121.54,1031.84Zm-11.91,27.44-.12.11Zm-.81-5c.37-.41.73-.82,1.07-1.25C1109.55,1053.45,1109.19,1053.86,1108.82,1054.27Zm1.07-1.25c.35-.42.68-.86,1-1.3C1110.57,1052.16,1110.24,1052.6,1109.89,1053Zm-26-54.7a33.52,33.52,0,0,1,27,53.4h0a31.69,31.69,0,0,1-2.08,2.55,33.52,33.52,0,0,1-50.9-1.24c.35.42.71.84,1.08,1.25-.74-.82-1.43-1.67-2.09-2.56h0c.33.44.66.88,1,1.3a33.52,33.52,0,0,1,26-54.7Zm-25.61,61.07-.12-.11Zm-.44,19.74,2.76-17.75a37.53,37.53,0,0,0,46.58,0l2.75,17.75Z"/><circle class="cls-1" cx="968.91" cy="1031.99" r="12"/><path class="cls-1" d="M984.36,1039.51l9.63-7.27-9.44-7.12,1.59-11.37-11.09,1.55-6.14-8.14-7.13,9.43L950.42,1015l1.55,11.09-8.14,6.15,8.33,6.29-1.49,10.69,11-1.53,7.27,9.63,6.29-8.34,10.69,1.49Zm-29.45-13.32,8-8H975l8,8v11.6l-8.46,8.45H963.36l-8.45-8.45Z"/><path class="cls-1" d="M1108.43,1035.75c0-4.39-4.46-8-10.27-8.68a14.69,14.69,0,0,0-27.22-6c-5.44.5-9.69,4.6-9.69,9.57a8.66,8.66,0,0,0,1,4.11c-1.87,1.52-2.92,3.28-2.92,5.17,0,6,10.42,10.6,23.74,10.6s23.55-4.58,23.73-10.45A7,7,0,0,0,1108.43,1035.75Z"/><path class="cls-1" d="M68.1,1158.44a138.92,138.92,0,0,0-18.37-10.38l-.84-.4-.85.39c-19,8.76-26.79,14.39-26.79,19.44a2.56,2.56,0,0,0,1.25,2.3,2.62,2.62,0,0,0,1.29.34c1.34,0,2.94-1,5.35-2.39s5.84-3.47,7.94-3.52c8-.19,8.12,1.38,8.19,2.32a3.62,3.62,0,0,0,1.61,3.12V1190c0,3.57-2.57,6.29-4.86,6.33h0c-2.25,0-5-2.93-5.27-11.23l-4,.14c.52,13.91,7.09,15.09,9.28,15.09h.11c4.76-.09,8.78-4.82,8.78-10.33v-20.36a2.5,2.5,0,0,0,.72-.63,3.09,3.09,0,0,0,.34-2.82c0-.09,0-.2-.07-.3.52-.28,2.48-1,9.21-.71,1.88.07,4.63,1.54,6.85,2.72,2.9,1.55,5,2.66,6.79,2a2.82,2.82,0,0,0,1.66-1.73C77,1166.48,76.42,1164.12,68.1,1158.44Zm-6.87,2.77c-1,0-2-.06-2.85-.06-6.86,0-8.78,1.11-9.77,2.34l-.06.08c-1.24-2.22-4.33-3.53-11.57-3.35-2.74.06-5.93,1.76-8.69,3.38,3-2.47,9-6.16,20.58-11.52a123.31,123.31,0,0,1,19.94,11.78C66.36,1162.57,63.69,1161.3,61.23,1161.21Z"/><path class="cls-1" d="M194.46,1146.11c-10.68-10.68-17.16-9.18-17.16-9.18l-16.89,16.89c-6.85-3.61-12.79-4.43-15.67-1.55-3.76,3.76-1.23,12.71,5.58,22.1l5.13-5.13c-1.72-3.1-2.24-5.61-1.13-6.73,2.09-2.09,9.1,1.53,15.65,8.09s10.18,13.56,8.09,15.65c-1.11,1.11-3.63.59-6.73-1.13l-5.13,5.13c9.39,6.81,18.34,9.34,22.1,5.58,2.88-2.88,2.06-8.82-1.55-15.66l16.89-16.9S205.14,1156.79,194.46,1146.11Z"/><polygon class="cls-1" points="173.49 1182.26 158.31 1167.08 136.51 1188.88 136.51 1188.88 121.11 1204.29 136.28 1219.47 158.08 1197.66 158.08 1197.66 173.49 1182.26"/><polygon class="cls-1" points="272.35 1168.35 267.63 1168.35 267.63 1146.37 289.61 1146.37 289.61 1168.35 283.97 1168.35 283.97 1172.35 293.61 1172.35 293.61 1142.37 263.63 1142.37 263.63 1172.35 272.35 1172.35 272.35 1168.35"/><path class="cls-1" d="M305.11,1192.3c2.82-2.91,3.54-7.73,1.61-10.71h0c-1.93-3-5.82-3-8.63-.14l-4,4.13a6.54,6.54,0,0,1-6.26,1.21c-3.83-1.16-4.32-10.57-4.37-14v-16.9a5.11,5.11,0,0,0-5.1-5.1h-.43a5.11,5.11,0,0,0-5.09,5.1v18.83c-3.85.44-18.91,3.57-21.93,9.27-3.17,6,2.73,19,5.26,24.11a5.63,5.63,0,0,0-2.69,4.79v4.37a5.63,5.63,0,0,0,5.61,5.62h27.26a5.63,5.63,0,0,0,5.61-5.62v-4.37a5.49,5.49,0,0,0-.75-2.79l.63-4Z"/><rect class="cls-1" x="382.59" y="1217.34" width="22.15" height="5.04" rx="2.22" transform="translate(787.32 2439.73) rotate(180)"/><rect class="cls-1" x="382.58" y="1205.23" width="22.15" height="2.24" rx="0.99"/><rect class="cls-1" x="382.58" y="1209.24" width="22.15" height="2.24" rx="0.99"/><rect class="cls-1" x="382.58" y="1213.26" width="22.15" height="2.24" rx="0.99"/><path class="cls-1" d="M393.72,1135.19a28,28,0,0,0-28,28c0,8,7.92,21.48,13.31,32.72,5.08,10.56,7.39,7.76,14.88,7.76s9.7,2.8,14.67-7.76c5.29-11.24,13.09-24.76,13.09-32.72A28,28,0,0,0,393.72,1135.19Zm9.07,37.2c-1.08,1.12-4.53,3.53-7.68-.54,0,7.48,4.2,8.15,4.2,8.15H388.55s4.2-.67,4.2-8.15c-3.15,4.07-6.6,1.66-7.68.54s-3.35-5.86,0-11.35,8.86-6.36,8.86-9.35c0,3,5.51,3.86,8.86,9.35S403.87,1171.27,402.79,1172.39Z"/><path class="cls-1" d="M535.29,1210.93a40.74,40.74,0,0,1-10.79-1.49c-13.34-3.67-15.9-16.08-16.38-20.57l-23.21-7.53,11.38-.77s5.68-.57,13.6-7.3l1.11-.94c6.7-5.72,11.54-9.85,19.91-5.67,4.65,2.33,5.92,8.8,7.14,15.07,1.07,5.47,2.18,11.14,5.24,12.89,2.15,1.22,4.11,2.24,5.69,3.07,4.3,2.23,6.26,3.26,6.38,5.37a3,3,0,0,1-1.52,2.74A34.44,34.44,0,0,1,535.29,1210.93Zm-31.75-28.18,8.87,2.88v1.6c0,.58.22,14.38,13.26,18,11.78,3.24,20.43-.15,24.1-2.09-.82-.46-1.86-1-2.82-1.51-1.62-.84-3.62-1.88-5.85-3.15-4.81-2.75-6.11-9.42-7.37-15.87-1-5.22-2.07-10.61-4.79-12-5.49-2.75-8-1-15.07,5.07l-1.12,1A43.44,43.44,0,0,1,503.54,1182.75Z"/><rect class="cls-1" x="528.46" y="1208.62" width="4.4" height="15.93"/><polygon class="cls-1" points="535.18 1224.99 530.47 1219.85 525.01 1224.44 522.18 1221.07 530.86 1213.76 538.43 1222.01 535.18 1224.99"/><path class="cls-1" d="M535.86,1205.54a41.19,41.19,0,0,1-6.27-.51c-7.24-1.11-10.39-11.17-11.62-17.07l-.05-.21,4.28-1.06c0,.06,0,.19.08.37,1.68,8,4.66,13.11,8,13.62a27.56,27.56,0,0,0,10.59-.06l.61-.13.73,4.35-.42.08A26.33,26.33,0,0,1,535.86,1205.54Z"/><rect class="cls-1" x="513.07" y="1176.87" width="10.54" height="4.4" transform="translate(-81.06 39.07) rotate(-4)"/><path class="cls-1" d="M487.16,1167.7H484a.54.54,0,0,1-.41-.16.88.88,0,0,1-.22-.63.76.76,0,0,1,.31-.68.57.57,0,0,1,.32-.09h4.75a1,1,0,0,1,.63.2.75.75,0,0,1,.28.61,1.05,1.05,0,0,1-.27.68l-3.82,4.48h3.83a.57.57,0,0,1,.41.17.85.85,0,0,1,.24.65.78.78,0,0,1-.35.72.56.56,0,0,1-.3.08h-5.36a1,1,0,0,1-.63-.21.75.75,0,0,1-.27-.61,1.31,1.31,0,0,1,.33-.83Z"/><path class="cls-1" d="M496.25,1156.65h-3.12a.56.56,0,0,1-.41-.16.85.85,0,0,1-.22-.63.76.76,0,0,1,.31-.68.57.57,0,0,1,.32-.08h4.76a.91.91,0,0,1,.62.2.72.72,0,0,1,.28.6,1,1,0,0,1-.27.68l-3.82,4.49h3.83a.56.56,0,0,1,.41.16.85.85,0,0,1,.24.65.78.78,0,0,1-.35.72.48.48,0,0,1-.3.08h-5.36a1,1,0,0,1-.63-.21.73.73,0,0,1-.27-.61,1.29,1.29,0,0,1,.33-.82Z"/><path class="cls-1" d="M478.41,1144.41h-3.12a.55.55,0,0,1-.41-.17.85.85,0,0,1-.22-.63.76.76,0,0,1,.31-.68.57.57,0,0,1,.32-.08H480a.92.92,0,0,1,.63.2.72.72,0,0,1,.28.6,1,1,0,0,1-.27.68l-3.82,4.49h3.83a.56.56,0,0,1,.41.16.86.86,0,0,1,.24.66.77.77,0,0,1-.35.71.48.48,0,0,1-.3.08h-5.36a1,1,0,0,1-.63-.21.73.73,0,0,1-.27-.61,1.29,1.29,0,0,1,.33-.82Z"/><path d="M662.51,1150.69h0a21.47,21.47,0,0,0-30.27,0l-8.33,8.34-8.34-8.34a21.47,21.47,0,0,0-30.27,0h0a21.47,21.47,0,0,0,0,30.27l8.34,8.34,30.27,30.26,30.26-30.26,8.34-8.34A21.47,21.47,0,0,0,662.51,1150.69Zm-38.6,49.71A18.39,18.39,0,1,1,642.3,1182,18.39,18.39,0,0,1,623.91,1200.4Z"/><path class="cls-1" d="M624.83,1181.39h9.73a10.68,10.68,0,0,0-9.73-10Z"/><path class="cls-1" d="M623,1181.39v-10a10.67,10.67,0,0,0-9.73,10Z"/><path class="cls-1" d="M623,1183.23H613.3a10.67,10.67,0,0,0,9.69,9.41Z"/><path class="cls-1" d="M624.83,1183.23v9.41a10.67,10.67,0,0,0,9.68-9.41Z"/><polygon class="cls-1" points="740.64 1166.01 740.64 1176.28 746.43 1171.1 740.64 1166.01"/><polygon class="cls-1" points="740.64 1194.85 746.43 1189.76 740.64 1184.57 740.64 1194.85"/><path class="cls-1" d="M738.91,1135.77l-34.25,44.66,34.25,44.66,34.25-44.66Zm-2.14,67.61v-18.45l-7,6.28-2.58-2.88,8.83-7.9-8.83-7.91,2.58-2.88,7,6.29v-18.46l15.48,13.6-10.45,9.36,10.45,9.36Z"/><path class="cls-1" d="M861.16,1146s0-2-7.18-2-7.19,2-7.19,2V1135.9s0-2,7.19-2,7.18,2,7.18,2Z"/><path class="cls-1" d="M846.79,1214.05s0,2,7.19,2,7.18-2,7.18-2v10.07s0,2-7.18,2-7.19-2-7.19-2Z"/><path class="cls-1" d="M887.65,1187.58s2,0,2-7.19-2-7.18-2-7.18h10.07s1.95,0,1.95,7.18-1.95,7.19-1.95,7.19Z"/><path class="cls-1" d="M820.16,1173.21s-1.95,0-1.95,7.18,1.95,7.19,1.95,7.19H810.09s-2,0-2-7.19,2-7.18,2-7.18Z"/><path class="cls-1" d="M835.08,1151.22s-1.38-1.38-6.46,3.7-3.7,6.46-3.7,6.46l-7.12-7.12s-1.38-1.38,3.7-6.46,6.46-3.7,6.46-3.7Z"/><path class="cls-1" d="M882.42,1161.38s1.38-1.38-3.7-6.46-6.46-3.7-6.46-3.7l7.12-7.12s1.38-1.38,6.46,3.7,3.7,6.46,3.7,6.46Z"/><path class="cls-1" d="M872.26,1209.13s1.38,1.38,6.46-3.7,3.7-6.46,3.7-6.46l7.12,7.12s1.38,1.38-3.7,6.46-6.46,3.7-6.46,3.7Z"/><path class="cls-1" d="M824.92,1199s-1.38,1.38,3.7,6.46,6.46,3.7,6.46,3.7l-7.12,7.12s-1.38,1.38-6.46-3.7-3.7-6.46-3.7-6.46Z"/><path class="cls-1" d="M844.2,1174.75c-3.67,6-1.19,11.2,0,12.43s5,3.88,8.41-.59c0,8.2-4.6,8.93-4.6,8.93H859.8s-4.6-.73-4.6-8.93c3.45,4.47,7.23,1.82,8.42.59s3.66-6.42,0-12.43-9.71-7-9.71-10.25C853.91,1167.78,847.86,1168.73,844.2,1174.75Z"/><path class="cls-1" d="M1078.7,1180.13a11.51,11.51,0,1,0-14.1,15.21,7.54,7.54,0,0,0,2.74-.51l-2.74,11.1h13.81l-2.73-11.1a7.52,7.52,0,0,0,2.73.51,7.61,7.61,0,0,0,.29-15.21Z"/><path d="M948.75,1212.38h0a4.12,4.12,0,0,0-5.81,0l-1.6,1.6-1.6-1.6a4.12,4.12,0,0,0-5.81,0h0a4.12,4.12,0,0,0,0,5.81l1.6,1.6,5.81,5.82,5.81-5.82,1.6-1.6A4.12,4.12,0,0,0,948.75,1212.38Z"/><path d="M976.26,1212.38h0a4.12,4.12,0,0,0-5.81,0l-1.6,1.6-1.6-1.6a4.13,4.13,0,0,0-5.82,0h0a4.13,4.13,0,0,0,0,5.81l1.6,1.6,5.82,5.82,5.81-5.82,1.6-1.6A4.12,4.12,0,0,0,976.26,1212.38Z"/><path d="M1004.63,1212.38h0a4.12,4.12,0,0,0-5.81,0l-1.6,1.6-1.6-1.6a4.12,4.12,0,0,0-5.81,0h0a4.12,4.12,0,0,0,0,5.81l1.6,1.6,5.81,5.82,5.81-5.82,1.6-1.6A4.12,4.12,0,0,0,1004.63,1212.38Z"/><path class="cls-1" d="M976.68,1146.47a8.14,8.14,0,0,0,.47-2.72,8.3,8.3,0,1,0-16.6,0,8.13,8.13,0,0,0,.46,2.72,8.3,8.3,0,0,0,.31,16.59,8.4,8.4,0,0,0,3-.56l-3,12.1h15l-3-12.1a8.44,8.44,0,0,0,3,.56,8.3,8.3,0,0,0,.31-16.59Z"/><polygon points="996.79 1187.97 971.31 1187.97 971.31 1179.73 971.02 1179.73 966.67 1179.73 966.38 1179.73 966.38 1187.97 938.59 1187.97 938.59 1203.72 943.22 1203.72 943.22 1192.6 966.38 1192.6 966.38 1203.72 971.02 1203.72 971.02 1192.6 971.31 1192.6 994.47 1192.6 994.47 1203.72 999.1 1203.72 999.1 1187.97 996.79 1187.97"/><path d="M1087.88,1159l16.71-18.1-3.12-2.88-18,19.49-18-19.49-3.12,2.88,16.72,18.1h-40.58v58h90.87v-58Zm15.15,53.7h-60.31v-49.45H1103Zm16.74-23.38h-9.83v-9.83h9.83Zm-4.92-13.38a4.91,4.91,0,1,1,4.92-4.91A4.91,4.91,0,0,1,1114.85,1175.94Z"/><path class="cls-1" d="M180.21,1364.7H147.6a14,14,0,0,1-14-14v-59.9a14,14,0,0,1,14-14h32.61a14,14,0,0,1,14,14v59.9A14,14,0,0,1,180.21,1364.7Zm-32.61-83.85a10,10,0,0,0-10,10v59.9a10,10,0,0,0,10,10h32.61a10,10,0,0,0,10-10v-59.9a10,10,0,0,0-10-10Z"/><path class="cls-1" d="M295.21,1364.7H262.6a14,14,0,0,1-14-14v-59.9a14,14,0,0,1,14-14h32.61a14,14,0,0,1,14,14v59.9A14,14,0,0,1,295.21,1364.7Zm-32.61-83.85a10,10,0,0,0-10,10v59.9a10,10,0,0,0,10,10h32.61a10,10,0,0,0,10-10v-59.9a10,10,0,0,0-10-10Z"/><path class="cls-1" d="M410.21,1364.7H377.6a14,14,0,0,1-14-14v-59.9a14,14,0,0,1,14-14h32.61a14,14,0,0,1,14,14v59.9A14,14,0,0,1,410.21,1364.7Zm-32.61-83.85a10,10,0,0,0-10,10v59.9a10,10,0,0,0,10,10h32.61a10,10,0,0,0,10-10v-59.9a10,10,0,0,0-10-10Z"/><path class="cls-1" d="M48.91,1309.88a3.77,3.77,0,1,0,3.76,3.77A3.77,3.77,0,0,0,48.91,1309.88Zm0,5.66a2,2,0,1,1,1.86-2A1.91,1.91,0,0,1,48.88,1315.54Z"/><path class="cls-1" d="M48.91,1297.77a15.88,15.88,0,1,0,15.87,15.88A15.88,15.88,0,0,0,48.91,1297.77Zm0,23.65a7.77,7.77,0,1,1,7.76-7.77A7.78,7.78,0,0,1,48.91,1321.42Z"/><path class="cls-1" d="M48.91,1275.81C27.12,1275.81,22,1284,22,1284v55a43.65,43.65,0,0,0,28.08,9.21c17.19-.41,25.65-9.21,25.65-9.21v-55S70.69,1275.81,48.91,1275.81Zm0,57.71a19.88,19.88,0,1,1,19.87-19.87A19.9,19.9,0,0,1,48.91,1333.52Z"/><path class="cls-1" d="M166.91,1350.2h-2.67c-12,0-12-11.91-12-17v-15.78c0-5.08,0-17,12-17h2.67v10h-2.67a2.59,2.59,0,0,0-1.21.18c-.52.52-.79,2.82-.79,6.82v15.78c0,4,.27,6.3.8,6.83h0a2.74,2.74,0,0,0,1.2.17h2.67Z"/><path class="cls-1" d="M170.45,1299.54h2.42a2.37,2.37,0,0,1,2.37,2.37v6.36a2.38,2.38,0,0,1-2.37,2.38h-2.42a2.38,2.38,0,0,1-2.37-2.37v-6.36A2.37,2.37,0,0,1,170.45,1299.54Z"/><path class="cls-1" d="M170.45,1339.65h2.42a2.37,2.37,0,0,1,2.37,2.37v6.36a2.38,2.38,0,0,1-2.37,2.38h-2.42a2.38,2.38,0,0,1-2.37-2.37V1342A2.37,2.37,0,0,1,170.45,1339.65Z"/><path class="cls-1" d="M256.66,1288.9c0,.78,0,1.62-.1,2.4l-.35,4.76c0,.54-.27.72-.73.72s-.68-.2-.68-.59a2.37,2.37,0,0,1,0-.24l.66-7.27c.08-.86.43-1.16,1.07-1.16s1.09.29,1.35,1.15l1.27,4.23c.23.75.4,1.43.55,2.11h.09c.18-.68.4-1.36.62-2.08l1.33-4.26c.28-.88.64-1.15,1.29-1.15s1.1.3,1.17,1.14l.63,7.29c0,.12,0,.19,0,.24,0,.34-.28.59-.73.59a.68.68,0,0,1-.78-.72l-.31-4.54c-.06-.85-.1-1.75-.12-2.61h-.1c-.19.86-.41,1.63-.7,2.54l-1.3,4.08c-.23.72-.54,1-1.11,1s-.85-.23-1.08-1l-1.26-4.21c-.26-.87-.43-1.62-.61-2.41Z"/><rect class="cls-1" x="261.16" y="1313.2" width="35.5" height="24.44"/><rect class="cls-1" x="267.16" y="1301.54" width="2.33" height="10.67" rx="1.17"/><rect class="cls-1" x="274.16" y="1301.54" width="2.33" height="10.67" rx="1.17"/><rect class="cls-1" x="281.16" y="1301.54" width="2.33" height="10.67" rx="1.17"/><rect class="cls-1" x="288.16" y="1301.54" width="2.33" height="10.67" rx="1.17"/><rect class="cls-1" x="267.16" y="1338.65" width="2.33" height="10.67" rx="1.17"/><rect class="cls-1" x="274.16" y="1338.65" width="2.33" height="10.67" rx="1.17"/><rect class="cls-1" x="281.16" y="1338.65" width="2.33" height="10.67" rx="1.17"/><rect class="cls-1" x="288.16" y="1338.65" width="2.33" height="10.67" rx="1.17"/><path class="cls-1" d="M377.54,1288.21a.85.85,0,0,1,.44.72.71.71,0,0,1-.7.7.73.73,0,0,1-.57-.23,2.31,2.31,0,0,0-1.7-.71c-1.45,0-2.49,1.3-2.49,3.46s1.06,3.45,2.49,3.45a2.65,2.65,0,0,0,1.93-.71.76.76,0,0,1,.51-.2.64.64,0,0,1,.68.62.69.69,0,0,1-.27.56,4.2,4.2,0,0,1-2.85,1c-2.27,0-4-1.67-4-4.71s1.77-4.72,4-4.72A4.07,4.07,0,0,1,377.54,1288.21Z"/><path class="cls-1" d="M525.21,1364.7H492.6a14,14,0,0,1-14-14v-59.9a14,14,0,0,1,14-14h32.61a14,14,0,0,1,14,14v59.9A14,14,0,0,1,525.21,1364.7Zm-32.61-83.85a10,10,0,0,0-10,10v59.9a10,10,0,0,0,10,10h32.61a10,10,0,0,0,10-10v-59.9a10,10,0,0,0-10-10Z"/><path class="cls-1" d="M488.06,1288.9c0,.78,0,1.62-.1,2.4l-.35,4.76c0,.54-.27.72-.73.72s-.68-.2-.68-.59a2.37,2.37,0,0,1,0-.24l.66-7.27c.08-.86.43-1.16,1.07-1.16s1.09.29,1.35,1.15l1.27,4.23c.23.75.4,1.43.55,2.11h.09c.18-.68.39-1.36.62-2.08l1.33-4.26c.28-.88.64-1.15,1.29-1.15s1.1.3,1.17,1.14l.62,7.29a1.3,1.3,0,0,1,0,.24c0,.34-.28.59-.73.59a.68.68,0,0,1-.78-.72l-.32-4.54c-.06-.85-.09-1.75-.12-2.61h-.09c-.19.86-.41,1.63-.7,2.54l-1.3,4.08c-.23.72-.54,1-1.11,1s-.85-.23-1.08-1l-1.26-4.21c-.26-.87-.43-1.62-.61-2.41Z"/><rect class="cls-1" x="379.13" y="1329.36" width="1.75" height="7.99" rx="0.87" transform="translate(-953.34 1713.36) rotate(-90)"/><rect class="cls-1" x="379.13" y="1324.11" width="1.75" height="7.99" rx="0.87" transform="translate(-948.1 1708.11) rotate(-90)"/><rect class="cls-1" x="379.13" y="1318.87" width="1.75" height="7.99" rx="0.87" transform="translate(-942.86 1702.87) rotate(-90)"/><rect class="cls-1" x="379.13" y="1313.63" width="1.75" height="7.99" rx="0.87" transform="translate(-937.61 1697.63) rotate(-90)"/><rect class="cls-1" x="406.93" y="1329.36" width="1.75" height="7.99" rx="0.87" transform="translate(-925.55 1741.16) rotate(-90)"/><rect class="cls-1" x="406.93" y="1324.11" width="1.75" height="7.99" rx="0.87" transform="translate(-920.3 1735.91) rotate(-90)"/><rect class="cls-1" x="406.93" y="1318.87" width="1.75" height="7.99" rx="0.87" transform="translate(-915.06 1730.67) rotate(-90)"/><rect class="cls-1" x="406.93" y="1313.63" width="1.75" height="7.99" rx="0.87" transform="translate(-909.82 1725.43) rotate(-90)"/><rect class="cls-1" x="400.9" y="1339.32" width="1.75" height="7.99" rx="0.87" transform="translate(803.54 2686.63) rotate(-180)"/><rect class="cls-1" x="395.65" y="1339.32" width="1.75" height="7.99" rx="0.87" transform="translate(793.05 2686.63) rotate(-180)"/><rect class="cls-1" x="390.41" y="1339.32" width="1.75" height="7.99" rx="0.87" transform="translate(782.57 2686.63) rotate(180)"/><rect class="cls-1" x="385.17" y="1339.32" width="1.75" height="7.99" rx="0.87" transform="translate(772.08 2686.63) rotate(180)"/><rect class="cls-1" x="400.9" y="1303.54" width="1.75" height="7.99" rx="0.87" transform="translate(803.54 2615.06) rotate(180)"/><rect class="cls-1" x="395.65" y="1303.54" width="1.75" height="7.99" rx="0.87" transform="translate(793.05 2615.06) rotate(180)"/><rect class="cls-1" x="390.41" y="1303.54" width="1.75" height="7.99" rx="0.87" transform="translate(782.57 2615.06) rotate(180)"/><rect class="cls-1" x="385.17" y="1303.54" width="1.75" height="7.99" rx="0.87" transform="translate(772.08 2615.06) rotate(180)"/><path class="cls-1" d="M384.75,1312.13v26.59h18.31v-26.59Zm16.17,20.07H387v-13.89h13.92Z"/><rect class="cls-1" x="492.37" y="1307.37" width="16.06" height="10.91"/><rect class="cls-1" x="509.77" y="1307.37" width="15.62" height="10.91"/><path class="cls-1" d="M525.44,1319.72c0,8.55,0,32.48-16.53,32.48s-16.54-23.93-16.54-32.48"/><path class="cls-1" d="M640.21,1364.7H607.6a14,14,0,0,1-14-14v-59.9a14,14,0,0,1,14-14h32.61a14,14,0,0,1,14,14v59.9A14,14,0,0,1,640.21,1364.7Zm-32.61-83.85a10,10,0,0,0-10,10v59.9a10,10,0,0,0,10,10h32.61a10,10,0,0,0,10-10v-59.9a10,10,0,0,0-10-10Z"/><path class="cls-1" d="M606.17,1287.79a.7.7,0,0,1,.54-.27.73.73,0,0,1,.76.67.82.82,0,0,1-.26.6l-2.68,2.75,3.35,4a.73.73,0,0,1,.18.49.74.74,0,0,1-.76.7.66.66,0,0,1-.59-.25l-3.13-4-.6.61v3a.66.66,0,0,1-.73.69.67.67,0,0,1-.75-.69v-7.89a.67.67,0,0,1,.75-.68.65.65,0,0,1,.73.68v3.24Z"/><path class="cls-1" d="M602.16,1311.89v29.88h43.5v-29.88Zm10.58,3.65h6.33v6.33h-6.33Zm0,8.12h6.33V1330h-6.33Zm-1.67,14.46h-6.33v-6.33h6.33Zm0-8.13h-6.33v-6.33h6.33Zm0-8.12h-6.33v-6.33h6.33Zm16,16.25H612.74v-6.33h14.33Zm0-8.13h-6.33v-6.33h6.33Zm0-8.12h-6.33v-6.33h6.33Zm8,16.25h-6.33v-6.33h6.33Zm0-8.13h-6.33v-6.33h6.33Zm0-8.12h-6.33v-6.33h6.33Zm8.17,16.25h-6.33v-6.33h6.33Zm0-8.25h-6.33v-14.33h6.33Z"/><path class="cls-1" d="M738.91,1276.7c-21.44,0-26.44,8-26.44,8v54.15a43,43,0,0,0,27.63,9.05c16.91-.39,25.24-9.05,25.24-9.05v-54.15S760.34,1276.7,738.91,1276.7Zm-1.31,41.39,1.29,1.29-5.32,5.32-2.18-2.19-12.9,12.9-3.83-3.82,12.9-12.9-2.18-2.18,5.32-5.32,1.29,1.28,3.19-3.19,5.61,5.62ZM748,1310.3l-5.32,5.32-1.44-6.76-6.75-1.43,5.32-5.32,2.18,2.18L757.22,1289l3.82,3.82-15.26,15.26Z"/><path class="cls-1" d="M853.91,1276.7c-21.44,0-26.44,8-26.44,8v54.15a43,43,0,0,0,27.63,9.05c16.91-.39,25.24-9.05,25.24-9.05v-54.15S875.34,1276.7,853.91,1276.7Zm-8.36,37.43a4.46,4.46,0,0,1-.12,1l13.66,12.82a4.21,4.21,0,1,1-2.14,3.66,4.11,4.11,0,0,1,.45-1.85l-13.28-12.46a4.23,4.23,0,1,1,.09-6.22l13.11-11.41a4.28,4.28,0,0,1-.37-1.72,4.23,4.23,0,1,1,4.23,4.23,4.16,4.16,0,0,1-2.23-.65l-13.49,11.75A4.14,4.14,0,0,1,845.55,1314.13Z"/><path class="cls-1" d="M1082.18,1323.18l-15.9,4.26,2.46,2.46s-5.89,6.15-8.12,11.46a39.34,39.34,0,0,0-2,7.43,9.23,9.23,0,0,0-1.18-.09,8.17,8.17,0,1,0,3.84,1c2-3.51,4.28-7.3,5.85-8.88,3.26-3.26,8.36-4.16,8.36-4.16l2.46,2.46Z"/><path class="cls-1" d="M609.8,746.33V716.75s2.73-4.38,14.44-4.38,14.44,4.38,14.44,4.38v29.58s-4.55,4.73-13.79,4.95A23.48,23.48,0,0,1,609.8,746.33Z"/><path class="cls-1" d="M640.5,743.42v5.19l-.6.63c-.21.22-5.28,5.37-15.29,5.6H624a25.56,25.56,0,0,1-16-5.49l-.73-.64v-5.3c-4.83,2-7.86,4.85-7.86,8,0,6,10.95,10.93,24.46,10.93s24.45-4.89,24.45-10.93C648.36,748.27,645.33,745.42,640.5,743.42Z"/><path class="cls-1" d="M724.46,746.33V716.75s2.74-4.38,14.45-4.38,14.44,4.38,14.44,4.38v29.58s-4.55,4.73-13.79,4.95A23.53,23.53,0,0,1,724.46,746.33Z"/><path class="cls-1" d="M755.5,743.42v5.19l-.6.63c-.21.22-5.28,5.37-15.29,5.6H739a25.56,25.56,0,0,1-16-5.49l-.73-.64v-5.3c-4.83,2-7.86,4.85-7.86,8,0,6,10.95,10.93,24.46,10.93s24.45-4.89,24.45-10.93C763.36,748.27,760.33,745.42,755.5,743.42Z"/><path class="cls-1" d="M839.46,746.33V716.75s2.74-4.38,14.45-4.38,14.44,4.38,14.44,4.38v29.58s-4.55,4.73-13.79,4.95A23.53,23.53,0,0,1,839.46,746.33Z"/><path class="cls-1" d="M870.5,743.42v5.19l-.6.63c-.21.22-5.28,5.37-15.29,5.6H854a25.56,25.56,0,0,1-16-5.49l-.73-.64v-5.3c-4.83,2-7.86,4.85-7.86,8,0,6,10.95,10.93,24.46,10.93s24.45-4.89,24.45-10.93C878.36,748.27,875.33,745.42,870.5,743.42Z"/><path class="cls-1" d="M954.46,746.33V716.75s2.74-4.38,14.45-4.38,14.44,4.38,14.44,4.38v29.58s-4.55,4.73-13.79,4.95A23.53,23.53,0,0,1,954.46,746.33Z"/><path class="cls-1" d="M985.5,743.42v5.19l-.6.63c-.21.22-5.28,5.37-15.29,5.6H969a25.56,25.56,0,0,1-16-5.49l-.73-.64v-5.3c-4.83,2-7.86,4.85-7.86,8,0,6,10.95,10.93,24.46,10.93s24.45-4.89,24.45-10.93C993.36,748.27,990.33,745.42,985.5,743.42Z"/><path class="cls-1" d="M246.37,866.24a38,38,0,0,0,.61,5.25A41.74,41.74,0,1,1,306.23,930a37.38,37.38,0,0,0,5.32.47,45.74,45.74,0,0,0-65.18-64.18Z"/><path class="cls-1" d="M300.1,934.4a41.75,41.75,0,0,1-57.53-56.64A49.58,49.58,0,0,1,241.5,872a45.73,45.73,0,0,0,64.4,63.31A51.76,51.76,0,0,1,300.1,934.4Z"/><polygon class="cls-1" points="399.3 887.8 392.75 876.45 386.2 887.8 389.8 887.8 389.8 906.88 395.59 906.88 395.59 887.8 399.3 887.8"/><path class="cls-1" d="M420.15,869a8.77,8.77,0,0,0,0-.88c0-7.44-8.22-13.5-18.34-13.5a25.51,25.51,0,0,0-3.12.2,16.58,16.58,0,0,0-7.93-2,15.9,15.9,0,0,0-10.8,4,20.14,20.14,0,0,0-3.21-.25c-8.22,0-14.9,5-14.9,11.14a8.48,8.48,0,0,0,.33,2.34,6,6,0,0,0-1.31,3.65c0,7,12.48,11,26.09,11.7l2.26-3.91c-14.94-.42-24.35-4.76-24.35-7.79a2.72,2.72,0,0,1,1-1.8l1-1-.57-1.27a4.71,4.71,0,0,1-.43-1.95c0-3.87,5-7.14,10.9-7.14a15.7,15.7,0,0,1,3.44.37l1.13.25.78-.85a11.81,11.81,0,0,1,8.66-3.51,12.54,12.54,0,0,1,6.49,1.75l.63.38.72-.11a20.7,20.7,0,0,1,3.21-.25c7.78,0,14.34,4.35,14.34,9.5a5.63,5.63,0,0,1-.15,1.26l-.25,1.22,1,.76c.75.59,1.64,1.47,1.64,2.36,0,2.89-8.52,6.95-22.22,7.71l2.22,3.85c12.77-1,24-4.94,24-11.56A6.53,6.53,0,0,0,420.15,869Z"/><path class="cls-1" d="M512.35,891.52v4h4l-1.71,3c6.46.74,11.08,2.71,11.08,5,0,3-7.51,5.35-16.78,5.35s-16.79-2.39-16.79-5.35c0-2.31,4.62-4.28,11.08-5l-1.71-3h4.07v-4c-15.44.67-27.46,6-27.46,12.46,0,4.08,4.78,7.7,12.18,10v23.89s3.52,5.64,18.63,5.64,18.62-5.64,18.62-5.64V914c7.4-2.29,12.18-5.91,12.18-10C539.71,897.53,527.74,892.22,512.35,891.52Z"/><path class="cls-1" d="M537.4,869a8.77,8.77,0,0,0,0-.88c0-7.44-8.22-13.5-18.34-13.5a25.51,25.51,0,0,0-3.12.2,16.58,16.58,0,0,0-7.93-2,15.9,15.9,0,0,0-10.8,4,20.14,20.14,0,0,0-3.21-.25c-8.22,0-14.9,5-14.9,11.14a8.48,8.48,0,0,0,.33,2.34,6,6,0,0,0-1.31,3.65c0,7.2,13.29,11.21,27.4,11.76v-4c-14.39-.57-23.4-4.79-23.4-7.76a2.72,2.72,0,0,1,1-1.8l1-1-.57-1.27a4.71,4.71,0,0,1-.43-1.95c0-3.87,5-7.14,10.9-7.14a15.7,15.7,0,0,1,3.44.37l1.13.25.78-.85a11.81,11.81,0,0,1,8.66-3.51,12.54,12.54,0,0,1,6.49,1.75l.63.38.72-.11a20.7,20.7,0,0,1,3.21-.25c7.78,0,14.34,4.35,14.34,9.5a5.63,5.63,0,0,1-.15,1.26l-.25,1.22,1,.76c.75.59,1.64,1.47,1.64,2.36,0,3-9,7.16-23.31,7.76v4c14.08-.56,27.31-4.58,27.31-11.76A6.53,6.53,0,0,0,537.4,869Z"/><polygon class="cls-1" points="502.35 896.03 508.91 907.38 515.46 896.03 511.85 896.03 511.85 876.95 506.06 876.95 506.06 896.03 502.35 896.03"/><path class="cls-1" d="M396.09,891.52v6.76c7.67.5,13.44,2.66,13.44,5.24,0,3-7.51,5.35-16.78,5.35S376,906.48,376,903.52c0-2.57,5.72-4.72,13.33-5.23v-6.77c-15.39.7-27.35,6-27.35,12.46,0,4.08,4.78,7.7,12.17,10v23.89s3.53,5.64,18.63,5.64,18.63-5.64,18.63-5.64V914c7.39-2.29,12.17-5.91,12.17-10C423.55,897.52,411.53,892.19,396.09,891.52Z"/><path class="cls-1" d="M180.11,1054.15l-.14-.88a2.57,2.57,0,0,1-1.07,0L137.65,1044a2.54,2.54,0,0,1-1.9-1.74,2.59,2.59,0,0,1,.57-2.52l8.16-8.81a2.56,2.56,0,0,1,2.62-.72L159,1033.7l9.49-9.37,7.88,2.31-8.93,9.53,11.23,3.3,8.41-9.32.62.21a7.16,7.16,0,0,1,3.64,3.08h0a7.8,7.8,0,0,1,.75,4.74l0,.23Zm-33.74-22.05a.57.57,0,0,0-.42.19l-8.16,8.81a.56.56,0,0,0-.12.56.52.52,0,0,0,.42.39l41.24,9.26a.59.59,0,0,0,.59-.22l1.4-1.87v0l8.83-11.64a5.81,5.81,0,0,0-.58-3.2,4.79,4.79,0,0,0-1.95-1.87l-8.31,9.21-15.56-4.56,8.93-9.54-3.63-1.06-9.49,9.37-13-3.82A.41.41,0,0,0,146.37,1032.1Z"/><path class="cls-1" d="M383.47,1022.48v-21.37s2-3.16,10.44-3.16,10.43,3.16,10.43,3.16v21.37s-3.29,3.42-10,3.57A17,17,0,0,1,383.47,1022.48Z"/><path class="cls-1" d="M405.89,1019.35v3.75l-.43.46c-.16.15-3.82,3.88-11,4H394a18.32,18.32,0,0,1-11.52-4l-.53-.46v-3.83c-3.49,1.45-5.68,3.51-5.68,5.8,0,4.36,7.91,7.89,17.67,7.89s17.66-3.53,17.66-7.89C411.57,1022.86,409.38,1020.8,405.89,1019.35Z"/><path class="cls-1" d="M613.47,1063v-21.37s2-3.16,10.44-3.16,10.43,3.16,10.43,3.16V1063s-3.29,3.42-10,3.57A17,17,0,0,1,613.47,1063Z"/><path class="cls-1" d="M635.89,1059.85v3.75l-.43.46c-.16.15-3.82,3.88-11.05,4H624a18.32,18.32,0,0,1-11.52-4l-.53-.46v-3.83c-3.49,1.45-5.68,3.51-5.68,5.8,0,4.36,7.91,7.89,17.67,7.89s17.66-3.53,17.66-7.89C641.57,1063.36,639.38,1061.3,635.89,1059.85Z"/><path class="cls-1" d="M408.4,1035.91H387.8v0H370.66v-5.58H361v15.23H380.4v15.9l-16.22,16.22,6.82,6.82,14.5-14.5h12.78l5.75,10,0,.07,16.75,4.49,1.88-7-10.52-2.82-3.72-6.45v-22.64h12.75v5.58h9.65v-15.23Zm-7.41,8.27-6.33-2-6.33,2v-5.84l6.33,2,6.33-2Z"/><path class="cls-1" d="M431.54,750.31a37.64,37.64,0,1,0-65.47,25.31h0l-4.21,27.13H426l-4.21-27.13A37.45,37.45,0,0,0,431.54,750.31Zm-11.91,27.44-.12.11Zm-.81-5c.37-.41.73-.82,1.07-1.24C419.55,771.91,419.19,772.32,418.82,772.73Zm1.07-1.25c.35-.42.68-.85,1-1.29C420.57,770.63,420.24,771.06,419.89,771.48Zm-26-54.7a33.53,33.53,0,0,1,27,53.41h0a31.54,31.54,0,0,1-2.08,2.54,33.52,33.52,0,0,1-50.9-1.24c.35.43.71.84,1.08,1.25-.74-.82-1.43-1.67-2.09-2.55h0c.33.44.66.87,1,1.29a33.52,33.52,0,0,1,26-54.7ZM368.3,777.86l-.12-.11Zm-.44,19.73,2.76-17.75a37.53,37.53,0,0,0,46.58,0L420,797.59Z"/><path class="cls-1" d="M145.09,1288c2,0,2.85.88,2.85,2.43s-1.1,2.48-2.92,2.48H143.1v3.4a.53.53,0,0,1-.55.57.51.51,0,0,1-.55-.57v-6.82c0-1.07.41-1.49,1.44-1.49ZM145,1292a1.58,1.58,0,0,0,1.78-1.63c0-1-.54-1.57-1.71-1.57H143.7a.58.58,0,0,0-.6.65V1292Z"/><path d="M292.86,901.28c15.08-2.2,21.34-7.59,22.82-9.08a18,18,0,0,0,0-6.08c-4.12,2.77-11.77,6.43-24.62,7.87A23.92,23.92,0,0,1,292.86,901.28Z"/><path d="M273.44,890.46c1.89.1,3.87.16,6,.16,1.72,0,3.36,0,4.93-.11a22.14,22.14,0,0,0-5.47-4.76A22.1,22.1,0,0,0,273.44,890.46Z"/><path d="M270.91,894.31a20.11,20.11,0,0,0-2.07,7.45c3,.29,6.36.46,10,.46s7-.17,10-.46a20,20,0,0,0-2-7.39c-2.33.16-4.8.25-7.45.25C276.36,894.62,273.54,894.51,270.91,894.31Z"/><path d="M301.67,910.74l2.23-2.24,6.9-6.9a18.08,18.08,0,0,0,2-2.45c-4.11,2.3-10.5,4.83-19.93,6.15a36.34,36.34,0,0,1-1.34,7.63A67.26,67.26,0,0,0,301.67,910.74Z"/><path d="M289.06,890.19c14.57-1.36,22.16-5.63,25.45-8.12a17.57,17.57,0,0,0-3.71-5.5h0a17.75,17.75,0,0,0-25,0L280.34,882A26,26,0,0,1,289.06,890.19Z"/><path d="M262,916.65l10.13,10.13a69.11,69.11,0,0,1-4.47-9.42C265.62,917.17,263.74,916.93,262,916.65Z"/><path d="M288.33,924.07l7.88-7.87c-1.87.36-3.87.68-6,.94a67.26,67.26,0,0,1-2.84,6.38c-1.12-.64-2.26-1.34-3.43-2.1.62-1.23,1.22-2.52,1.78-3.86-2.17.15-4.46.24-6.89.26-1.63-1.24-3.29-2.59-5-4.07,1.33,0,2.7.08,4.13.08,3.37,0,6.45-.15,9.28-.41a35.28,35.28,0,0,0,1.63-7.65c-3.05.29-6.37.45-10,.45s-6.94-.16-10-.43a32.11,32.11,0,0,0,.63,4c-.4-.39-.8-.76-1.2-1.16a107.29,107.29,0,0,1-7.21-8c1.2.24,2.44.46,3.78.65a24.2,24.2,0,0,1,1.81-7.39,72.18,72.18,0,0,1-12.21-2.48c-1.13-1.82-2.12-3.59-3-5.29a63.91,63.91,0,0,0,17.24,4,25.89,25.89,0,0,1,8.66-8.1L272,876.57a17.75,17.75,0,0,0-24.47-.52c-2.59-9.06-1.41-14.64-1.41-14.72l-4,.09c0,.38-1.82,7.82,1.78,19.32-.14.28-.3.56-.43.85.26.22.59.47.95.73a60,60,0,0,0,2.54,6.18,32.32,32.32,0,0,1-4.83-2.87,17.94,17.94,0,0,0,0,6.85c1,1,4.21,3.62,10.55,5.89q1.8,2.64,4,5.4a49.64,49.64,0,0,1-11.51-4.31,17.29,17.29,0,0,0,1.8,2.14l6.9,6.9,3,3A72.92,72.92,0,0,0,265,913a101.87,101.87,0,0,0,8.27,7.34,78.63,78.63,0,0,0,5.56,9.7c.7-1,1.58-2.4,2.53-4,19.56,12,33.75,8.55,34.29,8.56l.06-4C315.63,930.63,304.63,933.09,288.33,924.07Z"/><text class="cls-4" transform="translate(0 833.8)">コピ<tspan class="cls-5" x="24" y="0">ー&amp;</tspan><tspan x="49.81" y="0">ペースト</tspan></text><text class="cls-4" transform="translate(152.24 833.8)">拡大</text><text class="cls-4" transform="translate(267.57 833.8)">縮小</text><text class="cls-4" transform="translate(364.91 833.8)">ランキング</text><text class="cls-4" transform="translate(492.24 833.8)">カメラ</text><text class="cls-4" transform="translate(607.57 833.8)">ビデオ</text><text class="cls-4" transform="translate(722.91 833.8)">マイク</text><text class="cls-4" transform="translate(826.24 833.8)">音量上げる</text><text class="cls-4" transform="translate(941.57 833.8)">音量下げる</text><text class="cls-4" transform="translate(1038.91 833.8)">ブックマーク追加</text><text class="cls-4" transform="translate(0.91 972.3)">ブックマーク削除</text><text class="cls-4" transform="translate(158.24 972.3)">右</text><text class="cls-4" transform="translate(261.57 972.3)">ネット</text><text class="cls-4" transform="translate(361.82 972.3)">クラウ<tspan class="cls-5" x="36" y="0">ド</tspan><tspan x="51" y="0">UP</tspan></text><text class="cls-4" transform="translate(477.43 972.3)">クラウ<tspan class="cls-5" x="36" y="0">ド</tspan><tspan x="51" y="0">DL</tspan></text><text class="cls-4" transform="translate(589.57 972.3)">アップロード</text><text class="cls-4" transform="translate(704.91 972.3)">ダウンロード</text><text class="cls-4" transform="translate(850.24 972.3)">車</text><text class="cls-4" transform="translate(959.57 972.3)">電車</text><text class="cls-4" transform="translate(1068.91 972.3)">自転車</text><text class="cls-4" transform="translate(36.91 1112.79)">バス</text><text class="cls-4" transform="translate(146.24 1112.79)">飛行機</text><text class="cls-4" transform="translate(273.57 1112.79)">船</text><text class="cls-4" transform="translate(382.91 1112.79)">徒歩</text><text class="cls-4" transform="translate(486.24 1112.79)">コンパス</text><text class="cls-4" transform="translate(613.57 1112.79)">位置</text><text class="cls-4" transform="translate(704.91 1112.79)">セキュリティ</text><text class="cls-4" transform="translate(838.24 1112.79)">カート</text><text class="cls-4" transform="translate(959.57 1112.79)">晴れ</text><text class="cls-4" transform="translate(1068.91 1112.79)">くもり</text><text class="cls-4" transform="translate(42.91 1251.28)">雨</text><text class="cls-4" transform="translate(152.24 1251.28)">印刷</text><text class="cls-4" transform="translate(255.57 1251.28)">クリック</text><text class="cls-4" transform="translate(376.91 1251.28)">明るさ</text><text class="cls-4" transform="translate(492.24 1251.28)">睡眠中</text><text class="cls-4" transform="translate(595.57 1251.28)">ターゲット</text><text class="cls-4" transform="translate(698.91 1251.28)">ブルートゥース</text><text class="cls-4" transform="translate(820.24 1251.28)">ローディング</text><text class="cls-4" transform="translate(935.57 1251.28)">サイトマップ</text><text class="cls-4" transform="translate(1068.91 1251.28)">テレビ</text><text class="cls-4" transform="translate(36.8 1393.78)">DVD</text><text class="cls-4" transform="translate(152.24 1393.78)">電話</text><text class="cls-4" transform="translate(261.57 1393.78)">メモリ</text><text class="cls-4" transform="translate(383.59 1393.78)">CPU</text><text class="cls-4" transform="translate(492.24 1393.78)">マウス</text><text class="cls-4" transform="translate(595.57 1393.78)">キーボード</text><text class="cls-4" transform="translate(728.91 1393.78)">接続</text><text class="cls-4" transform="translate(844.24 1393.78)">共有</text><text class="cls-4" transform="translate(953.57 1393.78)">チーム</text><text class="cls-4" transform="translate(1050.91 1393.78)">ポップアップ</text></svg>