<svg id="レイヤー_1" data-name="レイヤー 1" xmlns="http://www.w3.org/2000/svg" viewBox="0 0 1127.68 1364.84"><defs><style>.cls-1{font-size:12px;font-family:KozGoPro-Regular-90ms-RKSJ-H, Kozuka Gothic Pro;}.cls-1,.cls-3,.cls-6,.cls-7,.cls-8{fill:#231815;}.cls-2{fill:#040000;}.cls-4{fill:#060001;}.cls-5{letter-spacing:0.25em;}.cls-6{font-size:60px;}.cls-6,.cls-8{font-family:MaruTodayStd-Medium-90ms-RKSJ-H, A-OTF Maru Today Std;}.cls-7{font-size:19.64px;font-family:MaruTodayStd-Ultra-90ms-RKSJ-H, A-OTF Maru Today Std;}.cls-8{font-size:69.56px;}</style></defs><title>matuba</title><text class="cls-1" transform="translate(18 104.86)">お気に入り</text><text class="cls-1" transform="translate(151.33 104.86)">再生</text><text class="cls-1" transform="translate(260.67 104.86)">再生中</text><text class="cls-1" transform="translate(382 104.86)">停止</text><text class="cls-1" transform="translate(485.33 104.86)">スキップ</text><text class="cls-1" transform="translate(594.67 104.86)">逆スキップ</text><text class="cls-1" transform="translate(722 104.86)">早送り</text><text class="cls-1" transform="translate(831.33 104.86)">巻き戻し</text><text class="cls-1" transform="translate(958.67 104.86)">音声</text><text class="cls-1" transform="translate(1062 104.86)">ミュート</text><text class="cls-1" transform="translate(18 243.35)">ヘッドホン</text><text class="cls-1" transform="translate(145.33 243.35)">メール</text><text class="cls-1" transform="translate(248.67 243.35)">メール送信</text><text class="cls-1" transform="translate(364 243.35)">メール受信</text><text class="cls-1" transform="translate(497.33 243.35)">電池</text><text class="cls-1" transform="translate(600.67 243.35)">リプライ</text><text class="cls-1" transform="translate(716 243.35)">リピート</text><text class="cls-1" transform="translate(831.33 243.35)">取り消し</text><text class="cls-1" transform="translate(958.67 243.35)">禁止</text><text class="cls-1" transform="translate(1074 243.35)">起動</text><text class="cls-1" transform="translate(0 383.85)">ストップウォッチ</text><text class="cls-1" transform="translate(139.33 383.85)">アラーム</text><text class="cls-1" transform="translate(260.67 383.85)">タイマ</text><text class="cls-1" transform="translate(382 383.85)">追加</text><text class="cls-1" transform="translate(497.33 383.85)">削除</text><text class="cls-1" transform="translate(588.67 383.85)">もう一度再生</text><text class="cls-1" transform="translate(728 383.85)">天気</text><text class="cls-1" transform="translate(831.33 383.85)">取り出し</text><text class="cls-1" transform="translate(946.67 383.85)">フォルダ</text><text class="cls-1" transform="translate(1068 383.85)">ごみ箱</text><text class="cls-1" transform="translate(24 522.34)">アンテナ</text><text class="cls-1" transform="translate(139.33 522.34)">チェック</text><text class="cls-1" transform="translate(254.67 522.34)">ピン止め</text><text class="cls-1" transform="translate(382 522.34)">縮小</text><text class="cls-1" transform="translate(497.33 522.34)">拡大</text><text class="cls-1" transform="translate(612.67 522.34)">検索</text><text class="cls-1" transform="translate(722 522.34)">マイク</text><text class="cls-1" transform="translate(845.68 522.34)">wifi</text><text class="cls-1" transform="translate(910.67 522.34)">ハンバーガーメニュー</text><text class="cls-1" transform="translate(1068 522.34)">ホーム</text><text class="cls-1" transform="translate(12 664.83)">システム更新</text><text class="cls-1" transform="translate(139.33 664.83)">クラウド</text><text class="cls-1" transform="translate(248.67 664.83)">キーパット</text><text class="cls-1" transform="translate(376 664.83)">右矢印</text><text class="cls-1" transform="translate(497.33 664.83)">上へ</text><text class="cls-1" transform="translate(594.67 664.83)">ロック解除</text><text class="cls-1" transform="translate(722 664.83)">ロック</text><text class="cls-1" transform="translate(843.33 664.83)">音楽</text><text class="cls-1" transform="translate(952.67 664.83)">フラグ</text><text class="cls-1" transform="translate(1062 664.83)">タグ付け</text><path class="cls-2" d="M157,4.82l27.85,16.12a9.2,9.2,0,0,1,0,15.93L157,52.93a9.2,9.2,0,0,1-13.79-8l0-32.19A9.2,9.2,0,0,1,157,4.82Z"/><rect class="cls-2" x="284.57" y="3.61" width="12.88" height="47.33" rx="6.44"/><rect class="cls-2" x="261.2" y="3.75" width="12.88" height="47.33" rx="6.44"/><rect class="cls-2" x="368.83" y="4.85" width="47.18" height="47.18" rx="8.54"/><path class="cls-2" d="M643.08,3l-21,14.53a12.39,12.39,0,0,0,0,20.39l21,14.49c5.26,3.63,11.84-.92,11.83-8.19l0-33C654.92,3.93,648.34-.61,643.08,3Z"/><rect class="cls-2" x="601.5" y="1.76" width="10.08" height="52.65" rx="5.04" transform="translate(1213.08 56.18) rotate(-180)"/><path class="cls-2" d="M495.38,3l22.16,15.33a11.43,11.43,0,0,1,0,18.79L495.33,52.44c-5.26,3.63-11.84-.92-11.83-8.19l0-33C483.54,3.93,490.12-.61,495.38,3Z"/><rect class="cls-2" x="526.88" y="1.76" width="10.08" height="52.65" rx="4.06"/><path class="cls-2" d="M963.3,10.55l-15.71,9.07a3.33,3.33,0,0,0-1-.17H936a3.35,3.35,0,0,0-3.35,3.36V33.38A3.35,3.35,0,0,0,936,36.73h10.57a3.28,3.28,0,0,0,1.13-.21l15.58,9a2.82,2.82,0,0,0,4.23-2.44V13A2.83,2.83,0,0,0,963.3,10.55Z"/><path class="cls-2" d="M970.78,17a2,2,0,0,0,0,2.83,11.79,11.79,0,0,1,0,16.67,2,2,0,1,0,2.83,2.83,15.82,15.82,0,0,0,0-22.33A2,2,0,0,0,970.78,17Z"/><path class="cls-2" d="M982.4,11.36a2,2,0,1,0-2.82,2.83,19.53,19.53,0,0,1,0,27.56,2,2,0,0,0,2.82,2.83A23.51,23.51,0,0,0,982.4,11.36Z"/><path class="cls-2" d="M992,5a2,2,0,0,0-2.83,2.83,26.77,26.77,0,0,1,0,37.81,2,2,0,0,0,0,2.83,2,2,0,0,0,2.83,0A30.75,30.75,0,0,0,992,5Z"/><path class="cls-2" d="M894.47,13.31a8,8,0,0,0-12-6.9l-24.16,14a8,8,0,0,0,0,13.82l24.19,13.93a8,8,0,0,0,12-6.92Z"/><path class="cls-2" d="M839.81,6.41l-24.16,14a8,8,0,0,0,0,13.82l24.19,13.93a8,8,0,0,0,12-6.92l0-27.91A8,8,0,0,0,839.81,6.41Z"/><path class="cls-2" d="M708.67,6.41l24.16,14a8,8,0,0,1,0,13.82L708.63,48.14a8,8,0,0,1-12-6.92l0-27.91A8,8,0,0,1,708.67,6.41Z"/><path class="cls-2" d="M751.35,6.41l24.17,14a8,8,0,0,1,0,13.82L751.31,48.14a8,8,0,0,1-11.95-6.92l0-27.91A8,8,0,0,1,751.35,6.41Z"/><path class="cls-3" d="M77.89,175.73c0-18-13-32.61-29.06-32.61s-29,14.62-29,32.61v2.52a4.23,4.23,0,0,0-.24,1.33v9.76a4.25,4.25,0,0,0,4.25,4.25h3.83a4.25,4.25,0,0,0,4.25-4.25v-9.76a4.26,4.26,0,0,0-4.25-4.25H23.79a4.24,4.24,0,0,0-1,.14c.13-16.21,11.76-29.35,26.05-29.35s26,13.22,26.05,29.49a4.23,4.23,0,0,0-1.48-.28H69.58a4.25,4.25,0,0,0-4.25,4.25v9.76a4.25,4.25,0,0,0,4.25,4.25H73.4a4.25,4.25,0,0,0,4.25-4.25v-.21h.24Z"/><path class="cls-4" d="M366.72,196.61l11-4.56a3.41,3.41,0,0,0,.77-5.85l-2.56-2,9.44-12.31a2.93,2.93,0,0,0-.54-4.1l-.17-.13a2.93,2.93,0,0,0-4.1.54l-9.43,12.31-2.09-1.6a3.4,3.4,0,0,0-5.45,2.25L362,193A3.41,3.41,0,0,0,366.72,196.61Z"/><path class="cls-2" d="M384.84,167.83l-.17-.13a2.9,2.9,0,0,0-1.78-.6,2.93,2.93,0,0,0-2.32,1.14l-4.46,5.83a5.15,5.15,0,0,0,4.78,3.22h.38l4.11-5.36A2.93,2.93,0,0,0,384.84,167.83Z"/><path class="cls-2" d="M401.68,156.33l21.67-14.82a5.15,5.15,0,0,0-.88-.09H380.89a5.15,5.15,0,0,0-.88.09Z"/><path class="cls-2" d="M403.09,161.42a2.48,2.48,0,0,1-2.82,0L376,144.86a5.21,5.21,0,0,0-.32,1.73v23l2.47-3.22a5.92,5.92,0,0,1,8.3-1.1l.17.13a5.92,5.92,0,0,1,1.1,8.3l-2.71,3.54h37.42a5.16,5.16,0,0,0,5.16-5.17V146.59a5,5,0,0,0-.32-1.73Z"/><path class="cls-2" d="M534.15,157.66h-4.39v-2.81a6.17,6.17,0,0,0-6.17-6.17H484a6.16,6.16,0,0,0-6.16,6.17v25.6a6.16,6.16,0,0,0,6.16,6.16h39.58a6.16,6.16,0,0,0,6.17-6.16v-2.82h4.39a4,4,0,0,0,4-4v-12A4,4,0,0,0,534.15,157.66Zm-34.84,24h-7v-28h7Zm12,0h-7v-28h7Zm11.48-.5h-7V153.67h7Z"/><path class="cls-2" d="M752.84,148.17l.07-4.43a4.41,4.41,0,0,0-6.55-3.93l-13.49,7.51a4.41,4.41,0,0,0-.12,7.63L746,162.87a4.4,4.4,0,0,0,6.67-3.71l.08-5c7.72.79,14,6.91,14,15,0,8.44-6.87,14.77-15.07,15.07-3.85.14-3.87,6.14,0,6,11.45-.42,21.07-9.29,21.07-21.07C772.74,157.77,763.76,149.13,752.84,148.17Z"/><path class="cls-2" d="M740.66,182.55l-13.61-7.26a4.41,4.41,0,0,0-6.48,4l.16,4.78c-7.65-.85-13.85-7-13.85-15,0-8.44,6.87-14.76,15.07-15.07,3.85-.14,3.87-6.14,0-6-11.45.42-21.07,9.29-21.07,21.07,0,11.42,9.06,20.09,20.06,21l.15,4.63a4.41,4.41,0,0,0,6.74,3.59l13.09-8.16A4.41,4.41,0,0,0,740.66,182.55Z"/><path class="cls-2" d="M967.53,138a31.24,31.24,0,1,0,31.24,31.24A31.28,31.28,0,0,0,967.53,138Zm-25.24,31.24a25.24,25.24,0,0,1,32.58-24.15l-22.88,44A25.2,25.2,0,0,1,942.29,169.26Zm25.24,25.24a25.1,25.1,0,0,1-7.55-1.15l22.91-44.09a25.22,25.22,0,0,1-15.36,45.24Z"/><path class="cls-2" d="M655.11,170.11c-1.28-10.25-9.73-17.44-19.7-18.3l.07-4.43a4.41,4.41,0,0,0-6.56-3.92L615.44,151a4.41,4.41,0,0,0-.12,7.63l13.24,7.93a4.41,4.41,0,0,0,6.67-3.72l.08-5c9.38,1,16.19,10,13.34,19.41-2.21,7.31-8.89,10.62-16.06,10.65-9.53,0-19.06,0-28.59,0-3.86,0-3.87,6,0,6h18.06c6,0,13,.84,18.81-1.08A21.23,21.23,0,0,0,655.11,170.11Z"/><path class="cls-2" d="M62.6,284.79a2.72,2.72,0,0,0,.32-1.24v-4.21a2.68,2.68,0,0,0-2.67-2.67H37.54a2.68,2.68,0,0,0-2.67,2.67v4.21a2.35,2.35,0,0,0,.06.54,33.43,33.43,0,1,0,27.67.7ZM48,342.29a27.43,27.43,0,1,1,27.43-27.43A27.47,27.47,0,0,1,48,342.29Z"/><path class="cls-2" d="M61.76,301.26,48.24,314.34l-8.14-7.68A3,3,0,1,0,36,311l10.22,9.64a3,3,0,0,0,4.14,0l15.58-15.06a3,3,0,0,0-4.17-4.32Z"/><path class="cls-2" d="M162.71,280.38a32.13,32.13,0,0,0-24.62,52.78l-5.65,5.65a2.67,2.67,0,0,0,0,3.77l2.69,2.69a2.66,2.66,0,0,0,3.78,0l6-6a32.06,32.06,0,0,0,35.39.15l5.85,5.84a2.65,2.65,0,0,0,3.77,0l2.69-2.69a2.67,2.67,0,0,0,0-3.77l-5.44-5.44a32.12,32.12,0,0,0-24.45-53Zm-26.14,32.15a26.15,26.15,0,1,1,26.14,26.15A26.18,26.18,0,0,1,136.57,312.53Z"/><rect class="cls-2" x="121.28" y="282.81" width="26.86" height="9.14" rx="2.67" transform="translate(-163.75 179.42) rotate(-45)"/><rect class="cls-2" x="186.72" y="273.95" width="9.14" height="26.86" rx="2.67" transform="translate(-147.18 219.43) rotate(-45)"/><path class="cls-2" d="M180.66,299.39a3,3,0,0,0-4.24-.08l-14,13.52-8.43-8a3,3,0,0,0-4.12,4.37l10.52,9.92a3,3,0,0,0,4.14,0l16-15.5A3,3,0,0,0,180.66,299.39Z"/><path class="cls-2" d="M280.83,276.59A34.39,34.39,0,1,0,315.22,311,34.43,34.43,0,0,0,280.83,276.59Zm21.78,52.58-3.83-3.83c-2.74-2.73-7,1.51-4.24,4.24l3.75,3.76a28.2,28.2,0,0,1-14.46,5.87v-5.46c0-3.86-6-3.86-6,0v5.46a28.27,28.27,0,0,1-14.47-5.87l3.76-3.76c2.73-2.73-1.51-7-4.24-4.24l-3.83,3.83a28.18,28.18,0,0,1-6.37-14.54h4.18c3.86,0,3.86-6,0-6h-4.32a28.24,28.24,0,0,1,5.14-14.06l3.35,3.35c2.73,2.73,7-1.51,4.24-4.24l-3.62-3.62a28.29,28.29,0,0,1,16.18-7.31v4.91c0,3.86,6,3.87,6,0v-4.91A28.18,28.18,0,0,1,298,288.38l-3.45,3.45c-2.74,2.74,1.5,7,4.24,4.25l3.57-3.58a28.37,28.37,0,0,1,6.56,14.28H304.8c-3.86,0-3.87,6,0,6h4.36A28.33,28.33,0,0,1,302.61,329.17Z"/><path class="cls-2" d="M293,298.1l-12.69,12.27-7.58-7.16a3,3,0,0,0-4.12,4.37l9.67,9.12a3,3,0,0,0,2.06.82,3,3,0,0,0,2.09-.84l14.74-14.27A3,3,0,0,0,293,298.1Z"/><path class="cls-2" d="M411.77,306H398.42V292.61a1.87,1.87,0,0,0-1.86-1.87h-3.47a1.87,1.87,0,0,0-1.87,1.87V306H377.87a1.87,1.87,0,0,0-1.86,1.87v3.47a1.87,1.87,0,0,0,1.86,1.87h13.35V326.5a1.87,1.87,0,0,0,1.87,1.87h3.47a1.87,1.87,0,0,0,1.86-1.87V313.16h13.35a1.87,1.87,0,0,0,1.87-1.87v-3.47A1.87,1.87,0,0,0,411.77,306Z"/><path class="cls-2" d="M394.82,345.37a35.82,35.82,0,1,1,35.81-35.81A35.86,35.86,0,0,1,394.82,345.37Zm0-65.63a29.82,29.82,0,1,0,29.81,29.82A29.85,29.85,0,0,0,394.82,279.74Z"/><rect class="cls-2" x="504.55" y="293.28" width="6.78" height="35.39" rx="1.87" transform="translate(818.92 -196.96) rotate(90)"/><path class="cls-2" d="M507.94,344.84A33.86,33.86,0,1,1,541.8,311,33.9,33.9,0,0,1,507.94,344.84Zm0-61.72A27.86,27.86,0,1,0,535.8,311,27.89,27.89,0,0,0,507.94,283.12Z"/><path class="cls-2" d="M661.54,305.1l-3.29-16.74a4.88,4.88,0,0,0-8-2.73l-4.18,3.65c-14.63-14.8-40.45-13.75-52.55,5-13,20.15-.18,47.86,23.4,51.35,13.61,2,26.64-4.55,33.87-16.06,2.06-3.28-3.13-6.29-5.18-3a27.64,27.64,0,1,1-32.37-40.43,27.7,27.7,0,0,1,28.34,7.07l-4.18,3.65a4.88,4.88,0,0,0,1.63,8.29l16.15,5.51A4.86,4.86,0,0,0,661.54,305.1Z"/><path class="cls-2" d="M618.84,301.29l14.22,8.23a4.69,4.69,0,0,1,0,8.13l-14.24,8.2a4.69,4.69,0,0,1-7-4.07V305.35A4.7,4.7,0,0,1,618.84,301.29Z"/><circle class="cls-2" cx="738.76" cy="311.35" r="14.11"/><rect class="cls-2" x="735.58" y="327.86" width="7.06" height="16.76" rx="2.44"/><rect class="cls-2" x="735.58" y="277.23" width="7.06" height="16.76" rx="2.44"/><rect class="cls-2" x="755.35" y="283.02" width="7.06" height="16.76" rx="2.44" transform="translate(428.32 -451.26) rotate(45)"/><rect class="cls-2" x="760.66" y="303.27" width="7.06" height="16.76" rx="2.44" transform="translate(1075.83 -452.54) rotate(90)"/><rect class="cls-2" x="754.09" y="323.57" width="7.06" height="16.76" rx="2.44" transform="translate(-12.82 632.95) rotate(-45)"/><rect class="cls-2" x="714.85" y="283.98" width="7.06" height="16.76" rx="2.44" transform="translate(1433.08 -8.88) rotate(135)"/><rect class="cls-2" x="716.97" y="322.12" width="7.06" height="16.76" rx="2.44" transform="translate(444.73 -412.67) rotate(45)"/><rect class="cls-2" x="708.29" y="302.84" width="7.06" height="16.76" rx="2.44" transform="translate(1023.03 -400.6) rotate(90)"/><path class="cls-2" d="M822.49,310.74l20.85-26.81c4.58-5.89,16-5.88,20.6,0l20.79,26.85c4.57,5.9-1.16,13.27-10.32,13.26l-41.63,0C823.63,324,817.91,316.63,822.49,310.74Z"/><rect class="cls-2" x="820.53" y="332.13" width="66.3" height="10.93" rx="5.46"/><path class="cls-2" d="M990.27,338.54H946.92a8.51,8.51,0,0,1-8.5-8.5V298a8.48,8.48,0,0,1,2-5.48c.08-.16.16-.32.25-.47l4.93-8.74a9,9,0,0,1,7.82-4.57H963a9,9,0,0,1,7.82,4.57l3.49,6.19h15.92a8.51,8.51,0,0,1,8.5,8.5v32A8.52,8.52,0,0,1,990.27,338.54Zm-36.85-53.79a3,3,0,0,0-2.59,1.52L945.89,295l-.15.32-.22.53-.39.41a2.48,2.48,0,0,0-.71,1.74v32a2.5,2.5,0,0,0,2.5,2.5h43.35a2.5,2.5,0,0,0,2.5-2.5V298a2.5,2.5,0,0,0-2.5-2.5H970.84l-5.21-9.24a3,3,0,0,0-2.59-1.52Z"/><path class="cls-2" d="M1108.76,297.56c0-3.86-6-3.86-6,0V328.9c0,2.89-.57,5-4,5.46-.64.08-1.29.14-2,.2V298.73c0-3.86-6-3.87-6,0V334.8c-3.21,0-6.47-.16-9.68-.29V298.73c0-3.86-6-3.87-6,0v35.63c-2.94,0-5.44-.18-5.92-3.83-.39-3,0-6.4,0-9.46V297.56c0-3.86-6-3.86-6,0V322c0,7.6-1.08,17.82,9.43,18.39,8.36.45,16.91.11,25.28,0,4.27-.06,8.25-1.37,10.06-5.66,1.15-2.73.75-6.11.75-9Z"/><path class="cls-2" d="M1109.4,285.36h-15.85v-3.46a2.33,2.33,0,0,0-2.33-2.34h-10.44a2.33,2.33,0,0,0-2.33,2.34v3.46H1062.6a2.17,2.17,0,0,0-2.17,2.17v3.22a2.17,2.17,0,0,0,2.17,2.17h46.8a2.17,2.17,0,0,0,2.17-2.17v-3.22A2.17,2.17,0,0,0,1109.4,285.36Z"/><path class="cls-2" d="M1118.58,439.44l-9.45-7.65V420a2,2,0,0,0-2-2h-4.63a2,2,0,0,0-2,2v4.8l-6.14-5c-3.72-3-13-3-16.72,0l-12.12,9.8-12.1,9.79c-3.14,2.54-.33,5.61,5.08,6.52V469.8a13,13,0,0,0,13,13h29.69a13,13,0,0,0,13-13v-24C1119.14,444.8,1121.59,441.88,1118.58,439.44Zm-37.73,37.36V464h11V476.8Zm20.33,0h-3.36V463.52a5.5,5.5,0,0,0-5.5-5.5h-12a5.5,5.5,0,0,0-5.5,5.5V476.8h-3.36a7,7,0,0,1-7-7V446.23h43.67V469.8A7,7,0,0,1,1101.18,476.8Z"/><path class="cls-2" d="M942,433.61H994c3.86,0,3.86-6,0-6H942C938.17,427.61,938.17,433.61,942,433.61Z"/><path class="cls-2" d="M994,470.89H942c-3.86,0-3.86,6,0,6H994C997.83,476.89,997.83,470.89,994,470.89Z"/><path class="cls-2" d="M994,449.25H942c-3.86,0-3.86,6,0,6H994C997.83,455.25,997.83,449.25,994,449.25Z"/><circle class="cls-2" cx="837.26" cy="470.64" r="7.49" transform="translate(-64.58 140.19) rotate(-9.22)"/><path class="cls-2" d="M835.72,450.18a3,3,0,0,0,0,6,15.75,15.75,0,0,1,15.73,15.73,3,3,0,1,0,6,0A21.75,21.75,0,0,0,835.72,450.18Z"/><path class="cls-2" d="M838.8,436.36a3,3,0,0,0,0,6A26.21,26.21,0,0,1,865,468.54a3,3,0,0,0,6,0A32.22,32.22,0,0,0,838.8,436.36Z"/><path class="cls-2" d="M841.87,421a3,3,0,1,0,0,6,36.08,36.08,0,0,1,36,36,3,3,0,0,0,6,0A42.08,42.08,0,0,0,841.87,421Z"/><rect class="cls-2" x="730.93" y="424.4" width="15.25" height="40.51" rx="4.33"/><path class="cls-2" d="M755.5,449.18c0-3.86-6-3.87-6,0,0,3.59.22,7.24,0,10.82-.42,6.92-6.1,6.68-11.25,6.68s-10.8.22-11.25-6.68c-.24-3.57,0-7.23,0-10.82,0-3.86-6-3.87-6,0,0,5-1,11.22,1,15.95,2.5,6.1,7.87,7.29,13.51,7.51v6.78h-7.9a1.33,1.33,0,0,0-1.33,1.33V483a1.32,1.32,0,0,0,1.33,1.33h22a1.33,1.33,0,0,0,1.33-1.33v-2.26a1.34,1.34,0,0,0-1.33-1.33H741v-6.78c5.51-.2,10.71-1.31,13.36-7.15C756.55,460.74,755.5,454.27,755.5,449.18Z"/><path class="cls-2" d="M651,470l-11.83-11.84a24.11,24.11,0,1,0-6.57,7.05l11.59,11.6a2.67,2.67,0,0,0,3.77,0l3-3A2.67,2.67,0,0,0,651,470Zm-50.37-24.33a18,18,0,1,1,18,18A18.05,18.05,0,0,1,600.59,445.62Z"/><path class="cls-2" d="M512.74,446.45h-8.51v-8.51a1.31,1.31,0,0,0-1.31-1.32h-2a1.32,1.32,0,0,0-1.32,1.32v8.51h-8.51a1.31,1.31,0,0,0-1.31,1.31v2a1.32,1.32,0,0,0,1.31,1.32h8.51v8.51a1.32,1.32,0,0,0,1.32,1.31h2a1.31,1.31,0,0,0,1.31-1.31V451.1h8.51a1.32,1.32,0,0,0,1.32-1.32v-2A1.31,1.31,0,0,0,512.74,446.45Z"/><path class="cls-2" d="M533.78,474l-12.23-12.23a24.25,24.25,0,1,0-6.71,6.65l12.26,12.25a2.67,2.67,0,0,0,3.77,0l2.91-2.9A2.67,2.67,0,0,0,533.78,474Zm-50.47-25.74a18.19,18.19,0,1,1,18.19,18.19A18.21,18.21,0,0,1,483.31,448.27Z"/><rect class="cls-2" x="376.93" y="447.71" width="24.7" height="4.73" rx="1.28"/><path class="cls-2" d="M422.05,474.54l-12.23-12.22a24.64,24.64,0,1,0-6.73,7.22l12,12a2.67,2.67,0,0,0,3.77,0l3.21-3.21A2.67,2.67,0,0,0,422.05,474.54Zm-51.72-25a18.54,18.54,0,1,1,18.53,18.54A18.56,18.56,0,0,1,370.33,449.57Z"/><path class="cls-2" d="M310.11,438.33l-18.76-18.76c-1.54-1.54-3.87-1.13-4.2.74l-.61,3.47a4.41,4.41,0,0,0-.81.63l-12.37,12.37-9.61,1.69c-2.26.4-2.75,3.21-.89,5.07l22.64,22.65c1.86,1.85,4.68,1.36,5.07-.89l1.42-8.1,13.26-13.26a4.71,4.71,0,0,0,.63-.8l3.49-.61C311.24,442.2,311.65,439.87,310.11,438.33Z"/><path class="cls-2" d="M269.09,455.65,252,472.74a2.67,2.67,0,1,0,3.77,3.77l17.08-17.09a2.67,2.67,0,1,0-3.77-3.77Z"/><path class="cls-2" d="M157.15,476.19a5,5,0,0,1-3.43-1.36l-22.3-21a5,5,0,0,1,6.86-7.28l18.83,17.77,30.56-29.56a5,5,0,0,1,7,7.18l-34,32.89A5,5,0,0,1,157.15,476.19Z"/><path class="cls-3" d="M71.5,419.76a4.49,4.49,0,0,0-4.5,4.5v52a4.5,4.5,0,0,0,9,0v-52A4.49,4.49,0,0,0,71.5,419.76Z"/><path class="cls-3" d="M50,434.83a4.5,4.5,0,0,0-4.5,4.5v37.18a4.5,4.5,0,0,0,9,0V439.33A4.5,4.5,0,0,0,50,434.83Z"/><path class="cls-3" d="M28.94,448.63a4.51,4.51,0,0,0-4.5,4.5v23.5a4.5,4.5,0,0,0,9,0v-23.5A4.5,4.5,0,0,0,28.94,448.63Z"/><path class="cls-3" d="M862.4,171.27l17.67-17.67a4.5,4.5,0,1,0-6.36-6.36L856,164.91l-17.67-17.67A4.5,4.5,0,1,0,832,153.6l17.67,17.67L832,188.94a4.5,4.5,0,0,0,6.37,6.37L856,177.63l17.67,17.68a4.5,4.5,0,1,0,6.36-6.37Z"/><path class="cls-2" d="M64.43,574.41c-3-5.58-10.76-9.36-19.71-9.36-11.75,0-21,6.26-21,14.25a8.65,8.65,0,0,0,.08,1.23c-5.89,2.54-9.58,7.15-9.58,12.2,0,3.6,2,9.83,5.81,12.8,1.67,3.46,5.44,8.58,10.41,8.58h9.88v-5H30.48c-2.11,0-4.82-3.22-6.12-6.21l-.29-.69-.63-.41c-2.32-1.51-4.18-6.2-4.18-9.07,0-3.43,3.26-6.67,8.3-8.26l2.53-.8-.95-2.48a5.17,5.17,0,0,1-.38-1.89c0-5,7.31-9.25,16-9.25,7.39,0,14.11,3.22,15.64,7.49l.52,1.46,1.54.18c10.44,1.27,18.32,6.49,18.32,12.15,0,3-2.21,8.49-5.82,10.7l-.62.38-.32.66c-1.42,2.93-4,6-6,6H57.71v5H67.94c5.32,0,9-5.93,10.22-8.22,4.7-3.29,7.58-10,7.58-14.56C85.74,583.17,77.05,576.34,64.43,574.41Z"/><path class="cls-2" d="M51.76,592.93a2.84,2.84,0,0,0-4.92,0l-5,8.61a2.84,2.84,0,0,0,2.45,4.27H47v13.65a1.75,1.75,0,0,0,1.75,1.75h1.56a1.75,1.75,0,0,0,1.75-1.75V605.82h2.21a2.84,2.84,0,0,0,2.46-4.26Z"/><path class="cls-2" d="M181.19,614.11H143.9c-4.92,0-8.69-5.16-10.36-8.65-3.79-3-5.79-9.23-5.79-12.86,0-5,3.67-9.62,9.53-12.15a10,10,0,0,1-.08-1.22c0-8,9.17-14.18,20.88-14.18,8.91,0,16.69,3.77,19.63,9.34,12.56,1.92,21.21,8.73,21.21,16.87,0,4.58-2.87,11.27-7.55,14.55C190.14,608.12,186.46,614.11,181.19,614.11Zm-23.11-44.06c-8.61,0-15.88,4.2-15.88,9.18a5.08,5.08,0,0,0,.38,1.88l.95,2.48-2.53.8c-5,1.59-8.25,4.81-8.25,8.21,0,2.58,1.74,7.55,4.15,9.13l.63.41.3.69c1.31,3,4,6.28,6.07,6.28h37.29c2,0,4.56-3.15,6-6.11l.32-.66.62-.38c3.59-2.21,5.79-7.72,5.79-10.7,0-5.65-7.84-10.85-18.23-12.1l-1.53-.19-.52-1.45C172.11,573.26,165.43,570.05,158.08,570.05Z"/><circle class="cls-2" cx="261.21" cy="572.13" r="6.71"/><circle class="cls-2" cx="278.67" cy="572.13" r="6.71"/><circle class="cls-2" cx="296.12" cy="607.03" r="6.71"/><circle class="cls-2" cx="278.67" cy="607.03" r="6.71"/><circle class="cls-2" cx="261.21" cy="589.58" r="6.71"/><circle class="cls-2" cx="261.21" cy="607.03" r="6.71"/><circle class="cls-2" cx="278.67" cy="589.58" r="6.71"/><circle class="cls-2" cx="296.12" cy="589.58" r="6.71"/><circle class="cls-2" cx="296.12" cy="572.13" r="6.71"/><path class="cls-2" d="M422.48,586.45l-18.91-10.94a6.24,6.24,0,0,0-9.36,5.4v5.9H366a5.56,5.56,0,0,0-5.55,5.55h0a5.56,5.56,0,0,0,5.55,5.55h28.23v4.83a6.23,6.23,0,0,0,9.35,5.41l18.93-10.9A6.25,6.25,0,0,0,422.48,586.45Z"/><path class="cls-2" d="M538.48,597.56l-26.67-19.75a4.52,4.52,0,0,0-5.27-.07l-28.13,19.75a4.5,4.5,0,1,0,5.18,7.37L509.06,587l24.07,17.82a4.5,4.5,0,1,0,5.35-7.23Z"/><path class="cls-2" d="M1095.06,150.33c10.43,6.57,15.54,19.34,11.49,31.2a26.44,26.44,0,0,1-50.07,0c-4.07-12,1.17-24.87,11.83-31.4,3.29-2,.28-7.2-3-5.18-20.38,12.47-21.57,42.46-1,55.51,19.06,12.13,45.49.44,49.21-21.86,2.24-13.4-4-26.27-15.36-33.45-3.27-2.06-6.29,3.12-3,5.18Z"/><path class="cls-3" d="M1081.51,170.76a4.5,4.5,0,0,1-4.5-4.5v-30.5a4.5,4.5,0,0,1,9,0v30.5A4.49,4.49,0,0,1,1081.51,170.76Z"/><path class="cls-2" d="M645.54,579.18H614.66c0-.86,0-1.71,0-2.55.41-12.18,16.08-14.31,21.12-3.84,1.93,4,7.88.5,6-3.49-5.63-11.68-21.74-14.1-30-3.79-3.24,4-3.94,8.78-3.92,13.67h-1a6.16,6.16,0,0,0-6.17,6.16v31.81a6.17,6.17,0,0,0,6.17,6.17h38.77a6.17,6.17,0,0,0,6.17-6.17V585.34A6.16,6.16,0,0,0,645.54,579.18Z"/><path class="cls-2" d="M760,579.91h-3.43c0-.15,0-.29,0-.43a15,15,0,1,0-30,0c0,.14,0,.28,0,.43H722a6.16,6.16,0,0,0-6.17,6.16V617.2a6.16,6.16,0,0,0,6.17,6.16h38a6.16,6.16,0,0,0,6.17-6.16V586.07A6.16,6.16,0,0,0,760,579.91Zm-27.42-.43a9,9,0,1,1,18,0c0,.14,0,.28,0,.43h-18C732.6,579.76,732.59,579.62,732.59,579.48Z"/><path class="cls-2" d="M876,564.13H838.17A4.17,4.17,0,0,0,834,568.3v17.39s0,.06,0,.09v23.67c-4.71.12-8.49,3.34-8.49,7.29s3.92,7.31,8.76,7.31,8.77-3.27,8.77-7.31V589.85h28.09v14.63c-4.71.12-8.49,3.34-8.49,7.3s3.92,7.3,8.76,7.3,8.77-3.27,8.77-7.3c0-.1,0-.2,0-.3h0V568.3A4.17,4.17,0,0,0,876,564.13Z"/><path class="cls-3" d="M992.94,573.64,959.55,562a12.67,12.67,0,0,0-7.33-.2,4.73,4.73,0,0,0-5.05,4.83v53.43c0,6.44,10,6.45,10,0V594.17a12.09,12.09,0,0,0,2.38-.55L992.94,582C998.28,580.15,998.28,575.5,992.94,573.64Z"/><path class="cls-2" d="M1110.62,591.74l-23.29-23.29a6.51,6.51,0,0,0-2-1.37c-7.86-3.38-21.9-8.2-27.58-2.51s-1.15,19.9,2,27.9a6.34,6.34,0,0,0,1.44,2.17l23.25,23.26a18.5,18.5,0,0,0,26.17-26.16Zm-4.25,21.92a12.52,12.52,0,0,1-17.68,0l-23.26-23.26a.38.38,0,0,1-.09-.15c-4-10.12-5.47-19.34-3.37-21.44a5.09,5.09,0,0,1,3.48-.9c4,0,10.52,1.69,17.49,4.68a.45.45,0,0,1,.14.1L1106.37,596A12.51,12.51,0,0,1,1106.37,613.66Z"/><circle class="cls-2" cx="1068.46" cy="575" r="4.07"/><path class="cls-2" d="M163,166.5l26.32-18a4.73,4.73,0,0,0-.93-.1H137.61a4.73,4.73,0,0,0-.93.1Z"/><path class="cls-2" d="M164.41,171.59a2.48,2.48,0,0,1-2.82,0l-28.84-19.71a5,5,0,0,0-.31,1.7v31.9a5.16,5.16,0,0,0,5.17,5.16h50.78a5.16,5.16,0,0,0,5.17-5.16v-31.9a5,5,0,0,0-.31-1.7Z"/><path class="cls-4" d="M310.28,137.36l-11,4.56a3.4,3.4,0,0,0-.78,5.84l2.56,2L291.61,162a2.92,2.92,0,0,0,.55,4.1l.17.13a2.92,2.92,0,0,0,4.09-.54l9.44-12.32L308,155a3.4,3.4,0,0,0,5.44-2.26L315,141A3.4,3.4,0,0,0,310.28,137.36Z"/><path class="cls-2" d="M294.1,166.87a2.9,2.9,0,0,0,2.32-1.14l3.35-4.38c0-.06,0-.12,0-.18l-7.42,5.08,0,0A2.93,2.93,0,0,0,294.1,166.87Z"/><path class="cls-2" d="M298.8,167.55a5.92,5.92,0,0,1-8.3,1.1l-.17-.13a5.88,5.88,0,0,1-.59-.53l-14.25,9.74a2.48,2.48,0,0,1-2.82,0l-24.22-16.56a5,5,0,0,0-.32,1.73v25.54a5.16,5.16,0,0,0,5.16,5.16h41.58a5.17,5.17,0,0,0,5.17-5.16v-22.5Z"/><path class="cls-2" d="M295.75,157.83a4.6,4.6,0,0,0-.84-.09l-1.07,1.39Z"/><path class="cls-2" d="M274.08,172.64l14-9.56a5.92,5.92,0,0,1,1.17-2.86l1.9-2.48H253.29a5.15,5.15,0,0,0-.88.09Z"/><path class="cls-2" d="M1101,40.79h0l-.59-.59L1062,1.87a3,3,0,0,0-4.24,0l-1.69,1.69a3,3,0,0,0,0,4.24l11.58,11.58,16.89,16.9L1104,55.65a3,3,0,0,0,4.24,0l1.69-1.69a3,3,0,0,0,0-4.24Z"/><path class="cls-2" d="M1055.36,20.23a3.35,3.35,0,0,0-3.35,3.35V33a3.35,3.35,0,0,0,3.35,3.35h9.44a3.17,3.17,0,0,0,1.2-.23l14.63,8.44a2.63,2.63,0,0,0,3.95-2.28V40.52l-20.29-20.29Z"/><path class="cls-2" d="M1084.58,14.19a2.63,2.63,0,0,0-3.95-2.28l-2.73,1.58,6.68,6.67Z"/><path class="cls-2" d="M1111.29,27a25.3,25.3,0,0,1-5.14,15.34l2.91,2.92a29.56,29.56,0,0,0-2.33-39.16,2.05,2.05,0,0,0-2.9,2.9A25.29,25.29,0,0,1,1111.29,27Z"/><path class="cls-2" d="M1100.68,28.21A18.6,18.6,0,0,1,1099.4,35l3.1,3.1a22.56,22.56,0,0,0-4.35-25.86,2,2,0,1,0-2.89,2.9A18.43,18.43,0,0,1,1100.68,28.21Z"/><path class="cls-2" d="M1089.86,25.45l4.12,4.11a16.09,16.09,0,0,0,.13-1.84,14.8,14.8,0,0,0-4.36-10.53,2,2,0,0,0-2.83,2.83A10.8,10.8,0,0,1,1089.86,25.45Z"/><path class="cls-2" d="M65.07,54.17,53.56,48.12a4,4,0,0,0-3.68,0L38.37,54.18A3.94,3.94,0,0,1,32.65,50l2.2-12.83a4,4,0,0,0-1.14-3.49l-9.32-9.08a4,4,0,0,1,2.19-6.73L39.46,16a3.91,3.91,0,0,0,3-2.15L48.18,2.2a4,4,0,0,1,7.08,0L61,13.87A4,4,0,0,0,64,16l12.88,1.87a4,4,0,0,1,2.19,6.73L69.73,33.7a4,4,0,0,0-1.14,3.49L70.79,50A3.94,3.94,0,0,1,65.07,54.17Z"/><text class="cls-1" transform="translate(5.35 800.86)">デスクトッ<tspan class="cls-5" x="60" y="0">プ</tspan><tspan x="75" y="0">PC</tspan></text><text class="cls-1" transform="translate(123.33 800.86)">スマートフォン</text><text class="cls-1" transform="translate(254.02 800.86)">ノー<tspan class="cls-5" x="24" y="0">ト</tspan><tspan x="39" y="0">PC</tspan></text><text class="cls-1" transform="translate(366 800.86)">十字矢印　</text><text class="cls-1" transform="translate(493.33 800.86)">リンク</text><text class="cls-1" transform="translate(596.67 800.86)">外部リンク</text><text class="cls-1" transform="translate(706 800.86)">アップロード</text><text class="cls-1" transform="translate(821.33 800.86)">ダウンロード</text><text class="cls-1" transform="translate(942.67 800.86)">あとでみる</text><text class="cls-1" transform="translate(1076 800.86)">履歴</text><text class="cls-1" transform="translate(26 939.35)">メンバー</text><text class="cls-1" transform="translate(141.33 939.35)">ユーザー</text><text class="cls-1" transform="translate(268.67 939.35)">画像</text><text class="cls-1" transform="translate(383.26 939.35)">HDD</text><text class="cls-1" transform="translate(499.33 939.35)">電話</text><text class="cls-1" transform="translate(608.67 939.35)">現在地</text><text class="cls-1" transform="translate(730 939.35)">共有</text><text class="cls-1" transform="translate(942.67 939.35)">ライブ配信</text><text class="cls-1" transform="translate(1064 939.35)">プリント</text><text class="cls-1" transform="translate(32 1079.85)">連絡先</text><text class="cls-1" transform="translate(129.33 1079.85)">ビデオカメラ</text><text class="cls-1" transform="translate(250.67 1079.85)">カレンダー</text><text class="cls-1" transform="translate(493.33 1079.85)">日本語</text><text class="cls-1" transform="translate(614.67 1079.85)">英語</text><text class="cls-1" transform="translate(730 1079.85)">電卓</text><text class="cls-1" transform="translate(851.33 1079.85)">金</text><text class="cls-1" transform="translate(930.67 1079.85)">フルスクリーン</text><text class="cls-1" transform="translate(1058 1079.85)">元の大きさ</text><text class="cls-1" transform="translate(20 1218.34)">クリップ　</text><text class="cls-1" transform="translate(129.33 1218.34)">ブロック表示</text><text class="cls-1" transform="translate(250.67 1218.34)">シャッフル</text><text class="cls-1" transform="translate(378 1218.34)">カメラ</text><text class="cls-1" transform="translate(499.33 1218.34)">メモ</text><text class="cls-1" transform="translate(608.67 1218.34)">リスト</text><text class="cls-1" transform="translate(712 1218.34)">買い物かご</text><text class="cls-1" transform="translate(845.33 1218.34)">通知</text><text class="cls-1" transform="translate(936.67 1218.34)">ブックマーク</text><text class="cls-1" transform="translate(1070 1218.34)">グラフ</text><text class="cls-1" transform="translate(32 1360.83)">砂時計</text><text class="cls-1" transform="translate(105.33 1360.83)">インフォメーション　</text><text class="cls-1" transform="translate(268.67 1360.83)">設定</text><text class="cls-1" transform="translate(372 1360.83)">チャット</text><text class="cls-1" transform="translate(499.33 1360.83)">ペン</text><text class="cls-1" transform="translate(602.67 1360.83)">テキスト</text><text class="cls-1" transform="translate(724 1360.83)">ツール</text><text class="cls-1" transform="translate(845.33 1360.83)">注意</text><text class="cls-1" transform="translate(948.67 1360.83)">ログイン</text><text class="cls-1" transform="translate(1058 1360.83)">ログアウト</text><path class="cls-3" d="M179.86,690.34H153.65a11.83,11.83,0,0,0-11.81,11.81v44.3a11.83,11.83,0,0,0,11.81,11.81h26.21a11.83,11.83,0,0,0,11.81-11.81v-44.3A11.83,11.83,0,0,0,179.86,690.34Zm-13.11,63.51a3.83,3.83,0,1,1,3.83-3.83A3.83,3.83,0,0,1,166.75,753.85Zm19.92-13.45H146.84V702.15a6.82,6.82,0,0,1,6.81-6.81h26.21a6.82,6.82,0,0,1,6.81,6.81Z"/><path class="cls-3" d="M259.49,743.32h43a9.26,9.26,0,0,0,9.25-9.25V707.54a9.26,9.26,0,0,0-9.25-9.25h-43a9.26,9.26,0,0,0-9.25,9.25v26.53A9.26,9.26,0,0,0,259.49,743.32Zm-4.25-35.78a4.26,4.26,0,0,1,4.25-4.25h43a4.26,4.26,0,0,1,4.25,4.25v26.53a4.25,4.25,0,0,1-4.25,4.25h-43a4.25,4.25,0,0,1-4.25-4.25Z"/><path class="cls-3" d="M314.75,745.67h-67.5c-6.43,0-6.44,10,0,10h67.5C321.18,755.67,321.19,745.67,314.75,745.67ZM281,754.2a3.53,3.53,0,1,1,3.53-3.53A3.53,3.53,0,0,1,281,754.2Z"/><path class="cls-2" d="M418.07,717.69l7.69,4.45a2.53,2.53,0,0,1,0,4.39L418.06,731a2.54,2.54,0,0,1-3.81-2.2v-8.88A2.54,2.54,0,0,1,418.07,717.69Z"/><path class="cls-2" d="M413.88,720.4H401a1.68,1.68,0,0,1-1.68-1.67v-13h.51A2.54,2.54,0,0,0,402,702l-4.44-7.7a2.53,2.53,0,0,0-4.39,0L388.73,702a2.54,2.54,0,0,0,2.19,3.81h.52v13a1.67,1.67,0,0,1-1.67,1.67H376.85l-.17,0v-.52a2.54,2.54,0,0,0-3.8-2.21l-7.7,4.44a2.53,2.53,0,0,0,0,4.39l7.69,4.45a2.53,2.53,0,0,0,3.8-2.19v-.55l.18,0h12.92a1.68,1.68,0,0,1,1.67,1.68v12.94h-.51a2.54,2.54,0,0,0-2.2,3.81l4.43,7.69a2.54,2.54,0,0,0,4.4,0l4.44-7.69a2.54,2.54,0,0,0-2.19-3.81h-.52v-13a1.68,1.68,0,0,1,1.68-1.68h12.91a1.67,1.67,0,0,0,1.67-1.67v-4.51A1.67,1.67,0,0,0,413.88,720.4Z"/><path class="cls-3" d="M536.37,707.34c-6.71-.08-13.42,0-20.13,0-3.22,0-3.22,5,0,5h15.21c2,0,4.46-.36,6.48,0,5.38.95,6.65,8.43,6.68,12.93s-1.36,11.9-6.68,12.94c-1.86.36-4.15,0-6,0H516.24c-3.22,0-3.22,5,0,5,6.62,0,13.24.06,19.85,0,9.61-.1,13.52-9.2,13.52-17.94C549.61,716.8,545.84,707.45,536.37,707.34Z"/><path class="cls-3" d="M504.37,737.61H489.16c-2.05,0-4.46.36-6.48,0-5.38-1-6.65-8.43-6.68-12.93s1.36-11.9,6.68-12.93c1.85-.36,4.15,0,6,0h15.66c3.21,0,3.22-5,0-5-6.62,0-13.24-.07-19.85,0-9.62.09-13.52,9.19-13.52,17.93,0,8.48,3.77,17.82,13.24,17.93,6.71.08,13.42,0,20.13,0C507.58,742.61,507.59,737.61,504.37,737.61Z"/><path class="cls-3" d="M488.34,725.5a4.66,4.66,0,0,0,4.66,4.66h35.79a4.67,4.67,0,0,0,0-9.33H493A4.67,4.67,0,0,0,488.34,725.5Z"/><path class="cls-3" d="M718.48,738.13v1.06a2.51,2.51,0,0,0,2.5,2.5h40.8a2.51,2.51,0,0,0,2.5-2.5v-1.06a2.5,2.5,0,0,0-2.5-2.5H721A2.5,2.5,0,0,0,718.48,738.13Zm3,.5h39.8v.06h-39.8Z"/><path class="cls-3" d="M732.82,715.92h4.06v16a1.59,1.59,0,0,0,1.6,1.6h4.42a1.59,1.59,0,0,0,1.6-1.6v-16h3.32a4.29,4.29,0,0,0,3.72-6.43l-7.49-13a4.28,4.28,0,0,0-7.42,0l-7.52,13A4.29,4.29,0,0,0,732.82,715.92Z"/><path class="cls-3" d="M766.19,721.11H747.5v5h18.69a2.5,2.5,0,0,1,2.5,2.5V742.3a2.5,2.5,0,0,1-2.5,2.5H715.81a2.5,2.5,0,0,1-2.5-2.5V728.61a2.5,2.5,0,0,1,2.5-2.5h18.07v-5H715.81a7.5,7.5,0,0,0-7.5,7.5V742.3a7.5,7.5,0,0,0,7.5,7.5h50.38a7.5,7.5,0,0,0,7.5-7.5V728.61A7.5,7.5,0,0,0,766.19,721.11Z"/><path class="cls-3" d="M835.07,737.54v1.13a2.5,2.5,0,0,0,2.5,2.5h41.88a2.5,2.5,0,0,0,2.5-2.5v-1.13a2.5,2.5,0,0,0-2.5-2.5H837.57A2.5,2.5,0,0,0,835.07,737.54Zm3,.5H879v.13H838.07Z"/><path class="cls-3" d="M847.57,720.15h0l2.88,5h0l3.16,5.49a4.39,4.39,0,0,0,7.61,0l7.7-13.31a4.39,4.39,0,0,0-3.8-6.59H861V694.28a1.59,1.59,0,0,0-1.6-1.6h-4.62a1.6,1.6,0,0,0-1.6,1.6v16.45h-3.4a4.4,4.4,0,0,0-3.81,6.59Z"/><path class="cls-3" d="M884.07,720.15H870.76l-2.9,5h16.21a2.5,2.5,0,0,1,2.5,2.5v14.29a2.5,2.5,0,0,1-2.5,2.5h-51.9a2.5,2.5,0,0,1-2.5-2.5V727.65a2.5,2.5,0,0,1,2.5-2.5H847l-2.88-5H832.17a7.51,7.51,0,0,0-7.5,7.5v14.29a7.5,7.5,0,0,0,7.5,7.5h51.9a7.5,7.5,0,0,0,7.5-7.5V727.65A7.51,7.51,0,0,0,884.07,720.15Z"/><path class="cls-3" d="M970.74,693.91a30.43,30.43,0,1,0,30.43,30.43A30.43,30.43,0,0,0,970.74,693.91Zm4.92,34.14a3,3,0,0,1-2.91,3l-13.3.38h-.09a3,3,0,0,1-.08-6l10.43-.31.29-17.64a3,3,0,0,1,6,.1Z"/><path class="cls-3" d="M1123.1,713.54l-3.29-16.74a4.88,4.88,0,0,0-8-2.73l-4.18,3.65c-14.63-14.81-40.45-13.76-52.56,5-13,20.15-.18,47.85,23.41,51.34,13.61,2,26.63-4.54,33.87-16.06,2.06-3.28-3.13-6.29-5.18-3a27.64,27.64,0,1,1-32.37-40.42,27.69,27.69,0,0,1,28.34,7.07l-4.18,3.65a4.87,4.87,0,0,0,1.63,8.28l16.14,5.52A4.87,4.87,0,0,0,1123.1,713.54Z"/><path class="cls-3" d="M1085,703.9a3,3,0,0,0-3,3l-.29,17.64-10.43.31a3,3,0,0,0,.08,6h.09l13.3-.38a3,3,0,0,0,2.91-2.95L1088,707a3,3,0,0,0-3-3.05Z"/><path class="cls-3" d="M316.39,848a9,9,0,0,0-9-9H256.61a9,9,0,0,0-9,9v31.8a9,9,0,0,0,9,9h50.78a9,9,0,0,0,9-9ZM256.61,883.8h0a4,4,0,0,1-4-4V848a4,4,0,0,1,4-4h50.78a4,4,0,0,1,4,4v28.82l-10.68-22a4.39,4.39,0,0,0-3.95-2.62h0a4.38,4.38,0,0,0-3.94,2.62l-11.67,24L275,866.24a3.45,3.45,0,0,0-3.07-2h0a3.45,3.45,0,0,0-3.08,2l-7.75,16a4.17,4.17,0,0,0-.41,1.61Z"/><path class="cls-3" d="M264.28,860.08a6.28,6.28,0,0,0,6.11-6.43,6.58,6.58,0,0,0-1.76-4.51,5.9,5.9,0,0,0-4.35-1.93h0a6.44,6.44,0,0,0,0,12.87Z"/><path class="cls-3" d="M424.33,842.62H369.67a10.51,10.51,0,0,0-10.5,10.5v21.52a10.51,10.51,0,0,0,10.5,10.5h54.66a10.51,10.51,0,0,0,10.5-10.5V853.12A10.51,10.51,0,0,0,424.33,842.62Zm5.5,32a5.5,5.5,0,0,1-5.5,5.5H369.67a5.5,5.5,0,0,1-5.5-5.5V853.12a5.5,5.5,0,0,1,5.5-5.5h54.66a5.5,5.5,0,0,1,5.5,5.5Z"/><path class="cls-3" d="M371.23,855.42h11.51a2.1,2.1,0,0,0,0-4.19H371.23a2.1,2.1,0,0,0,0,4.19Z"/><rect class="cls-3" x="369.1" y="870.62" width="55.42" height="6.74" rx="2.5"/><path class="cls-3" d="M516.63,878.83a6.7,6.7,0,0,0-12.16,5.65l1.6,3.44c-5.81-2-12-8.06-15.82-16.27-4.1-8.84-4.52-18.16-1.67-23.84l2,4.22a6.7,6.7,0,0,0,12.15-5.65l-3.82-8.22a6.7,6.7,0,0,0-8.9-3.26,6.37,6.37,0,0,0-.63.35l0,0c-11.87,5.52-15,23.16-7.08,40.17,6.33,13.62,17.53,22.11,27.84,22.11a17.42,17.42,0,0,0,7.42-1.62l0-.06a6.71,6.71,0,0,0,3-8.76Z"/><path class="cls-3" d="M506.8,853.44a12.09,12.09,0,0,1,6.11,16,2.21,2.21,0,0,0,1.11,2.92,2.11,2.11,0,0,0,.91.2,2.2,2.2,0,0,0,2-1.31,16.52,16.52,0,0,0-8.34-21.81,2.21,2.21,0,1,0-1.8,4Z"/><path class="cls-3" d="M515.05,840.72a2.21,2.21,0,1,0-1.8,4,20.07,20.07,0,0,1,10.14,26.51,2.21,2.21,0,1,0,4,1.8,24.48,24.48,0,0,0-12.37-32.35Z"/><path class="cls-3" d="M538.82,848.76A31.84,31.84,0,0,0,522,831a2.21,2.21,0,1,0-1.8,4,27.58,27.58,0,0,1,13.94,36.44,2.21,2.21,0,0,0,4,1.8A31.85,31.85,0,0,0,538.82,848.76Z"/><path class="cls-3" d="M626.67,836.7a23.1,23.1,0,0,0-19.35,35.75l13.17,22.81a7.13,7.13,0,0,0,12.35,0L646,872.45a23.1,23.1,0,0,0-19.34-35.75Zm0,38.33a15.26,15.26,0,1,1,15.25-15.25A15.27,15.27,0,0,1,626.67,875Z"/><path class="cls-3" d="M756.2,835.27H723.8a14.05,14.05,0,0,0-14.06,14.06v32.4a14.06,14.06,0,0,0,14.06,14.06h32.4a14.06,14.06,0,0,0,14.06-14.06v-32.4A14.05,14.05,0,0,0,756.2,835.27Zm-20.6,29.22a6.72,6.72,0,0,1-.14,1.35l8,6.26a6.89,6.89,0,0,1,3.76-1.11,7,7,0,1,1-7,7,6.8,6.8,0,0,1,.12-1.21l-8.09-6.34a6.88,6.88,0,0,1-3.65,1,7,7,0,1,1,4.44-12.35l8.4-6.58a7.25,7.25,0,0,1-.29-2,7,7,0,1,1,3.89,6.25l-9.48,7.43A2.45,2.45,0,0,1,735.6,864.49Z"/><path class="cls-2" d="M878.52,836.91H847a4,4,0,0,0,0,8h27.49v27.48a4,4,0,0,0,8,0V840.91A4,4,0,0,0,878.52,836.91Z"/><path class="cls-2" d="M863.51,884.15H836V856.66a4,4,0,1,0-8,0v31.49a4,4,0,0,0,4,4h31.49a4,4,0,0,0,0-8Z"/><text class="cls-1" transform="translate(845.33 939.35)">拡張</text><circle class="cls-3" cx="971.19" cy="870.06" r="10.16"/><path class="cls-2" d="M983.81,881.29a2.47,2.47,0,0,1-1.82-.79,2.5,2.5,0,0,1,.12-3.53,9.43,9.43,0,0,0,.44-13.31,2.5,2.5,0,1,1,3.65-3.41,14.42,14.42,0,0,1-.68,20.37A2.48,2.48,0,0,1,983.81,881.29Z"/><path class="cls-2" d="M991.26,886.11a2.5,2.5,0,0,1-1.71-4.33,16.07,16.07,0,0,0,.75-22.7,2.5,2.5,0,0,1,3.66-3.41,21,21,0,0,1-1,29.76A2.44,2.44,0,0,1,991.26,886.11Z"/><path class="cls-2" d="M999.43,889.72a2.5,2.5,0,0,1-1.71-4.33,22.34,22.34,0,0,0,1-31.55,2.5,2.5,0,1,1,3.65-3.42,27.36,27.36,0,0,1-1.28,38.63A2.5,2.5,0,0,1,999.43,889.72Z"/><path class="cls-2" d="M956.43,880.47a2.49,2.49,0,0,1-2-1,14.4,14.4,0,0,1,2.62-20.21,2.5,2.5,0,1,1,3,4,9.42,9.42,0,0,0-1.71,13.2A2.5,2.5,0,0,1,958,880,2.48,2.48,0,0,1,956.43,880.47Z"/><path class="cls-2" d="M948.27,884.28a2.48,2.48,0,0,1-2-1,21.09,21.09,0,0,1,3.83-29.54,2.5,2.5,0,1,1,3,4,16.09,16.09,0,0,0-2.92,22.53,2.5,2.5,0,0,1-2,4Z"/><path class="cls-2" d="M939.34,888.7a2.49,2.49,0,0,1-2-1,27.33,27.33,0,0,1,5-38.32,2.5,2.5,0,1,1,3,4,22.35,22.35,0,0,0-4.06,31.31,2.5,2.5,0,0,1-.46,3.51A2.48,2.48,0,0,1,939.34,888.7Z"/><path class="cls-3" d="M1108.49,849.63h-5.35V839.06a5.43,5.43,0,0,0-5.42-5.43h-22.59a5.44,5.44,0,0,0-5.43,5.43v10.57h-5.94a5.92,5.92,0,0,0-5.91,5.91v23.4a5.92,5.92,0,0,0,5.91,5.91h5.94v6.8a5,5,0,0,0,5,5h23.36a5,5,0,0,0,5-5v-6.8h5.35a5.92,5.92,0,0,0,5.91-5.91v-23.4A5.92,5.92,0,0,0,1108.49,849.63Zm-33.79-10.57a.43.43,0,0,1,.43-.43h22.59a.42.42,0,0,1,.42.43v10.57H1074.7Zm0,52.59v-6.8l0-13.63,23.4,0v11.09l0,9.34Z"/><path class="cls-3" d="M1125.09,1282.92l-15.73-9.1-.39-.19h0l-.51-.21-.08,0a2.54,2.54,0,0,0-.47-.14l-.23,0a2.14,2.14,0,0,0-.35-.06,3.39,3.39,0,0,0-.55,0h0a5,5,0,0,0-1.4.2l-.16.06a3,3,0,0,0-.5.19,1.11,1.11,0,0,0-.19.09l-.44.23-.07,0h0a5.13,5.13,0,0,0-2.4,4.37v4.91h-23.5a4.62,4.62,0,1,0,0,9.24h23.49v4a5.12,5.12,0,0,0,2.42,4.38h0l.06,0,.47.26.15.07a5.37,5.37,0,0,0,.56.21l.1,0a5.47,5.47,0,0,0,.7.16h.08a4.18,4.18,0,0,0,.61,0h0l.51,0a3.07,3.07,0,0,0,.42-.07l.2,0a4.74,4.74,0,0,0,.5-.15l.06,0a3.85,3.85,0,0,0,.52-.22h0l.36-.18,15.75-9.07A5.2,5.2,0,0,0,1125.09,1282.92Z"/><path class="cls-3" d="M1104,1304.19v3.46a5,5,0,0,1-5,5h-33.15a5,5,0,0,1-5-5V1268a5,5,0,0,1,5-5H1099a5,5,0,0,1,5,5v2.59a8.37,8.37,0,0,1,2.8-.5,7.86,7.86,0,0,1,2.2.32V1268a10,10,0,0,0-10-10h-33.15a10,10,0,0,0-10,10v39.63a10,10,0,0,0,10,10H1099a10,10,0,0,0,10-10v-3.28a7.94,7.94,0,0,1-2.22.32A8.23,8.23,0,0,1,1104,1304.19Z"/><path class="cls-3" d="M956.15,1293.58v4.16c0,.23,0,.45,0,.67l0,.21c0,.15.06.3.1.45a2.25,2.25,0,0,0,0,.22c.06.17.12.35.19.52a5.37,5.37,0,0,0,7.64,2.58l16.28-9.38a5.37,5.37,0,0,0,0-9.3l-16.27-9.41a5.37,5.37,0,0,0-7.64,2.58h0a4.87,4.87,0,0,0-.26.87l0,.2a6.26,6.26,0,0,0-.09,1V1284h-24.3a4.78,4.78,0,0,0,0,9.56h24.29Z"/><path class="cls-3" d="M995.86,1256.59H961.08a10.51,10.51,0,0,0-10.5,10.5V1281h2.58v-2.08a8.33,8.33,0,0,1,3.41-6.72v-5.13a4.51,4.51,0,0,1,4.5-4.5h34.78a4.51,4.51,0,0,1,4.5,4.5v41.49a4.51,4.51,0,0,1-4.5,4.5H961.08a4.51,4.51,0,0,1-4.5-4.5v-4.1a7.48,7.48,0,0,1-.87-.71,8.23,8.23,0,0,1-2.56-6v-1.15h-2.57v12a10.51,10.51,0,0,0,10.5,10.5h34.78a10.51,10.51,0,0,0,10.5-10.5v-41.49A10.51,10.51,0,0,0,995.86,1256.59Z"/><path class="cls-2" d="M886.63,1295.42l-19.56-34a11.2,11.2,0,0,0-19.4,0L828,1295.36a11.21,11.21,0,0,0,9.69,16.81l39.19,0A11.19,11.19,0,0,0,886.63,1295.42Zm-33.11-27.52a3.72,3.72,0,1,1,7.43,0v21.8a3.72,3.72,0,1,1-7.43,0ZM861,1303a3.72,3.72,0,0,1-7.43,0v-3.22a3.72,3.72,0,0,1,7.43,0Z"/><path class="cls-2" d="M746.16,1294.27a2.5,2.5,0,0,1-2.5,2.5H736a2.5,2.5,0,0,1-2.5-2.5v-1.93H708.82v13.08a5.5,5.5,0,0,0,5.5,5.5h51a5.5,5.5,0,0,0,5.5-5.5v-13.08H746.16Z"/><path class="cls-2" d="M765.35,1270h-8.26v-7.68a5.67,5.67,0,0,0-5.66-5.66H727.05a5.67,5.67,0,0,0-5.67,5.66V1270h-7.06a5.5,5.5,0,0,0-5.5,5.5v11.87h24.69v-.72a2.5,2.5,0,0,1,2.5-2.5h7.65a2.5,2.5,0,0,1,2.5,2.5v.72h24.69v-11.87A5.5,5.5,0,0,0,765.35,1270Zm-13.26,0H726.38v-7.68a.67.67,0,0,1,.67-.66h24.38a.67.67,0,0,1,.66.66Z"/><path class="cls-2" d="M652.45,1269.64l-5.11-5.11a3,3,0,0,0-2-.85,3.13,3.13,0,0,0-1.14-.21h-38a2.72,2.72,0,0,0-2.63,1.7,3,3,0,0,0-.94.63l-5.11,5.11a3,3,0,1,0,4.24,4.24l5.11-5.11a2.59,2.59,0,0,0,.43-.57h15a2.79,2.79,0,0,0-.11.79v42c0,3.86,6,3.86,6,0v-42a3.22,3.22,0,0,0-.1-.79h15.68l4.42,4.42a3,3,0,0,0,4.24-4.25Z"/><path class="cls-3" d="M537.26,1265.12l-2.73-2.87a6.18,6.18,0,0,0-8.71-.23l-36.76,34.9a6.16,6.16,0,0,0-1.86,3.67,3.29,3.29,0,0,0-1.34,1.4l-4.09,8.51a3.77,3.77,0,0,0,.56,4.42,3.47,3.47,0,0,0,2.49,1,4.4,4.4,0,0,0,1.92-.46l8.52-4.09h0a3.22,3.22,0,0,0,1.2-1,6.09,6.09,0,0,0,3.81-1.65l36.76-34.9A6.17,6.17,0,0,0,537.26,1265.12Zm-51.54,46.41,2.93-6.11.18.21,2.73,2.88.15.14Zm11.11-6.42a1.22,1.22,0,0,1-.83.31,1.11,1.11,0,0,1-.81-.36l-2.73-2.87h0a1.17,1.17,0,0,1-.32-.83,1.19,1.19,0,0,1,.36-.81l29.78-28.26,4.44,4.44Zm36.76-34.91-2.4,2.28-4.44-4.44,2.52-2.39a1.16,1.16,0,0,1,.79-.32,1.14,1.14,0,0,1,.84.36l2.73,2.87A1.17,1.17,0,0,1,533.59,1270.2Z"/><path class="cls-2" d="M415.54,1257.3H374.46a13.35,13.35,0,0,0-13.33,13.33v19.88a13.34,13.34,0,0,0,13,13.33l-2.31,6.25a4.25,4.25,0,0,0,1.63,5.06,4.25,4.25,0,0,0,5.31-.37l12.08-10.94h24.7a13.35,13.35,0,0,0,13.33-13.33v-19.88A13.35,13.35,0,0,0,415.54,1257.3Zm8.33,33.21a8.33,8.33,0,0,1-8.33,8.33h-25a4.29,4.29,0,0,0-2.89,1.12l-10.2,9.23,1.68-4.54a4.31,4.31,0,0,0-4-5.81h-.66a8.33,8.33,0,0,1-8.33-8.33v-19.88a8.34,8.34,0,0,1,8.33-8.33h41.08a8.34,8.34,0,0,1,8.33,8.33Z"/><path class="cls-2" d="M417,1288.53H373.17a1.5,1.5,0,0,0,0,3H417A1.5,1.5,0,0,0,417,1288.53Z"/><path class="cls-2" d="M417,1278.53H373.17a1.5,1.5,0,0,0,0,3H417A1.5,1.5,0,0,0,417,1278.53Z"/><path class="cls-2" d="M417,1268.53H373.17a1.5,1.5,0,0,0,0,3H417A1.5,1.5,0,0,0,417,1268.53Z"/><path class="cls-3" d="M311,1300.91l-4.38-3.43v-14.84l5.19-3.16a4.86,4.86,0,0,0-5.05-8.3l-5.05,3.08-11.81-6.82s0,0,0-.08v-7.67a4.86,4.86,0,0,0-9.71,0v7.17l-12.72,7.34-4.16-2.5a4.86,4.86,0,0,0-5,8.32l4.16,2.5v15.08c0,.18,0,.36,0,.54l-5.15,2.92a4.85,4.85,0,0,0-1.83,6.61h0a4.84,4.84,0,0,0,6.62,1.83l6.21-3.52,11.85,6.85V1319a4.86,4.86,0,0,0,9.71,0v-6.74l11.4-6.59,3.7,2.9a4.85,4.85,0,1,0,6-7.64Zm-26.46-2.12a8.69,8.69,0,1,1,8.69-8.69A8.69,8.69,0,0,1,284.58,1298.79Z"/><path class="cls-3" d="M166.33,1257.92a30.58,30.58,0,1,0,30.57,30.58A30.62,30.62,0,0,0,166.33,1257.92Zm6.1,52.21H161.35a3,3,0,0,1,0-6h3.26v-22h-.8a2.54,2.54,0,1,1,0-5.07h2.57a2.6,2.6,0,0,1,2.21,1.28,2.25,2.25,0,0,1,.58,1.51v24.31h3.26a3,3,0,0,1,0,6Zm-2.74-38.5a2.54,2.54,0,0,1-5.08,0v-2.57a2.54,2.54,0,0,1,5.08,0Z"/><path class="cls-3" d="M66.14,1267.69h3.61a2.51,2.51,0,0,0,2.5-2.5v-.68a2.5,2.5,0,0,0-2.5-2.5H34.34a2.5,2.5,0,0,0-2.5,2.5v.68a2.51,2.51,0,0,0,2.5,2.5h3.37l11.37,19.69-11.54,20H34.22a2.5,2.5,0,0,0-2.5,2.5v.67a2.5,2.5,0,0,0,2.5,2.5H69.63a2.5,2.5,0,0,0,2.5-2.5v-.67a2.5,2.5,0,0,0-2.5-2.5H66.31l-11.54-20Zm-5.77,0L56,1275.32H47.89l-4.41-7.63Zm-13.71,33.89,5.26-9.12,5.27,9.12Z"/><path class="cls-3" d="M79.49,1122.75l-4.5-4.3a11.19,11.19,0,0,0-15.79.36l-11.88,12.44L34.75,1144.4h0l-8.52,8.91a11.18,11.18,0,0,0,.36,15.78l4.51,4.31a11.2,11.2,0,0,0,15.79-.36l33-34.51a11.17,11.17,0,0,0-.36-15.79Zm-3.25,12.34-33,34.5a6.17,6.17,0,0,1-8.72.2l-4.5-4.3a6.16,6.16,0,0,1-.2-8.72l2.68-2.8a11.18,11.18,0,0,0,.63,1.57,2.51,2.51,0,0,0,.75,1.51q.31.3.66.57a7.34,7.34,0,0,0,.61.64l.12-.12a8.72,8.72,0,0,0,4.34,1.41H40a7.31,7.31,0,0,0,5.37-2.25l14.46-15.13a2.5,2.5,0,0,0-3.62-3.45l-14.46,15.13a2.47,2.47,0,0,1-1.9.7A3.76,3.76,0,0,1,38,1154a4.85,4.85,0,0,1-.94-2.72,4.59,4.59,0,0,1,1.28-3.37l24.45-25.6a6.17,6.17,0,0,1,8.71-.19l4.51,4.3a6.18,6.18,0,0,1,.2,8.72Z"/><rect class="cls-3" x="136.55" y="1124.96" width="28.86" height="19.71" rx="7.95"/><rect class="cls-3" x="168.58" y="1125.54" width="28.86" height="19.71" rx="7.95"/><rect class="cls-3" x="136.55" y="1149.6" width="28.86" height="19.71" rx="7.95"/><rect class="cls-3" x="168.58" y="1149.48" width="28.86" height="19.71" rx="7.95"/><path class="cls-2" d="M302.83,1143.89l9.93-5.18a3.2,3.2,0,0,0,.24-5.54l-9.45-6a3.21,3.21,0,0,0-4.92,2.57l-.11,2.69a124.49,124.49,0,0,0-17.06.66c-3,.41-5.92,1-7.94,3.43a16.2,16.2,0,0,0-2.08,3.17c-3.61-4.79-8.48-7.12-15.61-7.26-4.18-.09-4.18,6.41,0,6.5,5.07.1,7.91.95,10.69,5.13a22.55,22.55,0,0,1,1.69,3.14,22.55,22.55,0,0,1-1.69,3.14c-2.79,4.21-5.55,5-10.69,5.13-4.17.09-4.19,6.59,0,6.5,7.12-.14,12-2.47,15.61-7.26a16.2,16.2,0,0,0,2.08,3.17c2,2.38,5,3,7.94,3.43A113.27,113.27,0,0,0,297,1162l-.12,2.86a3.19,3.19,0,0,0,4.67,3l9.94-5.18a3.2,3.2,0,0,0,.24-5.54l-9.46-6a3.2,3.2,0,0,0-4.91,2.56l-.08,1.85c-5.32.06-10.92.31-16.09-.76-3.71-.76-4.61-4.26-5.78-7.53,1.17-3.26,2.09-6.77,5.78-7.53,5.47-1.13,11.46-.78,17.06-.75l-.09,2A3.2,3.2,0,0,0,302.83,1143.89Z"/><circle class="cls-2" cx="396.98" cy="1150.83" r="8.16" transform="translate(-253.79 121.99) rotate(-13.28)"/><path class="cls-2" d="M419.06,1132.46h-4.67v-5.63a3.35,3.35,0,0,0-3.36-3.35h-28.1a3.35,3.35,0,0,0-3.35,3.35v5.63h-4.67a7.32,7.32,0,0,0-7.32,7.32v22.1a7.32,7.32,0,0,0,7.32,7.32h44.15a7.31,7.31,0,0,0,7.31-7.32v-22.1A7.31,7.31,0,0,0,419.06,1132.46ZM397,1164.3a13.47,13.47,0,1,1,13.47-13.47A13.47,13.47,0,0,1,397,1164.3Z"/><path class="cls-2" d="M644.06,1116.89H614a9.77,9.77,0,0,0-9.75,9.75v41.81a9.76,9.76,0,0,0,9.75,9.75h30.08a9.76,9.76,0,0,0,9.75-9.75v-41.81A9.77,9.77,0,0,0,644.06,1116.89Zm4.75,51.56a4.75,4.75,0,0,1-4.75,4.75H614a4.76,4.76,0,0,1-4.75-4.75v-41.81a4.77,4.77,0,0,1,4.75-4.75h30.08a4.76,4.76,0,0,1,4.75,4.75Z"/><path class="cls-2" d="M640.36,1163.25H616.9a1.5,1.5,0,0,0,0,3h23.46A1.5,1.5,0,0,0,640.36,1163.25Z"/><path class="cls-2" d="M640.36,1150.74H616.9a1.5,1.5,0,0,0,0,3h23.46A1.5,1.5,0,0,0,640.36,1150.74Z"/><path class="cls-2" d="M640.36,1139.79H616.9a1.5,1.5,0,0,0,0,3h23.46A1.5,1.5,0,0,0,640.36,1139.79Z"/><path class="cls-2" d="M624.72,1131.84a1.5,1.5,0,0,0,0-3h-8.34a1.5,1.5,0,0,0,0,3Z"/><path class="cls-2" d="M524.55,1115H493.18a11.88,11.88,0,0,0-11.63,12.11v27.6a2.53,2.53,0,0,0,.66,1.7l20,21.6a2.51,2.51,0,0,0,1.83.81h20.54a11.88,11.88,0,0,0,11.62-12.11v-39.6A11.88,11.88,0,0,0,524.55,1115Zm-25.13,52.66,6,6.16h-.34Zm31.75-.95a6.89,6.89,0,0,1-6.62,7.11H507.71v-18.15a4,4,0,0,0-4-4h-17.2v-24.6a6.89,6.89,0,0,1,6.63-7.11h31.37a6.89,6.89,0,0,1,6.62,7.11Z"/><path class="cls-2" d="M522.66,1130.36h-27a1.5,1.5,0,0,0,0,3h27A1.5,1.5,0,0,0,522.66,1130.36Z"/><path class="cls-2" d="M522.66,1143h-27a1.5,1.5,0,0,0,0,3h27A1.5,1.5,0,0,0,522.66,1143Z"/><path class="cls-2" d="M522.66,1153.76h-9.61a1.5,1.5,0,0,0,0,3h9.61A1.5,1.5,0,0,0,522.66,1153.76Z"/><path class="cls-2" d="M522.66,1164.56h-9.61a1.5,1.5,0,0,0,0,3h9.61A1.5,1.5,0,0,0,522.66,1164.56Z"/><path class="cls-3" d="M771.85,1132.13c-1.84-3.12-5.6-5.05-9.81-5.05h-34.1a12.17,12.17,0,0,0-7.7,2.63l-2.14-5.32a3,3,0,0,0-2.78-1.88h-6.75a3,3,0,1,0,0,6h4.72l3.88,9.63a3.55,3.55,0,0,0,.3.54c0,.15.09.3.15.45l7,16.73c1.51,3.63,5.66,6.07,10.32,6.07h18c4.28,0,8.18-2.07,9.94-5.27l9.18-16.73A7.7,7.7,0,0,0,771.85,1132.13Zm-5.14,4.91-9.18,16.73c-.7,1.27-2.62,2.16-4.68,2.16h-18c-2.49,0-4.29-1.2-4.78-2.38l-7-16.73a1.74,1.74,0,0,1,.21-1.76,5.47,5.47,0,0,1,4.57-2H762a5.39,5.39,0,0,1,4.64,2.1A1.7,1.7,0,0,1,766.71,1137Z"/><circle class="cls-3" cx="729.38" cy="1168.48" r="5.6"/><circle class="cls-3" cx="756.75" cy="1168.48" r="5.6"/><path class="cls-3" d="M879.62,1162.6l-4.23-4.58V1141a15.21,15.21,0,0,0-15.21-15.21h-4.4a15.2,15.2,0,0,0-15.2,15.21V1158l-4.24,4.58a3.32,3.32,0,0,0,2.44,5.57h38.41A3.32,3.32,0,0,0,879.62,1162.6Z"/><rect class="cls-3" x="855.73" y="1116.93" width="4.5" height="7.61" rx="1.75"/><path class="cls-3" d="M860.2,1169h-4.44a3.22,3.22,0,0,0,0,6.44h4.44a3.22,3.22,0,0,0,0-6.44Z"/><path class="cls-3" d="M983.27,1116.46h-24.5a6,6,0,0,0-6,6v33h0V1176a1.92,1.92,0,0,0,3.5,1.08L971,1155.46h0l14.75,21.63a1.92,1.92,0,0,0,3.5-1.08v-53.53A6,6,0,0,0,983.27,1116.46Zm-3,17.24a.8.8,0,0,1-.81.8H973.2a.82.82,0,0,0-.81.81v6.24a.8.8,0,0,1-.8.81h-2.18a.81.81,0,0,1-.81-.81v-6.24a.81.81,0,0,0-.81-.81h-6.24a.8.8,0,0,1-.81-.8v-2.18a.81.81,0,0,1,.81-.81h6.24a.81.81,0,0,0,.81-.81v-6.24a.81.81,0,0,1,.81-.81h2.18a.8.8,0,0,1,.8.81v6.24a.81.81,0,0,0,.81.81h6.24a.81.81,0,0,1,.81.81Z"/><path class="cls-3" d="M1105.43,1172.82h-32.38a10.18,10.18,0,0,1-10.18-10.17v-32.39a3,3,0,0,0-6,0v32.39a16.19,16.19,0,0,0,16.18,16.17h32.38a3,3,0,0,0,0-6Z"/><path class="cls-3" d="M1103.1,1169.82a4.49,4.49,0,0,0,4.5-4.5v-43.58a4.5,4.5,0,0,0-9,0v43.58A4.5,4.5,0,0,0,1103.1,1169.82Z"/><path class="cls-3" d="M1087.6,1170.07a4.49,4.49,0,0,0,4.5-4.5v-34a4.5,4.5,0,0,0-9,0v34A4.5,4.5,0,0,0,1087.6,1170.07Z"/><path class="cls-3" d="M1073.54,1170.2a4.5,4.5,0,0,0,4.5-4.5v-23.5a4.5,4.5,0,1,0-9,0v23.5A4.51,4.51,0,0,0,1073.54,1170.2Z"/><path class="cls-3" d="M58.62,699.27H28.7a11.13,11.13,0,0,0-11.12,11.12V724.1A11.13,11.13,0,0,0,28.7,735.22h9.4v6.34h-10a1.8,1.8,0,0,0-1.8,1.81v2.28a1.8,1.8,0,0,0,1.8,1.81H58.4a1.81,1.81,0,0,0,1.8-1.81v-2.28a1.81,1.81,0,0,0-1.8-1.81H49.15v-6.34h9.47A11.13,11.13,0,0,0,69.74,724.1V710.39A11.13,11.13,0,0,0,58.62,699.27Zm6.12,24.83a6.13,6.13,0,0,1-6.12,6.12H28.7a6.13,6.13,0,0,1-6.12-6.12V710.39a6.13,6.13,0,0,1,6.12-6.12H58.62a6.13,6.13,0,0,1,6.12,6.12Z"/><path class="cls-3" d="M87.81,700.06H74.25a3.1,3.1,0,0,0-3.1,3.1v43.2a3.1,3.1,0,0,0,3.1,3.1H87.81a3.1,3.1,0,0,0,3.1-3.1v-43.2A3.1,3.1,0,0,0,87.81,700.06Zm-1,23.82H75.68v-2h11.1Zm0-13.38H75.68v-2h11.1Z"/><circle class="cls-3" cx="167.19" cy="849.11" r="13.94"/><path class="cls-3" d="M178.33,861.83a16.84,16.84,0,0,1-22.52-.22c-6.12,2.13-10.39,6.93-10.39,12.53v18.52h42.67V874.14C188.09,868.73,184.11,864.06,178.33,861.83Z"/><circle class="cls-3" cx="46.11" cy="849.65" r="13.94"/><circle class="cls-3" cx="74.64" cy="862.48" r="9.83"/><path class="cls-3" d="M82.5,871.46a11.86,11.86,0,0,1-15.88-.16l-.14.05c-1.25-4-4.68-7.22-9.23-9a16.84,16.84,0,0,1-22.52-.22c-6.12,2.12-10.39,6.92-10.39,12.53V893.2H89.39V880.14C89.39,876.33,86.58,873,82.5,871.46Z"/><path class="cls-3" d="M29,977.05a4.43,4.43,0,0,0-4.43,4.43V1028a4.43,4.43,0,0,0,8.86,0V981.48A4.43,4.43,0,0,0,29,977.05Z"/><path class="cls-3" d="M74.62,977.05H42.9a5.1,5.1,0,0,0-5.11,5.1v45.16a5.11,5.11,0,0,0,5.11,5.11H74.62a5.11,5.11,0,0,0,5.11-5.11V982.15A5.1,5.1,0,0,0,74.62,977.05Zm-8.33,20.39a4.16,4.16,0,1,1-4.16,4.16A4.16,4.16,0,0,1,66.29,997.44Zm-12.08-7.18a5.91,5.91,0,1,1-5.91,5.91A5.91,5.91,0,0,1,54.21,990.26Zm18.33,24.35H45v-7.84c0-2.37,1.81-4.41,4.4-5.31a7.11,7.11,0,0,0,9.53.09,6.39,6.39,0,0,1,3.91,3.81l.06,0a5,5,0,0,0,6.73.06,4.14,4.14,0,0,1,2.92,3.68Z"/><path class="cls-3" d="M184.77,981.29,171.2,991.76H134.75a6.75,6.75,0,0,0-6.75,6.75v16a6.75,6.75,0,0,0,6.75,6.75H171.2l13.57,10.47a10.75,10.75,0,0,0,17.31-8.51V989.8A10.75,10.75,0,0,0,184.77,981.29Z"/><path class="cls-3" d="M411.15,1011.67l-10.69-7.91,10.69-7.9a11.9,11.9,0,0,0,0-19.13h0L406,972.94a8.25,8.25,0,0,0-13.17,6.64V998.7L375,985.46a3,3,0,0,0-3.56,4.83l18.23,13.48-18.23,13.49a3,3,0,0,0,1.78,5.41,3,3,0,0,0,1.78-.59l17.89-13.23V1028a8.26,8.26,0,0,0,13.17,6.64l5.14-3.8h0a11.89,11.89,0,0,0,0-19.12Zm-12.31-32.09a2.2,2.2,0,0,1,1.25-2,2.34,2.34,0,0,1,1-.25,2.18,2.18,0,0,1,1.31.45l5.14,3.8h0a5.89,5.89,0,0,1,0,9.47l-8.74,6.46Zm8.74,46.39-5.14,3.79a2.26,2.26,0,0,1-3.6-1.81V1010l8.74,6.46a5.9,5.9,0,0,1,0,9.48Z"/><path class="cls-3" d="M301.14,982.55v-4.31a6.17,6.17,0,0,0-12.34,0v4.12H274.57v-4.12a6.16,6.16,0,0,0-6.17-6.16h0a6.17,6.17,0,0,0-6.17,6.16v4.36a13.33,13.33,0,0,0-10.85,13.1v27.93A13.33,13.33,0,0,0,264.71,1037H299a13.33,13.33,0,0,0,13.33-13.34V995.7A13.33,13.33,0,0,0,301.14,982.55Zm-44.55,19.51a3.6,3.6,0,0,1,3.6-3.6h7a3.6,3.6,0,0,1,3.6,3.6v7a3.6,3.6,0,0,1-3.6,3.6h-7a3.6,3.6,0,0,1-3.6-3.6ZM271,1026.82a3.6,3.6,0,0,1-3.6,3.6h-7a3.6,3.6,0,0,1-3.6-3.6v-7a3.6,3.6,0,0,1,3.6-3.6h7a3.6,3.6,0,0,1,3.6,3.6Zm3.67-24.76a3.6,3.6,0,0,1,3.6-3.6h7a3.6,3.6,0,0,1,3.6,3.6v7a3.6,3.6,0,0,1-3.6,3.6h-7a3.6,3.6,0,0,1-3.6-3.6ZM289,1026.82a3.6,3.6,0,0,1-3.6,3.6h-7a3.6,3.6,0,0,1-3.59-3.6v-7a3.6,3.6,0,0,1,3.59-3.6h7a3.6,3.6,0,0,1,3.6,3.6Zm4.06-24.76a3.6,3.6,0,0,1,3.6-3.6h7a3.6,3.6,0,0,1,3.59,3.6v7a3.6,3.6,0,0,1-3.59,3.6h-7a3.6,3.6,0,0,1-3.6-3.6Zm14.37,24.76a3.6,3.6,0,0,1-3.6,3.6h-7a3.6,3.6,0,0,1-3.6-3.6v-7a3.6,3.6,0,0,1,3.6-3.6h7a3.6,3.6,0,0,1,3.6,3.6Z"/><text class="cls-6" transform="translate(480.32 1028.5)">あ</text><text class="cls-6" transform="translate(604.78 1028.5)">A</text><text class="cls-7" transform="translate(722.17 1012.42)">＋</text><text class="cls-7" transform="translate(723.17 1027.86)">ー</text><text class="cls-7" transform="translate(742.21 1012.42)">×</text><text class="cls-7" transform="translate(742.21 1028.86)">÷</text><path class="cls-3" d="M754.41,973.26h-25.6a14,14,0,0,0-14,14v36.54a14,14,0,0,0,14,14h25.6a14,14,0,0,0,14-14V987.24A14,14,0,0,0,754.41,973.26Zm8,50.52a8,8,0,0,1-8,8h-25.6a8,8,0,0,1-8-8V987.24a8,8,0,0,1,8-8h25.6a8,8,0,0,1,8,8Z"/><rect class="cls-3" x="724.96" y="981.37" width="33.3" height="11.67" rx="5.23"/><text class="cls-8" transform="translate(823.02 1034.76)">￥</text><path class="cls-2" d="M945.4,1004.55v8.3a11.3,11.3,0,0,0,11.29,11.29H984a11.3,11.3,0,0,0,11.29-11.29v-8.3A11.31,11.31,0,0,0,984,993.26H956.69A11.31,11.31,0,0,0,945.4,1004.55Zm6,0a5.29,5.29,0,0,1,5.29-5.29H984a5.3,5.3,0,0,1,5.29,5.29v8.3a5.3,5.3,0,0,1-5.29,5.29H956.69a5.29,5.29,0,0,1-5.29-5.29Z"/><path class="cls-2" d="M954.55,1026h-10a2.11,2.11,0,0,1-2.11-2.11v-10a3,3,0,0,0-6,0v10a8.12,8.12,0,0,0,8.11,8.11h10a3,3,0,0,0,0-6Z"/><path class="cls-2" d="M939.41,1005.92a3,3,0,0,0,3-3v-10a2.11,2.11,0,0,1,2.11-2.11h10a3,3,0,0,0,0-6h-10a8.12,8.12,0,0,0-8.11,8.11v10A3,3,0,0,0,939.41,1005.92Z"/><path class="cls-2" d="M995.48,984.79h-10a3,3,0,0,0,0,6h10a2.11,2.11,0,0,1,2.11,2.11v10a3,3,0,0,0,6,0v-10A8.12,8.12,0,0,0,995.48,984.79Z"/><path class="cls-2" d="M1000.59,1010.72a3,3,0,0,0-3,3v10a2.12,2.12,0,0,1-2.11,2.11h-10a3,3,0,0,0,0,6h10a8.12,8.12,0,0,0,8.11-8.11v-10A3,3,0,0,0,1000.59,1010.72Z"/><path class="cls-2" d="M1110.47,984.31h-52.79c-6,0-10.92,5.47-10.92,12.2v25.68c0,6.73,4.9,12.21,10.92,12.21h52.79c6,0,10.92-5.48,10.92-12.21V996.51C1121.39,989.78,1116.49,984.31,1110.47,984.31Zm5.12,37.88c0,3.16-2.3,5.72-5.12,5.72h-52.79c-2.82,0-5.12-2.56-5.12-5.72V996.51c0-3.15,2.3-5.72,5.12-5.72h52.79c2.82,0,5.12,2.57,5.12,5.72Z"/><path class="cls-2" d="M1110.23,1010.9a2.77,2.77,0,0,0-2.76,2.77v5.73a.16.16,0,0,1-.16.15h-5.73a2.77,2.77,0,0,0,0,5.54h5.73a5.7,5.7,0,0,0,5.69-5.69v-5.73A2.77,2.77,0,0,0,1110.23,1010.9Z"/><path class="cls-2" d="M1067.07,1019.55h-5.73a.15.15,0,0,1-.15-.15v-5.73a2.77,2.77,0,0,0-5.54,0v5.73a5.7,5.7,0,0,0,5.69,5.68h5.73a2.77,2.77,0,1,0,0-5.53Z"/><path class="cls-2" d="M1067.07,994.12h-5.73a5.7,5.7,0,0,0-5.69,5.69v5.73a2.77,2.77,0,0,0,5.54,0v-5.73a.15.15,0,0,1,.15-.15h5.73a2.77,2.77,0,0,0,0-5.54Z"/><path class="cls-2" d="M1107.31,994.12h-5.73a2.77,2.77,0,0,0,0,5.54h5.73a.16.16,0,0,1,.16.15v5.73a2.77,2.77,0,1,0,5.53,0v-5.73A5.69,5.69,0,0,0,1107.31,994.12Z"/><text class="cls-1" transform="translate(374.65 1079.85)">BlueTooth</text><path class="cls-3" d="M656.37,689.14l-15.7,4.19a4.64,4.64,0,0,0-2.08,7.76l3.1,3.11-14.86,14.86a4.13,4.13,0,0,0,0,5.84h0a4.13,4.13,0,0,0,5.84,0l13.06-13.06,1.79-1.79,2.54,2.54a4.73,4.73,0,0,0,.66.54h0a4.64,4.64,0,0,0,7.1-2.62l4.22-15.69A4.64,4.64,0,0,0,656.37,689.14Z"/><path class="cls-3" d="M647.52,714.29l-1.79,1.79v24a5.78,5.78,0,0,1-5.78,5.77H611.34a5.78,5.78,0,0,1-5.78-5.77V711.48a5.78,5.78,0,0,1,5.78-5.77h24.6l1.51-1.51-1-1a7.78,7.78,0,0,1-1.67-2.5H611.34a10.79,10.79,0,0,0-10.78,10.77V740.1a10.79,10.79,0,0,0,10.78,10.77H640a10.78,10.78,0,0,0,10.78-10.77V716.49a7.6,7.6,0,0,1-2.79-1.78Z"/></svg>