<svg id="レイヤー_1" data-name="レイヤー 1" xmlns="http://www.w3.org/2000/svg" viewBox="0 0 1115.39 1375.15"><defs><style>.cls-1,.cls-2{fill:#231815;}.cls-2{font-size:12px;font-family:KozGoPro-Regular-90ms-RKSJ-H, Kozuka Gothic Pro;}.cls-3{letter-spacing:0.25em;}.cls-4{fill:#040000;}</style></defs><title>nakazawa</title><path class="cls-1" d="M57.54,35V20.54L50.4,13.41H24.18L17,20.54V35H7.29V79.34h60V35ZM22,22.62l4.21-4.21H48.33l4.21,4.21V35H22ZM64.29,76.34h-54V38h54Z"/><polygon class="cls-1" points="34.48 71.67 40.11 71.67 40.11 56.81 44.12 54.5 44.12 46.62 37.29 42.67 30.47 46.62 30.47 54.5 34.48 56.81 34.48 71.67"/><path class="cls-1" d="M188,13.41H161.8l-7.13,7.13V35H109.42V79.34h60V35h-9.75V22.62l4.21-4.21H186l4.21,4.21V35.11h5V20.54ZM166.42,76.34h-54V38h54Z"/><polygon class="cls-1" points="136.6 71.67 142.23 71.67 142.23 56.81 146.24 54.5 146.24 46.62 139.42 42.67 132.59 46.62 132.59 54.5 136.6 56.81 136.6 71.67"/><polygon class="cls-1" points="275.39 52.46 281 42.76 281 23.35 275.39 13.65 264.19 13.65 258.59 23.35 258.59 42.76 264.19 52.46 275.39 52.46"/><polygon class="cls-1" points="292.68 45.25 282.41 55.52 281.51 55.52 258.07 55.52 257.17 55.52 246.9 45.25 242.07 45.25 242.07 50.08 254.34 62.35 254.34 62.35 254.34 62.35 258.07 62.35 266.37 62.35 266.37 76.35 258.1 76.35 258.1 83.18 281.48 83.18 281.48 76.35 273.21 76.35 273.21 62.35 281.51 62.35 285.24 62.35 285.24 62.35 285.24 62.35 297.51 50.08 297.51 45.25 292.68 45.25"/><path class="cls-1" d="M341,13.67v69.5h89V13.67Zm86,3V40.2l-7.51-7.53-27,27.08L379.66,46.83,366,60.5H344V16.67Zm-83,63.5V64.5H367.7l12-12,12.87,12.91,27-27.08L427,45.87v34.3Z"/><path class="cls-1" d="M369.45,38.16V26.86l-9.78-5.65-9.78,5.65v11.3l9.78,5.64Zm-15.56-9,5.78-3.34,5.78,3.34v6.68l-5.78,3.33-5.78-3.33Z"/><path class="cls-1" d="M29.66,178.58l10.26-10.25V147.91H21.64v-2.47l-5.77,3.34v6.66l3,1.73v8.29L7.29,177v48.37h60V178.58ZM10.29,222.41V178.29L21.87,166.7V150.91H36.92v16.17l-14.5,14.5H64.29v5.71H46.37v3H64.29v9.25H46.75v3H64.29v9.25H46.88v3H64.29v7.62Z"/><path class="cls-1" d="M185.12,197.75V150.91h-60v48.38l11.59,11.58v8.29l-3,1.73v6.66l5.77,3.33v-2.47h18.27V208L147.5,197.75Zm-3-43.84v7.63H164.71v3h17.41v9.25H164.59v3h17.53V186H164.21v3h17.91v5.71H140.25l14.5,14.49v16.17h-15V209.63L128.12,198V153.91Z"/><polygon class="cls-1" points="238.89 180.48 256.49 180.48 265.29 165.23 230.09 165.23 238.89 180.48"/><rect class="cls-1" x="245.19" y="180.48" width="5" height="39.35"/><rect class="cls-1" x="261.34" y="194.33" width="5" height="25.5"/><rect class="cls-1" x="277.49" y="183.84" width="5" height="35.98"/><rect class="cls-1" x="293.64" y="171.15" width="5" height="48.68"/><polygon class="cls-1" points="522.38 52.7 509.45 45.23 509.45 40.69 504.94 38.09 504.94 11.7 501.59 11.7 501.59 38.22 497.3 40.69 497.3 47.71 503.38 51.22 507.49 48.84 520.33 56.25 522.38 52.7"/><path class="cls-1" d="M503.32,85.45l-37-21.36V21.36L503.32,0l37,21.36V64.09Zm-34-23.1,34,19.63,34-19.63V23.09l-34-19.63-34,19.63Z"/><rect class="cls-1" x="502.21" y="71.79" width="2.22" height="7.55"/><rect class="cls-1" x="473.99" y="38.95" width="2.22" height="7.55" transform="translate(517.82 -432.37) rotate(90)"/><rect class="cls-1" x="530.32" y="38.95" width="2.22" height="7.55" transform="translate(574.15 -488.71) rotate(90)"/><polygon class="cls-1" points="633.85 52.7 620.92 45.23 620.92 40.69 616.41 38.09 616.41 11.7 613.07 11.7 613.07 38.22 608.77 40.69 608.77 47.71 614.85 51.22 618.96 48.84 631.8 56.25 633.85 52.7"/><polygon class="cls-1" points="615.54 85.01 614.04 82.42 648.79 62.35 648.79 23.09 614.79 3.46 580.79 23.09 580.79 63.22 577.79 63.22 577.79 21.36 614.79 0 651.79 21.36 651.79 64.09 615.54 85.01"/><rect class="cls-1" x="578.08" y="56.69" width="11.18" height="3" transform="translate(129.81 429.76) rotate(-45)"/><rect class="cls-1" x="573.37" y="52.6" width="3" height="11.18" transform="translate(127.23 423.54) rotate(-45)"/><polygon class="cls-1" points="414.67 185.94 411.67 185.94 411.67 157 387.35 142.97 363.04 157 363.04 185.94 360.04 185.94 360.04 155.27 387.35 139.5 414.67 155.27 414.67 185.94"/><polygon class="cls-1" points="387.35 232.38 360.04 216.62 360.04 185.94 363.04 185.94 363.04 214.88 387.35 228.92 411.67 214.88 411.67 185.94 414.67 185.94 414.67 216.62 387.35 232.38"/><polygon class="cls-1" points="362.23 189.51 360.86 186.84 385.85 174.01 385.85 141.24 388.85 141.24 388.85 175.84 362.23 189.51"/><rect class="cls-1" x="398.76" y="167.04" width="3" height="29.01" transform="translate(55.96 454.73) rotate(-62.83)"/><polygon class="cls-1" points="392.12 166.05 392.12 160.55 387.35 157.8 382.59 160.55 382.59 166.05 387.35 168.8 392.12 166.05"/><polygon class="cls-1" points="392.12 160.55 392.12 155.05 387.35 152.3 382.59 155.05 382.59 160.55 387.35 163.3 392.12 160.55"/><polygon class="cls-1" points="492.37 177.43 492.37 160.4 477.62 168.91 477.62 168.92 462.87 177.44 462.87 194.47 477.62 202.98 477.63 202.98 492.37 211.49 492.37 211.49 492.37 177.43 492.37 177.43"/><polygon class="cls-1" points="509.7 205.19 506.16 201.66 515.4 192.42 515.4 179.93 505.69 170.23 509.23 166.69 520.4 177.86 520.4 194.5 509.7 205.19"/><polygon class="cls-1" points="520.25 214.19 516.72 210.66 529.82 197.55 529.82 174.92 516.13 161.23 519.66 157.69 534.82 172.85 534.82 199.62 520.25 214.19"/><polygon class="cls-1" points="604.87 177.43 604.87 160.4 590.12 168.91 590.12 168.92 575.37 177.44 575.37 194.47 590.12 202.98 590.13 202.98 604.87 211.49 604.87 211.49 604.87 177.43 604.87 177.43"/><rect class="cls-1" x="633.44" y="161.09" width="5" height="53.42" transform="translate(53.47 504.69) rotate(-45)"/><rect class="cls-1" x="609.23" y="185.3" width="53.42" height="5" transform="translate(53.47 504.69) rotate(-45)"/><path class="cls-1" d="M385.53,367.21l-23.7-13.71L349.29,323V307.13l36.24-20.91,36.24,20.93V323l-12.54,30.55ZM365.81,350l19.72,11.4L405.25,350,416.77,322V310l-31.24-18-31.24,18v12Z"/><rect class="cls-1" x="383.03" y="289.11" width="5" height="75.21"/><rect class="cls-1" x="351.79" y="320.31" width="67.48" height="5" transform="translate(-3.13 3.78) rotate(-0.56)"/><path class="cls-1" d="M846,222.57,824.22,210l-17.43-25.22V161.36l20.86-12L846,159.92l18.35-10.6,20.86,12v23.42L867.78,210Zm-18.3-16.34L846,216.8l18.3-10.57,15.91-23v-19l-15.86-9.16L846,165.69l-18.35-10.6-15.86,9.16v19Z"/><path class="cls-1" d="M972.41,67h-23l-11.53-20,11.53-20h23l11.52,20Zm-21.32-3h19.59l9.79-17-9.79-17H951.09l-9.79,17Z"/><polygon class="cls-1" points="968.72 33.5 953.05 33.5 945.21 47.08 953.05 60.65 968.72 60.65 976.56 47.08 968.72 33.5"/><path class="cls-1" d="M999.67,72.44H922.1V22.57h3V18.34h13.13v4.23h9l6.37-11h14.47l6.37,11h25.18Zm-74.57-3h71.57V25.57H972.76l-6.37-11h-11l-6.37,11H935.23V21.34H928.1v4.23h-3Z"/><polygon class="cls-1" points="1057.61 34.44 1057.61 38.8 1061.39 40.99 1065.17 38.8 1065.17 34.44 1061.39 32.26 1057.61 34.44"/><polygon class="cls-1" points="1072.01 34.44 1072.01 38.8 1075.79 40.99 1079.57 38.8 1079.57 34.44 1075.79 32.26 1072.01 34.44"/><polygon class="cls-1" points="1086.41 34.44 1086.41 38.8 1090.19 40.99 1093.98 38.8 1093.98 34.44 1090.19 32.26 1086.41 34.44"/><path class="cls-1" d="M1060.63,73.14V57.66h-16l-6.31-6.31V21.45l6.31-6.31H1107l6.31,6.31V51.32L1107,57.63h-30.84Zm-14.78-18.48h17.78V65.9l11.26-11.27h30.85l4.55-4.55V22.69l-4.55-4.55h-59.89l-4.56,4.55V50.1Z"/><polygon class="cls-1" points="1079.88 429.78 1071.21 428.65 1065.89 435.6 1083.24 437.86 1079.88 429.78"/><rect class="cls-1" x="1072.79" y="406.03" width="4" height="64.87" transform="matrix(0.13, -0.99, 0.99, 0.13, 501.25, 1447.65)"/><path class="cls-1" d="M1098.18,509.28h-47.7l-6.12-60.95h59.94Zm-44.08-4h40.46l5.32-52.95h-51.09Z"/><polygon class="cls-1" points="1084.54 509.28 1064.12 509.28 1064.12 450.33 1068.12 450.33 1068.12 505.28 1080.54 505.28 1080.54 450.33 1084.54 450.33 1084.54 509.28"/><path class="cls-1" d="M1081.13,191.53l-13.71-13.71,4.82-18,9.61-9.61,18-4.82,13.71,13.72-4.82,18-9.6,9.61Zm-8.13-15.2,9.63,9.63,13.9-3.73,7.71-7.71,3.72-13.9-9.63-9.63-13.9,3.72-7.71,7.72Z"/><path class="cls-1" d="M1046.19,226.47l-13.71-13.71,4.82-18,9.61-9.61,18-4.82,13.71,13.71-4.82,18-9.6,9.6Zm-8.13-15.2,9.63,9.63,13.9-3.73,7.71-7.71,3.73-13.9-9.63-9.63-13.91,3.72-7.71,7.72Z"/><rect class="cls-1" x="1059.64" y="183.44" width="26.75" height="5" transform="translate(182.8 813.2) rotate(-45)"/><polygon class="cls-1" points="53.68 368.22 11.29 368.22 11.29 363.22 50.89 363.22 69.84 332.54 50.89 301.85 11.29 301.85 11.29 296.85 53.68 296.85 75.72 332.54 53.68 368.22"/><rect class="cls-1" x="18.84" y="296.43" width="5" height="22.67" transform="translate(-218.05 113.18) rotate(-46.93)"/><rect class="cls-1" x="10.01" y="288.42" width="22.67" height="5" transform="translate(-192.91 92.97) rotate(-43.07)"/><polygon class="cls-1" points="185.87 368.22 143.48 368.22 121.44 332.54 143.48 296.85 185.87 296.85 185.87 301.85 146.27 301.85 127.32 332.54 146.27 363.22 185.87 363.22 185.87 368.22"/><rect class="cls-1" x="164.48" y="305.27" width="22.67" height="5" transform="translate(-162.8 203.02) rotate(-43.07)"/><rect class="cls-1" x="173.32" y="279.58" width="5" height="22.67" transform="translate(-156.77 220.69) rotate(-46.93)"/><polygon class="cls-1" points="730 225.59 701.38 207.91 704 203.66 730 219.72 754.82 204.39 754.82 172.05 759.82 172.05 759.82 207.18 730 225.59"/><rect class="cls-1" x="741.06" y="177.82" width="18.66" height="5" transform="translate(106.18 605.28) rotate(-46.92)"/><rect class="cls-1" x="761.76" y="170.99" width="5" height="18.66" transform="translate(82.83 570.53) rotate(-43.07)"/><polygon class="cls-1" points="705.76 198.81 700.76 198.81 700.76 163.68 730.57 145.26 759.2 162.94 756.57 167.2 730.57 151.14 705.76 166.47 705.76 198.81"/><rect class="cls-1" x="700.86" y="188.04" width="18.66" height="5" transform="translate(86.02 579.24) rotate(-46.93)"/><rect class="cls-1" x="693.82" y="181.21" width="5" height="18.66" transform="translate(57.52 526.85) rotate(-43.07)"/><path class="cls-1" d="M291.61,315.54h0v-19.2l-5.9-4.8-5.9,4.8v7.42l-11.2-11.2L232.8,328.37h11V361.9h49.67V328.37h11Zm-15.85,26.78v8.24l-7.14,4.12-7.13-4.12V334.09l7.13-4.12,7.14,4.12Z"/><path class="cls-1" d="M643.2,358.09H584.45V311.76H643.2Zm-55.75-3H640.2V314.76H587.45Z"/><path class="cls-1" d="M605.88,312.1H593.13V297.3h12.75Zm-9.75-3h6.75v-8.8h-6.75Z"/><path class="cls-1" d="M634.71,312.1H622V297.3h12.75Zm-9.75-3h6.75v-8.8H625Z"/><polygon class="cls-1" points="632.17 306.8 632.17 310.24 624.25 310.24 624.25 306.8 603.58 306.8 603.58 310.24 595.67 310.24 595.67 306.8 582.04 306.8 582.04 314.79 645.79 314.79 645.79 306.8 632.17 306.8"/><polygon class="cls-1" points="598.86 324.88 598.86 321.12 595.6 319.23 592.33 321.12 592.33 324.88 595.6 326.77 598.86 324.88"/><polygon class="cls-1" points="611.01 324.88 611.01 321.12 607.75 319.23 604.48 321.12 604.48 324.88 607.75 326.77 611.01 324.88"/><polygon class="cls-1" points="623.16 324.88 623.16 321.12 619.9 319.23 616.63 321.12 616.63 324.88 619.9 326.77 623.16 324.88"/><polygon class="cls-1" points="635.31 324.88 635.31 321.12 632.05 319.23 628.78 321.12 628.78 324.88 632.05 326.77 635.31 324.88"/><polygon class="cls-1" points="598.86 336.81 598.86 333.04 595.6 331.16 592.33 333.04 592.33 336.81 595.6 338.69 598.86 336.81"/><polygon class="cls-1" points="611.01 336.81 611.01 333.04 607.75 331.16 604.48 333.04 604.48 336.81 607.75 338.69 611.01 336.81"/><polygon class="cls-1" points="623.16 336.81 623.16 333.04 619.9 331.16 616.63 333.04 616.63 336.81 619.9 338.69 623.16 336.81"/><polygon class="cls-1" points="635.31 336.81 635.31 333.04 632.05 331.16 628.78 333.04 628.78 336.81 632.05 338.69 635.31 336.81"/><polygon class="cls-1" points="598.86 348.74 598.86 344.97 595.6 343.08 592.33 344.97 592.33 348.74 595.6 350.62 598.86 348.74"/><polygon class="cls-1" points="611.01 348.74 611.01 344.97 607.75 343.08 604.48 344.97 604.48 348.74 607.75 350.62 611.01 348.74"/><polygon class="cls-1" points="623.16 348.74 623.16 344.97 619.9 343.08 616.63 344.97 616.63 348.74 619.9 350.62 623.16 348.74"/><polygon class="cls-1" points="635.31 348.74 635.31 344.97 632.05 343.08 628.78 344.97 628.78 348.74 632.05 350.62 635.31 348.74"/><polygon class="cls-1" points="737.84 351.25 757.67 318.05 753.61 302.87 738.42 298.8 705.23 318.63 724.5 323.4 704.81 345.4 705.42 346.01 710.46 351.06 711.07 351.67 733.08 331.97 737.84 351.25"/><polygon class="cls-1" points="877.89 341.3 867.9 331.31 854.25 334.97 837.75 318.46 841.4 304.81 831.41 294.82 817.77 298.48 814.11 312.13 824.1 322.12 850.6 348.61 860.59 358.6 874.23 354.95 877.89 341.3"/><polygon class="cls-1" points="743.93 53.68 734.31 48.13 734.31 44.75 730.95 42.81 730.95 23.17 728.46 23.17 728.46 42.91 725.27 44.75 725.27 49.97 729.79 52.58 732.85 50.81 742.4 56.33 743.93 53.68"/><path class="cls-1" d="M729.75,78.5,701.83,62.38V30.15L729.75,14l27.92,16.12V62.38ZM704.83,60.65,729.75,75l24.92-14.38V31.88L729.75,17.49,704.83,31.88Z"/><rect class="cls-1" x="728.92" y="67.89" width="1.65" height="5.62"/><rect class="cls-1" x="711.19" y="67.65" width="3.45" height="14.98"/><rect class="cls-1" x="744.86" y="67.65" width="3.45" height="14.98"/><rect class="cls-1" x="707.92" y="43.45" width="1.65" height="5.62" transform="translate(755.01 -662.48) rotate(90)"/><rect class="cls-1" x="749.84" y="43.45" width="1.65" height="5.62" transform="translate(796.93 -704.4) rotate(90)"/><polygon class="cls-1" points="713.02 7.35 701.79 13.83 701.79 26.8 724.25 13.83 713.02 7.35"/><polygon class="cls-1" points="746.56 7.35 757.79 13.83 757.79 26.8 735.33 13.83 746.56 7.35"/><path class="cls-1" d="M1102.63,317l11-6.37-5.22-9L1097.36,308l-18.13-10.47V285.93h-10.44v11.66L1050.73,308l-11.15-6.43-5.22,9,11.17,6.45v20.83l-11.17,6.45,5.22,9,11.13-6.42,18.08,10.44V367.5h10.44v-10L1097.38,347l11.06,6.38,5.22-9-11-6.37Zm-7,22.19L1074,351.67l-21.61-12.48V314.24L1074,301.76l21.61,12.48Z"/><polygon class="cls-1" points="1090.04 335.96 1090.04 317.46 1074.01 308.21 1057.99 317.46 1057.99 335.96 1074.01 345.21 1090.04 335.96"/><polygon class="cls-1" points="42.04 480.76 65.05 467.48 39.99 453.02 19.03 440.91 19.03 494.05 39.75 482.09 39.75 482.09 39.92 481.99 42.04 480.76 42.04 480.76"/><polygon class="cls-1" points="138.04 444.9 134.54 450.97 134.54 485.84 138.04 491.9 145.04 491.9 148.54 485.84 148.54 450.97 145.04 444.9 138.04 444.9"/><polygon class="cls-1" points="172.21 444.9 165.21 444.9 161.71 450.97 161.71 485.84 165.21 491.9 172.21 491.9 175.71 485.84 175.71 450.97 172.21 444.9"/><polygon class="cls-1" points="407.8 439.6 399.49 439.6 395.34 446.79 395.34 462.69 378.59 453.02 357.63 440.91 357.63 494.05 378.35 482.09 378.52 481.99 380.64 480.76 380.64 480.76 395.34 472.28 395.34 488.17 399.49 495.37 407.8 495.37 411.95 488.17 411.95 446.79 407.8 439.6"/><polygon class="cls-1" points="245.61 439.6 253.92 439.6 258.07 446.79 258.07 462.69 274.82 453.02 295.78 440.91 295.78 494.05 275.07 482.09 274.9 481.99 272.78 480.76 272.78 480.76 258.07 472.28 258.07 488.17 253.92 495.37 245.61 495.37 241.46 488.17 241.46 446.79 245.61 439.6"/><polygon class="cls-1" points="527.71 494.1 523.46 491.47 537.94 468.03 524.19 445.77 478.58 445.77 478.58 440.77 526.98 440.77 543.82 468.03 527.71 494.1"/><rect class="cls-1" x="478" y="434.32" width="16.91" height="5" transform="translate(-167.21 449.9) rotate(-43.07)"/><rect class="cls-1" x="483.96" y="441.25" width="5" height="16.91" transform="translate(-174.26 497.96) rotate(-46.93)"/><polygon class="cls-1" points="521.01 494.61 472.6 494.61 455.77 467.35 471.87 441.28 476.12 443.91 461.64 467.35 475.39 489.61 521.01 489.61 521.01 494.61"/><rect class="cls-1" x="504.67" y="496.06" width="16.91" height="5" transform="translate(-202.19 484.75) rotate(-43.07)"/><rect class="cls-1" x="510.63" y="477.22" width="5" height="16.91" transform="translate(-192.08 528.85) rotate(-46.93)"/><rect class="cls-1" x="646.55" y="434.33" width="5" height="16.91" transform="translate(-117.65 614.52) rotate(-46.93)"/><rect class="cls-1" x="640.59" y="453.17" width="16.91" height="5" transform="translate(-136.27 566) rotate(-43.07)"/><polygon class="cls-1" points="607.57 476.49 570.72 476.49 570.72 471.49 604.78 471.49 620.07 446.74 656.93 446.74 656.93 451.74 622.86 451.74 607.57 476.49"/><rect class="cls-1" x="640.59" y="478.25" width="16.91" height="5" transform="translate(-153.4 572.76) rotate(-43.07)"/><polygon class="cls-1" points="617.26 462.73 614.32 467.48 620.07 476.79 656.93 476.79 656.93 471.79 622.86 471.79 617.26 462.73"/><polygon class="cls-1" points="610.21 460.82 613.15 456.06 607.57 447.04 570.72 447.04 570.72 452.04 604.78 452.04 610.21 460.82"/><polygon class="cls-1" points="644.5 464.74 642.44 462.55 641.16 463.92 653.52 475.47 656.93 471.81 646.94 462.47 644.5 464.74"/><path class="cls-1" d="M764.34,495.56h-69.1l-8.68-15,8.68-15h3.44l9.68-16.77h21.1l5.75,10,2-3.44h17.06l5.92,10.25h4.16l8.68,15Zm-67.37-3h65.64l6.95-12-6.95-12h-4.16l-5.92-10.25h-13.6l-3.72,6.44-7.48-13H710.09l-9.68,16.77H697l-7,12Z"/><path class="cls-1" d="M1106.73,642h-69l-8.66-15,8.66-15h3.44l9.66-16.73h21.06l5.73,9.93,2-3.43h17l5.9,10.23h4.16l8.66,15Zm-67.23-3H1105l6.93-12-6.93-12h-4.16l-5.91-10.23h-13.56l-3.72,6.43-7.47-12.93h-17.59l-9.66,16.73h-3.43l-6.94,12Z"/><polygon class="cls-1" points="953.59 444.35 953.59 466.95 966 466.95 966 444.35 980.01 444.35 959.79 424.13 939.57 444.35 953.59 444.35"/><polygon class="cls-1" points="994.34 465.49 990.18 465.49 984.26 455.24 969.04 455.24 969.04 458.24 982.52 458.24 988.45 468.49 992.61 468.49 999.56 480.53 992.61 492.56 926.97 492.56 920.02 480.53 926.97 468.49 930.41 468.49 940.1 451.72 950.54 451.72 950.54 448.72 938.36 448.72 928.68 465.49 925.24 465.49 916.56 480.53 925.24 495.56 994.34 495.56 1003.02 480.53 994.34 465.49"/><polygon class="cls-1" points="849.77 463.5 849.77 440.9 837.36 440.9 837.36 463.5 823.35 463.5 843.57 483.72 863.79 463.5 849.77 463.5"/><polygon class="cls-1" points="878.12 465.49 873.96 465.49 868.04 455.24 852.82 455.24 852.82 458.24 866.3 458.24 872.23 468.49 876.39 468.49 883.34 480.52 876.39 492.56 810.75 492.56 803.8 480.52 810.75 468.49 814.19 468.49 823.87 451.72 834.32 451.72 834.32 448.72 822.14 448.72 812.46 465.49 809.02 465.49 800.34 480.52 809.02 495.56 878.12 495.56 886.8 480.52 878.12 465.49"/><path class="cls-1" d="M961.46,220.76l-21.78-12.57L922.25,183V159.55l20.85-12,18.36,10.6,18.35-10.6,20.86,12V183l-17.43,25.22Zm-18.31-16.34L961.46,215l18.3-10.57,15.91-23v-19l-15.86-9.15-18.35,10.59L943.1,153.29l-15.85,9.15v19Z"/><polygon class="cls-1" points="960.83 181.51 924.75 181.51 924.75 176.51 958.76 176.51 970.8 164.47 982.21 175.88 998.17 175.88 998.17 180.88 980.14 180.88 970.8 171.54 960.83 181.51"/><polygon class="cls-1" points="960.83 195.26 930.44 195.26 930.44 190.26 958.76 190.26 971.04 177.98 982.7 189.64 992.48 189.64 992.48 194.64 980.63 194.64 971.04 185.05 960.83 195.26"/><path class="cls-1" d="M1098.66,600.93l-12-6.9V580.22l12-6.91,12,6.91V594Zm-9-8.63,9,5.17,9-5.17V582l-9-5.17-9,5.17Z"/><path class="cls-1" d="M526.81,320.11l-3.86,0-2.75,4.53-2.71-4.47-4.21,0-10.35,4.43.91-4.34-1.6,0v-11l-5-.59V320.4l-28.74.28v-10.6l28.74-16.58v3.86l5-.59V293.5l3.68,2.12-1.39-6.57-4.78-2.77L463.5,307.19V323L476,353.56l23.7,13.71,23.71-13.69,12.19-29.7Zm-29.57,39.94-17.22-10-10-24.42,27.24-.27Zm22.23-9.94-17.23,9.94v-34.7l27.5-.27Z"/><path class="cls-1" d="M538.4,303.05l5.44-4.31-11.68-1.38,2.65-12.58-11.6,5-3-5-3,5-11.6-5,2.66,12.58-11.69,1.38,5.45,4.31-5.45,4.32,11.69,1.38-2.66,12.58,11.6-5,3,5,3-5,11.6,5-2.65-12.58,11.68-1.38Zm-20.51-.6-3.5,2-3.51-2v-4l3.51-2,3.5,2Zm11.63,0-3.5,2-3.5-2v-4l3.5-2,3.5,2Z"/><path class="cls-1" d="M537.79,640.14H466.12V588h40.64l7.16-12.42H530l7.8,13.51Zm-68.67-3h65.67V589.86l-6.53-11.32h-12.6L508.49,591H469.12Z"/><polygon class="cls-1" points="729.79 621.53 741.83 614.59 728.72 607.02 717.76 600.69 717.76 628.48 728.59 622.23 728.59 622.23 728.68 622.17 729.79 621.53 729.79 621.53"/><path class="cls-1" d="M764.42,640.14H692.75V588h40.63l7.17-12.42h16.07l7.8,13.51Zm-68.67-3h65.67V589.86l-6.54-11.32h-12.6L735.12,591H695.75Z"/><path class="cls-1" d="M652.71,640.14H581V588h40.63l7.17-12.42h16.07l7.8,13.51Zm-68.67-3h65.67V589.86l-6.54-11.32h-12.6L623.41,591H584Z"/><rect class="cls-1" x="614.37" y="600.69" width="5" height="27.32"/><rect class="cls-1" x="603.22" y="611.85" width="27.32" height="5"/><polygon class="cls-1" points="859.06 59.94 849.98 54.7 849.98 51.52 846.82 49.69 846.82 31.17 844.47 31.17 844.47 49.78 841.46 51.52 841.46 56.44 845.72 58.91 848.61 57.24 857.62 62.44 859.06 59.94"/><path class="cls-1" d="M845.68,83.45,819.26,68.2V37.69l26.42-15.25L872.1,37.69V68.2Zm-23.42-17L845.68,80,869.1,66.46v-27L845.68,25.91,822.26,39.43Z"/><rect class="cls-1" x="844.18" y="15.45" width="3" height="8.72"/><rect class="cls-1" x="835.43" y="14.67" width="20.5" height="3"/><path class="cls-1" d="M879.06,640.36H807.3l10.22-41h71.76Zm-67.92-3h65.58l8.72-35H819.86Z"/><polygon class="cls-1" points="877.22 640.36 807.06 640.36 807.06 588.17 847.69 588.17 854.86 575.76 870.92 575.76 878.72 589.27 878.72 600.91 875.72 600.91 875.72 590.08 869.19 578.76 856.59 578.76 849.42 591.17 810.06 591.17 810.06 637.36 877.22 637.36 877.22 640.36"/><rect class="cls-1" x="935.69" y="593.75" width="3" height="7.35"/><rect class="cls-1" x="944.11" y="593.75" width="3" height="7.35"/><rect class="cls-1" x="960.97" y="593.75" width="3" height="7.35"/><rect class="cls-1" x="969.4" y="593.75" width="3" height="7.35"/><rect class="cls-1" x="977.82" y="593.75" width="3" height="7.35"/><rect class="cls-1" x="952.54" y="593.75" width="3" height="7.35"/><path class="cls-1" d="M993.46,640.55H921.7l10.22-40.95h71.76Zm-67.92-3h65.58l8.72-34.95H934.26Z"/><path class="cls-1" d="M993.46,640.55h-72V588.37h5.8v-4.62h37.5l4.5-7.8h16.06l7.8,13.51V599.6h10.56Zm-69-3h66.66l8.72-34.95h-9.72V590.27L983.59,579H971l-4.5,7.8H930.26v4.62h-5.8Z"/><polygon class="cls-1" points="927.26 630.68 927.26 589.87 930.26 589.87 930.26 606.27 931.92 599.6 984.32 599.6 984.32 586.75 965.62 586.75 965.62 583.75 987.32 583.75 987.32 602.6 934.26 602.6 927.26 630.68"/><rect class="cls-1" x="172.04" y="595.65" width="27.5" height="3"/><rect class="cls-1" x="172.04" y="606.75" width="19.38" height="3"/><rect class="cls-1" x="172.04" y="617.85" width="27.5" height="3"/><polygon class="cls-1" points="144.81 611.61 144.81 605.65 139.65 602.67 134.49 605.65 134.49 611.61 139.65 614.59 144.81 611.61"/><path class="cls-1" d="M164.57,627.71H114.73V589.54h49.84Zm-46.84-3h43.84V592.54H117.73Z"/><rect class="cls-1" x="125.65" y="592.11" width="3" height="22.86" transform="matrix(0.29, -0.96, 0.96, 0.29, -487.06, 547.18)"/><rect class="cls-1" x="142.09" y="601.84" width="21.45" height="3" transform="translate(-170.94 71.78) rotate(-17.13)"/><polygon class="cls-1" points="46.44 612.09 46.44 604.41 39.79 600.58 33.15 604.41 33.15 612.09 39.79 615.92 46.44 612.09"/><path class="cls-1" d="M71.45,632.4H8.13V584.1H71.45Zm-60.32-3H68.45V587.1H11.13Z"/><rect class="cls-1" x="22.2" y="586.99" width="3" height="29.43" transform="translate(-558.26 447.01) rotate(-72.86)"/><rect class="cls-1" x="42.94" y="599.94" width="27.63" height="3" transform="translate(-174.65 43.4) rotate(-17.13)"/><polygon class="cls-1" points="276.53 586.71 276.53 565.63 264.95 565.63 264.95 586.71 251.87 586.71 270.74 605.58 289.61 586.71 276.53 586.71"/><polygon class="cls-1" points="275.9 632.57 275.9 626.61 270.74 623.63 265.58 626.61 265.58 632.57 270.74 635.55 275.9 632.57"/><path class="cls-1" d="M295.66,648.67H245.82V610.5h49.84Zm-46.84-3h43.84V613.5H248.82Z"/><rect class="cls-1" x="256.74" y="613.07" width="3" height="22.86" transform="matrix(0.29, -0.96, 0.96, 0.29, -414.63, 687.23)"/><rect class="cls-1" x="273.18" y="622.8" width="21.45" height="3" transform="translate(-171.3 111.33) rotate(-17.13)"/><path class="cls-1" d="M430.67,590.35l5.16-4.09L424.76,585,427.27,573l-11,4.7-2.85-4.7-2.86,4.7-11-4.7L402.1,585,391,586.26l5.16,4.09L391,594.44l11.08,1.31-2.52,11.92,11-4.7,2.86,4.7,2.85-4.7,11,4.7-2.51-11.92,11.07-1.31Zm-19.44-.57-3.32,1.91-3.32-1.91V586l3.32-1.92,3.32,1.92Zm11,0-3.32,1.91-3.32-1.91V586l3.32-1.92,3.32,1.92Z"/><polygon class="cls-1" points="394.31 616.36 394.31 607.64 386.75 603.28 379.19 607.64 379.19 616.36 386.75 620.73 394.31 616.36"/><rect class="cls-1" x="366.95" y="587.82" width="3" height="33.47" transform="translate(-317.84 778.47) rotate(-72.86)"/><rect class="cls-1" x="390.87" y="606.37" width="6.89" height="3" transform="translate(-161.56 143.12) rotate(-17.13)"/><polygon class="cls-1" points="422.55 639.26 350.95 639.26 350.95 584.75 389.92 584.75 389.92 587.75 353.95 587.75 353.95 636.26 419.55 636.26 419.55 607.67 422.55 607.67 422.55 639.26"/><path class="cls-1" d="M972.17,322.31l5-2.89-2.37-4.11-5,2.91-8.22-4.75v-5.26h-4.74v5.29l-8.2,4.73-5-2.92-2.37,4.11,5.07,2.92v9.45l-5.07,2.93,2.37,4.1,5-2.91,8.2,4.73v4.57h4.74v-4.53l8.23-4.76,5,2.9,2.37-4.1-5-2.89ZM969,332.37l-9.8,5.66-9.81-5.66V321.05l9.81-5.66,9.8,5.66Z"/><polygon class="cls-1" points="966.46 330.91 966.46 322.51 959.19 318.32 951.92 322.51 951.92 330.91 959.19 335.11 966.46 330.91"/><rect class="cls-1" x="934.96" y="284.83" width="48.46" height="6.25"/><rect class="cls-1" x="934.96" y="362.34" width="48.46" height="6.25"/><rect class="cls-1" x="933.96" y="284.83" width="2" height="83.76"/><rect class="cls-1" x="982.42" y="284.83" width="2" height="83.76"/><text class="cls-2" transform="translate(21.79 121.28)">ロック</text><text class="cls-2" transform="translate(125.12 121.28)">ロック解除</text><text class="cls-2" transform="translate(252.46 121.28)">マイク</text><text class="cls-2" transform="translate(361.79 121.28)">イメージ</text><text class="cls-2" transform="translate(489.12 121.28)">時計</text><text class="cls-2" transform="translate(604.46 121.28)">履歴</text><text class="cls-2" transform="translate(695.79 121.28)">目覚まし時計</text><text class="cls-2" transform="translate(799.12 121.28)">ストップウォッチ</text><text class="cls-2" transform="translate(944.46 121.28)">カメラ</text><text class="cls-2" transform="translate(1066.26 121.28)">SMS</text><text class="cls-2" transform="translate(24.96 259.77)">Good</text><text class="cls-2" transform="translate(144.92 259.77)">Bad</text><text class="cls-2" transform="translate(258.46 259.77)">電波</text><text class="cls-2" transform="translate(367.79 259.77)">マウス</text><text class="cls-2" transform="translate(471.12 259.77)">ボリューム</text><text class="cls-2" transform="translate(592.46 259.77)">ミュート</text><text class="cls-2" transform="translate(725.16 259.77)">RT</text><text class="cls-2" transform="translate(829.12 259.77)">いいね</text><text class="cls-2" transform="translate(932.46 259.77)">ヘルスケア</text><text class="cls-2" transform="translate(1059.79 259.77)">リンク</text><text class="cls-2" transform="translate(27.79 400.26)">戻る</text><text class="cls-2" transform="translate(131.12 400.26)">元に戻す</text><text class="cls-2" transform="translate(252.46 400.26)">ホーム</text><text class="cls-2" transform="translate(361.79 400.26)">ブロック</text><text class="cls-2" transform="translate(453.12 400.26)">ウイルスブロック</text><text class="cls-2" transform="translate(586.46 400.26)">カレンダー</text><text class="cls-2" transform="translate(707.79 400.26)">カーソル</text><text class="cls-2" transform="translate(835.12 400.26)">電話</text><text class="cls-2" transform="translate(914.46 400.26)">ディスプレイ設定</text><text class="cls-2" transform="translate(1065.79 400.26)">設定</text><text class="cls-2" transform="translate(27.79 538.76)">再生</text><text class="cls-2" transform="translate(131.12 538.76)">一時停止</text><text class="cls-2" transform="translate(246.46 538.76)">最初から</text><text class="cls-2" transform="translate(373.79 538.76)">次へ</text><text class="cls-2" transform="translate(477.12 538.76)">リピート</text><text class="cls-2" transform="translate(586.46 538.76)">シャッフル</text><text class="cls-2" transform="translate(707.79 538.76)">クラウド</text><text class="cls-2" transform="translate(799.12 538.76)">クラウド上に保存</text><text class="cls-2" transform="translate(917.37 538.76)">クラウドか<tspan class="cls-3" x="60" y="0">ら</tspan><tspan x="75" y="0">UP</tspan></text><text class="cls-2" transform="translate(1059.79 538.76)">ゴミ箱</text><text class="cls-2" transform="translate(21.79 681.25)">メール</text><text class="cls-2" transform="translate(125.12 681.25)">メール送信</text><text class="cls-2" transform="translate(240.46 681.25)">メール受信</text><text class="cls-2" transform="translate(355.79 681.25)">迷惑メール</text><text class="cls-2" transform="translate(477.12 681.25)">フォルダ</text><text class="cls-2" transform="translate(580.46 681.25)">新規フォルダ</text><text class="cls-2" transform="translate(695.79 681.25)">動画フォルダ</text><text class="cls-2" transform="translate(811.12 681.25)">空のフォルダ</text><text class="cls-2" transform="translate(908.46 681.25)">空じゃないフォルダ</text><text class="cls-2" transform="translate(1065.79 681.25)">天気</text><polygon class="cls-1" points="477 1168.06 471.27 1177.98 477 1187.91 488.46 1187.91 494.19 1177.98 488.46 1168.06 477 1168.06"/><polygon class="cls-1" points="471.29 1148.18 471.29 1157.18 492.35 1157.18 501.88 1166.72 501.88 1166.83 501.87 1166.83 501.87 1187.89 510.87 1187.89 510.87 1184.84 510.88 1184.84 510.88 1162.99 496.08 1148.18 471.29 1148.18"/><polygon class="cls-1" points="514.05 1130.21 492.35 1130.21 489.27 1130.21 471.29 1130.21 471.29 1139.21 474.34 1139.21 474.34 1139.22 492.47 1139.22 492.47 1139.21 510.32 1139.21 519.86 1148.74 519.86 1148.85 519.85 1148.85 519.85 1166.85 519.85 1169.91 519.85 1187.91 528.85 1187.91 528.85 1184.86 528.86 1184.86 528.86 1166.86 528.86 1166.73 528.86 1145.02 514.05 1130.21"/><polygon class="cls-1" points="290.46 1009.57 270.35 1009.57 282.17 979.96 277.69 972.21 268.75 972.21 264.28 979.96 264.3 979.99 252.93 1017.66 273.22 1017.66 257.66 1061.01 290.46 1009.57"/><polygon class="cls-1" points="64.16 746.26 54.71 708.76 41.1 700.9 27.49 708.76 18.04 746.26 35.04 736 36.67 765.48 37.54 765.48 44.67 765.48 45.53 765.48 47.17 736 64.16 746.26"/><polygon class="cls-1" points="142.03 756.25 179.53 746.8 187.39 733.19 179.53 719.58 142.03 710.13 152.29 727.13 122.81 728.76 122.81 729.63 122.81 736.76 122.81 737.62 152.29 739.26 142.03 756.25"/><polygon class="cls-1" points="247.37 720.12 256.82 757.62 270.43 765.48 284.04 757.62 293.49 720.12 276.5 730.39 274.86 700.9 274 700.9 266.87 700.9 266 700.9 264.37 730.39 247.37 720.12"/><polygon class="cls-1" points="397.83 710.13 360.33 719.58 352.47 733.19 360.33 746.8 397.83 756.25 387.57 739.26 417.06 737.62 417.06 736.76 417.06 729.63 417.06 728.76 387.57 727.13 397.83 710.13"/><path class="cls-1" d="M513.89,745.35H485.64l-14.12-24.46,14.12-24.47h28.25L528,720.89Zm-26.52-3h24.79l12.39-21.46-12.39-21.47H487.37L475,720.89Z"/><polygon class="cls-1" points="514.52 769.72 485.01 769.72 485.01 743.85 488.01 743.85 488.01 766.72 511.52 766.72 511.52 743.85 514.52 743.85 514.52 769.72"/><rect class="cls-1" x="486.51" y="750.15" width="26.52" height="3"/><rect class="cls-1" x="486.51" y="758" width="26.52" height="3"/><polygon class="cls-1" points="506.5 776.03 493.04 776.03 493.04 768.22 496.04 768.22 496.04 773.03 503.5 773.03 503.5 768.22 506.5 768.22 506.5 776.03"/><path class="cls-1" d="M630.56,745.35H602.31l-14.13-24.46,14.13-24.47h28.25l14.12,24.47Zm-26.52-3h24.78l12.4-21.46-12.4-21.47H604l-12.39,21.47Z"/><polygon class="cls-1" points="631.19 769.72 601.67 769.72 601.67 743.85 604.67 743.85 604.67 766.72 628.19 766.72 628.19 743.85 631.19 743.85 631.19 769.72"/><rect class="cls-1" x="603.17" y="750.15" width="26.52" height="3"/><rect class="cls-1" x="603.17" y="758" width="26.52" height="3"/><polygon class="cls-1" points="623.16 776.03 609.7 776.03 609.7 768.22 612.7 768.22 612.7 773.03 620.16 773.03 620.16 768.22 623.16 768.22 623.16 776.03"/><rect class="cls-1" x="612.89" y="704.92" width="7.08" height="22.47"/><rect class="cls-1" x="612.89" y="730.81" width="7.08" height="6.47"/><path class="cls-1" d="M728.89,754.71,706.31,741.8l-.1-26,22.48-13.1,22.58,12.92.1,26Zm-19.58-14.66,19.57,11.2,19.48-11.35-.08-22.55-19.58-11.2L709.22,717.5Z"/><rect class="cls-1" x="744.19" y="744.52" width="3" height="26.35" transform="translate(-280.07 478.46) rotate(-30.23)"/><polygon class="cls-1" points="711.79 731.81 711.74 719.09 722.73 712.68 724.24 715.28 714.75 720.81 714.79 731.8 711.79 731.81"/><polygon class="cls-1" points="734.64 745.28 733.13 742.69 742.63 737.15 742.59 726.16 745.59 726.15 745.64 738.88 734.64 745.28"/><path class="cls-1" d="M843.64,754.71,821.06,741.8l-.1-26,22.47-13.1L866,715.6l.1,26Zm-19.59-14.66,19.58,11.2,19.48-11.35L863,717.35l-19.57-11.2L824,717.5Z"/><rect class="cls-1" x="858.94" y="744.52" width="3" height="26.35" transform="translate(-264.47 536.24) rotate(-30.23)"/><polygon class="cls-1" points="826.54 731.81 826.49 719.09 837.48 712.68 838.99 715.28 829.49 720.81 829.54 731.8 826.54 731.81"/><polygon class="cls-1" points="849.39 745.28 847.88 742.69 857.38 737.15 857.33 726.16 860.33 726.15 860.38 738.88 849.39 745.28"/><rect class="cls-1" x="820.74" y="759.67" width="15.5" height="3"/><rect class="cls-1" x="826.99" y="753.42" width="3" height="15.5"/><path class="cls-1" d="M960.17,754.71,937.59,741.8l-.1-26L960,702.68l22.58,12.92.11,26Zm-19.59-14.66,19.58,11.2,19.48-11.35-.09-22.55L960,706.15,940.49,717.5Z"/><rect class="cls-1" x="975.47" y="744.52" width="3" height="26.35" transform="translate(-248.62 594.9) rotate(-30.23)"/><polygon class="cls-1" points="943.07 731.81 943.02 719.09 954.01 712.68 955.52 715.28 946.02 720.81 946.07 731.8 943.07 731.81"/><polygon class="cls-1" points="965.92 745.28 964.41 742.69 973.91 737.15 973.86 726.16 976.86 726.15 976.91 738.88 965.92 745.28"/><rect class="cls-1" x="937.26" y="759.67" width="15.5" height="3"/><polygon class="cls-1" points="1060.05 735.8 1056.51 732.27 1067.68 721.1 1084.32 721.1 1095.02 731.8 1091.48 735.33 1082.24 726.1 1069.75 726.1 1060.05 735.8"/><polygon class="cls-1" points="1068.19 746.81 1064.65 743.27 1070.96 736.96 1080.82 736.96 1086.87 743.02 1083.34 746.56 1078.74 741.96 1073.04 741.96 1068.19 746.81"/><polygon class="cls-1" points="1051.05 725.37 1047.52 721.83 1062.67 706.67 1089.44 706.67 1104.01 721.24 1100.48 724.78 1087.37 711.67 1064.74 711.67 1051.05 725.37"/><polygon class="cls-1" points="1079.91 748.83 1071.62 748.83 1067.48 756 1071.62 763.17 1079.91 763.17 1084.05 756 1079.91 748.83"/><rect class="cls-1" x="130.34" y="873.44" width="49.52" height="5"/><polygon class="cls-1" points="181.28 873.44 178.43 873.44 177.01 875.94 178.43 878.44 181.28 878.44 182.7 875.94 181.28 873.44"/><polygon class="cls-1" points="131.76 873.44 128.92 873.44 127.49 875.94 128.92 878.44 131.76 878.44 133.19 875.94 131.76 873.44"/><polygon class="cls-1" points="362.43 873.44 359.58 873.44 358.16 875.94 359.58 878.44 362.43 878.44 363.85 875.94 362.43 873.44"/><rect class="cls-1" x="361.01" y="873.44" width="49.52" height="5"/><polygon class="cls-1" points="411.95 873.44 409.1 873.44 407.68 875.94 409.1 878.44 411.95 878.44 413.37 875.94 411.95 873.44"/><polygon class="cls-1" points="390.15 899.95 390.15 894.95 385.76 892.45 381.38 894.95 381.38 899.95 385.76 902.45 390.15 899.95"/><polygon class="cls-1" points="390.15 856.94 390.15 851.94 385.76 849.44 381.38 851.94 381.38 856.94 385.76 859.44 390.15 856.94"/><rect class="cls-1" x="15.01" y="873.44" width="49.52" height="5"/><rect class="cls-1" x="37.26" y="851.19" width="5" height="49.52"/><polygon class="cls-1" points="65.95 873.44 63.1 873.44 61.68 875.94 63.1 878.44 65.95 878.44 67.37 875.94 65.95 873.44"/><polygon class="cls-1" points="16.43 873.44 13.58 873.44 12.16 875.94 13.58 878.44 16.43 878.44 17.85 875.94 16.43 873.44"/><polygon class="cls-1" points="42.27 902.13 42.27 899.28 39.77 897.85 37.27 899.28 37.27 902.13 39.77 903.55 42.27 902.13"/><polygon class="cls-1" points="42.27 852.61 42.27 849.76 39.77 848.34 37.27 849.76 37.27 852.61 39.77 854.03 42.27 852.61"/><line class="cls-1" x1="252.92" y1="858.44" x2="287.94" y2="893.45"/><rect class="cls-1" x="267.93" y="851.18" width="5" height="49.52" transform="translate(-540.18 447.78) rotate(-45)"/><line class="cls-1" x1="287.94" y1="858.44" x2="252.92" y2="893.45"/><rect class="cls-1" x="245.67" y="873.44" width="49.52" height="5" transform="translate(-540.18 447.78) rotate(-45)"/><polygon class="cls-1" points="290.71 892.69 288.7 890.68 285.93 891.44 285.16 894.21 287.18 896.23 289.95 895.46 290.71 892.69"/><polygon class="cls-1" points="255.7 857.68 253.69 855.66 250.91 856.42 250.15 859.2 252.16 861.21 254.94 860.45 255.7 857.68"/><polygon class="cls-1" points="253.69 896.23 255.7 894.21 254.94 891.44 252.16 890.68 250.15 892.69 250.91 895.46 253.69 896.23"/><polygon class="cls-1" points="288.7 861.21 290.71 859.2 289.95 856.42 287.18 855.66 285.16 857.68 285.93 860.45 288.7 861.21"/><rect class="cls-1" x="496.15" y="839.18" width="5" height="42.02"/><polygon class="cls-1" points="512.08 904.46 485.21 904.46 471.78 881.2 485.21 857.93 494.82 857.93 494.82 862.93 488.1 862.93 477.56 881.2 488.1 899.46 509.19 899.46 519.74 881.2 509.19 862.93 502.48 862.93 502.48 857.93 512.08 857.93 525.51 881.2 512.08 904.46"/><polygon class="cls-1" points="628.46 894.02 624.93 890.49 634.16 881.25 634.16 868.76 624.46 859.06 627.99 855.52 639.16 866.69 639.16 883.33 628.46 894.02"/><polygon class="cls-1" points="641.6 901.77 638.07 898.24 651.17 885.13 651.17 862.5 637.48 848.81 641.02 845.27 656.17 860.43 656.17 887.2 641.6 901.77"/><polygon class="cls-1" points="625.24 879.86 625.24 869.69 616.43 864.61 607.63 869.69 607.63 879.86 616.43 884.94 625.24 879.86"/><polygon class="cls-1" points="604.4 894.02 593.7 883.33 593.7 866.69 604.87 855.52 608.4 859.06 598.7 868.76 598.7 881.25 607.93 890.49 604.4 894.02"/><polygon class="cls-1" points="591.26 903.02 576.69 888.45 576.69 861.68 591.85 846.52 595.38 850.06 581.69 863.75 581.69 886.38 594.8 899.49 591.26 903.02"/><polygon class="cls-1" points="718.1 903.63 724.26 903.63 727.34 898.3 724.26 892.97 718.1 892.97 715.02 898.3 718.1 903.63"/><polygon class="cls-1" points="742.1 903.63 748.26 903.63 751.33 898.3 748.26 892.97 742.1 892.97 739.02 898.3 742.1 903.63"/><polygon class="cls-1" points="749.52 889.52 715.78 889.52 706.45 862.66 695.9 862.66 695.9 857.66 710.01 857.66 719.34 884.52 746.13 884.52 756.2 859.24 760.85 861.09 749.52 889.52"/><rect class="cls-1" x="710.93" y="865.44" width="44.5" height="5"/><rect class="cls-1" x="715.02" y="874.67" width="36.31" height="5"/><polygon class="cls-1" points="834.43 903.63 840.58 903.63 843.66 898.3 840.58 892.97 834.43 892.97 831.35 898.3 834.43 903.63"/><polygon class="cls-1" points="858.43 903.63 864.58 903.63 867.66 898.3 864.58 892.97 858.43 892.97 855.35 898.3 858.43 903.63"/><polygon class="cls-1" points="865.85 889.52 832.11 889.52 822.78 862.66 812.23 862.66 812.23 857.66 826.33 857.66 835.66 884.52 862.46 884.52 872.53 859.24 877.17 861.09 865.85 889.52"/><rect class="cls-1" x="847.23" y="840.17" width="5" height="35.67"/><rect class="cls-1" x="838.81" y="854.45" width="5" height="22.67" transform="translate(-364.53 807.89) rotate(-43.07)"/><rect class="cls-1" x="846.83" y="863.29" width="22.67" height="5" transform="translate(-360.34 901.48) rotate(-46.93)"/><polygon class="cls-1" points="948.68 903.63 954.83 903.63 957.91 898.3 954.83 892.97 948.68 892.97 945.6 898.3 948.68 903.63"/><polygon class="cls-1" points="972.68 903.63 978.83 903.63 981.91 898.3 978.83 892.97 972.68 892.97 969.6 898.3 972.68 903.63"/><polygon class="cls-1" points="980.1 889.52 946.36 889.52 937.03 862.66 926.48 862.66 926.48 857.66 940.58 857.66 949.91 884.52 976.71 884.52 986.78 859.24 991.42 861.09 980.1 889.52"/><rect class="cls-1" x="961.49" y="840.17" width="5" height="35.67"/><rect class="cls-1" x="969.91" y="838.89" width="5" height="22.67" transform="translate(-318.57 893.16) rotate(-43.07)"/><rect class="cls-1" x="944.23" y="847.72" width="22.67" height="5" transform="translate(-318.09 967.61) rotate(-46.93)"/><path class="cls-1" d="M1100.83,901.5l-24.26-14-24.26,14V844.84h48.52ZM1076.57,884l21.26,12.27V847.84h-42.52V896.3Z"/><path class="cls-1" d="M41.44,988.3C21.32,988.3,5,1005.5,5,1026.73H32.24c0,10,10.21,18.19,22.81,18.19s22.81-8.14,22.81-18.19C77.86,1005.5,61.55,988.3,41.44,988.3ZM20.3,1014.75h-5l-2.52-4.36,2.52-4.35h5l2.52,4.35ZM32.13,1006h-5l-2.52-4.35,2.52-4.36h5l2.51,4.36ZM44,1001.69h-5l-2.51-4.36L38.92,993h5l2.51,4.35Zm6.79-4.36h5l2.52,4.36L55.77,1006h-5l-2.51-4.35Zm8.67,41H53.29L50.23,1033l3.06-5.3h6.12l3.05,5.3Zm8.19-23.55h-5l-2.52-4.36,2.52-4.35h5l2.51,4.35Z"/><path class="cls-1" d="M185.37,984.85H114.7v63.51h80.79V984.85Zm-63.93,59.62h-3.6l-1.8-3.12,1.8-3.12h3.6l1.8,3.12Zm0-12.57h-3.6l-1.8-3.12,1.8-3.12h3.6l1.8,3.12Zm0-12.58h-3.6l-1.8-3.12,1.8-3.12h3.6l1.8,3.12Zm0-12.57h-3.6l-1.8-3.12,1.8-3.12h3.6l1.8,3.12Zm0-12.58h-3.6l-1.8-3.12,1.8-3.12h3.6l1.8,3.12Zm63.93,51.11H124.83V987.93h60.54Zm3.43-57.35h3.6l1.8,3.12-1.8,3.12h-3.6l-1.8-3.12Zm0,12.58h3.6l1.8,3.12-1.8,3.12h-3.6l-1.8-3.12Zm3.68,44h-3.6l-1.8-3.12,1.8-3.12h3.6l1.8,3.12Zm0-12.57h-3.6l-1.8-3.12,1.8-3.12h3.6l1.8,3.12Zm0-12.58h-3.6l-1.8-3.12,1.8-3.12h3.6l1.8,3.12Z"/><path class="cls-1" d="M754.12,1145.84a26.15,26.15,0,1,0-47.34,15.26h0l21.21,34,21.23-34h0A26,26,0,0,0,754.12,1145.84Zm-16,4.6L728,1156.29l-10.13-5.85v-11.69l10.13-5.84,10.12,5.84Z"/><path class="cls-1" d="M420.86,1055.51H349.25V983.68h36.21l35.4,20.44Zm-68.61-3h65.61v-46.65l-33.21-19.18h-32.4Z"/><polygon class="cls-1" points="357.06 986.42 357.06 1004.3 374.06 1004.3 374.06 994.42 377.94 994.42 377.94 1004.3 381.81 1004.3 381.81 986.42 357.06 986.42"/><rect class="cls-1" x="364.37" y="1012.39" width="41.38" height="3"/><rect class="cls-1" x="364.37" y="1022.41" width="41.38" height="3"/><rect class="cls-1" x="364.37" y="1032.42" width="41.38" height="3"/><rect class="cls-1" x="364.37" y="1042.44" width="41.38" height="3"/><polygon class="cls-1" points="471.77 986.42 471.77 1004.3 488.77 1004.3 488.77 994.42 492.65 994.42 492.65 1004.3 496.52 1004.3 496.52 986.42 471.77 986.42"/><rect class="cls-1" x="479.08" y="1012.39" width="41.38" height="3"/><rect class="cls-1" x="479.08" y="1022.41" width="41.38" height="3"/><rect class="cls-1" x="479.08" y="1032.42" width="31.15" height="3"/><rect class="cls-1" x="479.08" y="1042.44" width="31.15" height="3"/><rect class="cls-1" x="518.73" y="1046.17" width="19.67" height="3"/><rect class="cls-1" x="527.06" y="1037.84" width="3" height="19.67"/><path class="cls-1" d="M516.36,1055.51H464V983.68h36.21l35.4,20.44v31.3H516.36Zm-49.4-3h46.4v-20.09h19.21v-26.56l-33.21-19.18H467Z"/><polygon class="cls-1" points="600.26 1045.65 585.64 1031.02 589.17 1027.49 600.26 1038.58 643.25 995.6 646.78 999.13 600.26 1045.65"/><polygon class="cls-1" points="589.17 1027.48 587.13 1025.44 584.34 1026.18 583.59 1028.97 585.63 1031.01 588.42 1030.27 589.17 1027.48"/><polygon class="cls-1" points="646.59 999.32 648.63 997.28 647.88 994.49 645.09 993.74 643.05 995.78 643.8 998.57 646.59 999.32"/><polygon class="cls-1" points="719.96 1040.98 708.37 1029.39 711.17 1026.59 719.96 1035.38 754.02 1001.31 756.83 1004.11 719.96 1040.98"/><polygon class="cls-1" points="711.17 1026.58 709.55 1024.96 707.34 1025.55 706.75 1027.76 708.37 1029.38 710.58 1028.79 711.17 1026.58"/><polygon class="cls-1" points="756.67 1004.26 758.29 1002.64 757.7 1000.43 755.49 999.84 753.87 1001.46 754.46 1003.67 756.67 1004.26"/><path class="cls-1" d="M875.82,1046.05H817.07V992.68h58.75Zm-55.75-3h52.75V995.68H820.07Z"/><rect class="cls-1" x="814.66" y="987.72" width="63.75" height="7.99"/><polygon class="cls-1" points="831.06 1008.65 831.06 1005.26 828.13 1003.57 825.2 1005.26 825.2 1008.65 828.13 1010.34 831.06 1008.65"/><polygon class="cls-1" points="831.06 1021.05 831.06 1017.67 828.13 1015.98 825.2 1017.67 825.2 1021.05 828.13 1022.75 831.06 1021.05"/><polygon class="cls-1" points="831.06 1033.46 831.06 1030.08 828.13 1028.39 825.2 1030.08 825.2 1033.46 828.13 1035.15 831.06 1033.46"/><rect class="cls-1" x="835.31" y="1005.46" width="32.38" height="3"/><rect class="cls-1" x="835.31" y="1017.86" width="32.38" height="3"/><rect class="cls-1" x="835.31" y="1030.27" width="32.38" height="3"/><path class="cls-1" d="M990.6,1052H931.85V981.92H990.6Zm-55.75-3H987.6V984.92H934.85Z"/><rect class="cls-1" x="942.48" y="989.92" width="37.5" height="9.25"/><polygon class="cls-1" points="979.94 1028.47 979.94 1023.15 975.34 1020.5 970.74 1023.15 970.74 1028.47 975.34 1031.12 979.94 1028.47"/><polygon class="cls-1" points="965.83 1028.47 965.83 1023.15 961.23 1020.5 956.63 1023.15 956.63 1028.47 961.23 1031.12 965.83 1028.47"/><polygon class="cls-1" points="951.72 1028.47 951.72 1023.15 947.12 1020.5 942.51 1023.15 942.51 1028.47 947.12 1031.12 951.72 1028.47"/><polygon class="cls-1" points="979.94 1015.33 979.94 1010.01 975.34 1007.36 970.74 1010.01 970.74 1015.33 975.34 1017.98 979.94 1015.33"/><polygon class="cls-1" points="965.83 1015.33 965.83 1010.01 961.23 1007.36 956.63 1010.01 956.63 1015.33 961.23 1017.98 965.83 1015.33"/><polygon class="cls-1" points="951.72 1015.33 951.72 1010.01 947.12 1007.36 942.51 1010.01 942.51 1015.33 947.12 1017.98 951.72 1015.33"/><polygon class="cls-1" points="979.94 1041.61 979.94 1036.29 975.34 1033.64 970.74 1036.29 970.74 1041.61 975.34 1044.27 979.94 1041.61"/><polygon class="cls-1" points="965.83 1041.61 965.83 1036.29 961.23 1033.64 956.63 1036.29 956.63 1041.61 961.23 1044.27 965.83 1041.61"/><polygon class="cls-1" points="951.72 1041.61 951.72 1036.29 947.12 1033.64 942.51 1036.29 942.51 1041.61 947.12 1044.27 951.72 1041.61"/><polygon class="cls-1" points="1062.47 1042.81 1062.47 1032.87 1053.85 1027.89 1045.23 1032.87 1045.23 1042.81 1053.85 1047.79 1062.47 1042.81"/><polygon class="cls-1" points="1099.97 1036.1 1099.97 1026.15 1091.36 1021.17 1082.74 1026.15 1082.74 1036.1 1091.36 1041.07 1099.97 1036.1"/><polygon class="cls-1" points="1062.48 1033.81 1059.48 1033.81 1059.48 995.15 1099.98 985.66 1099.98 1030.19 1096.98 1030.19 1096.98 989.44 1062.48 997.53 1062.48 1033.81"/><polygon class="cls-1" points="18.91 1161.56 6.36 1161.56 0 1150.55 6.36 1139.54 8.78 1139.54 15.58 1127.76 30.92 1127.76 34.7 1134.31 35.84 1132.33 48.34 1132.33 52.5 1139.54 55.43 1139.54 60.86 1149.06 58.25 1150.54 53.69 1142.54 50.77 1142.54 46.61 1135.33 37.57 1135.33 34.7 1140.31 29.18 1130.76 17.31 1130.76 10.51 1142.54 8.09 1142.54 3.46 1150.55 8.09 1158.56 18.91 1158.56 18.91 1161.56"/><path class="cls-1" d="M74.21,1180.77H19.29l-7-12.19,7-12.18H22l7.64-13.24h17l4.36,7.55,1.39-2.41H66.25l4.67,8.1h3.29l7,12.18Zm-53.19-3H72.48l5.3-9.19-5.3-9.18H69.19l-4.67-8.1H54.15L51,1156.71l-6.09-10.55H31.38l-7.64,13.24H21l-5.3,9.18Z"/><path class="cls-1" d="M154.81,1176.09l-16-9.24v-18.48l16-9.23,16,9.23v18.48Zm-13-11,13,7.5,13-7.5v-15l-13-7.51-13,7.51Z"/><rect class="cls-1" x="153.31" y="1121.69" width="3" height="11.53"/><rect class="cls-1" x="153.31" y="1182" width="3" height="11.53"/><rect class="cls-1" x="179.2" y="1156.11" width="11.53" height="3"/><rect class="cls-1" x="118.9" y="1156.11" width="11.53" height="3"/><rect class="cls-1" x="170.37" y="1134.79" width="11.53" height="3" transform="translate(-751.89 457.36) rotate(-45)"/><rect class="cls-1" x="127.73" y="1177.43" width="11.53" height="3" transform="translate(-794.53 439.69) rotate(-45)"/><rect class="cls-1" x="174.64" y="1173.17" width="3" height="11.53" transform="translate(-782 469.79) rotate(-45)"/><rect class="cls-1" x="131.99" y="1130.53" width="3" height="11.53" transform="translate(-764.38 427.2) rotate(-45)"/><path class="cls-1" d="M298.91,1159.2H242.37l-7.23-12.51,7.23-12.51h2.8l7.87-13.64h17.49l4.51,7.82,1.46-2.52h14.2l4.82,8.34h3.39l7.22,12.51Zm-54.81-3h53.07l5.5-9.51-5.5-9.51h-3.38l-4.82-8.34H278.23l-3.19,5.52-6.24-10.82h-14l-7.88,13.64h-2.8l-5.49,9.51Z"/><rect class="cls-1" x="248.64" y="1164.54" width="3" height="21.33"/><rect class="cls-1" x="262.3" y="1173.29" width="3" height="21.33"/><rect class="cls-1" x="275.97" y="1167.53" width="3" height="21.33"/><rect class="cls-1" x="289.64" y="1175.13" width="3" height="21.33"/><path class="cls-1" d="M384.76,1156l-16.57-9.56v-19.14l16.57-9.57,16.58,9.57v19.14Zm-13.57-11.3,13.57,7.84,13.58-7.84V1129l-13.58-7.83L371.19,1129Z"/><polygon class="cls-1" points="384.76 1195.34 363.13 1182.85 363.13 1157.86 377.82 1149.38 379.32 1151.98 366.13 1159.59 366.13 1181.11 384.76 1191.87 403.4 1181.11 403.4 1159.59 390.21 1151.98 391.71 1149.38 406.4 1157.86 406.4 1182.85 384.76 1195.34"/><rect class="cls-1" x="392.87" y="1151.3" width="21.8" height="3" transform="translate(-696.89 623.16) rotate(-45)"/><rect class="cls-1" x="362.22" y="1148.85" width="3" height="27.29" transform="translate(-715.49 597.7) rotate(-45)"/><path class="cls-1" d="M398.76,1128.79l-14.4-8.31,9.57-8.62,7.52,4.34Zm-9.32-8.85,7.25,4.19,1.37-6.42-3.74-2.16Z"/><polygon class="cls-1" points="647.42 1147.06 645.33 1143.96 641.6 1144.21 639.95 1147.57 641.59 1150.01 627.51 1167.97 616.29 1140 619 1138.43 619 1133.4 614.65 1130.89 610.29 1133.4 610.29 1138.43 613.01 1140 601.79 1167.97 587.95 1150.31 589.58 1147.88 587.93 1144.52 584.2 1144.27 582.11 1147.38 583.76 1150.74 586.71 1150.93 593.37 1176.44 594.88 1183.86 614.65 1183.36 634.42 1183.86 635.93 1176.44 642.67 1150.63 645.77 1150.42 647.42 1147.06"/><path class="cls-1" d="M764.56,1051.61H699V986h65.59Zm-62.59-3h59.59V989H702Z"/><path class="cls-1" d="M877.7,1137.68l-13.12-13.12-17.92,4.8-38.46,38.46,26.24,26.24,38.46-38.45Zm-17.27,9-4.89-4.89,1.79-6.68,6.68-1.79,4.89,4.89-1.79,6.68Z"/><path class="cls-1" d="M1077.92,1169.48l-11.76-3.15-3.15-11.76,8.6-8.61,11.76,3.16,3.15,11.75Zm-9.31-5.6,8.41,2.26,6.16-6.16-2.26-8.42-8.41-2.25-6.16,6.16Z"/><polygon class="cls-1" points="1051.19 1181.29 1063.31 1154.4 1066.05 1155.64 1057.19 1175.3 1076.85 1166.44 1078.08 1169.18 1051.19 1181.29"/><polygon class="cls-4" points="1071.83 1146.8 1097.05 1135.44 1085.68 1160.66 1082.75 1149.74 1071.83 1146.8"/><path class="cls-1" d="M1074.76,1196.12a38.4,38.4,0,1,1,38.4-38.4A38.44,38.44,0,0,1,1074.76,1196.12Zm0-73.79a35.4,35.4,0,1,0,35.4,35.39A35.44,35.44,0,0,0,1074.76,1122.33Z"/><polygon class="cls-1" points="988.82 1153.53 988.82 1138.09 977.16 1126.43 968.09 1126.43 952.37 1126.43 943.29 1126.43 931.64 1138.09 931.64 1153.53 922.06 1159.06 922.06 1179.42 939.7 1189.61 939.7 1148.87 937.2 1150.32 937.2 1140.39 945.6 1131.99 952.37 1131.99 968.09 1131.99 974.86 1131.99 983.26 1140.39 983.26 1150.32 980.75 1148.87 980.75 1189.61 998.39 1179.42 998.39 1159.06 988.82 1153.53"/><polygon class="cls-1" points="31 1299.81 48.53 1299.81 57.29 1284.63 48.53 1269.46 31 1269.46 22.24 1284.63 31 1299.81"/><polygon class="cls-1" points="53.85 1302.44 25.68 1302.44 11.6 1326.83 67.93 1326.83 53.85 1302.44"/><path class="cls-1" d="M278.08,1342.67H261.46v-39.54h-4.7l-13.87-24h53.75l-13.87,24h-4.69Zm-13.62-3h10.62v-39.54h6l10.41-18H248.08l10.41,18h6Z"/><rect class="cls-1" x="268.26" y="1308.21" width="3" height="11.65"/><rect class="cls-1" x="245.84" y="1253.49" width="3" height="24.28" transform="translate(-599.7 293.25) rotate(-30)"/><rect class="cls-1" x="280.05" y="1264.13" width="24.28" height="3" transform="translate(-949.95 885.77) rotate(-60)"/><polygon class="cls-1" points="164.63 1276.07 174.1 1292.48 172.85 1294.64 182.37 1294.64 190.24 1281 182.37 1267.36 166.61 1267.36 161.58 1276.07 164.63 1276.07"/><polygon class="cls-1" points="166.44 1303.56 169.83 1303.56 178.71 1318.93 199.15 1318.93 186.49 1297 170.23 1297 166.44 1303.56"/><polygon class="cls-1" points="145.56 1276.07 136.09 1292.48 137.34 1294.64 127.83 1294.64 119.95 1281 127.83 1267.36 143.58 1267.36 148.62 1276.07 145.56 1276.07"/><polygon class="cls-1" points="143.75 1303.56 140.36 1303.56 131.49 1318.93 111.05 1318.93 123.71 1297 139.97 1297 143.75 1303.56"/><polygon class="cls-1" points="147.28 1305.64 163.03 1305.64 170.91 1292 163.03 1278.36 147.28 1278.36 139.4 1292 147.28 1305.64"/><polygon class="cls-1" points="167.81 1308.01 142.49 1308.01 129.83 1329.93 180.47 1329.93 167.81 1308.01"/><path class="cls-1" d="M385.76,1331.05l-29.14-16.82v-33.66l29.14-16.82,29.15,16.82v33.66Zm-24.14-19.71,24.14,13.94,24.15-13.94v-27.88l-24.15-13.94-24.14,13.94Z"/><rect class="cls-1" x="383.26" y="1266.63" width="5" height="61.53" transform="matrix(0.5, -0.87, 0.87, 0.5, -930.7, 982.78)"/><path class="cls-1" d="M498.65,1313.12l-16-9.24V1285.4l16-9.23,16,9.23v18.48Zm-13-11,13,7.5,13-7.5v-15l-13-7.51-13,7.51Z"/><rect class="cls-1" x="497.15" y="1258.72" width="3" height="11.53"/><rect class="cls-1" x="497.15" y="1319.03" width="3" height="11.53"/><rect class="cls-1" x="523.04" y="1293.14" width="11.53" height="3"/><rect class="cls-1" x="462.73" y="1293.14" width="11.53" height="3"/><rect class="cls-1" x="514.2" y="1271.82" width="11.53" height="3" transform="translate(-748.08 740.62) rotate(-45)"/><rect class="cls-1" x="471.56" y="1314.46" width="11.53" height="3" transform="translate(-790.72 722.96) rotate(-45)"/><rect class="cls-1" x="518.47" y="1310.2" width="3" height="11.53" transform="translate(-778.23 753.11) rotate(-45)"/><rect class="cls-1" x="475.83" y="1267.55" width="3" height="11.53" transform="translate(-760.57 710.47) rotate(-45)"/><polygon class="cls-1" points="498.65 1277.9 498.65 1311.38 513.15 1303.01 513.15 1286.27 498.65 1277.9"/><path class="cls-1" d="M644,1339.84H585.29v-72.7H644Zm-55.75-3H641v-66.7H588.29Z"/><rect class="cls-1" x="582.89" y="1260.55" width="63.75" height="10.01"/><rect class="cls-1" x="594.4" y="1287.11" width="41.51" height="3"/><rect class="cls-1" x="594.4" y="1297.37" width="41.51" height="3"/><rect class="cls-1" x="594.4" y="1276.84" width="41.51" height="3"/><rect class="cls-1" x="594.4" y="1307.64" width="41.51" height="3"/><rect class="cls-1" x="594.4" y="1317.91" width="41.51" height="3"/><rect class="cls-1" x="594.4" y="1328.17" width="41.51" height="3"/><polygon class="cls-1" points="618.86 1254.12 611.45 1254.12 607.74 1260.55 611.45 1266.97 618.86 1266.97 622.57 1260.55 618.86 1254.12"/><path class="cls-1" d="M764,1336.18h-66.5v-36.43H764Zm-63.5-3H761v-30.43h-60.5Z"/><polygon class="cls-1" points="746.18 1325.41 746.18 1319.26 740.85 1316.17 735.51 1319.26 735.51 1325.41 740.85 1328.49 746.18 1325.41"/><polygon class="cls-1" points="758.43 1321.66 758.43 1315.51 753.1 1312.42 747.76 1315.51 747.76 1321.66 753.1 1324.74 758.43 1321.66"/><rect class="cls-1" x="713.48" y="1309" width="3" height="19.17"/><rect class="cls-1" x="705.4" y="1317.08" width="19.17" height="3"/><polygon class="cls-1" points="732.26 1301.25 729.26 1301.25 729.26 1287.21 740.44 1280.76 740.44 1269.59 729.26 1263.13 729.26 1257.17 732.26 1257.17 732.26 1261.4 743.44 1267.86 743.44 1282.49 732.26 1288.95 732.26 1301.25"/><polygon class="cls-1" points="839.96 1307.29 849.57 1307.29 854.37 1298.97 849.57 1290.65 839.96 1290.65 835.15 1298.97 839.96 1307.29"/><path class="cls-1" d="M844.76,1338.92a40,40,0,1,1,40-40A40,40,0,0,1,844.76,1338.92Zm0-76.91a37,37,0,1,0,37,37A37,37,0,0,0,844.76,1262Z"/><path class="cls-1" d="M982.38,1322.82H936.15v-45.34h46.23Zm-43.23-3h40.23v-39.34H939.15Z"/><path class="cls-1" d="M975.73,1321.32h0a16.55,16.55,0,1,1-33.1,0h-2.44a19,19,0,0,0,38,0h-2.44Z"/><polygon class="cls-1" points="954.99 1320.89 954.74 1321.33 956.96 1325.17 961.4 1325.17 963.62 1321.33 963.37 1320.89 954.99 1320.89"/><polygon class="cls-1" points="961.91 1278.98 958.91 1278.98 958.91 1275.4 967.99 1270.16 967.99 1261.41 958.91 1256.18 958.91 1251.17 961.91 1251.17 961.91 1254.44 970.99 1259.68 970.99 1271.89 961.91 1277.13 961.91 1278.98"/><polygon class="cls-1" points="1111.48 1338.92 1036.37 1338.92 1036.37 1265.08 1039.37 1265.08 1039.37 1335.92 1111.48 1335.92 1111.48 1338.92"/><polygon class="cls-1" points="1053.21 1316.61 1048.27 1316.61 1045.8 1320.89 1048.27 1325.17 1053.21 1325.17 1055.68 1320.89 1053.21 1316.61"/><polygon class="cls-1" points="1064.36 1285.68 1059.42 1285.68 1056.95 1289.95 1059.42 1294.23 1064.36 1294.23 1066.83 1289.95 1064.36 1285.68"/><polygon class="cls-1" points="1086.12 1308.06 1081.18 1308.06 1078.71 1312.34 1081.18 1316.61 1086.12 1316.61 1088.59 1312.34 1086.12 1308.06"/><polygon class="cls-1" points="1103.53 1274.82 1098.59 1274.82 1096.12 1279.09 1098.59 1283.37 1103.53 1283.37 1106 1279.09 1103.53 1274.82"/><polygon class="cls-1" points="1052.15 1321.4 1049.33 1320.38 1061.29 1287.19 1083.29 1309.81 1099.73 1278.4 1102.39 1279.79 1084.02 1314.87 1062.49 1292.72 1052.15 1321.4"/><text class="cls-2" transform="translate(33.77 811.17)">上</text><text class="cls-2" transform="translate(149.1 811.17)">右</text><text class="cls-2" transform="translate(264.43 811.17)">下</text><text class="cls-2" transform="translate(379.77 811.17)">左</text><text class="cls-2" transform="translate(489.1 811.17)">通知</text><text class="cls-2" transform="translate(598.43 811.17)">ヒント</text><text class="cls-2" transform="translate(719.77 811.17)">検索</text><text class="cls-2" transform="translate(835.1 811.17)">拡大</text><text class="cls-2" transform="translate(950.43 811.17)">縮小</text><text class="cls-2" transform="translate(1064.12 811.17)">Wi-Fi</text><text class="cls-2" transform="translate(27.77 949.67)">たす</text><text class="cls-2" transform="translate(143.1 949.67)">引く</text><text class="cls-2" transform="translate(252.43 949.67)">かける</text><text class="cls-2" transform="translate(373.77 949.67)">わる</text><text class="cls-2" transform="translate(489.1 949.67)">電源</text><text class="cls-2" transform="translate(598.43 949.67)">ライブ</text><text class="cls-2" transform="translate(713.77 949.67)">カート</text><text class="cls-2" transform="translate(805.1 949.67)">カートに入れる</text><text class="cls-2" transform="translate(920.43 949.67)">カートから購入</text><text class="cls-2" transform="translate(1041.77 949.67)">ブックマーク</text><text class="cls-2" transform="translate(15.77 1090.16)">ペイント</text><text class="cls-2" transform="translate(131.1 1090.16)">ムービー</text><text class="cls-2" transform="translate(240.43 1090.16)">モーメント</text><text class="cls-2" transform="translate(355.77 1090.16)">上書き保存</text><text class="cls-2" transform="translate(477.1 1090.16)">新規保存</text><text class="cls-2" transform="translate(592.43 1090.16)">チェック</text><text class="cls-2" transform="translate(683.77 1090.16)">チェックボックス</text><text class="cls-2" transform="translate(829.1 1090.16)">リスト</text><text class="cls-2" transform="translate(950.43 1090.16)">電卓</text><text class="cls-2" transform="translate(1041.77 1090.16)">ミュージック</text><text class="cls-2" transform="translate(27.77 1228.65)">曇り</text><text class="cls-2" transform="translate(143.1 1228.65)">晴れ</text><text class="cls-2" transform="translate(264.43 1228.65)">雨</text><text class="cls-2" transform="translate(379.77 1228.65)">雪</text><text class="cls-2" transform="translate(491.32 1228.65)">RSS</text><text class="cls-2" transform="translate(604.43 1228.65)">実績</text><text class="cls-2" transform="translate(707.77 1228.65)">現在位置</text><text class="cls-2" transform="translate(811.1 1228.65)">ブックマーク</text><text class="cls-2" transform="translate(926.43 1228.65)">ヘッドフォン</text><text class="cls-2" transform="translate(1053.77 1228.65)">コンパス</text><text class="cls-2" transform="translate(9.77 1371.15)">アカウント</text><text class="cls-2" transform="translate(107.1 1371.15)">マルチアカウント</text><text class="cls-2" transform="translate(252.43 1371.15)">ライト</text><text class="cls-2" transform="translate(373.77 1371.15)">禁止</text><text class="cls-2" transform="translate(465.1 1371.15)">コントラスト</text><text class="cls-2" transform="translate(592.43 1371.15)">メニュー</text><text class="cls-2" transform="translate(689.77 1371.15)">コントローラー</text><text class="cls-2" transform="translate(823.1 1371.15)">ディスク</text><text class="cls-2" transform="translate(914.43 1371.15)">ディスクドライブ</text><text class="cls-2" transform="translate(1059.77 1371.15)">グラフ</text></svg>