<svg id="レイヤー_1" data-name="レイヤー 1" xmlns="http://www.w3.org/2000/svg" viewBox="0 0 1125.65 1371.26"><defs><style>.cls-1{font-size:12px;font-family:KozGoPro-Regular-90ms-RKSJ-H, Kozuka Gothic Pro;}.cls-1,.cls-3{fill:#231815;}.cls-2{letter-spacing:0.25em;}.cls-4{letter-spacing:-0.5em;}</style></defs><title>samu</title><text class="cls-1" transform="translate(24 116.28)">ホーム</text><text class="cls-1" transform="translate(151.33 116.28)">次</text><text class="cls-1" transform="translate(242.67 116.28)">カレンダー</text><text class="cls-1" transform="translate(352 116.28)">ダウンロード</text><text class="cls-1" transform="translate(491.33 116.28)">再生</text><text class="cls-1" transform="translate(576.67 116.28)">中止、ストップ</text><text class="cls-1" transform="translate(710 116.28)">リロード</text><text class="cls-1" transform="translate(819.33 116.28)">お気に入り</text><text class="cls-1" transform="translate(952.67 116.28)">履歴</text><text class="cls-1" transform="translate(1056 116.28)">ユーザー</text><text class="cls-1" transform="translate(12 254.77)">リサイクル</text><text class="cls-1" transform="translate(133.33 254.77)">メニュー</text><text class="cls-1" transform="translate(260.67 254.77)">説明</text><text class="cls-1" transform="translate(352 254.77)">アップロード</text><text class="cls-1" transform="translate(479.33 254.77)">モニター</text><text class="cls-1" transform="translate(594.67 254.77)">カーソル</text><text class="cls-1" transform="translate(707.07 254.77)">S<tspan class="cls-2" x="6.32" y="0">D</tspan><tspan x="17.87" y="0">カード</tspan></text><text class="cls-1" transform="translate(837.33 254.77)">資料</text><text class="cls-1" transform="translate(952.67 254.77)">警告</text><text class="cls-1" transform="translate(1068 254.77)">禁止</text><text class="cls-1" transform="translate(30 395.26)">転送</text><text class="cls-1" transform="translate(133.33 395.26)">フォルダ</text><text class="cls-1" transform="translate(248.67 395.26)">新規資料</text><text class="cls-1" transform="translate(352 395.26)">新規フォルダ</text><text class="cls-1" transform="translate(485.33 395.26)">充電中</text><text class="cls-1" transform="translate(606.67 395.26)">確定</text><text class="cls-1" transform="translate(716 395.26)">ロック</text><text class="cls-1" transform="translate(819.33 395.26)">アンロック</text><text class="cls-1" transform="translate(952.67 395.26)">休止</text><text class="cls-1" transform="translate(1044 395.26)">システム情報</text><text class="cls-1" transform="translate(0 533.76)">シャットダウン</text><text class="cls-1" transform="translate(132.52 533.76)">CP<tspan class="cls-2" x="14.29" y="0">U</tspan><tspan x="25.63" y="0">情報</tspan></text><text class="cls-1" transform="translate(236.67 533.76)">ブックマーク</text><text class="cls-1" transform="translate(370 533.76)">ソース</text><text class="cls-1" transform="translate(491.33 533.76)">同期</text><text class="cls-1" transform="translate(582.67 533.76)">ローディング</text><text class="cls-1" transform="translate(716 533.76)">サーバ</text><text class="cls-1" transform="translate(825.33 533.76)">コメント</text><text class="cls-1" transform="translate(946.67 533.76)">コピー</text><text class="cls-1" transform="translate(1056 533.76)">ペースト</text><text class="cls-1" transform="translate(23.36 676.25)">AB<tspan class="cls-2" x="14.83" y="0">C</tspan><tspan x="25.28" y="0">順</tspan></text><text class="cls-1" transform="translate(145.33 676.25)">昇順</text><text class="cls-1" transform="translate(260.67 676.25)">降順</text><text class="cls-1" transform="translate(376 676.25)">返信</text><text class="cls-1" transform="translate(497.33 676.25)">前</text><text class="cls-1" transform="translate(606.67 676.25)">ピン</text><text class="cls-1" transform="translate(723.28 676.25)">GPS</text><text class="cls-1" transform="translate(837.33 676.25)">最初</text><text class="cls-1" transform="translate(952.67 676.25)">最後</text><text class="cls-1" transform="translate(1068 676.25)">設定</text><path class="cls-3" d="M74.2,32.58v-25h-15v10L41.61,0,4.44,37.18l1.91,1.91,9.84-9.84V78.59H66.35v-50L76.87,39.09l1.92-1.91ZM56.43,75.87H48.89V58.61h7.54ZM63.64,26V75.87h-4.5v-20h-13v20H18.9V26.54L41.61,3.83,63.76,26Zm7.85,3.89-9.57-9.56v-10h9.57Z"/><path class="cls-3" d="M166.14,16.46V40.14H120v3h46.17v6.45h3V43.14h23.69Zm3,7.24,16.45,16.44H169.14Z"/><path class="cls-3" d="M52.68,321.14h3V315H78.41L52.68,289.32V312h-44v3h44Zm3-24.58L71.17,312H55.68Z"/><path class="cls-3" d="M30.74,318.06h-3v6.1H5l25.72,25.72V327.16H74.79v-3H30.74Zm-3,24.58L12.26,327.16H27.74Z"/><rect class="cls-3" x="351.07" y="210.13" width="69.22" height="3"/><path class="cls-3" d="M384.17,157.91v49h3v-49L398,168.7l2.12-2.12-14.41-14.41-14.4,14.41,2.12,2.12Zm1.51-1.5h0Z"/><rect class="cls-3" x="352.98" y="72.26" width="70.42" height="3"/><path class="cls-3" d="M402.83,54.4l-2.12-2.12-11,11V13.42h-3V63.3l-11-11-2.12,2.12L388.19,69Zm-14.6,10.36,0,0,0,0Z"/><path class="cls-3" d="M482,9.11V73L528.9,41.07Zm3,5.68,38.54,26.28L485,67.34Z"/><polygon class="cls-3" points="649.58 11.63 647.46 9.51 619.49 37.48 591.52 9.51 589.4 11.63 617.37 39.6 589.4 67.57 591.52 69.69 619.49 41.72 647.46 69.69 649.58 67.57 621.61 39.6 649.58 11.63"/><path class="cls-3" d="M759.85,25.86V62.63h-53V27.36h32.92v5.16h3V27.36h15.41L739.81,9V24.36H703.89V65.63h59V25.86Zm-17-9.67L751,24.36h-8.17Z"/><path class="cls-3" d="M883.8,30.38l-26.07-3.79L846.08,3,834.42,26.59l-26.07,3.79,18.87,18.38-4.46,26,23.32-12.26,23.31,12.26-4.45-26ZM865.41,69.24,846.08,59.08,826.75,69.24l3.69-21.53L814.8,32.47l21.61-3.14,9.67-19.58,9.66,19.58,21.61,3.14L861.72,47.71Z"/><path class="cls-3" d="M923.08,14.54v53.2H1003V14.54ZM1000,64.74H926.08V17.54H1000Z"/><polygon class="cls-3" points="967.16 22.41 964.16 22.41 964.16 41.69 951.51 41.64 951.5 44.64 967.16 44.7 967.16 22.41"/><path class="cls-3" d="M1088.82,25.12h-23.88V7.34h23.88Zm-20.88-3h17.88V10.34h-17.88Z"/><path class="cls-3" d="M1076.88,73.77l-12.45-42.08h24.9Zm-8.44-39.08,8.44,28.5,8.43-28.5Z"/><path class="cls-3" d="M20.56,191.46,26,193.1l.87-2.87-4.74-1.43,7.74-13.22L4,186.47l13.59,4.1L8.5,206.11h33v-3H13.74ZM12.86,186l9.86-4.15-3.55,6.06Z"/><path class="cls-3" d="M44.57,150.39l6.56,11.8L47,166l2,2.21,3.64-3.36,7.44,13.39,3.77-27.8L53.4,160.1l-8.75-15.74L27.88,172.74l2.59,1.53Zm15.18,7.94-1.44,10.61L54.9,162.8Z"/><path class="cls-3" d="M79.34,207.48,64,178.32l-2.65,1.4,12.94,24.53-13.49-.6-1.09-5.58-2.94.58,1,4.86-15.3-.68,21.69,17.78-2.72-13.93Zm-28.1-1.25,7,.31L59.52,213Z"/><rect class="cls-3" x="122.69" y="155.42" width="67.5" height="3"/><rect class="cls-3" x="122.69" y="179.29" width="67.5" height="3"/><rect class="cls-3" x="122.69" y="203.17" width="67.5" height="3"/><rect class="cls-3" x="268.48" y="146.77" width="3" height="10.29" transform="translate(-37.69 115.82) rotate(-22.67)"/><polygon class="cls-3" points="276.25 210.84 276.25 162.72 264.1 162.72 264.1 165.72 273.25 165.72 273.25 210.84 248.66 210.84 248.66 213.84 296.98 213.84 296.98 210.84 276.25 210.84"/><path class="cls-3" d="M504.45,206v-12.6h26.39V154.19H475.06v39.25h26.39V206H465.11v3h72.12v-3Zm-26.39-48.85h49.78v33.25H478.06Z"/><path class="cls-3" d="M630.35,215.6l-13.8-23.92,13.7-7.13-32.58-35.37,1.17,51.72,15-7.83,13.87,24Zm-29.5-58.54,24.54,26.64L601.73,196Z"/><path class="cls-3" d="M718,146.29l-14.39,16.34v53.45h58.86V146.29Zm41.47,66.79H706.63V163.77l12.75-14.48h40.11Z"/><rect class="cls-3" x="727.84" y="151.84" width="3" height="10.59"/><rect class="cls-3" x="737.94" y="151.84" width="3" height="10.59"/><rect class="cls-3" x="748.04" y="151.84" width="3" height="10.59"/><path class="cls-3" d="M861.55,146.27H816.94v66.86h57.71V159.51Zm.88,5.15,7.76,7.84h-7.76Zm-42.49,58.71V149.27h39.49v13h12.22v47.87Z"/><rect class="cls-3" x="826.62" y="166.28" width="31.23" height="3"/><rect class="cls-3" x="826.62" y="180.04" width="31.23" height="3"/><rect class="cls-3" x="826.62" y="193.8" width="31.23" height="3"/><path class="cls-3" d="M961.61,147.43,922.1,212.75h81.64Zm.08,5.66,36.54,56.66H927.42Z"/><rect class="cls-3" x="960.15" y="163.39" width="3" height="33.55"/><rect class="cls-3" x="960.15" y="200.85" width="3" height="4"/><rect class="cls-3" x="1030.17" y="179.68" width="94.49" height="3" transform="translate(187.46 814.91) rotate(-45)"/><rect class="cls-3" x="41.41" y="432.6" width="3" height="37.95"/><polygon class="cls-3" points="50.7 443.57 50.7 446.57 77.39 446.57 77.39 485.18 9.25 485.18 9.25 446.57 35.62 446.57 35.62 443.57 6.25 443.57 6.25 488.18 80.39 488.18 80.39 443.57 50.7 443.57"/><path class="cls-3" d="M75.41,613.13H52.92V569.62h-3v43.51h-6v3h6v22.49Zm-22.49,3H68.17L52.92,631.38Z"/><path class="cls-3" d="M19,585h14.8v11.31h3V569.23H16v27.12h3Zm14.8-12.81V582H19v-9.81Z"/><polygon class="cls-3" points="17.48 611.74 17.48 614.74 31.93 614.74 14.13 634.72 35.28 634.72 35.28 631.72 20.82 631.72 38.63 611.74 17.48 611.74"/><path class="cls-3" d="M133.51,487.11h51v-51h-51Zm3-48h45v45h-45Z"/><rect class="cls-3" x="141.08" y="425.38" width="3" height="7.98"/><rect class="cls-3" x="152.16" y="425.38" width="3" height="7.98"/><rect class="cls-3" x="163.24" y="425.38" width="3" height="7.98"/><rect class="cls-3" x="174.32" y="425.38" width="3" height="7.98"/><rect class="cls-3" x="141.08" y="489.86" width="3" height="7.98"/><rect class="cls-3" x="152.16" y="489.86" width="3" height="7.98"/><rect class="cls-3" x="163.24" y="489.86" width="3" height="7.98"/><rect class="cls-3" x="174.32" y="489.86" width="3" height="7.98"/><rect class="cls-3" x="187.26" y="443.15" width="7.98" height="3"/><rect class="cls-3" x="187.26" y="454.23" width="7.98" height="3"/><rect class="cls-3" x="187.26" y="465.31" width="7.98" height="3"/><rect class="cls-3" x="187.26" y="476.39" width="7.98" height="3"/><rect class="cls-3" x="122.34" y="443.15" width="7.98" height="3"/><rect class="cls-3" x="122.34" y="454.23" width="7.98" height="3"/><rect class="cls-3" x="122.34" y="465.31" width="7.98" height="3"/><rect class="cls-3" x="122.34" y="476.39" width="7.98" height="3"/><path class="cls-3" d="M252.4,433.85l.84,58.38,17.36-17.35,18.08,16.39V433.85Zm33.28,50.65L270.5,470.73l-14.36,14.36-.7-48.24h30.24Z"/><polygon class="cls-3" points="646.47 295.48 605.17 345.21 586.13 326.96 584.06 329.12 605.42 349.61 648.78 297.39 646.47 295.48"/><path class="cls-3" d="M1081.11,348.16v-13h27.11V293.87H1051v41.27h27.1v13h-37.36v3h74.07v-3ZM1054,296.87h51.21v35.27H1054Z"/><polygon class="cls-3" points="1075.6 325.32 1066.45 316.55 1064.37 318.71 1075.85 329.71 1098.49 302.45 1096.18 300.54 1075.6 325.32"/><polygon class="cls-3" points="506.19 577.49 503.93 575.52 481.86 601.04 503.92 626.87 506.2 624.92 485.81 601.05 506.19 577.49"/><polygon class="cls-3" points="503.68 601.05 524.06 577.49 521.79 575.52 499.72 601.04 521.78 626.87 524.06 624.92 503.68 601.05"/><path class="cls-3" d="M751,603.76l13.94,0v-3l-13.93,0V585.24H734.88l0-14.44h-3l0,14.43H716.69v15.61l-14.78,0v3l14.77,0v15.69H732l0,14.28h3l0-14.27h16Zm-3-15.52v12.53l-13.07,0,0-12.56Zm-28.3,0h12.19l0,12.57-12.23,0Zm0,28.3v-12.7l12.23,0,0,12.73Zm15.26,0,0-12.74,13.07,0v12.77Z"/><path class="cls-3" d="M985.35,453.11v14.94H980.7V441.82l-13.06-13.21H923.13v66.7H980.7V471.05h4.65v3.22h3v-3.22h14.94Zm-16.84-19.35,7.73,7.81h-7.73Zm9.19,58.55H926.13v-60.7h39.38v13H977.7v23.48H958.51v3H977.7Zm10.65-32,7.7,7.7h-7.7Z"/><rect class="cls-3" x="932.79" y="448.57" width="31.15" height="3"/><rect class="cls-3" x="932.79" y="462.3" width="31.15" height="3"/><rect class="cls-3" x="932.79" y="476.02" width="31.15" height="3"/><path class="cls-3" d="M1099.61,428.09h-43.3v39.58H1038.5v3h17.81V493h56V441Zm.87,5.15,7.36,7.44h-7.36ZM1059.31,490V470.67h5.22v3.08h3v-3.08h14.57l-17.57-17.58v14.58h-5.22V431.09h38.17v12.59h11.84V490Zm8.22-22.29v-7.34l7.33,7.34Z"/><path class="cls-3" d="M711.58,427.69v69h44v-69Zm41,66h-38v-63h38Z"/><rect class="cls-3" x="721.49" y="437.44" width="25.21" height="3"/><rect class="cls-3" x="721.49" y="444.97" width="25.21" height="3"/><rect class="cls-3" x="721.49" y="482.98" width="25.21" height="3"/><polygon class="cls-3" points="368.96 447 366.97 444.76 347.1 462.36 366.96 480.17 368.97 477.94 351.61 462.37 368.96 447"/><polygon class="cls-3" points="399.23 444.46 397.23 446.69 414.58 462.26 397.23 477.63 399.22 479.87 419.09 462.27 399.23 444.46"/><rect class="cls-3" x="359.91" y="461.14" width="34.07" height="3" transform="translate(-179.29 678.82) rotate(-72.07)"/><path class="cls-3" d="M193.84,613.93H171.69V571.15h-3v42.78h-5.88v3h5.88v22.15Zm-22.15,3H186.6l-14.91,14.91Z"/><rect class="cls-3" x="123.34" y="632.86" width="37.54" height="3"/><rect class="cls-3" x="123.34" y="617.43" width="32.53" height="3"/><rect class="cls-3" x="123.34" y="602.3" width="27.53" height="3"/><rect class="cls-3" x="123.34" y="587.16" width="22.52" height="3"/><rect class="cls-3" x="123.34" y="572.9" width="17.52" height="3"/><path class="cls-3" d="M309.22,612.28H286.66V568.62h-3v43.66h-6v3h6v22.56Zm-22.56,3H302L286.66,630.6Z"/><rect class="cls-3" x="237.66" y="570.43" width="38.29" height="3"/><rect class="cls-3" x="237.66" y="586.17" width="33.19" height="3"/><rect class="cls-3" x="237.66" y="601.61" width="28.08" height="3"/><rect class="cls-3" x="237.66" y="617.06" width="22.98" height="3"/><rect class="cls-3" x="237.66" y="631.6" width="17.87" height="3"/><path class="cls-3" d="M371.83,598v-18.1L350.73,601h18.1v5.26h3V601h43.51V624.4H389.52v3h28.82V598Zm-3,0H358l10.86-10.86Z"/><path class="cls-3" d="M964.76,603.38H929v3h35.76v4.71h3v-4.71h19l-22-22Zm3-11.74,11.73,11.74H967.76Z"/><rect class="cls-3" x="986.86" y="576.57" width="3" height="53.58"/><rect class="cls-3" x="996.43" y="576.57" width="3" height="53.58"/><path class="cls-3" d="M845.45,603.8V585.11l-21.7,21.69h18.7v4.61h3V606.8h35.13v-3Zm-3,0H831l11.46-11.45Z"/><rect class="cls-3" x="820.71" y="577.47" width="3" height="52.67"/><rect class="cls-3" x="811.14" y="577.47" width="3" height="52.67"/><path class="cls-3" d="M1050.48,574.57h-3v6.26H1039v16.22h8.47v34.8h3v-34.8H1059V580.83h-8.47ZM1042,594.05V583.83h5.47v10.22ZM1056,583.83v10.22h-5.47V583.83Z"/><path class="cls-3" d="M1079.29,574.57h-3v21.34h-8.63v16.22h8.63v19.72h3V612.13h8.32V595.91h-8.32Zm-8.63,34.56V598.91h5.63v10.22Zm13.95-10.22v10.22h-5.32V598.91Z"/><path class="cls-3" d="M1116.57,610.18h-8.47V574.57h-3v35.61h-8.47V626.4h8.47v5.45h3V626.4h8.47Zm-16.94,13.22V613.18h5.47V623.4Zm13.94,0h-5.47V613.18h5.47Z"/><path class="cls-3" d="M925.5,297.64v48.88h70.84V297.64Zm67.84,45.88H928.5V300.64h64.84Z"/><rect class="cls-3" x="959.42" y="307.51" width="3" height="28.39"/><path class="cls-3" d="M528.17,485.18H478.69V471.63h3.39v-3h-3.39v-9.32l-12.31,12.32h9.31v16.55h55.48V463.59h-3Zm-52.48-16.55h-2.07l2.07-2.08Z"/><path class="cls-3" d="M478.9,436.88h49.47v13.55H525v3h3.38v9.31l12.32-12.31h-9.32V433.88H475.9v24.59h3Zm52.47,16.55h2.08l-2.08,2.07Z"/><path class="cls-3" d="M636.64,431.8H594.18l19.43,29.11L594.18,490h42.46l-19.43-29.1Zm-36.85,3H631l-15.62,23.41ZM631,487H599.79l15.62-23.4Z"/><path class="cls-3" d="M289.5,288.77H246V354h56.28V301.69Zm-.23,4,9.87,10h-9.87ZM249,351v-59.2h37.27v14h13V351Z"/><polygon class="cls-3" points="291.38 334.66 288.38 334.66 288.38 340.57 282.48 340.57 282.48 343.57 288.38 343.57 288.38 349.48 291.38 349.48 291.38 343.57 297.29 343.57 297.29 340.57 291.38 340.57 291.38 334.66"/><path class="cls-3" d="M195.2,299.62h-51l-9.1,12.31h-15v34.59h61.56v-1.07h0Zm-16.56,43.9H123.08V314.93h55.56Zm-39.79-31.59,6.88-9.31h45.46l-9.55,32.27v-23Z"/><polygon class="cls-3" points="395.18 341.15 398.18 341.15 398.18 335.16 404.17 335.16 404.17 332.16 398.18 332.16 398.18 326.17 395.18 326.17 395.18 332.16 389.19 332.16 389.19 335.16 395.18 335.16 395.18 341.15"/><path class="cls-3" d="M374.36,301.86l-8.45,11.41h-14v32.31h57.31V344.5l12.62-42.64Zm31.87,40.72H354.92V316.27h51.31Zm-36.58-29.31,6.22-8.41h42l-8.6,29.07V313.27Z"/><path class="cls-3" d="M543.66,316.17H538.3v-5.08h-38L506.05,294,503.2,293l-6.07,18.08H463.22v23.7h42.61l-8.18,15.45,2.66,1.41,8.91-16.86H538.3v-3.86h5.36Zm-77.44,15.62v-17.7h29.9L493,323.43h18.84l-4.42,8.36Zm69.08,0H510.81l6-11.36H497.16l2.13-6.34h36v17.7Zm5.36-3.86H538.3v-8.76h2.36Z"/><path class="cls-3" d="M748.63,323.41V284.79H719.51v38.62H704.94v37.31h57.57V323.41Zm-26.12-35.62h23.12v35.62H722.51Zm37,69.93H707.94V326.41h51.57Z"/><rect class="cls-3" x="741.81" y="332.84" width="14.26" height="3"/><rect class="cls-3" x="741.81" y="340.4" width="14.26" height="3"/><rect class="cls-3" x="741.81" y="347.96" width="14.26" height="3"/><path class="cls-3" d="M838.34,323.41V287.79h23.12v24.67h3V284.79H835.34v38.62H820.76v37.31h57.57V323.41Zm37,34.31H823.76V326.41h51.57Z"/><rect class="cls-3" x="857.63" y="332.84" width="14.26" height="3"/><rect class="cls-3" x="857.63" y="340.4" width="14.26" height="3"/><rect class="cls-3" x="857.63" y="347.96" width="14.26" height="3"/><path class="cls-3" d="M880.56,433H811.71v50.58h6.5V497.2l15.22-13.62h47.13Zm-59.35,57.49v-6.91h7.72Zm56.35-9.91H814.71V436h62.85Z"/><rect class="cls-3" x="819.71" y="442.24" width="53.09" height="3"/><rect class="cls-3" x="819.71" y="451.67" width="53.09" height="3"/><rect class="cls-3" x="819.71" y="461.11" width="53.09" height="3"/><rect class="cls-3" x="819.71" y="470.54" width="53.09" height="3"/><path class="cls-3" d="M633.85,575.91l-2.71-.86,1.43-4.53-9.56-3L621.58,572,617,570.58,596.23,606,612,611l-6,19.1,2.86.91,6-19.11,15.8,5ZM625,571.27l3.84,1.21-.53,1.67-3.84-1.21Zm-24.25,33,17.64-30.1,12.32,3.89L628,612.86Z"/><path class="cls-3" d="M235.67,13.65V69.13H309V13.65Zm70.3,3v5.82h-67.3V16.65Zm-67.3,49.48V25.47H306V66.13Z"/><rect class="cls-3" x="246.24" y="30.67" width="51.98" height="3"/><rect class="cls-3" x="246.24" y="39.17" width="51.98" height="3"/><rect class="cls-3" x="246.24" y="47.68" width="51.98" height="3"/><rect class="cls-3" x="246.24" y="56.18" width="51.98" height="3"/><text class="cls-1" transform="translate(32 807.28)">信号</text><text class="cls-1" transform="translate(147.33 807.28)">接続</text><text class="cls-1" transform="translate(241.67 807.28)">お金（支払<tspan class="cls-4" x="60" y="0">）</tspan></text><text class="cls-1" transform="translate(378 805.28)">メモ</text><text class="cls-1" transform="translate(493.33 807.28)">交換</text><text class="cls-1" transform="translate(602.67 807.28)">全画面</text><text class="cls-1" transform="translate(712 807.28)">通常画面</text><text class="cls-1" transform="translate(839.33 807.28)">写真</text><text class="cls-1" transform="translate(942.67 807.28)">リピート</text><text class="cls-1" transform="translate(1046 807.28)">フォント拡大</text><text class="cls-1" transform="translate(8 945.77)">フォント縮小</text><text class="cls-1" transform="translate(117.33 945.77)">フォントサイズ</text><text class="cls-1" transform="translate(262.67 945.77)">展開</text><text class="cls-1" transform="translate(378 945.77)">収納</text><text class="cls-1" transform="translate(493.33 945.77)">拡大</text><text class="cls-1" transform="translate(608.67 945.77)">縮小</text><text class="cls-1" transform="translate(724 945.77)">移動</text><text class="cls-1" transform="translate(839.33 945.77)">集中</text><text class="cls-1" transform="translate(942.67 945.77)">やり直し</text><text class="cls-1" transform="translate(1071.19 945.77)">USB</text><text class="cls-1" transform="translate(32 1086.26)">上に</text><text class="cls-1" transform="translate(147.33 1086.26)">電話</text><text class="cls-1" transform="translate(262.67 1086.26)">分割</text><text class="cls-1" transform="translate(345 1086.26)">入る（ログイン<tspan class="cls-4" x="84" y="0">）</tspan></text><text class="cls-1" transform="translate(454.33 1086.26)">出る（ログアウト<tspan class="cls-4" x="96" y="0">）</tspan></text><text class="cls-1" transform="translate(614.67 1086.26)">鍵</text><text class="cls-1" transform="translate(706 1086.26)">時間、時計</text><text class="cls-1" transform="translate(827.33 1086.26)">左に回転</text><text class="cls-1" transform="translate(936.67 1086.26)">監視カメラ</text><text class="cls-1" transform="translate(1052 1086.26)">フィルター</text><text class="cls-1" transform="translate(8 1224.76)">ヘッドフォン</text><text class="cls-1" transform="translate(141.33 1224.76)">カメラ</text><text class="cls-1" transform="translate(250.67 1224.76)">音量増加</text><text class="cls-1" transform="translate(366 1224.76)">音量減少</text><text class="cls-1" transform="translate(493.33 1224.76)">重要</text><text class="cls-1" transform="translate(596.67 1224.76)">フラッグ</text><text class="cls-1" transform="translate(718 1224.76)">通信中</text><text class="cls-1" transform="translate(827.33 1224.76)">クリップ</text><text class="cls-1" transform="translate(948.67 1224.76)">メール</text><text class="cls-1" transform="translate(1070 1224.76)">既読</text><text class="cls-1" transform="translate(26 1367.25)">早送り</text><text class="cls-1" transform="translate(141.33 1367.25)">早戻り</text><text class="cls-1" transform="translate(229.67 1367.25)">ランダム（再生<tspan class="cls-4" x="84" y="0">）</tspan></text><text class="cls-1" transform="translate(372 1367.25)">ハート</text><text class="cls-1" transform="translate(493.33 1367.25)">設定</text><text class="cls-1" transform="translate(608.67 1367.25)">共用</text><text class="cls-1" transform="translate(724 1367.25)">詳細</text><text class="cls-1" transform="translate(839.33 1367.25)">タグ</text><text class="cls-1" transform="translate(948.67 1367.25)">リング</text><text class="cls-1" transform="translate(1070 1367.25)">閃光</text><rect class="cls-3" x="8.47" y="744.17" width="3" height="19.28"/><rect class="cls-3" x="25.33" y="732.6" width="3" height="30.84"/><rect class="cls-3" x="42.19" y="721.03" width="3" height="42.41"/><rect class="cls-3" x="59.04" y="709.47" width="3" height="53.98"/><rect class="cls-3" x="75.9" y="697.9" width="3" height="65.54"/><path class="cls-3" d="M733.93,1139.36h-5.6V1118L704,1142.36h21.38v41.08h3v-41.08h5.6Zm-8.6,0H711.19l14.14-14.15Z"/><path class="cls-3" d="M763.74,1160H742.35v-41.08h-3V1160h-5.6v3h5.6v21.39Zm-21.39,3H756.5l-14.15,14.15Z"/><path class="cls-3" d="M519.71,735.17l-2.12-2.12-5.09,5.09-7.93-7.93,8.05-8,5.09,5.09,2.12-2.12-5.09-5.09,18.2-18.2H492.3l18.2,18.2-8.05,8-25.81-25.8-2.12,2.12,25.81,25.81L474.65,755.9l2.12,2.12,25.68-25.68,7.92,7.92-18.2,18.2h40.65l-18.2-18.2Zm-20.17-30.32H525.7l-13.08,13.08Zm26,50.61H499.42l13.08-13.08Z"/><path class="cls-3" d="M168,720.16H151.18v-3.9h-3v3.9H117.31v3h30.87v16.76Zm-16.77,3h9.52l-9.52,9.52Z"/><path class="cls-3" d="M171.6,738.34V721.57l-19.77,19.77H168.6v3.9h3v-3.9h30.87v-3Zm-3,0h-9.53l9.53-9.52Z"/><polygon class="cls-3" points="292.66 700.13 290.54 698.01 274.07 714.48 257.55 697.96 255.43 700.08 271.09 715.74 256.49 715.74 256.49 718.74 272.57 718.74 272.57 730.35 256.49 730.35 256.49 733.35 272.57 733.35 272.57 759.96 275.57 759.96 275.57 733.35 291.6 733.35 291.6 730.35 275.57 730.35 275.57 718.74 291.6 718.74 291.6 715.74 277.05 715.74 292.66 700.13"/><polygon class="cls-3" points="729.26 726.03 708.5 726.03 708.5 729.03 732.26 729.03 732.26 705.26 729.26 705.26 729.26 726.03"/><polygon class="cls-3" points="708.5 736.92 729.26 736.92 729.26 757.69 732.26 757.69 732.26 733.92 708.5 733.92 708.5 736.92"/><polygon class="cls-3" points="740 726.03 740 705.26 737 705.26 737 729.03 760.76 729.03 760.76 726.03 740 726.03"/><polygon class="cls-3" points="737 757.69 740 757.69 740 736.92 760.76 736.92 760.76 733.92 737 733.92 737 757.69"/><polygon class="cls-3" points="581.71 719.8 584.71 719.8 584.71 700.63 603.88 700.63 603.88 697.63 581.71 697.63 581.71 719.8"/><polygon class="cls-3" points="633.45 697.63 633.45 700.63 652.62 700.63 652.62 719.8 655.62 719.8 655.62 697.63 633.45 697.63"/><polygon class="cls-3" points="584.71 741.91 581.71 741.91 581.71 764.08 603.88 764.08 603.88 761.08 584.71 761.08 584.71 741.91"/><polygon class="cls-3" points="652.62 761.08 633.45 761.08 633.45 764.08 655.62 764.08 655.62 741.91 652.62 741.91 652.62 761.08"/><path class="cls-3" d="M811.05,705.8v51.39H886.6V705.8Zm72.55,48.39H814.05V708.8H883.6Z"/><path class="cls-3" d="M850.65,746.34h17.93L857,717.3l-10.08,13.51-4.41-18.17-13.58,33.7h21.76Zm5.51-23,8,20H849.92l-2-8.33-.1-.41Zm-22.82,20,8.42-20.91,2.79,11.5h0l2.28,9.41Z"/><path class="cls-3" d="M929.63,707.8v40.87h23.6v4h3v-4h16.21l-19.21-19.21v16.21h-20.6V710.8h65.43v34.87H976v3h25.08V707.8Zm26.6,28.9,9,9h-9Z"/><path class="cls-3" d="M358.54,700.26v61.93h50.94l11-11.41V700.26Zm3,3h55.93v45.12H407.34v10.81h-45.8Zm54.19,48.12L410.34,757v-5.59Z"/><path class="cls-3" d="M1045.36,761.89l14.8-25.08h17.28v24.32h3V696.56l-37.67,63.81Zm32.08-28.08h-15.51l15.51-26.27Z"/><polygon class="cls-3" points="1113.09 739.73 1102.23 739.73 1102.23 728.88 1099.23 728.88 1099.23 739.73 1088.38 739.73 1088.38 742.73 1099.23 742.73 1099.23 753.59 1102.23 753.59 1102.23 742.73 1113.09 742.73 1113.09 739.73"/><path class="cls-3" d="M148.8,901.37l2.59,1.53,15.39-26.09h16.69v25.33h3V837.56Zm19.75-27.56,14.92-25.26v25.26Z"/><path class="cls-3" d="M128.48,902.61l7.77-13.17h6.87v12.41h3v-35l-20.23,34.27Zm14.64-16.17H138l5.1-8.64Z"/><path class="cls-3" d="M10.71,901.9l14.81-25.09H42.79v24.33h3V836.56L8.13,900.37Zm32.08-28.09H27.29l15.5-26.26Z"/><rect class="cls-3" x="53.73" y="879.74" width="24.72" height="3"/><polygon class="cls-3" points="306.43 869.41 275.48 884.02 244.54 869.41 243.25 872.12 275.48 887.34 307.71 872.12 306.43 869.41"/><polygon class="cls-3" points="389.48 859.2 358.4 873.87 359.68 876.58 389.48 862.51 419.27 876.58 420.56 873.87 389.48 859.2"/><polygon class="cls-3" points="611.37 865.93 590.19 844.75 588.07 846.87 609.25 868.05 594.15 868.05 594.15 871.05 614.37 871.05 614.37 850.82 611.37 850.82 611.37 865.93"/><polygon class="cls-3" points="639.33 868.05 624.22 868.05 645.41 846.87 643.29 844.75 622.1 865.93 622.1 850.82 619.1 850.82 619.1 871.05 639.33 871.05 639.33 868.05"/><polygon class="cls-3" points="594.15 878.3 609.25 878.3 588.07 899.49 590.19 901.61 611.37 880.43 611.37 895.53 614.37 895.53 614.37 875.3 594.15 875.3 594.15 878.3"/><polygon class="cls-3" points="639.33 878.3 639.33 875.3 619.1 875.3 619.1 895.53 622.1 895.53 622.1 880.43 643.29 901.61 645.41 899.49 624.22 878.3 639.33 878.3"/><polygon class="cls-3" points="832.5 858.05 830.38 860.17 839.78 869.58 813.06 869.58 813.06 872.58 839.78 872.58 830.38 881.98 832.5 884.1 845.52 871.08 832.5 858.05"/><polygon class="cls-3" points="861.37 855.23 859.25 853.11 849.84 862.51 849.84 835.79 846.84 835.79 846.84 862.51 837.44 853.11 835.32 855.23 848.34 868.26 861.37 855.23"/><polygon class="cls-3" points="835.01 886.62 837.13 888.74 846.54 879.33 846.54 906.05 849.54 906.05 849.54 879.33 858.94 888.74 861.06 886.62 848.04 873.59 835.01 886.62"/><polygon class="cls-3" points="883.32 869.27 856.6 869.27 866 859.87 863.88 857.75 850.86 870.77 863.88 883.8 866 881.68 856.6 872.27 883.32 872.27 883.32 869.27"/><polygon class="cls-3" points="513.08 842.43 513.08 845.43 528.19 845.43 507 866.62 509.13 868.74 530.31 847.55 530.31 862.66 533.31 862.66 533.31 842.43 513.08 842.43"/><polygon class="cls-3" points="494.25 845.43 494.25 842.43 474.02 842.43 474.02 862.66 477.02 862.66 477.02 847.55 498.21 868.74 500.33 866.62 479.15 845.43 494.25 845.43"/><polygon class="cls-3" points="530.31 896.39 509.13 875.2 507 877.32 528.19 898.51 513.08 898.51 513.08 901.51 533.31 901.51 533.31 881.28 530.31 881.28 530.31 896.39"/><polygon class="cls-3" points="498.21 875.2 477.02 896.39 477.02 881.28 474.02 881.28 474.02 901.51 494.25 901.51 494.25 898.51 479.15 898.51 500.33 877.32 498.21 875.2"/><polygon class="cls-3" points="733.42 838.33 733.42 865.68 736.42 865.68 736.42 838.33 746.07 847.98 748.19 845.86 734.92 832.59 721.65 845.86 723.77 847.98 733.42 838.33"/><polygon class="cls-3" points="729.18 872.92 729.18 869.92 701.83 869.92 711.49 860.26 709.37 858.14 696.09 871.42 709.37 884.69 711.49 882.57 701.83 872.92 729.18 872.92"/><polygon class="cls-3" points="760.34 858.01 758.22 860.13 767.87 869.78 740.52 869.78 740.52 872.78 767.87 872.78 758.22 882.43 760.34 884.55 773.61 871.28 760.34 858.01"/><polygon class="cls-3" points="736.28 904.37 736.28 877.02 733.28 877.02 733.28 904.37 723.63 894.71 721.51 896.83 734.78 910.11 748.06 896.83 745.94 894.71 736.28 904.37"/><path class="cls-3" d="M953.15,864.75V845.58L931,867.75h19.16v6.6h3v-6.6h37.91v28.52h3V864.75Zm-3,0H938.23l11.92-11.92Z"/><path class="cls-3" d="M71.82,1034.42H45.68v-30.89h6.57v-3H45.68v-24l-27,27h24v30.89H14.53v3H42.68v13h3v-13H71.82Zm-45.93-33.89,16.79-16.79v16.79Z"/><path class="cls-3" d="M300.48,1001.26v13H279.39V987.35h-3v56.5h3v-26.57h21.09v2.52h3v-2.52h13Zm3,7.24,5.79,5.78h-5.79Z"/><path class="cls-3" d="M267.92,1014.28h-21.1v-13l-16,16h13v2.52h3v-2.52h21.1v26.57h3v-56.5h-3Zm-24.1,0H238l5.78-5.78Z"/><path class="cls-3" d="M635,978.65H602v33h23.46v22.11H617.6v3h7.87v8.39H608v3h20.5v-36.5H635Zm-3,30H605v-27h27Z"/><path class="cls-3" d="M624.4,985.28H614v10.45H624.4Zm-3,7.45H617v-4.45h4.44Z"/><path class="cls-3" d="M695.07,989.06v50.51h78.22V989.06Zm75.22,47.51H698.07V992.06h72.22Z"/><polygon class="cls-3" points="746.2 1007.94 734.78 1013.01 734.78 996.57 731.78 996.57 731.78 1017.62 747.42 1010.69 746.2 1007.94"/><path class="cls-3" d="M835,1002.46V986.84l-18.62,18.62H832v5.46h3v-5.46h42.85v24.42H820v3h60.85v-30.42Zm-3,0h-8.38l8.38-8.38Z"/><path class="cls-3" d="M630.53,1129.85l9.64-9.65H603.85v65.92h3v-46.57h33.37Zm-23.68-6.65h26.08l-6.65,6.65,6.7,6.7H606.85Z"/><path class="cls-3" d="M489.87,1115.57v71.16h3v-43.66l37-13.21Zm3,4.26,28.11,10-28.11,10Z"/><path class="cls-3" d="M359.16,1167.13,385.6,1186v-66.73l-26.44,15.81Zm3-30.37,20.44-12.22v55.62l-20.44-14.57Z"/><rect class="cls-3" x="391" y="1150.21" width="29.91" height="3"/><path class="cls-3" d="M242.44,1165.49l27.15,19.34v-68.55l-27.15,16.23Zm3-31.28,21.15-12.64V1179l-21.15-15.07Z"/><polygon class="cls-3" points="305.99 1148.12 292.09 1148.12 292.09 1134.22 289.09 1134.22 289.09 1148.12 275.19 1148.12 275.19 1151.12 289.09 1151.12 289.09 1165.02 292.09 1165.02 292.09 1151.12 305.99 1151.12 305.99 1148.12"/><path class="cls-3" d="M173.76,1140.07v26.07l21.83,15.56V1127Zm18.83,35.81-15.83-11.28v-22.83l15.83-9.46Z"/><path class="cls-3" d="M114.77,1167.23h53.6v-28.76h-53.6Zm3-25.76h47.6v22.76h-47.6Z"/><path class="cls-3" d="M81.33,1120.56h-75v55.11H16.49v12.4H31.16v-27.79H16.49v12.39H9.35v-49.11h69v49.11H69.81v-12.39H55.14v27.79H69.81v-12.4H81.33Zm-61.84,42.72h8.67v21.79H19.49Zm47.32,21.79H58.14v-21.79h8.67Z"/><path class="cls-3" d="M76.91,1294.17l-40.29-25.28v13.25l-21.13-13.25v50.56l21.13-13.25v13.25Zm-37.29-19.86,31.65,19.86L39.62,1314v-9.71l16.17-10.15L39.62,1284Zm0,26.46v-13.2l10.53,6.6ZM18.49,1314v-39.72l18.13,11.37v17Z"/><path class="cls-3" d="M188.34,1267.3l-21.93,13.76V1267.3l-41.68,26.15,41.68,26.15v-13.77l21.93,13.77Zm-24.93,46.87-33-20.72,33-20.73v10.22l-16.75,10.51,16.75,10.5Zm0-27.68v13.92l-11.1-7Zm21.93,27.68-18.93-11.88V1284.6l18.93-11.88Z"/><path class="cls-3" d="M308.78,1309.71h-14v-6.12h-3v6.12H278.63l-8.09-14.86,8.09-14.86h13.14v6.12h3V1280h14l-17-17v14H276.84l-8,14.72-14.48-26.61H236.29v3h16.27l14.56,26.75-14.56,26.75H236.29v3h18.06L268.83,1298l8,14.72h14.93v14Zm-14,3h6.77l-6.77,6.77Zm0-42.49,6.77,6.77h-6.77Z"/><path class="cls-3" d="M412.24,1265.33l-22.14,14.05L368,1265.33l-16.47,16.47,38.62,46.58,38.61-46.58ZM355.53,1282l12.84-12.84,21.73,13.79,21.72-13.79L424.66,1282l-34.56,41.69Z"/><path class="cls-3" d="M529.51,1266.49l-8.85,14.41-14.26-8.75,9.06-14.74-24.89,7.79,5.74,17.65-22.06,35.91,19,11.65,22.1-36,19.75-4.72Zm-16.11,25.32-21.17,34.47-13.86-8.51,21.22-34.53-5.23-16.09,14.35-4.49-6.43,10.47,19.36,11.9,6.64-10.8,3.17,13.27Z"/><polygon class="cls-3" points="859.26 1123.45 831.31 1167.62 844.73 1176.11 869.44 1137.04 866.91 1135.44 843.8 1171.97 835.45 1166.69 860.19 1127.59 874.9 1136.89 844.55 1184.86 824.1 1171.91 855.24 1122.68 852.71 1121.08 819.96 1172.85 845.49 1188.99 879.04 1135.96 859.26 1123.45"/><path class="cls-3" d="M926.3,1130v49.07H1003V1130Zm69.18,3-30.82,16.3L933.85,1133ZM929.3,1176.1V1134l35.36,18.71L1000,1134v42.08Z"/><path class="cls-3" d="M1116.59,1137.91l-37-19.57-37,19.57h-.95v47h75.86v-47Zm-4.2,1.17-32.69,17.3L1046.91,1139l32.69-17.3Zm-67.72,42.86v-40.7l35,18.53,34.83-18.43v40.6Z"/><path class="cls-3" d="M653.62,1274.07v-18.78H634.83v7.89H612.74v31.08h-11v-8.08H582.92V1305h18.79v-7.7h11v29.33h22.09v7.89h18.79V1315.7H634.83v7.89H615.74v-26.33h7.64v7.7h18.78v-18.78H623.38v8.08h-7.64v-28.08h19.09v7.89ZM598.71,1302H585.92v-12.78h12.79Zm39.12,16.74h12.79v12.78H637.83Zm-11.45-29.52h12.78V1302H626.38Zm11.45-30.89h12.79v12.78H637.83Z"/><path class="cls-3" d="M698.69,1280.12h16.68v-16.67H698.69Zm3-13.67h10.68v10.67H701.69Z"/><path class="cls-3" d="M720.82,1263.45v16.67h51.06v-16.67Zm48.06,13.67H723.82v-10.67h45.06Z"/><path class="cls-3" d="M698.69,1302.36h16.68v-16.68H698.69Zm3-13.68h10.68v10.68H701.69Z"/><path class="cls-3" d="M720.82,1302.36h51.06v-16.68H720.82Zm3-13.68h45.06v10.68H723.82Z"/><path class="cls-3" d="M698.69,1324.6h16.68v-16.68H698.69Zm3-13.68h10.68v10.68H701.69Z"/><path class="cls-3" d="M720.82,1324.6h51.06v-16.68H720.82Zm3-13.68h45.06v10.68H723.82Z"/><path class="cls-3" d="M867.67,1258.9,845,1266.44l-23.33,47.82L852,1329.07l23.33-47.81Zm-17,66.16-25-12.18,21.47-44,18.63-6.21,6.33,18.38Z"/><polygon class="cls-3" points="866.21 1272.15 865.24 1269.32 861.95 1270.44 860.82 1267.16 857.98 1268.14 859.12 1271.42 855.83 1272.55 856.81 1275.39 860.09 1274.26 861.22 1277.54 864.06 1276.57 862.93 1273.28 866.21 1272.15"/><path class="cls-3" d="M1059.85,991.27h-27.42v3h27.42v3h3v-3H1076l-16.16-16.16Zm3-5.92,5.92,5.92h-5.92Z"/><path class="cls-3" d="M1059.85,1014.16h-27.42v3h27.42v3h3v-3H1076L1059.85,1001Zm3-5.92,5.92,5.92h-5.92Z"/><path class="cls-3" d="M1059.85,1037.05h-27.42v3h27.42v3h3v-3H1076l-16.16-16.16Zm3-5.92,5.92,5.92h-5.92Z"/><path class="cls-3" d="M1112.19,1009.41h3v-1.88h10.46l-13.46-13.45v10.45h-20.34v3h20.34Zm3-8.09,3.22,3.21h-3.22Z"/><path class="cls-3" d="M1112.19,1021.82h-20.34v3h20.34v1.88h3v-1.88h10.46l-13.46-13.46Zm3-3.21,3.22,3.21h-3.22Z"/><rect class="cls-3" x="1082.43" y="973.2" width="3" height="76"/><polygon class="cls-3" points="947.7 1315.76 935 1315.76 935 1268.81 947.7 1268.81 947.7 1285.88 950.7 1285.88 950.7 1265.81 932 1265.81 932 1318.76 950.7 1318.76 950.7 1301.56 947.7 1301.56 947.7 1315.76"/><polygon class="cls-3" points="981.24 1265.81 981.24 1285.88 984.24 1285.88 984.24 1268.81 996.93 1268.81 996.93 1315.76 984.24 1315.76 984.24 1301.56 981.24 1301.56 981.24 1318.76 999.93 1318.76 999.93 1265.81 981.24 1265.81"/><rect class="cls-3" x="941.35" y="1291.78" width="49.23" height="3"/><path class="cls-3" d="M1104.06,1292.82h-17.82l11-29.7H1077.6l-18.24,39h13.86l-7.65,29.24Zm-40,6.26,15.43-33H1093l-11,29.7h14.89l-25.55,25.55,5.83-22.29Z"/><path class="cls-3" d="M1102.7,855.43h-14.83v14.83h5.8v7.18l-13.23,3.47V838.28l8.48,8.48,2.12-2.12-12.1-12.1-12.1,12.1,2.12,2.12,8.48-8.48v55l-12.2-9.19V870.8l9.1-9.1-10.6-10.61-10.61,10.61,9.11,9.1v14.76l15.2,11.45v10.58h3V884l16.23-4.26v-9.49h6Zm-39-.09,6.36,6.36-6.36,6.36-6.36-6.36Zm15.2-18.56.06.07h-.13Zm20.76,30.48h-8.83v-8.83h8.83Z"/><path class="cls-3" d="M924.71,999.32l9.07,32.62,11.12-11.68-4.21-15.14ZM935.25,1026l-6.09-21.91,9.06,3.28,3.34,12Z"/><polygon class="cls-3" points="997.4 1020.18 997.4 1029.31 987.18 1013.55 984.66 1015.18 997.4 1034.83 997.4 1043.03 1000.4 1043.03 1000.4 1020.18 997.4 1020.18"/><path class="cls-3" d="M992.25,987.38l-48.77,14.19,5.6,19.22,48.76-14.18Zm-45,16.23,43-12.51,3.92,13.47-43,12.51Z"/><path class="cls-3" d="M176.92,1014.4l-7.62,6.82-19.12-21.38,7.61-6.82-13.85-15.46-17.47,15.65,48.32,54,17.47-15.64Zm-46.21-21,13-11.64,9.84,11-7.61,6.81,23.13,25.85,7.62-6.82L188,1031.3l-13,11.64Z"/><path class="cls-3" d="M521.57,1022.86v-5.26H542l-23.47-23.47v20.47H479.5v3h39.07v5.26Zm0-21.49,13.23,13.23H521.57Z"/><polygon class="cls-3" points="476.34 990.89 523.99 990.89 523.99 987.89 473.34 987.89 473.34 1040.04 523.99 1040.04 523.99 1037.04 476.34 1037.04 476.34 990.89"/><path class="cls-3" d="M390.91,1022.86h3v-5.26h20.47l-23.47-23.47v20.47H351.85v3h39.06Zm3-21.49,13.23,13.23H393.91Z"/><polygon class="cls-3" points="369.76 987.89 369.76 990.89 417.42 990.89 417.42 1037.04 369.76 1037.04 369.76 1040.04 420.42 1040.04 420.42 987.89 369.76 987.89"/></svg>