<svg xmlns="http://www.w3.org/2000/svg" xmlns:xlink="http://www.w3.org/1999/xlink" viewBox="0 0 1190.55 841.89"><defs><style>.cls-1,.cls-10,.cls-11,.cls-12,.cls-13,.cls-15,.cls-20,.cls-41,.cls-7,.cls-8{fill:none;}.cls-2{font-size:19px;}.cls-16,.cls-2,.cls-23,.cls-25,.cls-26,.cls-3,.cls-31,.cls-4,.cls-42,.cls-6,.cls-9{fill:#fff;}.cls-2,.cls-3,.cls-6{font-family:KozGoPro-Medium-90ms-RKSJ-H, Kozuka Gothic Pro;}.cls-3{font-size:16px;}.cls-4,.cls-6{font-size:13px;}.cls-4{font-family:KozGoPro-Bold-90ms-RKSJ-H, Kozuka Gothic Pro;}.cls-5{letter-spacing:-0.5em;}.cls-7,.cls-8{stroke:#dcdddd;}.cls-7{stroke-linejoin:round;}.cls-10,.cls-11,.cls-12,.cls-13,.cls-15,.cls-16,.cls-20,.cls-23,.cls-31,.cls-41,.cls-8{stroke-miterlimit:10;}.cls-10,.cls-11,.cls-12,.cls-13,.cls-15,.cls-16,.cls-20,.cls-23,.cls-31,.cls-41{stroke:#fff;}.cls-11{stroke-width:0.5px;}.cls-12,.cls-20,.cls-31{stroke-linecap:square;}.cls-13{stroke-width:0.25px;}.cls-14{clip-path:url(#clip-path);}.cls-15,.cls-16,.cls-20,.cls-31{stroke-width:2px;}.cls-17{clip-path:url(#clip-path-2);}.cls-18{clip-path:url(#clip-path-3);}.cls-19{clip-path:url(#clip-path-4);}.cls-21{clip-path:url(#clip-path-5);}.cls-22{clip-path:url(#clip-path-6);}.cls-24{clip-path:url(#clip-path-7);}.cls-25,.cls-42{font-size:12px;}.cls-25,.cls-26{font-family:MS-PGothic, MS PGothic;}.cls-26{font-size:24.58px;}.cls-27{clip-path:url(#clip-path-8);}.cls-28{clip-path:url(#clip-path-9);}.cls-29{clip-path:url(#clip-path-10);}.cls-30{clip-path:url(#clip-path-11);}.cls-32{clip-path:url(#clip-path-12);}.cls-33{clip-path:url(#clip-path-13);}.cls-34{clip-path:url(#clip-path-14);}.cls-35{clip-path:url(#clip-path-15);}.cls-36{clip-path:url(#clip-path-16);}.cls-37{clip-path:url(#clip-path-17);}.cls-38{clip-path:url(#clip-path-18);}.cls-39{clip-path:url(#clip-path-19);}.cls-40{clip-path:url(#clip-path-20);}.cls-41{stroke-width:4px;}.cls-42{font-family:UDDigiKyokashoNK-R, UD Digi Kyokasho NK-R;}.cls-43{letter-spacing:0.25em;}</style><clipPath id="clip-path"><circle class="cls-1" cx="79.43" cy="418.84" r="45"/></clipPath><clipPath id="clip-path-2"><circle class="cls-1" cx="424.83" cy="418.95" r="45"/></clipPath><clipPath id="clip-path-3"><circle class="cls-1" cx="538.83" cy="418.84" r="45"/></clipPath><clipPath id="clip-path-4"><circle class="cls-1" cx="654" cy="418.84" r="45"/></clipPath><clipPath id="clip-path-5"><circle class="cls-1" cx="763.83" cy="418.84" r="45"/></clipPath><clipPath id="clip-path-6"><circle class="cls-1" cx="767.76" cy="135.4" r="45"/></clipPath><clipPath id="clip-path-7"><path class="cls-1" d="M90.38,243.55a15.52,15.52,0,0,0-21.73-.23l-.23.23,11,11"/></clipPath><clipPath id="clip-path-8"><circle class="cls-1" cx="309.5" cy="559.61" r="45"/></clipPath><clipPath id="clip-path-9"><circle class="cls-1" cx="424.83" cy="559.61" r="45"/></clipPath><clipPath id="clip-path-10"><rect class="cls-1" x="865.13" y="529.47" width="29.67" height="60.17"/></clipPath><clipPath id="clip-path-11"><circle class="cls-1" cx="879.16" cy="418.84" r="45"/></clipPath><clipPath id="clip-path-12"><circle class="cls-1" cx="996" cy="418.84" r="45"/></clipPath><clipPath id="clip-path-13"><circle class="cls-1" cx="1108.33" cy="418.84" r="45"/></clipPath><clipPath id="clip-path-14"><circle class="cls-1" cx="79.43" cy="700.38" r="45"/></clipPath><clipPath id="clip-path-15"><circle class="cls-1" cx="194.16" cy="700.38" r="45"/></clipPath><clipPath id="clip-path-16"><circle class="cls-1" cx="309.52" cy="708.89" r="12.95"/></clipPath><clipPath id="clip-path-17"><circle class="cls-1" cx="654" cy="700.38" r="45"/></clipPath><clipPath id="clip-path-18"><circle class="cls-1" cx="772.3" cy="700.38" r="45"/></clipPath><clipPath id="clip-path-19"><circle class="cls-1" cx="879.47" cy="700.66" r="45"/></clipPath><clipPath id="clip-path-20"><circle class="cls-1" cx="879.67" cy="700.38" r="45"/></clipPath></defs><title>dora</title><g id="テンプレート"><text class="cls-2" transform="translate(960.28 46.3)">www.design-icon.com</text><text class="cls-3" transform="translate(447.3 55.3)">DESIGNER : 斎藤優太</text><text class="cls-4" transform="translate(833.83 817.27)">利用規約：個人、商用、すべてフリーでご利用ください<tspan class="cls-5" x="325" y="0">。</tspan></text><text class="cls-6" transform="translate(447.3 30.16)">サイズ：100 x 100 px</text><rect class="cls-7" x="28.83" y="87.3" width="100" height="100"/><rect class="cls-8" x="143.83" y="87.3" width="100" height="100"/><rect class="cls-8" x="258.83" y="87.3" width="100" height="100"/><rect class="cls-8" x="373.83" y="87.3" width="100" height="100"/><rect class="cls-8" x="488.83" y="87.3" width="100" height="100"/><rect class="cls-8" x="603.83" y="87.3" width="100" height="100"/><rect class="cls-8" x="718.83" y="87.3" width="100" height="100"/><rect class="cls-8" x="833.83" y="87.3" width="100" height="100"/><rect class="cls-8" x="948.83" y="87.3" width="100" height="100"/><rect class="cls-8" x="1063.83" y="87.3" width="100" height="100"/><rect class="cls-8" x="28.83" y="228.07" width="100" height="100"/><rect class="cls-8" x="143.83" y="228.07" width="100" height="100"/><rect class="cls-8" x="258.83" y="228.07" width="100" height="100"/><rect class="cls-8" x="373.83" y="228.07" width="100" height="100"/><rect class="cls-8" x="488.83" y="228.07" width="100" height="100"/><rect class="cls-8" x="603.83" y="228.07" width="100" height="100"/><rect class="cls-8" x="718.83" y="228.07" width="100" height="100"/><rect class="cls-8" x="833.83" y="228.07" width="100" height="100"/><rect class="cls-8" x="948.83" y="228.07" width="100" height="100"/><rect class="cls-8" x="1063.83" y="228.07" width="100" height="100"/><rect class="cls-8" x="28.83" y="368.84" width="100" height="100"/><rect class="cls-8" x="143.83" y="368.84" width="100" height="100"/><rect class="cls-8" x="258.83" y="368.84" width="100" height="100"/><rect class="cls-8" x="373.83" y="368.84" width="100" height="100"/><rect class="cls-8" x="488.83" y="368.84" width="100" height="100"/><rect class="cls-8" x="603.83" y="368.84" width="100" height="100"/><rect class="cls-8" x="718.83" y="368.84" width="100" height="100"/><rect class="cls-8" x="833.83" y="368.84" width="100" height="100"/><rect class="cls-8" x="948.83" y="368.84" width="100" height="100"/><rect class="cls-8" x="1063.83" y="368.84" width="100" height="100"/><rect class="cls-8" x="28.83" y="509.61" width="100" height="100"/><rect class="cls-8" x="143.83" y="509.61" width="100" height="100"/><rect class="cls-8" x="258.83" y="509.61" width="100" height="100"/><rect class="cls-8" x="373.83" y="509.61" width="100" height="100"/><rect class="cls-8" x="488.83" y="509.61" width="100" height="100"/><rect class="cls-8" x="603.83" y="509.61" width="100" height="100"/><rect class="cls-8" x="718.83" y="509.61" width="100" height="100"/><rect class="cls-8" x="833.83" y="509.61" width="100" height="100"/><rect class="cls-8" x="948.83" y="509.61" width="100" height="100"/><rect class="cls-8" x="1063.83" y="509.61" width="100" height="100"/><rect class="cls-8" x="28.83" y="650.38" width="100" height="100"/><rect class="cls-8" x="143.83" y="650.38" width="100" height="100"/><rect class="cls-8" x="258.83" y="650.38" width="100" height="100"/><rect class="cls-8" x="373.83" y="650.38" width="100" height="100"/><rect class="cls-8" x="488.83" y="650.38" width="100" height="100"/><rect class="cls-8" x="603.83" y="650.38" width="100" height="100"/><rect class="cls-8" x="718.83" y="650.38" width="100" height="100"/><rect class="cls-8" x="833.83" y="650.38" width="100" height="100"/><rect class="cls-8" x="948.83" y="650.38" width="100" height="100"/><rect class="cls-8" x="1063.83" y="650.38" width="100" height="100"/><path class="cls-9" d="M29,.63V56.05a12,12,0,0,0,12,12H413.83a12,12,0,0,0,12-12V.63ZM388.76,25.56a2.72,2.72,0,0,1,.83.38,30.21,30.21,0,0,1,4.75,3.4.58.58,0,0,1,.25.48c0,.79-1.92,3-2.54,3a1.23,1.23,0,0,1-.68-.4,27.41,27.41,0,0,0-4.53-3.16c-.22-.13-.49-.3-.49-.57C386.35,28.12,388,25.56,388.76,25.56ZM259.29,30.42a.79.79,0,0,1,.48.32,22.49,22.49,0,0,1,2.35,3.65,1.24,1.24,0,0,1,.16.51c0,.65-2.34,1.7-2.75,1.7s-.46-.3-.59-.54a26.82,26.82,0,0,0-2.19-3.64.71.71,0,0,1-.19-.46C256.56,31.44,258.78,30.42,259.29,30.42Zm-19.2-7.83a.73.73,0,0,1,.4.22c.44.27,2.43,1.78,2.43,2.21a2.86,2.86,0,0,1-1.43,1.67c-.1,0-.24-.13-.32-.21-.73-.7-1.49-1.33-2.27-1.95-.16-.1-.35-.21-.35-.4C238.55,23.78,239.79,22.59,240.09,22.59ZM237.47,25c.16,0,2.81,2,2.81,2.46a2.91,2.91,0,0,1-1.46,1.67c-.13,0-.43-.32-.59-.48a26.52,26.52,0,0,0-2.08-1.76c-.14-.11-.24-.19-.24-.35C235.91,26.18,237.17,25,237.47,25Zm-9,.3a26.78,26.78,0,0,1,3.8,2.29c.54.38,1.81,1.27,1.81,1.65,0,.57-1.7,2.86-2.29,2.86-.22,0-.57-.3-.73-.43a55,55,0,0,0-4.62-3.27.43.43,0,0,1-.29-.37C226.11,27.53,227.86,25.29,228.43,25.29ZM68.27,50.9a16,16,0,1,1,16-16A16.06,16.06,0,0,1,68.27,50.9Zm65-22.43c-.48.27-.64.63-.91,1.3-2.57,6.24-6.59,11.55-12.77,14.52a18.8,18.8,0,0,1-2.3,1c-.56,0-1.7-1.51-2-2s-.64-.76-.64-1.08.21-.44,1.08-.76a20.89,20.89,0,0,0,13-15.09c.05-.21.11-.51.35-.51a32.15,32.15,0,0,1,3.83,1.7c.22.11.81.38.81.59S133.41,28.42,133.3,28.47ZM159.2,45.7c-.41,0-.76-.44-1-.79a.67.67,0,0,0-.14-.19,29.19,29.19,0,0,0-4.75-4.34,2.17,2.17,0,0,0-.89-.46,1,1,0,0,0-.68.32,30.2,30.2,0,0,1-4.23,3.24,19.12,19.12,0,0,1-3.76,1.92c-.48,0-1.48-1.49-1.78-1.92a4.18,4.18,0,0,1-.67-1.46c0-.4.38-.56.7-.67A24.14,24.14,0,0,0,153,32.5a1.83,1.83,0,0,0,.38-.81c0-.46-.46-.52-.92-.52h-4.1c-1.21,0-2.46.06-3.7.06-.67,0-.73-.33-.73-1.3V28.12c0-.94.06-1.13.71-1.13,1.24,0,2.48.08,3.72.08h6.48a14.47,14.47,0,0,0,1.86-.08,5.19,5.19,0,0,1,.68,0c.83,0,2.32,2,2.32,2.4a3.37,3.37,0,0,1-.41.84A50.19,50.19,0,0,1,155.58,36a.75.75,0,0,0-.22.51.63.63,0,0,0,.38.57,56.44,56.44,0,0,1,4.92,3.83c.27.24,1.21,1.08,1.4,1.32a.38.38,0,0,1,.16.32C162.22,43.32,160,45.7,159.2,45.7ZM188,30.34a10,10,0,0,0-.62,1.32,45.53,45.53,0,0,1-2.35,4.75,1.26,1.26,0,0,0-.24.65.91.91,0,0,0,.46.73c.3.21,1.4,1,1.4,1.37S184.85,42,184.17,42a.58.58,0,0,1-.43-.24c-.27-.27-1.11-1.1-1.46-1.1a.75.75,0,0,0-.56.32,22.28,22.28,0,0,1-4.89,4c-.81.51-3.56,2-4.45,2-.62,0-1.27-.81-1.62-1.24a5.82,5.82,0,0,1-1-1.7c0-.3.32-.41.94-.57.13-.06.27-.08.43-.14,3.46-1,7.64-4.15,7.64-4.91a.54.54,0,0,0-.35-.48,17.55,17.55,0,0,0-2.21-1.11c-.25-.11-.81-.35-.81-.65s1.48-2.89,2.32-2.89a17.15,17.15,0,0,1,2.94,1.43,1.29,1.29,0,0,0,.54.19c.46,0,.67-.43.92-.94a7.9,7.9,0,0,0,.67-1.73c0-.46-.59-.51-.94-.51h-3.67c-.76,0-1,0-1.35.56A42,42,0,0,1,173.59,36c-.32.32-.92.94-1.37.94a5.47,5.47,0,0,1-1.92-1.05c-.68-.49-1.24-1-1.24-1.24s.32-.49.51-.62a24.19,24.19,0,0,0,7.29-9.83c.08-.24.21-.67.51-.67a23.9,23.9,0,0,1,3.13,1.26c.49.19.87.38,1,.46s.19.11.19.19-.06.19-.3.3c-.43.16-.54.38-.81.86a2.21,2.21,0,0,0-.43.92c0,.32.24.4.51.43h4a7.9,7.9,0,0,0,1.51-.13.71.71,0,0,1,.24-.06c.6,0,1.73,1.68,1.73,2.24A.49.49,0,0,1,188,30.34Zm15.26-2.43a1.24,1.24,0,0,0-.3,1c0,.33,0,.65,0,1a37.08,37.08,0,0,1-.51,6.91,14.89,14.89,0,0,1-4,7.5c-.3.3-.76.78-1.11.78a8.74,8.74,0,0,1-2.62-1.29c-.27-.17-.73-.44-.73-.79s.22-.43.41-.59c4-3.4,4.42-7,4.42-11.93,0-1.24-.1-3.1-.1-3.21s.13-.27.35-.27c.56,0,2.7.21,3.4.29.51.06.94.11.94.33A.44.44,0,0,1,203.29,27.91ZM217,38.06c-.08.08-.19.16-.25.21-1.27,1.11-2.53,2.19-3.86,3.24-1.1.89-2.26,1.73-3.34,2.67-.27.25-.68.63-1,.63a10.09,10.09,0,0,1-2.43-1.06c-.46-.24-1.16-.65-1.16-1.27s.08-1.75.08-3.26V30.74c0-.54,0-1.43,0-2.27,0-.62,0-1.21-.06-1.56a.56.56,0,0,1,0-.22c0-.19.14-.21.3-.21l1.38.13c.43.06,2.32.27,2.7.33.21,0,.38.08.38.29s-.14.27-.25.38a1.4,1.4,0,0,0-.27,1c0,.81,0,1.62,0,2.43v6c0,1.11,0,1.48.54,1.48,1,0,5.21-4,6.07-4.86.13-.13.32-.35.57-.35s.83.84,1.18,1.46a5,5,0,0,1,.71,1.67C218.25,37,217.46,37.63,217,38.06Zm6.1-3.94c0-.57,1.57-3,2.16-3a21.67,21.67,0,0,1,3.27,1.76,19,19,0,0,1,2.32,1.54.69.69,0,0,1,.38.54c0,.59-1.73,3-2.32,3a1.67,1.67,0,0,1-.62-.32,43.85,43.85,0,0,0-4.78-3.05C223.3,34.44,223.08,34.33,223.08,34.12Zm19.68-.73c-2.81,6.66-7.66,10.36-14.3,12.85-.79.29-.87.37-1.11.78a.47.47,0,0,1-.24.13c-.22,0-.46-.46-.54-.64-.35-.71-1.22-2.68-1.49-3.16a1.25,1.25,0,0,1-.11-.41c0-.21.38-.32.54-.38.76-.18,2.51-.83,3.3-1.13a17.55,17.55,0,0,0,6.47-4,18.7,18.7,0,0,0,4.57-7.37c.13-.29.27-.64.64-.64s1.19.67,1.49.91,1.32,1.11,1.32,1.49A7.91,7.91,0,0,1,242.76,33.39Zm8.59.11c0-.57,2.22-1.57,2.7-1.57a.83.83,0,0,1,.54.38,21.77,21.77,0,0,1,2.27,3.51,1.91,1.91,0,0,1,.22.59c0,.68-2.38,1.73-2.79,1.73s-.45-.33-.56-.54A34.17,34.17,0,0,0,251.6,34,1.15,1.15,0,0,1,251.35,33.5ZM268.12,33c-.25.19-.3.19-.44.67-.91,3-1.59,5.08-3.67,7.56a15.5,15.5,0,0,1-7.61,4.91,3.3,3.3,0,0,1-.89.25c-.43,0-1.13-1-1.4-1.38,0-.05-.09-.11-.14-.19a2.87,2.87,0,0,1-.54-1.1c0-.36.19-.46.49-.54a19.44,19.44,0,0,0,4.4-1.84,10.72,10.72,0,0,0,4-3.81,15.53,15.53,0,0,0,2-6c.06-.24.14-.59.41-.59a16.41,16.41,0,0,1,2.18.73c.81.27,1.6.51,1.6.92C268.47,32.71,268.33,32.85,268.12,33ZM296,31.28c-.27.43-.51.89-.75,1.35-3.35,6.32-6.13,10.1-12.5,13.63A6.74,6.74,0,0,1,281,47c-.48,0-1.64-1-2.07-1.4s-.95-.87-.95-1.25.38-.48.73-.67l.24-.11a24.32,24.32,0,0,0,10.42-8.91,7,7,0,0,0,1.08-2.24c0-.35-.38-.38-.7-.38h-3.86c-.46,0-.67.33-.92.65a32.65,32.65,0,0,1-2.37,2.81c-.35.38-1.62,1.73-2.05,1.73a10.78,10.78,0,0,1-2.95-1.7,1,1,0,0,1-.35-.62.61.61,0,0,1,.27-.44,22.53,22.53,0,0,0,4.3-4.48,25.55,25.55,0,0,0,3.1-5.45c.13-.35.27-.76.48-.76a37.86,37.86,0,0,1,3.51,1.65c.33.14.65.27.65.49s-.13.19-.24.24a2.66,2.66,0,0,0-1.08,1.54c0,.3.24.43.51.48h3.73A5.75,5.75,0,0,0,294,28a1,1,0,0,1,.3,0c.81,0,2.21,2,2.21,2.35A3.27,3.27,0,0,1,296,31.28Zm28.68-.75a3.55,3.55,0,0,0-.38.4c-1.54,1.7-3.13,3.32-4.78,4.89l-.24.24c-.49.49-1,.94-1.32.94s-1.62-1-2.08-1.37a.41.41,0,0,0-.27-.08c-.33,0-.41.16-.49.48a17.1,17.1,0,0,1-4.67,8.8c-.46.43-2.16,2-2.72,2s-3.35-2.16-3.35-2.75c0-.17.21-.3.78-.62a12,12,0,0,0,5.86-8.53,15.5,15.5,0,0,0,.11-2c0-.06,0-.09,0-.14,0-.22,0-.3.27-.3.78,0,3.43.11,4.05.19.46.06.54.16.54.3s-.08.16-.11.24a.18.18,0,0,0-.05.11.22.22,0,0,0,.24.22.27.27,0,0,0,.19-.08c.21-.19,1.91-1.68,1.91-2,0-.16-.13-.3-.43-.3h-10c-1,0-2,0-2.94,0-.38,0-.76,0-1.13,0-.84,0-.87-.3-.87-1.81V28c0-.59.11-.94.79-.94,1.37,0,2.75,0,4.15,0h11.88a14.36,14.36,0,0,0,2.48-.16,2.49,2.49,0,0,1,.46,0c.49,0,.81.35,1.16.7s1.51,1.48,1.51,2.13C325.27,30.07,325,30.31,324.71,30.53Zm24.38-3.7a1.66,1.66,0,0,0-1,.46c-.65.64-1.84,2.13-3.86,4.18a1.75,1.75,0,0,0-.62,1.38v9.93c0,.73,0,1.46,0,2.19,0,.48,0,1,0,1.51,0,.84-.46.86-1.81.86h-1.11c-1.26,0-1.45-.16-1.45-.78,0-1.21.05-2.43.05-3.64v-6c0-.41-.13-.68-.48-.68a1.77,1.77,0,0,0-.79.41c-.73.51-4.45,3-5.07,3s-3.16-2.48-3.16-3.18c0-.3.32-.41.57-.49a37.52,37.52,0,0,0,5.26-2.81,31.71,31.71,0,0,0,6.88-5.83,26.65,26.65,0,0,0,2.49-3.37c.05-.14.16-.32.35-.32a20,20,0,0,1,3.48,2.24c.32.24.54.51.54.67S349.25,26.77,349.09,26.83ZM375.41,45h-1.53c-1,0-1.14-.11-1.25-.54-.16-.6-.54-.6-1.43-.6H360.59c-.35,0-.72.06-1.1.06-.65,0-.73-.35-.73-1.3V40.68c0-.81.05-1.06.62-1.06.35,0,.89.06,1.3.06.83,0,1.67,0,2.53,0h8.45a.84.84,0,0,0,.84-.83V33a.84.84,0,0,0-.84-.83h-8.47c-.79,0-1.57,0-2.33,0-.48,0-.94.06-1.4.06s-.73-.25-.73-1.46V29.15c0-1,.14-1.19.62-1.19s.81.06,1.19.06h12c.81,0,1.62,0,2.43,0,1.08,0,1.7.32,1.7,1.48,0,.92,0,1.84,0,2.73v9.12c0,.79,0,1.57,0,2.38C376.71,44.83,376.68,45,375.41,45Zm28.3-8.69c-4.35,4.23-8.69,6.66-14.09,9.25a1.19,1.19,0,0,0-.73.71.24.24,0,0,1-.22.16c-.21,0-.37-.25-.48-.43-.46-.68-.89-1.38-1.27-2.08a7,7,0,0,1-.78-1.62c0-.25.29-.38.51-.43a28.51,28.51,0,0,0,6.91-3,36.09,36.09,0,0,0,9.74-8.45l.17-.22c.24-.35.46-.65.75-.65.54,0,1.38,1.46,1.62,1.89.06.08.08.19.16.3a4.3,4.3,0,0,1,.46,1.27C406.46,33.66,404.28,35.74,403.71,36.28Z"/></g><g id="アイコン"><circle class="cls-10" cx="78.83" cy="137.3" r="45"/><rect class="cls-11" x="55.51" y="104.66" width="46.63" height="65.29"/><rect class="cls-11" x="78.43" y="107.59" width="2" height="3"/><rect class="cls-11" x="81.43" y="107.59" width="2" height="3"/><rect class="cls-11" x="84.43" y="107.59" width="2" height="3"/><rect class="cls-11" x="89.39" y="107.59" width="2" height="3"/><rect class="cls-11" x="92.39" y="107.59" width="2" height="3"/><rect class="cls-11" x="95.39" y="107.59" width="2" height="3"/><rect class="cls-11" x="98.39" y="107.59" width="2" height="3"/><line class="cls-11" x1="86.96" y1="109.09" x2="88.96" y2="109.09"/><path class="cls-9" d="M77.71,120.87a2,2,0,0,1,0,4"/><path class="cls-9" d="M77.71,128.87a2,2,0,1,1,0-4"/><path class="cls-9" d="M77.71,128.87a2,2,0,0,1,0,4"/><path class="cls-9" d="M77.71,136.87a2,2,0,1,1,0-4"/><path class="cls-9" d="M77.71,136.87a2,2,0,0,1,0,4"/><path class="cls-9" d="M77.71,144.87a2,2,0,1,1,0-4"/><path class="cls-9" d="M77.71,144.87a2,2,0,0,1,0,4"/><path class="cls-9" d="M77.71,152.87a2,2,0,1,1,0-4"/><path class="cls-9" d="M77.71,152.87a2,2,0,0,1,0,4"/><path class="cls-9" d="M77.71,160.87a2,2,0,1,1,0-4"/><path class="cls-9" d="M87.22,118.44a2,2,0,0,1,0,4"/><path class="cls-9" d="M87.22,126.44a2,2,0,0,1,0-4"/><path class="cls-9" d="M87.22,126.44a2,2,0,0,1,0,4"/><path class="cls-9" d="M87.22,134.44a2,2,0,0,1,0-4"/><path class="cls-9" d="M87.22,134.44a2,2,0,0,1,0,4"/><path class="cls-9" d="M87.22,142.44a2,2,0,0,1,0-4"/><path class="cls-9" d="M60.22,141.1a2,2,0,0,1,0,4"/><path class="cls-9" d="M60.22,149.1a2,2,0,0,1,0-4"/><path class="cls-9" d="M60.22,149.1a2,2,0,0,1,0,4"/><path class="cls-9" d="M60.22,157.1a2,2,0,0,1,0-4"/><path class="cls-9" d="M60.22,157.1a2,2,0,0,1,0,4"/><path class="cls-9" d="M60.22,165.1a2,2,0,0,1,0-4"/><rect class="cls-11" x="187.83" y="145.43" width="12.73" height="17.82"/><circle class="cls-10" cx="194.16" cy="137.3" r="45"/><circle class="cls-10" cx="309.5" cy="137.3" r="45"/><circle class="cls-10" cx="424.83" cy="137.3" r="45"/><circle class="cls-10" cx="538.49" cy="139.39" r="45"/><circle class="cls-10" cx="654" cy="137.3" r="45"/><circle class="cls-10" cx="767.76" cy="135.4" r="45"/><circle class="cls-10" cx="884.66" cy="137.3" r="45"/><circle class="cls-10" cx="1113.83" cy="137.3" r="45"/><circle class="cls-10" cx="1001.5" cy="137.3" r="45"/><circle class="cls-10" cx="194.16" cy="278.07" r="45"/><circle class="cls-10" cx="79.43" cy="278.07" r="45"/><circle class="cls-10" cx="309.5" cy="278.07" r="45"/><circle class="cls-10" cx="424.83" cy="278.07" r="45"/><circle class="cls-10" cx="538.83" cy="278.07" r="45"/><circle class="cls-10" cx="654" cy="278.07" r="45"/><circle class="cls-10" cx="763.83" cy="278.07" r="45"/><circle class="cls-10" cx="879.16" cy="278.07" r="45"/><circle class="cls-10" cx="1108.33" cy="278.07" r="45"/><circle class="cls-10" cx="996" cy="278.07" r="45"/><circle class="cls-10" cx="194.16" cy="418.84" r="45"/><circle class="cls-10" cx="79.43" cy="418.84" r="45"/><circle class="cls-10" cx="309.5" cy="418.84" r="45"/><circle class="cls-10" cx="424.83" cy="418.84" r="45"/><circle class="cls-10" cx="538.83" cy="418.84" r="45"/><circle class="cls-12" cx="879.16" cy="418.84" r="45"/><circle class="cls-10" cx="1108.33" cy="418.84" r="45"/><circle class="cls-10" cx="996" cy="418.84" r="45"/><circle class="cls-10" cx="194.16" cy="559.61" r="45"/><circle class="cls-10" cx="79.43" cy="559.61" r="45"/><circle class="cls-10" cx="309.5" cy="559.61" r="45"/><circle class="cls-10" cx="424.83" cy="559.61" r="45"/><circle class="cls-10" cx="538.83" cy="559.61" r="45"/><circle class="cls-10" cx="654" cy="559.61" r="45"/><circle class="cls-10" cx="763.83" cy="559.61" r="45"/><circle class="cls-10" cx="879.16" cy="559.61" r="45"/><circle class="cls-10" cx="1108.33" cy="559.61" r="45"/><circle class="cls-10" cx="996" cy="559.61" r="45"/><circle class="cls-10" cx="194.16" cy="700.38" r="45"/><circle class="cls-12" cx="79.43" cy="700.38" r="45"/><circle class="cls-10" cx="309.5" cy="700.38" r="45"/><circle class="cls-10" cx="424.83" cy="700.38" r="45"/><circle class="cls-10" cx="538.83" cy="700.38" r="45"/><circle class="cls-10" cx="654" cy="700.38" r="45"/><circle class="cls-10" cx="1108.33" cy="700.38" r="45"/><circle class="cls-10" cx="996" cy="700.38" r="45"/><path class="cls-11" d="M209.12,159.72V115c3.21-1.22,5.16-3.75,5.16-8.91h-40c0,5,1.83,7.5,4.84,8.77v44.9c-3.11,1.25-5,3.77-5,8.84h40C214.12,163.49,212.23,161,209.12,159.72Z"/><circle class="cls-11" cx="194.28" cy="125.74" r="10.66"/><rect class="cls-11" x="186.8" y="123.95" width="15.01" height="3.47"/><polygon class="cls-9" points="194.2 125.74 185.54 134.56 202.86 134.56 194.2 125.74"/><polygon class="cls-9" points="194.2 130.85 185.54 139.66 202.86 139.66 194.2 130.85"/><polygon class="cls-9" points="194.2 135.26 185.54 144.07 202.86 144.07 194.2 135.26"/><polygon class="cls-11" points="299.59 113.15 299.59 116.58 300.3 116.58 318.79 116.58 319.5 116.58 319.5 113.15 319.47 113.15 299.61 113.15 299.59 113.15"/><path class="cls-11" d="M318.12,106.57H301c-1.35,0-3.67,1.64-3.33,3.33l2,3.25h19.86l1.91-3.26C321.72,108.21,319.47,106.57,318.12,106.57Z"/><path class="cls-11" d="M319.51,116.58c1.91,2.17-4.25,4.93-9.95,4.93s-12-2.47-10-4.93"/><path class="cls-11" d="M319.51,116.58a10.79,10.79,0,0,1,2.17,7.21,12.18,12.18,0,0,1-24.36,0,11,11,0,0,1,2.27-7.21"/><polygon class="cls-11" points="314.18 137.11 296.95 162.71 296.95 164.68 315.76 137.11 314.18 137.11"/><rect class="cls-11" x="293.58" y="160.84" width="3.37" height="18.48" rx="1.68"/><path class="cls-11" d="M296.9,180.31v-38.2a5,5,0,0,1,5-5H317a5,5,0,0,1,5,5v38.2a4.72,4.72,0,0,1-.07.85"/><rect class="cls-11" x="413.58" y="114.34" width="23.38" height="52.86"/><circle class="cls-11" cx="425.27" cy="120.65" r="1.9"/><line class="cls-11" x1="194.09" y1="150.08" x2="194.09" y2="158.58"/><line class="cls-11" x1="196.96" y1="149.73" x2="196.96" y2="158"/><line class="cls-11" x1="189.93" y1="153.51" x2="189.93" y2="161.98"/><line class="cls-13" x1="424.83" y1="114.34" x2="423.83" y2="119.42"/><line class="cls-13" x1="427.17" y1="114.34" x2="426.57" y2="120.65"/><line class="cls-13" x1="423.83" y1="119.42" x2="426.72" y2="120.65"/><polyline class="cls-11" points="424.9 113.82 418.69 104.73 420.23 104.73 421.19 103.77 425.4 112.07"/><polygon class="cls-11" points="427.98 99.93 425.53 111.68 427.83 112.63 435.74 99.93 430.34 102.88 427.98 99.93"/><path class="cls-13" d="M422.84,136.52c-1.71,5.75-6,16.88,6,21"/><circle class="cls-13" cx="423.83" cy="134.11" r="1.22"/><path class="cls-13" d="M422.8,134.76c-1.67,1.36-3.23,2.76-3.37,3.43s.6.3,1.09.48.38.32.72.94.95-1.45,1.15-2c.5-1.32,1-2.3,1-2.3"/><path class="cls-13" d="M424.05,135.33c1,1.82,2.21,3.89,2.37,4.12.38.54.43-.84.77-1.2s1,.11,1.57-.05c.24-.07-.82-1.09-1.25-1.42-1.29-1-2.56-2.19-2.56-2.19"/><path class="cls-13" d="M425.09,134a34.61,34.61,0,0,0,4.48-.61c.62-.2-.33-.72-.56-1.15s0-.22,0-.83c0-.26-.15-.41-.68-.32a35.22,35.22,0,0,0-3.75,2.13"/><path class="cls-13" d="M424.17,132.86a33.46,33.46,0,0,0,.43-4.51c-.05-.64-.78.16-1.25.29s-.22,0-.8-.21c-.25-.07-.44,0-.46.58a34.16,34.16,0,0,0,1.21,4.14"/><path class="cls-13" d="M422.8,133.45a27.38,27.38,0,0,0-4-1.49c-.64-.13-.52.66-.52,1.15s-.1.2-.41.72c-.13.22.73.26,1.28.28,2,0,3.47,0,3.47,0"/><path class="cls-13" d="M423.38,135.33c-.45,2.1-.82,4.1-.5,4.71s.65-.14,1.15-.31.49,0,1.15.28-.17-1.73-.35-2.27c-.44-1.34-.69-2.41-.69-2.41"/><path class="cls-13" d="M425.05,134.64A33,33,0,0,0,429,136.9c.6.22.18-.77.25-1.26s.14-.18.53-.64c.16-.2.13-.42-.35-.66a26.83,26.83,0,0,0-4.25-.23"/><path class="cls-13" d="M424.6,133.17c1.57-1.43,3.33-3,3.49-3.27.36-.54-.7-.37-1.16-.56s-.14-.17-.49-.66c-.15-.21-.37-.24-.73.17a32.31,32.31,0,0,0-1.54,4"/><path class="cls-13" d="M423.38,133.05a32.69,32.69,0,0,0-2.49-3.78c-.44-.48-.51.6-.79,1s-.2.1-.76.34c-.23.1-.31.31,0,.75a26,26,0,0,0,3.45,2.09"/><path class="cls-13" d="M422.65,134.13c-2.14.25-4.21.6-4.69,1.09s.35.57.67,1,.15.47.1,1.17,1.58-.71,2-1c1.12-.84,2-1.57,2-1.57"/><polygon class="cls-11" points="427.83 114.34 424.6 114.34 425.53 111.68 427.83 112.63 427.83 114.34"/><g class="cls-14"><line class="cls-15" x1="35.77" y1="409.79" x2="123.28" y2="409.79"/><line class="cls-15" x1="122.39" y1="409.79" x2="122.39" y2="434.14"/><line class="cls-15" x1="36.9" y1="409.79" x2="36.9" y2="442.2"/><line class="cls-15" x1="53.38" y1="418.47" x2="105.67" y2="418.47"/><line class="cls-15" x1="49.65" y1="453.14" x2="109.39" y2="453.14"/><rect class="cls-15" x="53.38" y="425.16" width="52.29" height="14.95"/><line class="cls-15" x1="62.29" y1="440.12" x2="62.29" y2="453.14"/><line class="cls-15" x1="95.86" y1="440.12" x2="95.86" y2="453.14"/><line class="cls-15" x1="46.14" y1="388.01" x2="112.9" y2="388.01"/><line class="cls-15" x1="79.61" y1="373.84" x2="79.43" y2="400.49"/><line class="cls-15" x1="38" y1="400.49" x2="121.05" y2="400.49"/></g><line class="cls-16" x1="154.88" y1="396.89" x2="233.46" y2="396.89"/><line class="cls-15" x1="204.37" y1="375.02" x2="222.5" y2="453.79"/><line class="cls-15" x1="213.44" y1="381.68" x2="222.76" y2="392.33"/><line class="cls-15" x1="159.66" y1="406.45" x2="197.85" y2="406.45"/><line class="cls-15" x1="149.25" y1="416.07" x2="206.42" y2="416.07"/><line class="cls-15" x1="166.98" y1="420.94" x2="195.36" y2="420.93"/><line class="cls-15" x1="166.98" y1="428.45" x2="195.36" y2="428.43"/><line class="cls-15" x1="166.98" y1="437.3" x2="195.36" y2="437.28"/><line class="cls-15" x1="166.98" y1="444.86" x2="195.36" y2="444.85"/><line class="cls-15" x1="167.99" y1="420.94" x2="167.99" y2="444.86"/><line class="cls-15" x1="194.36" y1="421.02" x2="194.36" y2="444.94"/><line class="cls-15" x1="167.58" y1="455.11" x2="178.01" y2="444.68"/><line class="cls-15" x1="183.67" y1="444.86" x2="195.64" y2="456.83"/><line class="cls-15" x1="282.15" y1="394.48" x2="269.67" y2="407.27"/><line class="cls-15" x1="268.95" y1="407.55" x2="297.98" y2="407.55"/><line class="cls-15" x1="300.93" y1="411.46" x2="294.54" y2="403.23"/><line class="cls-15" x1="306.72" y1="380.66" x2="294.23" y2="393.45"/><line class="cls-15" x1="293.51" y1="393.73" x2="322.54" y2="393.73"/><line class="cls-15" x1="325.49" y1="397.64" x2="319.1" y2="389.41"/><line class="cls-15" x1="332.98" y1="395.75" x2="320.49" y2="408.54"/><line class="cls-15" x1="319.78" y1="408.82" x2="348.8" y2="408.82"/><line class="cls-15" x1="351.75" y1="412.73" x2="345.36" y2="404.5"/><line class="cls-15" x1="309.89" y1="409.05" x2="265.44" y2="428.02"/><line class="cls-15" x1="353.35" y1="427.87" x2="309.12" y2="409.05"/><path class="cls-9" d="M905.09,114.32a2,2,0,1,1-4,0"/><path class="cls-9" d="M897.09,114.32a2,2,0,0,1,4,0"/><path class="cls-9" d="M897.09,114.32a2,2,0,1,1-4,0"/><path class="cls-9" d="M889.09,114.32a2,2,0,0,1,4,0"/><path class="cls-9" d="M889.09,114.32a2,2,0,1,1-4,0"/><path class="cls-9" d="M881.09,114.32a2,2,0,0,1,4,0"/><path class="cls-9" d="M881.09,114.32a2,2,0,1,1-4,0"/><path class="cls-9" d="M873.09,114.32a2,2,0,0,1,4,0"/><path class="cls-9" d="M873.09,114.32a2,2,0,1,1-4,0"/><path class="cls-9" d="M865.09,114.32a2,2,0,0,1,4,0"/><path class="cls-9" d="M905.13,121.63a2,2,0,0,1-4,0"/><path class="cls-9" d="M897.13,121.63a2,2,0,0,1,4,0"/><path class="cls-9" d="M897.13,121.63a2,2,0,0,1-4,0"/><path class="cls-9" d="M889.13,121.63a2,2,0,0,1,4,0"/><path class="cls-9" d="M889.13,121.63a2,2,0,0,1-4,0"/><path class="cls-9" d="M881.13,121.63a2,2,0,0,1,4,0"/><path class="cls-9" d="M881.13,121.63a2,2,0,0,1-4,0"/><path class="cls-9" d="M873.13,121.63a2,2,0,0,1,4,0"/><path class="cls-9" d="M873.13,121.63a2,2,0,0,1-4,0"/><path class="cls-9" d="M865.13,121.63a2,2,0,0,1,4,0"/><path class="cls-9" d="M905.13,163.8a2,2,0,1,1-4,0"/><path class="cls-9" d="M897.13,163.8a2,2,0,0,1,4,0"/><path class="cls-9" d="M897.13,163.8a2,2,0,1,1-4,0"/><path class="cls-9" d="M889.13,163.8a2,2,0,0,1,4,0"/><path class="cls-9" d="M889.13,163.8a2,2,0,1,1-4,0"/><path class="cls-9" d="M881.13,163.8a2,2,0,0,1,4,0"/><path class="cls-9" d="M881.13,163.8a2,2,0,1,1-4,0"/><path class="cls-9" d="M873.13,163.8a2,2,0,0,1,4,0"/><path class="cls-9" d="M873.13,163.8a2,2,0,1,1-4,0"/><path class="cls-9" d="M865.13,163.8a2,2,0,0,1,4,0"/><path class="cls-9" d="M905.13,154.87a2,2,0,0,1-4,0"/><path class="cls-9" d="M897.13,154.87a2,2,0,0,1,4,0"/><path class="cls-9" d="M897.13,154.87a2,2,0,0,1-4,0"/><path class="cls-9" d="M889.13,154.87a2,2,0,0,1,4,0"/><path class="cls-9" d="M889.13,154.87a2,2,0,0,1-4,0"/><path class="cls-9" d="M881.13,154.87a2,2,0,0,1,4,0"/><path class="cls-9" d="M881.13,154.87a2,2,0,0,1-4,0"/><path class="cls-9" d="M873.13,154.87a2,2,0,0,1,4,0"/><path class="cls-9" d="M873.13,154.87a2,2,0,0,1-4,0"/><path class="cls-9" d="M865.13,154.87a2,2,0,0,1,4,0"/><path class="cls-9" d="M905.13,146.44a2,2,0,0,1-4,0"/><path class="cls-9" d="M897.13,146.44a2,2,0,1,1,4,0"/><path class="cls-9" d="M897.13,146.44a2,2,0,0,1-4,0"/><path class="cls-9" d="M889.13,146.44a2,2,0,1,1,4,0"/><path class="cls-9" d="M889.13,146.44a2,2,0,0,1-4,0"/><path class="cls-9" d="M881.13,146.44a2,2,0,1,1,4,0"/><path class="cls-9" d="M881.13,146.44a2,2,0,0,1-4,0"/><path class="cls-9" d="M873.13,146.44a2,2,0,1,1,4,0"/><path class="cls-9" d="M873.13,146.44a2,2,0,0,1-4,0"/><path class="cls-9" d="M865.13,146.44a2,2,0,1,1,4,0"/><path class="cls-9" d="M905.13,138.37a2,2,0,0,1-4,0"/><path class="cls-9" d="M897.13,138.37a2,2,0,0,1,4,0"/><path class="cls-9" d="M897.13,138.37a2,2,0,0,1-4,0"/><path class="cls-9" d="M889.13,138.37a2,2,0,0,1,4,0"/><path class="cls-9" d="M889.13,138.37a2,2,0,0,1-4,0"/><path class="cls-9" d="M881.13,138.37a2,2,0,0,1,4,0"/><path class="cls-9" d="M881.13,138.37a2,2,0,0,1-4,0"/><path class="cls-9" d="M873.13,138.37a2,2,0,0,1,4,0"/><path class="cls-9" d="M873.13,138.37a2,2,0,0,1-4,0"/><path class="cls-9" d="M865.13,138.37a2,2,0,0,1,4,0"/><path class="cls-9" d="M905.13,130.47a2,2,0,0,1-4,0"/><path class="cls-9" d="M897.13,130.47a2,2,0,1,1,4,0"/><path class="cls-9" d="M897.13,130.47a2,2,0,0,1-4,0"/><path class="cls-9" d="M889.13,130.47a2,2,0,0,1,4,0"/><path class="cls-9" d="M889.13,130.47a2,2,0,1,1-4,0"/><path class="cls-9" d="M881.13,130.47a2,2,0,0,1,4,0"/><path class="cls-9" d="M881.13,130.47a2,2,0,1,1-4,0"/><path class="cls-9" d="M873.13,130.47a2,2,0,0,1,4,0"/><path class="cls-9" d="M873.13,130.47a2,2,0,1,1-4,0"/><path class="cls-9" d="M865.13,130.47a2,2,0,0,1,4,0"/><line class="cls-15" x1="296.51" y1="433.04" x2="322.49" y2="418.04"/><line class="cls-15" x1="296.51" y1="443.66" x2="322.49" y2="428.66"/><line class="cls-15" x1="296.51" y1="453.34" x2="322.49" y2="438.34"/><g class="cls-17"><line class="cls-15" x1="393.04" y1="387.16" x2="393.04" y2="427.07"/><line class="cls-15" x1="368.83" y1="427.33" x2="424.9" y2="427.33"/><line class="cls-15" x1="391.88" y1="387.16" x2="415.08" y2="387.16"/><line class="cls-15" x1="424.83" y1="397.67" x2="461.67" y2="397.67"/><line class="cls-15" x1="416.02" y1="406.7" x2="470.76" y2="406.7"/><line class="cls-15" x1="424.83" y1="415.73" x2="461.67" y2="415.73"/><line class="cls-15" x1="393.04" y1="401.44" x2="410.06" y2="401.44"/><line class="cls-15" x1="392.49" y1="413.24" x2="410.06" y2="413.24"/><line class="cls-15" x1="397.62" y1="427.33" x2="386.01" y2="444.55"/><line class="cls-15" x1="415.4" y1="445.01" x2="386.05" y2="445.01"/><line class="cls-15" x1="408.84" y1="439.75" x2="420.23" y2="449.3"/><line class="cls-15" x1="460.57" y1="415.99" x2="460.57" y2="397.41"/><line class="cls-15" x1="441.59" y1="377.18" x2="441.59" y2="460.73"/><line class="cls-15" x1="418.02" y1="439.5" x2="467.55" y2="439.5"/><line class="cls-15" x1="428.93" y1="430.26" x2="452.89" y2="430.26"/></g><g class="cls-18"><line class="cls-15" x1="518.86" y1="378.51" x2="494.01" y2="422.8"/><line class="cls-15" x1="507.01" y1="399.62" x2="507.01" y2="459.78"/><line class="cls-15" x1="516.91" y1="394.51" x2="579.74" y2="394.51"/><line class="cls-15" x1="535.32" y1="394.51" x2="535.32" y2="447.79"/><line class="cls-15" x1="517.72" y1="447.79" x2="582.3" y2="447.79"/><line class="cls-15" x1="524.85" y1="422.26" x2="567.36" y2="422.26"/><line class="cls-15" x1="566.26" y1="447.81" x2="566.26" y2="422.29"/></g><circle class="cls-10" cx="654" cy="418.84" r="45"/><g class="cls-19"><line class="cls-15" x1="616.97" y1="389.21" x2="635.54" y2="389.21"/><line class="cls-15" x1="617.87" y1="459.55" x2="617.87" y2="389.21"/><line class="cls-15" x1="634.59" y1="389.92" x2="629.95" y2="403.53"/><line class="cls-15" x1="634.61" y1="410.4" x2="629.84" y2="402.63"/><line class="cls-15" x1="628.46" y1="423.45" x2="634.53" y2="409.39"/><line class="cls-15" x1="648.06" y1="398.86" x2="676.41" y2="398.86"/><line class="cls-15" x1="662.24" y1="364.62" x2="662.24" y2="415.35"/><line class="cls-15" x1="638.11" y1="414.35" x2="700.48" y2="414.35"/><line class="cls-15" x1="648.06" y1="437.11" x2="676.41" y2="437.11"/><line class="cls-15" x1="662.24" y1="425.57" x2="662.24" y2="453.61"/><line class="cls-15" x1="638.11" y1="453.61" x2="685.74" y2="453.61"/><line class="cls-15" x1="655.29" y1="414.93" x2="648.5" y2="425.05"/><line class="cls-15" x1="670.72" y1="414.35" x2="670.72" y2="424.8"/><line class="cls-20" x1="687.71" y1="423.8" x2="670.72" y2="423.8"/></g><circle class="cls-10" cx="763.83" cy="418.84" r="45"/><g class="cls-21"><line class="cls-15" x1="720.15" y1="385.47" x2="740.07" y2="400.94"/><line class="cls-15" x1="720.33" y1="403.76" x2="739.85" y2="418.31"/><line class="cls-15" x1="724.56" y1="453.56" x2="740.05" y2="434.07"/><line class="cls-15" x1="748.24" y1="395.1" x2="805.83" y2="395.1"/><line class="cls-15" x1="769.81" y1="362.77" x2="769.81" y2="415.74"/><line class="cls-15" x1="750.59" y1="411.56" x2="769.87" y2="401.92"/><line class="cls-15" x1="769.99" y1="401.92" x2="789.42" y2="411.5"/><line class="cls-15" x1="750.59" y1="425.56" x2="769.87" y2="415.92"/><line class="cls-15" x1="769.99" y1="415.92" x2="789.42" y2="425.5"/><line class="cls-15" x1="769.81" y1="424.88" x2="769.81" y2="463.39"/><line class="cls-15" x1="749.08" y1="434.24" x2="766.52" y2="440.78"/><line class="cls-15" x1="765.9" y1="444.53" x2="749.2" y2="449.26"/><line class="cls-15" x1="792.02" y1="434.24" x2="772.81" y2="440.78"/><line class="cls-15" x1="773.49" y1="444.53" x2="791.89" y2="449.26"/></g><path class="cls-10" d="M559.37,142.93h-7v-7.5a4.5,4.5,0,0,0-4.51-4.5H529.07a4.5,4.5,0,0,0-4.5,4.5v7.5h-7a5,5,0,0,0-5,5v11.67a5,5,0,0,0,5,5h41.76a5,5,0,0,0,5-5V148A5,5,0,0,0,559.37,142.93Z"/><path class="cls-10" d="M560.14,114.09H516.83a4.72,4.72,0,0,0-5,4.4v6.88a4.72,4.72,0,0,0,5,4.4h5.89v-7.84h31.53v7.84h5.89a4.72,4.72,0,0,0,5-4.4v-6.88A4.72,4.72,0,0,0,560.14,114.09Z"/><circle class="cls-10" cx="538.57" cy="149.81" r="13.24"/><circle class="cls-10" cx="538.57" cy="149.81" r="6.4"/><circle class="cls-10" cx="538.57" cy="140.2" r="1.94"/><circle class="cls-10" cx="538.57" cy="140.2" r="1.94"/><circle class="cls-10" cx="532.92" cy="142.03" r="1.94"/><circle class="cls-10" cx="529.43" cy="146.84" r="1.94"/><circle class="cls-10" cx="529.43" cy="152.78" r="1.94"/><circle class="cls-10" cx="532.92" cy="157.58" r="1.94"/><circle class="cls-10" cx="538.57" cy="159.42" r="1.94"/><circle class="cls-10" cx="544.22" cy="157.58" r="1.94"/><circle class="cls-10" cx="547.71" cy="152.78" r="1.94"/><circle class="cls-10" cx="547.71" cy="146.84" r="1.94"/><path class="cls-10" d="M674.71,142.93h-7v-7.5a4.5,4.5,0,0,0-4.5-4.5H644.42a4.5,4.5,0,0,0-4.51,4.5v7.5h-7a5,5,0,0,0-5,5v11.67a5,5,0,0,0,5,5h41.76a5,5,0,0,0,5-5V148A5,5,0,0,0,674.71,142.93Z"/><path class="cls-10" d="M662.26,99l-37,22.5c-2.35,1.43-3.24,4.27-2,6.35l3.57,5.88a4.72,4.72,0,0,0,6.54,1.17l5-3.06-4.07-6.7,26.94-16.38,4.07,6.69,5-3.06a4.71,4.71,0,0,0,2-6.34l-3.58-5.88C667.54,98.07,664.61,97.55,662.26,99Z"/><circle class="cls-10" cx="653.91" cy="149.81" r="13.24"/><circle class="cls-10" cx="653.91" cy="149.81" r="6.4"/><circle class="cls-10" cx="653.91" cy="140.2" r="1.94"/><circle class="cls-10" cx="653.91" cy="140.2" r="1.94"/><circle class="cls-10" cx="648.26" cy="142.03" r="1.94"/><circle class="cls-10" cx="644.77" cy="146.84" r="1.94"/><circle class="cls-10" cx="644.77" cy="152.78" r="1.94"/><circle class="cls-10" cx="648.26" cy="157.58" r="1.94"/><circle class="cls-10" cx="653.91" cy="159.42" r="1.94"/><circle class="cls-10" cx="659.56" cy="157.58" r="1.94"/><circle class="cls-10" cx="663.05" cy="152.78" r="1.94"/><circle class="cls-10" cx="663.05" cy="146.84" r="1.94"/><path class="cls-10" d="M789.71,142.93h-7v-7.5a4.5,4.5,0,0,0-4.5-4.5H759.42a4.5,4.5,0,0,0-4.51,4.5v7.5h-7a5,5,0,0,0-5,5v11.67a5,5,0,0,0,5,5h41.76a5,5,0,0,0,5-5V148A5,5,0,0,0,789.71,142.93Z"/><path class="cls-10" d="M790.48,114.09h-43.3c-2.75,0-5,2-5,4.4v6.88c0,2.43,2.24,4.4,5,4.4h5.89v-7.84H784.6v7.84h5.88a4.72,4.72,0,0,0,5-4.4v-6.88A4.72,4.72,0,0,0,790.48,114.09Z"/><circle class="cls-10" cx="768.91" cy="149.81" r="13.24"/><circle class="cls-10" cx="768.91" cy="149.81" r="6.4"/><circle class="cls-10" cx="768.91" cy="140.2" r="1.94"/><circle class="cls-10" cx="768.91" cy="140.2" r="1.94"/><circle class="cls-10" cx="763.26" cy="142.03" r="1.94"/><circle class="cls-10" cx="759.77" cy="146.84" r="1.94"/><circle class="cls-10" cx="759.77" cy="152.78" r="1.94"/><circle class="cls-10" cx="763.26" cy="157.58" r="1.94"/><circle class="cls-10" cx="768.91" cy="159.42" r="1.94"/><circle class="cls-10" cx="774.56" cy="157.58" r="1.94"/><circle class="cls-10" cx="778.05" cy="152.78" r="1.94"/><circle class="cls-10" cx="778.05" cy="146.84" r="1.94"/><line class="cls-10" x1="672.95" y1="116.93" x2="684.29" y2="111.53"/><line class="cls-10" x1="673.95" y1="121.45" x2="687.06" y2="121.18"/><line class="cls-10" x1="672.95" y1="126.47" x2="684.84" y2="130.93"/><polygon class="cls-10" points="766.82 96.78 765.12 102.01 766.59 102.89 766.84 108.44 769.14 102 766.93 101.25 766.82 96.78"/><polygon class="cls-10" points="750.84 101.53 753 106.59 754.68 106.28 758.51 110.31 756.01 103.94 753.86 104.83 750.84 101.53"/><polygon class="cls-10" points="781.63 99.71 777.64 103.49 778.51 104.96 776.06 109.96 781.17 105.4 779.59 103.69 781.63 99.71"/><g class="cls-22"><rect class="cls-23" x="718.18" y="129.08" width="99.16" height="12.64" transform="translate(129.13 582.54) rotate(-45)"/><rect class="cls-23" x="718.18" y="129.08" width="99.16" height="12.64" transform="translate(320.61 -503.23) rotate(45)"/></g><rect class="cls-10" x="859.16" y="108.14" width="49.85" height="60.45"/><circle class="cls-11" cx="862.5" cy="113.8" r="2"/><path class="cls-11" d="M861,112.48h.09l.51.05.21,0c1.25.18,2.07.49,2.07.83,0,.55-2.1,1-4.68,1s-4.68-.45-4.68-1,2-1,4.5-1h.48"/><circle class="cls-11" cx="862.5" cy="123.8" r="2"/><path class="cls-11" d="M861,122.48h.09l.51.05.21,0c1.25.18,2.07.49,2.07.83,0,.55-2.1,1-4.68,1s-4.68-.45-4.68-1,2-1,4.5-1h.48"/><circle class="cls-11" cx="862.5" cy="133.8" r="2"/><path class="cls-11" d="M861,132.48h.09l.51,0,.21,0c1.25.18,2.07.49,2.07.83,0,.55-2.1,1-4.68,1s-4.68-.45-4.68-1,2-1,4.5-1h.48"/><circle class="cls-11" cx="862.5" cy="143.8" r="2"/><path class="cls-11" d="M861,142.48h.09l.51,0,.21,0c1.25.18,2.07.49,2.07.83,0,.55-2.1,1-4.68,1s-4.68-.45-4.68-1,2-1,4.5-1h.48"/><circle class="cls-11" cx="862.5" cy="153.8" r="2"/><path class="cls-11" d="M861,152.48h.09l.51,0,.21,0c1.25.18,2.07.49,2.07.83,0,.55-2.1,1-4.68,1s-4.68-.45-4.68-1,2-1,4.5-1h.48"/><circle class="cls-11" cx="862.5" cy="163.8" r="2"/><path class="cls-11" d="M861,162.48h.09l.51,0,.21,0c1.25.18,2.07.49,2.07.83,0,.55-2.1,1-4.68,1s-4.68-.45-4.68-1,2-1,4.5-1h.48"/><polygon class="cls-10" points="1030.55 138.72 985.55 112.74 985.55 164.7 1030.55 138.72"/><rect class="cls-10" x="1098.71" y="119.9" width="9.62" height="38.95"/><rect class="cls-10" x="1117.98" y="119.9" width="9.62" height="38.95"/><line class="cls-10" x1="74.31" y1="274.1" x2="68.97" y2="292.71"/><polyline class="cls-10" points="82.32 264.84 79.64 255.48 76.89 265.07"/><polyline class="cls-10" points="90.31 292.71 90.31 292.71 84.94 273.98"/><path class="cls-10" d="M66.34,301.92l-4.6,16H71.79c4.48-18.58,10.84-18.35,15.19-2.22a22.37,22.37,0,0,1,.47,2.22H97.54L93,302.13h0"/><polygon class="cls-10" points="95.33 301.92 65.98 301.92 63.96 301.92 63.96 292.71 68.62 292.71 95.33 292.71 95.33 301.92"/><polygon class="cls-10" points="88.49 274.1 84.97 274.1 74.31 274.1 70.4 274.1 70.4 264.84 76.96 264.84 82.32 264.84 88.49 264.84 88.49 274.1"/><line class="cls-10" x1="63.96" y1="295.78" x2="95.33" y2="295.78"/><line class="cls-10" x1="64.11" y1="299.06" x2="95.48" y2="299.06"/><line class="cls-10" x1="74.44" y1="292.71" x2="74.44" y2="301.54"/><line class="cls-10" x1="85.59" y1="292.71" x2="85.59" y2="301.54"/><line class="cls-10" x1="70.28" y1="267.94" x2="88.61" y2="267.94"/><line class="cls-10" x1="70.4" y1="271.02" x2="88.49" y2="271.02"/><line class="cls-10" x1="76.25" y1="264.84" x2="76.25" y2="273.98"/><line class="cls-10" x1="82.63" y1="264.84" x2="82.63" y2="273.98"/><path class="cls-10" d="M68.42,243.55a15.52,15.52,0,0,1,22,0"/><path class="cls-10" d="M72,247.09a10.53,10.53,0,0,1,14.87,0"/><path class="cls-10" d="M72,247.09a10.53,10.53,0,0,1,14.87,0"/><g class="cls-24"><circle class="cls-10" cx="79.4" cy="254.53" r="10.51"/><circle class="cls-10" cx="79.4" cy="254.53" r="5.45"/><circle class="cls-10" cx="79.4" cy="254.53" r="15.53"/></g><rect class="cls-10" x="159.9" y="264.01" width="69.09" height="32.06"/><ellipse class="cls-10" cx="194.28" cy="280.61" rx="9.97" ry="12.11"/><path class="cls-9" d="M163.89,296.11V289c0-4.57,12.12-4.84,12-.51s0,7.59,0,7.59Z"/><circle class="cls-9" cx="169.87" cy="282.02" r="5.28"/><rect class="cls-10" x="272" y="271.83" width="28.57" height="13.25"/><ellipse class="cls-10" cx="286.22" cy="278.7" rx="4.12" ry="5.01"/><path class="cls-9" d="M273.65,285.11v-2.93c0-1.89,5-2,5-.21s0,3.14,0,3.14Z"/><circle class="cls-9" cx="276.13" cy="279.28" r="2.18"/><path class="cls-10" d="M328.15,290.91l-.08-9.23v-1L328,270.61s9.68-1.49,9.47,5.65-9.44,6.42-9.37,6.43"/><path class="cls-10" d="M331.56,291.69a21.36,21.36,0,1,1-42.71,0"/><path class="cls-10" d="M288.85,266.05a21.36,21.36,0,1,1,42.71,0"/><line class="cls-10" x1="383.31" y1="260.71" x2="383.31" y2="260.71"/><line class="cls-23" x1="466.36" y1="260.71" x2="466.36" y2="260.71"/><line class="cls-10" x1="384.22" y1="258.67" x2="465.05" y2="258.67"/><line class="cls-10" x1="387.89" y1="303.78" x2="461.77" y2="303.78"/><line class="cls-10" x1="394.99" y1="244.4" x2="394.99" y2="258.67"/><line class="cls-10" x1="405.27" y1="237.54" x2="405.27" y2="258.18"/><line class="cls-10" x1="426.92" y1="233.12" x2="426.92" y2="258.18"/><line class="cls-10" x1="429.62" y1="233.33" x2="436.6" y2="258.67"/><line class="cls-10" x1="439.13" y1="235.39" x2="445.66" y2="256.67"/><line class="cls-10" x1="436.6" y1="258.67" x2="445.42" y2="255.87"/><line class="cls-10" x1="445.6" y1="238.15" x2="445.6" y2="259.19"/><line class="cls-10" x1="452.53" y1="242.61" x2="452.53" y2="258.67"/><line class="cls-10" x1="461.77" y1="252.37" x2="461.77" y2="258.67"/><rect class="cls-10" x="387.81" y="262.01" width="10.59" height="41.77"/><rect class="cls-10" x="398.4" y="265.73" width="10.72" height="38.05"/><rect class="cls-10" x="409.11" y="276.09" width="15.78" height="27.69"/><rect class="cls-10" x="424.9" y="264.49" width="6.19" height="39.29"/><rect class="cls-10" x="431.08" y="267.08" width="5.75" height="36.7"/><rect class="cls-10" x="436.83" y="270.12" width="6.2" height="33.66"/><rect class="cls-10" x="443.02" y="261.22" width="18.25" height="42.56"/><line class="cls-10" x1="380.53" y1="270.12" x2="380.53" y2="270.12"/><line class="cls-23" x1="387.37" y1="270.12" x2="387.81" y2="270.12"/><line class="cls-10" x1="380.53" y1="272.04" x2="387.89" y2="272.04"/><line class="cls-10" x1="461.77" y1="264.49" x2="467.74" y2="264.49"/><line class="cls-10" x1="397.32" y1="313.68" x2="407.31" y2="313.68"/><line class="cls-10" x1="407.31" y1="319.53" x2="407.31" y2="313.68"/><line class="cls-12" x1="407.31" y1="306.85" x2="407.31" y2="316.61"/><line class="cls-12" x1="413.85" y1="306.85" x2="407.31" y2="306.85"/><line class="cls-12" x1="413.85" y1="321.23" x2="413.85" y2="306.85"/><line class="cls-12" x1="431.08" y1="309.1" x2="431.08" y2="322.3"/><line class="cls-12" x1="439.19" y1="309.1" x2="431.08" y2="309.1"/><line class="cls-12" x1="439.19" y1="320.33" x2="439.19" y2="309.1"/><line class="cls-12" x1="445.6" y1="311.02" x2="439.19" y2="311.02"/><line class="cls-12" x1="445.6" y1="317.67" x2="445.6" y2="311.02"/><polyline class="cls-12" points="340.16 257.49 331.37 266.28 322.58 257.49"/><polyline class="cls-12" points="280.58 299.49 289.37 290.69 298.16 299.49"/><line class="cls-10" x1="562.08" y1="316.61" x2="541.69" y2="296.22"/><circle class="cls-10" cx="532.18" cy="271.23" r="26.52"/><circle class="cls-10" cx="532.18" cy="271.23" r="26.52"/><path class="cls-10" d="M508.45,271.23a23.69,23.69,0,0,1,10.61-19.78"/><path class="cls-10" d="M510.77,271.23A21.39,21.39,0,0,1,520,253.65"/><line class="cls-10" x1="554.57" y1="285.43" x2="574.67" y2="305.53"/><line class="cls-10" x1="677.42" y1="316.61" x2="657.03" y2="296.22"/><circle class="cls-10" cx="647.51" cy="271.23" r="26.52"/><circle class="cls-10" cx="647.51" cy="271.23" r="26.52"/><path class="cls-10" d="M614.74,268.2a23.73,23.73,0,0,1,10.69-19.74"/><path class="cls-10" d="M617.07,268.21a21.35,21.35,0,0,1,9.25-17.54"/><line class="cls-10" x1="669.9" y1="285.43" x2="690" y2="305.53"/><line class="cls-10" x1="725.12" y1="255.12" x2="802.9" y2="255.12"/><line class="cls-10" x1="718.88" y1="275.92" x2="808.71" y2="275.92"/><line class="cls-10" x1="764.01" y1="324.33" x2="764.01" y2="275.92"/><path class="cls-10" d="M856.82,239c-1.31,20.34-4.36,28.44-22.66,39.06"/><path class="cls-10" d="M856.82,239c-1.31,20.34-4.36,28.44-22.66,39.06"/><path class="cls-10" d="M903.43,240.59c1.07,20.35,2.39,30.59,20.56,41.43"/><rect class="cls-10" x="858.27" y="279.92" width="45.16" height="23.33"/><path class="cls-9" d="M893.13,292.87a2,2,0,0,1-4,0"/><path class="cls-9" d="M885.13,292.87a2,2,0,0,1,4,0"/><path class="cls-9" d="M885.13,292.87a2,2,0,0,1-4,0"/><path class="cls-9" d="M877.13,292.87a2,2,0,0,1,4,0"/><path class="cls-9" d="M877.13,292.87a2,2,0,0,1-4,0"/><path class="cls-9" d="M869.13,292.87a2,2,0,0,1,4,0"/><rect class="cls-10" x="973.58" y="248.46" width="45" height="62.59"/><text class="cls-25" transform="translate(981.08 267.05)">MENU</text><path class="cls-10" d="M957.56,301.48V256.21s5.9.3,5.9,10.84c0,6.32-2.12,9.74-3.82,11.46-1.13,1.16-.53,25.35-.53,25.35"/><path class="cls-10" d="M1032.08,305s.16-14.6,0-17.92-1-2.16-3-3.65-4.74-5.68-2.49-18.61c.38-2.2.77-2.79.82-1.66s.34,13.58,1.08,15.34.73,1.43,1.37,2.11,2.4.79,2.7-.34.39-12.26.44-15.45a19,19,0,0,1,.25-3.82s.78-1.77.88,1.42,0,17.26.39,18.29,2.06,1,3,.79,1.92-3.07,2.31-11c0-.36,0-2.17.05-2.56"/><path class="cls-10" d="M1041,276.18c-.35,4-1.18,6.33-2.37,7.22-2,1.49-2.82.33-3,3.65s-.07,12.22-.07,12.22"/><circle class="cls-10" cx="1108.33" cy="274.06" r="16.92"/><path class="cls-10" d="M1087.49,317.79V303a12,12,0,0,1,12-12h20.18a12,12,0,0,1,12,12v13.27"/><text class="cls-26" transform="translate(1078.42 279.74) rotate(-18.69)">?</text><text class="cls-26" transform="matrix(0.76, 0.66, -0.66, 0.76, 1129.54, 276.24)">?</text><text class="cls-26" transform="translate(1101.74 256) rotate(-6.37)">?</text><circle class="cls-10" cx="79.33" cy="556.06" r="16.92"/><path class="cls-10" d="M58.49,599.79V585a12,12,0,0,1,12-12H90.67a12,12,0,0,1,12,12v13.27"/><polyline class="cls-10" points="62.95 549.38 58.28 544.71 79.43 523.57 100.57 544.71 95.17 550.11"/><line class="cls-10" x1="70.04" y1="537.35" x2="70.04" y2="541.92"/><line class="cls-10" x1="88.66" y1="537.35" x2="88.66" y2="541.92"/><path class="cls-10" d="M221.34,562.4a27.18,27.18,0,1,1-27.18-27.17A27.17,27.17,0,0,1,221.34,562.4Z"/><line class="cls-10" x1="179.72" y1="602.24" x2="179.72" y2="585.54"/><line class="cls-10" x1="208.26" y1="602.24" x2="208.26" y2="585.54"/><line class="cls-10" x1="179.74" y1="593.85" x2="207.92" y2="590.54"/><line class="cls-10" x1="179.51" y1="600.65" x2="208.26" y2="597.51"/><ellipse class="cls-10" cx="183.7" cy="564.31" rx="2.98" ry="8.93"/><ellipse class="cls-10" cx="194.46" cy="564.31" rx="2.98" ry="8.93"/><ellipse class="cls-10" cx="205.76" cy="564.31" rx="2.98" ry="8.93"/><line class="cls-10" x1="186.22" y1="559.61" x2="192.57" y2="571.19"/><line class="cls-10" x1="196.63" y1="558.2" x2="204.02" y2="571.54"/><line class="cls-10" x1="180.84" y1="566.83" x2="179.72" y2="585.54"/><line class="cls-10" x1="208.63" y1="566.6" x2="209.46" y2="585.54"/><line class="cls-10" x1="193.89" y1="519.42" x2="193.89" y2="531.87"/><line class="cls-10" x1="209.04" y1="523.57" x2="205.76" y2="533.69"/><line class="cls-10" x1="175.74" y1="525.64" x2="180.72" y2="535.23"/><g class="cls-27"><circle class="cls-10" cx="272.21" cy="552.24" r="20.38"/><circle class="cls-10" cx="349.99" cy="552.24" r="20.38"/><rect class="cls-10" x="253.05" y="572.67" width="35.52" height="51.3" rx="12"/><rect class="cls-10" x="329.61" y="573.23" width="39.18" height="59.41" rx="12"/><line class="cls-10" x1="297.77" y1="557.97" x2="311.73" y2="555.38"/><line class="cls-10" x1="312.64" y1="546.44" x2="329.61" y2="555.38"/><line class="cls-10" x1="313.25" y1="562.4" x2="328.12" y2="561.01"/><line class="cls-10" x1="316.89" y1="576.07" x2="329.61" y2="566.77"/><line class="cls-10" x1="293.82" y1="564.87" x2="306.4" y2="569.51"/><line class="cls-10" x1="296.86" y1="547.35" x2="308.83" y2="543.4"/></g><g class="cls-28"><line class="cls-10" x1="392.63" y1="528.18" x2="457.74" y2="528.18"/><rect class="cls-10" x="373.16" y="542.34" width="57.94" height="57.94"/><path class="cls-9" d="M442.71,547.87a2,2,0,0,1,0,4"/><path class="cls-9" d="M442.71,555.87a2,2,0,1,1,0-4"/><path class="cls-9" d="M442.71,555.87a2,2,0,0,1,0,4"/><path class="cls-9" d="M442.71,563.87a2,2,0,1,1,0-4"/><path class="cls-9" d="M442.71,563.87a2,2,0,0,1,0,4"/><path class="cls-9" d="M442.71,571.87a2,2,0,1,1,0-4"/><path class="cls-9" d="M442.71,571.87a2,2,0,0,1,0,4"/><path class="cls-9" d="M442.71,579.87a2,2,0,1,1,0-4"/><path class="cls-9" d="M442.71,579.87a2,2,0,0,1,0,4"/><path class="cls-9" d="M442.71,587.87a2,2,0,1,1,0-4"/><path class="cls-9" d="M449.83,547.87a2,2,0,1,1,0,4"/><path class="cls-9" d="M449.83,555.87a2,2,0,0,1,0-4"/><path class="cls-9" d="M449.83,555.87a2,2,0,1,1,0,4"/><path class="cls-9" d="M449.83,563.87a2,2,0,0,1,0-4"/><path class="cls-9" d="M449.83,563.87a2,2,0,1,1,0,4"/><path class="cls-9" d="M449.83,571.87a2,2,0,0,1,0-4"/><path class="cls-9" d="M449.83,571.87a2,2,0,1,1,0,4"/><path class="cls-9" d="M449.83,579.87a2,2,0,0,1,0-4"/><path class="cls-9" d="M449.83,579.87a2,2,0,1,1,0,4"/><path class="cls-9" d="M449.83,587.87a2,2,0,0,1,0-4"/><path class="cls-9" d="M456.47,547.87a2,2,0,0,1,0,4"/><path class="cls-9" d="M456.47,555.87a2,2,0,0,1,0-4"/><path class="cls-9" d="M456.47,555.87a2,2,0,0,1,0,4"/><path class="cls-9" d="M456.47,563.87a2,2,0,0,1,0-4"/><path class="cls-9" d="M456.47,563.87a2,2,0,0,1,0,4"/><path class="cls-9" d="M456.47,571.87a2,2,0,0,1,0-4"/><path class="cls-9" d="M456.47,571.87a2,2,0,1,1,0,4"/><path class="cls-9" d="M456.47,579.87a2,2,0,0,1,0-4"/><path class="cls-9" d="M456.47,579.87a2,2,0,1,1,0,4"/><path class="cls-9" d="M456.47,587.87a2,2,0,0,1,0-4"/><path class="cls-9" d="M463.16,547.87a2,2,0,0,1,0,4"/><path class="cls-9" d="M463.16,555.87a2,2,0,1,1,0-4"/><path class="cls-9" d="M463.16,555.87a2,2,0,0,1,0,4"/><path class="cls-9" d="M463.16,563.87a2,2,0,1,1,0-4"/><path class="cls-9" d="M463.16,563.87a2,2,0,0,1,0,4"/><path class="cls-9" d="M463.16,571.87a2,2,0,1,1,0-4"/><path class="cls-9" d="M463.16,571.87a2,2,0,0,1,0,4"/><path class="cls-9" d="M463.16,579.87a2,2,0,1,1,0-4"/><path class="cls-9" d="M463.16,579.87a2,2,0,0,1,0,4"/><path class="cls-9" d="M463.16,587.87a2,2,0,1,1,0-4"/></g><rect class="cls-10" x="517.83" y="535.8" width="45.17" height="51.17" rx="5"/><rect class="cls-10" x="520" y="538.26" width="40.83" height="46.26" rx="5"/><rect class="cls-10" x="632.91" y="535.8" width="45.17" height="51.17" rx="5"/><rect class="cls-10" x="635.08" y="538.26" width="40.83" height="46.26" rx="5"/><rect class="cls-10" x="637.15" y="540.66" width="36.7" height="24.84" rx="5"/><rect class="cls-10" x="524.83" y="569.47" width="9" height="11.17" rx="1.83"/><line class="cls-10" x1="533.92" y1="575.41" x2="525.17" y2="575.41"/><rect class="cls-10" x="525.17" y="549.22" width="30.98" height="6.88" rx="1.8"/><line class="cls-10" x1="540.41" y1="535.36" x2="540.66" y2="514.26"/><path class="cls-10" d="M532.82,587v7.28c0,2.88-4.4,2.78-4.4,0s-4.7-3.24-4.7,0-.28,7.66-.28,7.66"/><path class="cls-10" d="M545.44,587v7.28c0,2.88,4.4,2.78,4.4,0s4.7-3.24,4.7,0,.28,7.66.28,7.66"/><line class="cls-10" x1="637.15" y1="551.29" x2="673.85" y2="551.29"/><line class="cls-10" x1="637.15" y1="555.77" x2="673.85" y2="555.77"/><text class="cls-25" transform="translate(647.03 579.61)">ON</text><rect class="cls-10" x="742.41" y="535.8" width="45.17" height="51.17" rx="5"/><rect class="cls-10" x="744.58" y="538.26" width="40.83" height="46.26" rx="5"/><rect class="cls-10" x="746.65" y="557.66" width="36.7" height="24.84" rx="5"/><line class="cls-10" x1="746.65" y1="568.29" x2="783.35" y2="568.29"/><line class="cls-10" x1="746.65" y1="572.77" x2="783.35" y2="572.77"/><text class="cls-25" transform="translate(754.16 551.64)">OFF</text><rect class="cls-10" x="855.63" y="589.64" width="48.67" height="5.17"/><rect class="cls-10" x="855.63" y="524.3" width="48.67" height="5.17"/><rect class="cls-10" x="865.13" y="529.47" width="29.67" height="60.17"/><g class="cls-29"><rect class="cls-9" x="849.52" y="532.66" width="59.58" height="9.5" transform="translate(-122.46 779.17) rotate(-45)"/><rect class="cls-9" x="849.52" y="560.47" width="59.58" height="9.5" transform="translate(-142.12 787.31) rotate(-45)"/><rect class="cls-9" x="853.35" y="583.97" width="59.58" height="9.5" transform="translate(-157.62 796.91) rotate(-45)"/></g><rect class="cls-10" x="962.83" y="543.3" width="18.25" height="38"/><rect class="cls-10" x="981.08" y="543.3" width="33.25" height="38"/><rect class="cls-10" x="1014.33" y="543.3" width="18.25" height="38"/><line class="cls-10" x1="962.83" y1="543.3" x2="993" y2="520.64"/><circle class="cls-10" cx="971.23" cy="563.3" r="5.33"/><circle class="cls-10" cx="1023.46" cy="563.3" r="5.33"/><path class="cls-11" d="M1095.77,590V564.72a5.07,5.07,0,0,1,5-5.11h15.13a5.07,5.07,0,0,1,5,5.11v26.16"/><path class="cls-11" d="M1121,538a13.75,13.75,0,1,1-25.38.1"/><path class="cls-11" d="M1118.63,534.68c9.86.26,16.45.88,16.45,1.62,0,1-11.86,1.75-26.5,1.75s-26.5-.78-26.5-1.75c0-.71,6.46-1.32,15.72-1.59"/><rect class="cls-11" x="1097.6" y="520.55" width="21.03" height="15.75"/><line class="cls-11" x1="1104.06" y1="559.61" x2="1108.58" y2="576.1"/><line class="cls-11" x1="1113.33" y1="559.61" x2="1108.58" y2="576.1"/><line class="cls-11" x1="1108.58" y1="576.1" x2="1090.69" y2="600.66"/><line class="cls-11" x1="1108.58" y1="576.1" x2="1126.09" y2="600.6"/><line class="cls-11" x1="1095.77" y1="589.89" x2="1090.33" y2="600.86"/><line class="cls-11" x1="1120.9" y1="590.76" x2="1126.25" y2="600.9"/><line class="cls-11" x1="1108.33" y1="559.61" x2="1108.33" y2="604.61"/><line class="cls-11" x1="1095.77" y1="593.69" x2="1095.77" y2="602.82"/><line class="cls-11" x1="1120.49" y1="592.77" x2="1120.9" y2="602.83"/><path class="cls-10" d="M866.16,235s-.89,20.31.86,26.33,15.68,8,22.11,4.91,4-30.93,4-30.93"/><g class="cls-30"><line class="cls-31" x1="837.02" y1="403.05" x2="857.82" y2="403.05"/><line class="cls-20" x1="848.39" y1="386.02" x2="848.39" y2="452.61"/><line class="cls-20" x1="837.02" y1="436.37" x2="857.11" y2="416.28"/><line class="cls-20" x1="863.3" y1="393.09" x2="863.3" y2="412.73"/><line class="cls-20" x1="894.21" y1="393.36" x2="894.21" y2="412.73"/><line class="cls-20" x1="894.21" y1="393.09" x2="863.3" y2="393.09"/><line class="cls-20" x1="894.21" y1="412.73" x2="863.3" y2="412.73"/><line class="cls-15" x1="877.96" y1="412.73" x2="856.36" y2="472.9"/><line class="cls-20" x1="872.86" y1="429.14" x2="893.45" y2="429.14"/><line class="cls-20" x1="893.45" y1="466.43" x2="893.45" y2="429.14"/><line class="cls-20" x1="902.08" y1="403.05" x2="902.08" y2="430.82"/><line class="cls-20" x1="911.28" y1="387.32" x2="911.28" y2="462.69"/></g><g class="cls-32"><line class="cls-20" x1="953.83" y1="399.09" x2="981.08" y2="399.09"/><line class="cls-20" x1="953.83" y1="447.27" x2="981.08" y2="447.27"/><line class="cls-20" x1="951" y1="423.18" x2="981.08" y2="423.18"/><line class="cls-20" x1="967.46" y1="447.27" x2="967.46" y2="399.09"/><line class="cls-20" x1="1029.03" y1="396.13" x2="991.78" y2="471.05"/><line class="cls-20" x1="1002.28" y1="396.24" x2="989.57" y2="422.38"/><line class="cls-20" x1="1011.53" y1="432.89" x2="1029.4" y2="455.28"/><line class="cls-20" x1="1002.91" y1="395.87" x2="1027.82" y2="395.87"/></g><g class="cls-33"><line class="cls-31" x1="1066.44" y1="403.05" x2="1087.24" y2="403.05"/><line class="cls-20" x1="1077.81" y1="386.02" x2="1077.81" y2="463.17"/><line class="cls-20" x1="1066.44" y1="436.37" x2="1086.53" y2="416.28"/><line class="cls-15" x1="1116.05" y1="389.73" x2="1089.35" y2="416.43"/><line class="cls-15" x1="1114.35" y1="389.73" x2="1141.05" y2="416.43"/><line class="cls-15" x1="1104.68" y1="419.84" x2="1126.29" y2="419.84"/><line class="cls-20" x1="1095.83" y1="432.03" x2="1095.83" y2="451.76"/><line class="cls-20" x1="1137.06" y1="432.03" x2="1137.06" y2="451.76"/><line class="cls-20" x1="1136.06" y1="432.03" x2="1095.83" y2="432.03"/><line class="cls-20" x1="1136.06" y1="451.76" x2="1095.83" y2="451.76"/></g><g class="cls-34"><line class="cls-20" x1="44.35" y1="672.2" x2="113.88" y2="672.2"/><line class="cls-20" x1="44.35" y1="680.08" x2="113.88" y2="680.08"/><line class="cls-20" x1="79.83" y1="702.79" x2="79.83" y2="672.2"/><line class="cls-20" x1="44.35" y1="702.79" x2="44.35" y2="681.86"/><line class="cls-20" x1="113.88" y1="702.79" x2="113.88" y2="681.86"/><line class="cls-15" x1="57.42" y1="684.05" x2="66.76" y2="693.39"/><line class="cls-15" x1="57.42" y1="692.53" x2="66.76" y2="701.87"/><line class="cls-15" x1="92.19" y1="683.99" x2="101.52" y2="693.33"/><line class="cls-15" x1="92.19" y1="692.47" x2="101.52" y2="701.81"/><line class="cls-20" x1="40.22" y1="722.48" x2="79.83" y2="703.69"/><line class="cls-20" x1="126.34" y1="725.57" x2="80.22" y2="703.69"/><line class="cls-20" x1="69.27" y1="715.29" x2="88.54" y2="715.29"/><line class="cls-20" x1="59.13" y1="722.05" x2="98.11" y2="722.05"/><line class="cls-20" x1="98.11" y1="732.87" x2="98.11" y2="722.05"/><line class="cls-20" x1="79.43" y1="745.38" x2="79.43" y2="722.05"/></g><g class="cls-35"><line class="cls-20" x1="146.64" y1="699.16" x2="178.3" y2="667.5"/><line class="cls-20" x1="162.04" y1="735.03" x2="162.04" y2="684.56"/><line class="cls-20" x1="184.67" y1="675.71" x2="222.39" y2="675.71"/><line class="cls-20" x1="184.67" y1="696.7" x2="222.39" y2="696.7"/><line class="cls-20" x1="184.67" y1="714.89" x2="222.39" y2="714.89"/><line class="cls-20" x1="184.67" y1="732.46" x2="222.39" y2="732.46"/><line class="cls-20" x1="184.67" y1="697.33" x2="184.67" y2="732.46"/><line class="cls-20" x1="222.39" y1="697.33" x2="222.39" y2="732.46"/><line class="cls-20" x1="202.81" y1="676.49" x2="185.1" y2="695.74"/></g><rect class="cls-10" x="278.84" y="673.1" width="61.36" height="12.82"/><rect class="cls-10" x="281.28" y="685.92" width="56.47" height="42.13"/><circle class="cls-13" cx="309.38" cy="708.89" r="12.95"/><g class="cls-36"><line class="cls-11" x1="296.95" y1="706.28" x2="322.14" y2="706.28"/><line class="cls-11" x1="321.88" y1="706.28" x2="321.88" y2="713.29"/><line class="cls-11" x1="297.27" y1="706.28" x2="297.27" y2="715.61"/><line class="cls-11" x1="302.02" y1="708.78" x2="317.07" y2="708.78"/><line class="cls-11" x1="300.95" y1="718.76" x2="318.14" y2="718.76"/><rect class="cls-11" x="302.02" y="710.71" width="15.05" height="4.3"/><line class="cls-11" x1="304.58" y1="715.01" x2="304.58" y2="718.76"/><line class="cls-11" x1="314.25" y1="715.01" x2="314.25" y2="718.76"/><line class="cls-11" x1="299.93" y1="700.01" x2="319.15" y2="700.01"/><line class="cls-11" x1="309.57" y1="695.93" x2="309.52" y2="703.6"/><line class="cls-11" x1="297.59" y1="703.6" x2="321.5" y2="703.6"/></g><path class="cls-9" d="M328.71,687.87a2,2,0,0,1,0,4"/><path class="cls-9" d="M328.71,695.87a2,2,0,1,1,0-4"/><path class="cls-9" d="M328.71,695.87a2,2,0,0,1,0,4"/><path class="cls-9" d="M328.71,703.87a2,2,0,1,1,0-4"/><path class="cls-9" d="M328.71,703.87a2,2,0,0,1,0,4"/><path class="cls-9" d="M328.71,711.87a2,2,0,1,1,0-4"/><path class="cls-9" d="M288.46,699.87a2,2,0,0,1,0,4"/><path class="cls-9" d="M288.46,707.87a2,2,0,1,1,0-4"/><path class="cls-9" d="M288.46,707.87a2,2,0,0,1,0,4"/><path class="cls-9" d="M288.46,715.87a2,2,0,1,1,0-4"/><path class="cls-9" d="M288.46,715.87a2,2,0,0,1,0,4"/><path class="cls-9" d="M288.46,723.87a2,2,0,1,1,0-4"/><circle class="cls-10" cx="424.83" cy="701.87" r="27.38"/><rect class="cls-10" x="416.53" y="662.82" width="16.22" height="4.87"/><line class="cls-10" x1="421.56" y1="674.5" x2="421.56" y2="667.87"/><line class="cls-10" x1="428.16" y1="674.5" x2="428.16" y2="667.87"/><line class="cls-10" x1="424.83" y1="677.82" x2="424.83" y2="703.92"/><line class="cls-10" x1="444.63" y1="703.92" x2="424.83" y2="703.92"/><circle class="cls-9" cx="424.83" cy="703.92" r="1.65"/><path class="cls-10" d="M513.88,697.23a25.95,25.95,0,1,1,51.9,0"/><path class="cls-12" d="M571.16,697.23a31.33,31.33,0,1,1-62.65,0"/><line class="cls-12" x1="571.16" y1="697.23" x2="508.51" y2="697.23"/><line class="cls-12" x1="526.91" y1="731.05" x2="527.33" y2="726.57"/><line class="cls-12" x1="554.07" y1="731.05" x2="553.57" y2="725.72"/><line class="cls-12" x1="526.78" y1="731.96" x2="554.13" y2="731.96"/><circle class="cls-10" cx="772.3" cy="700.38" r="45"/><polygon class="cls-12" points="781.05 713.35 744.45 699.87 744.45 726.82 781.05 713.35"/><polygon class="cls-9" points="781.05 713.35 770.83 709.58 770.83 717.11 781.05 713.35"/><polyline class="cls-10" points="773.08 695.87 775.73 702.89 768.7 705.54"/><line class="cls-10" x1="754.56" y1="693.31" x2="775.13" y2="702.62"/><line class="cls-10" x1="789.51" y1="713.05" x2="806.89" y2="713.05"/><line class="cls-12" x1="800.13" y1="727.55" x2="807.1" y2="713.24"/><g class="cls-37"><circle class="cls-12" cx="708.85" cy="697.87" r="40.68"/><polygon class="cls-12" points="662.75 713.35 626.15 699.87 626.15 726.82 662.75 713.35"/><polygon class="cls-9" points="662.75 713.35 633.94 702.74 633.94 723.95 662.75 713.35"/><polyline class="cls-10" points="638.9 701.99 636.25 694.96 643.28 692.31"/><line class="cls-10" x1="657.42" y1="704.54" x2="636.85" y2="695.23"/><line class="cls-10" x1="671.51" y1="714.05" x2="688.89" y2="714.05"/><line class="cls-12" x1="682.13" y1="728.55" x2="689.1" y2="714.24"/></g><g class="cls-38"><circle class="cls-12" cx="827.15" cy="697.87" r="40.68"/></g><circle class="cls-10" cx="879.67" cy="700.38" r="45"/><polygon class="cls-12" points="888.42 713.35 851.82 699.87 851.82 726.82 888.42 713.35"/><polygon class="cls-9" points="888.42 713.35 865.13 704.77 865.13 721.92 888.42 713.35"/><line class="cls-10" x1="896.87" y1="713.05" x2="914.25" y2="713.05"/><line class="cls-12" x1="907.49" y1="727.55" x2="914.47" y2="713.24"/><g class="cls-39"><circle class="cls-12" cx="934.32" cy="698.15" r="40.68"/></g><g class="cls-40"><line class="cls-41" x1="838.45" y1="662.64" x2="920.49" y2="744.68"/><line class="cls-41" x1="920.49" y1="662.64" x2="838.45" y2="744.68"/></g><circle class="cls-10" cx="966.43" cy="682.54" r="8.01"/><path class="cls-10" d="M973.5,719v2.67a6.77,6.77,0,0,1-6.75,6.76h0a6.78,6.78,0,0,1-6.75-6.76V698.39a6.78,6.78,0,0,1,6.75-6.76h0a6.77,6.77,0,0,1,6.75,6.76v2.49"/><circle class="cls-10" cx="1021.43" cy="682.54" r="8.01"/><path class="cls-10" d="M1014.36,719v2.67a6.78,6.78,0,0,0,6.75,6.76h0a6.78,6.78,0,0,0,6.76-6.76V698.39a6.78,6.78,0,0,0-6.76-6.76h0a6.78,6.78,0,0,0-6.75,6.76v2.49"/><circle class="cls-10" cx="984.43" cy="682.54" r="8.01"/><path class="cls-10" d="M991.5,719.28v2.37a6.77,6.77,0,0,1-6.75,6.76h0a6.78,6.78,0,0,1-6.75-6.76V719"/><path class="cls-10" d="M978,700.71v-2.32a6.78,6.78,0,0,1,6.75-6.76h0a6.77,6.77,0,0,1,6.75,6.76v2.39"/><circle class="cls-10" cx="1002.43" cy="682.54" r="8.01"/><path class="cls-10" d="M1009.5,719.28v2.37a6.77,6.77,0,0,1-6.75,6.76h0a6.78,6.78,0,0,1-6.75-6.76V719"/><path class="cls-10" d="M996,700.71v-2.32a6.78,6.78,0,0,1,6.75-6.76h0a6.77,6.77,0,0,1,6.75,6.76v2.39"/><polygon class="cls-10" points="1022.98 718.98 973.5 718.98 965.19 718.98 965.19 700.38 1022.98 700.38 1022.98 718.98"/><path class="cls-9" d="M996.46,705.87a2,2,0,0,1-4,0"/><path class="cls-9" d="M988.46,705.87a2,2,0,1,1,4,0"/><path class="cls-9" d="M988.46,705.87a2,2,0,0,1-4,0"/><path class="cls-9" d="M980.46,705.87a2,2,0,1,1,4,0"/><path class="cls-9" d="M980.46,705.87a2,2,0,0,1-4,0"/><path class="cls-9" d="M972.46,705.87a2,2,0,1,1,4,0"/><path class="cls-9" d="M1016.9,713.49a2,2,0,0,1-4,0"/><path class="cls-9" d="M1008.9,713.49a2,2,0,0,1,4,0"/><path class="cls-9" d="M1008.9,713.49a2,2,0,0,1-4,0"/><path class="cls-9" d="M1000.9,713.49a2,2,0,0,1,4,0"/><path class="cls-9" d="M1000.9,713.49a2,2,0,0,1-4,0"/><path class="cls-9" d="M992.9,713.49a2,2,0,0,1,4,0"/><path class="cls-9" d="M993.08,713.49a2,2,0,0,1-4,0"/><path class="cls-9" d="M985.08,713.49a2,2,0,0,1,4,0"/><path class="cls-9" d="M985.08,713.49a2,2,0,0,1-4,0"/><path class="cls-9" d="M977.08,713.49a2,2,0,0,1,4,0"/><path class="cls-9" d="M977.08,713.49a2,2,0,0,1-4,0"/><path class="cls-9" d="M969.08,713.49a2,2,0,0,1,4,0"/><rect class="cls-10" x="1081.69" y="670.7" width="49.64" height="63.5"/><rect class="cls-10" x="1084.91" y="674.82" width="43.19" height="55.25"/><line class="cls-10" x1="1084.91" y1="698.92" x2="1127.59" y2="698.92"/><line class="cls-10" x1="1084.91" y1="707.3" x2="1127.59" y2="707.3"/><circle class="cls-10" cx="1123.2" cy="703.11" r="2.55"/></g><g id="レイヤー_9" data-name="レイヤー 9"><text class="cls-42" transform="translate(61.22 203.93)">メール</text><text class="cls-42" transform="translate(181.23 203.93)">送信</text><text class="cls-42" transform="translate(294.65 203.93)">受信　</text><text class="cls-42" transform="translate(395.89 203.93)">ブックマーク</text><text class="cls-42" transform="translate(530.49 203.93)">電話</text><text class="cls-42" transform="translate(625.54 203.93)">電話をかける</text><text class="cls-42" transform="translate(743.82 203.93)">マナーモード</text><text class="cls-42" transform="translate(881.9 203.93)">メモ</text><text class="cls-42" transform="translate(996.15 203.93)">再生</text><text class="cls-42" transform="translate(1112.57 203.93)">停止</text><text class="cls-42" transform="translate(1101.01 345.49)">質問</text><text class="cls-42" transform="translate(977.01 345.49)">メニュー</text><text class="cls-42" transform="translate(866.81 345.49)">名前　</text><text class="cls-42" transform="translate(746.65 345.49)">アドレス</text><text class="cls-42" transform="translate(620.01 345.49)">ズームアウト</text><text class="cls-42" transform="translate(509.22 345.49)">ズームイン</text><text class="cls-42" transform="translate(407.42 345.49)">本棚</text><text/><text/><text class="cls-42" transform="translate(283.09 345.49)">チャージ</text><text class="cls-42" transform="translate(171.96 345.49)">マネー</text><text class="cls-42" transform="translate(60.62 345.49)">電波</text><text class="cls-42" transform="translate(69.58 479.94)">一</text><text class="cls-42" transform="translate(184.83 479.94)">二</text><text class="cls-42" transform="translate(300.07 479.94)">三</text><text class="cls-42" transform="translate(415.32 479.94)">四</text><text class="cls-42" transform="translate(530.56 479.94)">五</text><text class="cls-42" transform="translate(645.81 479.94)">六</text><text class="cls-42" transform="translate(761.05 479.94)">七</text><text class="cls-42" transform="translate(876.3 479.94)">八</text><text class="cls-42" transform="translate(991.54 479.94)">九</text><text class="cls-42" transform="translate(1106.79 479.94)">十</text><text class="cls-42" transform="translate(1103.32 629.74)">衣服</text><text class="cls-42" transform="translate(994.02 629.74)">ラジオ</text><text class="cls-42" transform="translate(872.28 629.74)">美容院</text><text class="cls-42" transform="translate(753.15 629.74)">OFF</text><text class="cls-42" transform="translate(635.46 629.74)">ON</text><text class="cls-42" transform="translate(522.11 629.74)">ゲーム</text><text class="cls-42" transform="translate(406.45 629.74)">ニュース</text><text class="cls-42" transform="translate(293.39 629.74)">トーク</text><text class="cls-42" transform="translate(164.43 629.74)">ライト</text><text class="cls-42" transform="translate(60.62 629.74)">アンサー</text><text class="cls-42" transform="translate(55.7 766.61)">0</text><text class="cls-42" transform="translate(171.88 766.61)">100</text><text class="cls-42" transform="translate(288.06 766.61)">カレンダー</text><text class="cls-42" transform="translate(404.23 766.61)">タイマー</text><text class="cls-42" transform="translate(520.41 766.61)">ご飯</text><text class="cls-42" transform="translate(636.59 766.61)">ボリュー<tspan class="cls-43" x="40.32" y="0">ム</tspan><tspan x="53.64" y="0">UP</tspan></text><text class="cls-42" transform="translate(752.76 766.61)">ボリュー<tspan class="cls-43" x="40.32" y="0">ム</tspan><tspan x="53.64" y="0">DOWN</tspan></text><text class="cls-42" transform="translate(868.94 766.61)">ミュート</text><text class="cls-42" transform="translate(985.12 766.61)">メーデー</text><text class="cls-42" transform="translate(1101.29 766.61)">ログイン　　　　　　　　　　　　</text></g></svg>