<svg xmlns="http://www.w3.org/2000/svg" viewBox="0 0 1190.55 841.89"><defs><style>.cls-1{font-size:19px;}.cls-1,.cls-2,.cls-3,.cls-5,.cls-7,.cls-9{fill:#fff;}.cls-1,.cls-2,.cls-5{font-family:KozGoPro-Medium-90ms-RKSJ-H, Kozuka Gothic Pro;}.cls-2{font-size:16px;}.cls-3,.cls-5{font-size:13px;}.cls-3{font-family:KozGoPro-Bold-90ms-RKSJ-H, Kozuka Gothic Pro;}.cls-4{letter-spacing:-0.5em;}.cls-6{fill:none;stroke:#dcdddd;stroke-miterlimit:10;}.cls-8{fill:#fbfdfe;}.cls-9{font-size:12px;font-family:TBUDRGoStd-Regular-90ms-RKSJ-H, TBUDRGothic Std;}</style></defs><title>hayato</title><g id="テンプレート"><text class="cls-1" transform="translate(960.28 46.3)">www.design-icon.com</text><text class="cls-2" transform="translate(447.3 55.3)">DESIGNER : K017G1045 加藤颯人</text><text class="cls-3" transform="translate(833.83 817.27)">利用規約：個人、商用、すべてフリーでご利用ください<tspan class="cls-4" x="325" y="0">。</tspan></text><text class="cls-5" transform="translate(447.3 30.16)">サイズ：100 x 100 px</text><rect class="cls-6" x="28.83" y="87.3" width="100" height="100"/><rect class="cls-6" x="143.83" y="87.3" width="100" height="100"/><rect class="cls-6" x="258.83" y="87.3" width="100" height="100"/><rect class="cls-6" x="373.83" y="87.3" width="100" height="100"/><rect class="cls-6" x="488.83" y="87.3" width="100" height="100"/><rect class="cls-6" x="603.83" y="87.3" width="100" height="100"/><rect class="cls-6" x="718.83" y="87.3" width="100" height="100"/><rect class="cls-6" x="833.83" y="87.3" width="100" height="100"/><rect class="cls-6" x="948.83" y="87.3" width="100" height="100"/><rect class="cls-6" x="1063.83" y="87.3" width="100" height="100"/><rect class="cls-6" x="28.83" y="228.07" width="100" height="100"/><rect class="cls-6" x="143.83" y="228.07" width="100" height="100"/><rect class="cls-6" x="258.83" y="228.07" width="100" height="100"/><rect class="cls-6" x="373.83" y="228.07" width="100" height="100"/><rect class="cls-6" x="488.83" y="228.07" width="100" height="100"/><rect class="cls-6" x="603.83" y="228.07" width="100" height="100"/><rect class="cls-6" x="718.83" y="228.07" width="100" height="100"/><rect class="cls-6" x="833.83" y="228.07" width="100" height="100"/><rect class="cls-6" x="948.83" y="228.07" width="100" height="100"/><rect class="cls-6" x="1063.83" y="228.07" width="100" height="100"/><rect class="cls-6" x="28.83" y="368.84" width="100" height="100"/><rect class="cls-6" x="143.83" y="368.84" width="100" height="100"/><rect class="cls-6" x="258.83" y="368.84" width="100" height="100"/><rect class="cls-6" x="373.83" y="368.84" width="100" height="100"/><rect class="cls-6" x="488.83" y="368.84" width="100" height="100"/><rect class="cls-6" x="603.83" y="368.84" width="100" height="100"/><rect class="cls-6" x="718.83" y="368.84" width="100" height="100"/><rect class="cls-6" x="833.83" y="368.84" width="100" height="100"/><rect class="cls-6" x="948.83" y="368.84" width="100" height="100"/><rect class="cls-6" x="1063.83" y="368.84" width="100" height="100"/><rect class="cls-6" x="28.83" y="509.61" width="100" height="100"/><rect class="cls-6" x="143.83" y="509.61" width="100" height="100"/><rect class="cls-6" x="258.83" y="509.61" width="100" height="100"/><rect class="cls-6" x="373.83" y="509.61" width="100" height="100"/><rect class="cls-6" x="488.83" y="509.61" width="100" height="100"/><rect class="cls-6" x="603.83" y="509.61" width="100" height="100"/><rect class="cls-6" x="718.83" y="509.61" width="100" height="100"/><rect class="cls-6" x="833.83" y="509.61" width="100" height="100"/><rect class="cls-6" x="948.83" y="509.61" width="100" height="100"/><rect class="cls-6" x="1063.83" y="509.61" width="100" height="100"/><rect class="cls-6" x="28.83" y="650.38" width="100" height="100"/><rect class="cls-6" x="143.83" y="650.38" width="100" height="100"/><rect class="cls-6" x="258.83" y="650.38" width="100" height="100"/><rect class="cls-6" x="373.83" y="650.38" width="100" height="100"/><rect class="cls-6" x="488.83" y="650.38" width="100" height="100"/><rect class="cls-6" x="603.83" y="650.38" width="100" height="100"/><rect class="cls-6" x="718.83" y="650.38" width="100" height="100"/><rect class="cls-6" x="833.83" y="650.38" width="100" height="100"/><rect class="cls-6" x="948.83" y="650.38" width="100" height="100"/><rect class="cls-6" x="1063.83" y="650.38" width="100" height="100"/><circle class="cls-7" cx="197.91" cy="23.75" r="1.59"/><path class="cls-7" d="M29,0V55.41a12,12,0,0,0,12,12H413.83a12,12,0,0,0,12-12V0ZM329.59,23.66a3.13,3.13,0,0,1,.92.42,34.26,34.26,0,0,1,5.28,3.78.64.64,0,0,1,.27.54c0,.87-2.13,3.3-2.82,3.3a1.31,1.31,0,0,1-.75-.45,30.82,30.82,0,0,0-5-3.51c-.25-.15-.54-.33-.54-.63C326.92,26.51,328.71,23.66,329.59,23.66Zm-180,0a3.13,3.13,0,0,1,.92.42,34.26,34.26,0,0,1,5.28,3.78.64.64,0,0,1,.27.54c0,.87-2.13,3.3-2.82,3.3a1.31,1.31,0,0,1-.75-.45,30.82,30.82,0,0,0-5-3.51c-.25-.15-.54-.33-.54-.63C146.92,26.51,148.71,23.66,149.59,23.66Zm-28.15-.54c.54,0,3.6,2.1,4.23,2.55.42.3,2,1.41,2,1.83,0,.66-2,3.18-2.55,3.18-.21,0-.6-.33-.78-.48a55.54,55.54,0,0,0-4.91-3.45c-.19-.12-.58-.36-.58-.6C118.86,25.58,120.84,23.12,121.44,23.12ZM68.27,50.27a16.06,16.06,0,1,1,16-16.05A16.06,16.06,0,0,1,68.27,50.27ZM115.5,32.9c0-.57,1.75-3.33,2.4-3.33A29.79,29.79,0,0,1,122.31,32c.6.36,2.22,1.32,2.22,1.83,0,.66-1.92,3.3-2.58,3.3a1.58,1.58,0,0,1-.75-.4,50.7,50.7,0,0,0-5.07-3.23C115.81,33.32,115.5,33.17,115.5,32.9Zm22.14-1.35c-3.24,7.79-8.4,11.93-16.17,14.84-.81.3-.86.3-1.23.81a.33.33,0,0,1-.27.21c-.3,0-.69-.87-.8-1.14-.43-.84-1.06-2.37-1.44-3.12a1.21,1.21,0,0,1-.16-.42c0-.27.43-.35.64-.42.69-.14,2.81-1,3.59-1.26a18.63,18.63,0,0,0,7.26-4.4c2.43-2.49,4.11-6.18,5.28-9.42.12-.33.3-.78.75-.78s1.35.87,1.71,1.2,1.5,1.47,1.5,1.92A9,9,0,0,1,137.64,31.55Zm28.56,4c-4.83,4.71-9.66,7.41-15.66,10.29a1.3,1.3,0,0,0-.81.78.26.26,0,0,1-.24.18c-.24,0-.42-.27-.53-.48A24.31,24.31,0,0,1,147.54,44a7.79,7.79,0,0,1-.87-1.8c0-.26.33-.42.58-.47a31.94,31.94,0,0,0,7.67-3.31,40.14,40.14,0,0,0,10.83-9.38c.06-.09.12-.15.18-.24.27-.39.51-.72.84-.72.6,0,1.53,1.62,1.8,2.1.06.09.09.21.18.33a4.77,4.77,0,0,1,.51,1.41C169.26,32.66,166.83,35,166.2,35.56Zm29.88-5.72c-.12.51-.21.93-.33,1.44-1.29,6.36-4.74,10.49-10.32,13.61-.9.48-3.63,1.89-4.53,1.89-.66,0-1.2-1-1.5-1.47a7.44,7.44,0,0,1-1-2.25c0-.33.29-.41.56-.48a19.14,19.14,0,0,0,8.67-5c1.86-2,3.24-5.22,3.24-6.84,0-.54-.54-.6-1-.6h-9.53c-1.3,0-2.56,0-3.84,0-1,0-1.17-.12-1.17-1.29V26.93c0-1.26.15-1.44,1-1.44,1.34,0,2.72.06,4.07.06h9.66c.93,0,2.25-.06,2.85-.06s1.41.81,1.86,1.29L195,27c.48.51,1.32,1.38,1.32,1.83A8.32,8.32,0,0,1,196.08,29.84Zm1.83-2.94A3.14,3.14,0,1,1,201,23.75,3.12,3.12,0,0,1,197.91,26.9Zm15.6-.63a1.37,1.37,0,0,0-.33,1.14c0,.36,0,.72,0,1.08a41,41,0,0,1-.57,7.68,16.55,16.55,0,0,1-4.47,8.33c-.33.33-.83.87-1.23.87a9.69,9.69,0,0,1-2.9-1.44c-.31-.18-.81-.48-.81-.87s.24-.48.45-.66c4.41-3.77,4.91-7.8,4.91-13.25,0-1.38-.11-3.45-.11-3.57s.15-.3.38-.3c.63,0,3,.24,3.78.33.57.06,1.05.12,1.05.36A.51.51,0,0,1,213.51,26.27Zm15.21,11.27c-.09.1-.21.19-.27.25-1.41,1.23-2.82,2.42-4.29,3.59-1.23,1-2.52,1.92-3.72,3-.3.28-.75.69-1.11.69a12.09,12.09,0,0,1-2.7-1.16c-.51-.28-1.29-.73-1.29-1.42s.09-1.94.09-3.63V29.42c0-.6,0-1.59,0-2.52,0-.69,0-1.35-.06-1.74a.66.66,0,0,1,0-.24c0-.21.15-.24.33-.24l1.53.15,3,.36c.24.06.42.09.42.33s-.15.3-.27.42a1.54,1.54,0,0,0-.3,1.14c0,.9,0,1.8,0,2.7v6.66c0,1.23.06,1.64.6,1.64,1.08,0,5.79-4.43,6.75-5.39.15-.15.36-.39.63-.39s.93.93,1.32,1.62a5.46,5.46,0,0,1,.78,1.85C230.13,36.31,229.26,37.06,228.72,37.54Zm29.7-8.36a5.76,5.76,0,0,0-.42.45c-1.71,1.89-3.48,3.69-5.31,5.43l-.27.27c-.54.54-1.11,1.05-1.47,1.05s-1.8-1.11-2.31-1.53a.51.51,0,0,0-.3-.09c-.36,0-.45.18-.54.53-.93,3.79-2.31,7-5.19,9.78-.5.48-2.4,2.22-3,2.22s-3.73-2.4-3.73-3.06c0-.18.25-.33.87-.69a13.3,13.3,0,0,0,6.51-9.47,16.92,16.92,0,0,0,.12-2.19c0-.06,0-.09,0-.15,0-.24,0-.33.3-.33.87,0,3.81.12,4.5.21.51.06.6.18.6.33s-.09.18-.12.27a.23.23,0,0,0-.06.12.25.25,0,0,0,.27.24.27.27,0,0,0,.21-.09c.24-.21,2.13-1.86,2.13-2.25,0-.18-.15-.33-.48-.33H239.61c-1.11,0-2.19,0-3.26,0-.43,0-.85,0-1.26,0-.93,0-1-.33-1-2V26.42c0-.66.12-1.05.87-1.05,1.52,0,3.05.06,4.61.06h13.2a16.63,16.63,0,0,0,2.76-.18,3,3,0,0,1,.51-.06c.54,0,.9.39,1.29.78s1.68,1.65,1.68,2.37C259.05,28.67,258.72,28.94,258.42,29.18Zm27.09-4.11a1.91,1.91,0,0,0-1.08.51c-.72.72-2,2.37-4.29,4.65a2,2,0,0,0-.69,1.53v11c0,.81,0,1.62,0,2.43,0,.54,0,1.11,0,1.68,0,.93-.51,1-2,1h-1.23c-1.41,0-1.62-.18-1.62-.87,0-1.35.06-2.7.06-4.05V36.25c0-.44-.15-.75-.54-.75a2,2,0,0,0-.87.46c-.81.56-4.94,3.33-5.63,3.33s-3.51-2.77-3.51-3.54c0-.33.36-.46.63-.54a42.61,42.61,0,0,0,5.84-3.12,35.93,35.93,0,0,0,7.65-6.48A30.94,30.94,0,0,0,281,21.86c.06-.15.18-.36.39-.36.45,0,3,1.83,3.87,2.49.36.27.6.57.6.75S285.69,25,285.51,25.07Zm29.25,20.15h-1.71c-1.14,0-1.26-.12-1.38-.59-.18-.67-.6-.67-1.59-.67H298.29c-.39,0-.81.06-1.23.06-.71,0-.81-.39-.81-1.44V40.46c0-.9.06-1.17.69-1.17.4,0,1,.05,1.44.05.93,0,1.86,0,2.82,0h9.39a.94.94,0,0,0,.93-.94V31.91a.93.93,0,0,0-.93-.93h-9.42c-.87,0-1.73,0-2.58,0-.54,0-1,.06-1.55.06-.66,0-.81-.27-.81-1.62v-1.8c0-1.14.15-1.32.69-1.32s.89.06,1.31.06h13.35c.9,0,1.8,0,2.7,0,1.2,0,1.89.36,1.89,1.65,0,1,0,2,0,3V41.17c0,.87.06,1.75.06,2.64C316.2,45.07,316.17,45.22,314.76,45.22Zm31.44-9.66c-4.83,4.71-9.66,7.41-15.66,10.29a1.3,1.3,0,0,0-.81.78.26.26,0,0,1-.24.18c-.24,0-.42-.27-.53-.48A24.31,24.31,0,0,1,327.54,44a7.79,7.79,0,0,1-.87-1.8c0-.26.33-.42.58-.47a31.94,31.94,0,0,0,7.67-3.31,40.14,40.14,0,0,0,10.83-9.38c.06-.09.12-.15.18-.24.27-.39.51-.72.84-.72.6,0,1.53,1.62,1.8,2.1.06.09.09.21.18.33a4.77,4.77,0,0,1,.51,1.41C349.26,32.66,346.83,35,346.2,35.56Z"/></g><g id="デザイン"><path class="cls-8" d="M342.84,126.61a50.59,50.59,0,0,0-71.47-.09,3,3,0,0,0,0,4.2l11,11,22.7,22.7a3,3,0,0,0,4.2,0l11.33-11.33h0l11.3-11.3,10.95-11a2.94,2.94,0,0,0,.87-2.1A3,3,0,0,0,342.84,126.61ZM307.15,158.1l-6.92-6.92a13.11,13.11,0,0,1,13.81,0ZM318.3,147a19,19,0,0,0-22.33,0l-7.21-7.21a29.16,29.16,0,0,1,36.72.06Zm11.39-11.39a35.07,35.07,0,0,0-45.14-.06l-6.81-6.81a44.68,44.68,0,0,1,58.73.09Z"/><path class="cls-8" d="M225.23,117.36c0-.06,0-.11,0-.16a2.64,2.64,0,0,0-.15-.7s0-.06,0-.09l0,0a2.58,2.58,0,0,0-.38-.69l-.11-.13A3.26,3.26,0,0,0,224,115l-.05,0a2.87,2.87,0,0,0-.7-.35l-.17-.05a3.11,3.11,0,0,0-.81-.12h-61a3.11,3.11,0,0,0-.81.12l-.17.05a3.13,3.13,0,0,0-.71.35l-.05,0a3.2,3.2,0,0,0-.53.51l-.11.13a2.93,2.93,0,0,0-.39.69.05.05,0,0,1,0,0s0,.06,0,.09a3.1,3.1,0,0,0-.14.7s0,.1,0,.16a.28.28,0,0,0,0,.09v42.16a3,3,0,0,0,3,3h61a3,3,0,0,0,3-3V117.45S225.23,117.39,225.23,117.36Zm-10.95,3.06-22.5,19.41-22.49-19.41Zm5,36.22h-55V123.93L189.84,146a3,3,0,0,0,1.94.72,2.94,2.94,0,0,0,1.94-.72l25.58-22.07Z"/><path class="cls-8" d="M455.64,135.41l-31.08-30.13a3.2,3.2,0,0,0-4.27,0l-31.08,30.13a2.65,2.65,0,0,0-.6,3,3,3,0,0,0,2.74,1.69h6.23v29.71a2.88,2.88,0,0,0,3,2.77H444.3a2.88,2.88,0,0,0,3-2.77V140.11h6.23a3,3,0,0,0,2.74-1.69A2.65,2.65,0,0,0,455.64,135.41Zm-27.4,31.64H416.61V141.26h11.63Zm16.06-32.49a2.88,2.88,0,0,0-3,2.77v29.72h-7.15V138.49a2.88,2.88,0,0,0-3-2.78H413.64a2.88,2.88,0,0,0-3,2.78v28.56h-7.15V137.33a2.88,2.88,0,0,0-3-2.77h-2.22l24.09-23.36,24.1,23.36Z"/><path class="cls-7" d="M653.06,110.81a27.72,27.72,0,1,0,27.72,27.72A27.75,27.75,0,0,0,653.06,110.81Zm0,49.5a21.78,21.78,0,1,1,21.78-21.78A21.8,21.8,0,0,1,653.06,160.31Z"/><path class="cls-7" d="M658.65,126.94a12.87,12.87,0,1,0-5.6,24.47,13,13,0,0,0,4.26-.73,12.89,12.89,0,0,0,7.9-16.4A12.75,12.75,0,0,0,658.65,126.94Zm.66,14.6a6.93,6.93,0,1,1-8.53-9.55,7,7,0,0,1,2.29-.39,6.93,6.93,0,0,1,6.24,9.94Z"/><path class="cls-8" d="M768.38,110.81a27.72,27.72,0,1,0,27.72,27.72A27.75,27.75,0,0,0,768.38,110.81Zm0,49.5a21.78,21.78,0,1,1,21.78-21.78A21.81,21.81,0,0,1,768.38,160.31Z"/><path class="cls-8" d="M783.24,127.33a3.61,3.61,0,0,0-1.07-2.58,3.66,3.66,0,0,0-5.18,0l-8.61,8.6-8.6-8.6a3.66,3.66,0,1,0-5.18,5.17l8.61,8.61-8.61,8.61a3.66,3.66,0,1,0,5.18,5.17l8.6-8.61,8.61,8.61a3.66,3.66,0,1,0,5.18-5.17l-8.61-8.61,8.61-8.61A3.64,3.64,0,0,0,783.24,127.33Z"/><path class="cls-8" d="M999,110.81a27.72,27.72,0,1,0,27.72,27.72A27.75,27.75,0,0,0,999,110.81Zm0,49.5a21.78,21.78,0,1,1,21.78-21.78A21.81,21.81,0,0,1,999,160.31Z"/><path class="cls-8" d="M1007.46,129l-12.75,12.76-4.13-4.12a3,3,0,0,0-4.2,4.19l6.23,6.23a3,3,0,0,0,2.1.87,3,3,0,0,0,2.1-.87l14.85-14.86a3,3,0,0,0-4.2-4.2Z"/><path class="cls-7" d="M80.94,161.25a3,3,0,0,1-1.38-.35l-37.5-19.74a3,3,0,0,1,0-5.26l37.5-19.75a3,3,0,0,1,4.35,2.63V128h25.58a3,3,0,0,1,3,3v15.16a3,3,0,0,1-3,3H83.91v9.2a3,3,0,0,1-1.43,2.54A3,3,0,0,1,80.94,161.25ZM49.82,138.53,78,153.36v-7.25a3,3,0,0,1,3-3h25.58v-9.22H80.94a3,3,0,0,1-3-3V123.7Z"/><path class="cls-7" d="M1134,118.93a27.74,27.74,0,1,0,8.11,19.6A27.76,27.76,0,0,0,1134,118.93Zm-35,4.2a21.77,21.77,0,0,1,28.55-1.94L1097,151.67a21.73,21.73,0,0,1,1.94-28.54Zm30.81,30.8a21.81,21.81,0,0,1-28.55,1.94l30.49-30.48a21.76,21.76,0,0,1-1.94,28.54Z"/><path class="cls-7" d="M537.74,110.81a27.72,27.72,0,1,0,27.72,27.72A27.75,27.75,0,0,0,537.74,110.81Zm0,49.5a21.78,21.78,0,1,1,21.78-21.78A21.81,21.81,0,0,1,537.74,160.31Z"/><path class="cls-7" d="M537.74,133.23a3,3,0,0,0-3,3v15.37a3,3,0,1,0,5.94,0V136.2A3,3,0,0,0,537.74,133.23Z"/><path class="cls-7" d="M536.15,129.06a3,3,0,1,0-1.09-4A3,3,0,0,0,536.15,129.06Z"/><path class="cls-7" d="M883.7,110.81a27.72,27.72,0,1,0,27.73,27.72A27.75,27.75,0,0,0,883.7,110.81Zm0,49.5a21.78,21.78,0,1,1,21.79-21.78A21.8,21.8,0,0,1,883.7,160.31Z"/><path class="cls-7" d="M883.7,143.83a3,3,0,0,0,3-3V125.49a3,3,0,1,0-5.94,0v15.37A3,3,0,0,0,883.7,143.83Z"/><path class="cls-7" d="M885.3,148a3,3,0,1,0,1.09,4.05A3,3,0,0,0,885.3,148Z"/><path class="cls-7" d="M96.07,259.63a27.7,27.7,0,1,0,0,39.2A27.54,27.54,0,0,0,96.07,259.63Zm-4.2,35a21.78,21.78,0,1,1,0-30.8A21.82,21.82,0,0,1,91.87,294.63Z"/><path class="cls-7" d="M85.37,268.1,76.46,277l-6.39-6.4a3,3,0,1,0-4.2,4.2l8.49,8.5a3,3,0,0,0,4.2,0l11-11a3,3,0,0,0-4.2-4.2Z"/><path class="cls-7" d="M214.62,242H169a3,3,0,0,0-3,3v68.51a3,3,0,0,0,3,3h45.67a3,3,0,0,0,3-3V245A3,3,0,0,0,214.62,242Zm-3,68.51H171.92V247.94h39.73Z"/><path class="cls-7" d="M179.67,297.28H203.9a2,2,0,0,0,2-2V255.17a2,2,0,0,0-2-2H179.67a2,2,0,0,0-2,2V295.3A2,2,0,0,0,179.67,297.28Zm2-40.13h20.27v36.17H181.65Z"/><path class="cls-7" d="M191.78,298.9a4.77,4.77,0,1,0,4.77,4.77A4.77,4.77,0,0,0,191.78,298.9Zm0,7.11a2.35,2.35,0,1,1,2.35-2.34A2.34,2.34,0,0,1,191.78,306Z"/><path class="cls-7" d="M666.11,285.07H656v-8.74a17.08,17.08,0,1,0-5.94,0V313a3,3,0,0,0,5.94,0v-7.6h5.36a3,3,0,1,0,0-5.94H656V291h10.07a3,3,0,1,0,0-5.94Zm-13-14.4a11.14,11.14,0,1,1,11.13-11.14A11.15,11.15,0,0,1,653.07,270.67Z"/><path class="cls-7" d="M338.82,309l-22.48-22.49c.1-.14.2-.29.31-.43l.06-.08a25.16,25.16,0,1,0-4.59,4.72h0l22.48,22.49a3,3,0,1,0,4.2-4.2ZM296.67,290.1a19,19,0,1,1,12.08-4.32A19.1,19.1,0,0,1,296.67,290.1Z"/><path class="cls-7" d="M304.53,268.09h-4.95v-4.95a3,3,0,0,0-5.94,0v4.95h-5a3,3,0,0,0,0,5.94h5v5a3,3,0,1,0,5.94,0v-5h4.95a3,3,0,0,0,0-5.94Z"/><path class="cls-7" d="M454.38,309l-22.49-22.49a25.08,25.08,0,1,0-4.2,4.2l22.49,22.49a3,3,0,0,0,4.2-4.2ZM425.72,284.5h0a19.08,19.08,0,1,1,5.6-13.49A19,19,0,0,1,425.72,284.5Z"/><path class="cls-7" d="M419.85,268.33H404a3,3,0,0,0,0,5.94h15.84a3,3,0,0,0,0-5.94Z"/><path class="cls-7" d="M569.94,309l-22.49-22.49a25.08,25.08,0,1,0-4.2,4.2l22.49,22.49a3,3,0,0,0,4.2-4.2ZM541.28,284.5h0a19.08,19.08,0,1,1,5.6-13.49A19,19,0,0,1,541.28,284.5Z"/><path class="cls-7" d="M999.67,251.16A27.76,27.76,0,0,0,972,278.88a27.47,27.47,0,0,0,2.4,11.25l-3.59,13.41a3,3,0,0,0,2.87,3.74,2.91,2.91,0,0,0,.77-.1l12.94-3.47a27.72,27.72,0,1,0,12.33-52.55Zm0,49.5a21.83,21.83,0,0,1-10.54-2.72,3,3,0,0,0-1.43-.37,2.86,2.86,0,0,0-.77.1l-9.1,2.44,2.54-9.5a2.92,2.92,0,0,0-.21-2.09,21.77,21.77,0,1,1,19.51,12.14Z"/><path class="cls-7" d="M793.07,246.51H748.46a3,3,0,0,0-3,3v14.3a3,3,0,0,0,5.94,0V252.45H790.1V306H751.43V294.66a3,3,0,1,0-5.94,0V309a3,3,0,0,0,3,3h44.61a3,3,0,0,0,3-3V249.48A3,3,0,0,0,793.07,246.51Z"/><path class="cls-7" d="M754.06,289.34a2,2,0,0,0,2,2,1.91,1.91,0,0,0,1-.27l17.52-10.11a2,2,0,0,0,1-1.72,2,2,0,0,0-1-1.71L757,267.39a2,2,0,0,0-3,1.72v4.25H742.71a2,2,0,0,0-2,2v7.77a2,2,0,0,0,2,2h11.35Z"/><path class="cls-7" d="M903,291.69a3,3,0,0,0-3,3V306H861.33V252.45H900v11.33a3,3,0,0,0,5.94,0v-14.3a3,3,0,0,0-3-3H858.36a3,3,0,0,0-3,3V309a3,3,0,0,0,3,3H903a3,3,0,0,0,3-3v-14.3A3,3,0,0,0,903,291.69Z"/><path class="cls-7" d="M911,277.51l-17.52-10.12a2,2,0,0,0-1-.26,2.06,2.06,0,0,0-1,.26,2,2,0,0,0-1,1.72v4.25H879.19a2,2,0,0,0-2,2v7.77a2,2,0,0,0,2,2h11.35v4.25a2,2,0,0,0,1,1.71,2,2,0,0,0,2,0L911,280.94a2,2,0,0,0,0-3.43Z"/><path class="cls-7" d="M1147.83,271.42a3,3,0,0,0-2.4-2l-19.64-2.85-8.78-17.8a3,3,0,0,0-5.33,0l-8.78,17.8-19.64,2.85a3,3,0,0,0-1.65,5.07l14.22,13.85-3.36,19.56a3,3,0,0,0,4.31,3.13l17.56-9.24,17.57,9.24a3.06,3.06,0,0,0,1.38.34,3,3,0,0,0,2.93-3.47l-3.36-19.56,14.21-13.85A3,3,0,0,0,1147.83,271.42Zm-20.23,13.73a3,3,0,0,0-.86,2.63l2.61,15.17-13.62-7.16a3,3,0,0,0-2.77,0L1099.34,303l2.6-15.17a3,3,0,0,0-.85-2.63l-11-10.74,15.23-2.21a3,3,0,0,0,2.23-1.62l6.81-13.8,6.81,13.8a3,3,0,0,0,2.24,1.62l15.23,2.21Z"/><path class="cls-7" d="M78.83,391.12a27.72,27.72,0,1,0,27.72,27.72A27.76,27.76,0,0,0,78.83,391.12Zm0,49.5a21.78,21.78,0,1,1,21.78-21.78A21.8,21.8,0,0,1,78.83,440.62Z"/><path class="cls-7" d="M89.39,417.13l-15.6-9a2,2,0,0,0-3,1.72v18a2,2,0,0,0,2,2,1.91,1.91,0,0,0,1-.27l15.6-9a2,2,0,0,0,1-1.72A2,2,0,0,0,89.39,417.13Z"/><path class="cls-7" d="M193.83,391.12a27.72,27.72,0,1,0,27.72,27.72A27.76,27.76,0,0,0,193.83,391.12Zm0,49.5a21.78,21.78,0,1,1,21.78-21.78A21.8,21.8,0,0,1,193.83,440.62Z"/><path class="cls-7" d="M187.85,407.76a3,3,0,0,0-3,3V427a3,3,0,1,0,5.94,0V410.73A3,3,0,0,0,187.85,407.76Z"/><path class="cls-7" d="M199.81,407.76a3,3,0,0,0-3,3V427a3,3,0,0,0,5.94,0V410.73A3,3,0,0,0,199.81,407.76Z"/><path class="cls-7" d="M308.83,391.12a27.72,27.72,0,1,0,27.72,27.72A27.76,27.76,0,0,0,308.83,391.12Zm0,49.5a21.78,21.78,0,1,1,21.78-21.78A21.8,21.8,0,0,1,308.83,440.62Z"/><path class="cls-7" d="M319.11,415h-4.24V405a2,2,0,0,0-2-2h-7.76a2,2,0,0,0-2,2v10h-4.24a2,2,0,0,0-1.67,3l10.1,15.76a2,2,0,0,0,1.67.92,2,2,0,0,0,1.67-.92L320.77,418a2,2,0,0,0-1.66-3Z"/><path class="cls-7" d="M423.83,391.12a27.72,27.72,0,1,0,27.72,27.72A27.76,27.76,0,0,0,423.83,391.12Zm0,49.5a21.78,21.78,0,1,1,21.78-21.78A21.8,21.8,0,0,1,423.83,440.62Z"/><path class="cls-7" d="M425.32,403.89a2,2,0,0,0-3.33,0l-10.1,15.77a2,2,0,0,0,1.67,3h4.24v10a2,2,0,0,0,2,2h7.75a2,2,0,0,0,2-2v-10h4.24a2,2,0,0,0,1.67-3Z"/><path class="cls-7" d="M683.53,392.37h-59.4a3,3,0,0,0-3,3v33.21a3,3,0,0,0,3,3h26.73v7.85H633a3,3,0,1,0,0,5.94h41.6a3,3,0,1,0,0-5.94H656.8v-7.85h26.73a3,3,0,0,0,3-3V395.34A3,3,0,0,0,683.53,392.37Zm-3,33.21H627.1V398.31h53.46Z"/><path class="cls-7" d="M909.1,409.09a3,3,0,0,0,0-.31,2,2,0,0,0,0-.26c0-.1-.06-.2-.09-.3a2.5,2.5,0,0,0-.09-.25c0-.09-.09-.18-.14-.27s-.09-.16-.15-.24a1.92,1.92,0,0,0-.18-.22l-.15-.18-.06-.06,0,0-22.3-20.07-.16-.11-.25-.19-.26-.13a1.23,1.23,0,0,0-.26-.12,1.4,1.4,0,0,0-.29-.09l-.26-.07-.33,0-.18,0h-22.3a3,3,0,0,0-3,3v59.48a3,3,0,0,0,3,3h44.61a3,3,0,0,0,3-3V409.16S909.1,409.11,909.1,409.09Zm-22.3-13.32,11.66,10.48-11.66.09Zm16.37,49.84H864.5V392.07h16.36v17.27a3,3,0,0,0,.88,2.1,3.26,3.26,0,0,0,2.11.87l19.32-.15Z"/><path class="cls-7" d="M1001.12,426.17a3,3,0,0,0,3-3V408.57a3,3,0,0,0-5.94,0v11.66h-9a3,3,0,0,0,0,5.94Z"/><path class="cls-7" d="M1026,413.44a27.67,27.67,0,0,0-47.07-13.87l-4.77-2.75a2,2,0,0,0-3,1.72v18a2,2,0,0,0,1,1.71,2,2,0,0,0,1,.26,1.93,1.93,0,0,0,1-.26l15.6-9a2,2,0,0,0,1-1.72,2,2,0,0,0-1-1.71l-5.49-3.17a21.76,21.76,0,1,1-5.55,24.62,3,3,0,0,0-5.48,2.3,27.8,27.8,0,0,0,25.6,17,27.23,27.23,0,0,0,5.37-.53A27.76,27.76,0,0,0,1026,413.44Z"/><path class="cls-7" d="M1142.15,436.83a4.78,4.78,0,0,0-.45-.45L1131.43,428a3.19,3.19,0,0,0-.86-.49c-4.09-1.5-7.21,1.67-9.17,3.81a77.67,77.67,0,0,1-9-10.79,79.5,79.5,0,0,1-7.66-11.6c2.62-1.25,6.55-3.32,6.3-7.67a2.92,2.92,0,0,0-.22-1l-5-12.26a3,3,0,0,0-.3-.56c-.29-.42-3-4.11-7.4-4.39-3-.16-5.82,1.19-8.43,4.1-5.54,6.17-9.6,12.59-3.16,28.48l.09.25c.24.63,6.08,15.65,18.22,26.73a3.17,3.17,0,0,0,.36.28c10.29,8.52,17,11.67,22.93,11.67a22.64,22.64,0,0,0,9.71-2.53c3.54-1.65,5.68-4,6.36-6.88C1145.22,440.87,1142.46,437.23,1142.15,436.83Zm-3.73,7c-.31,1.31-1.85,2.28-3.1,2.86-5.61,2.63-10.46,4.89-26.61-8.57l-.12-.09c-9.95-9.21-15.37-21.67-16.29-23.89a3.38,3.38,0,0,0-.11-.34c-5.8-14.05-2-18.22,1.92-22.64.91-1,2.3-2.22,3.61-2.14a4.51,4.51,0,0,1,2.77,1.66l4.59,11.15a12.45,12.45,0,0,1-3.2,1.91c-.51.24-1,.47-1.45.71a3.62,3.62,0,0,0-1.87,2.49c-.23,1-.91,4.19,9.12,17.12,9.55,13.45,12.76,13.71,13.82,13.8a3.57,3.57,0,0,0,2.93-1.08c.36-.36.72-.76,1.1-1.17a12.11,12.11,0,0,1,2.76-2.51l9.35,7.64A4.55,4.55,0,0,1,1138.42,443.83Z"/><path class="cls-7" d="M538.83,391.12a27.72,27.72,0,1,0,27.72,27.72A27.76,27.76,0,0,0,538.83,391.12Zm0,49.5a21.78,21.78,0,1,1,21.78-21.78A21.8,21.8,0,0,1,538.83,440.62Z"/><path class="cls-7" d="M537.65,409.73v4.33a1,1,0,0,0,.49.86,1,1,0,0,0,.5.13,1,1,0,0,0,.49-.13l11-6.35a1,1,0,0,0,.49-.86,1,1,0,0,0-.49-.86l-11-6.35a1,1,0,0,0-1,0,1,1,0,0,0-.49.86v4.41a16,16,0,0,0-15.24,16,2,2,0,0,0,4,0A12.06,12.06,0,0,1,537.65,409.73Z"/><path class="cls-7" d="M553.27,414a2,2,0,0,0-2,2A12.05,12.05,0,0,1,540,428v-4.33a1,1,0,0,0-.49-.86,1,1,0,0,0-.5-.13,1,1,0,0,0-.49.13l-11,6.36a1,1,0,0,0-.49.85,1,1,0,0,0,.49.86l11,6.35a1,1,0,0,0,1,0,1,1,0,0,0,.49-.86v-4.41a16,16,0,0,0,15.24-16A2,2,0,0,0,553.27,414Z"/><path class="cls-7" d="M193.83,531.89a27.72,27.72,0,1,0,27.72,27.72A27.76,27.76,0,0,0,193.83,531.89Zm0,49.5a21.78,21.78,0,1,1,21.78-21.78A21.8,21.8,0,0,1,193.83,581.39Z"/><path class="cls-7" d="M190.8,551.54a2,2,0,0,0-2,0l-11,6.36a2,2,0,0,0-1,1.71,2,2,0,0,0,1,1.72l11,6.35a2,2,0,0,0,2,0,2,2,0,0,0,1-1.72v-12.7A2,2,0,0,0,190.8,551.54Z"/><path class="cls-7" d="M207.24,551.54a2,2,0,0,0-2,0l-11,6.36a2,2,0,0,0-1,1.71,2,2,0,0,0,1,1.72l11,6.35a2,2,0,0,0,2,0,2,2,0,0,0,1-1.72v-12.7A2,2,0,0,0,207.24,551.54Z"/><path class="cls-7" d="M789,588a2.92,2.92,0,0,1-1.68-.52l-24.34-16.67H748.71a3,3,0,0,1-3-3V550.63a3,3,0,0,1,3-3h15.35l23.22-15.9a3,3,0,0,1,4.65,2.45V585a3,3,0,0,1-1.59,2.63A2.93,2.93,0,0,1,789,588Zm-37.28-23.13h12.18a3.05,3.05,0,0,1,1.68.52l20.45,14V539.84l-19.34,13.25a3.06,3.06,0,0,1-1.92.51H751.68Z"/><path class="cls-7" d="M907.84,543.53a3,3,0,0,0-4.2,4.2,16.82,16.82,0,0,1,0,23.76,3,3,0,1,0,4.2,4.2A22.76,22.76,0,0,0,907.84,543.53Z"/><path class="cls-7" d="M897.78,531.58a3,3,0,0,0-3.07.18l-23.21,15.9H856.14a3,3,0,0,0-3,3v17.19a3,3,0,0,0,3,3h14.24l24.33,16.67a3,3,0,0,0,4.65-2.45v-50.8A3,3,0,0,0,897.78,531.58Zm-4.36,47.8-20.45-14a3,3,0,0,0-1.67-.52H859.11V553.6h13.06a3.05,3.05,0,0,0,1.91-.51l19.34-13.25Z"/><path class="cls-7" d="M1012.12,543.53a3,3,0,0,0,0,4.2,16.82,16.82,0,0,1,0,23.76,3,3,0,1,0,4.2,4.2,22.76,22.76,0,0,0,0-32.16A3,3,0,0,0,1012.12,543.53Z"/><path class="cls-7" d="M1028.22,539.14a3,3,0,1,0-4.2,4.2,23,23,0,0,1,0,32.54,3,3,0,1,0,4.2,4.2A29,29,0,0,0,1028.22,539.14Z"/><path class="cls-7" d="M1005.58,531.58a3,3,0,0,0-3.07.18l-23.21,15.9H963.94a3,3,0,0,0-3,3v17.19a3,3,0,0,0,3,3h14.24l24.33,16.67a3,3,0,0,0,4.65-2.45v-50.8A3,3,0,0,0,1005.58,531.58Zm-4.36,47.8-20.45-14a3,3,0,0,0-1.67-.52H966.91V553.6H980a3,3,0,0,0,1.91-.51l19.34-13.25Z"/><path class="cls-7" d="M423.83,524a26.1,26.1,0,0,0-26.18,25.22,12.49,12.49,0,0,0,.17,2.47c5.43,36,17.14,43.57,26,43.57,8.65,0,15.71-7.75,21-23A127.88,127.88,0,0,0,450,550.57a2.69,2.69,0,0,0,0-.4A26.22,26.22,0,0,0,423.83,524Zm0,65.32c-9,0-16.5-14.4-20.16-38.65a6.11,6.11,0,0,1-.08-1.23,20.25,20.25,0,0,1,40.49.55C442.62,560.41,435.9,589.3,423.83,589.3Z"/><path class="cls-7" d="M429.15,541.11a12.15,12.15,0,0,0-9.37-.53,12.26,12.26,0,0,0,4.06,23.83,12.07,12.07,0,0,0,4-.69,12.25,12.25,0,0,0,1.28-22.61Zm-3.24,17a6.32,6.32,0,0,1-4.17-11.94,6.55,6.55,0,0,1,2.09-.35,6.32,6.32,0,0,1,2.08,12.29Z"/><path class="cls-7" d="M562.2,528.21H515.46a3,3,0,0,0-3,3V588a3,3,0,0,0,5.94,0V567.85H562.2a3,3,0,0,0,3-3v-33.7A3,3,0,0,0,562.2,528.21Zm-3,33.7h-40.8V534.15h40.8Z"/><path class="cls-7" d="M646.61,548.14h27.55a3,3,0,1,0,0-5.94H646.61a3,3,0,1,0,0,5.94Z"/><path class="cls-7" d="M637.17,541.34a4.42,4.42,0,1,0,1.62,6A4.43,4.43,0,0,0,637.17,541.34Z"/><path class="cls-7" d="M674.16,556.64H646.61a3,3,0,0,0,0,5.94h27.55a3,3,0,0,0,0-5.94Z"/><path class="cls-7" d="M637.17,555.78a4.42,4.42,0,1,0,1.62,6A4.43,4.43,0,0,0,637.17,555.78Z"/><path class="cls-7" d="M674.16,571.08H646.61a3,3,0,1,0,0,5.94h27.55a3,3,0,1,0,0-5.94Z"/><path class="cls-7" d="M637.17,570.22a4.42,4.42,0,1,0,1.62,6A4.43,4.43,0,0,0,637.17,570.22Z"/><path class="cls-7" d="M78.83,531.89a27.72,27.72,0,1,0,27.72,27.72A27.76,27.76,0,0,0,78.83,531.89Zm0,49.5a21.78,21.78,0,1,1,21.78-21.78A21.8,21.8,0,0,1,78.83,581.39Z"/><path class="cls-7" d="M94.84,557.9l-11-6.36a2,2,0,0,0-3,1.72V566a2,2,0,0,0,1,1.72,2,2,0,0,0,2,0l11-6.35a2,2,0,0,0,1-1.72A2,2,0,0,0,94.84,557.9Z"/><path class="cls-7" d="M78.4,557.9l-11-6.36a2,2,0,0,0-3,1.72V566a2,2,0,0,0,1,1.72,2.06,2.06,0,0,0,1,.26,2,2,0,0,0,1-.26l11-6.35a2,2,0,0,0,1-1.72A2,2,0,0,0,78.4,557.9Z"/><path class="cls-7" d="M1117.33,592.09a3,3,0,0,1-2.6-1.53L1103.42,570l-20.54-11.32a3,3,0,0,1,.24-5.32l59-26a3,3,0,0,1,3.91,3.91l-26,59a3,3,0,0,1-2.58,1.77ZM1091,556.41l16,8.83a2.9,2.9,0,0,1,1.16,1.17l8.84,16,20.5-46.53Z"/><path class="cls-8" d="M308.83,531.89a27.72,27.72,0,1,0,27.72,27.72A27.76,27.76,0,0,0,308.83,531.89Zm0,49.5a21.78,21.78,0,1,1,21.78-21.78A21.8,21.8,0,0,1,308.83,581.39Z"/><path class="cls-8" d="M325.35,566.9l-11-6.35a1,1,0,0,0-1.49.85v4.21c-2.36-.47-6.13-1.86-7.55-6,1.42-4.09,5.19-5.48,7.55-5.95v4.11a1,1,0,0,0,.5.85,1,1,0,0,0,.49.14,1,1,0,0,0,.5-.14l11-6.35a1,1,0,0,0,.5-.86,1,1,0,0,0-.5-.85l-11-6.36a1,1,0,0,0-1,0,1,1,0,0,0-.5.86v4.57a14.89,14.89,0,0,0-9.41,5.19,10.8,10.8,0,0,0-10.59-5.29,2,2,0,0,0-1.68,2.22,2,2,0,0,0,2.22,1.7c.61-.08,6-.55,7.77,6.16-1.77,6.7-7.14,6.24-7.77,6.16a2,2,0,0,0-.54,3.93,9.18,9.18,0,0,0,1.23.08,10.85,10.85,0,0,0,9.35-5.39,14.84,14.84,0,0,0,9.42,5.2v4.47a1,1,0,0,0,.5.86,1.05,1.05,0,0,0,.49.13,1.09,1.09,0,0,0,.5-.13l11-6.36a1,1,0,0,0,0-1.71Z"/><path class="cls-7" d="M105.51,678.36a2,2,0,0,0-2,0l-4.77,2.75a27.7,27.7,0,1,0-25.27,46.46,27.23,27.23,0,0,0,5.37.53,27.82,27.82,0,0,0,25.59-17,3,3,0,0,0-5.48-2.3,21.84,21.84,0,1,1-5.55-24.62l-5.48,3.16a2,2,0,0,0,0,3.44l15.59,9a2,2,0,0,0,1,.26,1.93,1.93,0,0,0,1-.26,2,2,0,0,0,1-1.72v-18A2,2,0,0,0,105.51,678.36Z"/><path class="cls-7" d="M227,676.54l-16.34-2.87a3,3,0,0,0-1,0l-15.82,2.78L178,673.67a3,3,0,0,0-1,0l-16.33,2.87a3,3,0,0,0-2.46,2.92v44.71a3,3,0,0,0,3.5,2.92l15.81-2.85,15.81,2.85h0a3.05,3.05,0,0,0,.52,0,2.73,2.73,0,0,0,.5,0l15.84-2.71L226,727.09a3,3,0,0,0,3.47-2.92V679.46A3,3,0,0,0,227,676.54ZM177,718.3l-12.84,2.31V682l13.37-2.35L190.86,682v38.65L178,718.3A3.09,3.09,0,0,0,177,718.3Zm46.56,2.34-12.86-2.2a2.8,2.8,0,0,0-1,0l-12.87,2.2V682l13.37-2.35L223.53,682Z"/><path class="cls-7" d="M338.57,724.72H279.09a3,3,0,0,1-3-3V679a3,3,0,0,1,3-3h20.59a3,3,0,0,1,2,.73l6.84,6h30.09a3,3,0,0,1,3,3v36A3,3,0,0,1,338.57,724.72Zm-56.51-5.94H335.6V688.69H307.37a3,3,0,0,1-1.95-.73l-6.85-6H282.06Z"/><path class="cls-7" d="M895.05,723.48H854.79a3,3,0,0,1-3-3V680.25a3,3,0,0,1,3-3h40.26a3,3,0,0,1,3,3v6.58l13.17-9a3,3,0,0,1,4.65,2.45v40.26a3,3,0,0,1-4.65,2.45l-13.17-9v6.58A3,3,0,0,1,895.05,723.48Zm-37.29-5.94h34.32V708.3a3,3,0,0,1,4.65-2.45l13.17,9v-29l-13.17,9a3,3,0,0,1-4.65-2.45v-9.24H857.76Z"/><path class="cls-7" d="M574,674.05a9.8,9.8,0,1,0-15,12.66l-6.56,10.85a9.88,9.88,0,0,0-1.32-.24,9.69,9.69,0,0,0-7.19,2.17c-.12.09-.22.2-.33.29L537,695.86a9.25,9.25,0,0,0,.21-1.21,9.81,9.81,0,1,0-17.14,5.48L513.52,711a9.88,9.88,0,0,0-1.32-.24,9.81,9.81,0,1,0-2,19.53c.33,0,.66,0,1,0a9.81,9.81,0,0,0,7.59-16c-.06-.08-.14-.16-.21-.24l6.56-10.84a9.45,9.45,0,0,0,1.31.24c.34,0,.66,0,1,0A9.79,9.79,0,0,0,534,701l6.65,3.92a12.23,12.23,0,0,0-.21,1.21,9.83,9.83,0,0,0,8.79,10.74c.33,0,.66,0,1,0a9.81,9.81,0,0,0,7.59-16c-.06-.08-.14-.16-.21-.24l6.56-10.84a9.45,9.45,0,0,0,1.31.24c.34,0,.66.05,1,.05a9.81,9.81,0,0,0,7.59-16ZM527.45,689.8l.39,0a3.88,3.88,0,0,1,3.47,4.24,3.87,3.87,0,1,1-3.86-4.26Zm-12.38,31.08a3.88,3.88,0,0,1-4.24,3.47,3.88,3.88,0,0,1,.38-7.73l.4,0a3.92,3.92,0,0,1,2.61,1.41A3.83,3.83,0,0,1,515.07,720.88Zm39-13.41a3.87,3.87,0,1,1-7.7-.77,3.88,3.88,0,0,1,3.84-3.49l.4,0a3.86,3.86,0,0,1,3.46,4.24Zm16.24-26.82a3.87,3.87,0,1,1-3.86-4.26l.39,0a3.88,3.88,0,0,1,3.47,4.24Z"/><path class="cls-7" d="M442.74,711.87a11.64,11.64,0,0,0-8.07,3.26l-18.56-11.37a11.81,11.81,0,0,0,.5-3.38,11.69,11.69,0,0,0-.5-3.37l18.56-11.38a11.64,11.64,0,1,0-3.12-5.06L413,692a11.69,11.69,0,1,0,0,16.86l18.56,11.38a11.69,11.69,0,1,0,11.19-8.32Zm0-40.42A5.75,5.75,0,1,1,437,677.2,5.76,5.76,0,0,1,442.74,671.45Zm-37.82,34.68a5.75,5.75,0,1,1,5.75-5.75A5.76,5.76,0,0,1,404.92,706.13Zm37.82,23.18a5.75,5.75,0,1,1,5.75-5.75A5.75,5.75,0,0,1,442.74,729.31Z"/><path class="cls-7" d="M645.84,715.78a7.78,7.78,0,0,0-.81,14.35,7.67,7.67,0,0,0,3.37.78,7.89,7.89,0,0,0,2.57-.44,7.79,7.79,0,0,0,4.78-9.91A7.8,7.8,0,0,0,645.84,715.78Zm6,9a3.82,3.82,0,1,1-4.7-5.27,4,4,0,0,1,1.26-.21,3.82,3.82,0,0,1,3.44,5.48Z"/><path class="cls-7" d="M667.12,715.78a7.78,7.78,0,0,0-.81,14.35,7.7,7.7,0,0,0,3.37.78,7.84,7.84,0,0,0,2.57-.44,7.79,7.79,0,0,0,4.78-9.91A7.8,7.8,0,0,0,667.12,715.78Zm6,9a3.85,3.85,0,0,1-2.18,1.94,3.79,3.79,0,0,1-2.92-.16,3.82,3.82,0,0,1,.4-7.05,3.9,3.9,0,0,1,1.25-.21,3.83,3.83,0,0,1,3.45,5.48Z"/><path class="cls-7" d="M686.84,679.79a3,3,0,0,0-2.26-1.06l-39-.09h0a3,3,0,0,0,0,5.94l35.49.08-3.74,22.11H644.26L638,672.29a3,3,0,0,0-2.92-2.44H623.09a3,3,0,0,0,0,5.94h9.46l6.32,34.48a3,3,0,0,0,2.92,2.44h38a3,3,0,0,0,2.93-2.48l4.74-28A3,3,0,0,0,686.84,679.79Z"/><path class="cls-7" d="M796.46,720.71l-7.65-11.17V691.89a20,20,0,0,0-17-19.73v-3.43a3,3,0,1,0-5.94,0v3.43a20,20,0,0,0-17,19.73v17.65l-7.65,11.17a3,3,0,0,0,2.45,4.65h15a10,10,0,0,0,.55,2.79,10.23,10.23,0,0,0,9.66,6.85,10.36,10.36,0,0,0,3.36-.57,10.21,10.21,0,0,0,5.84-5.22,10.08,10.08,0,0,0,1-3.85h15a3,3,0,0,0,2.45-4.65Zm-27.63-42.86a14.06,14.06,0,0,1,14,14v15.6H754.8v-15.6A14,14,0,0,1,768.83,677.85Zm3.86,48.78a4.28,4.28,0,0,1-7.9-.44,4,4,0,0,1-.2-.83h8.46A4,4,0,0,1,772.69,726.63Zm-23.4-7.21,4.1-6h30.88l4.1,6Z"/><path class="cls-7" d="M992.71,721.45h.14a3,3,0,0,0,2.83-3.11l-1.33-27.85a2.93,2.93,0,0,0-3.11-2.83,3,3,0,0,0-2.82,3.11l1.33,27.86A3,3,0,0,0,992.71,721.45Z"/><path class="cls-7" d="M1004.81,721.44h.14a3,3,0,0,0,3-2.83l1.33-27.86a3,3,0,0,0-2.83-3.11,2.94,2.94,0,0,0-3.11,2.83L1002,718.33A3,3,0,0,0,1004.81,721.44Z"/><path class="cls-7" d="M1025.84,678.31h-18.61v-5.67a3,3,0,0,0-3-3H993.4a3,3,0,0,0-3,3v5.67H971.82a3.13,3.13,0,0,0,0,6.26H975l4.39,43.84a3,3,0,0,0,3,2.68h33a3,3,0,0,0,3-2.68l4.4-43.84h3.18a3.13,3.13,0,0,0,0-6.26Zm-29.47-2.7h4.92v2.7h-4.92Zm16.25,49.54H985L981,684.57h35.71Z"/><path class="cls-7" d="M1110.51,725.74a18.33,18.33,0,0,1-9.64-2.7,18.34,18.34,0,0,1-6.38,1.61c-9.18.65-17.21-5.44-18-13.52-.58-6.19,3.21-11.9,9.39-14.52.85-7,7.16-12.54,15.32-13.1.49,0,1,0,1.51,0a16.9,16.9,0,0,1,13.8-8.41c8-.55,15.06,3.86,17.29,10.44,5.81,2.09,9.78,6.83,10.3,12.46,0,.15,0,.3,0,.45a14.43,14.43,0,0,1,7,10.83,13.56,13.56,0,0,1-3.29,10.1,17.39,17.39,0,0,1-12.07,5.85,17.93,17.93,0,0,1-13-4.19,17.57,17.57,0,0,1-11,4.7C1111.35,725.73,1110.93,725.74,1110.51,725.74Zm-9.42-9.14a3,3,0,0,1,1.87.66,12.19,12.19,0,0,0,8.41,2.51,11,11,0,0,0,8.74-4.87,3,3,0,0,1,2.45-1.41h.08a3,3,0,0,1,2.45,1.29,11.6,11.6,0,0,0,10.27,4.49,11.41,11.41,0,0,0,8-3.77,7.59,7.59,0,0,0,1.91-5.7h0a8.87,8.87,0,0,0-5.34-7,3,3,0,0,1-1.67-3,7.84,7.84,0,0,0,0-1.36c-.33-3.57-3.37-6.69-7.57-7.77a3,3,0,0,1-2.18-2.31c-.88-4.55-6-7.79-11.52-7.43-4.51.31-8.33,2.93-9.51,6.53a3,3,0,0,1-3.21,2,12.72,12.72,0,0,0-2.6-.09c-5.76.39-10.1,4.41-9.86,9.15a3,3,0,0,1-2.15,3c-4.6,1.33-7.56,5-7.19,9,.46,4.9,5.69,8.52,11.64,8.15a12.41,12.41,0,0,0,5.48-1.7A2.91,2.91,0,0,1,1101.09,716.6Z"/><path class="cls-7" d="M792.89,427.17H789.6l-4.32-35.73a1.46,1.46,0,0,0,0-.2H788a3,3,0,1,0,0-5.94H753.49a3,3,0,0,0,0,5.94h2.8c0,.07,0,.13,0,.2l-4.32,35.73h-3.29a3,3,0,0,0,0,5.94h16.09L767.84,450s0,0,0,.05a1.41,1.41,0,0,0,.06.22c0,.11.06.21.1.32l.09.19a2.75,2.75,0,0,0,.17.29l.12.18.21.25.16.15a2.43,2.43,0,0,0,.25.2l.19.13.3.16.18.09a3.23,3.23,0,0,0,.51.14h0a3.07,3.07,0,0,0,.53.05h0a3,3,0,0,0,.52-.05h0l.08,0a3,3,0,0,0,.45-.13l.2-.09.29-.15.19-.14a1.55,1.55,0,0,0,.24-.19l.17-.17a2.31,2.31,0,0,0,.2-.24l.13-.18a2.69,2.69,0,0,0,.16-.29,1.24,1.24,0,0,0,.1-.2,2.64,2.64,0,0,0,.1-.3,2,2,0,0,0,.06-.23s0,0,0-.05l3.12-16.84h16.09a3,3,0,1,0,0-5.94Zm-13.46-35.93a2.82,2.82,0,0,0,0,.92l4.24,35H757.91l4.24-35a3.13,3.13,0,0,0,0-.92Z"/></g><g id="テキスト"><text class="cls-9" transform="translate(67.49 212.09)">矢印</text><text class="cls-9" transform="translate(176.42 212.09)">メール</text><text class="cls-9" transform="translate(297.34 212.09)">電波</text><text class="cls-9" transform="translate(406.27 212.09)">ホーム</text><text class="cls-9" transform="translate(485.2 212.09)">インフォメーション</text><text class="cls-9" transform="translate(642.12 212.09)">まる</text><text class="cls-9" transform="translate(757.05 212.09)">ばつ</text><text class="cls-9" transform="translate(865.98 212.09)">感嘆符</text><text class="cls-9" transform="translate(956.9 212.09)">チェックマーク</text><text class="cls-9" transform="translate(1083.83 212.09)">禁止マーク</text><text class="cls-9" transform="translate(67.49 352.16)">時計</text><text class="cls-9" transform="translate(176.42 352.16)">スマホ</text><text class="cls-9" transform="translate(297.34 352.16)">拡大</text><text class="cls-9" transform="translate(412.27 352.16)">縮小</text><text class="cls-9" transform="translate(527.2 352.16)">検索</text><text class="cls-9" transform="translate(648.12 352.16)">鍵</text><text class="cls-9" transform="translate(745.05 352.16)">ログイン</text><text class="cls-9" transform="translate(853.98 352.16)">ログアウト</text><text class="cls-9" transform="translate(974.9 352.16)">コメント</text><text class="cls-9" transform="translate(1083.83 352.16)">お気に入り</text><text class="cls-9" transform="translate(67.49 492.24)">再生</text><text class="cls-9" transform="translate(171.22 492.24)">一時停止</text><text class="cls-9" transform="translate(273.34 492.24)">ダウンロード</text><text class="cls-9" transform="translate(388.27 492.24)">アップロード</text><text class="cls-9" transform="translate(515.2 492.24)">リピート</text><text class="cls-9" transform="translate(618.12 492.24)">ディスプレイ</text><text class="cls-9" transform="translate(758.76 492.24)">ピン</text><text class="cls-9" transform="translate(859.98 492.24)">ファイル</text><text class="cls-9" transform="translate(986.9 492.24)">履歴</text><text class="cls-9" transform="translate(1101.83 492.24)">電話</text><text class="cls-9" transform="translate(61.49 632.31)">早送り</text><text class="cls-9" transform="translate(176.42 632.31)">逆再生</text><text class="cls-9" transform="translate(412.27 632.31)">位置</text><text class="cls-9" transform="translate(527.2 632.31)">はた</text><text class="cls-9" transform="translate(636.12 632.31)">リスト</text><text class="cls-9" transform="translate(757.05 632.31)">音量</text><text class="cls-9" transform="translate(853.98 632.31)">音量下げる</text><text class="cls-9" transform="translate(1101.83 632.31)">方角</text><text class="cls-9" transform="translate(285.34 632.31)">スキップ</text><text class="cls-9" transform="translate(968.9 632.31)">音量あげる</text><text class="cls-9" transform="translate(61.49 772.38)">ループ</text><text class="cls-9" transform="translate(188.42 772.38)">本</text><text class="cls-9" transform="translate(412.27 772.38)">共有</text><text class="cls-9" transform="translate(521.2 772.38)">グラフ</text><text class="cls-9" transform="translate(636.12 772.38)">カート</text><text class="cls-9" transform="translate(757.05 772.38)">着信</text><text class="cls-9" transform="translate(871.98 772.38)">放映</text><text class="cls-9" transform="translate(1089.83 772.38)">クラウド</text><text class="cls-9" transform="translate(285.34 772.38)">フォルダ</text><text class="cls-9" transform="translate(980.9 772.38)">ゴミ箱</text></g></svg>