<svg xmlns="http://www.w3.org/2000/svg" viewBox="0 0 1190.55 841.89"><defs><style>.cls-1{font-size:19px;}.cls-1,.cls-11,.cls-12,.cls-13,.cls-14,.cls-15,.cls-16,.cls-17,.cls-2,.cls-3,.cls-5,.cls-7,.cls-8{fill:#fff;}.cls-1,.cls-2,.cls-5{font-family:KozGoPro-Medium-90ms-RKSJ-H, Kozuka Gothic Pro;}.cls-2{font-size:16px;}.cls-3,.cls-5{font-size:13px;}.cls-3{font-family:KozGoPro-Bold-90ms-RKSJ-H, Kozuka Gothic Pro;}.cls-4{letter-spacing:-0.5em;}.cls-6,.cls-9{fill:none;}.cls-6{stroke:#e6e6e6;stroke-miterlimit:10;}.cls-7{font-size:85px;font-family:PMichikusaStd-Regular-90ms-RKSJ-H, A P-OTF Michikusa Std;}.cls-10{fill:#231815;}.cls-11{font-size:75px;font-family:PA1GothicStdN-Light-90ms-RKSJ-H, A P-OTF A1Gothic StdN;}.cls-12{font-size:36px;}.cls-12,.cls-13,.cls-14,.cls-15,.cls-16{font-family:PA1GothicStdN-Regular-90ms-RKSJ-H, A P-OTF A1Gothic StdN;}.cls-13{font-size:48px;}.cls-14{font-size:60px;}.cls-15{font-size:53px;}.cls-16{font-size:26.56px;}.cls-17{font-size:12px;font-family:KozGoPro-Regular-90ms-RKSJ-H, Kozuka Gothic Pro;}.cls-18{letter-spacing:0.25em;}</style></defs><title>ken</title><g id="テンプレート"><text class="cls-1" transform="translate(960.28 46.3)">www.design-icon.com</text><text class="cls-2" transform="translate(447.3 55.3)">DESIGNER : 鈴木健太郎</text><text class="cls-3" transform="translate(833.83 817.27)">利用規約：個人、商用、すべてフリーでご利用ください<tspan class="cls-4" x="325" y="0">。</tspan></text><text class="cls-5" transform="translate(447.3 30.16)">サイズ：100 x 100 px</text><rect class="cls-6" x="28.83" y="87.3" width="100" height="100"/><rect class="cls-6" x="143.83" y="87.3" width="100" height="100"/><rect class="cls-6" x="258.83" y="87.3" width="100" height="100"/><rect class="cls-6" x="373.83" y="87.3" width="100" height="100"/><rect class="cls-6" x="488.83" y="87.3" width="100" height="100"/><rect class="cls-6" x="603.83" y="87.3" width="100" height="100"/><rect class="cls-6" x="718.83" y="87.3" width="100" height="100"/><rect class="cls-6" x="833.83" y="87.3" width="100" height="100"/><rect class="cls-6" x="948.83" y="87.3" width="100" height="100"/><rect class="cls-6" x="1063.83" y="87.3" width="100" height="100"/><rect class="cls-6" x="28.83" y="228.07" width="100" height="100"/><rect class="cls-6" x="143.83" y="228.07" width="100" height="100"/><rect class="cls-6" x="258.83" y="228.07" width="100" height="100"/><rect class="cls-6" x="373.83" y="228.07" width="100" height="100"/><rect class="cls-6" x="488.83" y="228.07" width="100" height="100"/><rect class="cls-6" x="603.83" y="228.07" width="100" height="100"/><rect class="cls-6" x="718.83" y="228.07" width="100" height="100"/><rect class="cls-6" x="833.83" y="228.07" width="100" height="100"/><rect class="cls-6" x="948.83" y="228.07" width="100" height="100"/><rect class="cls-6" x="1063.83" y="228.07" width="100" height="100"/><rect class="cls-6" x="28.83" y="368.84" width="100" height="100"/><rect class="cls-6" x="143.83" y="368.84" width="100" height="100"/><rect class="cls-6" x="258.83" y="368.84" width="100" height="100"/><rect class="cls-6" x="373.83" y="368.84" width="100" height="100"/><rect class="cls-6" x="488.83" y="368.84" width="100" height="100"/><rect class="cls-6" x="603.83" y="368.84" width="100" height="100"/><rect class="cls-6" x="718.83" y="368.84" width="100" height="100"/><rect class="cls-6" x="833.83" y="368.84" width="100" height="100"/><rect class="cls-6" x="948.83" y="368.84" width="100" height="100"/><rect class="cls-6" x="1063.83" y="368.84" width="100" height="100"/><rect class="cls-6" x="28.83" y="509.61" width="100" height="100"/><rect class="cls-6" x="143.83" y="509.61" width="100" height="100"/><rect class="cls-6" x="258.83" y="509.61" width="100" height="100"/><rect class="cls-6" x="373.83" y="509.61" width="100" height="100"/><rect class="cls-6" x="488.83" y="509.61" width="100" height="100"/><rect class="cls-6" x="603.83" y="509.61" width="100" height="100"/><rect class="cls-6" x="718.83" y="509.61" width="100" height="100"/><rect class="cls-6" x="833.83" y="509.61" width="100" height="100"/><rect class="cls-6" x="948.83" y="509.61" width="100" height="100"/><rect class="cls-6" x="1063.83" y="509.61" width="100" height="100"/><rect class="cls-6" x="28.83" y="650.38" width="100" height="100"/><rect class="cls-6" x="143.83" y="650.38" width="100" height="100"/><rect class="cls-6" x="258.83" y="650.38" width="100" height="100"/><rect class="cls-6" x="373.83" y="650.38" width="100" height="100"/><rect class="cls-6" x="488.83" y="650.38" width="100" height="100"/><rect class="cls-6" x="603.83" y="650.38" width="100" height="100"/><rect class="cls-6" x="718.83" y="650.38" width="100" height="100"/><rect class="cls-6" x="833.83" y="650.38" width="100" height="100"/><rect class="cls-6" x="948.83" y="650.38" width="100" height="100"/><rect class="cls-6" x="1063.83" y="650.38" width="100" height="100"/></g><g id="デザイン"><text class="cls-7" transform="translate(413.13 306.62)">i</text><path class="cls-8" d="M399.86,674.63v52.54h51V674.63ZM420.45,679h9.85v1.09h-9.85Zm5.84,46.65a3.09,3.09,0,1,1,3.09-3.09A3.09,3.09,0,0,1,426.29,725.61Zm21-8.54H402.79V684.63H447.3Z"/><rect class="cls-8" x="748.12" y="677.61" width="2.41" height="45.53" rx="1.15"/><rect class="cls-8" x="787.94" y="677.61" width="2.41" height="45.53" rx="1.15"/><rect class="cls-8" x="782.24" y="677.61" width="2.41" height="45.53" rx="1.15"/><rect class="cls-8" x="776.1" y="677.61" width="2.41" height="45.53" rx="1.15"/><rect class="cls-8" x="770.24" y="677.61" width="2.41" height="45.53" rx="1.15"/><rect class="cls-8" x="764.91" y="677.61" width="2.41" height="45.53" rx="1.15"/><rect class="cls-8" x="759.53" y="677.61" width="2.41" height="45.53" rx="1.15"/><rect class="cls-8" x="754.04" y="677.61" width="2.41" height="45.53" rx="1.15"/><rect class="cls-8" x="743.1" y="685.95" width="51.73" height="28.85"/><path class="cls-8" d="M321.28,679v45.61h20.83V679Zm16.34,5.67a1.5,1.5,0,1,1,1.5-1.5A1.5,1.5,0,0,1,337.62,684.63Z"/><rect class="cls-8" x="630.41" y="535.05" width="46.75" height="7.69"/><rect class="cls-8" x="630.55" y="547.81" width="46.75" height="7.69"/><rect class="cls-8" x="635.86" y="563.83" width="35.9" height="7.69" transform="translate(1221.49 -86.13) rotate(90)"/><circle class="cls-8" cx="193.89" cy="542.31" r="5.93"/><path class="cls-8" d="M203.11,444.94H183.76V428.73H167.55V409.38h16.21V393.17h19.35v16.21h16.21v19.35H203.11Zm-15.35-4h11.35V424.73h16.21V413.38H199.11V397.17H187.76v16.21H171.55v11.35h16.21Z"/><path class="cls-8" d="M308.93,307.36l-5.05-23.11-23.58-.4,51.59-33.48Zm-15.46-27.29,13.64.24,3,13.52,13.38-33.21Z"/><path class="cls-8" d="M564.41,457.65H514.33a14,14,0,0,1-14-14V393.57a14,14,0,0,1,14-14h50.08a14,14,0,0,1,14,14v50.08A14,14,0,0,1,564.41,457.65Zm-50.08-74.08a10,10,0,0,0-10,10v50.08a10,10,0,0,0,10,10h50.08a10,10,0,0,0,10-10V393.57a10,10,0,0,0-10-10Z"/><path class="cls-8" d="M564.41,457.65H514.33a14,14,0,0,1-14-14V393.57a14,14,0,0,1,14-14h50.08a14,14,0,0,1,14,14v50.08A14,14,0,0,1,564.41,457.65Zm-50.08-74.08a10,10,0,0,0-10,10v50.08a10,10,0,0,0,10,10h50.08a10,10,0,0,0,10-10V393.57a10,10,0,0,0-10-10Z"/><path class="cls-8" d="M564.41,457.65H514.33a14,14,0,0,1-14-14V393.57a14,14,0,0,1,14-14h50.08a14,14,0,0,1,14,14v50.08A14,14,0,0,1,564.41,457.65Zm-50.08-74.08a10,10,0,0,0-10,10v50.08a10,10,0,0,0,10,10h50.08a10,10,0,0,0,10-10V393.57a10,10,0,0,0-10-10Z"/><path class="cls-8" d="M564.41,457.65H514.33a14,14,0,0,1-14-14V393.57a14,14,0,0,1,14-14h50.08a14,14,0,0,1,14,14v50.08A14,14,0,0,1,564.41,457.65Zm-50.08-74.08a10,10,0,0,0-10,10v50.08a10,10,0,0,0,10,10h50.08a10,10,0,0,0,10-10V393.57a10,10,0,0,0-10-10Z"/><path class="cls-8" d="M1023.94,457.65H973.86a14,14,0,0,1-14-14V393.57a14,14,0,0,1,14-14h50.08a14,14,0,0,1,14,14v50.08A14,14,0,0,1,1023.94,457.65Zm-50.08-74.08a10,10,0,0,0-10,10v50.08a10,10,0,0,0,10,10h50.08a10,10,0,0,0,10-10V393.57a10,10,0,0,0-10-10Z"/><path class="cls-8" d="M1138.87,457.65h-50.08a14,14,0,0,1-14-14V393.57a14,14,0,0,1,14-14h50.08a14,14,0,0,1,14,14v50.08A14,14,0,0,1,1138.87,457.65Zm-50.08-74.08a10,10,0,0,0-10,10v50.08a10,10,0,0,0,10,10h50.08a10,10,0,0,0,10-10V393.57a10,10,0,0,0-10-10Z"/><path class="cls-8" d="M104.23,457.65H54.15a14,14,0,0,1-14-14V393.57a14,14,0,0,1,14-14h50.08a14,14,0,0,1,14,14v50.08A14,14,0,0,1,104.23,457.65ZM54.15,383.57a10,10,0,0,0-10,10v50.08a10,10,0,0,0,10,10h50.08a10,10,0,0,0,10-10V393.57a10,10,0,0,0-10-10Z"/><path class="cls-8" d="M908.87,457.65H858.79a14,14,0,0,1-14-14V393.57a14,14,0,0,1,14-14h50.08a14,14,0,0,1,14,14v50.08A14,14,0,0,1,908.87,457.65Zm-50.08-74.08a10,10,0,0,0-10,10v50.08a10,10,0,0,0,10,10h50.08a10,10,0,0,0,10-10V393.57a10,10,0,0,0-10-10Z"/><path class="cls-8" d="M793.87,457.65H743.79a14,14,0,0,1-14-14V393.57a14,14,0,0,1,14-14h50.08a14,14,0,0,1,14,14v50.08A14,14,0,0,1,793.87,457.65Zm-50.08-74.08a10,10,0,0,0-10,10v50.08a10,10,0,0,0,10,10h50.08a10,10,0,0,0,10-10V393.57a10,10,0,0,0-10-10Z"/><path class="cls-8" d="M678.87,457.65H628.79a14,14,0,0,1-14-14V393.57a14,14,0,0,1,14-14h50.08a14,14,0,0,1,14,14v50.08A14,14,0,0,1,678.87,457.65Zm-50.08-74.08a10,10,0,0,0-10,10v50.08a10,10,0,0,0,10,10h50.08a10,10,0,0,0,10-10V393.57a10,10,0,0,0-10-10Z"/><path class="cls-8" d="M564.41,457.65H514.33a14,14,0,0,1-14-14V393.57a14,14,0,0,1,14-14h50.08a14,14,0,0,1,14,14v50.08A14,14,0,0,1,564.41,457.65Zm-50.08-74.08a10,10,0,0,0-10,10v50.08a10,10,0,0,0,10,10h50.08a10,10,0,0,0,10-10V393.57a10,10,0,0,0-10-10Z"/><path class="cls-8" d="M449.87,457.65H399.79a14,14,0,0,1-14-14V393.57a14,14,0,0,1,14-14h50.08a14,14,0,0,1,14,14v50.08A14,14,0,0,1,449.87,457.65Zm-50.08-74.08a10,10,0,0,0-10,10v50.08a10,10,0,0,0,10,10h50.08a10,10,0,0,0,10-10V393.57a10,10,0,0,0-10-10Z"/><path class="cls-8" d="M334.54,457.65H284.46a14,14,0,0,1-14-14V393.57a14,14,0,0,1,14-14h50.08a14,14,0,0,1,14,14v50.08A14,14,0,0,1,334.54,457.65Zm-50.08-74.08a10,10,0,0,0-10,10v50.08a10,10,0,0,0,10,10h50.08a10,10,0,0,0,10-10V393.57a10,10,0,0,0-10-10Z"/><path class="cls-8" d="M218.44,457.65H168.36a14,14,0,0,1-14-14V393.57a14,14,0,0,1,14-14h50.08a14,14,0,0,1,14,14v50.08A14,14,0,0,1,218.44,457.65Zm-50.08-74.08a10,10,0,0,0-10,10v50.08a10,10,0,0,0,10,10h50.08a10,10,0,0,0,10-10V393.57a10,10,0,0,0-10-10Z"/><path class="cls-8" d="M1023.94,739.65H973.86a14,14,0,0,1-14-14V675.58a14,14,0,0,1,14-14h50.08a14,14,0,0,1,14,14v50.07A14,14,0,0,1,1023.94,739.65Zm-50.08-74.07a10,10,0,0,0-10,10v50.07a10,10,0,0,0,10,10h50.08a10,10,0,0,0,10-10V675.58a10,10,0,0,0-10-10Z"/><path class="cls-8" d="M1138.87,739.65h-50.08a14,14,0,0,1-14-14V675.58a14,14,0,0,1,14-14h50.08a14,14,0,0,1,14,14v50.07A14,14,0,0,1,1138.87,739.65Zm-50.08-74.07a10,10,0,0,0-10,10v50.07a10,10,0,0,0,10,10h50.08a10,10,0,0,0,10-10V675.58a10,10,0,0,0-10-10Z"/><path class="cls-8" d="M104.23,739.65H54.15a14,14,0,0,1-14-14V675.58a14,14,0,0,1,14-14h50.08a14,14,0,0,1,14,14v50.07A14,14,0,0,1,104.23,739.65ZM54.15,665.58a10,10,0,0,0-10,10v50.07a10,10,0,0,0,10,10h50.08a10,10,0,0,0,10-10V675.58a10,10,0,0,0-10-10Z"/><path class="cls-8" d="M908.87,739.65H858.79a14,14,0,0,1-14-14V675.58a14,14,0,0,1,14-14h50.08a14,14,0,0,1,14,14v50.07A14,14,0,0,1,908.87,739.65Zm-50.08-74.07a10,10,0,0,0-10,10v50.07a10,10,0,0,0,10,10h50.08a10,10,0,0,0,10-10V675.58a10,10,0,0,0-10-10Z"/><path class="cls-8" d="M793.87,739.65H743.79a14,14,0,0,1-14-14V675.58a14,14,0,0,1,14-14h50.08a14,14,0,0,1,14,14v50.07A14,14,0,0,1,793.87,739.65Zm-50.08-74.07a10,10,0,0,0-10,10v50.07a10,10,0,0,0,10,10h50.08a10,10,0,0,0,10-10V675.58a10,10,0,0,0-10-10Z"/><path class="cls-8" d="M449.87,739.65H399.79a14,14,0,0,1-14-14V675.58a14,14,0,0,1,14-14h50.08a14,14,0,0,1,14,14v50.07A14,14,0,0,1,449.87,739.65Zm-50.08-74.07a10,10,0,0,0-10,10v50.07a10,10,0,0,0,10,10h50.08a10,10,0,0,0,10-10V675.58a10,10,0,0,0-10-10Z"/><path class="cls-8" d="M334.54,739.65H284.46a14,14,0,0,1-14-14V675.58a14,14,0,0,1,14-14h50.08a14,14,0,0,1,14,14v50.07A14,14,0,0,1,334.54,739.65Zm-50.08-74.07a10,10,0,0,0-10,10v50.07a10,10,0,0,0,10,10h50.08a10,10,0,0,0,10-10V675.58a10,10,0,0,0-10-10Z"/><path class="cls-8" d="M218.44,739.65H168.36a14,14,0,0,1-14-14V675.58a14,14,0,0,1,14-14h50.08a14,14,0,0,1,14,14v50.07A14,14,0,0,1,218.44,739.65Zm-50.08-74.07a10,10,0,0,0-10,10v50.07a10,10,0,0,0,10,10h50.08a10,10,0,0,0,10-10V675.58a10,10,0,0,0-10-10Z"/><path class="cls-8" d="M564.41,739.65H514.33a14,14,0,0,1-14-14V675.58a14,14,0,0,1,14-14h50.08a14,14,0,0,1,14,14v50.07A14,14,0,0,1,564.41,739.65Zm-50.08-74.07a10,10,0,0,0-10,10v50.07a10,10,0,0,0,10,10h50.08a10,10,0,0,0,10-10V675.58a10,10,0,0,0-10-10Z"/><path class="cls-8" d="M564.41,739.65H514.33a14,14,0,0,1-14-14V675.58a14,14,0,0,1,14-14h50.08a14,14,0,0,1,14,14v50.07A14,14,0,0,1,564.41,739.65Zm-50.08-74.07a10,10,0,0,0-10,10v50.07a10,10,0,0,0,10,10h50.08a10,10,0,0,0,10-10V675.58a10,10,0,0,0-10-10Z"/><path class="cls-8" d="M564.41,739.65H514.33a14,14,0,0,1-14-14V675.58a14,14,0,0,1,14-14h50.08a14,14,0,0,1,14,14v50.07A14,14,0,0,1,564.41,739.65Zm-50.08-74.07a10,10,0,0,0-10,10v50.07a10,10,0,0,0,10,10h50.08a10,10,0,0,0,10-10V675.58a10,10,0,0,0-10-10Z"/><path class="cls-8" d="M678.87,739.65H628.79a14,14,0,0,1-14-14V675.58a14,14,0,0,1,14-14h50.08a14,14,0,0,1,14,14v50.07A14,14,0,0,1,678.87,739.65Zm-50.08-74.07a10,10,0,0,0-10,10v50.07a10,10,0,0,0,10,10h50.08a10,10,0,0,0,10-10V675.58a10,10,0,0,0-10-10Z"/><path class="cls-8" d="M1023.94,598.88H973.86a14,14,0,0,1-14-14V534.81a14,14,0,0,1,14-14h50.08a14,14,0,0,1,14,14v50.07A14,14,0,0,1,1023.94,598.88Zm-50.08-74.07a10,10,0,0,0-10,10v50.07a10,10,0,0,0,10,10h50.08a10,10,0,0,0,10-10V534.81a10,10,0,0,0-10-10Z"/><path class="cls-8" d="M1138.87,598.88h-50.08a14,14,0,0,1-14-14V534.81a14,14,0,0,1,14-14h50.08a14,14,0,0,1,14,14v50.07A14,14,0,0,1,1138.87,598.88Zm-50.08-74.07a10,10,0,0,0-10,10v50.07a10,10,0,0,0,10,10h50.08a10,10,0,0,0,10-10V534.81a10,10,0,0,0-10-10Z"/><path class="cls-8" d="M104.23,598.88H54.15a14,14,0,0,1-14-14V534.81a14,14,0,0,1,14-14h50.08a14,14,0,0,1,14,14v50.07A14,14,0,0,1,104.23,598.88ZM54.15,524.81a10,10,0,0,0-10,10v50.07a10,10,0,0,0,10,10h50.08a10,10,0,0,0,10-10V534.81a10,10,0,0,0-10-10Z"/><path class="cls-8" d="M908.87,598.88H858.79a14,14,0,0,1-14-14V534.81a14,14,0,0,1,14-14h50.08a14,14,0,0,1,14,14v50.07A14,14,0,0,1,908.87,598.88Zm-50.08-74.07a10,10,0,0,0-10,10v50.07a10,10,0,0,0,10,10h50.08a10,10,0,0,0,10-10V534.81a10,10,0,0,0-10-10Z"/><path class="cls-8" d="M793.87,598.88H743.79a14,14,0,0,1-14-14V534.81a14,14,0,0,1,14-14h50.08a14,14,0,0,1,14,14v50.07A14,14,0,0,1,793.87,598.88Zm-50.08-74.07a10,10,0,0,0-10,10v50.07a10,10,0,0,0,10,10h50.08a10,10,0,0,0,10-10V534.81a10,10,0,0,0-10-10Z"/><path class="cls-8" d="M678.87,317.11H628.79a14,14,0,0,1-14-14V253a14,14,0,0,1,14-14h50.08a14,14,0,0,1,14,14v50.08A14,14,0,0,1,678.87,317.11ZM628.79,243a10,10,0,0,0-10,10v50.08a10,10,0,0,0,10,10h50.08a10,10,0,0,0,10-10V253a10,10,0,0,0-10-10Z"/><path class="cls-8" d="M564.41,457.65H514.33a14,14,0,0,1-14-14V393.57a14,14,0,0,1,14-14h50.08a14,14,0,0,1,14,14v50.08A14,14,0,0,1,564.41,457.65Zm-50.08-74.08a10,10,0,0,0-10,10v50.08a10,10,0,0,0,10,10h50.08a10,10,0,0,0,10-10V393.57a10,10,0,0,0-10-10Z"/><path class="cls-8" d="M449.87,598.88H399.79a14,14,0,0,1-14-14V534.81a14,14,0,0,1,14-14h50.08a14,14,0,0,1,14,14v50.07A14,14,0,0,1,449.87,598.88Zm-50.08-74.07a10,10,0,0,0-10,10v50.07a10,10,0,0,0,10,10h50.08a10,10,0,0,0,10-10V534.81a10,10,0,0,0-10-10Z"/><path class="cls-8" d="M334.54,598.88H284.46a14,14,0,0,1-14-14V534.81a14,14,0,0,1,14-14h50.08a14,14,0,0,1,14,14v50.07A14,14,0,0,1,334.54,598.88Zm-50.08-74.07a10,10,0,0,0-10,10v50.07a10,10,0,0,0,10,10h50.08a10,10,0,0,0,10-10V534.81a10,10,0,0,0-10-10Z"/><path class="cls-8" d="M218.44,598.88H168.36a14,14,0,0,1-14-14V534.81a14,14,0,0,1,14-14h50.08a14,14,0,0,1,14,14v50.07A14,14,0,0,1,218.44,598.88Zm-50.08-74.07a10,10,0,0,0-10,10v50.07a10,10,0,0,0,10,10h50.08a10,10,0,0,0,10-10V534.81a10,10,0,0,0-10-10Z"/><path class="cls-8" d="M564.41,598.88H514.33a14,14,0,0,1-14-14V534.81a14,14,0,0,1,14-14h50.08a14,14,0,0,1,14,14v50.07A14,14,0,0,1,564.41,598.88Zm-50.08-74.07a10,10,0,0,0-10,10v50.07a10,10,0,0,0,10,10h50.08a10,10,0,0,0,10-10V534.81a10,10,0,0,0-10-10Z"/><path class="cls-8" d="M564.41,598.88H514.33a14,14,0,0,1-14-14V534.81a14,14,0,0,1,14-14h50.08a14,14,0,0,1,14,14v50.07A14,14,0,0,1,564.41,598.88Zm-50.08-74.07a10,10,0,0,0-10,10v50.07a10,10,0,0,0,10,10h50.08a10,10,0,0,0,10-10V534.81a10,10,0,0,0-10-10Z"/><path class="cls-8" d="M1023.94,457.65H973.86a14,14,0,0,1-14-14V393.57a14,14,0,0,1,14-14h50.08a14,14,0,0,1,14,14v50.08A14,14,0,0,1,1023.94,457.65Zm-50.08-74.08a10,10,0,0,0-10,10v50.08a10,10,0,0,0,10,10h50.08a10,10,0,0,0,10-10V393.57a10,10,0,0,0-10-10Z"/><path class="cls-8" d="M1138.87,457.65h-50.08a14,14,0,0,1-14-14V393.57a14,14,0,0,1,14-14h50.08a14,14,0,0,1,14,14v50.08A14,14,0,0,1,1138.87,457.65Zm-50.08-74.08a10,10,0,0,0-10,10v50.08a10,10,0,0,0,10,10h50.08a10,10,0,0,0,10-10V393.57a10,10,0,0,0-10-10Z"/><path class="cls-8" d="M104.23,457.65H54.15a14,14,0,0,1-14-14V393.57a14,14,0,0,1,14-14h50.08a14,14,0,0,1,14,14v50.08A14,14,0,0,1,104.23,457.65ZM54.15,383.57a10,10,0,0,0-10,10v50.08a10,10,0,0,0,10,10h50.08a10,10,0,0,0,10-10V393.57a10,10,0,0,0-10-10Z"/><path class="cls-8" d="M908.87,457.65H858.79a14,14,0,0,1-14-14V393.57a14,14,0,0,1,14-14h50.08a14,14,0,0,1,14,14v50.08A14,14,0,0,1,908.87,457.65Zm-50.08-74.08a10,10,0,0,0-10,10v50.08a10,10,0,0,0,10,10h50.08a10,10,0,0,0,10-10V393.57a10,10,0,0,0-10-10Z"/><path class="cls-8" d="M793.87,457.65H743.79a14,14,0,0,1-14-14V393.57a14,14,0,0,1,14-14h50.08a14,14,0,0,1,14,14v50.08A14,14,0,0,1,793.87,457.65Zm-50.08-74.08a10,10,0,0,0-10,10v50.08a10,10,0,0,0,10,10h50.08a10,10,0,0,0,10-10V393.57a10,10,0,0,0-10-10Z"/><path class="cls-8" d="M678.87,457.65H628.79a14,14,0,0,1-14-14V393.57a14,14,0,0,1,14-14h50.08a14,14,0,0,1,14,14v50.08A14,14,0,0,1,678.87,457.65Zm-50.08-74.08a10,10,0,0,0-10,10v50.08a10,10,0,0,0,10,10h50.08a10,10,0,0,0,10-10V393.57a10,10,0,0,0-10-10Z"/><path class="cls-8" d="M564.41,598.88H514.33a14,14,0,0,1-14-14V534.81a14,14,0,0,1,14-14h50.08a14,14,0,0,1,14,14v50.07A14,14,0,0,1,564.41,598.88Zm-50.08-74.07a10,10,0,0,0-10,10v50.07a10,10,0,0,0,10,10h50.08a10,10,0,0,0,10-10V534.81a10,10,0,0,0-10-10Z"/><path class="cls-8" d="M449.87,457.65H399.79a14,14,0,0,1-14-14V393.57a14,14,0,0,1,14-14h50.08a14,14,0,0,1,14,14v50.08A14,14,0,0,1,449.87,457.65Zm-50.08-74.08a10,10,0,0,0-10,10v50.08a10,10,0,0,0,10,10h50.08a10,10,0,0,0,10-10V393.57a10,10,0,0,0-10-10Z"/><path class="cls-8" d="M334.54,457.65H284.46a14,14,0,0,1-14-14V393.57a14,14,0,0,1,14-14h50.08a14,14,0,0,1,14,14v50.08A14,14,0,0,1,334.54,457.65Zm-50.08-74.08a10,10,0,0,0-10,10v50.08a10,10,0,0,0,10,10h50.08a10,10,0,0,0,10-10V393.57a10,10,0,0,0-10-10Z"/><path class="cls-8" d="M218.44,457.65H168.36a14,14,0,0,1-14-14V393.57a14,14,0,0,1,14-14h50.08a14,14,0,0,1,14,14v50.08A14,14,0,0,1,218.44,457.65Zm-50.08-74.08a10,10,0,0,0-10,10v50.08a10,10,0,0,0,10,10h50.08a10,10,0,0,0,10-10V393.57a10,10,0,0,0-10-10Z"/><path class="cls-8" d="M1023.94,175.88H973.86a14,14,0,0,1-14-14V111.8a14,14,0,0,1,14-14h50.08a14,14,0,0,1,14,14v50.08A14,14,0,0,1,1023.94,175.88ZM973.86,101.8a10,10,0,0,0-10,10v50.08a10,10,0,0,0,10,10h50.08a10,10,0,0,0,10-10V111.8a10,10,0,0,0-10-10Z"/><path class="cls-8" d="M1138.87,175.88h-50.08a14,14,0,0,1-14-14V111.8a14,14,0,0,1,14-14h50.08a14,14,0,0,1,14,14v50.08A14,14,0,0,1,1138.87,175.88Zm-50.08-74.08a10,10,0,0,0-10,10v50.08a10,10,0,0,0,10,10h50.08a10,10,0,0,0,10-10V111.8a10,10,0,0,0-10-10Z"/><path class="cls-8" d="M104.23,175.88H54.15a14,14,0,0,1-14-14V111.8a14,14,0,0,1,14-14h50.08a14,14,0,0,1,14,14v50.08A14,14,0,0,1,104.23,175.88ZM54.15,101.8a10,10,0,0,0-10,10v50.08a10,10,0,0,0,10,10h50.08a10,10,0,0,0,10-10V111.8a10,10,0,0,0-10-10Z"/><path class="cls-8" d="M908.87,175.88H858.79a14,14,0,0,1-14-14V111.8a14,14,0,0,1,14-14h50.08a14,14,0,0,1,14,14v50.08A14,14,0,0,1,908.87,175.88ZM858.79,101.8a10,10,0,0,0-10,10v50.08a10,10,0,0,0,10,10h50.08a10,10,0,0,0,10-10V111.8a10,10,0,0,0-10-10Z"/><path class="cls-8" d="M793.87,175.88H743.79a14,14,0,0,1-14-14V111.8a14,14,0,0,1,14-14h50.08a14,14,0,0,1,14,14v50.08A14,14,0,0,1,793.87,175.88ZM743.79,101.8a10,10,0,0,0-10,10v50.08a10,10,0,0,0,10,10h50.08a10,10,0,0,0,10-10V111.8a10,10,0,0,0-10-10Z"/><path class="cls-8" d="M678.87,175.88H628.79a14,14,0,0,1-14-14V111.8a14,14,0,0,1,14-14h50.08a14,14,0,0,1,14,14v50.08A14,14,0,0,1,678.87,175.88ZM628.79,101.8a10,10,0,0,0-10,10v50.08a10,10,0,0,0,10,10h50.08a10,10,0,0,0,10-10V111.8a10,10,0,0,0-10-10Z"/><path class="cls-8" d="M449.87,175.88H399.79a14,14,0,0,1-14-14V111.8a14,14,0,0,1,14-14h50.08a14,14,0,0,1,14,14v50.08A14,14,0,0,1,449.87,175.88ZM399.79,101.8a10,10,0,0,0-10,10v50.08a10,10,0,0,0,10,10h50.08a10,10,0,0,0,10-10V111.8a10,10,0,0,0-10-10Z"/><path class="cls-8" d="M334.54,175.88H284.46a14,14,0,0,1-14-14V111.8a14,14,0,0,1,14-14h50.08a14,14,0,0,1,14,14v50.08A14,14,0,0,1,334.54,175.88ZM284.46,101.8a10,10,0,0,0-10,10v50.08a10,10,0,0,0,10,10h50.08a10,10,0,0,0,10-10V111.8a10,10,0,0,0-10-10Z"/><path class="cls-8" d="M218.44,175.88H168.36a14,14,0,0,1-14-14V111.8a14,14,0,0,1,14-14h50.08a14,14,0,0,1,14,14v50.08A14,14,0,0,1,218.44,175.88ZM168.36,101.8a10,10,0,0,0-10,10v50.08a10,10,0,0,0,10,10h50.08a10,10,0,0,0,10-10V111.8a10,10,0,0,0-10-10Z"/><path class="cls-8" d="M1023.94,317.11H973.86a14,14,0,0,1-14-14V253a14,14,0,0,1,14-14h50.08a14,14,0,0,1,14,14v50.08A14,14,0,0,1,1023.94,317.11ZM973.86,243a10,10,0,0,0-10,10v50.08a10,10,0,0,0,10,10h50.08a10,10,0,0,0,10-10V253a10,10,0,0,0-10-10Z"/><path class="cls-8" d="M1138.87,317.11h-50.08a14,14,0,0,1-14-14V253a14,14,0,0,1,14-14h50.08a14,14,0,0,1,14,14v50.08A14,14,0,0,1,1138.87,317.11ZM1088.79,243a10,10,0,0,0-10,10v50.08a10,10,0,0,0,10,10h50.08a10,10,0,0,0,10-10V253a10,10,0,0,0-10-10Z"/><path class="cls-8" d="M104.23,317.11H54.15a14,14,0,0,1-14-14V253a14,14,0,0,1,14-14h50.08a14,14,0,0,1,14,14v50.08A14,14,0,0,1,104.23,317.11ZM54.15,243a10,10,0,0,0-10,10v50.08a10,10,0,0,0,10,10h50.08a10,10,0,0,0,10-10V253a10,10,0,0,0-10-10Z"/><path class="cls-8" d="M908.87,317.11H858.79a14,14,0,0,1-14-14V253a14,14,0,0,1,14-14h50.08a14,14,0,0,1,14,14v50.08A14,14,0,0,1,908.87,317.11ZM858.79,243a10,10,0,0,0-10,10v50.08a10,10,0,0,0,10,10h50.08a10,10,0,0,0,10-10V253a10,10,0,0,0-10-10Z"/><path class="cls-8" d="M793.87,317.11H743.79a14,14,0,0,1-14-14V253a14,14,0,0,1,14-14h50.08a14,14,0,0,1,14,14v50.08A14,14,0,0,1,793.87,317.11ZM743.79,243a10,10,0,0,0-10,10v50.08a10,10,0,0,0,10,10h50.08a10,10,0,0,0,10-10V253a10,10,0,0,0-10-10Z"/><path class="cls-8" d="M678.87,598.88H628.79a14,14,0,0,1-14-14V534.81a14,14,0,0,1,14-14h50.08a14,14,0,0,1,14,14v50.07A14,14,0,0,1,678.87,598.88Zm-50.08-74.07a10,10,0,0,0-10,10v50.07a10,10,0,0,0,10,10h50.08a10,10,0,0,0,10-10V534.81a10,10,0,0,0-10-10Z"/><path class="cls-8" d="M564.41,175.88H514.33a14,14,0,0,1-14-14V111.8a14,14,0,0,1,14-14h50.08a14,14,0,0,1,14,14v50.08A14,14,0,0,1,564.41,175.88ZM514.33,101.8a10,10,0,0,0-10,10v50.08a10,10,0,0,0,10,10h50.08a10,10,0,0,0,10-10V111.8a10,10,0,0,0-10-10Z"/><path class="cls-8" d="M449.87,317.11H399.79a14,14,0,0,1-14-14V253a14,14,0,0,1,14-14h50.08a14,14,0,0,1,14,14v50.08A14,14,0,0,1,449.87,317.11ZM399.79,243a10,10,0,0,0-10,10v50.08a10,10,0,0,0,10,10h50.08a10,10,0,0,0,10-10V253a10,10,0,0,0-10-10Z"/><path class="cls-8" d="M334.54,317.11H284.46a14,14,0,0,1-14-14V253a14,14,0,0,1,14-14h50.08a14,14,0,0,1,14,14v50.08A14,14,0,0,1,334.54,317.11ZM284.46,243a10,10,0,0,0-10,10v50.08a10,10,0,0,0,10,10h50.08a10,10,0,0,0,10-10V253a10,10,0,0,0-10-10Z"/><path class="cls-8" d="M218.44,317.11H168.36a14,14,0,0,1-14-14V253a14,14,0,0,1,14-14h50.08a14,14,0,0,1,14,14v50.08A14,14,0,0,1,218.44,317.11ZM168.36,243a10,10,0,0,0-10,10v50.08a10,10,0,0,0,10,10h50.08a10,10,0,0,0,10-10V253a10,10,0,0,0-10-10Z"/><path class="cls-8" d="M564.41,317.11H514.33a14,14,0,0,1-14-14V253a14,14,0,0,1,14-14h50.08a14,14,0,0,1,14,14v50.08A14,14,0,0,1,564.41,317.11ZM514.33,243a10,10,0,0,0-10,10v50.08a10,10,0,0,0,10,10h50.08a10,10,0,0,0,10-10V253a10,10,0,0,0-10-10Z"/><path class="cls-8" d="M564.41,317.11H514.33a14,14,0,0,1-14-14V253a14,14,0,0,1,14-14h50.08a14,14,0,0,1,14,14v50.08A14,14,0,0,1,564.41,317.11ZM514.33,243a10,10,0,0,0-10,10v50.08a10,10,0,0,0,10,10h50.08a10,10,0,0,0,10-10V253a10,10,0,0,0-10-10Z"/><path class="cls-8" d="M1023.94,175.88H973.86a14,14,0,0,1-14-14V111.8a14,14,0,0,1,14-14h50.08a14,14,0,0,1,14,14v50.08A14,14,0,0,1,1023.94,175.88ZM973.86,101.8a10,10,0,0,0-10,10v50.08a10,10,0,0,0,10,10h50.08a10,10,0,0,0,10-10V111.8a10,10,0,0,0-10-10Z"/><path class="cls-8" d="M1138.87,175.88h-50.08a14,14,0,0,1-14-14V111.8a14,14,0,0,1,14-14h50.08a14,14,0,0,1,14,14v50.08A14,14,0,0,1,1138.87,175.88Zm-50.08-74.08a10,10,0,0,0-10,10v50.08a10,10,0,0,0,10,10h50.08a10,10,0,0,0,10-10V111.8a10,10,0,0,0-10-10Z"/><path class="cls-8" d="M104.23,175.88H54.15a14,14,0,0,1-14-14V111.8a14,14,0,0,1,14-14h50.08a14,14,0,0,1,14,14v50.08A14,14,0,0,1,104.23,175.88ZM54.15,101.8a10,10,0,0,0-10,10v50.08a10,10,0,0,0,10,10h50.08a10,10,0,0,0,10-10V111.8a10,10,0,0,0-10-10Z"/><path class="cls-8" d="M908.87,175.88H858.79a14,14,0,0,1-14-14V111.8a14,14,0,0,1,14-14h50.08a14,14,0,0,1,14,14v50.08A14,14,0,0,1,908.87,175.88ZM858.79,101.8a10,10,0,0,0-10,10v50.08a10,10,0,0,0,10,10h50.08a10,10,0,0,0,10-10V111.8a10,10,0,0,0-10-10Z"/><path class="cls-8" d="M793.87,175.88H743.79a14,14,0,0,1-14-14V111.8a14,14,0,0,1,14-14h50.08a14,14,0,0,1,14,14v50.08A14,14,0,0,1,793.87,175.88ZM743.79,101.8a10,10,0,0,0-10,10v50.08a10,10,0,0,0,10,10h50.08a10,10,0,0,0,10-10V111.8a10,10,0,0,0-10-10Z"/><path class="cls-8" d="M678.87,175.88H628.79a14,14,0,0,1-14-14V111.8a14,14,0,0,1,14-14h50.08a14,14,0,0,1,14,14v50.08A14,14,0,0,1,678.87,175.88ZM628.79,101.8a10,10,0,0,0-10,10v50.08a10,10,0,0,0,10,10h50.08a10,10,0,0,0,10-10V111.8a10,10,0,0,0-10-10Z"/><text/><path class="cls-8" d="M449.87,175.88H399.79a14,14,0,0,1-14-14V111.8a14,14,0,0,1,14-14h50.08a14,14,0,0,1,14,14v50.08A14,14,0,0,1,449.87,175.88ZM399.79,101.8a10,10,0,0,0-10,10v50.08a10,10,0,0,0,10,10h50.08a10,10,0,0,0,10-10V111.8a10,10,0,0,0-10-10Z"/><path class="cls-8" d="M334.54,175.88H284.46a14,14,0,0,1-14-14V111.8a14,14,0,0,1,14-14h50.08a14,14,0,0,1,14,14v50.08A14,14,0,0,1,334.54,175.88ZM284.46,101.8a10,10,0,0,0-10,10v50.08a10,10,0,0,0,10,10h50.08a10,10,0,0,0,10-10V111.8a10,10,0,0,0-10-10Z"/><path class="cls-8" d="M218.44,175.88H168.36a14,14,0,0,1-14-14V111.8a14,14,0,0,1,14-14h50.08a14,14,0,0,1,14,14v50.08A14,14,0,0,1,218.44,175.88ZM168.36,101.8a10,10,0,0,0-10,10v50.08a10,10,0,0,0,10,10h50.08a10,10,0,0,0,10-10V111.8a10,10,0,0,0-10-10Z"/><rect class="cls-9" x="279.79" y="130.04" width="8.15" height="17.68"/><path class="cls-8" d="M289.94,149.72H277.79V128h12.15Zm-8.15-4h4.15V132h-4.15Z"/><path class="cls-8" d="M310.54,159.23l-24.6-10.17v-20.2l24.6-13.61Zm-20.6-12.84,16.6,6.86V122l-16.6,9.18Z"/><rect class="cls-8" x="315.86" y="136.88" width="23.34" height="4"/><rect class="cls-9" x="165.52" y="130.04" width="8.15" height="17.68"/><path class="cls-8" d="M175.67,149.72H163.52V128h12.15Zm-8.15-4h4.15V132h-4.15Z"/><path class="cls-8" d="M196.27,159.23l-24.6-10.17v-20.2l24.6-13.61Zm-20.6-12.84,16.6,6.86V122l-16.6,9.18Z"/><rect class="cls-9" x="57.87" y="127.22" width="11.2" height="24.31"/><path class="cls-8" d="M71.07,153.53H55.87V125.22h15.2Zm-11.2-4h7.2V129.22h-7.2Z"/><path class="cls-8" d="M99.4,166.23,67.07,152.87V126L99.4,108.16Zm-28.33-16L95.4,160.25V114.94L71.07,128.4Z"/><rect class="cls-8" x="211.26" y="127.21" width="4" height="23.34"/><rect class="cls-8" x="201.59" y="136.88" width="23.34" height="4"/><circle class="cls-9" cx="425.16" cy="137.22" r="14.44"/><path class="cls-8" d="M425.16,153.66a16.44,16.44,0,1,1,16.43-16.44A16.46,16.46,0,0,1,425.16,153.66Zm0-28.87a12.44,12.44,0,1,0,12.43,12.43A12.45,12.45,0,0,0,425.16,124.79Z"/><rect class="cls-8" x="423.16" y="156.7" width="4" height="9.21"/><rect class="cls-8" x="423.16" y="107.81" width="4" height="9.21"/><rect class="cls-8" x="444.98" y="134.79" width="9.21" height="4"/><rect class="cls-8" x="396.1" y="134.79" width="9.21" height="4"/><rect class="cls-8" x="442.44" y="149.33" width="4" height="9.21" transform="translate(62.05 427.79) rotate(-54.71)"/><rect class="cls-8" x="406.34" y="113.97" width="4" height="9.21" transform="translate(75.65 383.37) rotate(-54.71)"/><rect class="cls-8" x="402.99" y="152.37" width="9.21" height="4" transform="translate(-14.28 263.83) rotate(-35.29)"/><rect class="cls-8" x="438.01" y="117.35" width="9.21" height="4" transform="translate(12.38 277.62) rotate(-35.29)"/><circle class="cls-10" cx="883.85" cy="137.22" r="14.44"/><path class="cls-8" d="M883.85,153.66a16.44,16.44,0,1,1,16.43-16.44A16.45,16.45,0,0,1,883.85,153.66Zm0-28.87a12.44,12.44,0,1,0,12.43,12.43A12.45,12.45,0,0,0,883.85,124.79Z"/><rect class="cls-8" x="881.85" y="156.7" width="4" height="9.21"/><rect class="cls-8" x="881.85" y="107.81" width="4" height="9.21"/><rect class="cls-8" x="903.67" y="134.79" width="9.21" height="4"/><rect class="cls-8" x="854.79" y="134.79" width="9.21" height="4"/><rect class="cls-8" x="901.13" y="149.33" width="4" height="9.21" transform="translate(255.78 802.22) rotate(-54.71)"/><rect class="cls-8" x="865.02" y="113.97" width="4" height="9.21" transform="translate(269.39 757.81) rotate(-54.71)"/><rect class="cls-8" x="861.67" y="152.37" width="9.21" height="4" transform="translate(70 528.81) rotate(-35.29)"/><rect class="cls-8" x="896.69" y="117.35" width="9.21" height="4" transform="translate(96.67 542.61) rotate(-35.29)"/><circle class="cls-9" cx="425.16" cy="137.22" r="14.44"/><path class="cls-8" d="M425.16,153.66a16.44,16.44,0,1,1,16.43-16.44A16.46,16.46,0,0,1,425.16,153.66Zm0-28.87a12.44,12.44,0,1,0,12.43,12.43A12.45,12.45,0,0,0,425.16,124.79Z"/><rect class="cls-8" x="423.16" y="156.7" width="4" height="9.21"/><rect class="cls-8" x="423.16" y="107.81" width="4" height="9.21"/><rect class="cls-8" x="444.98" y="134.79" width="9.21" height="4"/><rect class="cls-8" x="396.1" y="134.79" width="9.21" height="4"/><rect class="cls-8" x="442.44" y="149.33" width="4" height="9.21" transform="translate(62.05 427.79) rotate(-54.71)"/><rect class="cls-8" x="406.34" y="113.97" width="4" height="9.21" transform="translate(75.65 383.37) rotate(-54.71)"/><rect class="cls-8" x="402.99" y="152.37" width="9.21" height="4" transform="translate(-14.28 263.83) rotate(-35.29)"/><rect class="cls-8" x="438.01" y="117.35" width="9.21" height="4" transform="translate(12.38 277.62) rotate(-35.29)"/><path class="cls-8" d="M779.2,166.61a35.76,35.76,0,0,1-13-2.42c-8.14-3.2-14-9.17-16.48-16.8s-1.41-16.53,2.93-24.48,11.14-13.74,18.85-16.25l4.51-1.47-2.1,4.26c-.08.16-7.71,15.88-3.14,29.92s19.8,21.71,19.95,21.79l4.38,2.18-4.65,1.51A36.09,36.09,0,0,1,779.2,166.61Zm-10.82-54.28a31.27,31.27,0,0,0-12.26,12.5c-3.82,7-4.77,14.75-2.63,21.32h0c2.1,6.48,7.12,11.56,14.13,14.32a32.31,32.31,0,0,0,17,1.7c-5.35-3.56-14.13-10.78-17.64-21.56S766.21,118.48,768.38,112.33Z"/><path class="cls-8" d="M882.41,124.45v27.26c0,1,2,.69,2-.16V124.3c0-1-2-.69-2,.15Z"/><path class="cls-8" d="M879,138c-.41-1.53-.47-4.84,1.37-5.75l-4,0,.25.19-1.86-2.43c.24,1.45-.65,4-.84,5.42-.12.83-.23,1.66-.28,2.5a9.81,9.81,0,0,0,0,1.33q-.28,2,2.22-.38l1,7.86.41-.06-3.85-1a14.81,14.81,0,0,1,1.61,2.85c2.52,4.49,9.43.45,6.9-4.05-1.79-3.17-3-6.05-7.14-5.45-4.72.67-3.19,7.52,1,7.86,5.49.45,5.64-5,5.88-8.89.26-4.29,2.79-9.58-1.28-12.67-1.15-.88-2.85-.57-4,0-5,2.5-6.33,9.84-5,14.72s9,2.92,7.73-2.07Z"/><path class="cls-8" d="M882.62,148.64a30.34,30.34,0,0,1-1.78-13.84l-2.55,1.06c.77.88.33,3.32.33,4.4v4.36a1.5,1.5,0,0,0,3,0v-5.33c0-.49-.32-4.1,0-4.28l-2-.54c1.13,2.25.63,5.09.72,7.52a61,61,0,0,0,.64,6.48c.27,1.91,3.17,1.12,2.9-.77a59.48,59.48,0,0,1-.57-8.94,11.9,11.9,0,0,0-1.11-5.8,1.52,1.52,0,0,0-2-.54c-1.35.71-1.47,1.89-1.52,3.3-.09,2.95,0,5.92,0,8.88l3,0c0-3.28,1.08-8.27-1.23-10.91-.93-1.06-2.44-.12-2.56,1.05a32.24,32.24,0,0,0,1.88,14.63c.66,1.8,3.57,1,2.9-.77Z"/><path class="cls-8" d="M882.76,125.83l-.36.92-2.21-.91a13.74,13.74,0,0,1,0,2.72,1.5,1.5,0,0,0,3,0,17.88,17.88,0,0,0-.15-3.51,1.51,1.51,0,0,0-2.21-.91,2.13,2.13,0,0,0-1,2.45,1.5,1.5,0,0,0,2.9-.78Z"/><text class="cls-11" transform="translate(961.97 165.12)">￥</text><path class="cls-8" d="M1139.68,162.16H1088V124.58h51.64Zm-47.64-4h43.64V128.58H1092Z"/><circle class="cls-8" cx="1114.26" cy="140.92" r="4.08"/><polygon class="cls-8" points="1113.59 143.79 1111.71 152.29 1117.44 152.29 1115.27 143.79 1113.59 143.79"/><polygon class="cls-8" points="1106.43 126.03 1102.43 126.03 1102.43 109.99 1124.63 109.99 1124.63 120.69 1120.63 120.69 1120.63 113.99 1106.43 113.99 1106.43 126.03"/><path class="cls-8" d="M79,280.28V248.67l25.42,15.8Zm4-24.41v17.21l13.85-8.61Z"/><path class="cls-8" d="M79,306.89V275.28l25.42,15.81Zm4-24.41V299.7l13.85-8.61Z"/><rect class="cls-8" x="50.14" y="282.98" width="34.88" height="4" transform="translate(-139.99 78.35) rotate(-31.79)"/><rect class="cls-8" x="67.18" y="254.18" width="4" height="34.94" transform="translate(-197 183.74) rotate(-57.44)"/><path class="cls-8" d="M193.43,302.89a24.27,24.27,0,0,1-11.77-45.49l2.43,4.37a19.27,19.27,0,1,0,17.68-.52l2.17-4.5a24.27,24.27,0,0,1-10.51,46.14Z"/><rect class="cls-8" x="190.93" y="252.47" width="5" height="22.27"/><polygon class="cls-8" points="534.96 270.25 554.88 248.82 543.08 276.09 556.52 276.09 525.51 308.22 534.29 284.95 520.82 284.5 534.96 270.25"/><path class="cls-8" d="M661.91,290.23a21.92,21.92,0,1,1,21.92-21.92A21.94,21.94,0,0,1,661.91,290.23Zm0-38.84a16.92,16.92,0,1,0,16.92,16.92A16.94,16.94,0,0,0,661.91,251.39Z"/><rect class="cls-8" x="621.35" y="293.35" width="33.4" height="4" transform="translate(-20.11 542.68) rotate(-45.44)"/><text class="cls-12" transform="translate(656.97 280.89)">!</text><path class="cls-8" d="M769.81,311l-17.73-24.77v-39.6l17.51,15.85L786,246.38v41ZM756.08,285,769.74,304,782,286.12v-30.2L769.71,268l-13.63-12.33Z"/><rect class="cls-8" x="768.65" y="265.24" width="2" height="43.37"/><path class="cls-8" d="M773,269.11a56.13,56.13,0,0,1,10.58-14.33L781,253.72a161.92,161.92,0,0,1-3.42,32.64,1.51,1.51,0,0,0,2.51,1.46,22.33,22.33,0,0,0,5.43-8.62l-3-.4c.17,5.2-4.33,8.64-7.11,12.54a22.77,22.77,0,0,0-2.68,4.73c-.72,1.82-.87,4.65-2.58,5.89l2.21.89c-1.79-11.94,3.31-23.52,2.8-35.47a1.51,1.51,0,0,0-3-.4,35.68,35.68,0,0,0-1.26,7.11c-.1,1.68,1.12,6.9-.48,7.92a1.52,1.52,0,0,0,.76,2.8c6.59-.17,3.67-13.31.76-16.32a1.52,1.52,0,0,0-2.56,1.07,76.9,76.9,0,0,0,1.46,16.37,1.51,1.51,0,0,0,2.74.36,66.14,66.14,0,0,0,6.08-24h-3l.37,7.83a1.5,1.5,0,0,0,3,0,6.22,6.22,0,0,0-2.35-6c-.66-.54-1.94-.67-2.36.3l-1,2.42H777l-.92-2.11c-.72-1.65-3-.41-2.75,1.15a8.88,8.88,0,0,0,1.41,3.45,1.51,1.51,0,0,0,2.79-.75c.12-1.06.47-5.95.83-6-.18,0,1.1,1.06,1.09,1a1.51,1.51,0,0,0,1.51,0l.43-.22-2.26-1.3a30.1,30.1,0,0,0,.55,6.29c.34,1.78,2.8,1.17,2.94-.4a77.73,77.73,0,0,0,.32-10.12c-.06-1.93-3.06-1.94-3,0a56.27,56.27,0,0,1-.15,6.36l3-.4a24.29,24.29,0,0,1-1.26-5.14c-.24-1.86-3.08-2-3,0a90.21,90.21,0,0,1-2.68,26.08l2.74-.36-1-1.55c-.63-1-2.51-1-2.74.36l-.88,5.09h2.89l-.86-2.6a1.51,1.51,0,0,0-2.95.4l-.53,6.4,2.95-.4-.49-3c-.27-1.65-3.11-1.29-2.95.4a60.62,60.62,0,0,1,.27,7.38l2.25-1.29c-.33-.18,4.6-9.42,5-10.12l-2.8-.75v2.33h3c-.19-2.71-.25-5.39-.17-8.1,0-1.93-3-1.93-3,0-.08,2.71,0,5.39.17,8.1.13,1.9,3,1.95,3,0v-2.33a1.51,1.51,0,0,0-2.79-.76c-1.34,2.59-8.46,11.8-3.88,14.22a1.52,1.52,0,0,0,2.26-1.3,60.62,60.62,0,0,0-.27-7.38l-2.94.4.49,2.95c.29,1.78,2.81,1.18,2.94-.39l.53-6.4-2.94.4.86,2.6c.42,1.28,2.62,1.56,2.89,0l.88-5.09-2.74.36,1,1.55a1.53,1.53,0,0,0,2.75-.36,93.3,93.3,0,0,0,2.78-26.88h-3a28.83,28.83,0,0,0,1.37,5.93,1.5,1.5,0,0,0,2.94-.39,56.27,56.27,0,0,0,.15-6.36h-3a77.73,77.73,0,0,1-.32,10.12l2.95-.4a24.77,24.77,0,0,1-.44-5.49,1.52,1.52,0,0,0-2.26-1.29c2.06-1.06-1.39-2.11-2.77-1.41-2.76,1.39-2.29,6.73-2.57,9.2l2.8-.76a4.83,4.83,0,0,1-1.1-2.74l-2.75,1.16.93,2.12a1.5,1.5,0,0,0,2.59,0l1-2.42-2.35.3a3.49,3.49,0,0,1,1.47,3.9h3l-.37-7.83a1.5,1.5,0,0,0-3,0,61.85,61.85,0,0,1-5.67,22.47l2.74.36a73.32,73.32,0,0,1-1.35-15.57l-2.56,1.06c1.85,1.92,2.13,4,2.16,6.43,0,1,0,4.74-.8,4.76l.75,2.79a4.43,4.43,0,0,0,2.16-4.11c.22-4.39-.23-8.32,1-12.71l-2.95-.4c.52,12.26-4.54,24-2.69,36.27a1.51,1.51,0,0,0,2.2.9,7.13,7.13,0,0,0,2.7-3.63c1.38-3.53,2.37-6.53,4.77-9.57,3.07-3.9,6.55-7.24,6.38-12.55a1.51,1.51,0,0,0-2.95-.4,18.59,18.59,0,0,1-4.65,7.3l2.5,1.46A166.91,166.91,0,0,0,784,253.72a1.52,1.52,0,0,0-2.56-1.06,58.5,58.5,0,0,0-11,14.94c-.89,1.71,1.7,3.23,2.59,1.51Z"/><path class="cls-8" d="M777.59,289.76V274.17a1.5,1.5,0,0,0-3,0v15.59a1.5,1.5,0,0,0,3,0Z"/><path class="cls-8" d="M770.53,297a5.2,5.2,0,0,0-.49,2,1.51,1.51,0,0,0,1.5,1.5,1.54,1.54,0,0,0,1.5-1.5,1.91,1.91,0,0,1,.08-.45,1.55,1.55,0,0,0-.54-2.06,1.52,1.52,0,0,0-2.05.54Z"/><path class="cls-8" d="M777.27,271.37a4.12,4.12,0,0,0-1-2.61,1.49,1.49,0,0,0-1.64-.31,1.55,1.55,0,0,0-.92,1.37q-.13,1.2-.21,2.4a1.5,1.5,0,0,0,1.5,1.5,1.53,1.53,0,0,0,1.5-1.5q.07-1.2.21-2.4l-2.56,1.06c-.18-.21.17.41.07.13,0,.1.06.2.08.3,0-.15,0-.13,0,.06a1.5,1.5,0,0,0,3,0Z"/><path class="cls-8" d="M882.6,284.07a10.26,10.26,0,0,1-10.25-10.25V256.66a10.25,10.25,0,1,1,20.5,0v17.16A10.26,10.26,0,0,1,882.6,284.07Zm0-33.66a6.25,6.25,0,0,0-6.25,6.25v17.16a6.25,6.25,0,1,0,12.5,0V256.66A6.26,6.26,0,0,0,882.6,250.41Z"/><path class="cls-8" d="M882.6,293.05c-11.69,0-21.56-6.63-21.56-14.48h4c0,4.95,7.51,10.48,17.56,10.48s17.56-5.53,17.56-10.48h4C904.16,286.42,894.29,293.05,882.6,293.05Z"/><rect class="cls-8" x="880.6" y="292.48" width="4" height="18.19"/><text class="cls-13" transform="translate(968.88 295.84)">AF</text><polygon class="cls-8" points="1115.77 299.63 1098.35 270.03 1087.79 289.12 1084.29 287.19 1098.24 261.96 1115.94 292.04 1134.87 262.98 1138.22 265.16 1115.77 299.63"/><polygon class="cls-8" points="1140.88 254.37 1129.15 261.25 1140.55 269.27 1140.88 254.37"/><path class="cls-8" d="M93.47,435.47H55.08v-5H93.47A6.47,6.47,0,0,0,99.19,427a18.12,18.12,0,0,0,2.18-9.16c0-6.57-2.8-13.36-7.49-13.36H56.78v-5h37.1c8.2,0,12.49,9.23,12.49,18.36a23.07,23.07,0,0,1-2.9,11.74A11.46,11.46,0,0,1,93.47,435.47Z"/><polygon class="cls-8" points="63.19 425.35 50.54 432.77 62.82 440.41 63.19 425.35"/><path class="cls-8" d="M62.94,440.63,50.3,432.76l13-7.63Zm-12.16-7.86,11.92,7.42.36-14.62Z"/><path class="cls-8" d="M318.81,441.24c-4.74,0-8.81-.7-10.24-2.82-1.4-1.69-13.25-1.3-25.35.85l-2.35.41V399.07l1.1-.56c.77-.39,19-9.41,30.8.24,9.65,7.88,21.76.2,22.27-.13l3.08-2V439l-1.63.31A104.64,104.64,0,0,1,318.81,441.24Zm-17.62-7.88c5,0,9.26.7,10.69,2.81,1.22,1.63,11.4,1.35,22.25-.54v-32c-5,2.29-15.12,5.38-23.89-1.78-8.32-6.8-21.5-1.93-25.37-.27v33.35A109.17,109.17,0,0,1,301.19,433.36Z"/><path class="cls-8" d="M318.51,423.35c-4.69,0-8.89-.89-10.69-3.65-2.19-3.36-15-1.49-22.94.83l-1.12-3.84c3.77-1.1,22.81-6.23,27.41.83,2.2,3.37,15.88,1.49,24.43-.84l1,3.86C334.21,421.2,325.78,423.35,318.51,423.35Z"/><rect class="cls-8" x="307.22" y="399.3" width="4" height="37"/><path class="cls-8" d="M444,407.94a27.43,27.43,0,0,0-2.3-6c-1.15-2-1.87-2.45-5.83-2.45h-7.2v35.06c0,5.62.57,6.41,7.41,6.85v2H415.1v-2c6.69-.44,7.27-1.16,7.27-6.85V399.52h-6.55c-4,0-5.11.43-6.34,2.59a32.9,32.9,0,0,0-2.37,5.83H405c.43-4.39.86-8.93,1.08-13h1.65c1.08,1.73,1.87,1.66,3.89,1.66h28.51c2,0,2.6-.29,3.68-1.66h1.72c0,3.39.29,8.57.65,12.75Z"/><rect class="cls-8" x="516.31" y="417.42" width="50.37" height="4"/><polygon class="cls-8" points="527.41 437.16 511.24 419.42 527.41 401.68 530.37 404.38 516.65 419.42 530.37 434.47 527.41 437.16"/><path class="cls-8" d="M654,448.33,629.08,433.1V391.76h49.75V433.1Zm-20.87-17.47L654,443.64l20.88-12.78v-35.1H633.08Z"/><rect class="cls-8" x="653.95" y="394.67" width="22.88" height="22.73"/><polyline class="cls-8" points="629.63 432.99 629.63 416.99 653.95 416.99 653.95 445.99"/><path class="cls-8" d="M799.25,404.73H738.41v30.51h60.84l-14.51-16.07Zm-54.31,17.49a2.61,2.61,0,1,1,2.61-2.61A2.61,2.61,0,0,1,744.94,422.22Z"/><path class="cls-8" d="M914.05,436.37H853.68V396.84h60.37Zm-56.37-4h52.37V400.84H857.68Z"/><rect class="cls-8" x="863.73" y="439.38" width="40.08" height="4"/><path class="cls-8" d="M998.52,389.16c-10.65,0-20.56,10.78-19.27,23.94,1.11,11.39,19.69,36,19.69,36s17.1-22.53,18.84-36C1019.48,400,1009.16,389.16,998.52,389.16Zm-.22,26.89a7.23,7.23,0,1,1,7.23-7.23A7.22,7.22,0,0,1,998.3,416.05Z"/><circle class="cls-8" cx="1113.71" cy="444.75" r="3.8"/><rect class="cls-8" x="1111.83" y="394.67" width="4" height="49.14"/><polygon class="cls-8" points="1112.98 436.24 1100.46 430.32 1100.46 411.05 1104.46 411.05 1104.46 427.79 1114.69 432.62 1112.98 436.24"/><polygon class="cls-8" points="1114.96 427.87 1112.7 424.57 1121.38 418.6 1121.33 403.81 1125.33 403.8 1125.39 420.7 1114.96 427.87"/><polygon class="cls-8" points="1113.7 387.88 1107.88 395.41 1119.53 395.41 1113.7 387.88"/><circle class="cls-8" cx="1102.38" cy="408.73" r="3.8"/><rect class="cls-8" x="1120.03" y="400.3" width="5.95" height="5.95"/><path class="cls-8" d="M62.62,530.4v59.54H96.33V530.4ZM75,533.54H84a.39.39,0,0,1,.39.39.38.38,0,0,1-.39.39H75a.38.38,0,0,1-.39-.39A.39.39,0,0,1,75,533.54Zm4.54,54.26a2.31,2.31,0,1,1,2.3-2.31A2.31,2.31,0,0,1,79.49,587.8Zm12.56-7.13H66.49V538.54H92.05Z"/><rect class="cls-8" x="192.39" y="541.61" width="3" height="47.33"/><path class="cls-8" d="M205.29,560.07l-2.12-3.39c1-.65,4.41-3.28,4.41-9.94h4C211.58,555.46,206.76,559.15,205.29,560.07Z"/><path class="cls-8" d="M211.58,546.74h-4a12.53,12.53,0,0,0-4.71-10.17l2.72-2.93A16.43,16.43,0,0,1,211.58,546.74Z"/><path class="cls-8" d="M214.34,563.08l-2.12-3.39c1.36-.85,5.79-4.3,5.79-13h4C222,557.45,216.14,562,214.34,563.08Z"/><path class="cls-8" d="M222,546.74h-4c0-7.52-3.67-10.93-6.1-13.18l2.73-2.93C217.21,533,222,537.47,222,546.74Z"/><path class="cls-8" d="M182.06,560.08a16.43,16.43,0,0,1-6-13.1c0-8.72,4.82-12.41,6.29-13.33l2.12,3.39c-1,.65-4.41,3.28-4.41,9.94a12.53,12.53,0,0,0,4.71,10.17Z"/><path class="cls-8" d="M174.25,563.5c-2.58-2.39-7.38-6.85-7.38-16.11,0-10.72,5.88-15.22,7.68-16.34l2.12,3.39c-1.36.85-5.8,4.29-5.8,12.95,0,7.52,3.67,10.92,6.1,13.18Z"/><polygon class="cls-8" points="317.19 585.03 289.95 559.97 317.11 532.42 320.67 535.93 297.15 559.79 320.58 581.36 317.19 585.03"/><path class="cls-8" d="M425.36,533.94a25.5,25.5,0,1,0,25.5,25.49A25.49,25.49,0,0,0,425.36,533.94Zm17.25,28.62h-14v13.13h-6.34V562.56h-14v-6.34h14V541.35h6.34v14.87h14Z"/><circle class="cls-8" cx="556.1" cy="537.91" r="6.86"/><circle class="cls-8" cx="519.67" cy="562.33" r="6.86"/><circle class="cls-8" cx="553.55" cy="582.25" r="6.86"/><rect class="cls-8" x="516.51" y="548.02" width="42.75" height="4" transform="translate(-208.33 362.92) rotate(-31.56)"/><rect class="cls-8" x="534.3" y="553.65" width="4" height="37.88" transform="translate(-223.06 769.71) rotate(-61.43)"/><text class="cls-14" transform="translate(740.05 582.47)">JP</text><text class="cls-15" transform="translate(850.61 580.48)">EN</text><path class="cls-8" d="M1028.83,582.41h-59.6V541.26h59.6Zm-55.6-4h51.6V545.26h-51.6Z"/><rect class="cls-8" x="984.69" y="536.51" width="3.53" height="11.46" rx="1.73"/><rect class="cls-8" x="997.05" y="536.29" width="3.53" height="11.46" rx="1.73"/><rect class="cls-8" x="1009.5" y="536.29" width="3.53" height="11.46" rx="1.73"/><text class="cls-16" transform="translate(990.22 572.69)">6</text><path class="cls-8" d="M1119,589.4h-10.11a14,14,0,0,1-14-14v-31a14,14,0,0,1,14-14H1119a14,14,0,0,1,14,14v31A14,14,0,0,1,1119,589.4Zm-10.11-55a10,10,0,0,0-10,10v31a10,10,0,0,0,10,10H1119a10,10,0,0,0,10-10v-31a10,10,0,0,0-10-10Z"/><rect class="cls-8" x="1111.83" y="532.44" width="4" height="24.15"/><ellipse class="cls-8" cx="1113.86" cy="545.23" rx="3.49" ry="3.98"/><path class="cls-8" d="M109.71,721.5H47.79V682h61.92Zm-57.92-4h53.92V686H51.79Z"/><ellipse class="cls-8" cx="64.1" cy="697.4" rx="4.04" ry="4.08"/><path class="cls-8" d="M57.13,711.61c0-3.13,3.43-6.87,7.6-6.87s7.5,3.74,7.5,6.87"/><rect class="cls-8" x="79.98" y="709.02" width="19.08" height="2"/><rect class="cls-8" x="79.98" y="703.91" width="19.08" height="2"/><rect class="cls-8" x="79.98" y="698.67" width="19.08" height="2"/><rect class="cls-8" x="79.98" y="693.42" width="19.08" height="2"/><path class="cls-8" d="M223,716.24H163.74V680.92H223Zm-55.25-4H219V684.92H167.74Z"/><rect class="cls-8" x="162.24" y="719.5" width="61.94" height="3.28" rx="1.29"/><path class="cls-8" d="M319,716.24H277.46V679.09H319Zm-37.49-4H315V683.09H281.46Z"/><rect class="cls-8" x="295.76" y="715.06" width="4" height="7.69"/><rect class="cls-8" x="284.62" y="721.93" width="26.28" height="4"/><polygon class="cls-8" points="539.37 674.63 545.51 693.55 565.4 693.55 549.31 705.24 555.46 724.15 539.37 712.46 523.28 724.15 529.42 705.24 513.33 693.55 533.22 693.55 539.37 674.63"/><path class="cls-8" d="M654.1,710.31a9.43,9.43,0,1,1,9.43-9.43A9.44,9.44,0,0,1,654.1,710.31Zm0-14.86a5.43,5.43,0,1,0,5.43,5.43A5.44,5.44,0,0,0,654.1,695.45Z"/><path class="cls-8" d="M654.05,729.17a28.29,28.29,0,1,1,28.29-28.29A28.32,28.32,0,0,1,654.05,729.17Zm0-52.58a24.29,24.29,0,1,0,24.29,24.29A24.32,24.32,0,0,0,654.05,676.59Z"/><path class="cls-10" d="M654.1,708.69a7.81,7.81,0,1,1,7.8-7.81A7.82,7.82,0,0,1,654.1,708.69Zm0-14.86a7.06,7.06,0,1,0,7,7A7.06,7.06,0,0,0,654.1,693.83Z"/><polygon class="cls-8" points="1025.48 728.81 981.46 728.81 981.46 716.8 985.46 716.8 985.46 724.81 1021.48 724.81 1021.48 677.72 985.46 677.72 985.46 688.7 981.46 688.7 981.46 673.72 1025.48 673.72 1025.48 728.81"/><rect class="cls-8" x="989.04" y="684.12" width="4" height="34.79" transform="translate(274.41 1681.69) rotate(-89.12)"/><polygon class="cls-8" points="980.66 714.03 969.31 701.19 981.05 688.69 983.96 691.43 974.72 701.27 983.66 711.38 980.66 714.03"/><polygon class="cls-8" points="911.65 728.81 867.63 728.81 867.63 716.8 871.63 716.8 871.63 724.81 907.65 724.81 907.65 677.72 871.63 677.72 871.63 688.7 867.63 688.7 867.63 673.72 911.65 673.72 911.65 728.81"/><rect class="cls-8" x="870.44" y="683.86" width="4" height="34.79" transform="translate(157.9 1562.84) rotate(-89.12)"/><polygon class="cls-8" points="882.43 714.08 879.52 711.34 888.76 701.5 879.82 691.39 882.82 688.74 894.17 701.58 882.43 714.08"/><path class="cls-8" d="M1126.66,706.28c-3.57,0-6.46-.58-7.62-2.17-1.4-1-9.32-.61-17.06.77l-2.35.41V676l1.1-.55c.55-.28,13.56-6.71,22.06.24,6.39,5.22,14.67-.08,14.75-.13l3.09-2v31.06l-1.63.31A70.76,70.76,0,0,1,1126.66,706.28Zm-4.42-4.57c1.22.88,7.68.64,14.39-.48V680.44c-3.81,1.56-10.5,3.1-16.37-1.7-5.3-4.33-13.65-1.49-16.63-.25v22C1111.39,699.32,1120.08,698.73,1122.24,701.71Zm0,.07h0Z"/><rect class="cls-8" x="1093.03" y="673.1" width="4" height="56.33"/><path class="cls-8" d="M551.89,154.65l-17.65.32c-6.39.12-16,2.18-18.77-5.4-.84-2.29-1.18-5.6,0-7.86,1.88-3.58,4.47-2.23,7.31-3.22,3.48-1.22,4.21-2.94,5.47-6.12s3.09-6,6.42-7.41c2.75-1.18,5.35-1.42,7.82,1.41.48.55.62,1.41,1.12,2,2,2.25,4,1.49,6.18.18,6.9-4,12.64,2,13.13,9s-2.83,16.36-11,17.09c-2.23.19-2.25,3.7,0,3.5,13.59-1.21,19.86-21.91,10.22-31.25a12.17,12.17,0,0,0-6.81-3.29,10,10,0,0,0-4.1.25c-1,.29-2.93,2-3.71,2-1.93.08-3.93-3.89-6.19-4.74a10.78,10.78,0,0,0-8.2.61,14.36,14.36,0,0,0-6.84,6.49c-.75,1.39-1,3.35-1.89,4.6-1.7,2.44-3.9,2-6.53,2.6-5.32,1.29-7.07,6.83-6.46,11.84.75,6.11,4.72,10.66,11,11.25,9.64.93,19.88-.23,29.56-.41,2.25-.05,2.26-3.55,0-3.5Z"/><path class="cls-8" d="M667,147.33l-17.66.33c-6.38.12-16,2.17-18.77-5.41-.83-2.29-1.18-5.59,0-7.85,1.88-3.58,4.48-2.23,7.31-3.22,3.49-1.23,4.22-2.94,5.48-6.13s3.09-6,6.42-7.4c2.75-1.18,5.35-1.42,7.81,1.41.49.55.63,1.41,1.12,2,2,2.24,4,1.48,6.19.17,6.89-4,12.63,2,13.13,9s-2.83,16.36-11,17.09c-2.23.2-2.25,3.7,0,3.5,13.59-1.21,19.85-21.91,10.21-31.25a12.1,12.1,0,0,0-6.8-3.28,10.12,10.12,0,0,0-4.1.24c-1,.3-2.93,2-3.72,2.06-1.93.07-3.93-3.9-6.18-4.75a10.85,10.85,0,0,0-8.21.62,14.25,14.25,0,0,0-6.83,6.49c-.75,1.38-1,3.35-1.9,4.6-1.69,2.44-3.89,2-6.52,2.59-5.32,1.3-7.08,6.83-6.46,11.85.75,6.1,4.71,10.65,11,11.25,9.64.92,19.88-.24,29.56-.42,2.25,0,2.25-3.54,0-3.5Z"/><rect class="cls-8" x="662.6" y="156.89" width="8.14" height="2" transform="translate(98.62 540.91) rotate(-47.31)"/><rect class="cls-8" x="634.17" y="156.89" width="8.15" height="2" transform="translate(89.47 520) rotate(-47.31)"/><rect class="cls-8" x="648.18" y="156.89" width="8.14" height="2" transform="translate(93.98 530.31) rotate(-47.31)"/></g><g id="アイコン名"><text class="cls-17" transform="translate(54.83 213.41)">サウンド</text><text class="cls-17" transform="translate(159.12 213.41)">サウン<tspan class="cls-18" x="36" y="0">ド-</tspan><tspan x="58.09" y="0">大</tspan></text><text class="cls-17" transform="translate(274.45 213.41)">サウン<tspan class="cls-18" x="36" y="0">ド-</tspan><tspan x="58.09" y="0">小</tspan></text><text class="cls-17" transform="translate(412.83 213.41)">晴れ</text><text class="cls-17" transform="translate(528.16 213.41)">曇り</text><text class="cls-17" transform="translate(649.5 213.41)">雨</text><text class="cls-17" transform="translate(734.83 213.41)">お休みモード</text><text class="cls-17" transform="translate(868.16 213.41)">明るさ</text><text class="cls-17" transform="translate(995.5 213.41)">金</text><text class="cls-17" transform="translate(1110.83 213.41)">鍵</text><text class="cls-17" transform="translate(52.19 351.9)">Bluetooth</text><text class="cls-17" transform="translate(182.16 351.9)">電源</text><text class="cls-17" transform="translate(285.5 351.9)">位置情報</text><text class="cls-17" transform="translate(370.83 351.9)">インフォメーション</text><text class="cls-17" transform="translate(528.16 351.9)">充電</text><text class="cls-17" transform="translate(637.5 351.9)">ヒント</text><text class="cls-17" transform="translate(752.83 351.9)">初心者</text><text class="cls-17" transform="translate(868.16 351.9)">マイク</text><text class="cls-17" transform="translate(953.5 351.9)">オートフォーカス</text><text class="cls-17" transform="translate(1098.83 351.9)">グラフ</text><text class="cls-17" transform="translate(36.83 492.39)">ブラウザバック</text><text class="cls-17" transform="translate(164.16 492.39)">ヘルスケア</text><text class="cls-17" transform="translate(285.13 492.39)">windows</text><text class="cls-17" transform="translate(400.83 492.39)">テキスト</text><text class="cls-17" transform="translate(528.16 492.39)">戻る</text><text class="cls-17" transform="translate(619.5 492.39)">プライバシー</text><text class="cls-17" transform="translate(764.83 492.39)">栞</text><text class="cls-17" transform="translate(868.16 492.39)">テレビ</text><text class="cls-17" transform="translate(977.5 492.39)">位置情報</text><text class="cls-17" transform="translate(1106.02 492.39)">USB</text><text class="cls-17" transform="translate(60.83 630.89)">スマホ</text><text class="cls-17" transform="translate(184.51 630.89)">wifi</text><text class="cls-17" transform="translate(285.5 630.89)">方向キー</text><text class="cls-17" transform="translate(412.83 630.89)">追加</text><text class="cls-17" transform="translate(528.16 630.89)">接続</text><text class="cls-17" transform="translate(637.5 630.89)">郵便局</text><text class="cls-17" transform="translate(752.83 630.89)">日本語</text><text class="cls-17" transform="translate(874.16 630.89)">英語</text><text class="cls-17" transform="translate(971.5 630.89)">カレンダー</text><text class="cls-17" transform="translate(1098.83 630.89)">マウス</text><text class="cls-17" transform="translate(73.04 773.38)">ID</text><text class="cls-17" transform="translate(167.52 773.38)">ノー<tspan class="cls-18" x="24" y="0">ト</tspan><tspan x="39" y="0">PC</tspan></text><text class="cls-17" transform="translate(264.85 773.38)">デスクトッ<tspan class="cls-18" x="60" y="0">プ</tspan><tspan x="75" y="0">PC</tspan></text><text class="cls-17" transform="translate(394.83 773.38)">タブレット</text><text class="cls-17" transform="translate(504.16 773.38)">ブックマーク</text><text class="cls-17" transform="translate(643.39 773.38)">DVD</text><text class="cls-17" transform="translate(752.83 773.38)">メモリ</text><text class="cls-17" transform="translate(862.16 773.38)">ログイン</text><text class="cls-17" transform="translate(971.5 773.38)">ログアウト</text><text class="cls-17" transform="translate(1110.83 773.38)">旗</text><text/><path class="cls-8" d="M29,.72V56.14a12,12,0,0,0,12,12H413.83a12,12,0,0,0,12-12V.72ZM329.59,24.38a3.13,3.13,0,0,1,.92.42,34.26,34.26,0,0,1,5.28,3.78.64.64,0,0,1,.27.54c0,.87-2.13,3.3-2.82,3.3a1.31,1.31,0,0,1-.75-.45,30.82,30.82,0,0,0-5-3.51c-.25-.15-.54-.33-.54-.63C326.92,27.23,328.71,24.38,329.59,24.38ZM68.27,51a16.05,16.05,0,1,1,16-16.05A16.06,16.06,0,0,1,68.27,51Zm58.87-1.71c-.27,0-.42-.27-.57-.45a30.94,30.94,0,0,0-3-3.54c-.15-.15-.54-.48-.54-.72,0-.51,1.62-1.65,2-2a1.57,1.57,0,0,1,.75-.42c.48,0,1.74,1.38,2.1,1.77.09.09.21.24.39.42.66.72,1.89,2,1.89,2.43S127.77,49.28,127.14,49.28Zm9.78-.42a2.1,2.1,0,0,1-.81-.33,32.43,32.43,0,0,1-5.73-4.8,20.33,20.33,0,0,1-3.27-4.59c-.12-.24-.36-.57-.66-.57s-.66.6-.81.9a21,21,0,0,1-7,7.65c-.67.48-2.46,1.77-3.13,1.77-1,0-2.63-2.7-2.63-3.63,0-.42.3-.54.86-.81a18,18,0,0,0,9.45-10.2,2.43,2.43,0,0,0,.24-.75c0-.42-.51-.45-.81-.45h-5.27c-1.17,0-2.34.06-3.51.06-.69,0-.75-.33-.75-1.26v-1.8c0-1,.06-1.29.81-1.29,1.13,0,2.3.06,3.45.06h6a.84.84,0,0,0,.84-.84V26.12c0-1.32-.09-3.27-.09-3.6,0-.51.27-.63.72-.63s3.69.21,4.14.27c.24,0,.51.12.51.45s-.15.33-.36.45c-.42.24-.45.51-.45,1v4a.84.84,0,0,0,.84.84h6c1.17,0,2.34-.06,3.48-.06.75,0,.81.33.81,1.26v1.8c0,1-.06,1.29-.78,1.29-1.17,0-2.34-.06-3.51-.06h-5.43c-.33,0-.75,0-.75.48a7.75,7.75,0,0,0,.54,1.44,22.81,22.81,0,0,0,9.36,9.84c.48.27.69.36.69.69C139.89,46.43,137.88,48.86,136.92,48.86Zm32.19-2.67c-.81,2.16-1.83,2.31-3.84,2.31h-2.58c-1.68,0-3.48-.39-3.48-2.61,0-1.26.69-9.45.87-11.19.06-.72.21-1.92.21-2.61,0-.9-.69-.9-1.41-.9h-2.46c-.72,0-1,.39-1,1.08a33.26,33.26,0,0,1-.48,3.87,2,2,0,0,0-.06.42,1.55,1.55,0,0,0,.72,1.29c.72.48,1.44,1,2.13,1.59.27.21.6.45.6.81,0,.66-1.59,3.09-2.34,3.09-.12,0-.3-.06-.6-.33a7.73,7.73,0,0,0-2-1.44c-.3,0-.51.24-.69.57a20.44,20.44,0,0,1-2.67,3.39c-.72.78-4,3.48-4.89,3.48s-2.45-2.16-2.45-2.85c0-.39.42-.63.72-.78a14.35,14.35,0,0,0,4.5-3.6,10.94,10.94,0,0,0,1.67-2.61c0-.27-.12-.36-.48-.57-.92-.54-1.88-1.08-2.82-1.62a.73.73,0,0,1-.41-.6c0-.39,1.29-3,2.19-3a7.32,7.32,0,0,1,1.67.78c.54.33.78.48,1,.48s.34-.3.36-.51.21-1.77.21-2.07c0-.66-.54-.84-1.08-.84H148c-1.18,0-2.35.09-3.52.09-.69,0-.77-.3-.77-1.14v-2c0-.84.08-1.14.77-1.14,1.17,0,2.34.09,3.52.09h2.45c.81,0,1.05-.51,1.05-.87s0-.87,0-1.56-.06-1.47-.06-2.22c0-.42.18-.63.6-.63s2.31.15,2.64.18c1.26.15,1.71.24,1.71.48s-.24.45-.48.63a.49.49,0,0,0-.21.42c0,.87,0,1.74,0,2.61,0,.72.54,1,1.17,1h3.66c1,0,1.95-.09,2.94-.09s1.59.24,1.59,1.38a10.22,10.22,0,0,1-.15,1.26c-.21,1.47-1.26,12.75-1.26,14,0,.48.18.63.66.63h.63c.72,0,.84-1.05,1-3.75,0-.48.18-.69.69-.69a9.28,9.28,0,0,1,2.19.36c.69.24,1.29.57,1.29,1.38A18,18,0,0,1,169.11,46.19Zm18,3.09c-.27,0-.42-.27-.57-.45a30.94,30.94,0,0,0-3-3.54c-.15-.15-.54-.48-.54-.72,0-.51,1.62-1.65,2-2a1.57,1.57,0,0,1,.75-.42c.48,0,1.74,1.38,2.1,1.77.09.09.21.24.39.42.66.72,1.89,2,1.89,2.43S187.77,49.28,187.14,49.28Zm9.78-.42a2.1,2.1,0,0,1-.81-.33,32.43,32.43,0,0,1-5.73-4.8,20.33,20.33,0,0,1-3.27-4.59c-.12-.24-.36-.57-.66-.57s-.66.6-.81.9a21,21,0,0,1-7,7.65c-.67.48-2.46,1.77-3.13,1.77-1,0-2.63-2.7-2.63-3.63,0-.42.3-.54.86-.81a18,18,0,0,0,9.45-10.2,2.43,2.43,0,0,0,.24-.75c0-.42-.51-.45-.81-.45h-5.27c-1.17,0-2.34.06-3.51.06-.69,0-.75-.33-.75-1.26v-1.8c0-1,.06-1.29.81-1.29,1.13,0,2.3.06,3.45.06h6a.84.84,0,0,0,.84-.84V26.12c0-1.32-.09-3.27-.09-3.6,0-.51.27-.63.72-.63s3.69.21,4.14.27c.24,0,.51.12.51.45s-.15.33-.36.45c-.42.24-.45.51-.45,1v4a.84.84,0,0,0,.84.84h6c1.17,0,2.34-.06,3.48-.06.75,0,.81.33.81,1.26v1.8c0,1-.06,1.29-.78,1.29-1.17,0-2.34-.06-3.51-.06h-5.43c-.33,0-.75,0-.75.48a7.75,7.75,0,0,0,.54,1.44,22.81,22.81,0,0,0,9.36,9.84c.48.27.69.36.69.69C199.89,46.43,197.88,48.86,196.92,48.86Zm33-7.47c0,1-.06,1.26-.78,1.26-1,0-2-.06-3-.06H224a.86.86,0,0,0-.84.84V45.8c0,1.05.09,2,.09,2.73s-.39.63-1.47.63h-1.71c-1,0-1.35-.06-1.35-.63,0-.9.06-1.83.06-2.73V43.43a.84.84,0,0,0-.84-.84h-1.41c-1,0-2,.06-3,.06-.66,0-.75-.27-.75-.93V40.16c0-.15,0-.36-.24-.36a.4.4,0,0,0-.24.09.64.64,0,0,1-.51.24c-.3,0-.51-.36-.65-.63-.1-.12-.19-.24-.34-.24s-.27.21-.27.39v4.71c0,1.38.09,2.73.09,4.11,0,.72-.27.78-1.19.78h-1.81c-.9,0-1.17-.06-1.17-.78,0-1.38.1-2.73.1-4.11V41c0-.18,0-.36-.18-.36s-.21.15-.25.27c-.15.48-.77,2.25-1.34,2.25s-2.52-1.68-2.52-2.52a3.41,3.41,0,0,1,.57-1.26,26.64,26.64,0,0,0,2.72-7,6.25,6.25,0,0,0,.15-.78.57.57,0,0,0-.62-.57c-.42,0-.82,0-1.2,0-.66,0-.72-.3-.72-1.2V28.1c0-.84.06-1.17.72-1.17s1.2.09,1.8.09a.85.85,0,0,0,.87-.93V24.35c0-.6,0-1.2-.1-1.8,0-.09,0-.18,0-.27,0-.33.27-.39.54-.39.44,0,2.54.21,3.11.27s1.11.15,1.11.48-.15.3-.36.45-.3.78-.3,1.59v1.41a.87.87,0,0,0,.84.9c.24,0,.63-.06,1-.06.66,0,.72.3.72,1.14v1.8c0,.9-.06,1.23-.69,1.23l-1.2,0a.63.63,0,0,0-.63.6V32a3.67,3.67,0,0,0,.84,2,25.4,25.4,0,0,0,2.07,2.67,1.23,1.23,0,0,1,.45.81,1.28,1.28,0,0,1-.18.6.57.57,0,0,0-.09.24c0,.3.18.39,2.91.39H218a.85.85,0,0,0,.84-.93,10.62,10.62,0,0,0-.06-1.38c0-.06,0-.15,0-.21,0-.3.36-.33.6-.33.57,0,3.06.15,3.75.21.21,0,.81,0,.81.3,0,.15-.18.24-.36.33s-.33.27-.33,1.11a.87.87,0,0,0,.84.9h2.16c1,0,2-.09,3-.09.69,0,.75.33.75,1.2Zm-.75-7.11c-.72,1.38-1.74,1.41-3.15,1.41h-2a3,3,0,0,1-1.89-.6,2.23,2.23,0,0,1-.63-1.86,15.2,15.2,0,0,1,.09-1.65l.18-2.1c0-.42-.27-.54-.63-.54-.63,0-.66.45-.78.9-.84,3.54-4.47,6.9-5.19,6.9-.9,0-2.79-2.16-2.79-2.91,0-.15.18-.27.3-.36a12.94,12.94,0,0,0,2.4-2.22,5.61,5.61,0,0,0,1.08-1.92.48.48,0,0,0-.51-.45c-.42,0-.84.06-1.26.06-.6,0-.66-.33-.66-1.14V26c0-.84.06-1.11.66-1.11s1.05.06,1.53.06a.86.86,0,0,0,.87-1c0-.36,0-.78,0-1.11a1.46,1.46,0,0,1,0-.36c0-.39.24-.51.57-.51,1.2,0,2.37.12,3.57.15.24,0,.81,0,.81.36s-.21.27-.33.33c-.48.24-.48.42-.48,1.17a.86.86,0,0,0,.84.93h.81l2.34,0c.6,0,1.08.09,1.08.84,0,.3-.18,2-.21,2.55l-.15,2.07c0,.21-.06.84-.06,1s.18.21.27.21h.09c.45,0,.45-1.05.45-1.41s0-.9.6-.9a9,9,0,0,1,2.19.36c.6.15,1,.42,1,1.08A9.72,9.72,0,0,1,229.17,34.28Zm29.25-4.38a5.76,5.76,0,0,0-.42.45c-1.71,1.89-3.48,3.69-5.31,5.43l-.27.27c-.54.54-1.11,1.05-1.47,1.05s-1.8-1.11-2.31-1.53a.51.51,0,0,0-.3-.09c-.36,0-.45.18-.54.54-.93,3.78-2.31,7-5.19,9.78-.5.48-2.4,2.22-3,2.22s-3.73-2.4-3.73-3.06c0-.18.25-.33.87-.69a13.3,13.3,0,0,0,6.51-9.48,16.92,16.92,0,0,0,.12-2.19c0-.06,0-.09,0-.15,0-.24,0-.33.3-.33.87,0,3.81.12,4.5.21.51.06.6.18.6.33s-.09.18-.12.27a.23.23,0,0,0-.06.12.25.25,0,0,0,.27.24.27.27,0,0,0,.21-.09c.24-.21,2.13-1.86,2.13-2.25,0-.18-.15-.33-.48-.33H239.61c-1.11,0-2.19,0-3.26,0-.43,0-.85,0-1.26,0-.93,0-1-.33-1-2V27.14c0-.66.12-1.05.87-1.05,1.52,0,3.05.06,4.61.06h13.2a16.63,16.63,0,0,0,2.76-.18,3,3,0,0,1,.51-.06c.54,0,.9.39,1.29.78s1.68,1.65,1.68,2.37C259.05,29.39,258.72,29.66,258.42,29.9Zm27.09-4.11a1.91,1.91,0,0,0-1.08.51c-.72.72-2,2.37-4.29,4.65a2,2,0,0,0-.69,1.53v11c0,.81,0,1.62,0,2.43,0,.54,0,1.11,0,1.68,0,.93-.51,1-2,1h-1.23c-1.41,0-1.62-.18-1.62-.87,0-1.35.06-2.7.06-4V37c0-.45-.15-.75-.54-.75a2,2,0,0,0-.87.45c-.81.57-4.94,3.33-5.63,3.33s-3.51-2.76-3.51-3.54c0-.33.36-.45.63-.54a41.54,41.54,0,0,0,5.84-3.12,35.93,35.93,0,0,0,7.65-6.48A30.94,30.94,0,0,0,281,22.58c.06-.15.18-.36.39-.36.45,0,3,1.83,3.87,2.49.36.27.6.57.6.75S285.69,25.73,285.51,25.79ZM314.76,46h-1.71c-1.14,0-1.26-.12-1.38-.6-.18-.66-.6-.66-1.59-.66H298.29c-.39,0-.81.06-1.23.06-.71,0-.81-.39-.81-1.44V41.18c0-.9.06-1.17.69-1.17.4,0,1,.06,1.44.06.93,0,1.86,0,2.82,0h9.39a.93.93,0,0,0,.93-.93V32.63a.93.93,0,0,0-.93-.93h-9.42c-.87,0-1.73,0-2.58,0-.54,0-1,.06-1.55.06-.66,0-.81-.27-.81-1.62v-1.8c0-1.14.15-1.32.69-1.32s.89.06,1.31.06h13.35c.9,0,1.8,0,2.7,0,1.2,0,1.89.36,1.89,1.65,0,1,0,2,0,3V41.9c0,.87.06,1.74.06,2.64C316.2,45.8,316.17,46,314.76,46Zm31.44-9.66c-4.83,4.71-9.66,7.41-15.66,10.29a1.3,1.3,0,0,0-.81.78.26.26,0,0,1-.24.18c-.24,0-.42-.27-.53-.48a24.31,24.31,0,0,1-1.42-2.31,8,8,0,0,1-.87-1.8c0-.27.33-.42.58-.48a31.52,31.52,0,0,0,7.67-3.3,40.18,40.18,0,0,0,10.83-9.39l.18-.24c.27-.39.51-.72.84-.72.6,0,1.53,1.62,1.8,2.1.06.09.09.21.18.33a4.77,4.77,0,0,1,.51,1.41C349.26,33.38,346.83,35.69,346.2,36.29Z"/></g></svg>