<svg xmlns="http://www.w3.org/2000/svg" viewBox="0 0 1190.55 841.89"><defs><style>.cls-1{font-size:19px;}.cls-1,.cls-10,.cls-2,.cls-3,.cls-5,.cls-7,.cls-9{fill:#fff;}.cls-1,.cls-2,.cls-5{font-family:KozGoPro-Medium-90ms-RKSJ-H, Kozuka Gothic Pro;}.cls-2{font-size:16px;}.cls-3,.cls-5{font-size:13px;}.cls-3{font-family:KozGoPro-Bold-90ms-RKSJ-H, Kozuka Gothic Pro;}.cls-4{letter-spacing:-0.5em;}.cls-6{fill:none;stroke:#dcdddd;}.cls-6,.cls-9{stroke-miterlimit:10;}.cls-8{fill:#fbfdfe;}.cls-9{stroke:#fff;}.cls-10{font-size:12px;font-family:KozGoPro-Regular-90ms-RKSJ-H, Kozuka Gothic Pro;}</style></defs><title>kimura</title><g id="テンプレート"><text class="cls-1" transform="translate(960.28 46.3)">www.design-icon.com</text><text class="cls-2" transform="translate(447.3 55.3)">DESIGNER : 木村大貴</text><text class="cls-3" transform="translate(833.83 817.27)">利用規約：個人、商用、すべてフリーでご利用ください<tspan class="cls-4" x="325" y="0">。</tspan></text><text class="cls-5" transform="translate(447.3 30.16)">サイズ：100 x 100 px</text><rect class="cls-6" x="28.83" y="87.3" width="100" height="100"/><rect class="cls-6" x="143.83" y="87.3" width="100" height="100"/><rect class="cls-6" x="258.83" y="87.3" width="100" height="100"/><rect class="cls-6" x="373.83" y="87.3" width="100" height="100"/><rect class="cls-6" x="488.83" y="87.3" width="100" height="100"/><rect class="cls-6" x="603.83" y="87.3" width="100" height="100"/><rect class="cls-6" x="718.83" y="87.3" width="100" height="100"/><rect class="cls-6" x="833.83" y="87.3" width="100" height="100"/><rect class="cls-6" x="948.83" y="87.3" width="100" height="100"/><rect class="cls-6" x="1063.83" y="87.3" width="100" height="100"/><rect class="cls-6" x="28.83" y="228.07" width="100" height="100"/><rect class="cls-6" x="143.83" y="228.07" width="100" height="100"/><rect class="cls-6" x="258.83" y="228.07" width="100" height="100"/><rect class="cls-6" x="373.83" y="228.07" width="100" height="100"/><rect class="cls-6" x="488.83" y="228.07" width="100" height="100"/><rect class="cls-6" x="603.83" y="228.07" width="100" height="100"/><rect class="cls-6" x="718.83" y="228.07" width="100" height="100"/><rect class="cls-6" x="833.83" y="228.07" width="100" height="100"/><rect class="cls-6" x="948.83" y="228.07" width="100" height="100"/><rect class="cls-6" x="1063.83" y="228.07" width="100" height="100"/><rect class="cls-6" x="28.83" y="368.84" width="100" height="100"/><rect class="cls-6" x="143.83" y="368.84" width="100" height="100"/><rect class="cls-6" x="258.83" y="368.84" width="100" height="100"/><rect class="cls-6" x="373.83" y="368.84" width="100" height="100"/><rect class="cls-6" x="488.83" y="368.84" width="100" height="100"/><rect class="cls-6" x="718.83" y="368.84" width="100" height="100"/><rect class="cls-6" x="833.83" y="368.84" width="100" height="100"/><rect class="cls-6" x="948.83" y="368.84" width="100" height="100"/><rect class="cls-6" x="1063.83" y="368.84" width="100" height="100"/><rect class="cls-6" x="28.83" y="509.61" width="100" height="100"/><rect class="cls-6" x="143.83" y="509.61" width="100" height="100"/><rect class="cls-6" x="258.83" y="509.61" width="100" height="100"/><rect class="cls-6" x="373.83" y="509.61" width="100" height="100"/><rect class="cls-6" x="488.83" y="509.61" width="100" height="100"/><rect class="cls-6" x="603.83" y="509.61" width="100" height="100"/><rect class="cls-6" x="718.83" y="509.61" width="100" height="100"/><rect class="cls-6" x="833.83" y="509.61" width="100" height="100"/><rect class="cls-6" x="948.83" y="509.61" width="100" height="100"/><rect class="cls-6" x="1063.83" y="509.61" width="100" height="100"/><rect class="cls-6" x="28.83" y="650.38" width="100" height="100"/><rect class="cls-6" x="143.83" y="650.38" width="100" height="100"/><rect class="cls-6" x="258.83" y="650.38" width="100" height="100"/><rect class="cls-6" x="373.83" y="650.38" width="100" height="100"/><rect class="cls-6" x="488.83" y="650.38" width="100" height="100"/><rect class="cls-6" x="603.83" y="650.38" width="100" height="100"/><rect class="cls-6" x="718.83" y="650.38" width="100" height="100"/><rect class="cls-6" x="833.83" y="650.38" width="100" height="100"/><rect class="cls-6" x="948.83" y="650.38" width="100" height="100"/><rect class="cls-6" x="1063.83" y="650.38" width="100" height="100"/><rect class="cls-6" x="603.83" y="368.84" width="100" height="100"/><path class="cls-7" d="M29,0V55.37a12,12,0,0,0,12,12H413.83a12,12,0,0,0,12-12V0ZM359.59,23.61a3.13,3.13,0,0,1,.92.42,34.26,34.26,0,0,1,5.28,3.78.64.64,0,0,1,.27.54c0,.87-2.13,3.3-2.82,3.3a1.31,1.31,0,0,1-.75-.45,30.82,30.82,0,0,0-5-3.51c-.25-.15-.54-.33-.54-.63C356.92,26.46,358.71,23.61,359.59,23.61Zm-120,0a3.13,3.13,0,0,1,.92.42,34.26,34.26,0,0,1,5.28,3.78.64.64,0,0,1,.27.54c0,.87-2.13,3.3-2.82,3.3a1.31,1.31,0,0,1-.75-.45,30.82,30.82,0,0,0-5-3.51c-.25-.15-.54-.33-.54-.63C236.92,26.46,238.71,23.61,239.59,23.61Zm-58.15-.54c.54,0,3.6,2.1,4.23,2.55.42.3,2,1.41,2,1.83,0,.66-2,3.18-2.55,3.18-.21,0-.6-.33-.78-.48a55.54,55.54,0,0,0-4.91-3.45c-.19-.12-.58-.36-.58-.6C178.86,25.53,180.84,23.07,181.44,23.07Zm-17-2.76a.83.83,0,0,1,.45.24c.48.3,2.7,2,2.7,2.46A3.2,3.2,0,0,1,166,24.87c-.12,0-.27-.15-.36-.24-.81-.78-1.65-1.47-2.52-2.16-.18-.12-.39-.24-.39-.45C162.69,21.63,164.07,20.31,164.4,20.31ZM161.49,23c.18,0,3.12,2.22,3.12,2.73A3.25,3.25,0,0,1,163,27.57c-.15,0-.48-.36-.66-.54a28.36,28.36,0,0,0-2.31-2c-.15-.12-.27-.21-.27-.39C159.75,24.3,161.16,23,161.49,23Zm-10.05.33a28.57,28.57,0,0,1,4.23,2.55c.6.42,2,1.41,2,1.83,0,.63-1.89,3.18-2.55,3.18-.24,0-.63-.33-.81-.48a60.92,60.92,0,0,0-5.13-3.63c-.18-.09-.33-.21-.33-.42C148.86,25.8,150.81,23.31,151.44,23.31ZM68.27,50.22a16,16,0,1,1,16-16A16,16,0,0,1,68.27,50.22ZM138.6,31.68c-.3.27-.66.6-1,1-2.43,2.4-5,4.74-7.56,6.9a1.27,1.27,0,0,0-.63.93,1.33,1.33,0,0,0,.33.72,10,10,0,0,1,1.08,1.83c0,.63-2.82,2.52-3.6,2.52-.27,0-.51-.39-.66-.63A32.78,32.78,0,0,0,121,38.28c-.21-.21-.66-.63-.66-.9,0-.51,2.58-2.52,3.3-2.52.51,0,1.65,1.17,2,1.56a.8.8,0,0,0,.66.33,1.19,1.19,0,0,0,.81-.42c1-.9,2.13-1.74,3.12-2.7.18-.18.51-.48.51-.78s-.45-.42-1-.42H119.07c-1.32,0-2.84.06-4,.06-.83,0-.89-.54-.89-1.62V29.43c0-1.44.06-1.65.77-1.65,1.41,0,2.79.06,4.17.06h14.67a22.48,22.48,0,0,0,2.46-.09,1.34,1.34,0,0,1,.36,0c.51,0,1.2.78,1.83,1.53a5.91,5.91,0,0,1,1,1.56C139.38,31,139.08,31.26,138.6,31.68Zm6.9,1.44c0-.63,1.75-3.36,2.4-3.36a24.18,24.18,0,0,1,3.63,1.95,21.35,21.35,0,0,1,2.58,1.71.79.79,0,0,1,.42.6c0,.66-1.92,3.33-2.58,3.33a1.91,1.91,0,0,1-.69-.36A49.5,49.5,0,0,0,146,33.6C145.75,33.48,145.5,33.36,145.5,33.12Zm21.87-.81c-3.12,7.41-8.52,11.52-15.9,14.28-.86.33-1,.42-1.23.87a.46.46,0,0,1-.27.15c-.24,0-.51-.51-.59-.72-.4-.78-1.36-3-1.65-3.51a1.26,1.26,0,0,1-.12-.45c0-.24.41-.36.6-.42.83-.21,2.78-.93,3.65-1.26a19.64,19.64,0,0,0,7.2-4.41c2.55-2.43,3.78-5,5.07-8.19.15-.33.3-.72.72-.72s1.32.75,1.65,1S168,30.18,168,30.6A9,9,0,0,1,167.37,32.31Zm8.13.54c0-.57,1.75-3.33,2.4-3.33A29.79,29.79,0,0,1,182.31,32c.6.36,2.22,1.32,2.22,1.83s-1.92,3.3-2.58,3.3a1.65,1.65,0,0,1-.75-.39,50.78,50.78,0,0,0-5.07-3.24C175.81,33.27,175.5,33.12,175.5,32.85Zm22.14-1.35c-3.24,7.8-8.4,11.94-16.17,14.85-.81.3-.86.3-1.23.81a.33.33,0,0,1-.27.21c-.3,0-.69-.87-.8-1.14-.43-.84-1.06-2.37-1.44-3.12a1.21,1.21,0,0,1-.16-.42c0-.27.43-.36.64-.42.69-.15,2.81-1,3.59-1.26a18.65,18.65,0,0,0,7.26-4.41c2.43-2.49,4.11-6.18,5.28-9.42.12-.33.3-.78.75-.78s1.35.87,1.71,1.2,1.5,1.47,1.5,1.92A9,9,0,0,1,197.64,31.5Zm28.44,2.7a20.72,20.72,0,0,0-2.22,3A31.29,31.29,0,0,1,222,39.78a.93.93,0,0,1-.69.36c-.45,0-2.85-1-2.85-1.65a1.54,1.54,0,0,1,.36-.69,7.93,7.93,0,0,0,1.26-1.68.35.35,0,0,0-.39-.33l-.18,0-1.59.33a.77.77,0,0,0-.63.81v.12a1.38,1.38,0,0,0,0,.3l1.2,5.82a26.94,26.94,0,0,1,.63,3.09c0,.39-.24.48-.57.57a24.53,24.53,0,0,1-2.76.51c-.51,0-.57-.3-.84-1.86-.09-.42-.18-.93-.3-1.53l-1.26-6.06a.78.78,0,0,0-.78-.66l-.21,0-1.53.33c-.54.12-3,.66-3.38.66s-.58-.39-.66-.72-.42-2.16-.42-2.46c0-.57.48-.66,2.19-.93l1.61-.3,1.44-.3a.79.79,0,0,0,.66-.75,1.69,1.69,0,0,0,0-.21L212,31.2c0-.12-.15-.75-.3-1.41s-.36-1.56-.36-1.62c0-.27.3-.33.51-.36a26.79,26.79,0,0,1,3.06-.24c.39,0,.87,0,.87.54a.85.85,0,0,1-.12.39.92.92,0,0,0-.09.39c0,.21.24,1.38.3,1.68l.27,1.32a.82.82,0,0,0,.78.66l.18,0,4-.81c.78-.15,1.59-.3,2.34-.51a1.4,1.4,0,0,1,.51-.09c.54,0,2.49,1.71,2.49,2.4C226.5,33.81,226.29,34,226.08,34.2Zm30.12,1.32c-4.83,4.71-9.66,7.41-15.66,10.29a1.3,1.3,0,0,0-.81.78.26.26,0,0,1-.24.18c-.24,0-.42-.27-.53-.48A24.31,24.31,0,0,1,237.54,44a8,8,0,0,1-.87-1.8c0-.27.33-.42.58-.48a31.52,31.52,0,0,0,7.67-3.3A40.18,40.18,0,0,0,255.75,29l.18-.24c.27-.39.51-.72.84-.72.6,0,1.53,1.62,1.8,2.1.06.09.09.21.18.33a4.77,4.77,0,0,1,.51,1.41C259.26,32.61,256.83,34.92,256.2,35.52Zm32.22-6.39a5.76,5.76,0,0,0-.42.45c-1.71,1.89-3.48,3.69-5.31,5.43l-.27.27c-.54.54-1.11,1-1.47,1s-1.8-1.11-2.31-1.53a.51.51,0,0,0-.3-.09c-.36,0-.45.18-.54.54-.93,3.78-2.31,7-5.19,9.78-.5.48-2.4,2.22-3,2.22s-3.73-2.4-3.73-3.06c0-.18.25-.33.87-.69A13.3,13.3,0,0,0,273.24,34a16.92,16.92,0,0,0,.12-2.19c0-.06,0-.09,0-.15,0-.24,0-.33.3-.33.87,0,3.81.12,4.5.21.51.06.6.18.6.33s-.09.18-.12.27a.23.23,0,0,0-.06.12.25.25,0,0,0,.27.24.27.27,0,0,0,.21-.09c.24-.21,2.13-1.86,2.13-2.25,0-.18-.15-.33-.48-.33H269.61c-1.11,0-2.19,0-3.26,0-.43,0-.85,0-1.26,0-.93,0-1-.33-1-2V26.37c0-.66.12-1.05.87-1.05,1.52,0,3.05.06,4.61.06h13.2a16.63,16.63,0,0,0,2.76-.18,3,3,0,0,1,.51-.06c.54,0,.9.39,1.29.78s1.68,1.65,1.68,2.37C289.05,28.62,288.72,28.89,288.42,29.13ZM315.51,25a1.91,1.91,0,0,0-1.08.51c-.72.72-2,2.37-4.29,4.65a2,2,0,0,0-.69,1.53v11c0,.81,0,1.62,0,2.43,0,.54,0,1.11,0,1.68,0,.93-.51,1-2,1h-1.23c-1.41,0-1.62-.18-1.62-.87,0-1.35.06-2.7.06-4.05V36.21c0-.45-.15-.75-.54-.75a2,2,0,0,0-.87.45c-.81.57-4.94,3.33-5.63,3.33s-3.51-2.76-3.51-3.54c0-.33.36-.45.63-.54A41.54,41.54,0,0,0,300.63,32a35.93,35.93,0,0,0,7.65-6.48A30.94,30.94,0,0,0,311,21.81c.06-.15.18-.36.39-.36.45,0,3,1.83,3.87,2.49.36.27.6.57.6.75S315.69,25,315.51,25Zm29.25,20.16h-1.71c-1.14,0-1.26-.12-1.38-.6-.18-.66-.6-.66-1.59-.66H328.29c-.39,0-.81.06-1.23.06-.71,0-.81-.39-.81-1.44V40.41c0-.9.06-1.17.69-1.17.4,0,1,.06,1.44.06.93,0,1.86,0,2.82,0h9.39a.93.93,0,0,0,.93-.93V31.86a.93.93,0,0,0-.93-.93h-9.42c-.87,0-1.73,0-2.58,0-.54,0-1,.06-1.55.06-.66,0-.81-.27-.81-1.62V27.6c0-1.14.15-1.32.69-1.32s.89.06,1.31.06h13.35c.9,0,1.8,0,2.7,0,1.2,0,1.89.36,1.89,1.65,0,1,0,2,0,3V41.13c0,.87.06,1.74.06,2.64C346.2,45,346.17,45.18,344.76,45.18Zm31.44-9.66c-4.83,4.71-9.66,7.41-15.66,10.29a1.3,1.3,0,0,0-.81.78.26.26,0,0,1-.24.18c-.24,0-.42-.27-.53-.48A24.31,24.31,0,0,1,357.54,44a8,8,0,0,1-.87-1.8c0-.27.33-.42.58-.48a31.52,31.52,0,0,0,7.67-3.3A40.18,40.18,0,0,0,375.75,29l.18-.24c.27-.39.51-.72.84-.72.6,0,1.53,1.62,1.8,2.1.06.09.09.21.18.33a4.77,4.77,0,0,1,.51,1.41C379.26,32.61,376.83,34.92,376.2,35.52Z"/></g><g id="アイコンデザイン"><path class="cls-7" d="M569,429.41v9.44L567.93,440c-.39.4-9.61,9.77-27.82,10.2H539a46.35,46.35,0,0,1-29-10L508.64,439v-9.63c-8.8,3.63-14.31,8.82-14.31,14.6,0,11,19.92,19.87,44.5,19.87s44.5-8.9,44.5-19.87C583.33,438.23,577.82,433,569,429.41Z"/><path class="cls-7" d="M684,429.41v9.44L682.93,440c-.39.4-9.61,9.77-27.82,10.2H654a46.35,46.35,0,0,1-29-10L623.64,439v-9.63c-8.8,3.63-14.31,8.82-14.31,14.6,0,11,19.92,19.87,44.5,19.87s44.5-8.9,44.5-19.87C698.33,438.23,692.82,433,684,429.41Z"/><path class="cls-7" d="M914,569.91v9.44l-1.09,1.14c-.39.4-9.61,9.77-27.82,10.2H884a46.35,46.35,0,0,1-29-10l-1.33-1.17v-9.63c-8.8,3.63-14.31,8.82-14.31,14.6,0,11,19.92,19.87,44.5,19.87s44.5-8.9,44.5-19.87C928.33,578.73,922.82,573.54,914,569.91Z"/><path class="cls-7" d="M212.8,723.65v5.94l-.69.71c-.24.25-6,6.14-17.48,6.41h-.7a29.17,29.17,0,0,1-18.23-6.28l-.83-.74v-6.05c-5.53,2.28-9,5.55-9,9.17,0,6.9,12.51,12.49,28,12.49s27.95-5.59,27.95-12.49C221.78,729.2,218.32,725.93,212.8,723.65Z"/><path class="cls-7" d="M299.69,680.54V661.82s1.73-2.77,9.14-2.77,9.14,2.77,9.14,2.77v18.72s-2.88,3-8.73,3.13A14.85,14.85,0,0,1,299.69,680.54Z"/><path class="cls-7" d="M319.33,678.07v3.28l-.38.4c-.13.14-3.34,3.4-9.67,3.55h-.39a16.17,16.17,0,0,1-10.1-3.47l-.46-.41v-3.35c-3.06,1.26-5,3.07-5,5.08,0,3.81,6.92,6.91,15.47,6.91s15.48-3.1,15.48-6.91C324.31,681.14,322.39,679.33,319.33,678.07Z"/><path class="cls-7" d="M1029,569.91v9.44l-1.09,1.14c-.39.4-9.61,9.77-27.82,10.2H999a46.35,46.35,0,0,1-29-10l-1.33-1.17v-9.63c-8.8,3.63-14.31,8.82-14.31,14.6,0,11,19.92,19.87,44.5,19.87s44.5-8.9,44.5-19.87C1043.33,578.73,1037.82,573.54,1029,569.91Z"/><path class="cls-7" d="M452.89,427.41v9.1l-1.05,1.09c-.37.38-9.25,9.41-26.78,9.82H424a44.56,44.56,0,0,1-27.93-9.62l-1.28-1.12v-9.28c-8.47,3.5-13.77,8.5-13.77,14,0,10.57,19.17,19.14,42.83,19.14s42.83-8.57,42.83-19.14C466.66,435.91,461.36,430.91,452.89,427.41Z"/><path class="cls-7" d="M427.14,116.45c-12.92-7.89-24.08-2.55-26.72,0s-8.32,10.66,1.27,18.07c-17.62,0-19.18-9.89-19.18-9.89V150s1.56-9.88,19.18-9.88c-9.59,7.41-3.92,15.52-1.27,18.07s13.8,7.88,26.72,0,15-20.86,22-20.86C442.11,137.3,440.05,124.33,427.14,116.45Z"/><path class="cls-7" d="M887.44,110.75c-3,4.84-1,9,0,10s4,3.12,6.77-.47c0,6.59-3.7,7.18-3.7,7.18H900s-3.7-.59-3.7-7.18c2.77,3.59,5.81,1.46,6.77.47s3-5.16,0-10-7.81-5.6-7.81-8.24C895.25,105.15,890.39,105.92,887.44,110.75Z"/><path class="cls-7" d="M93.89,109.51c-17.21-10.5-32.08-3.39-35.6,0S47.21,123.72,60,133.6c-23.47,0-25.56-13.18-25.56-13.18v33.77S36.52,141,60,141c-12.78,9.88-5.22,20.69-1.7,24.09s18.39,10.5,35.6,0,20-27.8,29.34-27.8C113.84,137.3,111.1,120,93.89,109.51Zm-22.77,42.7V122.4l25.82,14.9Z"/><path class="cls-7" d="M200.36,113.11c-15-9.14-27.93-3-31,0s-9.66,12.36,1.47,21c-20.43,0-22.25-11.47-22.25-11.47V152s1.82-11.47,22.25-11.47c-11.13,8.6-4.54,18-1.47,21s16,9.14,31,0,17.37-24.2,25.54-24.2C217.73,137.3,215.35,122.25,200.36,113.11ZM185.6,146.66h-4.49V128h4.49Zm9.62,0h-4.49V128h4.49Z"/><rect class="cls-7" x="228.58" y="105.14" width="10.13" height="64.33"/><path class="cls-7" d="M323.89,109.51c-17.21-10.5-32.08-3.39-35.6,0s-11.08,14.21,1.7,24.09c-23.47,0-25.56-13.18-25.56-13.18v33.77S266.52,141,290,141c-12.78,9.88-5.22,20.69-1.7,24.09s18.39,10.5,35.6,0,19.95-27.8,29.34-27.8C343.84,137.3,341.1,120,323.89,109.51Zm.27,39.29h-24v-24h24Z"/><polygon class="cls-8" points="442.94 164.97 441.39 163.74 463.38 137.31 441.39 110.87 442.94 109.64 465.95 137.31 442.94 164.97"/><path class="cls-7" d="M584.51,145.64V129L570.84,128v.05c-.06-.2-.13-.39-.19-.59s-.19-.62-.3-.92-.24-.7-.37-1-.25-.65-.39-1-.27-.63-.41-1-.31-.67-.47-1l-.44-.86c-.1-.18-.19-.37-.29-.56l0,0,9-10.32L565.24,99.11l-10.32,9,0,0-.57-.3-.8-.41c-.35-.17-.71-.34-1.08-.5s-.58-.26-.87-.38l-1-.42-1-.34q-.51-.18-1-.33l-.53-.17h0l-.93-13.67H530.5l-.93,13.67h0c-.16,0-.33.11-.49.16-.36.1-.71.22-1.06.34s-.62.21-.92.33l-1.09.43-.84.36-1.12.53c-.25.13-.5.25-.75.39l-.58.29,0,0-10.33-9L500.65,110.9l9,10.32h0c-.11.2-.2.4-.3.6s-.27.51-.4.77-.35.73-.51,1.1-.26.57-.38.86l-.42,1.06c-.11.32-.23.63-.34,1l-.33,1c-.05.18-.12.36-.17.54V128l-13.67.93v16.67l13.67.93v-.07c.06.2.13.4.19.6s.2.63.31.94.24.69.37,1,.25.64.38,1,.28.64.42,1,.3.67.47,1,.29.59.45.88.18.38.29.56l-.05-.05-9,10.32,11.79,11.79,10.32-9,0-.05.5.26c.31.17.63.33.95.49l.92.43c.35.16.69.31,1,.45l.87.35,1.14.41.83.27.63.2h0l.94,13.67h16.66l.93-13.67h0l.62-.2.81-.26q.59-.19,1.17-.42.42-.15.84-.33c.36-.15.72-.3,1.08-.47l.88-.41,1-.51.47-.24,0,0,10.33,9L577,163.7l-9-10.32,0,0,.26-.5c.16-.31.33-.63.48-1s.3-.61.44-.92l.45-1c.12-.29.23-.59.35-.89s.27-.74.4-1.12.19-.57.27-.85.14-.41.2-.61v0ZM538.83,165.3a28,28,0,1,1,28-28A28,28,0,0,1,538.83,165.3Z"/><path class="cls-7" d="M538.83,140.55c-9.11,0-16.5,3.81-16.5,8.5s7.39,5.67,16.5,5.67,16.5-1,16.5-5.67S547.94,140.55,538.83,140.55Zm0,11.5c-5.43,0-9.83-1.34-9.83-3s4.4-3,9.83-3,9.83,1.35,9.83,3S544.26,152.05,538.83,152.05Z"/><path class="cls-7" d="M538.83,139.55a29.46,29.46,0,0,1,9.25,1.41V123.11s-1.75-2.81-9.25-2.81-9.25,2.81-9.25,2.81V141A29.51,29.51,0,0,1,538.83,139.55Z"/><path class="cls-7" d="M653.83,96.3c-9.56,7.78-44.56,28.85-44.89,44.41s15.72,17.5,22.45,13c2.88-1.94,7.42-4.6,11.66-7L631.38,178.3h14.83V151.91h15.24V178.3h14.83l-11.66-31.64c4.24,2.41,8.77,5.07,11.66,7,6.72,4.54,22.76,2.6,22.44-13S663.39,104.08,653.83,96.3Z"/><circle class="cls-7" cx="649.09" cy="165.5" r="1.09"/><path class="cls-7" d="M723.66,107.3v60H814v-60Zm32,8.54a7.31,7.31,0,0,1,10.3,0l2.83,2.84,2.84-2.84A7.28,7.28,0,1,1,782,126.13L779.12,129l-10.29,10.29L758.54,129l-2.84-2.84A7.3,7.3,0,0,1,755.7,115.84Zm54,47.19H727.94V111.58h.45L768.83,145l40.44-33.39h.45Z"/><path class="cls-7" d="M881.57,129h0a5.37,5.37,0,0,0-7.57,0l-2.09,2.08L869.83,129a5.37,5.37,0,0,0-7.57,0h0a5.36,5.36,0,0,0,0,7.56l2.09,2.09,7.56,7.57,7.57-7.57,2.09-2.09A5.36,5.36,0,0,0,881.57,129Z"/><path class="cls-7" d="M177,536.33h0a3.1,3.1,0,0,0-4.35,0l-1.2,1.2-1.19-1.2a3.1,3.1,0,0,0-4.35,0h0a3.1,3.1,0,0,0,0,4.35l1.2,1.2,4.34,4.34,4.35-4.34,1.2-1.2A3.1,3.1,0,0,0,177,536.33Z"/><path class="cls-7" d="M987.08,384.62h0a3.39,3.39,0,0,0-4.77,0L981,385.93l-1.32-1.31a3.37,3.37,0,0,0-4.76,0h0a3.37,3.37,0,0,0,0,4.77l1.31,1.31,4.77,4.77,4.77-4.77,1.31-1.31A3.39,3.39,0,0,0,987.08,384.62Z"/><path class="cls-7" d="M1012,410.18h0a7.3,7.3,0,0,0-10.31,0L998.83,413,996,410.18a7.29,7.29,0,0,0-10.3,0h0a7.3,7.3,0,0,0,0,10.31l2.83,2.83,10.31,10.31,10.31-10.31,2.84-2.83A7.32,7.32,0,0,0,1012,410.18Z"/><rect class="cls-7" x="915" y="115.3" width="5.17" height="67.78"/><rect class="cls-7" x="892.66" y="127.46" width="5.17" height="55.32"/><rect class="cls-7" x="869.33" y="146.76" width="5.17" height="36.02"/><rect class="cls-7" x="846.12" y="159.89" width="5.17" height="22.89"/><path class="cls-7" d="M308.83,322l-31.28-42.52,31.28-45.38,31.28,45.38Zm-26.37-42.6,26.37,35.85,26.37-35.85L308.83,241.1Z"/><path class="cls-7" d="M922.33,98.27a5.18,5.18,0,0,0,.28-1.64,5,5,0,1,0-10.05,0,4.91,4.91,0,0,0,.28,1.64,5,5,0,0,0,.18,10,5.15,5.15,0,0,0,1.81-.34L913,115.3h9.12L920.33,108a5.15,5.15,0,0,0,1.81.34,5,5,0,0,0,.19-10Z"/><path class="cls-7" d="M979.91,95l-19.62,17.12v67.45h55l22.1-20V95Zm35.36,17.12H998.83a11,11,0,0,1-22.1,0H962.16l18.16-16h56.25Z"/><path class="cls-7" d="M99.18,277.65V241.93s-3.84-5.47-20.31-5.47-20.31,5.47-20.31,5.47v35.72H43.66v9.44h70.42v-9.44Z"/><path class="cls-7" d="M97.24,294a11.64,11.64,0,0,0-10.81,7.4,8.55,8.55,0,0,0-15.28,0,11.58,11.58,0,1,0,.81,4.22c0-4.95,3.54-7.21,6.83-7.21s6.84,2.26,6.84,7.21A11.62,11.62,0,1,0,97.24,294Zm-36.9,21.52a9.9,9.9,0,1,1,9.9-9.9A9.92,9.92,0,0,1,60.34,315.49Zm36.9,0a9.9,9.9,0,1,1,9.91-9.9A9.91,9.91,0,0,1,97.24,315.49Z"/><path class="cls-7" d="M227.64,242.66v-9.11H203v39.69a13.5,13.5,0,0,0-7.15,3.73l-5.29,5.3-5.29-5.3A13.64,13.64,0,0,0,166,277h0a13.62,13.62,0,0,0,0,19.22l5.29,5.3,19.22,19.22,19.22-19.22,5.29-5.3A13.62,13.62,0,0,0,215,277h0a13.43,13.43,0,0,0-7.57-3.79V242.66Z"/><path class="cls-7" d="M1113.83,101.05c-24.93,0-45.14,8.23-45.14,18.39,0,6,7,11.28,17.84,14.63v35s5.16,8.27,27.3,8.27,27.3-8.27,27.3-8.27v-35c10.84-3.35,17.84-8.66,17.84-14.63C1159,109.28,1138.76,101.05,1113.83,101.05Zm0,69.32a17.5,17.5,0,0,1-17-13.56h-2.1l5.13-7.9,5.12,7.9h-2.42a12,12,0,0,0,22.6,0h5.73A17.49,17.49,0,0,1,1113.83,170.37Zm14.08-13.57-5.12-7.89h2.32a12,12,0,0,0-22.56,0h-5.73a17.47,17.47,0,0,1,34,0H1133Zm-14.08-30.2c-13.58,0-24.6-3.51-24.6-7.84s11-7.83,24.6-7.83,24.6,3.5,24.6,7.83S1127.42,126.6,1113.83,126.6Z"/><path class="cls-7" d="M316.58,270a10.6,10.6,0,0,0-7.75,3.16,10.6,10.6,0,0,0-7.75-3.16c-5.37,0-9.75,3.59-9.75,8s4.38,8,9.75,8a10.57,10.57,0,0,0,7.75-3.17,10.57,10.57,0,0,0,7.75,3.17c5.38,0,9.75-3.59,9.75-8S322,270,316.58,270Zm-15.5,12c-3.12,0-5.75-1.83-5.75-4s2.63-4,5.75-4,5.75,1.83,5.75,4S304.2,282,301.08,282Zm15.5,0c-3.12,0-5.75-1.83-5.75-4s2.63-4,5.75-4,5.75,1.83,5.75,4S319.7,282,316.58,282Z"/><polygon class="cls-7" points="848.7 160 857.91 147.98 848.7 135.97 839.49 147.98 848.7 160"/><polygon class="cls-7" points="424.83 258.07 434.04 246.06 424.83 234.05 415.62 246.06 424.83 258.07"/><polygon class="cls-7" points="550.12 280.2 546.3 281.41 557.71 317.29 540.08 317.29 538.91 317.29 521.29 317.29 532.69 281.41 528.88 280.2 515.82 321.29 538.91 321.29 540.08 321.29 563.17 321.29 550.12 280.2"/><path class="cls-7" d="M545.26,264.54a5.45,5.45,0,0,0-5.22-2.91c-3.89,0-4.92,2.76-4.93,2.79l-3.76-1.35a8.92,8.92,0,0,1,8.69-5.44,9.47,9.47,0,0,1,8.9,5.34Z"/><path class="cls-7" d="M551.26,257.11c-.11-.27-2.9-6.46-11.33-6.46s-10.72,6.1-10.82,6.36l-3.76-1.36c.13-.37,3.34-9,14.58-9s14.86,8.54,15,8.9Z"/><path class="cls-7" d="M557.26,248.09c-.18-.41-4.45-10-17.44-10s-16.67,9.8-16.71,9.9l-3.76-1.34c.18-.52,4.66-12.56,20.47-12.56s20.91,11.95,21.12,12.46Z"/><path class="cls-7" d="M556.84,286.85l-1.55-3.69.78,1.85-.8-1.84a5.46,5.46,0,0,0,2.91-5.22c0-3.73-2.52-4.83-2.81-4.94l1.37-3.76c.22.08,5.44,2,5.44,8.7A9.47,9.47,0,0,1,556.84,286.85Z"/><path class="cls-7" d="M564.43,292.85l-1.55-3.68c.26-.12,6.46-2.9,6.46-11.33S563.24,267.11,563,267l1.36-3.77c.36.14,9,3.35,9,14.59S564.8,292.7,564.43,292.85Z"/><path class="cls-7" d="M572.11,298.85l-1.55-3.69.78,1.85-.79-1.84c.41-.18,10-4.45,10-17.44s-9.81-16.67-9.91-16.71l1.35-3.77c.51.19,12.56,4.67,12.56,20.48S572.62,298.64,572.11,298.85Z"/><path class="cls-7" d="M522.38,286.89a8.91,8.91,0,0,1-5.45-8.69,9.48,9.48,0,0,1,5.35-8.91l1.54,3.69-.77-1.84.79,1.83a5.48,5.48,0,0,0-2.91,5.23c0,3.73,2.53,4.82,2.82,4.94Z"/><path class="cls-7" d="M514.78,292.89c-.37-.13-9-3.34-9-14.58s8.54-14.86,8.9-15l1.54,3.69-.77-1.84.79,1.84c-.27.11-6.46,2.9-6.46,11.33s6.1,10.72,6.36,10.82Z"/><path class="cls-7" d="M507.11,298.89c-.52-.18-12.56-4.67-12.56-20.47S506.5,257.51,507,257.29l1.54,3.69-.77-1.84.78,1.84c-.41.18-10,4.44-10,17.44s9.8,16.67,9.9,16.71Z"/><rect class="cls-7" x="417.66" y="259.69" width="14.33" height="62.64"/><rect class="cls-7" x="991.66" y="277.14" width="14.33" height="46.33"/><rect class="cls-7" x="991.66" y="266.29" width="14.33" height="8.18"/><rect class="cls-7" x="679.8" y="240.67" width="13.37" height="8.83" transform="translate(374.37 -413.63) rotate(45)"/><polygon class="cls-7" points="663.29 277.71 684.78 254.54 680.91 250.66 677.03 246.79 653.5 268.62 629.97 246.79 626.09 250.66 622.21 254.54 643.7 277.71 612.66 306.5 618.87 312.7 625.07 318.91 653.5 288.27 681.92 318.91 688.13 312.7 694.33 306.5 663.29 277.71"/><rect class="cls-7" x="613.83" y="240.67" width="13.37" height="8.83" transform="translate(8.44 510.55) rotate(-45)"/><polygon class="cls-7" points="756.68 254.75 764.91 262.98 771.54 238.24 746.8 244.87 753.75 251.82 723.23 278.06 762.33 312.56 765.07 309.46 729.52 278.1 756.68 254.75"/><polygon class="cls-7" points="813.08 278.07 773.98 243.57 771.24 246.67 806.79 278.03 779.63 301.38 771.4 293.15 764.77 317.89 789.51 311.26 782.56 304.31 813.08 278.07"/><path class="cls-7" d="M922.35,246.83h0a21.41,21.41,0,0,0-30.2,0l-8.32,8.32-8.32-8.32a21.41,21.41,0,0,0-30.2,0h0a21.41,21.41,0,0,0,0,30.2l8.32,8.32,30.2,30.2,30.2-30.2,8.32-8.32A21.41,21.41,0,0,0,922.35,246.83Zm-16,15-29.06,28.08-9.43-13.67a1.27,1.27,0,0,1,2.09-1.45L877.66,286l26.91-26a1.27,1.27,0,1,1,1.76,1.83Z"/><path class="cls-7" d="M998.83,234.27a14,14,0,1,0,14,14A14,14,0,0,0,998.83,234.27Zm6.83,15.87h-5.33v5.33h-3v-5.33H992v-3h5.33V241.8h3v5.34h5.33Z"/><rect class="cls-7" x="1106.66" y="277.49" width="14.33" height="46.33"/><rect class="cls-7" x="1106.66" y="266.64" width="14.33" height="8.18"/><rect class="cls-7" x="71.66" y="418.48" width="14.33" height="46.33"/><rect class="cls-7" x="71.66" y="407.64" width="14.33" height="8.18"/><path class="cls-7" d="M1113.83,234.62a14,14,0,1,0,14,14A14,14,0,0,0,1113.83,234.62Zm6.83,16H1107v-3h13.66Z"/><ellipse class="cls-7" cx="51.94" cy="411.53" rx="9.83" ry="2.5"/><ellipse class="cls-7" cx="78.83" cy="384.78" rx="2.5" ry="9.83"/><ellipse class="cls-7" cx="61.61" cy="391.86" rx="2.5" ry="9.83" transform="translate(-259.04 158.34) rotate(-45)"/><ellipse class="cls-7" cx="95.78" cy="391.86" rx="9.83" ry="2.5" transform="translate(-249.03 182.5) rotate(-45)"/><ellipse class="cls-7" cx="105.6" cy="411.61" rx="9.83" ry="2.5"/><path class="cls-7" d="M211.55,440.21a53.59,53.59,0,0,1-14.25-2c-18.06-5-20.93-22.26-21.38-27.44l-27-8.78,10.33-.7c.06,0,7.9-.73,18.84-10l1.49-1.27c9.05-7.73,15-12.83,25.7-7.49,5.83,2.92,7.41,11,9.09,19.58,1.48,7.57,3,15.4,7.5,18,2.91,1.66,5.55,3,7.68,4.14,5.45,2.84,7.94,4.13,8.06,6.43a3.12,3.12,0,0,1-1.62,2.83A45.2,45.2,0,0,1,211.55,440.21ZM166.2,403.43l13.63,4.42v1.45c0,.82.28,20.06,18.53,25.08,18,4.93,30.67-1.38,34.54-3.72-1.13-.76-3.21-1.84-5.24-2.9s-4.85-2.52-7.82-4.22c-6.09-3.48-7.8-12.22-9.45-20.68-1.41-7.24-2.87-14.73-6.95-16.77-8.3-4.15-12.38-.67-21.31,7l-1.5,1.28A54.07,54.07,0,0,1,166.2,403.43Z"/><rect class="cls-7" x="203.33" y="438.05" width="4" height="20"/><polygon class="cls-7" points="212.11 459.41 205.15 451.82 197.12 458.58 194.54 455.52 205.51 446.29 215.06 456.7 212.11 459.41"/><path class="cls-7" d="M212.31,433a53.65,53.65,0,0,1-8.28-.68c-9.15-1.41-13.22-14.51-14.83-22.19l-.06-.3,3.88-1c0,.07,0,.23.1.45,2.34,11.19,6.64,18.31,11.52,19.06,8.2,1.26,12.67.31,14.58-.09l.78-.16.66,3.95c-.16,0-.36.07-.61.12A34.9,34.9,0,0,1,212.31,433Z"/><path class="cls-7" d="M190.46,398.62a5.89,5.89,0,0,1-3.16-.94,10,10,0,0,0-5.3-1.38c-.78,0-.86-.45-.85-.64,0-1.31,8.18-3.4,9.93-3.37a5.55,5.55,0,0,1,3.55,1.85,3.85,3.85,0,0,0,2.33,1.35c.8,0,1,.35,1,.64C197.93,397.32,192.33,398.62,190.46,398.62Zm-7.35-3.25a10.3,10.3,0,0,1,4.67,1.43,4.86,4.86,0,0,0,2.68.82,18.26,18.26,0,0,0,5.65-1.27,6.37,6.37,0,0,1-2.15-1.46,4.62,4.62,0,0,0-2.9-1.6A30.22,30.22,0,0,0,183.11,395.37Z"/><path class="cls-7" d="M190.64,398.55c-1.19,0-2.12-1.22-2.12-2.78s.93-2.78,2.12-2.78,2.13,1.22,2.13,2.78S191.84,398.55,190.64,398.55Zm0-4.56c-.61,0-1.12.82-1.12,1.78s.51,1.78,1.12,1.78,1.13-.81,1.13-1.78S191.25,394,190.64,394Z"/><path class="cls-7" d="M329.54,443.85a42.81,42.81,0,0,1-11.47-1.59c-14.36-3.94-16.87-17.5-17.31-22l-23.15-7.51,10.11-.69s6.21-.59,14.83-7.92l1.19-1c7.33-6.26,12.18-10.4,20.91-6,4.82,2.41,6.16,9.26,7.45,15.88,1.17,6,2.37,12.13,5.82,14.1,2.31,1.32,4.42,2.42,6.12,3.3,4.47,2.33,6.51,3.39,6.62,5.43a2.86,2.86,0,0,1-1.45,2.58A36.52,36.52,0,0,1,329.54,443.85Zm-35.17-29.76,10.21,3.31v1.42c0,.64.23,15.74,14.53,19.67,13.49,3.71,23.22-.61,26.78-2.63-.95-.57-2.36-1.31-3.66-2-1.73-.9-3.88-2-6.26-3.38-5-2.86-6.38-9.92-7.71-16.75-1.11-5.69-2.26-11.58-5.36-13.13-6.41-3.21-9.4-.66-16.61,5.5l-1.2,1A45,45,0,0,1,294.37,414.09Z"/><path class="cls-7" d="M329.54,443.85a42.81,42.81,0,0,1-11.47-1.59c-14.36-3.94-16.87-17.5-17.31-22l-23.15-7.51,10.11-.69s6.21-.59,14.83-7.92l1.19-1c7.33-6.26,12.18-10.4,20.91-6,4.82,2.41,6.16,9.26,7.45,15.88,1.17,6,2.37,12.13,5.82,14.1,2.31,1.32,4.42,2.42,6.12,3.3,4.47,2.33,6.51,3.39,6.62,5.43a2.86,2.86,0,0,1-1.45,2.58A36.52,36.52,0,0,1,329.54,443.85Zm-35.17-29.76,10.21,3.31v1.42c0,.64.23,15.74,14.53,19.67,13.49,3.71,23.22-.61,26.78-2.63-.95-.57-2.36-1.31-3.66-2-1.73-.9-3.88-2-6.26-3.38-5-2.86-6.38-9.92-7.71-16.75-1.11-5.69-2.26-11.58-5.36-13.13-6.41-3.21-9.4-.66-16.61,5.5l-1.2,1A45,45,0,0,1,294.37,414.09Z"/><polygon class="cls-7" points="329.71 459.06 324.4 453.26 318.25 458.44 315.73 455.44 324.75 447.85 332.6 456.41 329.71 459.06"/><path class="cls-7" d="M330.15,438.07a43.23,43.23,0,0,1-6.67-.55c-7.52-1.15-10.83-11.77-12.13-18l-.05-.24,3.8-.94c0,.06,0,.19.08.37,1.84,8.78,5.16,14.36,8.89,14.93,6.49,1,10,.25,11.52-.07l.63-.13.65,3.87-.47.09A28,28,0,0,1,330.15,438.07Z"/><rect class="cls-7" x="322.62" y="441.77" width="3.92" height="15.96"/><path class="cls-7" d="M329.54,443.85a42.81,42.81,0,0,1-11.47-1.59c-14.36-3.94-16.87-17.5-17.31-22l-23.15-7.51,10.11-.69s6.21-.59,14.83-7.92l1.19-1c7.33-6.26,12.18-10.4,20.91-6,4.82,2.41,6.16,9.26,7.45,15.88,1.17,6,2.37,12.13,5.82,14.1,2.31,1.32,4.42,2.42,6.12,3.3,4.47,2.33,6.51,3.39,6.62,5.43a2.86,2.86,0,0,1-1.45,2.58A36.52,36.52,0,0,1,329.54,443.85Zm-35.17-29.76,10.21,3.31v1.42c0,.64.23,15.74,14.53,19.67,13.49,3.71,23.22-.61,26.78-2.63-.95-.57-2.36-1.31-3.66-2-1.73-.9-3.88-2-6.26-3.38-5-2.86-6.38-9.92-7.71-16.75-1.11-5.69-2.26-11.58-5.36-13.13-6.41-3.21-9.4-.66-16.61,5.5l-1.2,1A45,45,0,0,1,294.37,414.09Z"/><polygon class="cls-7" points="329.71 459.06 324.4 453.26 318.25 458.44 315.73 455.44 324.75 447.85 332.6 456.41 329.71 459.06"/><path class="cls-7" d="M330.15,438.07a43.23,43.23,0,0,1-6.67-.55c-7.52-1.15-10.83-11.77-12.13-18l-.05-.24,3.8-.94c0,.06,0,.19.08.37,1.84,8.78,5.16,14.36,8.89,14.93,6.49,1,10,.25,11.52-.07l.63-.13.65,3.87-.47.09A28,28,0,0,1,330.15,438.07Z"/><rect class="cls-7" x="322.62" y="441.77" width="3.92" height="15.96"/><path class="cls-7" d="M306.55,402.87l-12.41-12.4,5.52-5.52-30.23-8.1,8.1,30.23,6.42-6.41,9.73,9.73A38.13,38.13,0,0,0,306.55,402.87Z"/><path class="cls-7" d="M423.83,375.52c-20.51,0-25.29,7.66-25.29,7.66V435A41.09,41.09,0,0,0,425,443.65c16.18-.38,24.15-8.66,24.15-8.66V383.18S444.34,375.52,423.83,375.52Zm-.74,48.88a2.28,2.28,0,0,1-2.26-2.35,2.35,2.35,0,0,1,2.3-2.61,2.49,2.49,0,0,1,0,5Zm4.33-16.47c-2.26,1.91-3.24,3.71-3.24,5.7a8.63,8.63,0,0,0,.08,1l.2,1.21h-2.93a11.55,11.55,0,0,1-.31-2.42c0-2.18,1-4.21,3.7-6.63s4.3-4,4.3-6.24c0-2.42-2.15-4.18-6.48-4.18a14.41,14.41,0,0,0-6.48,1.52l-1.05-2.26a18.44,18.44,0,0,1,7.88-1.79c6.75,0,9.36,3.16,9.36,6.4C432.45,403.21,430.5,405.32,427.42,407.93Z"/><rect class="cls-7" x="539.39" y="407.55" width="6.88" height="5.11"/><rect class="cls-7" x="531.22" y="407.55" width="6.88" height="5.11"/><rect class="cls-7" x="522.76" y="407.55" width="7.17" height="5.11"/><rect class="cls-7" x="522.76" y="414.09" width="7.17" height="5.19"/><rect class="cls-7" x="522.76" y="420.7" width="7.17" height="5.19"/><rect class="cls-7" x="539.39" y="414.09" width="6.88" height="5.19"/><rect class="cls-7" x="531.22" y="420.7" width="6.88" height="5.19"/><rect class="cls-7" x="531.22" y="414.09" width="6.88" height="5.19"/><rect class="cls-7" x="539.39" y="420.7" width="6.88" height="5.19"/><rect class="cls-7" x="547.55" y="427.32" width="7.17" height="5.24"/><rect class="cls-7" x="547.55" y="414.09" width="7.17" height="5.19"/><rect class="cls-7" x="547.55" y="420.7" width="7.17" height="5.19"/><rect class="cls-7" x="547.55" y="407.55" width="7.17" height="5.11"/><rect class="cls-7" x="522.76" y="427.32" width="7.17" height="5.24"/><rect class="cls-7" x="531.22" y="427.32" width="6.88" height="5.24"/><path class="cls-7" d="M538.83,374.73c-21.3,0-26.28,8-26.28,8v53.83a42.69,42.69,0,0,0,27.47,9c16.81-.4,25.09-9,25.09-9V382.69S560.14,374.73,538.83,374.73Zm.74,23.24,1.44-1.44c2.45-2.37,3.89-3.93,3.89-5.56a1.82,1.82,0,0,0-2-1.94,4.46,4.46,0,0,0-2.42.88l-.7-1.69a6.43,6.43,0,0,1,3.63-1.09c2.78,0,4,1.65,4,3.62,0,2.14-1.56,3.9-3.44,5.68l-1.08,1v0h4.76v2h-8.1Zm-6-10.65h2.12v12.1h-2.46v-10h0L531,390.52l-.55-1.69Zm22.63,19.73v26.88H521.41V406.05h34.84Z"/><rect class="cls-7" x="539.39" y="427.32" width="6.88" height="5.24"/><path class="cls-7" d="M653.83,374.73c-21.3,0-26.28,8-26.28,8v53.83a42.69,42.69,0,0,0,27.47,9c16.81-.4,25.09-9,25.09-9V382.69S675.14,374.73,653.83,374.73ZM651,427.3H638.33V414.64H651Zm0-19H638.33V395.64H651Zm18.66,19H657V414.64h12.66Zm0-19H657V395.64h12.66Z"/><path class="cls-7" d="M768.83,402a19,19,0,1,0,19,19A19,19,0,0,0,768.83,402Zm7.25,25.44v-2.1h-5.87v0h-2.75V412.19H766l1.5-4.05v-.46h.17l1.2-3.25,1.21,3.25h.17v.46l1.5,4.05h-1.5v8.41h5.87v-2.11l7.75,4.48Z"/><path class="cls-7" d="M807.17,390.81h0a21.31,21.31,0,0,0-30.06,0l-8.28,8.28-8.28-8.28a21.31,21.31,0,0,0-30.06,0h0a21.33,21.33,0,0,0,0,30.06l8.28,8.28,30.06,30.06,30.06-30.06,8.28-8.28A21.31,21.31,0,0,0,807.17,390.81ZM768.83,441a20,20,0,1,1,20-20A20,20,0,0,1,768.83,441Z"/><path class="cls-7" d="M1015.78,463.76h-33.9a14,14,0,0,1-14-14V387.93a14,14,0,0,1,14-14h33.9a14,14,0,0,1,14,14v61.83A14,14,0,0,1,1015.78,463.76Zm-33.9-85.83a10,10,0,0,0-10,10v61.83a10,10,0,0,0,10,10h33.9a10,10,0,0,0,10-10V387.93a10,10,0,0,0-10-10Z"/><path class="cls-7" d="M1130.78,463.76h-33.9a14,14,0,0,1-14-14V387.93a14,14,0,0,1,14-14h33.9a14,14,0,0,1,14,14v61.83A14,14,0,0,1,1130.78,463.76Zm-33.9-85.83a10,10,0,0,0-10,10v61.83a10,10,0,0,0,10,10h33.9a10,10,0,0,0,10-10V387.93a10,10,0,0,0-10-10Z"/><path class="cls-7" d="M1133.08,426.55c2,0,2.5-2.25,2.5-5s-3.75-1-2-1.75,1.75-5,1.25-6.25-15.25-1-16.25-1.5.75-5.75,1.25-9.25-3.5-5.25-7.5-6.75-.25,7.75-1,10.5-3.75,6.5-7.75,10.75l-.75,19s3,2.75,4.5,2.75l2.44.06a25.68,25.68,0,0,0,17.49,0,10.5,10.5,0,0,0,3.32-.55c2.25-1.25-1.5-4.5,0-4.5s3-2,3.5-4.5S1131.08,426.55,1133.08,426.55Z"/><path class="cls-7" d="M69.16,571.7c4,4.25,7,8,7.75,10.75s-3,12,1,10.5,8-3.25,7.5-6.75-2.25-8.75-1.25-9.25,15.75-.25,16.25-1.5.5-5.5-1.25-6.25,2,1,2-1.75-.5-5-2.5-5,1.5-.5,1-3-2-4.5-3.5-4.5,2.25-3.25,0-4.5-21.75-.5-23.25-.5-4.5,2.75-4.5,2.75Z"/><rect class="cls-7" x="1088.08" y="416.55" width="14" height="22"/><rect class="cls-7" x="53.08" y="552.05" width="14" height="22"/><path class="cls-7" d="M212.33,516.6H186.45A14.07,14.07,0,0,0,176,521.4a14.12,14.12,0,0,0-7.2,4.59,14,14,0,0,0-10.1,13.41v49.94a14,14,0,0,0,14,14h25.88a13.88,13.88,0,0,0,10.5-4.78,14,14,0,0,0,7.61-4.72,14,14,0,0,0,9.68-13.3V530.6A14,14,0,0,0,212.33,516.6Zm3,68.27a10,10,0,0,1-2.65,6.76,14.18,14.18,0,0,0,.2-2.36V539.34a14,14,0,0,0-14-14H177.5l.55-.15.12-.16a9.07,9.07,0,0,1,1.28-.09h25.88a10,10,0,0,1,10,10Zm-42.67,14.47a10,10,0,0,1-10-10V539.4a10,10,0,0,1,6.82-9.45l.91-.25a9.87,9.87,0,0,1,1.18-.24l.11,0h0a9.72,9.72,0,0,1,1.31-.09h25.88a10,10,0,0,1,10,10v49.93a9.86,9.86,0,0,1-1.75,5.59l-.27,0-.48.6a10,10,0,0,1-7.84,3.83Zm49.67-18.8A10,10,0,0,1,219,588a13.86,13.86,0,0,0,.36-3.11V534.94a14,14,0,0,0-14-14h-21.4a9.69,9.69,0,0,1,2.52-.34h25.88a10,10,0,0,1,10,10Z"/><circle class="cls-7" cx="338.83" cy="590.14" r="4"/><rect class="cls-7" x="330.29" y="597.05" width="17.08" height="2"/><circle class="cls-7" cx="278.83" cy="590.14" r="4"/><rect class="cls-7" x="270.29" y="597.05" width="17.08" height="2"/><circle class="cls-7" cx="308.83" cy="590.14" r="4"/><rect class="cls-7" x="300.29" y="597.05" width="17.08" height="2"/><path class="cls-7" d="M330.49,534.25h0a11.91,11.91,0,0,0-7.12-3.42C321,523.9,315.47,519,309.06,519s-11.92,4.86-14.3,11.77a11.93,11.93,0,0,0-7.59,3.46h0a12.05,12.05,0,0,0,0,17l4.68,4.67,17,17,17-17,4.67-4.67A12,12,0,0,0,330.49,534.25Zm-21.8,20a3.89,3.89,0,1,1,3.89-3.89A3.89,3.89,0,0,1,308.69,554.3Zm.14-15.37-4.68-4.68a11.83,11.83,0,0,0-4.47-2.8c1.82-4.51,5.34-7.57,9.38-7.57s7.48,3,9.32,7.43a12,12,0,0,0-4.87,2.94Z"/><path class="cls-7" d="M575.11,539.75h0a20,20,0,0,0-13.31-5.81c-3.89-10.79-12.51-18.32-22.5-18.32s-18.6,7.51-22.49,18.28a20,20,0,0,0-14.07,5.85h0a20.1,20.1,0,0,0,0,28.37l7.81,7.82,28.37,28.36,28.37-28.36,7.82-7.82A20.12,20.12,0,0,0,575.11,539.75Zm-36.42,33.48a6.49,6.49,0,1,1,6.49-6.49A6.49,6.49,0,0,1,538.69,573.23Zm.23-25.66-7.81-7.82a20,20,0,0,0-8.71-5.09c3.24-8,9.59-13.53,16.9-13.53s13.57,5.41,16.83,13.37a19.83,19.83,0,0,0-9.39,5.25Z"/><path class="cls-7" d="M447.4,521.71c-10,0-18.32,9.52-19.48,21.76a15.61,15.61,0,0,0-7.15,4.08l-6.14,6.14-6.15-6.14a15.8,15.8,0,0,0-22.3,0h0a15.8,15.8,0,0,0,0,22.3l6.14,6.15,22.31,22.3L436.94,576l6.14-6.15a15.8,15.8,0,0,0,0-22.3h0A15.7,15.7,0,0,0,432.76,543c1.21-9.37,7.31-16.52,14.64-16.52,8.2,0,14.87,8.95,14.87,19.95H467C467,532.79,458.22,521.71,447.4,521.71Zm-32.95,52.16a5.1,5.1,0,1,1,5.1-5.1A5.1,5.1,0,0,1,414.45,573.87Z"/><path class="cls-7" d="M697,591.78H665.5v-4H695v-59H665.5v-4H697a2,2,0,0,1,2,2v63A2,2,0,0,1,697,591.78Z"/><path class="cls-7" d="M673.37,539.31c-11.47-7-21.38-2.26-23.72,0s-7.39,9.47,1.13,16.05c-15.64,0-17-8.78-17-8.78v22.5s1.39-8.78,17-8.78c-8.52,6.58-3.48,13.78-1.13,16.05s12.25,7,23.72,0,13.29-18.52,19.54-18.52C686.66,557.83,684.83,546.31,673.37,539.31Z"/><rect class="cls-7" x="608.83" y="551.8" width="23.5" height="1.5"/><rect class="cls-7" x="608.83" y="557.14" width="23.5" height="1.5"/><rect class="cls-7" x="608.83" y="561.8" width="23.5" height="1.5"/><path class="cls-7" d="M810.6,556.79l-39.11-39.1-2.83-2.83-2.82,2.83-39.11,39.1-2.83,2.83,2.83,2.83,39.11,39.1,2.82,2.83,2.83-2.83,39.11-39.1,2.82-2.83Zm-41.94,41.93-17.89-17.89L783,581v-6.5l-40.12-1.56L731.94,562H772v-6.5H733.68l10.78-10.78L766,544.5V538H751.18l17.48-17.48,39.11,39.1Z"/><path class="cls-7" d="M883.83,515.23c-21.3,0-26.28,8-26.28,8V577A42.69,42.69,0,0,0,885,586c16.81-.4,25.09-9,25.09-9V523.19S905.14,515.23,883.83,515.23Zm-1.4,60V552.37h-4.58l7.38-23.82V551.4h4.58Z"/><path class="cls-7" d="M998.83,515.23c-21.3,0-26.28,8-26.28,8V577a42.69,42.69,0,0,0,27.47,9c16.81-.4,25.09-9,25.09-9V523.19S1020.14,515.23,998.83,515.23Zm15.25,43.87h-11v11h-8.5v-11h-11v-8.5h11v-11h8.5v11h11Z"/><path class="cls-7" d="M1107.78,565.25c-10.1-10.09-21.61-14.94-25.73-10.83-2.41,2.42-1.73,7.4,1.3,13.15l-14.18,14.18s-1.25,5.44,7.71,14.4,14.41,7.71,14.41,7.71l14.18-14.18c5.74,3,10.73,3.72,13.15,1.3C1122.73,586.87,1117.88,575.35,1107.78,565.25Zm-10.35,10.35c-5.5-5.5-8.54-11.38-6.78-13.14s7.63,1.29,13.13,6.79,8.54,11.38,6.79,13.14S1102.94,581.1,1097.43,575.6Z"/><path class="cls-7" d="M84.66,686.55c-19,0-34.49,6.29-34.49,14.05,0,4.56,5.35,8.62,13.63,11.18v26.75s4,6.32,20.86,6.32,20.87-6.32,20.87-6.32V711.78c8.28-2.56,13.63-6.62,13.63-11.18C119.16,692.84,103.71,686.55,84.66,686.55Zm0,19.53c-10.38,0-18.79-2.69-18.79-6s8.41-6,18.79-6,18.8,2.68,18.8,6S95,706.08,84.66,706.08Z"/><path class="cls-7" d="M1141.47,518.27l12.06,12.06-18.23,18.24-12.07-12.07,18.24-18.23m0-4a4,4,0,0,0-2.83,1.17l-18.24,18.23a4,4,0,0,0,0,5.66l12.07,12.07a4,4,0,0,0,5.66,0l18.23-18.24a4,4,0,0,0,0-5.65l-12.06-12.07a4,4,0,0,0-2.83-1.17Z"/><rect class="cls-7" x="1102.52" y="551.69" width="17.94" height="1.38" transform="translate(-65.04 947.73) rotate(-45)"/><rect class="cls-7" x="1105.99" y="555.15" width="17.94" height="1.38" transform="translate(-66.48 951.2) rotate(-45)"/><rect class="cls-7" x="1109.02" y="558.19" width="17.94" height="1.38" transform="translate(-67.73 954.23) rotate(-45)"/><path class="cls-7" d="M99.85,671.08c0-7.64-13.88-13.83-31-13.83s-31,6.19-31,13.83,13.88,13.84,31,13.84A65.65,65.65,0,0,0,80.1,684a126.75,126.75,0,0,1,5.65,17.95l4-20.63C96,678.76,99.85,675.13,99.85,671.08Z"/><path class="cls-7" d="M194.66,689.31V678.58l19.24-11.11-19.24-11.1v-.07H192v33c-11.84.43-14.68,5-14.68,5v33.81a26.85,26.85,0,0,0,17.26,5.65c10.56-.25,15.76-5.65,15.76-5.65V694.31S207.34,689.52,194.66,689.31Z"/><path class="cls-7" d="M308.83,696.3c-10.15,0-18.37,8.3-18.37,47.25h36.75C327.21,704.6,319,696.3,308.83,696.3Zm6.75,10.05-6.33-2-6.34,2v-5.84l6.34,2,6.33-2Z"/><path class="cls-9" d="M438.71,655.8H405.45a13.57,13.57,0,0,0-13.53,13.53v61.45a13.56,13.56,0,0,0,13.53,13.52h33.26a13.56,13.56,0,0,0,13.53-13.52V669.33A13.57,13.57,0,0,0,438.71,655.8Zm-16.35,84.75a6.39,6.39,0,1,1,6.39-6.39A6.39,6.39,0,0,1,422.36,740.55ZM445.76,724H399.25V664.26h46.51Z"/><polygon class="cls-7" points="422.38 707.02 432.76 693.48 422.38 679.94 411.99 693.48 422.38 707.02"/><path class="cls-7" d="M580.29,715.71V657.8H494.87v57.91h37.84v15.77H502.32V743.8h71.95V731.48H543V715.71Zm-77-52.17h68.51V710H503.33Z"/><path class="cls-7" d="M528.64,681.06c-3.12,5.12-1,9.55,0,10.6s4.23,3.3,7.17-.51c0,7-3.92,7.61-3.92,7.61h10.05s-3.92-.62-3.92-7.61c2.94,3.81,6.15,1.56,7.16.51s3.13-5.48,0-10.6-8.27-5.94-8.27-8.73C536.91,675.12,531.77,675.94,528.64,681.06Z"/><path class="cls-9" d="M682.9,656.3H624.76A13.72,13.72,0,0,0,611.08,670v62.13a13.71,13.71,0,0,0,13.68,13.68H682.9a13.72,13.72,0,0,0,13.69-13.68V670A13.73,13.73,0,0,0,682.9,656.3Zm-29.64,85.42a6.46,6.46,0,1,1,6.46-6.46A6.46,6.46,0,0,1,653.26,741.72Zm33-16.44H620.33V664.86h65.93Z"/><path class="cls-7" d="M666.07,685.71h0a6.81,6.81,0,0,0-9.6,0l-2.64,2.64-2.64-2.64a6.81,6.81,0,0,0-9.6,0h0a6.8,6.8,0,0,0,0,9.59l2.65,2.65,9.59,9.59,9.6-9.59,2.64-2.65A6.8,6.8,0,0,0,666.07,685.71Z"/><path class="cls-7" d="M805.16,711.44v-48.6h-71.7v48.6L724,741.27h89.66Zm-64.6-43.79h57.5v39h-57.5Z"/><path class="cls-7" d="M773.4,683a4.91,4.91,0,0,0,.27-1.59,4.84,4.84,0,0,0-9.68,0,4.91,4.91,0,0,0,.27,1.59,4.83,4.83,0,0,0,.19,9.66,5,5,0,0,0,1.73-.32l-1.73,7h8.77l-1.74-7a5,5,0,0,0,1.74.32,4.83,4.83,0,0,0,.18-9.66Z"/><path class="cls-7" d="M895.41,680.67v9c4.6,1.23,7.53,3.07,7.53,5.13,0,3.7-9.41,6.7-21,6.7s-21-3-21-6.7c0-1.66,1.93-3.17,5.06-4.34v-9.39c-13.33,2.48-22.62,7.94-22.62,14.3,0,5.11,6,9.64,15.25,12.51v29.92s4.41,7.07,23.33,7.07,23.34-7.07,23.34-7.07V707.9c9.26-2.87,15.25-7.4,15.25-12.51C920.5,688.65,910.06,682.9,895.41,680.67Z"/><path class="cls-7" d="M1010.75,680.67v9c4.59,1.23,7.52,3.08,7.52,5.14,0,3.7-9.41,6.7-21,6.7s-21-3-21-6.7c0-1.67,1.92-3.19,5.07-4.36v-9.37c-13.34,2.47-22.63,7.94-22.63,14.3,0,5.11,6,9.64,15.25,12.51v29.92s4.42,7.07,23.34,7.07,23.33-7.07,23.33-7.07V707.9c9.27-2.87,15.25-7.4,15.25-12.51C1035.83,688.65,1025.4,682.9,1010.75,680.67Z"/><polygon class="cls-7" points="1010.25 660.3 988.79 660.3 988.79 666.3 981.79 666.3 981.79 697.14 1003.25 697.14 1003.25 691.14 1010.25 691.14 1010.25 660.3"/><path class="cls-7" d="M1116.75,679.68c-21.31,0-38.59,7-38.59,15.71,0,5.11,6,9.64,15.25,12.51v29.92s4.42,7.07,23.34,7.07,23.33-7.07,23.33-7.07V707.9c9.27-2.87,15.25-7.4,15.25-12.51C1155.33,686.71,1138.06,679.68,1116.75,679.68Zm0,21.84c-11.61,0-21-3-21-6.7s9.42-6.7,21-6.7,21,3,21,6.7S1128.36,701.52,1116.75,701.52Z"/><polygon class="cls-7" points="1129.25 690.64 1123.75 690.64 1123.75 691.64 1130.25 691.64 1130.25 685.14 1129.25 685.14 1129.25 690.64"/><polygon class="cls-7" points="1108.79 660.8 1114.29 660.8 1114.29 659.8 1107.79 659.8 1107.79 666.3 1101.29 666.3 1101.29 697.14 1122.75 697.14 1122.75 666.3 1108.79 666.3 1108.79 660.8"/><polygon class="cls-7" points="1123.75 659.8 1123.75 660.8 1129.25 660.8 1129.25 666.3 1130.25 666.3 1130.25 659.8 1123.75 659.8"/><rect class="cls-7" x="1129.25" y="672.58" width="1" height="6.28"/><path class="cls-7" d="M873.45,660.3v6h-7v30.84h21.46v-6h7V660.3Zm10,27.44H869.56v-1.06h13.88Zm0-3H869.56v-1.07h13.88Zm0-2.79H869.56v-1.07h13.88Zm0-4.35H869.56v-1.07h13.88Zm0-3H869.56v-1.06h13.88Zm0-2.79H869.56V670.7h13.88Z"/><path class="cls-7" d="M95.78,604.53H61.88a14,14,0,0,1-14-14V528.69a14,14,0,0,1,14-14h33.9a14,14,0,0,1,14,14v61.84A14,14,0,0,1,95.78,604.53Zm-33.9-85.84a10,10,0,0,0-10,10v61.84a10,10,0,0,0,10,10h33.9a10,10,0,0,0,10-10V528.69a10,10,0,0,0-10-10Z"/><path class="cls-7" d="M900.14,462.77H867.53a14,14,0,0,1-14-14v-59.9a14,14,0,0,1,14-14h32.61a14,14,0,0,1,14,14v59.9A14,14,0,0,1,900.14,462.77Zm-32.61-83.86a10,10,0,0,0-10,10v59.9a10,10,0,0,0,10,10h32.61a10,10,0,0,0,10-10v-59.9a10,10,0,0,0-10-10Z"/><path class="cls-7" d="M864.86,394.16a.66.66,0,0,1-.74.68.69.69,0,0,1-.77-.68v-7.25h-2.11a.61.61,0,0,1,0-1.22H867a.61.61,0,0,1,0,1.22h-2.13Z"/><path class="cls-7" d="M881,410.93h-8.69a2,2,0,0,1-1-.26,2.42,2.42,0,0,1-1-2.23,2.66,2.66,0,0,1,.79-2,1.79,1.79,0,0,1,1.28-.49h23.11a1.9,1.9,0,0,1,1.13.35,3,3,0,0,1,.1,4.24,1.83,1.83,0,0,1-1.23.43h-8.7v23.31a2.07,2.07,0,0,1-.73,1.66,3.14,3.14,0,0,1-2.14.71,2.73,2.73,0,0,1-2.53-1.18,2.18,2.18,0,0,1-.32-1.19Z"/><path class="cls-7" d="M1097,388.73c0-.35-.07-.45-.43-.45h-1.39a.56.56,0,0,1-.64-.6c0-.38.25-.57.64-.57h1.93a1.14,1.14,0,0,1,1.23,1.28v3.25a.6.6,0,0,1-.66.67.59.59,0,0,1-.63-.66v-.15a2.61,2.61,0,0,1-2.08.86c-2.32,0-4.08-1.67-4.08-4.71s1.84-4.72,4.09-4.72a4.26,4.26,0,0,1,2.6.78.84.84,0,0,1,.44.72.69.69,0,0,1-.7.69.72.72,0,0,1-.56-.23,2.41,2.41,0,0,0-1.78-.7c-1.45,0-2.56,1.3-2.56,3.46s1.08,3.46,2.56,3.46a2.19,2.19,0,0,0,2-1.07Z"/><path class="cls-7" d="M58.45,535.29c-1.39,0-1.8-.46-1.8-1.62v-6c0-1.15.42-1.62,1.8-1.62h1.44c1.9,0,2.84.86,2.84,2.3a2,2,0,0,1-1.36,1.94,2.23,2.23,0,0,1,1.85,2.38c0,1.61-1.17,2.61-3.23,2.61Zm1.38-5.39a1.33,1.33,0,0,0,1.48-1.35c0-.86-.52-1.32-1.44-1.32H58.78c-.55,0-.67.16-.67.64v2Zm.18,4.22c1.11,0,1.74-.6,1.74-1.51,0-1.07-.58-1.55-1.78-1.55H58.11v2.42c0,.48.12.64.67.64Z"/></g><g id="アイコン名"><text class="cls-10" transform="translate(66.83 213.41)">再生</text><text class="cls-10" transform="translate(170.16 213.41)">一時停止</text><text class="cls-10" transform="translate(297.5 213.41)">停止</text><text class="cls-10" transform="translate(410.61 213.41)">NEXT</text><text class="cls-10" transform="translate(528.16 213.41)">設定</text><text class="cls-10" transform="translate(638.53 213.41)">HOME</text><text class="cls-10" transform="translate(752.83 213.41)">メール</text><text class="cls-10" transform="translate(874.16 213.41)">電波</text><text class="cls-10" transform="translate(989.95 213.41)">BOX</text><text class="cls-10" transform="translate(1098.83 213.41)">ごみ箱</text><text class="cls-10" transform="translate(66.83 351.9)">検索</text><text class="cls-10" transform="translate(176.37 351.9)">MUSIC</text><text class="cls-10" transform="translate(285.5 351.9)">リピート</text><text class="cls-10" transform="translate(412.83 351.9)">情報</text><text class="cls-10" transform="translate(528.56 351.9)">WiFi</text><text class="cls-10" transform="translate(637.5 351.9)">閉じる</text><text class="cls-10" transform="translate(758.83 351.9)">更新</text><text class="cls-10" transform="translate(862.16 351.9)">チェック</text><text class="cls-10" transform="translate(971.5 351.9)">ズームイン</text><text class="cls-10" transform="translate(1080.83 351.9)">ズームアウト</text><text class="cls-10" transform="translate(60.83 492.39)">ヒント</text><text class="cls-10" transform="translate(182.16 492.39)">監視</text><text class="cls-10" transform="translate(291.5 492.39)">リンク</text><text class="cls-10" transform="translate(412.83 492.39)">質問</text><text class="cls-10" transform="translate(510.16 492.39)">カレンダー</text><text class="cls-10" transform="translate(631.5 492.39)">メニュー</text><text class="cls-10" transform="translate(758.83 492.39)">時計</text><text class="cls-10" transform="translate(862.16 492.39)">テキスト</text><text class="cls-10" transform="translate(971.5 492.39)">お気に入り</text><text class="cls-10" transform="translate(1099.6 492.39)">GOOD</text><text class="cls-10" transform="translate(67.14 630.89)">BAD</text><text class="cls-10" transform="translate(170.16 630.89)">ファイル</text><text class="cls-10" transform="translate(279.5 630.89)">パスワード</text><text class="cls-10" transform="translate(394.83 630.89)">アンロック</text><text class="cls-10" transform="translate(522.16 630.89)">ロック</text><text class="cls-10" transform="translate(631.5 630.89)">ログイン</text><text class="cls-10" transform="translate(746.83 630.89)">チャート</text><text class="cls-10" transform="translate(874.16 630.89)">充電</text><text class="cls-10" transform="translate(971.5 630.89)">インポート</text><text class="cls-10" transform="translate(1080.83 630.89)">エクスポート</text><text class="cls-10" transform="translate(54.83 773.38)">コメント</text><text class="cls-10" transform="translate(182.16 773.38)">タグ</text><text class="cls-10" transform="translate(273.5 773.38)">プロフィール</text><text class="cls-10" transform="translate(406.83 773.38)">スマホ</text><text class="cls-10" transform="translate(504.16 773.38)">デスクトップ</text><text class="cls-10" transform="translate(625.5 773.38)">タブレット</text><text class="cls-10" transform="translate(728.83 773.38)">ノートパソコン</text><text class="cls-10" transform="translate(844.16 773.38)">コピーテキスト</text><text class="cls-10" transform="translate(983.5 773.38)">コピー</text><text class="cls-10" transform="translate(1080.83 773.38)">コピーカット</text></g></svg>