<svg xmlns="http://www.w3.org/2000/svg" viewBox="0 0 1190.55 841.89"><defs><style>.cls-1{font-size:19px;}.cls-1,.cls-2,.cls-3,.cls-5,.cls-7,.cls-8{fill:#fff;}.cls-1,.cls-2,.cls-5{font-family:KozGoPro-Medium-90ms-RKSJ-H, Kozuka Gothic Pro;}.cls-2{font-size:16px;}.cls-3,.cls-5{font-size:13px;}.cls-3{font-family:KozGoPro-Bold-90ms-RKSJ-H, Kozuka Gothic Pro;}.cls-4{letter-spacing:-0.5em;}.cls-6{fill:none;stroke:#dcdddd;stroke-miterlimit:10;}.cls-8{font-size:12px;font-family:KozGoPro-Regular-90ms-RKSJ-H, Kozuka Gothic Pro;}.cls-9{letter-spacing:0.25em;}</style></defs><title>lavp</title><g id="テンプレート"><text class="cls-1" transform="translate(960.28 46.3)">www.design-icon.com</text><text class="cls-2" transform="translate(447.3 55.3)">DESIGNER : JIEI KUSUHARA</text><text class="cls-3" transform="translate(833.83 817.27)">利用規約：個人、商用、すべてフリーでご利用ください<tspan class="cls-4" x="325" y="0">。</tspan></text><text class="cls-5" transform="translate(447.3 30.16)">サイズ：100 x 100 px</text><rect class="cls-6" x="28.83" y="87.3" width="100" height="100"/><rect class="cls-6" x="143.83" y="87.3" width="100" height="100"/><rect class="cls-6" x="258.83" y="87.3" width="100" height="100"/><rect class="cls-6" x="373.83" y="87.3" width="100" height="100"/><rect class="cls-6" x="488.83" y="87.3" width="100" height="100"/><rect class="cls-6" x="603.83" y="87.3" width="100" height="100"/><rect class="cls-6" x="718.83" y="87.3" width="100" height="100"/><rect class="cls-6" x="833.83" y="87.3" width="100" height="100"/><rect class="cls-6" x="948.83" y="87.3" width="100" height="100"/><rect class="cls-6" x="1063.83" y="87.3" width="100" height="100"/><rect class="cls-6" x="28.83" y="228.07" width="100" height="100"/><rect class="cls-6" x="143.83" y="228.07" width="100" height="100"/><rect class="cls-6" x="258.83" y="228.07" width="100" height="100"/><rect class="cls-6" x="373.83" y="228.07" width="100" height="100"/><rect class="cls-6" x="488.83" y="228.07" width="100" height="100"/><rect class="cls-6" x="603.83" y="228.07" width="100" height="100"/><rect class="cls-6" x="718.83" y="228.07" width="100" height="100"/><rect class="cls-6" x="833.83" y="228.07" width="100" height="100"/><rect class="cls-6" x="948.83" y="228.07" width="100" height="100"/><rect class="cls-6" x="1063.83" y="228.07" width="100" height="100"/><rect class="cls-6" x="28.83" y="368.84" width="100" height="100"/><rect class="cls-6" x="143.83" y="368.84" width="100" height="100"/><rect class="cls-6" x="258.83" y="368.84" width="100" height="100"/><rect class="cls-6" x="373.83" y="368.84" width="100" height="100"/><rect class="cls-6" x="488.83" y="368.84" width="100" height="100"/><rect class="cls-6" x="603.83" y="368.84" width="100" height="100"/><rect class="cls-6" x="718.83" y="368.84" width="100" height="100"/><rect class="cls-6" x="833.83" y="368.84" width="100" height="100"/><rect class="cls-6" x="948.83" y="368.84" width="100" height="100"/><rect class="cls-6" x="1063.83" y="368.84" width="100" height="100"/><rect class="cls-6" x="28.83" y="509.61" width="100" height="100"/><rect class="cls-6" x="143.83" y="509.61" width="100" height="100"/><rect class="cls-6" x="258.83" y="509.61" width="100" height="100"/><rect class="cls-6" x="373.83" y="509.61" width="100" height="100"/><rect class="cls-6" x="488.83" y="509.61" width="100" height="100"/><rect class="cls-6" x="603.83" y="509.61" width="100" height="100"/><rect class="cls-6" x="718.83" y="509.61" width="100" height="100"/><rect class="cls-6" x="833.83" y="509.61" width="100" height="100"/><rect class="cls-6" x="948.83" y="509.61" width="100" height="100"/><rect class="cls-6" x="1063.83" y="509.61" width="100" height="100"/><rect class="cls-6" x="28.83" y="650.38" width="100" height="100"/><rect class="cls-6" x="143.83" y="650.38" width="100" height="100"/><rect class="cls-6" x="258.83" y="650.38" width="100" height="100"/><rect class="cls-6" x="373.83" y="650.38" width="100" height="100"/><rect class="cls-6" x="488.83" y="650.38" width="100" height="100"/><rect class="cls-6" x="603.83" y="650.38" width="100" height="100"/><rect class="cls-6" x="718.83" y="650.38" width="100" height="100"/><rect class="cls-6" x="833.83" y="650.38" width="100" height="100"/><rect class="cls-6" x="948.83" y="650.38" width="100" height="100"/><rect class="cls-6" x="1063.83" y="650.38" width="100" height="100"/><path class="cls-7" d="M247.32,28.22c-3.51,0-5.88,2.55-5.88,6.33,0,3.06,1.62,6.33,5.76,6.33,3.33,0,5.88-2.4,5.88-6.33C253.08,31.58,251.43,28.22,247.32,28.22Z"/><path class="cls-7" d="M29,0V55.37a12,12,0,0,0,12,12H413.83a12,12,0,0,0,12-12V0ZM68.27,50.22a16,16,0,1,1,16-16A16,16,0,0,1,68.27,50.22Zm64.36-5.5c0,.63-.18.75-.87.75h-1.5a1.51,1.51,0,0,1-1.47-.69c-1.08-1.26-2.07-2.37-3.3-3.75l-6.65-7.47a.54.54,0,0,0-.36-.24c-.16,0-.25.15-.25.48v5.67c0,1.59.09,5,.09,5.25,0,.63-.17.75-.86.75h-3.33c-.69,0-.88-.12-.88-.75,0-.21.1-3.66.1-5.25V29.36c0-1.59-.1-5-.1-5.25,0-.63.19-.75.88-.75h2a1.5,1.5,0,0,1,1.46.69c1.12,1.35,2.16,2.55,3.24,3.78l6.24,7.11a.64.64,0,0,0,.39.27c.12,0,.21-.15.21-.48V29.36c0-1.59-.09-5-.09-5.25,0-.63.18-.75.87-.75h3.33c.69,0,.87.12.87.75,0,.21-.09,3.66-.09,5.25V39.47C132.54,41.06,132.63,44.51,132.63,44.72Zm17.43-.06c0,.69-.12.87-.75.87-.21,0-3.24-.06-4.65-.06H141.6c-1.38,0-4,.06-4.22.06-.64,0-.85-.21-.85-.84,0-.21.1-3.54.1-5.13V29.27c0-1.59-.1-4.92-.1-5.13,0-.63.21-.84.85-.84.21,0,2.84.06,4.22.06H144c1.41,0,4.44-.06,4.65-.06.63,0,.75.18.75.87v3.09c0,.69-.12.87-.75.87-.21,0-3.24-.06-4.65-.06h-1.47c-.75,0-.9.15-.9.9V30.8c0,.69.12.81.81.81h.87c1.41,0,4.44-.06,4.65-.06.63,0,.75.18.75.87v2.85c0,.69-.12.87-.75.87-.21,0-3.24-.06-4.65-.06h-.87c-.69,0-.81.12-.81.81V40c0,.75.15.9.9.9h2.13c1.41,0,4.44-.06,4.65-.06.63,0,.75.18.75.87Zm13.71,1c-7.35,0-10.77-5.91-10.77-11.13,0-7.14,4.92-11.34,11.28-11.34,7.44,0,10.8,5.85,10.8,11C175.08,41.54,169.89,45.65,163.77,45.65Zm33.84-.93c0,.63-.18.75-.87.75h-1.5a1.51,1.51,0,0,1-1.47-.69c-1.08-1.26-2.07-2.37-3.3-3.75l-6.66-7.47c-.15-.18-.27-.24-.36-.24s-.24.15-.24.48v5.67c0,1.59.09,5,.09,5.25,0,.63-.18.75-.87.75H179.1c-.69,0-.87-.12-.87-.75,0-.21.09-3.66.09-5.25V29.36c0-1.59-.09-5-.09-5.25,0-.63.18-.75.87-.75h2a1.51,1.51,0,0,1,1.47.69c1.11,1.35,2.16,2.55,3.24,3.78L192,34.94a.64.64,0,0,0,.39.27c.12,0,.21-.15.21-.48V29.36c0-1.59-.09-5-.09-5.25,0-.63.18-.75.87-.75h3.33c.69,0,.87.12.87.75,0,.21-.09,3.66-.09,5.25V39.47C197.52,41.06,197.61,44.51,197.61,44.72Zm15.93,0c0,.63-.18.75-.87.75h-3.54c-.69,0-.87-.12-.87-.75,0-.21.09-3.66.09-5.25V29.36c0-1.59-.09-5-.09-5.25,0-.63.18-.75.87-.75h3.54c.69,0,.87.12.87.75,0,.21-.09,3.66-.09,5.25V39.47C213.45,41.06,213.54,44.51,213.54,44.72Zm20.55-19.38-1.2,3.3c-.18.45-.27.63-.48.63a1.29,1.29,0,0,1-.6-.21,7.12,7.12,0,0,0-3.21-.75c-4.23,0-6.48,2.88-6.48,6.6a5.66,5.66,0,0,0,6.06,6,7.57,7.57,0,0,0,3.36-.72,1.29,1.29,0,0,1,.6-.21c.21,0,.33.18.51.63l1,2.76a1.78,1.78,0,0,1,.15.57c0,.27-.21.42-.63.63a14.18,14.18,0,0,1-5.61,1.11c-6.81,0-10.77-4.53-10.77-10.62,0-6.72,4-11.85,11.76-11.85a13.14,13.14,0,0,1,5,1c.45.21.66.36.66.63A1.78,1.78,0,0,1,234.09,25.34ZM247,45.65c-7.35,0-10.77-5.91-10.77-11.13,0-7.14,4.92-11.34,11.28-11.34,7.44,0,10.8,5.85,10.8,11C258.3,41.54,253.11,45.65,247,45.65Zm33.84-.93c0,.63-.18.75-.87.75h-1.5a1.51,1.51,0,0,1-1.47-.69c-1.08-1.26-2.07-2.37-3.3-3.75L267,33.56c-.15-.18-.27-.24-.36-.24s-.24.15-.24.48v5.67c0,1.59.09,5,.09,5.25,0,.63-.18.75-.87.75h-3.33c-.69,0-.87-.12-.87-.75,0-.21.09-3.66.09-5.25V29.36c0-1.59-.09-5-.09-5.25,0-.63.18-.75.87-.75h2a1.51,1.51,0,0,1,1.47.69c1.11,1.35,2.16,2.55,3.24,3.78l6.24,7.11a.64.64,0,0,0,.39.27c.12,0,.21-.15.21-.48V29.36c0-1.59-.09-5-.09-5.25,0-.63.18-.75.87-.75H280c.69,0,.87.12.87.75,0,.21-.09,3.66-.09,5.25V39.47C280.74,41.06,280.83,44.51,280.83,44.72Z"/><path class="cls-7" d="M164.1,28.22c-3.51,0-5.88,2.55-5.88,6.33,0,3.06,1.62,6.33,5.76,6.33,3.33,0,5.88-2.4,5.88-6.33C169.86,31.58,168.21,28.22,164.1,28.22Z"/></g><g id="アイコン名"><text class="cls-8" transform="translate(48.83 213.41)">インポート</text><text class="cls-8" transform="translate(158.16 213.41)">エクスポート</text><text class="cls-8" transform="translate(273.5 213.41)">ダウンロード</text><text class="cls-8" transform="translate(388.83 213.41)">アップロード</text><text class="cls-8" transform="translate(516.16 213.41)">フォルダ</text><text class="cls-8" transform="translate(631.5 213.41)">ファイル</text><text class="cls-8" transform="translate(758.83 213.41)">画像</text><text class="cls-8" transform="translate(874.16 213.41)">指紋</text><text class="cls-8" transform="translate(989.5 213.41)">設定</text><text class="cls-8" transform="translate(1104.83 213.41)">保存</text><text class="cls-8" transform="translate(66.83 351.9)">消去</text><text class="cls-8" transform="translate(176.16 351.9)">上書き</text><text class="cls-8" transform="translate(279.5 351.9)">ビデオ通話</text><text class="cls-8" transform="translate(392.92 351.9)">We<tspan class="cls-9" x="17.5" y="0">b</tspan><tspan x="27.83" y="0">カメラ</tspan></text><text class="cls-8" transform="translate(522.16 351.9)">マイク</text><text class="cls-8" transform="translate(631.5 351.9)">ミュート</text><text class="cls-8" transform="translate(746.83 351.9)">アンテナ</text><text class="cls-8" transform="translate(872.51 351.9)">Wi-Fi</text><text class="cls-8" transform="translate(959.5 351.9)">カラーパレット</text><text class="cls-8" transform="translate(1098.83 351.9)">招待状</text><text class="cls-8" transform="translate(60.83 492.39)">メール</text><text class="cls-8" transform="translate(170.16 492.39)">ユーザー</text><text class="cls-8" transform="translate(273.5 492.39)">ユーザー参加</text><text class="cls-8" transform="translate(382.83 492.39)">フィートバッグ</text><text class="cls-8" transform="translate(528.16 492.39)">倍速</text><text class="cls-8" transform="translate(637.5 492.39)">全画面</text><text class="cls-8" transform="translate(746.83 492.39)">コメント</text><text class="cls-8" transform="translate(874.16 492.39)">音量</text><text class="cls-8" transform="translate(977.5 492.39)">一時停止</text><text class="cls-8" transform="translate(1104.83 492.39)">再生</text><text class="cls-8" transform="translate(54.83 630.89)">リピート</text><text class="cls-8" transform="translate(170.16 630.89)">連続再生</text><text class="cls-8" transform="translate(279.5 630.89)">カレンダー</text><text class="cls-8" transform="translate(406.83 630.89)">シェア</text><text class="cls-8" transform="translate(516.16 630.89)">アドオン</text><text class="cls-8" transform="translate(637.5 630.89)">インク</text><text class="cls-8" transform="translate(740.83 630.89)">文字サイズ</text><text class="cls-8" transform="translate(874.16 630.89)">言語</text><text class="cls-8" transform="translate(989.5 630.89)">複製</text><text class="cls-8" transform="translate(1104.83 630.89)">認証</text><text class="cls-8" transform="translate(30.83 773.38)">チェックボックス</text><text class="cls-8" transform="translate(170.16 773.38)">クッキー</text><text class="cls-8" transform="translate(285.5 773.38)">自由移動</text><text class="cls-8" transform="translate(406.83 773.38)">フラグ</text><text class="cls-8" transform="translate(522.16 773.38)">リンク</text><text class="cls-8" transform="translate(601.5 773.38)">リーディングモード</text><text class="cls-8" transform="translate(746.83 773.38)">アライン</text><text class="cls-8" transform="translate(874.16 773.38)">戻る</text><text class="cls-8" transform="translate(989.5 773.38)">進む</text><text class="cls-8" transform="translate(1098.83 773.38)">上がる</text></g><g id="icon"><path class="cls-7" d="M882.76,734.88a35.75,35.75,0,1,1,35.76-35.52,1.51,1.51,0,0,1-1.5,1.49l-25.52,0h0a4.34,4.34,0,0,1-4.33-4.33v-10.7l-18.76,14a.67.67,0,0,0-.33.49.7.7,0,0,0,.33.5l18.76,14v-9.8a1.5,1.5,0,0,1,3,0v10a2.76,2.76,0,0,1-4.67,2.34l-18.89-14.13a3.51,3.51,0,0,1,0-5.8l18.89-14.13a2.76,2.76,0,0,1,4.67,2.34v10.86a1.33,1.33,0,0,0,1.33,1.33h0l24,0a32.77,32.77,0,0,0-32.73-31.48A32.76,32.76,0,1,0,915,705.18a1.5,1.5,0,1,1,2.95.55A35.76,35.76,0,0,1,882.76,734.88Z"/><path class="cls-7" d="M307.64,742.19a3.55,3.55,0,0,1-2.83-1.52l-8.61-11.5a2.76,2.76,0,0,1,2.34-4.67h6.33a1.34,1.34,0,0,0,1.34-1.33V677.59a4.34,4.34,0,0,1,4.33-4.33h5.32l-7.79-11.35a.68.68,0,0,0-.42-.34c-.16,0-.29.12-.44.32l-8.51,11.37H302a1.5,1.5,0,0,1,0,3h-3.49a2.76,2.76,0,0,1-2.34-4.67l8.61-11.5a3.48,3.48,0,0,1,2.9-1.52,3.59,3.59,0,0,1,2.84,1.64l7.79,11.36a2.83,2.83,0,0,1-2.47,4.69h-5.33a1.33,1.33,0,0,0-1.33,1.33v45.58a4.35,4.35,0,0,1-4.34,4.33H298.7l8.51,11.37a.7.7,0,0,0,.44.32.68.68,0,0,0,.42-.34l7.79-11.35h-2.63a1.5,1.5,0,0,1,0-3h2.64a2.83,2.83,0,0,1,2.47,4.69l-7.79,11.36a3.59,3.59,0,0,1-2.84,1.64Z"/><path class="cls-7" d="M333.93,712.15a2.51,2.51,0,0,1-1.11-.26,3,3,0,0,1-1.49-2.85v-6.33a1.34,1.34,0,0,0-1.34-1.33H314a1.5,1.5,0,0,1,0-3h16a4.34,4.34,0,0,1,4.34,4.33v6.17l11.37-8.5c.2-.15.32-.32.31-.44a.67.67,0,0,0-.33-.43l-11.35-7.78v2.47a1.5,1.5,0,0,1-3,0v-2.49a2.82,2.82,0,0,1,4.68-2.46L347.38,697a3.41,3.41,0,0,1,.12,5.74L336,711.38A3.45,3.45,0,0,1,333.93,712.15Zm.44-2.76Z"/><path class="cls-7" d="M280.48,712.15a3.48,3.48,0,0,1-2.06-.77l-11.5-8.6A3.4,3.4,0,0,1,267,697l11.37-7.79a2.83,2.83,0,0,1,4.69,2.46V697a1.34,1.34,0,0,0,1.33,1.34h17a1.5,1.5,0,0,1,0,3h-17a4.33,4.33,0,0,1-4.33-4.34v-5.31l-11.36,7.78a.67.67,0,0,0-.33.43.7.7,0,0,0,.31.44l11.38,8.5v-3.54a1.5,1.5,0,0,1,3,0V709a3,3,0,0,1-1.5,2.85A2.51,2.51,0,0,1,280.48,712.15Zm-.44-2.76Zm0-18"/><path class="cls-7" d="M113.45,175.13h-70a4.34,4.34,0,0,1-4.34-4.33v-70a4.34,4.34,0,0,1,4.34-4.33h58.76a9.87,9.87,0,0,1,5.94,2.29l7,6.33a8.73,8.73,0,0,1,2.6,5.85v32.23a1.5,1.5,0,0,1-3,0V111a5.85,5.85,0,0,0-1.61-3.62l-7-6.34a7.12,7.12,0,0,0-3.93-1.51H43.47a1.34,1.34,0,0,0-1.34,1.33v70a1.34,1.34,0,0,0,1.34,1.33h70a1.34,1.34,0,0,0,1.34-1.33V153.39a1.5,1.5,0,0,1,3,0V170.8A4.34,4.34,0,0,1,113.45,175.13Z"/><path class="cls-7" d="M93.81,122.37H61.75A4.34,4.34,0,0,1,57.41,118V104.68a1.5,1.5,0,0,1,3,0V118a1.34,1.34,0,0,0,1.34,1.33H93.81A1.34,1.34,0,0,0,95.15,118V104.68a1.5,1.5,0,0,1,3,0V118A4.34,4.34,0,0,1,93.81,122.37Z"/><path class="cls-7" d="M90,115.26a1.5,1.5,0,0,1-1.5-1.5v-5.3a1.34,1.34,0,0,0-1.34-1.34H84.5a1.34,1.34,0,0,0-1.33,1.34v2.47a2.3,2.3,0,0,0,.34,1.33H85a1.5,1.5,0,0,1,0,3H83.33c-1.8,0-3.16-1.86-3.16-4.33v-2.47a4.33,4.33,0,0,1,4.33-4.34h2.66a4.34,4.34,0,0,1,4.34,4.34v5.3A1.5,1.5,0,0,1,90,115.26Z"/><path class="cls-7" d="M103.32,168.25H52.66a4.34,4.34,0,0,1-4.34-4.33V131.31A4.35,4.35,0,0,1,52.66,127h50.66a4.34,4.34,0,0,1,4.33,4.34v11.87a1.5,1.5,0,0,1-3,0V131.31a1.34,1.34,0,0,0-1.33-1.34H52.66a1.34,1.34,0,0,0-1.34,1.34v32.61a1.34,1.34,0,0,0,1.34,1.33h50.66a1.34,1.34,0,0,0,1.33-1.33V153.39a1.5,1.5,0,0,1,3,0v10.53A4.33,4.33,0,0,1,103.32,168.25Z"/><path class="cls-7" d="M89.37,159.45a3.53,3.53,0,0,1-2.07-.76l-9.23-6.91a3.5,3.5,0,0,1,0-5.8l9.23-6.91A2.76,2.76,0,0,1,92,141.41v4.05a1.34,1.34,0,0,0,1.33,1.33h32.36a1.5,1.5,0,0,1,0,3H93.3A4.33,4.33,0,0,1,89,145.46v-3.89l-9.11,6.81a.54.54,0,0,0,0,1L89,156.19v-3.45a1.5,1.5,0,0,1,3,0v3.61a3,3,0,0,1-1.5,2.85A2.46,2.46,0,0,1,89.37,159.45Zm-.44-2.76Zm0-15.62"/><path class="cls-7" d="M89.37,159.45a3.53,3.53,0,0,1-2.07-.76l-9.23-6.91a3.5,3.5,0,0,1,0-5.8l9.23-6.91A2.76,2.76,0,0,1,92,141.41v4.05a1.34,1.34,0,0,0,1.33,1.33h32.36a1.5,1.5,0,0,1,0,3H93.3A4.33,4.33,0,0,1,89,145.46v-3.89l-9.11,6.81a.54.54,0,0,0,0,1L89,156.19v-3.45a1.5,1.5,0,0,1,3,0v3.61a3,3,0,0,1-1.5,2.85A2.46,2.46,0,0,1,89.37,159.45Zm-.44-2.76Zm0-15.62"/><path class="cls-7" d="M230.49,159.45a2.46,2.46,0,0,1-1.1-.25,3,3,0,0,1-1.5-2.85v-3.61a1.5,1.5,0,0,1,3,0v3.45l9.11-6.81a.54.54,0,0,0,0-1l-9.11-6.81v3.89a4.34,4.34,0,0,1-4.34,4.33H194.2a1.5,1.5,0,0,1,0-3h32.35a1.34,1.34,0,0,0,1.34-1.33v-4.05a2.76,2.76,0,0,1,4.67-2.34l9.23,6.91a3.5,3.5,0,0,1,0,5.8l-9.23,6.91A3.53,3.53,0,0,1,230.49,159.45Zm.44-2.76h0Zm0-15.62Z"/><path class="cls-7" d="M230.49,159.45a2.46,2.46,0,0,1-1.1-.25,3,3,0,0,1-1.5-2.85v-3.61a1.5,1.5,0,0,1,3,0v3.45l9.11-6.81a.54.54,0,0,0,0-1l-9.11-6.81v3.89a4.34,4.34,0,0,1-4.34,4.33H194.2a1.5,1.5,0,0,1,0-3h32.35a1.34,1.34,0,0,0,1.34-1.33v-4.05a2.76,2.76,0,0,1,4.67-2.34l9.23,6.91a3.5,3.5,0,0,1,0,5.8l-9.23,6.91A3.53,3.53,0,0,1,230.49,159.45Zm.44-2.76h0Zm0-15.62Z"/><path class="cls-7" d="M226.69,175.13h-70a4.33,4.33,0,0,1-4.33-4.33v-70a4.33,4.33,0,0,1,4.33-4.33h58.76a9.93,9.93,0,0,1,5.95,2.29l7,6.33A8.73,8.73,0,0,1,231,111v23.23a1.5,1.5,0,0,1-3,0V111a5.85,5.85,0,0,0-1.61-3.62l-7-6.34a7.18,7.18,0,0,0-3.94-1.51H156.71a1.33,1.33,0,0,0-1.33,1.33v70a1.33,1.33,0,0,0,1.33,1.33h70A1.34,1.34,0,0,0,228,170.8v-7.41a1.5,1.5,0,0,1,3,0v7.41A4.34,4.34,0,0,1,226.69,175.13Z"/><path class="cls-7" d="M207.06,122.37H175a4.34,4.34,0,0,1-4.34-4.33V104.68a1.5,1.5,0,0,1,3,0V118a1.34,1.34,0,0,0,1.34,1.33h32.07a1.34,1.34,0,0,0,1.33-1.33V104.68a1.5,1.5,0,0,1,3,0V118A4.33,4.33,0,0,1,207.06,122.37Z"/><path class="cls-7" d="M203.24,115.26a1.5,1.5,0,0,1-1.5-1.5v-5.3a1.34,1.34,0,0,0-1.34-1.34h-2.66a1.34,1.34,0,0,0-1.33,1.34v2.47a2.3,2.3,0,0,0,.34,1.33h1.49a1.5,1.5,0,0,1,0,3h-1.67c-1.8,0-3.16-1.86-3.16-4.33v-2.47a4.33,4.33,0,0,1,4.33-4.34h2.66a4.34,4.34,0,0,1,4.34,4.34v5.3A1.5,1.5,0,0,1,203.24,115.26Z"/><path class="cls-7" d="M216.56,168.25H165.9a4.33,4.33,0,0,1-4.33-4.33V131.31A4.34,4.34,0,0,1,165.9,127h50.66a4.34,4.34,0,0,1,4.33,4.34v11.87a1.5,1.5,0,0,1-3,0V131.31a1.34,1.34,0,0,0-1.33-1.34H165.9a1.33,1.33,0,0,0-1.33,1.34v32.61a1.33,1.33,0,0,0,1.33,1.33h50.66a1.34,1.34,0,0,0,1.33-1.33V153.39a1.5,1.5,0,0,1,3,0v10.53A4.33,4.33,0,0,1,216.56,168.25Z"/><path class="cls-7" d="M196.63,289.1a3.64,3.64,0,0,1-2.9-1.54l-10-13.37a2.75,2.75,0,0,1,2.33-4.67h5.54a1.5,1.5,0,1,1,0,3h-5.38l9.91,13.25a.55.55,0,0,0,1,0l9.9-13.25h-6.8a4.34,4.34,0,0,1-4.34-4.33V234.25a1.5,1.5,0,0,1,3,0v33.94a1.34,1.34,0,0,0,1.34,1.33h7a2.75,2.75,0,0,1,2.33,4.67l-10,13.37A3.64,3.64,0,0,1,196.63,289.1Z"/><path class="cls-7" d="M196.63,289.1a3.64,3.64,0,0,1-2.9-1.54l-10-13.37a2.75,2.75,0,0,1,2.33-4.67h5.54a1.5,1.5,0,1,1,0,3h-5.38l9.91,13.25a.55.55,0,0,0,1,0l9.9-13.25h-6.8a4.34,4.34,0,0,1-4.34-4.33V234.25a1.5,1.5,0,0,1,3,0v33.94a1.34,1.34,0,0,0,1.34,1.33h7a2.75,2.75,0,0,1,2.33,4.67l-10,13.37A3.64,3.64,0,0,1,196.63,289.1Z"/><path class="cls-7" d="M229.14,317.71a1.5,1.5,0,1,1,0-3,1.34,1.34,0,0,0,1.33-1.33V253.53a5.79,5.79,0,0,0-1.61-3.62l-7-6.34a7.15,7.15,0,0,0-3.93-1.51H159.15a1.34,1.34,0,0,0-1.33,1.33v70a1.34,1.34,0,0,0,1.33,1.33h63.57a1.5,1.5,0,0,1,0,3H159.15a4.33,4.33,0,0,1-4.33-4.33v-70a4.33,4.33,0,0,1,4.33-4.33h58.77a10,10,0,0,1,5.94,2.28l7,6.34a8.69,8.69,0,0,1,2.6,5.85v59.85A4.33,4.33,0,0,1,229.14,317.71Z"/><path class="cls-7" d="M191,265H177.43a4.33,4.33,0,0,1-4.33-4.33V247.26a1.5,1.5,0,0,1,3,0v13.36a1.34,1.34,0,0,0,1.33,1.33H191a1.5,1.5,0,0,1,0,3Z"/><path class="cls-7" d="M209.5,265h-5.67a1.5,1.5,0,1,1,0-3h5.67a1.34,1.34,0,0,0,1.34-1.33V247.26a1.5,1.5,0,0,1,3,0v13.36A4.34,4.34,0,0,1,209.5,265Z"/><path class="cls-7" d="M219,310.83H168.34A4.33,4.33,0,0,1,164,306.5V273.89a4.34,4.34,0,0,1,4.33-4.34h10.18a1.5,1.5,0,1,1,0,3H168.34a1.34,1.34,0,0,0-1.33,1.34V306.5a1.34,1.34,0,0,0,1.33,1.33H219a1.34,1.34,0,0,0,1.34-1.33V273.89a1.34,1.34,0,0,0-1.34-1.34h-4.39a1.5,1.5,0,0,1,0-3H219a4.35,4.35,0,0,1,4.34,4.34V306.5A4.34,4.34,0,0,1,219,310.83Z"/><path class="cls-7" d="M678.29,177.28H623.71a4.34,4.34,0,0,1-4.34-4.33V98.87a4.35,4.35,0,0,1,4.34-4.34h40.58a4.42,4.42,0,0,1,4.39,4.31l.08,4.14a1.41,1.41,0,0,0,1.38,1.36h6a1.5,1.5,0,0,1,0,3h-6a4.4,4.4,0,0,1-4.38-4.3l-.08-4.15a1.41,1.41,0,0,0-1.39-1.36H623.71a1.34,1.34,0,0,0-1.34,1.34V173a1.34,1.34,0,0,0,1.34,1.33h54.58a1.34,1.34,0,0,0,1.33-1.33V107.63a6.45,6.45,0,0,0-1.56-3.78l-7-7a1.5,1.5,0,0,1,2.12-2.12l7,7a9.3,9.3,0,0,1,2.44,5.9V173A4.33,4.33,0,0,1,678.29,177.28Z"/><path class="cls-7" d="M447.16,166.68H430.58a1.5,1.5,0,0,1,0-3h16.58a1.34,1.34,0,0,0,1.34-1.34v-52a6.46,6.46,0,0,0-1.57-3.78l-5.48-5.48A1.5,1.5,0,0,1,443.57,99l5.48,5.49a9.26,9.26,0,0,1,2.45,5.9v52A4.35,4.35,0,0,1,447.16,166.68Z"/><path class="cls-7" d="M417.64,166.68H402.5a4.35,4.35,0,0,1-4.34-4.34V103.06a4.35,4.35,0,0,1,4.34-4.34h33a4.42,4.42,0,0,1,4.39,4.31l0,2.53a1.41,1.41,0,0,0,1.39,1.36h4.53a1.5,1.5,0,0,1,0,3h-4.53a4.4,4.4,0,0,1-4.38-4.3l-.05-2.53a1.42,1.42,0,0,0-1.39-1.37h-33a1.34,1.34,0,0,0-1.34,1.34v59.28a1.34,1.34,0,0,0,1.34,1.34h15.14a1.5,1.5,0,0,1,0,3Z"/><path class="cls-7" d="M424,180.05a1.5,1.5,0,0,1-1.5-1.5V143.63a1.34,1.34,0,0,0-1.34-1.34H413a2.75,2.75,0,0,1-2.33-4.66l11.25-15a3.64,3.64,0,0,1,2.9-1.54h0a3.64,3.64,0,0,1,2.9,1.54l11.26,15a2.75,2.75,0,0,1-2.34,4.66h-7.87a1.5,1.5,0,0,1,0-3h7.71l-11.16-14.91c-.32-.43-.68-.43-1,0l-11.16,14.91h8a4.35,4.35,0,0,1,4.34,4.34v34.92A1.5,1.5,0,0,1,424,180.05Z"/><path class="cls-7" d="M329.16,163.05h-4a1.5,1.5,0,0,1,0-3h4a1.34,1.34,0,0,0,1.34-1.34v-52a6.46,6.46,0,0,0-1.57-3.78l-5.48-5.49a1.49,1.49,0,0,1,0-2.12,1.51,1.51,0,0,1,2.12,0l5.48,5.49a9.26,9.26,0,0,1,2.45,5.9v52A4.35,4.35,0,0,1,329.16,163.05Z"/><path class="cls-7" d="M288,163.05H284.5a4.35,4.35,0,0,1-4.34-4.34V99.43a4.35,4.35,0,0,1,4.34-4.34h33a4.42,4.42,0,0,1,4.39,4.31l0,2.53a1.41,1.41,0,0,0,1.39,1.36h4.53a1.5,1.5,0,0,1,0,3h-4.53a4.42,4.42,0,0,1-4.39-4.3l0-2.53a1.42,1.42,0,0,0-1.39-1.37h-33a1.34,1.34,0,0,0-1.34,1.34v59.28a1.34,1.34,0,0,0,1.34,1.34H288a1.5,1.5,0,0,1,0,3Z"/><path class="cls-7" d="M306.71,180.89a3.64,3.64,0,0,1-2.9-1.53l-11.26-15.05a2.76,2.76,0,0,1,2.34-4.67h7.87a1.5,1.5,0,0,1,0,3h-7.71l11.16,14.92c.32.43.67.43,1,0l11.16-14.92h-8a4.34,4.34,0,0,1-4.34-4.33V129.38a1.5,1.5,0,0,1,3,0v28.93a1.34,1.34,0,0,0,1.34,1.33h8.14a2.76,2.76,0,0,1,2.34,4.67l-11.25,15.05A3.67,3.67,0,0,1,306.71,180.89Z"/><path class="cls-7" d="M306.71,180.89a3.64,3.64,0,0,1-2.9-1.53l-11.26-15.05a2.76,2.76,0,0,1,2.34-4.67h7.87a1.5,1.5,0,0,1,0,3h-7.71l11.16,14.92c.32.43.67.43,1,0l11.16-14.92h-8a4.34,4.34,0,0,1-4.34-4.33V129.38a1.5,1.5,0,0,1,3,0v28.93a1.34,1.34,0,0,0,1.34,1.33h8.14a2.76,2.76,0,0,1,2.34,4.67l-11.25,15.05A3.67,3.67,0,0,1,306.71,180.89Z"/><path class="cls-7" d="M569.83,168.14h-65a4.34,4.34,0,0,1-4.33-4.34v-53a4.34,4.34,0,0,1,4.33-4.34h31.92a4.34,4.34,0,0,1,4.33,4.34v2.49a1.34,1.34,0,0,0,1.34,1.34h24.74A4.34,4.34,0,0,1,571.5,119v2a1.5,1.5,0,1,1-3,0v-2a1.34,1.34,0,0,0-1.34-1.33H542.42a4.35,4.35,0,0,1-4.34-4.34v-2.49a1.34,1.34,0,0,0-1.33-1.34H504.83a1.34,1.34,0,0,0-1.33,1.34v53a1.34,1.34,0,0,0,1.33,1.34h65a2.71,2.71,0,0,0,2.31-1.67l11.21-33.62a.66.66,0,0,0,0-.54.63.63,0,0,0-.52-.17H520.5a2.44,2.44,0,0,0-2.14,1.63l-8.21,29.73a1.5,1.5,0,0,1-2.89-.8l8.2-29.73a5.46,5.46,0,0,1,5-3.83h62.33a3.41,3.41,0,0,1,3.36,4.66L575,164.42A5.7,5.7,0,0,1,569.83,168.14Z"/><path class="cls-7" d="M808.89,166.8H732.78a4.34,4.34,0,0,1-4.34-4.33V106.81a4.35,4.35,0,0,1,4.34-4.34h76.11a4.34,4.34,0,0,1,4.33,4.34v55.66A4.33,4.33,0,0,1,808.89,166.8Zm-76.11-61.33a1.34,1.34,0,0,0-1.34,1.34v55.66a1.33,1.33,0,0,0,1.34,1.33h76.11a1.33,1.33,0,0,0,1.33-1.33V106.81a1.34,1.34,0,0,0-1.33-1.34Z"/><path class="cls-7" d="M776.83,161.81a1.5,1.5,0,0,1-1.39-.95c-11.61-28.82-25.11-31.27-29-31.34h-.21a10.93,10.93,0,0,0-10.3,6.89,1.5,1.5,0,1,1-2.74-1.21,14,14,0,0,1,13.3-8.68c11.56.2,23.41,12.62,31.71,33.22a1.51,1.51,0,0,1-.83,2A1.55,1.55,0,0,1,776.83,161.81Z"/><path class="cls-7" d="M774.58,144.66a1.54,1.54,0,0,1-.74-.19,1.51,1.51,0,0,1-.57-2.05c6.67-11.8,23.92-20,33-15.75a1.49,1.49,0,1,1-1.28,2.7c-7-3.33-22.68,3.23-29.05,14.53A1.51,1.51,0,0,1,774.58,144.66Z"/><path class="cls-7" d="M751.14,119.65a1.44,1.44,0,0,1-.86-.27,1.49,1.49,0,0,1-.37-2.08,27.09,27.09,0,0,1,10.14-8.75,1.5,1.5,0,1,1,1.33,2.69,24,24,0,0,0-9,7.77A1.49,1.49,0,0,1,751.14,119.65Z"/><path class="cls-7" d="M794.74,122.75a1.52,1.52,0,0,1-1.34-.82,23.91,23.91,0,0,0-2.91-4.46,1.5,1.5,0,1,1,2.31-1.91,26.44,26.44,0,0,1,3.28,5,1.49,1.49,0,0,1-.66,2A1.51,1.51,0,0,1,794.74,122.75Z"/><path class="cls-7" d="M785.52,112.63a1.48,1.48,0,0,1-.8-.23,23.6,23.6,0,0,0-3.46-1.79,1.5,1.5,0,0,1,1.16-2.77,26.19,26.19,0,0,1,3.9,2,1.5,1.5,0,0,1-.8,2.77Z"/><path class="cls-7" d="M756.78,122.71a1.5,1.5,0,0,1-1.2-2.41,20.56,20.56,0,0,1,5.83-5.24,1.5,1.5,0,1,1,1.55,2.57,17.33,17.33,0,0,0-5,4.48A1.52,1.52,0,0,1,756.78,122.71Z"/><path class="cls-7" d="M788.5,124.59a1.5,1.5,0,0,1-1.29-.75,17.56,17.56,0,0,0-10-8,1.5,1.5,0,0,1,.88-2.87,20.53,20.53,0,0,1,11.72,9.31,1.51,1.51,0,0,1-1.3,2.26Z"/><path class="cls-7" d="M783.74,129.24a1.51,1.51,0,0,1-1.39-.92,11.23,11.23,0,0,0-20.46-.46,1.5,1.5,0,1,1-2.71-1.29,14.23,14.23,0,0,1,25.94.59,1.5,1.5,0,0,1-1.38,2.08Z"/><path class="cls-7" d="M914.28,178a1.5,1.5,0,0,1-1.5-1.5V129A29.45,29.45,0,0,0,869,103.36a1.5,1.5,0,1,1-1.46-2.62A32.44,32.44,0,0,1,915.78,129v47.44A1.5,1.5,0,0,1,914.28,178Z"/><path class="cls-7" d="M852.44,178a1.5,1.5,0,0,1-1.5-1.5V129a32.46,32.46,0,0,1,7.37-20.58,1.5,1.5,0,1,1,2.31,1.9A29.48,29.48,0,0,0,853.94,129v47.44A1.5,1.5,0,0,1,852.44,178Z"/><path class="cls-7" d="M904,178a1.5,1.5,0,0,1-1.5-1.5V134.3a1.5,1.5,0,1,1,3,0v42.18A1.5,1.5,0,0,1,904,178Z"/><path class="cls-7" d="M862.75,178a1.5,1.5,0,0,1-1.5-1.5V129a22.11,22.11,0,0,1,40.08-12.88,1.5,1.5,0,0,1-2.43,1.75A19.11,19.11,0,0,0,864.25,129v47.44A1.5,1.5,0,0,1,862.75,178Z"/><path class="cls-7" d="M893.66,178a1.5,1.5,0,0,1-1.5-1.5V129a8.81,8.81,0,0,0-17.61,0v22.89a1.5,1.5,0,1,1-3,0V129a11.81,11.81,0,1,1,23.61,0v47.44A1.5,1.5,0,0,1,893.66,178Z"/><path class="cls-7" d="M873.05,178a1.5,1.5,0,0,1-1.5-1.5V166.8a1.5,1.5,0,1,1,3,0v9.68A1.5,1.5,0,0,1,873.05,178Z"/><path class="cls-7" d="M883.36,178a1.5,1.5,0,0,1-1.5-1.5V139.16c0-6.14-2.08-9.3-2.1-9.33a1.5,1.5,0,0,1,2.47-1.7c.11.15,2.63,3.87,2.63,11v37.32A1.5,1.5,0,0,1,883.36,178Z"/><path class="cls-7" d="M1004.55,175.75H993.23a4.34,4.34,0,0,1-4.34-4.33v-.73a3.21,3.21,0,0,0-1.7-2.58L987,168l-9.55-5.66-.17-.11a3,3,0,0,0-3-.22l-.84.48a4.34,4.34,0,0,1-5.92-1.59l-5.66-9.8a4.36,4.36,0,0,1,1.59-5.93l1.18-.68a2.86,2.86,0,0,0,1.24-2.65,29.06,29.06,0,0,1-.37-4.72,33.5,33.5,0,0,1,.66-6.27,2.66,2.66,0,0,0-1.15-2.57l-1.56-.9a4.36,4.36,0,0,1-1.59-5.93l5.66-9.8a4.35,4.35,0,0,1,5.93-1.59l1.92,1.11a3.23,3.23,0,0,0,3.1-.17.78.78,0,0,1,.15-.1l8.39-4.7.16-.07a3.13,3.13,0,0,0,1.69-2.54v-2.43a4.34,4.34,0,0,1,4.34-4.33h11.32a4.33,4.33,0,0,1,4.33,4.33v2.43a3.12,3.12,0,0,0,1.7,2.54l.15.07,8.39,4.7.16.1a3.22,3.22,0,0,0,3.1.17l1.92-1.11a4.34,4.34,0,0,1,5.92,1.59l5.66,9.8a4.34,4.34,0,0,1-1.59,5.92l-1.56.91a2.64,2.64,0,0,0-1.14,2.57c0,.05.26,1.26.45,2.94a1.5,1.5,0,1,1-3,.34c-.17-1.52-.41-2.64-.41-2.65a5.67,5.67,0,0,1,2.58-5.8l1.56-.9a1.34,1.34,0,0,0,.49-1.83l-5.66-9.8a1.34,1.34,0,0,0-1.82-.49l-1.92,1.11a6.26,6.26,0,0,1-6.3-.3l-8.25-4.61a6.16,6.16,0,0,1-3.45-5.27v-2.43a1.34,1.34,0,0,0-1.33-1.33H993.23a1.34,1.34,0,0,0-1.34,1.33v2.43a6.16,6.16,0,0,1-3.45,5.27l-8.25,4.61a6.24,6.24,0,0,1-6.29.3L972,112.69a1.34,1.34,0,0,0-1-.13,1.33,1.33,0,0,0-.81.62l-5.66,9.8a1.34,1.34,0,0,0,.49,1.83l1.56.9a5.67,5.67,0,0,1,2.58,5.8,32,32,0,0,0-.59,5.64,27.91,27.91,0,0,0,.32,4.2,5.86,5.86,0,0,1-2.69,5.77l-1.18.68a1.34,1.34,0,0,0-.49,1.83l5.66,9.8a1.33,1.33,0,0,0,.81.62,1.34,1.34,0,0,0,1-.13l.83-.48a6.05,6.05,0,0,1,6.27.4l9.4,5.56a6.22,6.22,0,0,1,3.41,5.29v.73a1.34,1.34,0,0,0,1.34,1.33h11.32a1.34,1.34,0,0,0,1.33-1.33v-.73a6.22,6.22,0,0,1,3.41-5.29l9.41-5.56a6,6,0,0,1,6.26-.4l.84.48a1.34,1.34,0,0,0,1.82-.49l5.66-9.8a1.34,1.34,0,0,0,.13-1,1.33,1.33,0,0,0-.62-.81l-1.18-.68a5.86,5.86,0,0,1-2.69-5.77s.08-.47.16-1.19a1.5,1.5,0,0,1,3,.32c-.09.86-.18,1.39-.18,1.39a2.83,2.83,0,0,0,1.23,2.65l1.18.68a4.35,4.35,0,0,1,1.59,5.93l-5.66,9.8a4.34,4.34,0,0,1-5.92,1.59l-.84-.48a3,3,0,0,0-3,.22l-.17.11-9.55,5.66-.17.08a3.21,3.21,0,0,0-1.7,2.58v.73A4.33,4.33,0,0,1,1004.55,175.75Z"/><path class="cls-7" d="M998.89,148.85A11.7,11.7,0,1,1,1010,133.61a1.5,1.5,0,0,1-2.86.91,8.69,8.69,0,1,0,0,5.22,1.5,1.5,0,0,1,2.87.89A11.64,11.64,0,0,1,998.89,148.85Z"/><path class="cls-7" d="M78.83,261.44c-15.84,0-32.68-4-32.68-11.47,0-4.62,6.5-8.37,17.84-10.29a1.5,1.5,0,0,1,.5,3C54,244.43,49.15,247.69,49.15,250c0,3.54,11.29,8.47,29.68,8.47s29.68-4.93,29.68-8.47c0-2.29-4.83-5.56-15.42-7.35a1.5,1.5,0,1,1,.49-3c11.4,1.91,17.93,5.67,17.93,10.3C111.51,257.42,94.67,261.44,78.83,261.44Z"/><path class="cls-7" d="M78.83,270.47c-15.69,0-31.94-3.78-32.66-11a1.5,1.5,0,1,1,3-.29c.39,3.92,12.67,8.29,29.67,8.29s29.29-4.37,29.67-8.3a1.5,1.5,0,0,1,3,.29C110.79,266.69,94.53,270.47,78.83,270.47Z"/><path class="cls-7" d="M78.83,318.3c-12.22,0-24.6-3-24.69-8.84l-3-38.21a1.49,1.49,0,0,1,1.37-1.61A1.5,1.5,0,0,1,54.14,271l3,38.26v.12c0,2.41,8.45,5.91,21.69,5.91s21.69-3.5,21.69-5.91a.49.49,0,0,1,0-.12l3-38.33a1.5,1.5,0,1,1,3,.24l-3,38.28C103.43,315.27,91.06,318.3,78.83,318.3Z"/><path class="cls-7" d="M86.85,245.42h0a1.5,1.5,0,0,1-1.49-1.51l0-4.55a1.27,1.27,0,0,0-.38-.94,1.3,1.3,0,0,0-.94-.4L73.63,238h0a1.34,1.34,0,0,0-1.34,1.33l0,4.56a1.51,1.51,0,0,1-1.5,1.49h0a1.5,1.5,0,0,1-1.49-1.51l0-4.56A4.35,4.35,0,0,1,73.63,235h0l10.43.06a4.34,4.34,0,0,1,4.3,4.36l0,4.55A1.49,1.49,0,0,1,86.85,245.42Z"/><path class="cls-7" d="M70.76,310.47a5.84,5.84,0,0,1-5.83-5.83L63.24,274.7a1.5,1.5,0,0,1,3-.17l1.69,30a2.87,2.87,0,0,0,2.84,2.92,2.83,2.83,0,0,0,2.83-2.83l-.49-29.23a1.48,1.48,0,0,1,1.47-1.52,1.52,1.52,0,0,1,1.53,1.47l.49,29.25A5.84,5.84,0,0,1,70.76,310.47Z"/><path class="cls-7" d="M87.66,310.47a5.84,5.84,0,0,1-5.83-5.83l.6-29.27A1.47,1.47,0,0,1,84,273.9a1.5,1.5,0,0,1,1.47,1.53l-.6,29.24a2.84,2.84,0,0,0,5.67,0l1.8-30.19a1.5,1.5,0,1,1,3,.18l-1.79,30.1A5.83,5.83,0,0,1,87.66,310.47Z"/><path class="cls-7" d="M344.64,321.55a1.5,1.5,0,0,1-1.5-1.5V240.13a3.66,3.66,0,0,0-3.65-3.66h-60a3.66,3.66,0,0,0-3.66,3.66v79.92a1.5,1.5,0,1,1-3,0V240.13a6.67,6.67,0,0,1,6.66-6.66h60a6.66,6.66,0,0,1,6.65,6.66v79.92A1.5,1.5,0,0,1,344.64,321.55Z"/><path class="cls-7" d="M319.82,249.74H296.94a8.24,8.24,0,0,1-7.52-4.89l-1.34-3a1.51,1.51,0,0,1,.77-2,1.49,1.49,0,0,1,2,.77l1.34,3a5.23,5.23,0,0,0,4.78,3.11h22.88a5.22,5.22,0,0,0,4.77-3.11l1.33-3a1.5,1.5,0,0,1,2.75,1.22l-1.34,3A8.21,8.21,0,0,1,319.82,249.74Z"/><circle class="cls-7" cx="308.78" cy="241.83" r="2.89"/><circle class="cls-7" cx="300.35" cy="276.34" r="2.04"/><circle class="cls-7" cx="312.7" cy="276.34" r="2.04"/><path class="cls-7" d="M323.82,296.73a1.48,1.48,0,0,1-.95-.34,1.51,1.51,0,0,1-.22-2.11,18.41,18.41,0,1,0-28.6-.07,1.5,1.5,0,0,1-2.34,1.89,21.41,21.41,0,1,1,33.27.07A1.48,1.48,0,0,1,323.82,296.73Z"/><path class="cls-7" d="M333.69,321.55a1.5,1.5,0,0,1-1.5-1.5c0-11.48-10.68-20.82-23.81-20.82s-23.81,9.34-23.81,20.82a1.5,1.5,0,0,1-3,0c0-13.13,12-23.82,26.81-23.82s26.81,10.69,26.81,23.82A1.5,1.5,0,0,1,333.69,321.55Z"/><path class="cls-7" d="M308.11,293c-3.47,0-6-1.35-6.31-3.37a2.9,2.9,0,0,1,.81-2.36,7.59,7.59,0,0,1,5.5-2.36c3.82,0,4.8,2.58,5.33,4a2.42,2.42,0,0,1-.29,2.25C312.33,292.31,310.49,293,308.11,293Zm-3.25-3.74a6,6,0,0,0,3.25.74,5.2,5.2,0,0,0,2.37-.45,2.11,2.11,0,0,0-2.37-1.64A4.57,4.57,0,0,0,304.86,289.25Zm5.77.67h0Z"/><path class="cls-7" d="M460.66,304.14H409.17a4.35,4.35,0,0,1-4.34-4.34V289.32a1,1,0,0,0-.05-.35,3.18,3.18,0,0,0-.31.13l-14.4,7.21a5.57,5.57,0,0,1-8.07-5V266.79a5.58,5.58,0,0,1,8.07-5l10.82,5.44a1.5,1.5,0,1,1-1.34,2.68l-10.82-5.44a2.55,2.55,0,0,0-2.51.11,2.52,2.52,0,0,0-1.22,2.19v24.54a2.52,2.52,0,0,0,1.22,2.19,2.56,2.56,0,0,0,2.5.11l14.4-7.22a3.1,3.1,0,0,1,4.71,2.91V299.8a1.34,1.34,0,0,0,1.34,1.34h51.49A1.34,1.34,0,0,0,462,299.8V258.31a1.34,1.34,0,0,0-1.34-1.34H409.17a1.34,1.34,0,0,0-1.34,1.34v12.12a1.5,1.5,0,0,1-3,0V258.31a4.35,4.35,0,0,1,4.34-4.34h51.49a4.35,4.35,0,0,1,4.34,4.34V299.8A4.35,4.35,0,0,1,460.66,304.14Z"/><path class="cls-7" d="M538.83,311.63a1.5,1.5,0,0,1-1.5-1.5V294a24.78,24.78,0,0,1-23.25-24.71v-5.72a4.34,4.34,0,0,1,4.34-4.33h2.47a1.5,1.5,0,0,1,0,3h-2.47a1.34,1.34,0,0,0-1.34,1.33v5.72a21.77,21.77,0,0,0,21.75,21.75,1.5,1.5,0,0,1,1.5,1.5v17.55A1.5,1.5,0,0,1,538.83,311.63Z"/><path class="cls-7" d="M545,293.26a1.51,1.51,0,0,1-1.45-1.11,1.49,1.49,0,0,1,1.05-1.84,21.79,21.79,0,0,0,16-21v-5.72a1.34,1.34,0,0,0-1.33-1.33H556a1.5,1.5,0,0,1,0-3h3.3a4.33,4.33,0,0,1,4.33,4.33v5.72a24.79,24.79,0,0,1-18.17,23.87A1.44,1.44,0,0,1,545,293.26Z"/><path class="cls-7" d="M538.83,282.46a13.14,13.14,0,0,1-13.12-13.13v-19a13.13,13.13,0,1,1,26.25,0v5.18a1.5,1.5,0,0,1-3,0v-5.18a10.13,10.13,0,1,0-20.25,0v19a10.13,10.13,0,1,0,20.25,0v-5.72a1.34,1.34,0,0,0-1.34-1.33h-14a1.5,1.5,0,0,1,0-3h14a4.34,4.34,0,0,1,4.34,4.33v5.72A13.14,13.14,0,0,1,538.83,282.46Z"/><path class="cls-7" d="M548.82,317.94h-20a1.5,1.5,0,0,1,0-3h20a1.5,1.5,0,0,1,0,3Z"/><path class="cls-7" d="M756.27,320.07a1.5,1.5,0,0,1-1.47-1.21L743,258.47l-11.82,60.39a1.52,1.52,0,0,1-1.76,1.19,1.5,1.5,0,0,1-1.19-1.76L741,253.06c0-.25.52-2.45,2.14-2.45h0a1.71,1.71,0,0,1,1.68,1.56l13,66.12a1.5,1.5,0,0,1-1.19,1.76Z"/><path class="cls-7" d="M744.68,290.55h-3.41a1.5,1.5,0,0,1,0-3h3.41a1.5,1.5,0,0,1,0,3Z"/><path class="cls-7" d="M737.57,251.16a1.47,1.47,0,0,1-1.31-.77,7.68,7.68,0,1,1,13.55-.22,1.5,1.5,0,0,1-2.67-1.37,4.68,4.68,0,1,0-8.26.14,1.51,1.51,0,0,1-.58,2A1.58,1.58,0,0,1,737.57,251.16Z"/><path class="cls-7" d="M770.83,321.3a1.5,1.5,0,0,1-1.5-1.5V292a1.5,1.5,0,0,1,3,0V319.8A1.5,1.5,0,0,1,770.83,321.3Z"/><path class="cls-7" d="M787.5,321.3a1.5,1.5,0,0,1-1.5-1.5V267.16a1.5,1.5,0,0,1,3,0V319.8A1.5,1.5,0,0,1,787.5,321.3Z"/><path class="cls-7" d="M804.16,321.3a1.5,1.5,0,0,1-1.5-1.5V242.36a1.5,1.5,0,0,1,3,0V319.8A1.5,1.5,0,0,1,804.16,321.3Z"/><path class="cls-7" d="M979.35,291a7.79,7.79,0,0,1-1.64-.21l-3.44-.68c-2.16-.43-3.4-1.39-3.68-2.85a1.5,1.5,0,0,1,1.19-1.76,1.52,1.52,0,0,1,1.76,1.19h0s.22.26,1.32.48l3.43.68a4.15,4.15,0,0,0,1.25.13,2,2,0,0,0,1.39-1.26,6,6,0,0,0,.3-2.77c-.12-1.76-.62-4.14-2.27-5.46a3.49,3.49,0,0,0-2.74-.66,2.06,2.06,0,0,0-1.47.92,8,8,0,0,0-.4.83c-.48,1.08-1.2,2.71-3.05,2.85a1.5,1.5,0,0,1-.27-3,5.15,5.15,0,0,0,.58-1.09,12,12,0,0,1,.56-1.14,5,5,0,0,1,3.51-2.34,6.59,6.59,0,0,1,5.15,1.26c2,1.59,3.16,4.21,3.39,7.6a9.11,9.11,0,0,1-.52,4.15,5,5,0,0,1-3.76,3.07A4,4,0,0,1,979.35,291Z"/><path class="cls-7" d="M994.15,282.55a5.34,5.34,0,0,1-2-.35c-2.83-1.1-3.83-4.41-3.57-7.22a6.83,6.83,0,0,1,1.17-3.46,4.13,4.13,0,0,1,4-1.75,1.5,1.5,0,1,1-.5,3,1.25,1.25,0,0,0-1,.57,4,4,0,0,0-.6,2c-.16,1.68.36,3.64,1.67,4.14a2.87,2.87,0,0,0,1.57.09,5.39,5.39,0,0,0,4.12-6.12,1.5,1.5,0,1,1,2.93-.64,8.39,8.39,0,0,1-6.54,9.72A7.28,7.28,0,0,1,994.15,282.55Z"/><path class="cls-7" d="M1018.42,280.06a8.66,8.66,0,0,1-2.09-.25,1.5,1.5,0,0,1,.71-2.92,5.87,5.87,0,0,0,3.85-.38,1.68,1.68,0,0,0,.71-.51,2.37,2.37,0,0,0,.16-1.09,7.21,7.21,0,0,0-.5-2.87,4.4,4.4,0,0,0-8.21.43,1.5,1.5,0,1,1-2.85-.92,7.4,7.4,0,0,1,13.81-.72,10,10,0,0,1,.75,4.06,4.81,4.81,0,0,1-.62,2.71,4.51,4.51,0,0,1-2,1.62A8.74,8.74,0,0,1,1018.42,280.06Z"/><path class="cls-7" d="M990.54,312.4c-8.81,0-18-.86-25.25-7.1s-10.47-17.36-7.71-27.5c2.46-9.07,9.22-17.13,18.54-22.11,7.67-4.11,16.91-6.18,27.47-6.18h.76c7.58.07,21.32,1.69,28,11.78,5.31,8,4.37,18.32,2.75,27.4-.49,2.75-2,11.14-8.43,12.82-3.9,1-7.28-.92-10.54-2.8a21.92,21.92,0,0,0-5.92-2.67c-2.32-.49-5.16.51-7.59,2.68-2.59,2.32-4,5.37-3.81,8a1.5,1.5,0,1,1-3,.28c-.34-3.52,1.5-7.54,4.8-10.49,3.13-2.8,6.94-4.06,10.2-3.37a23.73,23.73,0,0,1,6.79,3c2.87,1.65,5.58,3.2,8.29,2.5,3.09-.81,5.13-4.22,6.24-10.45,1.51-8.49,2.42-18.12-2.29-25.2-6-8.94-18.59-10.39-25.58-10.45-10.4-.11-19.39,1.86-26.79,5.82-8.59,4.6-14.81,12-17.06,20.25-2.46,9.05.26,18.87,6.77,24.45s15.06,6.37,23.3,6.37a5,5,0,0,0,1.38-.55,1.5,1.5,0,1,1,1.69,2.48A7,7,0,0,1,990.54,312.4Z"/><path class="cls-7" d="M1073,315.06a1.52,1.52,0,0,1-1.28-.7,1.51,1.51,0,0,1,.49-2.07l74.89-46.56a2.91,2.91,0,0,1,4.7,2.62v42.38a4.33,4.33,0,0,1-4.33,4.33h-66.2a1.5,1.5,0,0,1,0-3h66.2a1.34,1.34,0,0,0,1.33-1.33V268.22l-.11.06-74.9,46.56A1.52,1.52,0,0,1,1073,315.06Z"/><path class="cls-7" d="M1073,308.62a1.5,1.5,0,0,1-1.5-1.5V268.35a2.91,2.91,0,0,1,4.7-2.62l30.58,19a1.5,1.5,0,1,1-1.58,2.54l-30.59-19-.11-.06v38.9A1.5,1.5,0,0,1,1073,308.62Z"/><path class="cls-7" d="M1132.08,271.43a1.5,1.5,0,0,1-1.5-1.5V246.52a1.34,1.34,0,0,0-1.33-1.34h-35.16a1.34,1.34,0,0,0-1.33,1.34v23.41a1.5,1.5,0,1,1-3,0V246.52a4.34,4.34,0,0,1,4.33-4.34h35.16a4.34,4.34,0,0,1,4.33,4.34v23.41A1.5,1.5,0,0,1,1132.08,271.43Z"/><path class="cls-7" d="M40.18,446.47a1.51,1.51,0,0,1-1.28-.71,1.5,1.5,0,0,1,.49-2.06l74.89-46.56a2.91,2.91,0,0,1,4.7,2.61v42.39a4.33,4.33,0,0,1-4.33,4.33H48.79a1.5,1.5,0,0,1,0-3h65.86a1.34,1.34,0,0,0,1.33-1.33V399.63a.3.3,0,0,0-.11.06L41,446.25A1.52,1.52,0,0,1,40.18,446.47Z"/><path class="cls-7" d="M40.18,439.74a1.5,1.5,0,0,1-1.5-1.5V399.75a2.91,2.91,0,0,1,4.7-2.61L74,416.19a1.5,1.5,0,0,1-1.58,2.55L41.79,399.69a.3.3,0,0,0-.11-.06v38.61A1.5,1.5,0,0,1,40.18,439.74Z"/><path class="cls-7" d="M108.4,398.42H49.13a1.5,1.5,0,1,1,0-3H108.4a1.5,1.5,0,1,1,0,3Z"/><circle class="cls-7" cx="181.62" cy="399.42" r="2.63"/><circle class="cls-7" cx="197.53" cy="399.42" r="2.63"/><path class="cls-7" d="M173.36,426.73a1.45,1.45,0,0,1-1.09-.47,27.15,27.15,0,1,1,39.79-.44,1.5,1.5,0,0,1-2.22-2,24.14,24.14,0,1,0-35.39.39,1.5,1.5,0,0,1-1.09,2.53Z"/><path class="cls-7" d="M224.57,457.25a1.5,1.5,0,0,1-1.5-1.5c0-15-14-27.26-31.11-27.26s-31.11,12.23-31.11,27.26a1.5,1.5,0,0,1-3,0c0-16.69,15.3-30.26,34.11-30.26s34.11,13.57,34.11,30.26A1.5,1.5,0,0,1,224.57,457.25Z"/><circle class="cls-7" cx="296.49" cy="399.42" r="2.63"/><circle class="cls-7" cx="312.4" cy="399.42" r="2.63"/><path class="cls-7" d="M288.23,426.73a1.47,1.47,0,0,1-1.09-.47,27.15,27.15,0,1,1,39.79-.44,1.5,1.5,0,0,1-2.22-2,24.14,24.14,0,1,0-35.39.39,1.5,1.5,0,0,1-1.09,2.53Z"/><path class="cls-7" d="M339.44,457.25a1.5,1.5,0,0,1-1.5-1.5,23.82,23.82,0,0,0-.58-5.26,1.51,1.51,0,0,1,1.14-1.8,1.5,1.5,0,0,1,1.79,1.14,27.39,27.39,0,0,1,.65,5.92A1.5,1.5,0,0,1,339.44,457.25Z"/><path class="cls-7" d="M274.22,457.25a1.5,1.5,0,0,1-1.5-1.5c0-16.69,15.3-30.26,34.11-30.26,10.95,0,21.31,4.71,27.71,12.6a1.5,1.5,0,1,1-2.33,1.89c-5.84-7.2-15.33-11.49-25.38-11.49-17.15,0-31.11,12.23-31.11,27.26A1.5,1.5,0,0,1,274.22,457.25Z"/><path class="cls-7" d="M309.54,455.54a3.46,3.46,0,0,1-2.06-.76l-9.23-6.91a3.5,3.5,0,0,1,0-5.8l9.23-6.91a2.76,2.76,0,0,1,4.67,2.34v4.05a1.34,1.34,0,0,0,1.33,1.33h32.36a1.5,1.5,0,1,1,0,3H313.48a4.33,4.33,0,0,1-4.33-4.33v-3.89L300,444.47a.54.54,0,0,0,0,1l9.11,6.81v-2.47a1.5,1.5,0,0,1,3,0v2.63a3,3,0,0,1-1.5,2.85A2.47,2.47,0,0,1,309.54,455.54Zm-.44-2.75Zm0-15.63"/><path class="cls-7" d="M309.54,455.54a3.46,3.46,0,0,1-2.06-.76l-9.23-6.91a3.5,3.5,0,0,1,0-5.8l9.23-6.91a2.76,2.76,0,0,1,4.67,2.34v4.05a1.34,1.34,0,0,0,1.33,1.33h32.36a1.5,1.5,0,1,1,0,3H313.48a4.33,4.33,0,0,1-4.33-4.33v-3.89L300,444.47a.54.54,0,0,0,0,1l9.11,6.81v-2.47a1.5,1.5,0,0,1,3,0v2.63a3,3,0,0,1-1.5,2.85A2.47,2.47,0,0,1,309.54,455.54Zm-.44-2.75Zm0-15.63"/><path class="cls-7" d="M398.42,440.79a1.49,1.49,0,0,1-.61-.13L380,432.72c-1.77-.79-2-1.8-1.86-2.51s.68-1.57,2.62-1.69L452.38,424a1.5,1.5,0,1,1,.19,3l-68.37,4.29L399,437.92a1.5,1.5,0,0,1-.61,2.87Z"/><path class="cls-7" d="M401.2,461.76a2.45,2.45,0,0,1-1.45-.45,3,3,0,0,1-1-3.05l2.37-13.69a6.28,6.28,0,0,1,4.33-4.7l56.25-14.51c.78-.2,2.42-.62,3,.8s-.94,2.22-1.66,2.6l-12.25,6.46a1.5,1.5,0,1,1-1.4-2.65l3.43-1.81-46.59,12a3.32,3.32,0,0,0-2.13,2.31l-2.31,13.42,42-22.94a1.5,1.5,0,1,1,1.44,2.63L403,461.26A3.75,3.75,0,0,1,401.2,461.76Z"/><path class="cls-7" d="M412.5,409.22a1.51,1.51,0,0,1-1.4-1l-9.67-25.55a3.85,3.85,0,0,1,2.86-5.23l11.94-2.5A3.85,3.85,0,0,1,421,378.6l1.43,27.72a1.5,1.5,0,1,1-3,.16L418,378.76a1,1,0,0,0-.33-.72.94.94,0,0,0-.78-.14l-11.94,2.51a.92.92,0,0,0-.66.44.94.94,0,0,0,0,.79l9.68,25.55a1.5,1.5,0,0,1-.87,1.93A1.47,1.47,0,0,1,412.5,409.22Z"/><path class="cls-7" d="M418.7,422.44a6,6,0,1,1,2.19-11.58,1.5,1.5,0,1,1-1.09,2.79,3,3,0,0,0-1.71-.14,3,3,0,1,0,3.62,2.89,1.48,1.48,0,0,1,1.47-1.52,1.51,1.51,0,0,1,1.53,1.47,6,6,0,0,1-4.77,6A6.59,6.59,0,0,1,418.7,422.44Z"/><path class="cls-7" d="M538.44,442a2.71,2.71,0,0,1-1.39-.37,3.19,3.19,0,0,1-1.47-2.88V401.27a3,3,0,0,1,4.71-2.71l34.88,20.14a1.5,1.5,0,1,1-1.5,2.59l-34.88-20.14-.19-.09a1.25,1.25,0,0,0,0,.21v37.45a1.06,1.06,0,0,0,0,.21l.19-.09,29.72-17.16a1.5,1.5,0,0,1,1.5,2.6l-29.72,17.16A3.78,3.78,0,0,1,538.44,442Z"/><path class="cls-7" d="M509.06,442a2.68,2.68,0,0,1-1.39-.37,3.18,3.18,0,0,1-1.47-2.88V401.27a3,3,0,0,1,4.7-2.71l21.15,12.2a1.5,1.5,0,1,1-1.5,2.6L509.4,401.15l-.19-.09c0,.06,0,.13,0,.21v37.45c0,.09,0,.16,0,.21l.19-.09,21.15-12.21a1.5,1.5,0,0,1,1.5,2.6L510.9,441.44A3.72,3.72,0,0,1,509.06,442Z"/><path class="cls-7" d="M624.44,414.43a1.5,1.5,0,0,1-1.5-1.5V394.35a4.33,4.33,0,0,1,4.33-4.33h18.58a1.5,1.5,0,0,1,0,3H627.27a1.34,1.34,0,0,0-1.33,1.33v18.58A1.5,1.5,0,0,1,624.44,414.43Z"/><path class="cls-7" d="M679.09,414.43a1.5,1.5,0,0,1-1.5-1.5V394.35a1.34,1.34,0,0,0-1.34-1.33H657.67a1.5,1.5,0,0,1,0-3h18.58a4.34,4.34,0,0,1,4.34,4.33v18.58A1.5,1.5,0,0,1,679.09,414.43Z"/><path class="cls-7" d="M645.85,447.67H627.27a4.34,4.34,0,0,1-4.33-4.34V424.75a1.5,1.5,0,0,1,3,0v18.58a1.34,1.34,0,0,0,1.33,1.34h18.58a1.5,1.5,0,0,1,0,3Z"/><path class="cls-7" d="M676.25,447.67H657.67a1.5,1.5,0,0,1,0-3h18.58a1.34,1.34,0,0,0,1.34-1.34V424.75a1.5,1.5,0,0,1,3,0v18.58A4.35,4.35,0,0,1,676.25,447.67Z"/><path class="cls-7" d="M741.56,449.78a1.51,1.51,0,0,1-.58-.12c-1.67-.7-1.35-2.24.88-11.42.66-2.72,1.54-6.31,1.72-7.78-6.09-3.59-9.42-8.69-10.77-16.41a16.2,16.2,0,0,1,3.09-13.18c5.32-6.91,16.7-11.3,32.93-12.7,13.13-1.13,23.36,1.41,29.59,7.35,4.67,4.45,7,10.79,6.7,18.33-.72,18.83-11.39,22.38-32.15,22.58a77.14,77.14,0,0,1-19.5-1.95c-.88,1.13-2.68,4.21-3.92,6.34-.9,1.54-1.76,3-2.47,4.14a1.5,1.5,0,1,1-2.54-1.6c.69-1.09,1.53-2.53,2.42-4.06,4.21-7.2,5-8.33,6.55-7.91a73.08,73.08,0,0,0,19.43,2c22.06-.22,28.61-4.63,29.18-19.69.26-6.75-1.68-12.15-5.77-16.05-5.59-5.33-15-7.58-27.27-6.53-15.14,1.3-26.08,5.4-30.81,11.54a13.3,13.3,0,0,0-2.5,10.84c1.24,7.13,4.22,11.52,10,14.7,1.39.77,1.17,1.92-1,10.71a86.7,86.7,0,0,0-1.86,8.7,1.5,1.5,0,0,1-1.36,2.13Zm.58-2.89Z"/><path class="cls-7" d="M873,446.49h-.06a1.48,1.48,0,0,1-1.1-.55L862.1,434a5.88,5.88,0,0,0-3.54-1.8l-3.37-.18a1.5,1.5,0,0,1,.16-3l3.38.18a8.76,8.76,0,0,1,5.7,2.91l8.6,10.59a36.44,36.44,0,0,0,0-47.7l-8.6,10.6a8.71,8.71,0,0,1-5.72,2.89l-6.89.33a1.5,1.5,0,0,0-1.4,1.47v20a1.5,1.5,0,0,1-3,0v-20a4.52,4.52,0,0,1,4.26-4.47l6.89-.33a5.8,5.8,0,0,0,3.53-1.78l9.7-11.95a1.51,1.51,0,0,1,1.1-.55,1.45,1.45,0,0,1,1.14.46A39.4,39.4,0,0,1,874,446,1.51,1.51,0,0,1,873,446.49Z"/><path class="cls-7" d="M903.77,447a1.51,1.51,0,0,1-.93-.33,1.49,1.49,0,0,1-.24-2.1c5.44-6.86,8.44-16,8.44-25.74s-3-18.88-8.44-25.73a1.5,1.5,0,0,1,.24-2.11,1.52,1.52,0,0,1,2.11.24c5.86,7.39,9.09,17.19,9.09,27.6s-3.23,20.22-9.09,27.6A1.53,1.53,0,0,1,903.77,447Z"/><path class="cls-7" d="M894,433.67a1.49,1.49,0,0,1-1.17-2.43,21,21,0,0,0,0-24.8,1.5,1.5,0,0,1,2.35-1.86,24,24,0,0,1,0,28.53A1.5,1.5,0,0,1,894,433.67Z"/><path class="cls-7" d="M990.41,447.15H976.75a4.34,4.34,0,0,1-4.34-4.33V396.2a4.34,4.34,0,0,1,4.34-4.33h16.5a1.5,1.5,0,0,1,0,3h-16.5a1.33,1.33,0,0,0-1.34,1.33v46.62a1.34,1.34,0,0,0,1.34,1.33h13.66a1.34,1.34,0,0,0,1.34-1.33v-43.1a1.5,1.5,0,0,1,3,0v43.1A4.34,4.34,0,0,1,990.41,447.15Z"/><path class="cls-7" d="M1020.91,447.15h-13.66a4.34,4.34,0,0,1-4.34-4.33V396.2a4.34,4.34,0,0,1,4.34-4.33h16.5a1.5,1.5,0,0,1,0,3h-16.5a1.33,1.33,0,0,0-1.34,1.33v46.62a1.34,1.34,0,0,0,1.34,1.33h13.66a1.34,1.34,0,0,0,1.34-1.33v-43.1a1.5,1.5,0,0,1,3,0v43.1A4.34,4.34,0,0,1,1020.91,447.15Z"/><path class="cls-7" d="M1097.24,443.19a2.73,2.73,0,0,1-1.39-.37,3.19,3.19,0,0,1-1.47-2.88V397.75a3,3,0,0,1,4.71-2.72l39,22.51a1.5,1.5,0,0,1-1.5,2.6l-39-22.51-.19-.09a1.06,1.06,0,0,0,0,.21v42.19a1.25,1.25,0,0,0,0,.21l.19-.09,33.62-19.42a1.5,1.5,0,0,1,1.5,2.6l-33.62,19.41A3.7,3.7,0,0,1,1097.24,443.19Z"/><path class="cls-7" d="M111.64,584.45h0a3.66,3.66,0,0,1-2.9-1.54l-11.26-15a2.76,2.76,0,0,1,2.34-4.67h7.32a1.5,1.5,0,0,1,0,3H100l11.16,14.92a.72.72,0,0,0,.5.34h0a.71.71,0,0,0,.49-.34l11.16-14.92h-8a4.34,4.34,0,0,1-4.34-4.33V537.78a1.34,1.34,0,0,0-1.33-1.34H46.16a1.5,1.5,0,1,1,0-3h63.48a4.34,4.34,0,0,1,4.33,4.34v24.08a1.34,1.34,0,0,0,1.34,1.33h8.15a2.75,2.75,0,0,1,2.33,4.67l-11.25,15A3.64,3.64,0,0,1,111.64,584.45ZM99.48,566.24Zm24.32,0Z"/><path class="cls-7" d="M104.07,584.94H48.26a4.34,4.34,0,0,1-4.34-4.33V555.53a1.33,1.33,0,0,0-1.33-1.34H39.08a2.75,2.75,0,0,1-2.34-4.67l6.34-8.47a3.64,3.64,0,0,1,2.9-1.54h0a3.64,3.64,0,0,1,2.9,1.54l6.34,8.47a2.75,2.75,0,0,1-2.34,4.67H51a1.5,1.5,0,0,1,0-3h1.74l-6.24-8.35a.7.7,0,0,0-.5-.33h0a.7.7,0,0,0-.5.33l-6.24,8.35h3.35a4.34,4.34,0,0,1,4.33,4.34v25.08a1.34,1.34,0,0,0,1.34,1.33h55.81a1.5,1.5,0,0,1,0,3ZM53.23,551.15"/><path class="cls-7" d="M174.28,581.45a2.81,2.81,0,0,1-1.39-.37,3.19,3.19,0,0,1-1.47-2.88V536a3,3,0,0,1,4.71-2.72l39,22.51a1.5,1.5,0,1,1-1.5,2.6l-39-22.51-.19-.1a1.27,1.27,0,0,0,0,.22V578.2a1.25,1.25,0,0,0,0,.21l.19-.1L208.13,559a1.5,1.5,0,1,1,1.5,2.6l-33.5,19.34A3.7,3.7,0,0,1,174.28,581.45Z"/><path class="cls-7" d="M216.35,589.88h-6.08a1.5,1.5,0,1,1,0-3h4.29l-7.91-5.44v4.07a4.34,4.34,0,0,1-4.33,4.34H168.47a1.5,1.5,0,0,1,0-3h33.85a1.33,1.33,0,0,0,1.33-1.34v-4.23a2.75,2.75,0,0,1,4.67-2.33l9.45,6.5c1.62,1.21,1.53,2.34,1.34,2.91S218.31,589.88,216.35,589.88Z"/><path class="cls-7" d="M336.66,594.78a1.5,1.5,0,0,1-1.5-1.5v-64.5a1.33,1.33,0,0,0-1.33-1.34H281.17a1.34,1.34,0,0,0-1.34,1.34v61.66a1.34,1.34,0,0,0,1.34,1.34h49.31a1.5,1.5,0,0,1,0,3H281.17a4.35,4.35,0,0,1-4.34-4.34V528.78a4.35,4.35,0,0,1,4.34-4.34h52.66a4.34,4.34,0,0,1,4.33,4.34v64.5A1.5,1.5,0,0,1,336.66,594.78Z"/><path class="cls-7" d="M330.44,541.3H284.56a1.5,1.5,0,1,1,0-3h45.88a1.5,1.5,0,1,1,0,3Z"/><path class="cls-7" d="M307.5,580H298a4.35,4.35,0,0,1-4.34-4.34V554.89a4.35,4.35,0,0,1,4.34-4.34h6.66a4.35,4.35,0,0,1,4.34,4.34v17.25a1.5,1.5,0,0,1-3,0V554.89a1.34,1.34,0,0,0-1.34-1.34H298a1.34,1.34,0,0,0-1.34,1.34v20.72A1.34,1.34,0,0,0,298,577h9.5a1.5,1.5,0,0,1,0,3Z"/><path class="cls-7" d="M317.58,580a1.5,1.5,0,0,1-1.5-1.5v-26.4a1.5,1.5,0,0,1,3,0v26.4A1.5,1.5,0,0,1,317.58,580Z"/><path class="cls-7" d="M435.48,595.23a8.19,8.19,0,0,1-7.88-5.92,1.5,1.5,0,0,1,2.88-.84,5.24,5.24,0,1,0,5.69-6.67,1.5,1.5,0,0,1,.38-3,8.23,8.23,0,0,1,0,16.34A9,9,0,0,1,435.48,595.23Z"/><path class="cls-7" d="M402.8,560.22a1.48,1.48,0,0,1-1.16-.56,1.5,1.5,0,0,1,.22-2.11l32.71-26.49a1.5,1.5,0,0,1,1.89,2.33l-32.71,26.49A1.48,1.48,0,0,1,402.8,560.22Z"/><path class="cls-7" d="M435.53,588.5a1.52,1.52,0,0,1-.94-.33L410.77,569a1.5,1.5,0,1,1,1.88-2.34l23.82,19.17a1.5,1.5,0,0,1-.94,2.67Z"/><path class="cls-7" d="M403,566.92c-.25,0-.49,0-.74,0a8.23,8.23,0,0,1,.12-16.41,1.5,1.5,0,1,1,.22,3,5.23,5.23,0,1,0,5.33,7,1.5,1.5,0,0,1,2.83,1A8.22,8.22,0,0,1,403,566.92Z"/><path class="cls-7" d="M436.26,540.55a1.5,1.5,0,0,1-.15-3,5.23,5.23,0,1,0-5.51-6.82,1.5,1.5,0,1,1-2.85-.92,8.24,8.24,0,1,1,8.66,10.73Z"/><path class="cls-7" d="M563.58,590a1.51,1.51,0,0,1-1.5-1.5V573.34a1.35,1.35,0,0,0,0-.22l-.21.09A8.2,8.2,0,0,1,558,574a10.5,10.5,0,0,1,0-21,8.2,8.2,0,0,1,3.91.78,1,1,0,0,0,.21.1,1.48,1.48,0,0,0,0-.23V541.79a1.33,1.33,0,0,0-1.33-1.33H547.62a2.75,2.75,0,0,1-2.33-4.67,6.62,6.62,0,0,0,1-3.57,7.5,7.5,0,0,0-15,0,6.48,6.48,0,0,0,1,3.57,2.75,2.75,0,0,1-2.33,4.67H516.91a1.34,1.34,0,0,0-1.33,1.33v43.84a1.34,1.34,0,0,0,1.33,1.34h40.33a1.5,1.5,0,0,1,0,3H516.91a4.34,4.34,0,0,1-4.33-4.34V541.79a4.33,4.33,0,0,1,4.33-4.33h13a9.72,9.72,0,0,1-1.55-5.24,10.5,10.5,0,0,1,21,0,9.72,9.72,0,0,1-1.55,5.24h13a4.33,4.33,0,0,1,4.33,4.33v11.86a3,3,0,0,1-4.7,2.74h0A6.07,6.07,0,0,0,558,556a7.5,7.5,0,0,0,0,15,6.14,6.14,0,0,0,2.46-.4,3,3,0,0,1,4.67,2.75v15.13A1.5,1.5,0,0,1,563.58,590Zm-16.31-52.55Zm-16.88,0Z"/><path class="cls-7" d="M653.83,593.25a16.07,16.07,0,0,1-16.05-16c0-3.66,2.48-9.41,5.61-16.7,4-9.25,8.94-20.75,8.94-29.56a1.5,1.5,0,0,1,3,0c0,9.42-5.09,21.25-9.18,30.75-2.76,6.41-5.37,12.47-5.37,15.51a13.05,13.05,0,1,0,26.1,0,11,11,0,0,0-.57-2.86c-.43-1.51-.94-3-1.58-4.7s-1.37-3.64-2.07-5.45l-.2-.52q-1.15-3-2.27-5.92c-.9-2.38-1.58-4.32-2.16-6.1a57.34,57.34,0,0,1-1.53-5.53c-.29-1.39-.59-4-.76-5.58-.07-.54-.11-.95-.13-1.12a1.5,1.5,0,1,1,3-.43c0,.18.08.63.15,1.22.17,1.51.45,4,.71,5.28.42,1.93,1,3.81,1.46,5.23.56,1.74,1.23,3.64,2.11,6,.73,2,1.49,3.93,2.25,5.89l.2.51c.71,1.83,1.42,3.67,2.1,5.51s1.19,3.31,1.64,4.89a13.27,13.27,0,0,1,.69,3.7A16.07,16.07,0,0,1,653.83,593.25Z"/><path class="cls-7" d="M742,591.8a1.5,1.5,0,0,1-1.5-1.5V531.92a1.5,1.5,0,0,1,3,0V590.3A1.5,1.5,0,0,1,742,591.8Z"/><path class="cls-7" d="M733.35,534.73a1.51,1.51,0,0,1-1.06-.44,1.49,1.49,0,0,1,0-2.12l6.66-6.66a4.34,4.34,0,0,1,6.13,0l6.66,6.66a1.5,1.5,0,1,1-2.12,2.12L743,527.63a1.34,1.34,0,0,0-1.89,0l-6.66,6.66A1.51,1.51,0,0,1,733.35,534.73Z"/><path class="cls-7" d="M742,598a4.32,4.32,0,0,1-3.07-1.27l-6.66-6.66a1.5,1.5,0,0,1,2.12-2.12l6.66,6.66a1.34,1.34,0,0,0,1.89,0l6.66-6.66a1.5,1.5,0,0,1,2.12,2.12l-6.66,6.66A4.28,4.28,0,0,1,742,598Z"/><path class="cls-7" d="M761.14,542.58l-.84,0a1.51,1.51,0,0,1-1.41-1.59,1.49,1.49,0,0,1,1.59-1.4c4.19.25,32.46-2.48,37-3.1a1.5,1.5,0,0,1,.41,3C794.18,540,767.78,542.58,761.14,542.58Z"/><path class="cls-7" d="M777.37,592.8a1.51,1.51,0,0,1-1.4-.95c-.06-.17-.13-.34-.19-.52a1.5,1.5,0,1,1,2.82-1c0,.15.11.3.16.44a1.49,1.49,0,0,1-.84,1.94A1.35,1.35,0,0,1,777.37,592.8Z"/><path class="cls-7" d="M775.06,580.24a1.5,1.5,0,0,1-1.5-1.39c-.63-8.26-.48-19.22.43-32.58a1.5,1.5,0,0,1,3,.2c-.89,13-1,24.15-.43,32.16a1.5,1.5,0,0,1-1.38,1.61Z"/><path class="cls-7" d="M776.53,535.27h-.15a1.49,1.49,0,0,1-1.35-1.63c.43-4.4.76-7.27.85-7.92a1.5,1.5,0,1,1,3,.38c-.11.81-.45,3.8-.84,7.83A1.5,1.5,0,0,1,776.53,535.27Z"/><path class="cls-7" d="M794.75,597.72a1.5,1.5,0,0,1-.74-2.8c3.78-2.13,15.67-11.57,15.67-17.9,0-9.89-3.62-16.09-10.75-18.41a1.5,1.5,0,0,1,.93-2.86c5.85,1.91,12.82,7.15,12.82,21.27,0,8.22-13.4,18.37-17.19,20.51A1.54,1.54,0,0,1,794.75,597.72Z"/><path class="cls-7" d="M781,559a1.5,1.5,0,0,1-.36-3,51.63,51.63,0,0,1,6.51-1.2,1.5,1.5,0,0,1,.34,3,49.53,49.53,0,0,0-6.13,1.13A1.47,1.47,0,0,1,781,559Z"/><path class="cls-7" d="M761.07,590.82a6.73,6.73,0,0,1-6.94-5.07c-1.88-6.62,3.46-18.23,14.38-24.94a1.5,1.5,0,1,1,1.57,2.56c-10.51,6.46-14.4,16.85-13.07,21.57.55,1.94,1.88,2.88,4.06,2.88,15.4,0,26.54-13,32.23-37.56.11-.48.2-.87.27-1.13a1.5,1.5,0,1,1,2.9.75c-.06.24-.14.6-.25,1.06C788.59,583.9,772.89,590.82,761.07,590.82Z"/><path class="cls-7" d="M867.34,553.91h-.23a2.92,2.92,0,0,1-2.46-2.39c-.59-2.43.74-4.56,2-6.37l.54-.75a3,3,0,0,0-1.39-1.41c-1.51-.69-3.57.38-4.81,1.79a21.6,21.6,0,0,0-2.06,3,25.93,25.93,0,0,1-2.1,3.09,6.37,6.37,0,0,1-4.48,2.64,4.18,4.18,0,0,1-3.31-1.4,3.33,3.33,0,0,1-.85-2.82,1.5,1.5,0,1,1,2.95.52c0,.12.09.25.14.31a1.2,1.2,0,0,0,.9.39,3.79,3.79,0,0,0,2.34-1.55,24.9,24.9,0,0,0,1.86-2.75,23.39,23.39,0,0,1,2.36-3.38c2-2.25,5.31-3.91,8.31-2.54a5.6,5.6,0,0,1,2,1.54l2.48-3.48a1.46,1.46,0,0,1,.32-.77c.75-.91,1.67-2,2.86-1.12s.42,2-.23,2.93c0,.16,0,.37,0,.64a11.62,11.62,0,0,0,.88,3.67c.34,1,.77,2,1.37,2.16s1.76-.73,2.49-1.77l.12-.18c.87-1.27,2-3,3.84-3.52a14.43,14.43,0,0,1,2-3,7.66,7.66,0,0,1,2.68-2.2,5.8,5.8,0,0,1,6.18,1.55,13.26,13.26,0,0,1,1.16,1.3,3.71,3.71,0,0,1,.25-.33,2.07,2.07,0,0,1,2-.85,1.88,1.88,0,0,1,1.39,1.3,3.61,3.61,0,0,1-.81,3.28,3,3,0,0,1-1.45.89,3.22,3.22,0,0,0,0,.76,84.76,84.76,0,0,0,8.4-5,1.5,1.5,0,0,1,1.69,2.48,87.6,87.6,0,0,1-9,5.39,2.89,2.89,0,0,1-2.16.33,2.64,2.64,0,0,1-1.74-2.14,6.51,6.51,0,0,1,0-2.81A4.44,4.44,0,0,1,893,540h0a9.82,9.82,0,0,0-1.05-1.19,2.86,2.86,0,0,0-2.88-.89,5.23,5.23,0,0,0-1.6,1.41,10,10,0,0,0-1,1.4,4.69,4.69,0,0,1,1.3,1.15,4.77,4.77,0,0,1,.84,4.45,4.4,4.4,0,0,1-3.3,3.11,3.51,3.51,0,0,1-3.12-1,3.33,3.33,0,0,1-.86-2.13c-1.65,2.11-3.63,3-5.48,2.37-2.08-.67-2.88-2.92-3.26-4-.2-.56-.41-1.15-.59-1.76l-1.4,2c0,.16.07.32.1.48a14.91,14.91,0,0,1-.4,5.52C869.84,552.77,868.74,553.91,867.34,553.91Zm17.76-10.49a19.21,19.21,0,0,0-.78,2.47.68.68,0,0,0,0,.49.72.72,0,0,0,.49,0,1.61,1.61,0,0,0,.9-1.12,1.81,1.81,0,0,0-.36-1.62A2.26,2.26,0,0,0,885.1,543.42Zm11.66.14Z"/><path class="cls-7" d="M874.83,583.88a9.29,9.29,0,0,1-2-.25,6.68,6.68,0,0,1-1.72-.6,5.2,5.2,0,0,1-2.46-3.29,8.08,8.08,0,0,1,0-3.64,4.3,4.3,0,0,1,4.14-4.17,11,11,0,0,1,4.59.53,1.5,1.5,0,1,1-1,2.84,8.31,8.31,0,0,0-3.36-.39,2,2,0,0,0-.68.15c-.35.17-.63.75-.8,1.6a5.32,5.32,0,0,0,0,2.32,2.21,2.21,0,0,0,1,1.42,3.58,3.58,0,0,0,.94.3,4.49,4.49,0,0,0,2,.1,1.54,1.54,0,0,0,.8-1,1.48,1.48,0,0,1,1.74-1.2,1.5,1.5,0,0,1,1.21,1.75,4.44,4.44,0,0,1-3,3.32A5.65,5.65,0,0,1,874.83,583.88Z"/><path class="cls-7" d="M885.87,581.33a3,3,0,0,1-2.33-1,3.22,3.22,0,0,1-.47-3.21,18.18,18.18,0,0,1,1.62-3.28L887,570a1.5,1.5,0,0,1,2.56,1.56l-2.34,3.85a14.85,14.85,0,0,0-1.35,2.68,2.07,2.07,0,0,0-.06.24,1.19,1.19,0,0,0,.25,0s2.92-.54,5.79-1.32l-.6-.77a1.5,1.5,0,0,1,2.37-1.83c.56.73.7.88.83,1s.3.35.94,1.17a1.68,1.68,0,0,1-.85,2.73,76.08,76.08,0,0,1-7.93,1.94A4.26,4.26,0,0,1,885.87,581.33Zm0-2.87h0Z"/><path class="cls-7" d="M900.8,577.88a1.51,1.51,0,0,1-1.4-1c-1-2.64-2-5.36-2.81-8.07a2.77,2.77,0,0,1-.1-1.53,2.66,2.66,0,0,1,2.23-1.84l7.41-1.74a2,2,0,0,1,2.53,1.47c.94,2.9,1.86,5.82,2.78,8.73a2.21,2.21,0,0,1,0,1.41,2.17,2.17,0,0,1-1.31,1.25c-.38.15-.65.27-.88.38a5.81,5.81,0,0,1-2.54.64,1.5,1.5,0,0,1-.21-3,3.09,3.09,0,0,0,1.48-.37l.34-.16c-.76-2.44-1.53-4.85-2.31-7.25l-6.45,1.51c.8,2.52,1.68,5,2.62,7.49a1.5,1.5,0,0,1-.86,1.94A1.71,1.71,0,0,1,900.8,577.88Z"/><path class="cls-7" d="M73.18,711.86a4.28,4.28,0,0,1-3.06-1.27L62,702.43a1.5,1.5,0,1,1,2.13-2.12l8.16,8.16a1.34,1.34,0,0,0,1.89,0l19-19a1.49,1.49,0,0,1,2.12,0,1.51,1.51,0,0,1,0,2.12l-19,19A4.32,4.32,0,0,1,73.18,711.86Z"/><path class="cls-7" d="M101.83,730.64a1.5,1.5,0,0,1,0-3,1.33,1.33,0,0,0,1.33-1.34V675.81a1.33,1.33,0,0,0-1.33-1.34H51.33A1.34,1.34,0,0,0,50,675.81V726.3a1.34,1.34,0,0,0,1.33,1.34H95.55a1.5,1.5,0,0,1,0,3H51.33A4.34,4.34,0,0,1,47,726.3V675.81a4.34,4.34,0,0,1,4.33-4.34h50.5a4.34,4.34,0,0,1,4.33,4.34V726.3A4.34,4.34,0,0,1,101.83,730.64Z"/><path class="cls-7" d="M198,734.18c-1.11,0-2.23-.08-3.33-.17a45.08,45.08,0,0,0-6.15,0,20.67,20.67,0,0,1-7.59-.5,20.18,20.18,0,0,1-6.53-4.12c-.76-.63-1.47-1.22-2.21-1.76s-1.55-1.05-2.39-1.59A15.62,15.62,0,0,1,161,714c-.25-1-.49-1.87-.78-2.76s-.61-1.7-1-2.61a15.9,15.9,0,0,1-.3-14.49c.35-1,.69-1.93.94-2.86s.45-2,.64-3a14.84,14.84,0,0,1,7.73-12c.74-.53,1.45-1,2.11-1.57s1.26-1.08,1.92-1.68a18.64,18.64,0,0,1,6.39-4.33,19,19,0,0,1,7.29-.48c1,.06,2,.12,2.94.12a4.66,4.66,0,0,1,4.9,3.19,5.89,5.89,0,0,1,0,2.86,5.7,5.7,0,0,0-.12,2,5.05,5.05,0,0,0,.81,1.41,6,6,0,0,1,1.44,5.25,4.5,4.5,0,0,0,0,1.85,4.4,4.4,0,0,0,1.2,1.32,8.32,8.32,0,0,1,1.76,1.91c.11.19.23.39.35.61a7.62,7.62,0,0,0,2.95,3.34,8.28,8.28,0,0,0,2.43.57,12.44,12.44,0,0,1,3.43.81,11.45,11.45,0,0,1,2.85,2,9.06,9.06,0,0,0,2.16,1.51,9.67,9.67,0,0,0,2.82.5,10.59,10.59,0,0,1,3.26.63c2.36,1,6.31,3,6.31,5a19.67,19.67,0,0,1-1.91,7.44c-.35.85-.67,1.65-.94,2.45s-.52,1.71-.76,2.57a14.67,14.67,0,0,1-9,11.57,1.54,1.54,0,0,1-2.08-.56,1.46,1.46,0,0,1,.54-2,17,17,0,0,0,5.21-3.81,16.6,16.6,0,0,0,2.47-6c.25-.89.5-1.82.8-2.72s.66-1.78,1-2.63a18.33,18.33,0,0,0,1.69-5.95,17.55,17.55,0,0,0-4.5-2.61,8.23,8.23,0,0,0-2.32-.4,12,12,0,0,1-3.7-.71,11.56,11.56,0,0,1-3-2,9.19,9.19,0,0,0-2.11-1.5,10.15,10.15,0,0,0-2.64-.59,10,10,0,0,1-3.44-.9,10.35,10.35,0,0,1-4.15-4.52l-.3-.52a6.11,6.11,0,0,0-1.16-1.2,6.54,6.54,0,0,1-2-2.51,6.91,6.91,0,0,1-.2-3.23,5.44,5.44,0,0,0,0-1.59,5.56,5.56,0,0,0-.93-1.61,7,7,0,0,1-1.31-2.54,8.49,8.49,0,0,1,.1-3.09,4.52,4.52,0,0,0,.12-1.41c-.25-.78-.62-1.14-2.05-1.14-1.06,0-2.11-.07-3.13-.13a16.6,16.6,0,0,0-6.14.33,16.21,16.21,0,0,0-5.34,3.72c-.66.59-1.34,1.21-2.05,1.78s-1.5,1.15-2.25,1.68a12,12,0,0,0-6.53,10.16c-.19,1.05-.4,2.13-.68,3.2s-.66,2.09-1,3.09a18,18,0,0,0-1.42,5.95,17.76,17.76,0,0,0,1.69,6.43c.36.9.73,1.84,1,2.78s.57,2,.82,2.94a12.89,12.89,0,0,0,7.46,10.26c.85.54,1.72,1.09,2.54,1.7s1.6,1.24,2.37,1.87a17.83,17.83,0,0,0,5.54,3.58,18.13,18.13,0,0,0,6.49.35,47.86,47.86,0,0,1,6.56.06,17.64,17.64,0,0,0,6-.17,15.72,15.72,0,0,0,5-2.8,1.5,1.5,0,0,1,1.79,2.41,18.48,18.48,0,0,1-6,3.27A13.59,13.59,0,0,1,198,734.18Z"/><path class="cls-7" d="M169.56,702.56a4.27,4.27,0,0,1-2.05-.54,4.23,4.23,0,0,1-2-2.55,1.5,1.5,0,0,1,2.89-.82,1.24,1.24,0,0,0,2.28.27,1.26,1.26,0,0,0,.11-.95,1.21,1.21,0,0,0-.59-.74,1.17,1.17,0,0,0-1-.11,1.5,1.5,0,0,1-.82-2.89,4.24,4.24,0,1,1,2.32,8.16A4.25,4.25,0,0,1,169.56,702.56Z"/><path class="cls-7" d="M192.52,705.9a4.24,4.24,0,0,1-1.33-8.27,1.5,1.5,0,1,1,.94,2.85,1.21,1.21,0,0,0-.73.62,1.24,1.24,0,0,0,1.5,1.74,1.23,1.23,0,0,0,.79-1.56,1.5,1.5,0,1,1,2.85-.94,4.24,4.24,0,0,1-2.71,5.35A4,4,0,0,1,192.52,705.9Z"/><path class="cls-7" d="M192.06,725.85a1.5,1.5,0,0,1-.34-3,1.25,1.25,0,0,0,.92-1.5,1.24,1.24,0,0,0-2.27-.36,1.23,1.23,0,0,0-.15.94,1.5,1.5,0,0,1-2.92.69,4.26,4.26,0,0,1,3.15-5.11,4.26,4.26,0,0,1,5.11,3.15,4.18,4.18,0,0,1-.52,3.2,4.23,4.23,0,0,1-2.63,1.91A2.09,2.09,0,0,1,192.06,725.85Z"/><path class="cls-7" d="M438,705.13a18.56,18.56,0,0,1-8.45-2l-3.36-1.73a15.49,15.49,0,0,0-12.84-.6l-8.93,3.57a1.5,1.5,0,0,1-1.12-2.78l8.94-3.58a18.51,18.51,0,0,1,15.32.72l3.36,1.73a15.51,15.51,0,0,0,12.7.65l5-2a3,3,0,0,0,1.69-2.46v-29a.34.34,0,0,0-.57-.38L445,669.22a18.5,18.5,0,0,1-15.17-.59l-4.07-2a15.52,15.52,0,0,0-12.81-.45l-8.57,3.53a1.5,1.5,0,1,1-1.14-2.77l8.57-3.53a18.45,18.45,0,0,1,15.28.54l4.07,2a15.53,15.53,0,0,0,12.71.49l4.79-1.93a3.27,3.27,0,0,1,4.69,3.16v29a6,6,0,0,1-3.6,5.26l-5,2A18.52,18.52,0,0,1,438,705.13Z"/><path class="cls-7" d="M397.86,738.77a1.5,1.5,0,0,1-1.5-1.5V670.52a1.5,1.5,0,0,1,3,0v66.75A1.5,1.5,0,0,1,397.86,738.77Z"/><path class="cls-7" d="M1029.67,568.39H999.2a1.5,1.5,0,0,1,0-3h29V531.48H994.26v35.41a1.5,1.5,0,1,1-3,0V530a1.5,1.5,0,0,1,1.5-1.5h36.91a1.5,1.5,0,0,1,1.5,1.5v36.91A1.5,1.5,0,0,1,1029.67,568.39Z"/><path class="cls-7" d="M1010.23,587.83h-36.9a1.5,1.5,0,0,1-1.5-1.5V549.42a1.5,1.5,0,0,1,1.5-1.5h13.25a1.5,1.5,0,0,1,0,3H974.83v33.91h33.9V573.07a1.5,1.5,0,0,1,3,0v13.26A1.5,1.5,0,0,1,1010.23,587.83Z"/><path class="cls-7" d="M549.7,706.31H536.8a1.5,1.5,0,0,1,0-3h11.4v-5.19a1.5,1.5,0,0,1,3,0v6.69A1.5,1.5,0,0,1,549.7,706.31Z"/><path class="cls-7" d="M524.45,706.31H502.7a1.5,1.5,0,0,1-1.5-1.5v-26a1.5,1.5,0,0,1,1.5-1.5h47a1.5,1.5,0,0,1,1.5,1.5v6.82a1.5,1.5,0,0,1-3,0v-5.32h-44v23h20.25a1.5,1.5,0,0,1,0,3Z"/><path class="cls-7" d="M577.63,719.31H536.8a1.5,1.5,0,0,1,0-3h39.33v-23h-44v24.5a1.5,1.5,0,0,1-3,0v-26a1.5,1.5,0,0,1,1.5-1.5h47a1.5,1.5,0,0,1,1.5,1.5v26A1.5,1.5,0,0,1,577.63,719.31Z"/><path class="cls-7" d="M686.07,715.38a1.5,1.5,0,0,1-1.5-1.5c0-3.84-6.06-7.08-13.25-7.08s-13.25,3.24-13.25,7.08a1.5,1.5,0,0,1-1.5,1.5h-8.5a1.5,1.5,0,0,1-1.5-1.5c0-3.84-6.06-7.08-13.25-7.08s-13.25,3.24-13.25,7.08a1.5,1.5,0,0,1-3,0c0-5.65,7.14-10.08,16.25-10.08,8.29,0,14.95,3.66,16.08,8.58h5.84c1.14-4.92,7.8-8.58,16.08-8.58,9.12,0,16.25,4.43,16.25,10.08A1.5,1.5,0,0,1,686.07,715.38Z"/><path class="cls-7" d="M618.58,715.38a1.43,1.43,0,0,1-.29,0,1.49,1.49,0,0,1-1.19-1.75l7.07-36.7a1.5,1.5,0,0,1,1.47-1.22h5.89a1.5,1.5,0,0,1,0,3h-4.65l-6.83,35.48A1.51,1.51,0,0,1,618.58,715.38Z"/><path class="cls-7" d="M686.07,715.38a1.51,1.51,0,0,1-1.47-1.22l-6.83-35.48h-4.66a1.5,1.5,0,0,1,0-3H679a1.51,1.51,0,0,1,1.47,1.22l7.07,36.7a1.5,1.5,0,0,1-1.19,1.75A1.43,1.43,0,0,1,686.07,715.38Z"/><path class="cls-7" d="M633.32,725c-5.52,0-10.59-1.67-13.58-4.48a1.5,1.5,0,1,1,2.06-2.18c2.4,2.26,6.82,3.66,11.52,3.66,4.34,0,8.49-1.34,11.1-3.6a1.5,1.5,0,1,1,2,2.28C643.24,723.34,638.36,725,633.32,725Z"/><path class="cls-7" d="M671.84,725c-5.52,0-10.6-1.67-13.58-4.48a1.5,1.5,0,1,1,2-2.18c2.41,2.26,6.82,3.66,11.53,3.66,4.33,0,8.48-1.34,11.1-3.6a1.5,1.5,0,0,1,1.95,2.28C681.75,723.34,676.87,725,671.84,725Z"/><path class="cls-7" d="M781.55,681.63h-40a1.5,1.5,0,0,1,0-3h40a1.5,1.5,0,0,1,0,3Z"/><path class="cls-7" d="M800.81,695.13H741.52a1.5,1.5,0,0,1,0-3h59.29a1.5,1.5,0,0,1,0,3Z"/><path class="cls-7" d="M784.76,708.63H741.52a1.5,1.5,0,0,1,0-3h43.24a1.5,1.5,0,0,1,0,3Z"/><path class="cls-7" d="M768.72,722.13h-27.2a1.5,1.5,0,0,1,0-3h27.2a1.5,1.5,0,0,1,0,3Z"/><path class="cls-7" d="M852,574.42a1.51,1.51,0,0,1-.5-.09c-1.8-.63-1.51-3.05-.92-7.86a42,42,0,0,0,.41-4.64c-7.47-3.63-11.79-8.82-12.17-14.65-.82-12.37,16-23.19,38.34-24.66s40.42,7.07,41.23,19.43-16,23.19-38.34,24.66a67.12,67.12,0,0,1-19.86-1.55,31.12,31.12,0,0,0-3,4.06,1.5,1.5,0,0,1-2.49-1.68c3.23-4.77,4.3-5.79,5.69-5.43a63.22,63.22,0,0,0,19.49,1.6c20.29-1.33,36.23-11,35.54-21.46s-17.75-18-38-16.63-36.23,11-35.54,21.46c.32,4.83,4.23,9.24,11,12.4,1.56.72,1.3,2.83.74,7.45a35.86,35.86,0,0,0-.42,5.12,1.48,1.48,0,0,1,.28,1.46A1.51,1.51,0,0,1,852,574.42Z"/><path class="cls-7" d="M914.64,594.64c-1.39,0-2.83-1.35-4-2.48l-.88-.83-.44-.43a17.14,17.14,0,0,0-2.75-2.29,58.17,58.17,0,0,1-13.88,3.79c-18.37,2.74-33.91-2.83-35.38-12.69a13.21,13.21,0,0,1,3.63-11.22,1.5,1.5,0,1,1,2.2,2,10.19,10.19,0,0,0-2.86,8.74c1.18,7.92,15.82,12.57,32,10.16a55.22,55.22,0,0,0,13.41-3.69c1.67-.71,3.43.79,5.73,3l.45.43.85.81.76.69c-.15-.85-.34-1.83-.49-2.55-.8-3.94-1.14-5.57.06-6.43,5-3.57,7.39-7.59,6.84-11.3-.53-3.55-3.79-6.59-9.18-8.57a1.5,1.5,0,1,1,1-2.82c6.47,2.38,10.42,6.26,11.11,11s-2,9.64-7.58,13.83c.06.81.41,2.54.66,3.74.84,4.13,1.22,6-.19,6.84A2,2,0,0,1,914.64,594.64Z"/><path class="cls-7" d="M1150.49,175.13a1.5,1.5,0,0,1,0-3,1.33,1.33,0,0,0,1.33-1.33V111a5.84,5.84,0,0,0-1.6-3.62l-7-6.34a7.15,7.15,0,0,0-3.93-1.51h-58.76a1.34,1.34,0,0,0-1.34,1.33v70a1.34,1.34,0,0,0,1.34,1.33h63a1.5,1.5,0,0,1,0,3h-63a4.34,4.34,0,0,1-4.34-4.33v-70a4.34,4.34,0,0,1,4.34-4.33h58.76a9.9,9.9,0,0,1,5.94,2.29l7,6.33a8.72,8.72,0,0,1,2.59,5.85V170.8A4.33,4.33,0,0,1,1150.49,175.13Z"/><path class="cls-7" d="M1129.19,122.87h-32.07a4.34,4.34,0,0,1-4.34-4.33V105.18a1.5,1.5,0,0,1,3,0v13.36a1.34,1.34,0,0,0,1.34,1.33h32.07a1.34,1.34,0,0,0,1.33-1.33V105.18a1.5,1.5,0,0,1,3,0v13.36A4.33,4.33,0,0,1,1129.19,122.87Z"/><path class="cls-7" d="M1125.37,115.76a1.5,1.5,0,0,1-1.5-1.5V109a1.34,1.34,0,0,0-1.34-1.34h-2.66a1.34,1.34,0,0,0-1.33,1.34v2.47a2.3,2.3,0,0,0,.34,1.33h1.48a1.5,1.5,0,0,1,0,3h-1.66c-1.8,0-3.16-1.86-3.16-4.33V109a4.33,4.33,0,0,1,4.33-4.34h2.66a4.34,4.34,0,0,1,4.34,4.34v5.3A1.5,1.5,0,0,1,1125.37,115.76Z"/><path class="cls-7" d="M1138.69,168.75a1.5,1.5,0,0,1,0-3,1.34,1.34,0,0,0,1.33-1.33V131.81a1.34,1.34,0,0,0-1.33-1.34H1088a1.33,1.33,0,0,0-1.33,1.34v32.61a1.33,1.33,0,0,0,1.33,1.33h43.51a1.5,1.5,0,0,1,0,3H1088a4.33,4.33,0,0,1-4.33-4.33V131.81a4.34,4.34,0,0,1,4.33-4.34h50.66a4.34,4.34,0,0,1,4.33,4.34v32.61A4.33,4.33,0,0,1,1138.69,168.75Z"/><path class="cls-7" d="M1001.62,734.88a35.75,35.75,0,0,1-35.15-29.15,1.49,1.49,0,0,1,1.2-1.75,1.52,1.52,0,0,1,1.75,1.2,32.74,32.74,0,1,0-.54-7.33l24,0h0a1.33,1.33,0,0,0,.94-.39,1.32,1.32,0,0,0,.4-.94V685.68a2.75,2.75,0,0,1,4.66-2.34l18.89,14.13a3.5,3.5,0,0,1,0,5.8L998.87,717.4a2.75,2.75,0,0,1-4.66-2.34v-10a1.5,1.5,0,1,1,3,0v9.8l18.75-14a.69.69,0,0,0,.34-.5.66.66,0,0,0-.34-.49l-18.75-14v10.7a4.35,4.35,0,0,1-4.34,4.33h0l-25.51,0a1.5,1.5,0,0,1-1.5-1.49,35.76,35.76,0,1,1,35.76,35.52Zm-4.37-19.47h0Z"/><path class="cls-7" d="M1112.21,733.47a35.67,35.67,0,1,1,6.6-.6,1.5,1.5,0,1,1-.55-3,32.85,32.85,0,1,0-7.33.53l0-24a1.33,1.33,0,0,0-.39-.94,1.35,1.35,0,0,0-.94-.39h-10.86a2.76,2.76,0,0,1-2.34-4.67l14.13-18.89a3.5,3.5,0,0,1,5.8,0l14.13,18.89a2.76,2.76,0,0,1-2.34,4.67h-10a1.5,1.5,0,0,1,0-3H1128l-14-18.76c-.32-.43-.68-.43-1,0l-14,18.76h10.7a4.34,4.34,0,0,1,4.33,4.33l0,25.51a1.49,1.49,0,0,1-1.49,1.5Z"/><path class="cls-7" d="M653.83,311.63a1.5,1.5,0,0,1-1.5-1.5V294a24.78,24.78,0,0,1-23.25-24.71v-5.72a4.34,4.34,0,0,1,4.34-4.33h2.47a1.5,1.5,0,0,1,0,3h-2.47a1.34,1.34,0,0,0-1.34,1.33v5.72a21.77,21.77,0,0,0,21.75,21.75,1.5,1.5,0,0,1,1.5,1.5v17.55A1.5,1.5,0,0,1,653.83,311.63Z"/><path class="cls-7" d="M660,293.26a1.51,1.51,0,0,1-1.45-1.11,1.49,1.49,0,0,1,1.05-1.84,21.8,21.8,0,0,0,16-21v-5.72a1.5,1.5,0,0,1,3,0v5.72a24.79,24.79,0,0,1-18.17,23.87A1.39,1.39,0,0,1,660,293.26Z"/><path class="cls-7" d="M665.46,265.11a1.5,1.5,0,0,1-1.5-1.5,1.34,1.34,0,0,0-1.34-1.33h-14a1.5,1.5,0,0,1,0-3h14a4.34,4.34,0,0,1,4.34,4.33A1.5,1.5,0,0,1,665.46,265.11Z"/><path class="cls-7" d="M659.22,281.14a1.5,1.5,0,0,1-.69-2.83,10.2,10.2,0,0,0,4.11-4,1.5,1.5,0,0,1,2.61,1.48,13.15,13.15,0,0,1-5.33,5.15A1.6,1.6,0,0,1,659.22,281.14Z"/><path class="cls-7" d="M647.89,280.83a1.41,1.41,0,0,1-.76-.21,13.19,13.19,0,0,1-6.42-11.29v-19a13.13,13.13,0,1,1,26.25,0v5.18a1.5,1.5,0,0,1-3,0v-5.18a10.13,10.13,0,1,0-20.25,0v19a10.15,10.15,0,0,0,4.95,8.71,1.5,1.5,0,0,1-.77,2.79Z"/><path class="cls-7" d="M663.82,317.94h-20a1.5,1.5,0,0,1,0-3h20a1.5,1.5,0,0,1,0,3Z"/><path class="cls-7" d="M616.18,318.79a1.45,1.45,0,0,1-1.06-.44,1.49,1.49,0,0,1,0-2.12l78.64-78.64a1.5,1.5,0,0,1,2.12,2.12l-78.64,78.64A1.48,1.48,0,0,1,616.18,318.79Z"/><path class="cls-7" d="M1102.3,600.38a5.38,5.38,0,0,1-1.63-.25c-2.75-.89-4.11-3.75-5.43-6.51-.86-1.8-1.75-3.66-2.86-4.48s-3.21-1.1-5.21-1.37c-3-.4-6.12-.82-7.79-3.12s-1.1-5.35-.57-8.32c.37-2,.74-4.07.3-5.44s-1.89-2.67-3.32-4c-2.24-2.13-4.55-4.32-4.55-7.26s2.31-5.13,4.55-7.25c1.43-1.36,2.9-2.76,3.32-4s.07-3.44-.3-5.44c-.53-3-1.09-6,.57-8.32s4.78-2.71,7.79-3.12c2-.27,4.07-.54,5.21-1.37s2-2.68,2.86-4.48c1.32-2.76,2.68-5.61,5.43-6.5s5.35.61,8,2c1.82,1,3.7,2,5.18,2s3.37-1,5.18-2c2.63-1.41,5.36-2.88,8-2s4.11,3.74,5.43,6.5c.86,1.8,1.75,3.67,2.87,4.48s3.2,1.1,5.2,1.37c3,.41,6.12.82,7.8,3.12s1.1,5.35.56,8.32c-.36,2-.74,4.07-.29,5.44s1.88,2.67,3.31,4c2.24,2.12,4.55,4.31,4.55,7.25s-2.31,5.13-4.55,7.26c-1.43,1.35-2.9,2.75-3.31,4s-.07,3.43.29,5.43c.54,3,1.09,6-.56,8.32s-4.79,2.72-7.8,3.12c-2,.27-4.07.55-5.2,1.38a7,7,0,0,0-1.86,2.44,1.5,1.5,0,0,1-2.64-1.42,9.77,9.77,0,0,1,2.73-3.45c1.75-1.28,4.2-1.6,6.57-1.92s4.85-.65,5.77-1.92.46-3.66,0-6-.87-4.82-.2-6.9,2.41-3.67,4.11-5.28,3.61-3.43,3.61-5.08-1.84-3.39-3.61-5.08-3.46-3.28-4.11-5.28-.23-4.53.2-6.89.86-4.78,0-6-3.38-1.59-5.77-1.91-4.82-.65-6.57-1.93-2.78-3.47-3.81-5.61-2.12-4.45-3.64-4.94-3.56.7-5.64,1.81-4.36,2.35-6.6,2.35-4.46-1.19-6.6-2.35-4.22-2.27-5.64-1.81-2.59,2.76-3.64,4.94-2.08,4.36-3.81,5.61-4.2,1.61-6.57,1.92-4.85.66-5.77,1.92-.46,3.67,0,6,.87,4.81.19,6.89-2.41,3.67-4.1,5.28-3.62,3.43-3.62,5.08,1.84,3.39,3.62,5.08,3.45,3.28,4.1,5.28.23,4.53-.2,6.9-.86,4.77,0,6,3.39,1.6,5.77,1.92,4.82.64,6.57,1.92,2.79,3.47,3.81,5.61,2.13,4.45,3.64,4.94,3.56-.69,5.64-1.81,4.36-2.35,6.6-2.35,4.46,1.2,6.6,2.35,4.22,2.27,5.64,1.81a3.89,3.89,0,0,0,1.9-1.69,1.5,1.5,0,0,1,2.48,1.69,6.83,6.83,0,0,1-3.45,2.86c-2.63.85-5.36-.61-8-2-1.81-1-3.69-2-5.18-2s-3.36,1-5.18,2C1106.56,599.23,1104.42,600.38,1102.3,600.38Z"/><path class="cls-7" d="M1109.43,570.94a4.32,4.32,0,0,1-3.06-1.27l-8.17-8.16a1.51,1.51,0,1,1,2.13-2.13l8.16,8.17a1.34,1.34,0,0,0,1.89,0l19-19a1.5,1.5,0,1,1,2.12,2.13l-19,19A4.36,4.36,0,0,1,1109.43,570.94Z"/><path class="cls-7" d="M883.83,305.65a5.69,5.69,0,0,1,0-11.37,5.32,5.32,0,0,1,.81.06,1.5,1.5,0,0,1-.43,3,2.34,2.34,0,0,0-.38,0,2.69,2.69,0,1,0,2.64,3.2,1.5,1.5,0,1,1,2.95.56A5.7,5.7,0,0,1,883.83,305.65Z"/><path class="cls-7" d="M845.74,281.49a1.59,1.59,0,0,1-.75-.2,1.51,1.51,0,0,1-.55-2.05,45.49,45.49,0,0,1,78.76,0,1.5,1.5,0,1,1-2.6,1.5,42.49,42.49,0,0,0-73.56,0A1.5,1.5,0,0,1,845.74,281.49Z"/><path class="cls-7" d="M912.4,287a1.49,1.49,0,0,1-1.3-.75,31.49,31.49,0,0,0-54.53,0,1.51,1.51,0,0,1-2.05.55,1.5,1.5,0,0,1-.55-2,34.49,34.49,0,0,1,59.72,0,1.5,1.5,0,0,1-.54,2A1.59,1.59,0,0,1,912.4,287Z"/><path class="cls-7" d="M864.79,292.46a1.48,1.48,0,0,1-.75-.2,1.5,1.5,0,0,1-.54-2.05,23.5,23.5,0,0,1,40.67,0,1.5,1.5,0,1,1-2.6,1.5,20.51,20.51,0,0,0-35.48,0A1.47,1.47,0,0,1,864.79,292.46Z"/></g></svg>