<svg xmlns="http://www.w3.org/2000/svg" viewBox="0 0 1190.55 841.89"><defs><style>.cls-1{font-size:19px;}.cls-1,.cls-2,.cls-3,.cls-5,.cls-7,.cls-8{fill:#fff;}.cls-1,.cls-2,.cls-5{font-family:KozGoPro-Medium-90ms-RKSJ-H, Kozuka Gothic Pro;}.cls-2{font-size:16px;}.cls-3,.cls-5{font-size:13px;}.cls-3{font-family:KozGoPro-Bold-90ms-RKSJ-H, Kozuka Gothic Pro;}.cls-4{letter-spacing:-0.5em;}.cls-6{fill:none;stroke:#dcdddd;stroke-miterlimit:10;}.cls-8{font-size:12px;font-family:KozGoPro-Regular-90ms-RKSJ-H, Kozuka Gothic Pro;}.cls-9{fill:#fbfdfe;}.cls-10{fill:#f8fcfc;}</style></defs><title>matuba</title><g id="テンプレート"><text class="cls-1" transform="translate(960.28 46.3)">www.design-icon.com</text><text class="cls-2" transform="translate(447.3 55.3)">DESIGNER : 松葉</text><text class="cls-3" transform="translate(833.83 817.27)">利用規約：個人、商用、すべてフリーでご利用ください<tspan class="cls-4" x="325" y="0">。</tspan></text><text class="cls-5" transform="translate(447.3 30.16)">サイズ：100 x 100 px</text><rect class="cls-6" x="28.83" y="87.3" width="100" height="100"/><rect class="cls-6" x="143.83" y="87.3" width="100" height="100"/><rect class="cls-6" x="258.83" y="87.3" width="100" height="100"/><rect class="cls-6" x="373.83" y="87.3" width="100" height="100"/><rect class="cls-6" x="488.83" y="87.3" width="100" height="100"/><rect class="cls-6" x="603.83" y="87.3" width="100" height="100"/><rect class="cls-6" x="718.83" y="87.3" width="100" height="100"/><rect class="cls-6" x="833.83" y="87.3" width="100" height="100"/><rect class="cls-6" x="948.83" y="87.3" width="100" height="100"/><rect class="cls-6" x="1063.83" y="87.3" width="100" height="100"/><rect class="cls-6" x="28.83" y="228.07" width="100" height="100"/><rect class="cls-6" x="143.83" y="228.07" width="100" height="100"/><rect class="cls-6" x="258.83" y="228.07" width="100" height="100"/><rect class="cls-6" x="373.83" y="228.07" width="100" height="100"/><rect class="cls-6" x="488.83" y="228.07" width="100" height="100"/><rect class="cls-6" x="603.83" y="228.07" width="100" height="100"/><rect class="cls-6" x="718.83" y="228.07" width="100" height="100"/><rect class="cls-6" x="833.83" y="228.07" width="100" height="100"/><rect class="cls-6" x="948.83" y="228.07" width="100" height="100"/><rect class="cls-6" x="1063.83" y="228.07" width="100" height="100"/><rect class="cls-6" x="28.83" y="368.84" width="100" height="100"/><rect class="cls-6" x="143.83" y="368.84" width="100" height="100"/><rect class="cls-6" x="258.83" y="368.84" width="100" height="100"/><rect class="cls-6" x="373.83" y="368.84" width="100" height="100"/><rect class="cls-6" x="488.83" y="368.84" width="100" height="100"/><rect class="cls-6" x="603.83" y="368.84" width="100" height="100"/><rect class="cls-6" x="718.83" y="368.84" width="100" height="100"/><rect class="cls-6" x="833.83" y="368.84" width="100" height="100"/><rect class="cls-6" x="948.83" y="368.84" width="100" height="100"/><rect class="cls-6" x="1063.83" y="368.84" width="100" height="100"/><rect class="cls-6" x="28.83" y="509.61" width="100" height="100"/><rect class="cls-6" x="143.83" y="509.61" width="100" height="100"/><rect class="cls-6" x="258.83" y="509.61" width="100" height="100"/><rect class="cls-6" x="373.83" y="509.61" width="100" height="100"/><rect class="cls-6" x="488.83" y="509.61" width="100" height="100"/><rect class="cls-6" x="603.83" y="509.61" width="100" height="100"/><rect class="cls-6" x="718.83" y="509.61" width="100" height="100"/><rect class="cls-6" x="833.83" y="509.61" width="100" height="100"/><rect class="cls-6" x="948.83" y="509.61" width="100" height="100"/><rect class="cls-6" x="1063.83" y="509.61" width="100" height="100"/><rect class="cls-6" x="28.83" y="650.38" width="100" height="100"/><rect class="cls-6" x="143.83" y="650.38" width="100" height="100"/><rect class="cls-6" x="258.83" y="650.38" width="100" height="100"/><rect class="cls-6" x="373.83" y="650.38" width="100" height="100"/><rect class="cls-6" x="488.83" y="650.38" width="100" height="100"/><rect class="cls-6" x="603.83" y="650.38" width="100" height="100"/><rect class="cls-6" x="718.83" y="650.38" width="100" height="100"/><rect class="cls-6" x="833.83" y="650.38" width="100" height="100"/><rect class="cls-6" x="948.83" y="650.38" width="100" height="100"/><rect class="cls-6" x="1063.83" y="650.38" width="100" height="100"/><path class="cls-7" d="M132.54,36.42h-2.67a.57.57,0,0,0-.57.57v.09a.58.58,0,0,0,.57.6h2.67a.6.6,0,0,0,.6-.6V37A.58.58,0,0,0,132.54,36.42Z"/><path class="cls-7" d="M126.24,26.94H123.3a1.45,1.45,0,0,0-1.41.9c0,.21.15.21.48.21h3.18a1.23,1.23,0,0,0,1.29-.87C126.84,27,126.63,26.94,126.24,26.94Z"/><path class="cls-7" d="M132.54,31.83h-2.67a.57.57,0,0,0-.57.57v.06a.6.6,0,0,0,.57.6h2.67a.6.6,0,0,0,.6-.6V32.4A.6.6,0,0,0,132.54,31.83Z"/><path class="cls-7" d="M124.62,36.42h-2.55c-.51,0-.57.39-.57.78a.43.43,0,0,0,.48.48h2.64a.6.6,0,0,0,.57-.6V37A.57.57,0,0,0,124.62,36.42Z"/><path class="cls-7" d="M124.62,31.83h-2.51a.6.6,0,0,0-.61.57v.06a.6.6,0,0,0,.61.6h2.51a.6.6,0,0,0,.57-.6V32.4A.59.59,0,0,0,124.62,31.83Z"/><path class="cls-7" d="M29,0V55.37a12,12,0,0,0,12,12H413.83a12,12,0,0,0,12-12V0ZM269.59,23.61a3.13,3.13,0,0,1,.92.42,34.26,34.26,0,0,1,5.28,3.78.64.64,0,0,1,.27.54c0,.87-2.13,3.3-2.82,3.3a1.31,1.31,0,0,1-.75-.45,30.82,30.82,0,0,0-5-3.51c-.25-.15-.54-.33-.54-.63C266.92,26.46,268.71,23.61,269.59,23.61ZM68.27,50.22a16,16,0,1,1,16-16A16,16,0,0,1,68.27,50.22Zm67.66-2.46a11.55,11.55,0,0,1-4.56.69c-1.59,0-2-.27-2.22-1.11a8.06,8.06,0,0,1-.27-2.1c0-.51,0-1.2.72-1.2.39,0,.87.09,1.59.09,1.8,0,1.95-.21,1.95-1.23v-.72c0-.63-.33-.9-.93-.9H121.89c-.87,0-1,.48-1.35,1.23a16.06,16.06,0,0,1-4,5.52,1.05,1.05,0,0,1-.71.27c-1.06,0-3-2.1-3-2.88,0-.21.2-.36.36-.48a12.12,12.12,0,0,0,2.66-3.18A11.6,11.6,0,0,0,117.15,36V33c0-.15,0-.45-.23-.45a1.58,1.58,0,0,0-.63.33,1.56,1.56,0,0,1-.79.33c-.77,0-2.63-2.19-2.63-2.85,0-.18.24-.36.72-.69,2.49-1.65,6.06-4.86,7.4-8,.16-.36.24-.51.6-.51s2.94.6,3.63.72c.39.06,1,.18,1,.57,0,.24-.27.36-.54.42s-.39.12-.39.3.3.21.45.21h2.28c.81,0,1.59-.06,2.4-.06a3.17,3.17,0,0,1,3,2.43c0,.42-.51,1-.87,1.44a1.53,1.53,0,0,0-.45.69c0,.18.24.21.72.21.9,0,2-.06,2.88-.06s1.86.15,1.86,1.68c0,.75-.06,1.68-.06,2.7v8.94c0,.9.09,1.8.09,2.7C137.64,45.54,137.46,47,135.93,47.76Zm33.18-2.34c-.81,2.16-1.83,2.31-3.84,2.31h-2.58c-1.68,0-3.48-.39-3.48-2.61,0-1.26.69-9.45.87-11.19.06-.72.21-1.92.21-2.61,0-.9-.69-.9-1.41-.9h-2.46c-.72,0-1,.39-1,1.08a33.26,33.26,0,0,1-.48,3.87,2,2,0,0,0-.06.42,1.55,1.55,0,0,0,.72,1.29c.72.48,1.44,1.05,2.13,1.59.27.21.6.45.6.81,0,.66-1.59,3.09-2.34,3.09-.12,0-.3-.06-.6-.33a7.73,7.73,0,0,0-2-1.44c-.3,0-.51.24-.69.57a20.44,20.44,0,0,1-2.67,3.39c-.72.78-4,3.48-4.89,3.48s-2.45-2.16-2.45-2.85c0-.39.42-.63.72-.78a14.35,14.35,0,0,0,4.5-3.6,10.94,10.94,0,0,0,1.67-2.61c0-.27-.12-.36-.48-.57-.92-.54-1.88-1.08-2.82-1.62a.73.73,0,0,1-.41-.6c0-.39,1.29-3,2.19-3a7.32,7.32,0,0,1,1.67.78c.54.33.78.48,1,.48s.34-.3.36-.51.21-1.77.21-2.07c0-.66-.54-.84-1.08-.84H148c-1.18,0-2.35.09-3.52.09-.69,0-.77-.3-.77-1.14v-2c0-.84.08-1.14.77-1.14,1.17,0,2.34.09,3.52.09h2.45c.81,0,1.05-.51,1.05-.87s0-.87,0-1.56-.06-1.47-.06-2.22c0-.42.18-.63.6-.63s2.31.15,2.64.18c1.26.15,1.71.24,1.71.48s-.24.45-.48.63a.49.49,0,0,0-.21.42c0,.87,0,1.74,0,2.61,0,.72.54,1,1.17,1h3.66c1,0,1.95-.09,2.94-.09s1.59.24,1.59,1.38a10.22,10.22,0,0,1-.15,1.26c-.21,1.47-1.26,12.75-1.26,14,0,.48.18.63.66.63h.63c.72,0,.84-1,1-3.75,0-.48.18-.69.69-.69a9.28,9.28,0,0,1,2.19.36c.69.24,1.29.57,1.29,1.38A18,18,0,0,1,169.11,45.42Zm29.31-16.29a5.76,5.76,0,0,0-.42.45c-1.71,1.89-3.48,3.69-5.31,5.43l-.27.27c-.54.54-1.11,1-1.47,1s-1.8-1.11-2.31-1.53a.51.51,0,0,0-.3-.09c-.36,0-.45.18-.54.54-.93,3.78-2.31,7-5.19,9.78-.5.48-2.4,2.22-3,2.22s-3.73-2.4-3.73-3.06c0-.18.25-.33.87-.69A13.3,13.3,0,0,0,183.24,34a16.92,16.92,0,0,0,.12-2.19c0-.06,0-.09,0-.15,0-.24,0-.33.3-.33.87,0,3.81.12,4.5.21.51.06.6.18.6.33s-.09.18-.12.27a.23.23,0,0,0-.06.12.25.25,0,0,0,.27.24.27.27,0,0,0,.21-.09c.24-.21,2.13-1.86,2.13-2.25,0-.18-.15-.33-.48-.33H179.61c-1.11,0-2.19,0-3.26,0-.43,0-.85,0-1.26,0-.93,0-1-.33-1-2V26.37c0-.66.12-1.05.87-1.05,1.52,0,3.05.06,4.61.06h13.2a16.63,16.63,0,0,0,2.76-.18,3,3,0,0,1,.51-.06c.54,0,.9.39,1.29.78s1.68,1.65,1.68,2.37C199.05,28.62,198.72,28.89,198.42,29.13ZM225.51,25a1.91,1.91,0,0,0-1.08.51c-.72.72-2,2.37-4.29,4.65a2,2,0,0,0-.69,1.53v11c0,.81,0,1.62,0,2.43,0,.54,0,1.11,0,1.68,0,.93-.51,1-2,1h-1.23c-1.41,0-1.62-.18-1.62-.87,0-1.35.06-2.7.06-4.05V36.21c0-.45-.15-.75-.54-.75a2,2,0,0,0-.87.45c-.81.57-4.94,3.33-5.63,3.33s-3.51-2.76-3.51-3.54c0-.33.36-.45.63-.54A41.54,41.54,0,0,0,210.63,32a35.93,35.93,0,0,0,7.65-6.48A30.94,30.94,0,0,0,221,21.81c.06-.15.18-.36.39-.36.45,0,3,1.83,3.87,2.49.36.27.6.57.6.75S225.69,25,225.51,25Zm29.25,20.16h-1.71c-1.14,0-1.26-.12-1.38-.6-.18-.66-.6-.66-1.59-.66H238.29c-.39,0-.81.06-1.23.06-.71,0-.81-.39-.81-1.44V40.41c0-.9.06-1.17.69-1.17.4,0,1,.06,1.44.06.93,0,1.86,0,2.82,0h9.39a.93.93,0,0,0,.93-.93V31.86a.93.93,0,0,0-.93-.93h-9.42c-.87,0-1.73,0-2.58,0-.54,0-1.05.06-1.55.06-.66,0-.81-.27-.81-1.62V27.6c0-1.14.15-1.32.69-1.32s.89.06,1.31.06h13.35c.9,0,1.8,0,2.7,0,1.2,0,1.89.36,1.89,1.65,0,1,0,2,0,3V41.13c0,.87.06,1.74.06,2.64C256.2,45,256.17,45.18,254.76,45.18Zm31.44-9.66c-4.83,4.71-9.66,7.41-15.66,10.29a1.3,1.3,0,0,0-.81.78.26.26,0,0,1-.24.18c-.24,0-.42-.27-.53-.48A24.31,24.31,0,0,1,267.54,44a8,8,0,0,1-.87-1.8c0-.27.33-.42.58-.48a31.52,31.52,0,0,0,7.67-3.3A40.18,40.18,0,0,0,285.75,29l.18-.24c.27-.39.51-.72.84-.72.6,0,1.53,1.62,1.8,2.1.06.09.09.21.18.33a4.77,4.77,0,0,1,.51,1.41C289.26,32.61,286.83,34.92,286.2,35.52Z"/></g><g id="アイコン名"><text class="cls-8" transform="translate(48.83 213.41)">お気に入り</text><text class="cls-8" transform="translate(182.16 213.41)">再生</text><text class="cls-8" transform="translate(291.5 213.41)">再生中</text><text class="cls-8" transform="translate(412.83 213.41)">停止</text><text class="cls-8" transform="translate(516.16 213.41)">スキップ</text><text class="cls-8" transform="translate(625.5 213.41)">逆スキップ</text><text class="cls-8" transform="translate(752.83 213.41)">早送り</text><text class="cls-8" transform="translate(862.16 213.41)">巻き戻し</text><text class="cls-8" transform="translate(989.5 213.41)">音声</text><text class="cls-8" transform="translate(1092.83 213.41)">ミュート</text><text class="cls-8" transform="translate(48.83 351.9)">ヘッドホン</text><text class="cls-8" transform="translate(176.16 351.9)">メール</text><text class="cls-8" transform="translate(279.5 351.9)">メール送信</text><text class="cls-8" transform="translate(394.83 351.9)">メール受信</text><text class="cls-8" transform="translate(528.16 351.9)">電池</text><text class="cls-8" transform="translate(631.5 351.9)">リプライ</text><text class="cls-8" transform="translate(746.83 351.9)">リピート</text><text class="cls-8" transform="translate(862.16 351.9)">取り消し</text><text class="cls-8" transform="translate(989.5 351.9)">禁止</text><text class="cls-8" transform="translate(1104.83 351.9)">起動</text><text class="cls-8" transform="translate(30.83 492.39)">ストップウォッチ</text><text class="cls-8" transform="translate(170.16 492.39)">アラーム</text><text class="cls-8" transform="translate(291.5 492.39)">タイマ</text><text class="cls-8" transform="translate(412.83 492.39)">追加</text><text class="cls-8" transform="translate(528.16 492.39)">削除</text><text class="cls-8" transform="translate(619.5 492.39)">もう一度再生</text><text class="cls-8" transform="translate(758.83 492.39)">天気</text><text class="cls-8" transform="translate(862.16 492.39)">取り出し</text><text class="cls-8" transform="translate(977.5 492.39)">フォルダ</text><text class="cls-8" transform="translate(1098.83 492.39)">ごみ箱</text><text class="cls-8" transform="translate(54.83 630.89)">アンテナ</text><text class="cls-8" transform="translate(170.16 630.89)">チェック</text><text class="cls-8" transform="translate(285.5 630.89)">ピン止め</text><text class="cls-8" transform="translate(412.83 630.89)">縮小</text><text class="cls-8" transform="translate(528.16 630.89)">拡大</text><text class="cls-8" transform="translate(643.5 630.89)">検索</text><text class="cls-8" transform="translate(752.83 630.89)">マイク</text><text class="cls-8" transform="translate(876.51 630.89)">wifi</text><text class="cls-8" transform="translate(941.5 630.89)">ハンバーガーメニュー</text><text class="cls-8" transform="translate(1098.83 630.89)">ホーム</text><text class="cls-8" transform="translate(42.83 773.38)">システム更新</text><text class="cls-8" transform="translate(170.16 773.38)">クラウド</text><text class="cls-8" transform="translate(279.5 773.38)">キーパット</text><text class="cls-8" transform="translate(406.83 773.38)">右矢印</text><text class="cls-8" transform="translate(528.16 773.38)">上へ</text><text class="cls-8" transform="translate(625.5 773.38)">ロック解除</text><text class="cls-8" transform="translate(752.83 773.38)">ロック</text><text class="cls-8" transform="translate(874.16 773.38)">音楽</text><text class="cls-8" transform="translate(983.5 773.38)">フラグ</text><text class="cls-8" transform="translate(1092.83 773.38)">タグ付け</text></g><g id="レイヤー_3" data-name="レイヤー 3"><path class="cls-9" d="M187.86,113.37l27.85,16.11a9.2,9.2,0,0,1,0,15.93l-27.89,16.07a9.2,9.2,0,0,1-13.79-8l0-32.18A9.19,9.19,0,0,1,187.86,113.37Z"/><rect class="cls-9" x="315.4" y="112.15" width="12.88" height="47.33" rx="6.44"/><rect class="cls-9" x="292.04" y="112.29" width="12.88" height="47.33" rx="6.44"/><rect class="cls-9" x="399.66" y="113.39" width="47.18" height="47.18" rx="8.54"/><path class="cls-9" d="M673.91,111.58l-21,14.52a12.4,12.4,0,0,0,0,20.4L674,161c5.27,3.63,11.84-.92,11.83-8.19l0-33C685.75,112.48,679.17,107.94,673.91,111.58Z"/><rect class="cls-9" x="632.33" y="110.31" width="10.08" height="52.65" rx="5.04" transform="translate(1274.74 273.27) rotate(180)"/><path class="cls-9" d="M526.21,111.58l22.16,15.33a11.43,11.43,0,0,1,0,18.79L526.17,161c-5.27,3.63-11.85-.92-11.84-8.19l0-33C514.37,112.48,521,107.94,526.21,111.58Z"/><rect class="cls-9" x="557.71" y="110.31" width="10.08" height="52.65" rx="4.06"/><path class="cls-9" d="M994.13,119.1l-15.71,9.07a3.28,3.28,0,0,0-1-.17H966.85a3.35,3.35,0,0,0-3.35,3.35v10.57a3.36,3.36,0,0,0,3.35,3.36h10.57a3.24,3.24,0,0,0,1.13-.21l15.58,9a2.82,2.82,0,0,0,4.23-2.44V121.54A2.82,2.82,0,0,0,994.13,119.1Z"/><path class="cls-9" d="M1001.61,125.51a2,2,0,0,0,0,2.82,11.81,11.81,0,0,1,0,16.68,2,2,0,0,0,1.42,3.41,2,2,0,0,0,1.41-.58,15.8,15.8,0,0,0,0-22.33A2,2,0,0,0,1001.61,125.51Z"/><path class="cls-9" d="M1013.23,119.91a2,2,0,1,0-2.82,2.83,19.51,19.51,0,0,1,0,27.55,2,2,0,1,0,2.82,2.83A23.5,23.5,0,0,0,1013.23,119.91Z"/><path class="cls-9" d="M1022.83,113.51a2,2,0,1,0-2.83,2.83,26.76,26.76,0,0,1,0,37.81,2,2,0,1,0,2.83,2.83,30.75,30.75,0,0,0,0-43.47Z"/><path class="cls-9" d="M925.3,121.85a8,8,0,0,0-12-6.89l-24.16,14a8,8,0,0,0,0,13.81l24.19,13.94a8,8,0,0,0,12-6.92Z"/><path class="cls-9" d="M870.64,115l-24.16,14a8,8,0,0,0,0,13.81l24.18,13.94a8,8,0,0,0,12-6.92l0-27.92A8,8,0,0,0,870.64,115Z"/><path class="cls-9" d="M739.5,115l24.16,14a8,8,0,0,1,0,13.81l-24.19,13.94a8,8,0,0,1-12-6.92l0-27.92A8,8,0,0,1,739.5,115Z"/><path class="cls-9" d="M782.19,115l24.16,14a8,8,0,0,1,0,13.81l-24.18,13.94a8,8,0,0,1-12-6.92l0-27.92A8,8,0,0,1,782.19,115Z"/><path class="cls-7" d="M108.72,284.27c0-18-13-32.61-29.06-32.61s-29,14.63-29,32.61v2.53a4.17,4.17,0,0,0-.23,1.33v9.76a4.25,4.25,0,0,0,4.25,4.25h3.82a4.26,4.26,0,0,0,4.25-4.25v-9.76a4.25,4.25,0,0,0-4.25-4.25H54.63a4.17,4.17,0,0,0-1,.13c.12-16.21,11.75-29.35,26-29.35s26,13.22,26.06,29.5a4.33,4.33,0,0,0-1.49-.28h-3.82a4.25,4.25,0,0,0-4.25,4.25v9.76a4.25,4.25,0,0,0,4.25,4.25h3.82a4.25,4.25,0,0,0,4.25-4.25v-.22h.24Z"/><path class="cls-10" d="M397.55,305.15l11-4.55a3.41,3.41,0,0,0,.77-5.85l-2.55-2,9.43-12.32a2.93,2.93,0,0,0-.54-4.1l-.17-.13a2.93,2.93,0,0,0-4.1.55L402,289.1l-2.09-1.61a3.41,3.41,0,0,0-5.45,2.26l-1.56,11.81A3.41,3.41,0,0,0,397.55,305.15Z"/><path class="cls-9" d="M415.67,276.37l-.17-.13a2.93,2.93,0,0,0-4.1.55l-4.46,5.82a5.17,5.17,0,0,0,4.78,3.23h.38l4.11-5.37A2.93,2.93,0,0,0,415.67,276.37Z"/><path class="cls-9" d="M432.51,264.87l21.67-14.81a5.15,5.15,0,0,0-.88-.09H411.72a5.15,5.15,0,0,0-.88.09Z"/><path class="cls-9" d="M433.92,270a2.53,2.53,0,0,1-2.82,0L406.87,253.4a5.31,5.31,0,0,0-.32,1.74v23L409,275a5.9,5.9,0,0,1,4.7-2.32,5.84,5.84,0,0,1,3.6,1.22l.17.13a5.93,5.93,0,0,1,1.1,8.31l-2.71,3.54H453.3a5.17,5.17,0,0,0,5.16-5.17V255.14a5.07,5.07,0,0,0-.32-1.74Z"/><path class="cls-9" d="M565,266.21h-4.39v-2.82a6.17,6.17,0,0,0-6.17-6.17H514.84a6.17,6.17,0,0,0-6.16,6.17V289a6.16,6.16,0,0,0,6.16,6.17h39.58a6.17,6.17,0,0,0,6.17-6.17v-2.82H565a4,4,0,0,0,4-4v-12A4,4,0,0,0,565,266.21Zm-34.84,24h-7V262.22h7Zm12,0h-7V262.22h7Zm11.48-.5h-7V262.22h7Z"/><path class="cls-9" d="M783.67,256.72l.07-4.44a4.41,4.41,0,0,0-6.55-3.92l-13.49,7.5a4.41,4.41,0,0,0-.12,7.63l13.24,7.93a4.41,4.41,0,0,0,6.67-3.71l.08-5c7.72.78,14,6.91,14,15,0,8.43-6.87,14.76-15.07,15.06-3.85.14-3.86,6.15,0,6,11.45-.42,21.07-9.29,21.07-21.06C803.57,266.31,794.59,257.67,783.67,256.72Z"/><path class="cls-9" d="M771.49,291.09l-13.61-7.25a4.41,4.41,0,0,0-6.48,4l.16,4.77c-7.65-.85-13.85-6.95-13.85-15,0-8.44,6.87-14.77,15.07-15.07,3.85-.14,3.87-6.14,0-6-11.45.42-21.07,9.29-21.07,21.07,0,11.42,9.06,20.09,20.06,21l.15,4.63a4.41,4.41,0,0,0,6.74,3.59l13.09-8.17A4.41,4.41,0,0,0,771.49,291.09Z"/><path class="cls-9" d="M998.36,246.57a31.24,31.24,0,1,0,31.24,31.24A31.27,31.27,0,0,0,998.36,246.57Zm-25.24,31.24a25.24,25.24,0,0,1,32.58-24.15l-22.88,44A25.21,25.21,0,0,1,973.12,277.81Zm25.24,25.24a25.1,25.1,0,0,1-7.55-1.16l22.91-44.09a25.23,25.23,0,0,1-15.36,45.25Z"/><path class="cls-9" d="M685.94,278.66c-1.28-10.26-9.73-17.44-19.7-18.31l.07-4.43a4.41,4.41,0,0,0-6.55-3.92l-13.49,7.5a4.42,4.42,0,0,0-.12,7.64l13.24,7.92a4.41,4.41,0,0,0,6.67-3.71l.08-5c9.39,1,16.19,10,13.34,19.41-2.21,7.31-8.89,10.61-16.06,10.64-9.53.05-19.06,0-28.59,0-3.86,0-3.87,6,0,6h18.06c6,0,13,.84,18.81-1.08A21.22,21.22,0,0,0,685.94,278.66Z"/><path class="cls-9" d="M93.43,393.34a2.63,2.63,0,0,0,.32-1.24v-4.22a2.67,2.67,0,0,0-2.67-2.66H68.37a2.66,2.66,0,0,0-2.66,2.66v4.22a2.47,2.47,0,0,0,.05.54,33.43,33.43,0,1,0,27.67.7Zm-14.6,57.49a27.43,27.43,0,1,1,27.43-27.43A27.46,27.46,0,0,1,78.83,450.83Z"/><path class="cls-9" d="M92.59,409.81,79.07,422.88l-8.14-7.67a3,3,0,1,0-4.11,4.36L77,429.21a3,3,0,0,0,4.14,0l15.58-15.07a3,3,0,1,0-4.17-4.31Z"/><path class="cls-9" d="M193.55,388.93a32.13,32.13,0,0,0-24.63,52.78l-5.65,5.64a2.67,2.67,0,0,0,0,3.77l2.7,2.7a2.67,2.67,0,0,0,3.77,0l6-6a32,32,0,0,0,35.38.15l5.85,5.85a2.67,2.67,0,0,0,3.77,0l2.69-2.7a2.67,2.67,0,0,0,0-3.77L218,441.91a32.12,32.12,0,0,0-24.44-53ZM167.4,421.08a26.15,26.15,0,1,1,26.15,26.14A26.18,26.18,0,0,1,167.4,421.08Z"/><rect class="cls-9" x="152.11" y="391.36" width="26.86" height="9.14" rx="2.67" transform="translate(-231.48 233.02) rotate(-45)"/><rect class="cls-9" x="217.55" y="382.5" width="9.14" height="26.86" rx="2.67" transform="translate(-214.91 273.03) rotate(-45)"/><path class="cls-9" d="M211.5,407.93a3,3,0,0,0-4.25-.07l-14,13.51-8.43-7.95a3,3,0,1,0-4.12,4.36l10.52,9.92a3,3,0,0,0,4.14,0l16-15.51A3,3,0,0,0,211.5,407.93Z"/><path class="cls-9" d="M311.66,385.13a34.4,34.4,0,1,0,34.39,34.39A34.43,34.43,0,0,0,311.66,385.13Zm21.78,52.58-3.83-3.83c-2.74-2.73-7,1.51-4.24,4.25l3.75,3.75a28.13,28.13,0,0,1-14.46,5.88V442.3c0-3.86-6-3.87-6,0v5.46a28.27,28.27,0,0,1-14.47-5.87l3.76-3.76c2.73-2.74-1.51-7-4.24-4.25l-3.83,3.83a28.23,28.23,0,0,1-6.37-14.53h4.18c3.86,0,3.86-6,0-6h-4.32a28.2,28.2,0,0,1,5.14-14.06l3.35,3.35c2.74,2.73,7-1.51,4.24-4.25l-3.62-3.61a28.33,28.33,0,0,1,16.18-7.32v4.91c0,3.87,6,3.87,6,0v-4.91a28.2,28.2,0,0,1,14.16,5.64l-3.45,3.45c-2.74,2.73,1.51,7,4.24,4.24l3.58-3.58a28.35,28.35,0,0,1,6.55,14.29h-4.11c-3.86,0-3.87,6,0,6H340A28.23,28.23,0,0,1,333.44,437.71Z"/><path class="cls-9" d="M323.87,406.65l-12.68,12.27-7.59-7.16a3,3,0,1,0-4.12,4.36l9.67,9.13a3,3,0,0,0,4.15,0L328,411a3,3,0,1,0-4.17-4.31Z"/><path class="cls-9" d="M442.6,414.5H429.26V401.15a1.87,1.87,0,0,0-1.87-1.86h-3.47a1.87,1.87,0,0,0-1.87,1.86V414.5H408.71a1.86,1.86,0,0,0-1.87,1.86v3.48a1.86,1.86,0,0,0,1.87,1.86h13.34v13.35a1.87,1.87,0,0,0,1.87,1.86h3.47a1.87,1.87,0,0,0,1.87-1.86V421.7H442.6a1.87,1.87,0,0,0,1.87-1.86v-3.48A1.87,1.87,0,0,0,442.6,414.5Z"/><path class="cls-9" d="M425.65,453.91a35.81,35.81,0,1,1,35.81-35.81A35.85,35.85,0,0,1,425.65,453.91Zm0-65.62a29.81,29.81,0,1,0,29.81,29.81A29.84,29.84,0,0,0,425.65,388.29Z"/><rect class="cls-9" x="535.38" y="401.83" width="6.78" height="35.39" rx="1.87" transform="translate(958.3 -119.25) rotate(90)"/><path class="cls-9" d="M538.77,453.39a33.87,33.87,0,1,1,33.87-33.87A33.9,33.9,0,0,1,538.77,453.39Zm0-61.73a27.87,27.87,0,1,0,27.87,27.86A27.89,27.89,0,0,0,538.77,391.66Z"/><path class="cls-9" d="M692.38,413.65l-3.3-16.74a4.87,4.87,0,0,0-8-2.73l-4.18,3.65c-14.63-14.81-40.45-13.76-52.55,5-13,20.15-.18,47.86,23.4,51.35,13.61,2,26.64-4.55,33.87-16.07,2.06-3.27-3.13-6.29-5.18-3a27.64,27.64,0,1,1-32.37-40.43,27.7,27.7,0,0,1,28.35,7.07l-4.19,3.65a4.87,4.87,0,0,0,1.63,8.28L686,419.2A4.88,4.88,0,0,0,692.38,413.65Z"/><path class="cls-9" d="M649.67,409.83l14.22,8.23a4.69,4.69,0,0,1,0,8.13l-14.23,8.21a4.7,4.7,0,0,1-7-4.08V413.89A4.7,4.7,0,0,1,649.67,409.83Z"/><circle class="cls-9" cx="769.59" cy="419.89" r="14.11"/><rect class="cls-9" x="766.41" y="436.4" width="7.06" height="16.76" rx="2.44"/><rect class="cls-9" x="766.41" y="385.78" width="7.06" height="16.76" rx="2.44"/><rect class="cls-9" x="786.18" y="391.56" width="7.06" height="16.76" rx="2.44" transform="translate(514.1 -441.27) rotate(45)"/><rect class="cls-9" x="791.49" y="411.81" width="7.06" height="16.76" rx="2.44" transform="translate(1215.21 -374.82) rotate(90)"/><rect class="cls-9" x="784.92" y="432.12" width="7.06" height="16.76" rx="2.44" transform="translate(-80.54 686.54) rotate(-45)"/><rect class="cls-9" x="745.68" y="392.53" width="7.06" height="16.76" rx="2.44" transform="translate(1562.46 154.62) rotate(135)"/><rect class="cls-9" x="747.8" y="430.67" width="7.06" height="16.76" rx="2.44" transform="translate(530.51 -402.67) rotate(45)"/><rect class="cls-9" x="739.12" y="411.38" width="7.06" height="16.76" rx="2.44" transform="translate(1162.41 -322.89) rotate(90)"/><path class="cls-9" d="M853.33,419.28l20.84-26.8c4.58-5.9,16-5.88,20.6,0l20.79,26.84c4.57,5.91-1.16,13.27-10.31,13.27l-41.64,0C854.46,432.56,848.74,425.18,853.33,419.28Z"/><rect class="cls-9" x="851.36" y="440.68" width="66.3" height="10.93" rx="5.46"/><path class="cls-9" d="M1021.1,447.08H977.75a8.51,8.51,0,0,1-8.5-8.5v-32a8.42,8.42,0,0,1,2-5.48,5.16,5.16,0,0,1,.24-.47l4.93-8.74a9,9,0,0,1,7.82-4.57h9.62a9,9,0,0,1,7.82,4.57l3.49,6.19h15.92a8.51,8.51,0,0,1,8.5,8.5v32A8.51,8.51,0,0,1,1021.1,447.08ZM984.25,393.3a3,3,0,0,0-2.59,1.51l-4.93,8.75a3.18,3.18,0,0,0-.16.32l-.21.53-.4.41a2.48,2.48,0,0,0-.71,1.74v32a2.5,2.5,0,0,0,2.5,2.5h43.35a2.5,2.5,0,0,0,2.5-2.5v-32a2.5,2.5,0,0,0-2.5-2.5h-19.43l-5.21-9.25a3,3,0,0,0-2.59-1.51Z"/><path class="cls-9" d="M1139.59,406.11c0-3.86-6-3.87-6,0v31.33c0,2.9-.57,5-4,5.46-.64.09-1.29.14-1.94.2V407.27c0-3.86-6-3.87-6,0v36.08c-3.22,0-6.48-.17-9.69-.3V407.27c0-3.86-6-3.87-6,0V442.9c-2.94,0-5.44-.17-5.91-3.83-.4-3,0-6.4,0-9.45V406.11c0-3.86-6-3.87-6,0v24.41c0,7.6-1.09,17.81,9.42,18.38,8.36.45,16.91.12,25.28,0,4.27-.06,8.25-1.37,10.06-5.65,1.15-2.74.75-6.12.75-9Z"/><path class="cls-9" d="M1140.23,393.91h-15.85v-3.47a2.33,2.33,0,0,0-2.33-2.33h-10.44a2.33,2.33,0,0,0-2.33,2.33v3.47h-15.85a2.16,2.16,0,0,0-2.16,2.16v3.22a2.17,2.17,0,0,0,2.16,2.17h46.8a2.17,2.17,0,0,0,2.17-2.17v-3.22A2.17,2.17,0,0,0,1140.23,393.91Z"/><path class="cls-9" d="M1149.41,548l-9.45-7.65V528.55a2,2,0,0,0-2-2h-4.63a2,2,0,0,0-2,2v4.8l-6.14-5c-3.72-3-13-3-16.72,0l-12.12,9.81-12.1,9.79c-3.14,2.54-.33,5.6,5.08,6.51v23.85a13,13,0,0,0,13,13H1132a13,13,0,0,0,13-13v-24C1150,553.34,1152.42,550.42,1149.41,548Zm-37.72,37.35V572.56h11v12.78Zm20.32,0h-3.36V572.06a5.51,5.51,0,0,0-5.5-5.5h-12a5.5,5.5,0,0,0-5.5,5.5v13.28h-3.36a7,7,0,0,1-7-7V554.78H1139v23.57A7,7,0,0,1,1132,585.34Z"/><path class="cls-9" d="M972.86,542.16h51.94c3.86,0,3.86-6,0-6H972.86C969,536.16,969,542.16,972.86,542.16Z"/><path class="cls-9" d="M1024.8,579.44H972.86c-3.86,0-3.86,6,0,6h51.94C1028.66,585.44,1028.66,579.44,1024.8,579.44Z"/><path class="cls-9" d="M1024.8,557.8H972.86c-3.86,0-3.86,6,0,6h51.94C1028.66,563.8,1028.66,557.8,1024.8,557.8Z"/><circle class="cls-9" cx="868.09" cy="579.18" r="7.49" transform="translate(-81.57 146.53) rotate(-9.22)"/><path class="cls-9" d="M866.56,558.73a3,3,0,0,0,0,6,15.74,15.74,0,0,1,15.72,15.73,3,3,0,0,0,6,0A21.74,21.74,0,0,0,866.56,558.73Z"/><path class="cls-9" d="M869.63,544.91a3,3,0,0,0,0,6,26.21,26.21,0,0,1,26.18,26.17,3,3,0,0,0,6,0A32.21,32.21,0,0,0,869.63,544.91Z"/><path class="cls-9" d="M872.7,529.55a3,3,0,0,0,0,6,36.07,36.07,0,0,1,36,36,3,3,0,0,0,6,0A42.08,42.08,0,0,0,872.7,529.55Z"/><rect class="cls-9" x="761.76" y="532.95" width="15.25" height="40.51" rx="4.33"/><path class="cls-9" d="M786.33,557.73c0-3.86-6-3.87-6,0,0,3.58.23,7.24,0,10.82-.42,6.91-6.1,6.68-11.25,6.68s-10.79.21-11.25-6.68c-.24-3.58,0-7.24,0-10.82,0-3.86-6-3.87-6,0,0,5-1,11.21,1,15.95,2.51,6.09,7.87,7.29,13.51,7.5V588h-7.9a1.33,1.33,0,0,0-1.33,1.34v2.26a1.33,1.33,0,0,0,1.33,1.33h22a1.34,1.34,0,0,0,1.33-1.33V589.3a1.34,1.34,0,0,0-1.33-1.34h-8.52v-6.77c5.51-.2,10.71-1.32,13.37-7.16C787.38,569.28,786.33,562.81,786.33,557.73Z"/><path class="cls-9" d="M681.79,578.49,670,566.66a24.11,24.11,0,1,0-6.57,7.05L675,585.3a2.65,2.65,0,0,0,3.77,0l3-3A2.68,2.68,0,0,0,681.79,578.49Zm-50.37-24.33a18,18,0,1,1,18,18A18,18,0,0,1,631.42,554.16Z"/><path class="cls-9" d="M543.57,555h-8.51v-8.51a1.31,1.31,0,0,0-1.31-1.31h-2a1.32,1.32,0,0,0-1.32,1.31V555H521.9a1.31,1.31,0,0,0-1.31,1.31v2a1.31,1.31,0,0,0,1.31,1.31h8.51v8.51a1.32,1.32,0,0,0,1.32,1.32h2a1.31,1.31,0,0,0,1.31-1.32v-8.51h8.51a1.31,1.31,0,0,0,1.32-1.31v-2A1.32,1.32,0,0,0,543.57,555Z"/><path class="cls-9" d="M564.61,582.55l-12.23-12.22a24.23,24.23,0,1,0-6.7,6.64l12.25,12.26a2.67,2.67,0,0,0,3.77,0l2.91-2.91A2.67,2.67,0,0,0,564.61,582.55Zm-50.47-25.73A18.19,18.19,0,1,1,532.33,575,18.21,18.21,0,0,1,514.14,556.82Z"/><rect class="cls-9" x="407.76" y="556.26" width="24.7" height="4.73" rx="1.28"/><path class="cls-9" d="M452.88,583.09l-12.23-12.23a24.58,24.58,0,1,0-6.73,7.23l12,12a2.67,2.67,0,0,0,3.77,0l3.21-3.2A2.67,2.67,0,0,0,452.88,583.09Zm-51.72-25a18.54,18.54,0,1,1,18.54,18.54A18.55,18.55,0,0,1,401.16,558.11Z"/><path class="cls-9" d="M340.94,546.87l-18.76-18.75c-1.54-1.54-3.87-1.13-4.2.73l-.61,3.47a4.47,4.47,0,0,0-.81.64l-12.37,12.37L294.58,547c-2.26.4-2.75,3.22-.89,5.08l22.64,22.64c1.86,1.86,4.68,1.37,5.07-.89l1.42-8.1,13.27-13.26a4.23,4.23,0,0,0,.62-.79l3.49-.61C342.07,550.75,342.48,548.41,340.94,546.87Z"/><path class="cls-9" d="M299.92,564.2l-17.08,17.08a2.67,2.67,0,0,0,3.77,3.77L303.69,568a2.67,2.67,0,0,0-3.77-3.77Z"/><path class="cls-9" d="M188,584.74a5,5,0,0,1-3.43-1.36l-22.3-21a5,5,0,1,1,6.86-7.27l18.83,17.76,30.56-29.56a5,5,0,0,1,7,7.19l-34,32.88A5,5,0,0,1,188,584.74Z"/><path class="cls-7" d="M102.33,528.3a4.51,4.51,0,0,0-4.5,4.5v52a4.5,4.5,0,0,0,9,0v-52A4.5,4.5,0,0,0,102.33,528.3Z"/><path class="cls-7" d="M80.83,543.38a4.5,4.5,0,0,0-4.5,4.5v37.18a4.5,4.5,0,0,0,9,0V547.88A4.49,4.49,0,0,0,80.83,543.38Z"/><path class="cls-7" d="M59.77,557.18a4.5,4.5,0,0,0-4.5,4.5v23.5a4.5,4.5,0,1,0,9,0v-23.5A4.49,4.49,0,0,0,59.77,557.18Z"/><path class="cls-7" d="M893.23,279.82l17.67-17.67a4.5,4.5,0,1,0-6.36-6.37l-17.67,17.67L869.2,255.78a4.5,4.5,0,1,0-6.36,6.37l17.66,17.67-17.66,17.67a4.5,4.5,0,1,0,6.36,6.36l17.67-17.67,17.67,17.67a4.5,4.5,0,1,0,6.36-6.36Z"/><path class="cls-9" d="M95.26,683c-2.94-5.58-10.76-9.37-19.71-9.37-11.75,0-21,6.26-21,14.25a8.47,8.47,0,0,0,.08,1.23c-5.89,2.55-9.58,7.16-9.58,12.2,0,3.6,2,9.83,5.82,12.81,1.67,3.46,5.43,8.58,10.4,8.58H71.2v-5H61.31c-2.11,0-4.82-3.23-6.11-6.22l-.3-.68-.63-.41c-2.32-1.52-4.18-6.21-4.18-9.08,0-3.42,3.26-6.66,8.3-8.25l2.53-.81-1-2.47a5.18,5.18,0,0,1-.38-1.9c0-5,7.31-9.25,16-9.25,7.39,0,14.11,3.23,15.64,7.5l.52,1.45,1.54.19c10.44,1.26,18.32,6.48,18.32,12.14,0,3-2.21,8.49-5.82,10.71l-.62.38-.32.66c-1.42,2.92-4,6-6,6H88.54v5H98.77c5.33,0,9-5.94,10.22-8.23,4.7-3.29,7.58-10,7.58-14.56C116.57,691.72,107.88,684.89,95.26,683Z"/><path class="cls-9" d="M82.6,701.48a2.84,2.84,0,0,0-4.93,0l-5,8.61a2.85,2.85,0,0,0,2.45,4.27h2.7V728a1.75,1.75,0,0,0,1.75,1.75h1.55A1.75,1.75,0,0,0,82.9,728V714.36h2.2a2.84,2.84,0,0,0,2.46-4.27Z"/><path class="cls-9" d="M212,722.66H174.73c-4.92,0-8.68-5.17-10.36-8.65-3.79-3-5.79-9.24-5.79-12.87,0-5,3.67-9.61,9.53-12.15a9.83,9.83,0,0,1-.08-1.21c0-8,9.17-14.19,20.88-14.19,8.91,0,16.69,3.77,19.63,9.34,12.56,1.92,21.21,8.74,21.21,16.87,0,4.58-2.87,11.28-7.55,14.56C221,716.66,217.29,722.66,212,722.66Zm-23.11-44.07c-8.61,0-15.88,4.21-15.88,9.19a5.08,5.08,0,0,0,.38,1.88l1,2.48-2.53.8c-5,1.58-8.25,4.8-8.25,8.2,0,2.59,1.74,7.56,4.15,9.13l.63.41.3.69c1.31,3,4,6.29,6.07,6.29H212c2,0,4.57-3.15,6-6.12l.32-.65.62-.39c3.59-2.2,5.79-7.72,5.79-10.7,0-5.64-7.84-10.84-18.23-12.1l-1.53-.18-.52-1.46C202.94,681.8,196.26,678.59,188.91,678.59Z"/><circle class="cls-9" cx="292.04" cy="680.67" r="6.71"/><circle class="cls-9" cx="309.5" cy="680.67" r="6.71"/><circle class="cls-9" cx="326.95" cy="715.58" r="6.71"/><circle class="cls-9" cx="309.5" cy="715.58" r="6.71"/><circle class="cls-9" cx="292.04" cy="698.12" r="6.71"/><circle class="cls-9" cx="292.04" cy="715.58" r="6.71"/><circle class="cls-9" cx="309.5" cy="698.12" r="6.71"/><circle class="cls-9" cx="326.95" cy="698.12" r="6.71"/><circle class="cls-9" cx="326.95" cy="680.67" r="6.71"/><path class="cls-9" d="M453.31,695,434.4,684.06a6.23,6.23,0,0,0-9.36,5.39v5.91H396.79a5.55,5.55,0,0,0-5.55,5.55h0a5.55,5.55,0,0,0,5.55,5.55H425v4.83a6.24,6.24,0,0,0,9.35,5.42L453.3,705.8A6.24,6.24,0,0,0,453.31,695Z"/><path class="cls-9" d="M569.31,706.11l-26.67-19.75a4.49,4.49,0,0,0-5.27-.07L509.25,706a4.5,4.5,0,0,0,5.17,7.37l25.47-17.89L564,713.34a4.5,4.5,0,0,0,5.35-7.23Z"/><path class="cls-9" d="M1125.89,258.88c10.43,6.57,15.54,19.33,11.49,31.2a26.45,26.45,0,0,1-50.07,0c-4.07-12,1.17-24.88,11.83-31.4,3.29-2,.28-7.21-3-5.19-20.38,12.48-21.57,42.46-1,55.52,19.06,12.12,45.49.44,49.21-21.87,2.24-13.39-4-26.27-15.35-33.45-3.28-2.06-6.3,3.13-3,5.19Z"/><path class="cls-7" d="M1112.34,279.31a4.51,4.51,0,0,1-4.5-4.5V244.3a4.5,4.5,0,1,1,9,0v30.51A4.5,4.5,0,0,1,1112.34,279.31Z"/><path class="cls-9" d="M676.37,687.72H645.49c0-.85,0-1.7,0-2.55.42-12.18,16.08-14.3,21.12-3.84,1.93,4,7.88.51,6-3.48-5.63-11.69-21.74-14.1-30-3.79-3.24,4-3.94,8.78-3.92,13.66h-1a6.17,6.17,0,0,0-6.17,6.17V725.7a6.16,6.16,0,0,0,6.17,6.16h38.77a6.16,6.16,0,0,0,6.17-6.16V693.89A6.17,6.17,0,0,0,676.37,687.72Z"/><path class="cls-9" d="M790.85,688.45h-3.44c0-.14,0-.28,0-.43a15,15,0,1,0-30,0c0,.15,0,.29,0,.43h-4.58a6.17,6.17,0,0,0-6.17,6.17v31.12a6.17,6.17,0,0,0,6.17,6.17h38a6.16,6.16,0,0,0,6.16-6.17V694.62A6.16,6.16,0,0,0,790.85,688.45ZM763.42,688a9,9,0,1,1,18,0c0,.15,0,.29,0,.43h-18C763.43,688.31,763.42,688.17,763.42,688Z"/><path class="cls-9" d="M906.85,672.68H869a4.17,4.17,0,0,0-4.17,4.17v17.38s0,.06,0,.09V718c-4.71.13-8.49,3.34-8.49,7.3s3.92,7.31,8.77,7.31,8.76-3.27,8.76-7.31V698.4H902V713c-4.71.12-8.49,3.33-8.49,7.29s3.92,7.31,8.76,7.31,8.77-3.27,8.77-7.31c0-.1,0-.19,0-.29h0V676.85A4.16,4.16,0,0,0,906.85,672.68Z"/><path class="cls-7" d="M1023.77,682.19l-33.39-11.62a12.59,12.59,0,0,0-7.33-.2,4.73,4.73,0,0,0-5,4.82v53.44c0,6.43,10,6.44,10,0V702.71a11.4,11.4,0,0,0,2.38-.54l33.39-11.62C1029.11,688.69,1029.11,684.05,1023.77,682.19Z"/><path class="cls-9" d="M1141.45,700.28,1118.16,677a6.51,6.51,0,0,0-2-1.37c-7.86-3.37-21.89-8.19-27.58-2.51s-1.14,19.9,2,27.9a6.28,6.28,0,0,0,1.44,2.18l23.25,23.26a18.5,18.5,0,0,0,26.17-26.17Zm-4.25,21.92a12.51,12.51,0,0,1-17.68,0l-23.25-23.26a.33.33,0,0,1-.1-.14c-4-10.12-5.47-19.34-3.37-21.44.62-.62,1.83-.91,3.48-.91,4,0,10.52,1.69,17.49,4.68a.71.71,0,0,1,.14.1l23.29,23.29A12.51,12.51,0,0,1,1137.2,722.2Z"/><circle class="cls-9" cx="1099.3" cy="683.55" r="4.07"/><path class="cls-9" d="M193.83,275.05l26.32-18a5.62,5.62,0,0,0-.92-.09H168.44a5.64,5.64,0,0,0-.93.09Z"/><path class="cls-9" d="M195.24,280.14a2.53,2.53,0,0,1-2.82,0l-28.84-19.72a5.08,5.08,0,0,0-.31,1.71V294a5.16,5.16,0,0,0,5.17,5.17h50.79a5.16,5.16,0,0,0,5.16-5.17V262.13a5.08,5.08,0,0,0-.31-1.71Z"/><path class="cls-10" d="M341.11,245.91l-11,4.55a3.41,3.41,0,0,0-.77,5.85l2.55,2-9.44,12.32a2.92,2.92,0,0,0,.55,4.09l.17.13a2.91,2.91,0,0,0,4.09-.54L336.69,262l2.09,1.6a3.4,3.4,0,0,0,5.45-2.25l1.55-11.81A3.39,3.39,0,0,0,341.11,245.91Z"/><path class="cls-9" d="M324.93,275.42a2.91,2.91,0,0,0,2.32-1.15l3.35-4.37a1.21,1.21,0,0,0-.05-.18l-7.42,5.07,0,0A2.88,2.88,0,0,0,324.93,275.42Z"/><path class="cls-9" d="M329.63,276.1a5.89,5.89,0,0,1-4.7,2.32,6,6,0,0,1-3.6-1.22l-.17-.14a7.31,7.31,0,0,1-.59-.52l-14.25,9.74a2.48,2.48,0,0,1-2.82,0l-24.22-16.56a5,5,0,0,0-.32,1.73V297a5.16,5.16,0,0,0,5.16,5.17H325.7a5.17,5.17,0,0,0,5.17-5.17V274.49Z"/><path class="cls-9" d="M326.58,266.37a4.6,4.6,0,0,0-.84-.08l-1.06,1.38Z"/><path class="cls-9" d="M304.91,281.19l14-9.56a5.88,5.88,0,0,1,1.16-2.87l1.9-2.48H284.12a5.15,5.15,0,0,0-.88.09Z"/><path class="cls-9" d="M1131.8,149.33h0l-.6-.59-38.33-38.33a3,3,0,0,0-4.24,0l-1.69,1.69a3,3,0,0,0,0,4.25l11.58,11.58,16.89,16.89,19.38,19.38a3,3,0,0,0,4.24,0l1.69-1.69a3,3,0,0,0,0-4.25Z"/><path class="cls-9" d="M1086.19,128.77a3.35,3.35,0,0,0-3.35,3.35v9.44a3.35,3.35,0,0,0,3.35,3.36h9.44a3.47,3.47,0,0,0,1.21-.23l14.62,8.44a2.63,2.63,0,0,0,4-2.28v-1.79l-20.29-20.29Z"/><path class="cls-9" d="M1115.41,122.74a2.63,2.63,0,0,0-4-2.28l-2.73,1.57,6.68,6.68Z"/><path class="cls-9" d="M1142.12,135.55a25.25,25.25,0,0,1-5.14,15.33l2.91,2.92a29.54,29.54,0,0,0-2.33-39.15,2,2,0,0,0-2.9,2.89A25.31,25.31,0,0,1,1142.12,135.55Z"/><path class="cls-9" d="M1131.51,136.76a18.54,18.54,0,0,1-1.28,6.76l3.1,3.1a22.55,22.55,0,0,0-4.35-25.85,2,2,0,1,0-2.89,2.9A18.35,18.35,0,0,1,1131.51,136.76Z"/><path class="cls-9" d="M1120.69,134l4.12,4.12a14.13,14.13,0,0,0,.13-1.85,14.79,14.79,0,0,0-4.36-10.52,2,2,0,0,0-2.83,2.83A10.77,10.77,0,0,1,1120.69,134Z"/></g><g id="レイヤー_4" data-name="レイヤー 4"><path class="cls-9" d="M95.9,162.72l-11.51-6.05a3.91,3.91,0,0,0-3.67,0L69.2,162.72a3.94,3.94,0,0,1-5.72-4.16l2.2-12.82a3.94,3.94,0,0,0-1.14-3.49l-9.32-9.08a4,4,0,0,1,2.19-6.73l12.88-1.87a4,4,0,0,0,3-2.16L79,110.74a4,4,0,0,1,7.08,0l5.76,11.67a4,4,0,0,0,3,2.16l12.88,1.87a4,4,0,0,1,2.19,6.73l-9.32,9.08a3.93,3.93,0,0,0-1.13,3.49l2.19,12.82A3.94,3.94,0,0,1,95.9,162.72Z"/></g></svg>