<svg xmlns="http://www.w3.org/2000/svg" viewBox="0 0 1190.55 841.89"><defs><style>.cls-1{font-size:19px;}.cls-1,.cls-2,.cls-3,.cls-5,.cls-7,.cls-8{fill:#fff;}.cls-1,.cls-2,.cls-5{font-family:KozGoPro-Medium-90ms-RKSJ-H, Kozuka Gothic Pro;}.cls-2{font-size:16px;}.cls-3,.cls-5{font-size:13px;}.cls-3{font-family:KozGoPro-Bold-90ms-RKSJ-H, Kozuka Gothic Pro;}.cls-4{letter-spacing:-0.5em;}.cls-6{fill:none;stroke:#dcdddd;stroke-miterlimit:10;}.cls-8{font-size:12px;font-family:KozGoPro-Regular-90ms-RKSJ-H, Kozuka Gothic Pro;}.cls-9{letter-spacing:0.25em;}</style></defs><title>nakazawa</title><g id="テンプレート"><text class="cls-1" transform="translate(960.28 46.3)">www.design-icon.com</text><text class="cls-2" transform="translate(447.3 55.3)">DESIGNER : Nakazawa Yuuta</text><text class="cls-3" transform="translate(833.83 817.27)">利用規約：個人、商用、すべてフリーでご利用ください<tspan class="cls-4" x="325" y="0">。</tspan></text><text class="cls-5" transform="translate(447.3 30.16)">サイズ：100 x 100 px</text><rect class="cls-6" x="28.83" y="87.3" width="100" height="100"/><rect class="cls-6" x="143.83" y="87.3" width="100" height="100"/><rect class="cls-6" x="258.83" y="87.3" width="100" height="100"/><rect class="cls-6" x="373.83" y="87.3" width="100" height="100"/><rect class="cls-6" x="488.83" y="87.3" width="100" height="100"/><rect class="cls-6" x="603.83" y="87.3" width="100" height="100"/><rect class="cls-6" x="718.83" y="87.3" width="100" height="100"/><rect class="cls-6" x="833.83" y="87.3" width="100" height="100"/><rect class="cls-6" x="948.83" y="87.3" width="100" height="100"/><rect class="cls-6" x="1063.83" y="87.3" width="100" height="100"/><rect class="cls-6" x="28.83" y="228.07" width="100" height="100"/><rect class="cls-6" x="143.83" y="228.07" width="100" height="100"/><rect class="cls-6" x="258.83" y="228.07" width="100" height="100"/><rect class="cls-6" x="373.83" y="228.07" width="100" height="100"/><rect class="cls-6" x="488.83" y="228.07" width="100" height="100"/><rect class="cls-6" x="603.83" y="228.07" width="100" height="100"/><rect class="cls-6" x="718.83" y="228.07" width="100" height="100"/><rect class="cls-6" x="833.83" y="228.07" width="100" height="100"/><rect class="cls-6" x="948.83" y="228.07" width="100" height="100"/><rect class="cls-6" x="1063.83" y="228.07" width="100" height="100"/><rect class="cls-6" x="28.83" y="368.84" width="100" height="100"/><rect class="cls-6" x="143.83" y="368.84" width="100" height="100"/><rect class="cls-6" x="258.83" y="368.84" width="100" height="100"/><rect class="cls-6" x="373.83" y="368.84" width="100" height="100"/><rect class="cls-6" x="488.83" y="368.84" width="100" height="100"/><rect class="cls-6" x="603.83" y="368.84" width="100" height="100"/><rect class="cls-6" x="718.83" y="368.84" width="100" height="100"/><rect class="cls-6" x="833.83" y="368.84" width="100" height="100"/><rect class="cls-6" x="948.83" y="368.84" width="100" height="100"/><rect class="cls-6" x="1063.83" y="368.84" width="100" height="100"/><rect class="cls-6" x="28.83" y="509.61" width="100" height="100"/><rect class="cls-6" x="143.83" y="509.61" width="100" height="100"/><rect class="cls-6" x="258.83" y="509.61" width="100" height="100"/><rect class="cls-6" x="373.83" y="509.61" width="100" height="100"/><rect class="cls-6" x="488.83" y="509.61" width="100" height="100"/><rect class="cls-6" x="603.83" y="509.61" width="100" height="100"/><rect class="cls-6" x="718.83" y="509.61" width="100" height="100"/><rect class="cls-6" x="833.83" y="509.61" width="100" height="100"/><rect class="cls-6" x="948.83" y="509.61" width="100" height="100"/><rect class="cls-6" x="1063.83" y="509.61" width="100" height="100"/><rect class="cls-6" x="28.83" y="650.38" width="100" height="100"/><rect class="cls-6" x="143.83" y="650.38" width="100" height="100"/><rect class="cls-6" x="258.83" y="650.38" width="100" height="100"/><rect class="cls-6" x="373.83" y="650.38" width="100" height="100"/><rect class="cls-6" x="488.83" y="650.38" width="100" height="100"/><rect class="cls-6" x="603.83" y="650.38" width="100" height="100"/><rect class="cls-6" x="718.83" y="650.38" width="100" height="100"/><rect class="cls-6" x="833.83" y="650.38" width="100" height="100"/><rect class="cls-6" x="948.83" y="650.38" width="100" height="100"/><rect class="cls-6" x="1063.83" y="650.38" width="100" height="100"/></g><g id="デザイン"><path class="cls-7" d="M96.58,127.14V112.67l-7.14-7.13H63.22l-7.14,7.13v14.47H46.33v44.33h60V127.14Zm-35.5-12.39,4.21-4.21H87.37l4.21,4.21v12.39H61.08Zm42.25,53.72h-54V130.14h54Z"/><polygon class="cls-7" points="73.52 163.81 79.15 163.81 79.15 148.94 83.16 146.63 83.16 138.75 76.33 134.81 69.51 138.75 69.51 146.63 73.52 148.94 73.52 163.81"/><path class="cls-7" d="M227.07,105.54H200.84l-7.13,7.13v14.47H148.46v44.33h60V127.14h-9.75V114.75l4.21-4.21H225l4.21,4.21v12.49h5V112.67Zm-21.61,62.93h-54V130.14h54Z"/><polygon class="cls-7" points="175.64 163.81 181.27 163.81 181.27 148.94 185.28 146.63 185.28 138.75 178.46 134.81 171.63 138.75 171.63 146.63 175.64 148.94 175.64 163.81"/><polygon class="cls-7" points="314.43 144.59 320.04 134.89 320.04 115.48 314.43 105.78 303.23 105.78 297.63 115.48 297.63 134.89 303.23 144.59 314.43 144.59"/><polygon class="cls-7" points="331.72 137.38 321.45 147.65 320.55 147.65 297.11 147.65 296.21 147.65 285.94 137.38 281.11 137.38 281.11 142.21 293.38 154.48 293.38 154.48 293.38 154.48 297.11 154.48 305.41 154.48 305.41 168.48 297.14 168.48 297.14 175.31 320.52 175.31 320.52 168.48 312.25 168.48 312.25 154.48 320.55 154.48 324.28 154.48 324.28 154.48 324.28 154.48 336.55 142.21 336.55 137.38 331.72 137.38"/><path class="cls-7" d="M380.07,105.8v69.5h89V105.8Zm86,3v23.53l-7.51-7.53-27,27.08L418.7,139l-13.63,13.67h-22V108.8Zm-83,63.5V156.63h23.67l12-12,12.87,12.91,27-27.08,7.51,7.54v34.3Z"/><path class="cls-7" d="M408.49,130.29V119l-9.78-5.65L388.93,119v11.3l9.78,5.64Zm-15.56-9,5.78-3.34,5.78,3.34V128l-5.78,3.33L392.93,128Z"/><path class="cls-7" d="M68.7,270.71,79,260.46V240H60.68v-2.47l-5.77,3.34v6.66l3,1.73v8.29L46.33,269.17v48.37h60V270.71ZM49.33,314.54V270.41l11.58-11.58V243H76v16.17l-14.5,14.5h41.87v5.7H85.41v3h17.92v9.25H85.79v3h17.54v9.25H85.92v3h17.41v7.63Z"/><path class="cls-7" d="M224.16,289.88V243h-60v48.37L175.75,303v8.29l-3,1.73v6.66l5.77,3.33v-2.47h18.27V300.13l-10.25-10.25Zm-3-43.84v7.63H203.75v3h17.41v9.25H203.63v3h17.53v9.25H203.25v3h17.91v5.71H179.29l14.5,14.49v16.17h-15V301.76l-11.59-11.59V246Z"/><polygon class="cls-7" points="277.93 272.61 295.53 272.61 304.33 257.36 269.13 257.36 277.93 272.61"/><rect class="cls-7" x="284.23" y="272.61" width="5" height="39.35"/><rect class="cls-7" x="300.38" y="286.46" width="5" height="25.5"/><rect class="cls-7" x="316.53" y="275.97" width="5" height="35.98"/><rect class="cls-7" x="332.68" y="263.28" width="5" height="48.68"/><polygon class="cls-7" points="561.42 144.82 548.49 137.36 548.49 132.82 543.98 130.22 543.98 103.83 540.63 103.83 540.63 130.35 536.34 132.82 536.34 139.84 542.42 143.35 546.53 140.97 559.37 148.38 561.42 144.82"/><path class="cls-7" d="M542.36,177.58l-37-21.36V113.49l37-21.36,37,21.36v42.73Zm-34-23.1,34,19.63,34-19.63V115.22l-34-19.63-34,19.63Z"/><rect class="cls-7" x="541.25" y="163.92" width="2.22" height="7.55"/><rect class="cls-7" x="513.03" y="131.08" width="2.22" height="7.55" transform="translate(648.99 -379.28) rotate(90)"/><rect class="cls-7" x="569.36" y="131.08" width="2.22" height="7.55" transform="translate(705.32 -435.62) rotate(90)"/><polygon class="cls-7" points="672.89 144.82 659.96 137.36 659.96 132.82 655.45 130.22 655.45 103.83 652.11 103.83 652.11 130.35 647.81 132.82 647.81 139.84 653.89 143.35 658 140.97 670.84 148.38 672.89 144.82"/><polygon class="cls-7" points="654.58 177.14 653.08 174.55 687.83 154.48 687.83 115.22 653.83 95.59 619.83 115.22 619.83 155.35 616.83 155.35 616.83 113.49 653.83 92.13 690.83 113.49 690.83 156.22 654.58 177.14"/><rect class="cls-7" x="617.12" y="148.82" width="11.18" height="3" transform="translate(76.1 484.35) rotate(-45)"/><rect class="cls-7" x="612.41" y="144.73" width="3" height="11.18" transform="translate(73.52 478.13) rotate(-45)"/><polygon class="cls-7" points="453.71 278.07 450.71 278.07 450.71 249.13 426.39 235.1 402.08 249.13 402.08 278.07 399.08 278.07 399.08 247.4 426.39 231.63 453.71 247.4 453.71 278.07"/><polygon class="cls-7" points="426.39 324.51 399.08 308.75 399.08 278.07 402.08 278.07 402.08 307.01 426.39 321.05 450.71 307.01 450.71 278.07 453.71 278.07 453.71 308.75 426.39 324.51"/><polygon class="cls-7" points="401.27 281.64 399.9 278.97 424.89 266.14 424.89 233.37 427.89 233.37 427.89 267.97 401.27 281.64"/><rect class="cls-7" x="437.8" y="259.17" width="3" height="29.01" transform="translate(-4.79 539.52) rotate(-62.83)"/><polygon class="cls-7" points="431.16 258.18 431.16 252.68 426.39 249.93 421.63 252.68 421.63 258.18 426.39 260.93 431.16 258.18"/><polygon class="cls-7" points="431.16 252.68 431.16 247.18 426.39 244.43 421.63 247.18 421.63 252.68 426.39 255.43 431.16 252.68"/><polygon class="cls-7" points="531.41 269.56 531.41 252.53 516.66 261.04 516.66 261.05 501.91 269.56 501.91 286.6 516.66 295.11 516.67 295.11 531.41 303.62 531.41 303.62 531.41 269.56 531.41 269.56"/><polygon class="cls-7" points="548.74 297.32 545.2 293.79 554.44 284.55 554.44 272.06 544.73 262.36 548.27 258.82 559.44 269.99 559.44 286.63 548.74 297.32"/><polygon class="cls-7" points="559.29 306.32 555.76 302.79 568.86 289.68 568.86 267.05 555.17 253.36 558.71 249.82 573.86 264.98 573.86 291.75 559.29 306.32"/><polygon class="cls-7" points="643.91 269.56 643.91 252.53 629.16 261.04 629.16 261.05 614.41 269.56 614.41 286.6 629.16 295.11 629.17 295.11 643.91 303.62 643.91 303.62 643.91 269.56 643.91 269.56"/><rect class="cls-7" x="672.48" y="253.22" width="5" height="53.42" transform="translate(-0.24 559.28) rotate(-45)"/><rect class="cls-7" x="648.27" y="277.43" width="53.42" height="5" transform="translate(-0.24 559.28) rotate(-45)"/><path class="cls-7" d="M424.57,459.34l-23.7-13.71-12.54-30.54V399.26l36.24-20.91,36.24,20.93V415.1l-12.54,30.55Zm-19.72-17.18,19.72,11.4,19.72-11.39,11.52-28.05v-12l-31.24-18-31.24,18v12Z"/><rect class="cls-7" x="422.07" y="381.24" width="5" height="75.21"/><rect class="cls-7" x="390.83" y="412.44" width="67.48" height="5" transform="translate(-4.03 4.17) rotate(-0.56)"/><path class="cls-7" d="M885,314.7l-21.78-12.57-17.43-25.22V253.49l20.86-12L885,252.05l18.35-10.6,20.86,12v23.42l-17.43,25.22Zm-18.3-16.34L885,308.93l18.3-10.57,15.91-23v-19l-15.86-9.16L885,257.82l-18.35-10.6-15.86,9.16v19Z"/><path class="cls-7" d="M1011.45,159.17H988.4l-11.53-20,11.53-20h23.05l11.52,20Zm-21.32-3h19.59l9.79-17-9.79-17H990.13l-9.79,17Z"/><polygon class="cls-7" points="1007.76 125.63 992.09 125.63 984.25 139.21 992.09 152.78 1007.76 152.78 1015.6 139.21 1007.76 125.63"/><path class="cls-7" d="M1038.71,164.57H961.14V114.7h3v-4.23h13.13v4.23h9.05l6.37-11h14.47l6.37,11h25.18Zm-74.57-3h71.57V117.7H1011.8l-6.37-11h-11l-6.37,11H974.27v-4.23h-7.13v4.23h-3Z"/><polygon class="cls-7" points="1096.65 126.57 1096.65 130.94 1100.43 133.12 1104.21 130.94 1104.21 126.57 1100.43 124.39 1096.65 126.57"/><polygon class="cls-7" points="1111.05 126.57 1111.05 130.94 1114.83 133.12 1118.61 130.94 1118.61 126.57 1114.83 124.39 1111.05 126.57"/><polygon class="cls-7" points="1125.45 126.57 1125.45 130.94 1129.23 133.12 1133.02 130.94 1133.02 126.57 1129.23 124.39 1125.45 126.57"/><path class="cls-7" d="M1099.67,165.27V149.79h-16l-6.31-6.31v-29.9l6.31-6.31H1146l6.31,6.31v29.87l-6.31,6.31h-30.84Zm-14.78-18.48h17.78V158l11.26-11.27h30.85l4.55-4.55V114.82l-4.55-4.55h-59.89l-4.56,4.55v27.41Z"/><polygon class="cls-7" points="1118.92 521.91 1110.25 520.78 1104.93 527.73 1122.28 529.99 1118.92 521.91"/><rect class="cls-7" x="1111.83" y="498.16" width="4" height="64.87" transform="matrix(0.13, -0.99, 0.99, 0.13, 443.89, 1566.6)"/><path class="cls-7" d="M1137.22,601.41h-47.7l-6.12-60.95h59.94Zm-44.08-4h40.46l5.32-52.95h-51.09Z"/><polygon class="cls-7" points="1123.58 601.41 1103.16 601.41 1103.16 542.46 1107.16 542.46 1107.16 597.41 1119.58 597.41 1119.58 542.46 1123.58 542.46 1123.58 601.41"/><path class="cls-7" d="M1120.17,283.66,1106.46,270l4.82-18,9.61-9.61,18-4.82,13.71,13.71-4.82,18-9.6,9.61Zm-8.13-15.2,9.63,9.63,13.9-3.73,7.71-7.71,3.72-13.9-9.62-9.63-13.91,3.72-7.71,7.72Z"/><path class="cls-7" d="M1085.23,318.6l-13.71-13.71,4.82-18,9.61-9.61,18-4.82,13.71,13.71-4.82,18-9.6,9.6Zm-8.13-15.2,9.63,9.63,13.9-3.73,7.71-7.71,3.73-13.9-9.63-9.63-13.91,3.72-7.71,7.72Z"/><rect class="cls-7" x="1098.68" y="275.57" width="26.75" height="5" transform="translate(129.08 867.78) rotate(-45)"/><polygon class="cls-7" points="92.72 460.35 50.34 460.35 50.34 455.35 89.93 455.35 108.88 424.67 89.93 393.98 50.34 393.98 50.34 388.98 92.72 388.98 114.76 424.67 92.72 460.35"/><rect class="cls-7" x="57.88" y="388.56" width="5" height="22.67" transform="translate(-272.98 170.91) rotate(-46.93)"/><rect class="cls-7" x="49.05" y="380.55" width="22.67" height="5" transform="translate(-245.3 144.45) rotate(-43.07)"/><polygon class="cls-7" points="224.91 460.35 182.52 460.35 160.48 424.67 182.52 388.98 224.91 388.98 224.91 393.98 185.31 393.98 166.36 424.67 185.31 455.35 224.91 455.35 224.91 460.35"/><rect class="cls-7" x="203.52" y="397.4" width="22.67" height="5" transform="translate(-215.19 254.51) rotate(-43.07)"/><rect class="cls-7" x="212.36" y="371.71" width="5" height="22.67" transform="translate(-211.69 278.42) rotate(-46.93)"/><polygon class="cls-7" points="769.04 317.73 740.42 300.04 743.04 295.79 769.04 311.85 793.86 296.52 793.86 264.18 798.86 264.18 798.86 299.31 769.04 317.73"/><rect class="cls-7" x="780.1" y="269.95" width="18.66" height="5" transform="translate(51.26 663) rotate(-46.92)"/><rect class="cls-7" x="800.8" y="263.12" width="5" height="18.66" transform="translate(30.43 622.02) rotate(-43.07)"/><polygon class="cls-7" points="744.8 290.94 739.8 290.94 739.8 255.81 769.61 237.39 798.24 255.07 795.61 259.33 769.61 243.27 744.8 258.6 744.8 290.94"/><rect class="cls-7" x="739.9" y="280.17" width="18.66" height="5" transform="translate(31.1 636.98) rotate(-46.93)"/><rect class="cls-7" x="732.86" y="273.34" width="5" height="18.66" transform="translate(5.13 578.33) rotate(-43.07)"/><path class="cls-7" d="M330.65,407.67V388.46l-5.9-4.8-5.9,4.8v7.42l-11.2-11.2L271.84,420.5h11V454H332.5V420.5h11ZM314.8,434.45v8.24l-7.14,4.12-7.13-4.12V426.21l7.13-4.11,7.14,4.11Z"/><path class="cls-7" d="M682.24,450.22H623.49V403.89h58.75Zm-55.75-3h52.75V406.89H626.49Z"/><path class="cls-7" d="M644.92,404.23H632.17v-14.8h12.75Zm-9.75-3h6.75v-8.8h-6.75Z"/><path class="cls-7" d="M673.75,404.23H661v-14.8h12.75Zm-9.75-3h6.75v-8.8H664Z"/><polygon class="cls-7" points="671.21 398.93 671.21 402.37 663.29 402.37 663.29 398.93 642.62 398.93 642.62 402.37 634.71 402.37 634.71 398.93 621.08 398.93 621.08 406.92 684.83 406.92 684.83 398.93 671.21 398.93"/><polygon class="cls-7" points="637.9 417.01 637.9 413.25 634.64 411.36 631.37 413.25 631.37 417.01 634.64 418.9 637.9 417.01"/><polygon class="cls-7" points="650.05 417.01 650.05 413.25 646.79 411.36 643.52 413.25 643.52 417.01 646.79 418.9 650.05 417.01"/><polygon class="cls-7" points="662.2 417.01 662.2 413.25 658.94 411.36 655.67 413.25 655.67 417.01 658.94 418.9 662.2 417.01"/><polygon class="cls-7" points="674.35 417.01 674.35 413.25 671.09 411.36 667.82 413.25 667.82 417.01 671.09 418.9 674.35 417.01"/><polygon class="cls-7" points="637.9 428.94 637.9 425.17 634.64 423.29 631.37 425.17 631.37 428.94 634.64 430.82 637.9 428.94"/><polygon class="cls-7" points="650.05 428.94 650.05 425.17 646.79 423.29 643.52 425.17 643.52 428.94 646.79 430.82 650.05 428.94"/><polygon class="cls-7" points="662.2 428.94 662.2 425.17 658.94 423.29 655.67 425.17 655.67 428.94 658.94 430.82 662.2 428.94"/><polygon class="cls-7" points="674.35 428.94 674.35 425.17 671.09 423.29 667.82 425.17 667.82 428.94 671.09 430.82 674.35 428.94"/><polygon class="cls-7" points="637.9 440.87 637.9 437.1 634.64 435.21 631.37 437.1 631.37 440.87 634.64 442.75 637.9 440.87"/><polygon class="cls-7" points="650.05 440.87 650.05 437.1 646.79 435.21 643.52 437.1 643.52 440.87 646.79 442.75 650.05 440.87"/><polygon class="cls-7" points="662.2 440.87 662.2 437.1 658.94 435.21 655.67 437.1 655.67 440.87 658.94 442.75 662.2 440.87"/><polygon class="cls-7" points="674.35 440.87 674.35 437.1 671.09 435.21 667.82 437.1 667.82 440.87 671.09 442.75 674.35 440.87"/><polygon class="cls-7" points="776.88 443.38 796.71 410.18 792.65 395 777.46 390.93 744.27 410.76 763.54 415.53 743.85 437.53 744.46 438.14 749.5 443.19 750.11 443.8 772.12 424.1 776.88 443.38"/><polygon class="cls-7" points="916.93 433.43 906.94 423.44 893.29 427.1 876.78 410.59 880.44 396.94 870.45 386.95 856.81 390.61 853.15 404.25 863.14 414.25 889.64 440.74 899.63 450.73 913.27 447.08 916.93 433.43"/><polygon class="cls-7" points="782.97 145.81 773.35 140.26 773.35 136.88 769.99 134.94 769.99 115.3 767.5 115.3 767.5 135.04 764.31 136.88 764.31 142.1 768.83 144.71 771.89 142.94 781.45 148.46 782.97 145.81"/><path class="cls-7" d="M768.79,170.63l-27.92-16.12V122.28l27.92-16.12,27.92,16.12v32.23Zm-24.92-17.85,24.92,14.38,24.92-14.38V124l-24.92-14.39L743.87,124Z"/><rect class="cls-7" x="767.96" y="160.02" width="1.65" height="5.62"/><rect class="cls-7" x="750.23" y="159.78" width="3.45" height="14.98"/><rect class="cls-7" x="783.9" y="159.78" width="3.45" height="14.98"/><rect class="cls-7" x="746.96" y="135.58" width="1.65" height="5.62" transform="translate(886.18 -609.39) rotate(90)"/><rect class="cls-7" x="788.88" y="135.58" width="1.65" height="5.62" transform="translate(928.1 -651.31) rotate(90)"/><polygon class="cls-7" points="752.06 99.48 740.83 105.96 740.83 118.93 763.29 105.96 752.06 99.48"/><polygon class="cls-7" points="785.6 99.48 796.84 105.96 796.84 118.93 774.37 105.96 785.6 99.48"/><path class="cls-7" d="M1141.67,409.13l11-6.37-5.22-9-11.08,6.39-18.13-10.47V378.06h-10.44v11.66l-18.06,10.43-11.15-6.43-5.22,9,11.17,6.45V430l-11.17,6.45,5.22,9,11.13-6.42,18.08,10.44v10.08h10.44v-10l18.15-10.47,11.06,6.38,5.22-9-11-6.37Zm-7,22.19-21.61,12.47-21.61-12.47V406.37l21.61-12.48,21.61,12.48Z"/><polygon class="cls-7" points="1129.08 428.09 1129.08 409.59 1113.05 400.34 1097.03 409.59 1097.03 428.09 1113.05 437.35 1129.08 428.09"/><polygon class="cls-7" points="81.08 572.89 104.09 559.61 79.03 545.15 58.07 533.04 58.07 586.18 78.79 574.22 78.79 574.22 78.96 574.12 81.08 572.89 81.08 572.89"/><polygon class="cls-7" points="177.08 537.03 173.58 543.1 173.58 577.97 177.08 584.03 184.08 584.03 187.58 577.97 187.58 543.1 184.08 537.03 177.08 537.03"/><polygon class="cls-7" points="211.25 537.03 204.25 537.03 200.75 543.1 200.75 577.97 204.25 584.03 211.25 584.03 214.75 577.97 214.75 543.1 211.25 537.03"/><polygon class="cls-7" points="446.84 531.73 438.53 531.73 434.38 538.92 434.38 554.81 417.63 545.15 396.67 533.04 396.67 586.18 417.39 574.22 417.56 574.12 419.68 572.89 419.68 572.89 434.38 564.41 434.38 580.3 438.53 587.5 446.84 587.5 450.99 580.3 450.99 538.92 446.84 531.73"/><polygon class="cls-7" points="284.65 531.73 292.96 531.73 297.11 538.92 297.11 554.81 313.86 545.15 334.82 533.04 334.82 586.18 314.11 574.22 313.94 574.12 311.82 572.89 311.82 572.89 297.11 564.41 297.11 580.3 292.96 587.5 284.65 587.5 280.5 580.3 280.5 538.92 284.65 531.73"/><polygon class="cls-7" points="566.75 586.23 562.5 583.6 576.98 560.16 563.23 537.9 517.62 537.9 517.62 532.9 566.02 532.9 582.86 560.16 566.75 586.23"/><rect class="cls-7" x="517.04" y="526.45" width="16.91" height="5" transform="translate(-219.6 501.38) rotate(-43.07)"/><rect class="cls-7" x="523" y="533.37" width="5" height="16.91" transform="translate(-229.18 555.69) rotate(-46.93)"/><polygon class="cls-7" points="560.05 586.74 511.64 586.74 494.81 559.48 510.91 533.41 515.16 536.04 500.68 559.48 514.43 581.74 560.05 581.74 560.05 586.74"/><rect class="cls-7" x="543.71" y="588.19" width="16.91" height="5" transform="translate(-254.58 536.23) rotate(-43.07)"/><rect class="cls-7" x="549.67" y="569.35" width="5" height="16.91" transform="translate(-247 586.58) rotate(-46.93)"/><rect class="cls-7" x="685.59" y="526.46" width="5" height="16.91" transform="translate(-172.57 672.26) rotate(-46.93)"/><rect class="cls-7" x="679.63" y="545.3" width="16.91" height="5" transform="translate(-188.66 617.49) rotate(-43.07)"/><polygon class="cls-7" points="646.61 568.62 609.75 568.62 609.75 563.62 643.82 563.62 659.11 538.87 695.97 538.87 695.97 543.87 661.9 543.87 646.61 568.62"/><rect class="cls-7" x="679.63" y="570.38" width="16.91" height="5" transform="translate(-205.79 624.25) rotate(-43.07)"/><polygon class="cls-7" points="656.3 554.86 653.36 559.61 659.11 568.92 695.97 568.92 695.97 563.92 661.9 563.92 656.3 554.86"/><polygon class="cls-7" points="649.25 552.95 652.19 548.19 646.61 539.17 609.75 539.17 609.75 544.17 643.82 544.17 649.25 552.95"/><polygon class="cls-7" points="683.54 556.87 681.48 554.68 680.2 556.04 692.56 567.6 695.97 563.94 685.98 554.6 683.54 556.87"/><path class="cls-7" d="M803.38,587.69h-69.1l-8.68-15,8.68-15h3.44l9.68-16.77h21.1l5.75,10,2-3.44H793.3l5.92,10.25h4.16l8.68,15Zm-67.37-3h65.64l7-12-7-12h-4.16l-5.92-10.25H778l-3.72,6.44-7.48-13H749.13l-9.68,16.77H736l-7,12Z"/><path class="cls-7" d="M1145.77,734.09h-69l-8.66-15,8.66-15h3.44l9.66-16.74H1111l5.73,9.94,2-3.43h17l5.9,10.23h4.16l8.66,15Zm-67.23-3H1144l6.93-12-6.93-12h-4.16L1134,696.84h-13.56l-3.72,6.43-7.47-12.94h-17.59L1082,707.07h-3.43l-6.94,12Z"/><polygon class="cls-7" points="992.63 536.48 992.63 559.08 1005.04 559.08 1005.04 536.48 1019.05 536.48 998.83 516.26 978.61 536.48 992.63 536.48"/><polygon class="cls-7" points="1033.38 557.62 1029.22 557.62 1023.3 547.37 1008.08 547.37 1008.08 550.37 1021.57 550.37 1027.49 560.62 1031.65 560.62 1038.6 572.66 1031.65 584.69 966.01 584.69 959.06 572.66 966.01 560.62 969.45 560.62 979.13 543.85 989.58 543.85 989.58 540.85 977.4 540.85 967.72 557.62 964.28 557.62 955.6 572.66 964.28 587.69 1033.38 587.69 1042.06 572.66 1033.38 557.62"/><polygon class="cls-7" points="888.82 555.62 888.82 533.03 876.4 533.03 876.4 555.62 862.39 555.62 882.61 575.85 902.83 555.62 888.82 555.62"/><polygon class="cls-7" points="917.16 557.62 913 557.62 907.08 547.37 891.86 547.37 891.86 550.37 905.35 550.37 911.26 560.62 915.43 560.62 922.38 572.65 915.43 584.69 849.79 584.69 842.84 572.65 849.79 560.62 853.23 560.62 862.91 543.85 873.36 543.85 873.36 540.85 861.18 540.85 851.5 557.62 848.06 557.62 839.38 572.65 848.06 587.69 917.16 587.69 925.84 572.65 917.16 557.62"/><path class="cls-7" d="M1000.5,312.89l-21.78-12.57L961.29,275.1V251.68l20.85-12,18.36,10.6,18.35-10.6,20.86,12V275.1l-17.43,25.22Zm-18.31-16.34,18.31,10.57,18.3-10.57,15.91-23v-19l-15.86-9.15L1000.5,256l-18.36-10.59-15.85,9.15v19Z"/><polygon class="cls-7" points="999.87 273.64 963.79 273.64 963.79 268.64 997.8 268.64 1009.84 256.6 1021.25 268.01 1037.21 268.01 1037.21 273.01 1019.18 273.01 1009.84 263.67 999.87 273.64"/><polygon class="cls-7" points="999.87 287.39 969.48 287.39 969.48 282.39 997.8 282.39 1010.08 270.11 1021.74 281.77 1031.52 281.77 1031.52 286.77 1019.67 286.77 1010.08 277.18 999.87 287.39"/><path class="cls-7" d="M1137.7,693.06l-12-6.9V672.35l12-6.91,12,6.91v13.81Zm-9-8.63,9,5.17,9-5.17V674.08l-9-5.17-9,5.17Z"/><path class="cls-7" d="M565.85,412.24l-3.86,0-2.75,4.52-2.71-4.46-4.21,0L542,416.79l.91-4.33-1.6,0v-11l-5-.59v11.65l-28.74.28v-10.6l28.74-16.58v3.86l5-.59v-3.27l3.68,2.12-1.39-6.57-4.78-2.77-36.25,20.91v15.83l12.54,30.54,23.7,13.71,23.71-13.69L574.68,416Zm-29.57,39.94-17.22-10L509,417.8l27.24-.27Zm22.23-9.94-17.23,9.94v-34.7l27.5-.27Z"/><path class="cls-7" d="M577.44,395.18l5.44-4.31-11.68-1.38,2.65-12.58-11.6,4.95-3-4.95-3,4.95-11.6-4.95,2.66,12.58-11.69,1.38,5.45,4.31-5.45,4.32,11.69,1.38-2.66,12.58,11.6-5,3,5,3-5,11.6,5-2.65-12.58,11.68-1.38Zm-20.51-.6-3.5,2-3.51-2v-4l3.51-2,3.5,2Zm11.63,0-3.5,2-3.5-2v-4l3.5-2,3.5,2Z"/><path class="cls-7" d="M576.83,732.27H505.16V680.09H545.8L553,667.67H569l7.8,13.51Zm-68.67-3h65.67V682l-6.53-11.32H554.7l-7.17,12.42H508.16Z"/><polygon class="cls-7" points="768.83 713.66 780.87 706.72 767.76 699.15 756.8 692.82 756.8 720.61 767.63 714.36 767.63 714.36 767.72 714.3 768.83 713.66 768.83 713.66"/><path class="cls-7" d="M803.46,732.27H731.79V680.09h40.63l7.17-12.42h16.07l7.8,13.51Zm-68.67-3h65.67V682l-6.54-11.32h-12.6l-7.16,12.42H734.79Z"/><path class="cls-7" d="M691.75,732.27H620.08V680.09h40.63l7.17-12.42H684l7.8,13.51Zm-68.67-3h65.67V682l-6.54-11.32h-12.6l-7.16,12.42H623.08Z"/><rect class="cls-7" x="653.41" y="692.82" width="5" height="27.32"/><rect class="cls-7" x="642.26" y="703.98" width="27.32" height="5"/><polygon class="cls-7" points="898.1 152.07 889.02 146.83 889.02 143.65 885.86 141.82 885.86 123.3 883.51 123.3 883.51 141.91 880.5 143.65 880.5 148.57 884.76 151.04 887.65 149.37 896.66 154.57 898.1 152.07"/><path class="cls-7" d="M884.72,175.58,858.3,160.33V129.82l26.42-15.25,26.42,15.25v30.51Zm-23.42-17,23.42,13.52,23.42-13.52v-27L884.72,118,861.3,131.56Z"/><rect class="cls-7" x="883.22" y="107.58" width="3" height="8.72"/><rect class="cls-7" x="874.47" y="106.8" width="20.5" height="3"/><path class="cls-7" d="M918.1,732.49H846.34l10.22-41h71.76Zm-67.92-3h65.58l8.72-35H858.9Z"/><polygon class="cls-7" points="916.26 732.49 846.1 732.49 846.1 680.3 886.73 680.3 893.9 667.89 909.96 667.89 917.76 681.4 917.76 693.04 914.76 693.04 914.76 682.21 908.23 670.89 895.63 670.89 888.46 683.3 849.1 683.3 849.1 729.49 916.26 729.49 916.26 732.49"/><rect class="cls-7" x="974.73" y="685.88" width="3" height="7.35"/><rect class="cls-7" x="983.15" y="685.88" width="3" height="7.35"/><rect class="cls-7" x="1000.01" y="685.88" width="3" height="7.35"/><rect class="cls-7" x="1008.44" y="685.88" width="3" height="7.35"/><rect class="cls-7" x="1016.86" y="685.88" width="3" height="7.35"/><rect class="cls-7" x="991.58" y="685.88" width="3" height="7.35"/><path class="cls-7" d="M1032.5,732.68H960.74L971,691.73h71.76Zm-67.92-3h65.58l8.72-34.95H973.3Z"/><path class="cls-7" d="M1032.5,732.68h-72V680.5h5.8v-4.62h37.5l4.5-7.8h16.06l7.8,13.51v10.14h10.56Zm-69-3h66.66l8.72-34.95h-9.72V682.4l-6.53-11.32H1010l-4.5,7.8H969.3v4.62h-5.8Z"/><polygon class="cls-7" points="966.3 722.81 966.3 682 969.3 682 969.3 698.4 970.96 691.73 1023.36 691.73 1023.36 678.88 1004.66 678.88 1004.66 675.88 1026.36 675.88 1026.36 694.73 973.3 694.73 966.3 722.81"/><rect class="cls-7" x="211.08" y="687.78" width="27.5" height="3"/><rect class="cls-7" x="211.08" y="698.88" width="19.38" height="3"/><rect class="cls-7" x="211.08" y="709.98" width="27.5" height="3"/><polygon class="cls-7" points="183.85 703.74 183.85 697.78 178.69 694.8 173.53 697.78 173.53 703.74 178.69 706.72 183.85 703.74"/><path class="cls-7" d="M203.61,719.84H153.77V681.67h49.84Zm-46.84-3h43.84V684.67H156.77Z"/><rect class="cls-7" x="164.69" y="684.24" width="3" height="22.86" transform="matrix(0.29, -0.96, 0.96, 0.29, -547.56, 649.46)"/><rect class="cls-7" x="181.13" y="693.97" width="21.45" height="3" transform="translate(-196.35 87.37) rotate(-17.13)"/><polygon class="cls-7" points="85.48 704.22 85.48 696.54 78.83 692.71 72.19 696.54 72.19 704.22 78.83 708.05 85.48 704.22"/><path class="cls-7" d="M110.49,724.53H47.17v-48.3h63.32Zm-60.32-3h57.32v-42.3H50.17Z"/><rect class="cls-7" x="61.24" y="679.12" width="3" height="29.43" transform="translate(-618.77 549.29) rotate(-72.86)"/><rect class="cls-7" x="81.98" y="692.07" width="27.63" height="3" transform="translate(-200.05 58.99) rotate(-17.13)"/><polygon class="cls-7" points="315.57 678.84 315.57 657.76 303.99 657.76 303.99 678.84 290.91 678.84 309.78 697.71 328.65 678.84 315.57 678.84"/><polygon class="cls-7" points="314.94 724.7 314.94 718.74 309.78 715.76 304.62 718.74 304.62 724.7 309.78 727.68 314.94 724.7"/><path class="cls-7" d="M334.7,740.8H284.86V702.63H334.7Zm-46.84-3H331.7V705.63H287.86Z"/><rect class="cls-7" x="295.78" y="705.2" width="3" height="22.86" transform="matrix(0.29, -0.96, 0.96, 0.29, -475.13, 789.52)"/><rect class="cls-7" x="312.22" y="714.93" width="21.45" height="3" transform="translate(-196.71 126.92) rotate(-17.13)"/><path class="cls-7" d="M469.71,682.48l5.16-4.09-11.07-1.31,2.51-11.92-11,4.7-2.85-4.7-2.86,4.7-11-4.7,2.52,11.92-11.08,1.31,5.16,4.09-5.16,4.09,11.08,1.31-2.52,11.92,11-4.7,2.86,4.7,2.85-4.7,11,4.7-2.51-11.92,11.07-1.31Zm-19.44-.57L447,683.82l-3.32-1.91v-3.83l3.32-1.92,3.32,1.92Zm11,0L458,683.82l-3.32-1.91v-3.83l3.32-1.92,3.32,1.92Z"/><polygon class="cls-7" points="433.35 708.49 433.35 699.77 425.79 695.41 418.23 699.77 418.23 708.49 425.79 712.86 433.35 708.49"/><rect class="cls-7" x="405.99" y="679.95" width="3" height="33.47" transform="translate(-378.35 880.75) rotate(-72.86)"/><rect class="cls-7" x="429.91" y="698.5" width="6.89" height="3" transform="translate(-186.97 158.71) rotate(-17.13)"/><polygon class="cls-7" points="461.59 731.39 389.99 731.39 389.99 676.88 428.96 676.88 428.96 679.88 392.99 679.88 392.99 728.39 458.59 728.39 458.59 699.8 461.59 699.8 461.59 731.39"/><path class="cls-7" d="M1011.21,414.44l5-2.89-2.37-4.11-5,2.9-8.22-4.74v-5.26h-4.74v5.29l-8.2,4.73-5-2.92-2.37,4.11,5.07,2.92v9.45l-5.07,2.93,2.37,4.1,5-2.91,8.2,4.73v4.57h4.74v-4.53l8.23-4.76,5,2.9,2.37-4.1-5-2.89ZM1008,424.5l-9.8,5.66-9.81-5.66V413.18l9.81-5.66,9.8,5.66Z"/><polygon class="cls-7" points="1005.5 423.04 1005.5 414.64 998.23 410.45 990.96 414.64 990.96 423.04 998.23 427.24 1005.5 423.04"/><rect class="cls-7" x="974" y="376.96" width="48.46" height="6.25"/><rect class="cls-7" x="974" y="454.47" width="48.46" height="6.25"/><rect class="cls-7" x="973" y="376.96" width="2" height="83.76"/><rect class="cls-7" x="1021.46" y="376.96" width="2" height="83.76"/></g><g id="アイコン名"><text class="cls-8" transform="translate(60.83 213.41)">ロック</text><text class="cls-8" transform="translate(164.16 213.41)">ロック解除</text><text class="cls-8" transform="translate(291.5 213.41)">マイク</text><text class="cls-8" transform="translate(400.83 213.41)">イメージ</text><text class="cls-8" transform="translate(528.16 213.41)">時計</text><text class="cls-8" transform="translate(643.5 213.41)">履歴</text><text class="cls-8" transform="translate(734.83 213.41)">目覚まし時計</text><text class="cls-8" transform="translate(838.16 213.41)">ストップウォッチ</text><text class="cls-8" transform="translate(983.5 213.41)">カメラ</text><text class="cls-8" transform="translate(1105.3 213.41)">SMS</text><text class="cls-8" transform="translate(64 351.9)">Good</text><text class="cls-8" transform="translate(183.96 351.9)">Bad</text><text class="cls-8" transform="translate(297.5 351.9)">電波</text><text class="cls-8" transform="translate(406.83 351.9)">マウス</text><text class="cls-8" transform="translate(510.16 351.9)">ボリューム</text><text class="cls-8" transform="translate(631.5 351.9)">ミュート</text><text class="cls-8" transform="translate(764.2 351.9)">RT</text><text class="cls-8" transform="translate(868.16 351.9)">いいね</text><text class="cls-8" transform="translate(971.5 351.9)">ヘルスケア</text><text class="cls-8" transform="translate(1098.83 351.9)">リンク</text><text class="cls-8" transform="translate(66.83 492.39)">戻る</text><text class="cls-8" transform="translate(170.16 492.39)">元に戻す</text><text class="cls-8" transform="translate(291.5 492.39)">ホーム</text><text class="cls-8" transform="translate(400.83 492.39)">ブロック</text><text class="cls-8" transform="translate(492.16 492.39)">ウイルスブロック</text><text class="cls-8" transform="translate(625.5 492.39)">カレンダー</text><text class="cls-8" transform="translate(746.83 492.39)">カーソル</text><text class="cls-8" transform="translate(874.16 492.39)">電話</text><text class="cls-8" transform="translate(953.5 492.39)">ディスプレイ設定</text><text class="cls-8" transform="translate(1104.83 492.39)">設定</text><text class="cls-8" transform="translate(66.83 630.89)">再生</text><text class="cls-8" transform="translate(170.16 630.89)">一時停止</text><text class="cls-8" transform="translate(285.5 630.89)">最初から</text><text class="cls-8" transform="translate(412.83 630.89)">次へ</text><text class="cls-8" transform="translate(516.16 630.89)">リピート</text><text class="cls-8" transform="translate(625.5 630.89)">シャッフル</text><text class="cls-8" transform="translate(746.83 630.89)">クラウド</text><text class="cls-8" transform="translate(838.16 630.89)">クラウド上に保存</text><text class="cls-8" transform="translate(956.41 630.89)">クラウドか<tspan class="cls-9" x="60" y="0">ら</tspan><tspan x="75" y="0">UP</tspan></text><text class="cls-8" transform="translate(1098.83 630.89)">ゴミ箱</text><text class="cls-8" transform="translate(60.83 773.38)">メール</text><text class="cls-8" transform="translate(164.16 773.38)">メール送信</text><text class="cls-8" transform="translate(279.5 773.38)">メール受信</text><text class="cls-8" transform="translate(394.83 773.38)">迷惑メール</text><text class="cls-8" transform="translate(516.16 773.38)">フォルダ</text><text class="cls-8" transform="translate(619.5 773.38)">新規フォルダ</text><text class="cls-8" transform="translate(734.83 773.38)">動画フォルダ</text><text class="cls-8" transform="translate(850.16 773.38)">空のフォルダ</text><text class="cls-8" transform="translate(947.5 773.38)">空じゃないフォルダ</text><text class="cls-8" transform="translate(1104.83 773.38)">天気</text><path class="cls-7" d="M162.54,36.46h-2.67a.58.58,0,0,0-.57.58v.09a.58.58,0,0,0,.57.6h2.67a.6.6,0,0,0,.6-.6V37A.58.58,0,0,0,162.54,36.46Z"/><path class="cls-7" d="M162.54,31.88h-2.67a.57.57,0,0,0-.57.57v.06a.6.6,0,0,0,.57.6h2.67a.6.6,0,0,0,.6-.6v-.06A.6.6,0,0,0,162.54,31.88Z"/><path class="cls-7" d="M180.66,26.27h-.24a.54.54,0,0,0-.56.57v4.38a.58.58,0,0,0,.59.6h.21a.58.58,0,0,0,.57-.6V26.84A.55.55,0,0,0,180.66,26.27Z"/><path class="cls-7" d="M154.62,36.46h-2.55c-.51,0-.57.39-.57.79a.43.43,0,0,0,.48.48h2.64a.6.6,0,0,0,.57-.6V37A.58.58,0,0,0,154.62,36.46Z"/><path class="cls-7" d="M156.24,27H153.3a1.45,1.45,0,0,0-1.41.9c0,.21.15.21.48.21h3.18a1.23,1.23,0,0,0,1.29-.87C156.84,27,156.63,27,156.24,27Z"/><path class="cls-7" d="M154.62,31.88h-2.51a.6.6,0,0,0-.61.57v.06a.6.6,0,0,0,.61.6h2.51a.6.6,0,0,0,.57-.6v-.06A.59.59,0,0,0,154.62,31.88Z"/><path class="cls-7" d="M29,0V55.41a12,12,0,0,0,12,12H413.83a12,12,0,0,0,12-12V0ZM299.59,23.66a3.13,3.13,0,0,1,.92.42,34.26,34.26,0,0,1,5.28,3.78.64.64,0,0,1,.27.54c0,.87-2.13,3.3-2.82,3.3a1.31,1.31,0,0,1-.75-.45,30.82,30.82,0,0,0-5-3.51c-.25-.15-.54-.33-.54-.63C296.92,26.51,298.71,23.66,299.59,23.66ZM195.84,21.83c.12-.15.3-.39.51-.39a6.7,6.7,0,0,1,1.8,1.41,4.61,4.61,0,0,1,.39.36c.6.51,1.08.9,1.08,1.23s-.39.36-.66.36-.3,0-.6.33a37.28,37.28,0,0,1-8.1,5.88,2,2,0,0,1-.93.3c-.78,0-2.52-2.46-2.52-3.09,0-.3.39-.45.78-.63C190.29,26.3,194,24.11,195.84,21.83ZM113,28c0-1,.06-1.32.84-1.32,1.2,0,2.37.09,3.56.09h5.52c.69,0,1-.36,1-1.05v-.51a23.86,23.86,0,0,0-.09-2.55,1,1,0,0,1,0-.3c0-.45.36-.48.69-.48.87,0,3.27.21,4.17.33.3,0,.72.06.72.42,0,.18-.15.3-.33.45s-.3.72-.3,1.32v1.38c0,.72.42,1,1.08,1h5.46c1.2,0,2.4-.09,3.57-.09.78,0,.84.36.84,1.32v1.83c0,1.08-.06,1.44-.84,1.44-1.2,0-2.37-.09-3.57-.09H117.42c-1.19,0-2.36.09-3.56.09-.78,0-.84-.33-.84-1.41ZM68.27,50.27a16.06,16.06,0,1,1,16-16.05A16.06,16.06,0,0,1,68.27,50.27ZM124,36.92c-.3.06-.42.08-.69.77a28.57,28.57,0,0,1-6.45,9.69,1.4,1.4,0,0,1-.78.48c-.68,0-3.27-2.16-3.27-2.82,0-.33.34-.6.58-.81a25.71,25.71,0,0,0,6.14-9.47c.1-.24.21-.6.51-.6a19.6,19.6,0,0,1,3.06,1.38l.66.33c.27.15.69.3.69.63A.46.46,0,0,1,124,36.92ZM136.2,47.83a1.52,1.52,0,0,1-1.08-.6,37.27,37.27,0,0,1-3.57-4.77c-.54-.83-3.09-5.19-3.09-5.9s2.85-2.34,3.36-2.34.6.27.75.59a59,59,0,0,0,6.63,9.9c.18.18.54.54.54.78C139.74,46.21,137,47.83,136.2,47.83Zm29.73,0a11.55,11.55,0,0,1-4.56.69c-1.59,0-2-.27-2.22-1.11a8.06,8.06,0,0,1-.27-2.1c0-.51,0-1.2.72-1.2.39,0,.87.09,1.59.09,1.8,0,1.95-.21,1.95-1.23v-.72c0-.63-.33-.9-.93-.9H151.89c-.87,0-1,.48-1.35,1.23a16.06,16.06,0,0,1-4,5.52,1.05,1.05,0,0,1-.71.27c-1.06,0-3-2.1-3-2.88,0-.21.2-.36.36-.48a12.12,12.12,0,0,0,2.66-3.18A11.56,11.56,0,0,0,147.15,36V33c0-.15,0-.45-.23-.45a1.58,1.58,0,0,0-.63.33,1.56,1.56,0,0,1-.79.33c-.77,0-2.63-2.19-2.63-2.85,0-.18.24-.36.72-.69,2.49-1.65,6.06-4.86,7.4-8,.16-.36.24-.51.6-.51s2.94.6,3.63.72c.39.06,1.05.18,1.05.57,0,.24-.27.36-.54.42s-.39.12-.39.3.3.21.45.21h2.28c.81,0,1.59-.06,2.4-.06a3.17,3.17,0,0,1,3,2.43c0,.42-.51,1-.87,1.44a1.53,1.53,0,0,0-.45.69c0,.18.24.21.72.21.9,0,2-.06,2.88-.06s1.86.15,1.86,1.68c0,.75-.06,1.68-.06,2.7v8.93c0,.9.09,1.8.09,2.7C167.64,45.58,167.46,47.05,165.93,47.8Zm19.71-.3c0,.75-.27.84-1.23.84h-1.95c-1,0-1.31-.06-1.31-.81,0-1.56.08-3.12.08-4.68V36.58a.57.57,0,0,0-.57-.56h-.21c-.63,0-.72.77-.78,1.23a22.26,22.26,0,0,1-1.08,5.15c-.32,1-2.15,5.7-3.26,5.7-.72,0-2.94-1.56-2.94-2.31a2.26,2.26,0,0,1,.38-.78,17.25,17.25,0,0,0,2.46-6.32c.06-.4.21-1.5.21-1.8,0-.6-.38-.81-.92-.81l-.58,0c-.9,0-1-.41-1-1.43v-1.5c0-1.08.08-1.44,1-1.44h.48c.56,0,1.17-.21,1.17-.87V27.2c0-.78-.67-.87-1.2-.87s-.7-.6-.7-1.5V23.6c0-1.29,0-1.62,1.21-1.62.6,0,1.56.09,3,.09h5.24c1.08,0,2.16-.09,3.24-.09.87,0,1,.42,1,1.29V25c0,.93-.06,1.2-.75,1.29-.51.06-1.08.18-1.08.81v3.78c0,.63.51.78,1,.81,1,0,1.11.21,1.11,1.56v1.44c0,.27.06.6.39.6.66,0,6.24-3.63,8.28-6.09.09-.15.3-.39.48-.39a5.5,5.5,0,0,1,1.47,1.08c.15.15.27.24.33.3.21.18.39.36.54.48.6.51.93.81.93,1.11s-.42.36-.69.36a.4.4,0,0,0-.42.18,52.21,52.21,0,0,1-8.52,6.39,6.21,6.21,0,0,1-1.83.86c-.87,0-2.49-2.34-2.49-2.9a.4.4,0,0,1,.06-.21.4.4,0,0,0,0-.19.22.22,0,0,0-.24-.21c-.39,0-.45.52-.48.82v5.93C185.55,44.41,185.64,45.94,185.64,47.5Zm14-7.31h-.06a.46.46,0,0,0-.42.14,57.78,57.78,0,0,1-9.21,6.78,4.31,4.31,0,0,1-1.56.72c-.81,0-2.31-2.52-2.31-3.12,0-.33.36-.48.6-.6,2.88-1.44,7.77-4.71,9.78-7.13.12-.13.33-.36.51-.36a7.72,7.72,0,0,1,1.89,1.5c.15.15.39.36.57.51.6.54,1,.89,1,1.2S199.86,40.19,199.59,40.19Zm28.83-11a5.76,5.76,0,0,0-.42.45c-1.71,1.89-3.48,3.69-5.31,5.43l-.27.27c-.54.54-1.11,1.05-1.47,1.05s-1.8-1.11-2.31-1.53a.51.51,0,0,0-.3-.09c-.36,0-.45.18-.54.53-.93,3.79-2.31,7-5.19,9.78-.5.48-2.4,2.22-3,2.22s-3.73-2.4-3.73-3.06c0-.18.25-.33.87-.69a13.3,13.3,0,0,0,6.51-9.47,16.92,16.92,0,0,0,.12-2.19c0-.06,0-.09,0-.15,0-.24,0-.33.3-.33.87,0,3.81.12,4.5.21.51.06.6.18.6.33s-.09.18-.12.27a.23.23,0,0,0-.06.12.25.25,0,0,0,.27.24.27.27,0,0,0,.21-.09c.24-.21,2.13-1.86,2.13-2.25,0-.18-.15-.33-.48-.33H209.61c-1.11,0-2.19,0-3.26,0-.43,0-.85,0-1.26,0-.93,0-1-.33-1-2V26.42c0-.66.12-1.05.87-1.05,1.52,0,3.05.06,4.61.06h13.2a16.63,16.63,0,0,0,2.76-.18,3,3,0,0,1,.51-.06c.54,0,.9.39,1.29.78s1.68,1.65,1.68,2.37C229.05,28.67,228.72,28.94,228.42,29.18Zm27.09-4.11a1.91,1.91,0,0,0-1.08.51c-.72.72-2,2.37-4.29,4.65a2,2,0,0,0-.69,1.53v11c0,.81,0,1.62,0,2.43,0,.54,0,1.11,0,1.68,0,.93-.51,1-2,1h-1.23c-1.41,0-1.62-.18-1.62-.87,0-1.35.06-2.7.06-4.05V36.25c0-.44-.15-.75-.54-.75a2,2,0,0,0-.87.46c-.81.56-4.94,3.33-5.63,3.33s-3.51-2.77-3.51-3.54c0-.33.36-.46.63-.54a42.61,42.61,0,0,0,5.84-3.12,35.93,35.93,0,0,0,7.65-6.48A30.94,30.94,0,0,0,251,21.86c.06-.15.18-.36.39-.36.45,0,3,1.83,3.87,2.49.36.27.6.57.6.75S255.69,25,255.51,25.07Zm29.25,20.15h-1.71c-1.14,0-1.26-.12-1.38-.59-.18-.67-.6-.67-1.59-.67H268.29c-.39,0-.81.06-1.23.06-.71,0-.81-.39-.81-1.44V40.46c0-.9.06-1.17.69-1.17.4,0,1,.05,1.44.05.93,0,1.86,0,2.82,0h9.39a.94.94,0,0,0,.93-.94V31.91a.93.93,0,0,0-.93-.93h-9.42c-.87,0-1.73,0-2.58,0-.54,0-1,.06-1.55.06-.66,0-.81-.27-.81-1.62v-1.8c0-1.14.15-1.32.69-1.32s.89.06,1.31.06h13.35c.9,0,1.8,0,2.7,0,1.2,0,1.89.36,1.89,1.65,0,1,0,2,0,3V41.17c0,.87.06,1.75.06,2.64C286.2,45.07,286.17,45.22,284.76,45.22Zm31.44-9.66c-4.83,4.71-9.66,7.41-15.66,10.29a1.3,1.3,0,0,0-.81.78.26.26,0,0,1-.24.18c-.24,0-.42-.27-.53-.48A24.31,24.31,0,0,1,297.54,44a7.79,7.79,0,0,1-.87-1.8c0-.26.33-.42.58-.47a31.94,31.94,0,0,0,7.67-3.31,40.14,40.14,0,0,0,10.83-9.38c.06-.09.12-.15.18-.24.27-.39.51-.72.84-.72.6,0,1.53,1.62,1.8,2.1.06.09.09.21.18.33a4.77,4.77,0,0,1,.51,1.41C319.26,32.66,316.83,35,316.2,35.56Z"/></g></svg>