<svg xmlns="http://www.w3.org/2000/svg" viewBox="0 0 1190.55 841.89"><defs><style>.cls-1{font-size:19px;}.cls-1,.cls-2,.cls-3,.cls-5,.cls-7,.cls-8{fill:#fff;}.cls-1,.cls-2,.cls-5{font-family:KozGoPro-Medium-90ms-RKSJ-H, Kozuka Gothic Pro;}.cls-2{font-size:16px;}.cls-3,.cls-5{font-size:13px;}.cls-3{font-family:KozGoPro-Bold-90ms-RKSJ-H, Kozuka Gothic Pro;}.cls-4{letter-spacing:-0.5em;}.cls-6{fill:none;stroke:#dcdddd;stroke-miterlimit:10;}.cls-8{font-size:12px;font-family:KozGoPro-Regular-90ms-RKSJ-H, Kozuka Gothic Pro;}.cls-9{letter-spacing:0.25em;}</style></defs><title>samu</title><g id="テンプレート"><text class="cls-1" transform="translate(960.28 46.3)">www.design-icon.com</text><text class="cls-2" transform="translate(447.3 55.3)">DESIGNER : 沈家康</text><text class="cls-3" transform="translate(833.83 817.27)">利用規約：個人、商用、すべてフリーでご利用ください<tspan class="cls-4" x="325" y="0">。</tspan></text><text class="cls-5" transform="translate(447.3 30.16)">サイズ：100 x 100 px</text><rect class="cls-6" x="28.83" y="87.3" width="100" height="100"/><rect class="cls-6" x="143.83" y="87.3" width="100" height="100"/><rect class="cls-6" x="258.83" y="87.3" width="100" height="100"/><rect class="cls-6" x="373.83" y="87.3" width="100" height="100"/><rect class="cls-6" x="488.83" y="87.3" width="100" height="100"/><rect class="cls-6" x="603.83" y="87.3" width="100" height="100"/><rect class="cls-6" x="718.83" y="87.3" width="100" height="100"/><rect class="cls-6" x="833.83" y="87.3" width="100" height="100"/><rect class="cls-6" x="948.83" y="87.3" width="100" height="100"/><rect class="cls-6" x="1063.83" y="87.3" width="100" height="100"/><rect class="cls-6" x="28.83" y="228.07" width="100" height="100"/><rect class="cls-6" x="143.83" y="228.07" width="100" height="100"/><rect class="cls-6" x="258.83" y="228.07" width="100" height="100"/><rect class="cls-6" x="373.83" y="228.07" width="100" height="100"/><rect class="cls-6" x="488.83" y="228.07" width="100" height="100"/><rect class="cls-6" x="603.83" y="228.07" width="100" height="100"/><rect class="cls-6" x="718.83" y="228.07" width="100" height="100"/><rect class="cls-6" x="833.83" y="228.07" width="100" height="100"/><rect class="cls-6" x="948.83" y="228.07" width="100" height="100"/><rect class="cls-6" x="1063.83" y="228.07" width="100" height="100"/><rect class="cls-6" x="28.83" y="368.84" width="100" height="100"/><rect class="cls-6" x="143.83" y="368.84" width="100" height="100"/><rect class="cls-6" x="258.83" y="368.84" width="100" height="100"/><rect class="cls-6" x="373.83" y="368.84" width="100" height="100"/><rect class="cls-6" x="488.83" y="368.84" width="100" height="100"/><rect class="cls-6" x="603.83" y="368.84" width="100" height="100"/><rect class="cls-6" x="718.83" y="368.84" width="100" height="100"/><rect class="cls-6" x="833.83" y="368.84" width="100" height="100"/><rect class="cls-6" x="948.83" y="368.84" width="100" height="100"/><rect class="cls-6" x="1063.83" y="368.84" width="100" height="100"/><rect class="cls-6" x="28.83" y="509.61" width="100" height="100"/><rect class="cls-6" x="143.83" y="509.61" width="100" height="100"/><rect class="cls-6" x="258.83" y="509.61" width="100" height="100"/><rect class="cls-6" x="373.83" y="509.61" width="100" height="100"/><rect class="cls-6" x="488.83" y="509.61" width="100" height="100"/><rect class="cls-6" x="603.83" y="509.61" width="100" height="100"/><rect class="cls-6" x="718.83" y="509.61" width="100" height="100"/><rect class="cls-6" x="833.83" y="509.61" width="100" height="100"/><rect class="cls-6" x="948.83" y="509.61" width="100" height="100"/><rect class="cls-6" x="1063.83" y="509.61" width="100" height="100"/><rect class="cls-6" x="28.83" y="650.38" width="100" height="100"/><rect class="cls-6" x="143.83" y="650.38" width="100" height="100"/><rect class="cls-6" x="258.83" y="650.38" width="100" height="100"/><rect class="cls-6" x="373.83" y="650.38" width="100" height="100"/><rect class="cls-6" x="488.83" y="650.38" width="100" height="100"/><rect class="cls-6" x="603.83" y="650.38" width="100" height="100"/><rect class="cls-6" x="718.83" y="650.38" width="100" height="100"/><rect class="cls-6" x="833.83" y="650.38" width="100" height="100"/><rect class="cls-6" x="948.83" y="650.38" width="100" height="100"/><rect class="cls-6" x="1063.83" y="650.38" width="100" height="100"/><path class="cls-7" d="M164.82,31.56v-.12a.42.42,0,0,0-.39-.39h-4.77a.37.37,0,0,0-.36.39v.12a.35.35,0,0,0,.36.36h4.77A.37.37,0,0,0,164.82,31.56Z"/><path class="cls-7" d="M160,40.74c-.09,0-.18.15-.21.21a20,20,0,0,1-1.17,2.43,1.33,1.33,0,0,0-.24.6c0,.36.36.39.66.39h.3c.78,0,.78-.21.78-1.23v-2C160.11,41.07,160.11,40.74,160,40.74Z"/><path class="cls-7" d="M159.66,28.32h4.77a.4.4,0,0,0,.39-.39v-.12a.37.37,0,0,0-.39-.36h-4.77a.35.35,0,0,0-.36.36v.12A.39.39,0,0,0,159.66,28.32Z"/><path class="cls-7" d="M155.85,40.29h-.06c-.27,0-.54,0-.78,0-.48,0-.51-.3-.51-.69v-1.2c0-.21-.06-.42-.3-.42s-.6.06-.6.42a1.65,1.65,0,0,0,.15.51,27.46,27.46,0,0,1,.9,3.06l.09.3c0,.09,0,.21.15.21s.27-.27.45-.57a4.85,4.85,0,0,0,.69-1.53A.12.12,0,0,0,155.85,40.29Z"/><path class="cls-7" d="M151.86,37.23c-1.05,0-1.08.45-1.08.69v.27c0,.18,0,.45.24.45a2.72,2.72,0,0,0,.42-.12l.33-.09c.24-.06.6-.12.6-.45S152.28,37.23,151.86,37.23Z"/><path class="cls-7" d="M146.29,38c-.12,0-1.27.12-1.44.12s-.6.18-.6.51.27.27.44.3,1.69.36,1.81.36.29-.21.29-.39V38.4C146.79,38.07,146.61,38,146.29,38Z"/><path class="cls-7" d="M131.19,34.65h-5.94a.47.47,0,0,0-.48.48v.12a.47.47,0,0,0,.48.48h5.94a.49.49,0,0,0,.48-.48v-.12A.49.49,0,0,0,131.19,34.65Z"/><path class="cls-7" d="M124.77,31.47v.27a.42.42,0,0,0,.39.39h6.12a.4.4,0,0,0,.39-.39v-.27a.4.4,0,0,0-.39-.39h-6.12A.4.4,0,0,0,124.77,31.47Z"/><path class="cls-7" d="M29,0V55.37a12,12,0,0,0,12,12H413.83a12,12,0,0,0,12-12V0ZM68.27,50.22a16,16,0,1,1,16-16A16,16,0,0,1,68.27,50.22Zm71.32-3.9c0,.75-.06,1-.69,1-1.29,0-2.55-.06-3.84-.06h-16a.36.36,0,0,0-.4.33c-.08.48-.48.54-1.25.54h-2c-1,0-1.31-.09-1.31-.87,0-1.11.08-2.19.08-3.3V34c0-.9,0-2-.08-2.88a1.13,1.13,0,0,1,0-.3c0-.42.3-.42.63-.42,1.23,0,2.81.18,4.07.24.33,0,.72.09.72.51,0,.21-.14.27-.45.42s-.42.63-.42,1.41v9.9a.8.8,0,0,0,.84.84h15.57c1.26,0,2.52-.06,3.81-.06.66,0,.72.27.72,1Zm.12-20.49c0,.75-.06,1-.72,1-1.29,0-2.55-.06-3.81-.06h-5.07a.47.47,0,0,0-.48.48v.06a.47.47,0,0,0,.48.48h2.19c.72,0,1.47,0,2.22,0s1.53.09,1.53,1.14c0,.81-.06,1.62-.06,2.43V39c0,.81.09,1.86.09,2.22,0,1.32-1.05,1.32-2.19,1.32H122.64c-1.23,0-2.22,0-2.22-1.32,0-.3.06-1.32.06-2.22V31.32c0-1-.06-1.74-.06-2.43,0-1,.69-1.14,1.53-1.14s1.5,0,2.25,0h.45a.31.31,0,0,0,.33-.33v-.21a.47.47,0,0,0-.48-.48h-6.93c-1.28,0-2.55.06-3.8.06-.69,0-.75-.27-.75-1.11V24.42c0-.84.06-1.14.71-1.14,1.29,0,2.56.06,3.84.06H124c.54,0,1-.21,1-.81a6.83,6.83,0,0,0-.06-.78,1.24,1.24,0,0,1,0-.3c0-.39.3-.45.63-.45s2.91.21,3.36.24c1.11.09,1.68.06,1.68.54,0,.24-.21.3-.48.45a.63.63,0,0,0-.36.54c0,.45.33.57.69.57h4.8c1.26,0,2.55-.06,3.81-.06.66,0,.72.27.72,1.14Zm28,21.72c-.69,0-2.55-3-2.94-3.63-.09-.12-.24-.39-.42-.39s-.21.27-.21.42c0,.57.06,1.14.06,1.71,0,2.55-2.58,2.67-4.53,2.67-1.11,0-1.92,0-2.1-2.31,0-.12,0-.48-.18-.48s-.24.18-.3.27S156.18,47,156,47.22s-.36.45-.66.45c-1,0-2.88-1.29-2.88-2,0-.21.33-.51.48-.66a10.54,10.54,0,0,0,1.26-1.44.1.1,0,0,0-.09-.09,15,15,0,0,1-1.56.45c-.48,0-.6-.69-.68-1.05S151.17,40,150.9,40s-.12.3-.12.39v3.18c0,1.29.1,2.61.1,3.93,0,.75-.34.81-1.27.81h-1.67c-.94,0-1.23-.06-1.23-.84,0-1.29.08-2.61.08-3.9v-3c0-.12-.08-.3-.2-.3s-.24.75-.3,1.56c0,.21,0,.39-.06.6a37.09,37.09,0,0,1-.58,4.08c-.09.36-.15.69-.53.69s-2.56-.42-2.56-1.2c0-.21.25-1.08.31-1.35a36.21,36.21,0,0,0,.57-5.43c0-.48-.51-3.69-.63-4.41a2.24,2.24,0,0,1,0-.45c0-.3.25-.33.67-.33h.42l.62,0c.58,0,.67-.12,1-.66l.19-.27a3.38,3.38,0,0,0,.56-1.11c0-.57-2.73-2.46-3.29-2.82-.15-.12-.27-.21-.27-.39s1.14-3.18,1.71-3.18c.14,0,.35.18.48.27a.43.43,0,0,0,.18.06c.15,0,.21-.09.44-.75.4-1.11.85-2.46,1.17-3.57.1-.33.19-.51.46-.51a14.32,14.32,0,0,1,1.58.57l1,.39.24.09c.42.18.75.3.75.57s-.24.36-.45.42-.45.09-.59.39c-.58,1.14-1.15,2.31-1.75,3.42a1.72,1.72,0,0,0-.33.81c0,.42.52.69.66.69s.46-.45.54-.63c.48-.9.9-1.83,1.36-2.73.21-.48.27-.66.56-.66a10.93,10.93,0,0,1,1.65.78c.36.18.69.36.84.42.36.18,1.38.6,1.38,1.05s-.42.39-.66.42a.91.91,0,0,0-.57.33c-1.05,1.65-2.13,3.33-3.39,5.1a3.84,3.84,0,0,0-.66,1.08c0,.21.24.21.39.21s.67-.06.94-.09.56,0,.56-.36a6.18,6.18,0,0,0-.29-1,2.76,2.76,0,0,1-.16-.54c0-.6,1.29-1,2.16-1,.66,0,.72.21,1,1.14.48,1.35.87,2.7,1.29,4.05a.83.83,0,0,0,.81.81h1.41c.36,0,.69,0,1,0,.66,0,.84.27,1.29.78a.4.4,0,0,0,.15.09c.18,0,.24-.39.24-.78a9.75,9.75,0,0,0-.06-1c-.06-.45-.15-.81-.66-.81H159c-.78,0-1.56.06-2.34.06s-1.41-.21-1.41-1.32c0-.78.06-1.53.06-2.28V27.75c0-.75-.06-1.53-.06-2.28,0-1,.42-1.32,1.38-1.32.54,0,1.08.06,1.62.06.9,0,1.05-.57,1.38-1.8,0-.12.12-.48.18-.75s.15-.57.48-.57c.54,0,2.91.57,3.6.72.42.09.81.12.81.51,0,.24-.12.33-.36.39s-.45.09-.6.39a1.53,1.53,0,0,0-.18.6c0,.39.33.51.66.51h.81c.78,0,1.56-.06,2.34-.06s1.41.21,1.41,1.32c0,.78-.06,1.53-.06,2.28v3.87c0,.75.06,1.5.06,2.28,0,1-.42,1.32-1.35,1.32s-1.53-.06-2.28-.06c-.45,0-.48.24-.54.45a.2.2,0,0,1-.12.15.92.92,0,0,0-.42.9c0,.48.45,1.44.93,1.44s1.62-1.77,1.89-2.13c.12-.15.27-.36.45-.36s1,.84,1.86,1.74c.57.66,1,1.14,1,1.35a.38.38,0,0,1-.42.36.32.32,0,0,1-.18,0l-.18,0a.68.68,0,0,0-.42.24c-.24.21-.45.42-.66.6-.78.66-1.23,1-1.23,1.41s.54,1,.87,1.32c.72.81,1.47,1.59,2.22,2.34a.56.56,0,0,1,.21.36C170.43,46.05,168.42,47.55,167.67,47.55Zm11.61,0c-.3,0-.51-.3-.65-.51a24,24,0,0,0-4.92-4.41.54.54,0,0,1-.3-.42c0-.57,2.15-2.91,2.82-2.91s6.05,4.32,6.05,5.07S180.13,47.55,179.28,47.55ZM224.52,46c-.45,0-.84-.48-1.17-.87a.54.54,0,0,0-.15-.21,32.26,32.26,0,0,0-5.28-4.83,2.41,2.41,0,0,0-1-.51,1.05,1.05,0,0,0-.75.36,34.31,34.31,0,0,1-4.71,3.6c-.66.42-3.57,2.13-4.16,2.13s-1.66-1.65-2-2.13a4.65,4.65,0,0,1-.75-1.62c0-.45.42-.63.78-.75a26.85,26.85,0,0,0,12.32-9.84,2.07,2.07,0,0,0,.42-.9c0-.51-.51-.57-1-.57h-4.56c-1.35,0-2.73.06-4.1.06-.75,0-.81-.36-.81-1.44v-2c0-1.05.06-1.26.77-1.26,1.38,0,2.77.09,4.14.09h7.2a15.93,15.93,0,0,0,2.07-.09,6.32,6.32,0,0,1,.75-.06c.93,0,2.58,2.25,2.58,2.67a3.52,3.52,0,0,1-.45.93,55.66,55.66,0,0,1-4.17,6.48.82.82,0,0,0-.24.57.68.68,0,0,0,.42.63,62,62,0,0,1,5.46,4.26c.3.27,1.35,1.2,1.56,1.47a.43.43,0,0,1,.18.36C227.88,43.35,225.36,46,224.52,46Zm27-7.29c-.27,0-.57-.3-.75-.48-.51-.48-3-2.7-3.45-2.7s-.45.42-.45.72v7.2c0,1,0,2,0,3,0,1.44-.09,1.56-2,1.56h-1.35c-1.2,0-1.56-.15-1.56-.93,0-1.2.06-2.37.06-3.57V26.19c0-1.23-.06-2.79-.06-3.72,0-.39.06-.57.48-.57a44.55,44.55,0,0,1,4.62.6c.18.06.33.18.33.36a.52.52,0,0,1-.18.36,1.56,1.56,0,0,0-.33,1.08v5.82c0,.15,0,.42.36.42s.36-.12.51-.12a3.09,3.09,0,0,1,1.11.48c1,.6,2.19,1.56,2.58,1.86a35.51,35.51,0,0,1,2.76,2.43.77.77,0,0,1,.21.48C254.43,36.27,252.24,38.7,251.55,38.7Zm37-3.27a41.46,41.46,0,0,1-4.92,4A56.32,56.32,0,0,1,273.27,45l-.9.42a2.86,2.86,0,0,1-.81.27,16.11,16.11,0,0,1-2.79-1.26c-.68-.42-.68-.81-.68-1.53V25.26c0-.24-.07-.57-.07-.78a.35.35,0,0,1,.34-.39c.23,0,3.14.42,3.77.51,1.05.15,1.35.24,1.35.54a.32.32,0,0,1-.15.27c-.48.42-.51.75-.51,2.16V38.19c0,.72.09,1.44.78,1.44a12.37,12.37,0,0,0,2.25-.9c1-.42,7.08-3.9,10.26-7.41.24-.24.54-.57.84-.57.6,0,2.13,3,2.13,3.81C289.08,34.89,288.75,35.19,288.51,35.43Zm29.55-.84c0,1.65,0,2.16-1,2.16-1.17,0-2.55-.09-3.87-.09H299.4c-1.31,0-2.73.09-3.84.09s-1-.57-1-2.16V33.21c0-.9.1-1.26.88-1.26.42,0,2.1.12,4,.12h13.8c1.77,0,3.69-.12,4-.12.78,0,.9.33.9,1.2Zm23.49,4.11c-.27,0-.57-.3-.75-.48-.51-.48-3-2.7-3.45-2.7s-.45.42-.45.72v7.2c0,1,0,2,0,3,0,1.44-.09,1.56-2,1.56h-1.35c-1.2,0-1.56-.15-1.56-.93,0-1.2.06-2.37.06-3.57V26.19c0-1.23-.06-2.79-.06-3.72,0-.39.06-.57.48-.57a44.55,44.55,0,0,1,4.62.6c.18.06.33.18.33.36a.52.52,0,0,1-.18.36,1.56,1.56,0,0,0-.33,1.08v5.82c0,.15,0,.42.36.42s.36-.12.51-.12a3.09,3.09,0,0,1,1.11.48c1,.6,2.19,1.56,2.58,1.86a35.51,35.51,0,0,1,2.76,2.43.77.77,0,0,1,.21.48C344.43,36.27,342.24,38.7,341.55,38.7Z"/><path class="cls-7" d="M131.19,38.28h-5.94a.47.47,0,0,0-.48.48v.15a.47.47,0,0,0,.48.48h5.94a.49.49,0,0,0,.48-.48v-.15A.47.47,0,0,0,131.19,38.28Z"/></g><g id="アイコン名"><text class="cls-8" transform="translate(60.83 213.41)">ホーム</text><text class="cls-8" transform="translate(188.16 213.41)">次</text><text class="cls-8" transform="translate(279.5 213.41)">カレンダー</text><text class="cls-8" transform="translate(388.83 213.41)">ダウンロード</text><text class="cls-8" transform="translate(528.16 213.41)">再生</text><text class="cls-8" transform="translate(613.5 213.41)">中止、ストップ</text><text class="cls-8" transform="translate(746.83 213.41)">リロード</text><text class="cls-8" transform="translate(856.16 213.41)">お気に入り</text><text class="cls-8" transform="translate(989.5 213.41)">履歴</text><text class="cls-8" transform="translate(1092.83 213.41)">ユーザー</text><text class="cls-8" transform="translate(48.83 351.9)">リサイクル</text><text class="cls-8" transform="translate(170.16 351.9)">メニュー</text><text class="cls-8" transform="translate(297.5 351.9)">説明</text><text class="cls-8" transform="translate(388.83 351.9)">アップロード</text><text class="cls-8" transform="translate(516.16 351.9)">モニター</text><text class="cls-8" transform="translate(631.5 351.9)">カーソル</text><text class="cls-8" transform="translate(743.9 351.9)">S<tspan class="cls-9" x="6.32" y="0">D</tspan><tspan x="17.87" y="0">カード</tspan></text><text class="cls-8" transform="translate(874.16 351.9)">資料</text><text class="cls-8" transform="translate(989.5 351.9)">警告</text><text class="cls-8" transform="translate(1104.83 351.9)">禁止</text><text class="cls-8" transform="translate(66.83 492.39)">転送</text><text class="cls-8" transform="translate(170.16 492.39)">フォルダ</text><text class="cls-8" transform="translate(285.5 492.39)">新規資料</text><text class="cls-8" transform="translate(388.83 492.39)">新規フォルダ</text><text class="cls-8" transform="translate(522.16 492.39)">充電中</text><text class="cls-8" transform="translate(643.5 492.39)">確定</text><text class="cls-8" transform="translate(752.83 492.39)">ロック</text><text class="cls-8" transform="translate(856.16 492.39)">アンロック</text><text class="cls-8" transform="translate(989.5 492.39)">休止</text><text class="cls-8" transform="translate(1080.83 492.39)">システム情報</text><text class="cls-8" transform="translate(36.83 630.89)">シャットダウン</text><text class="cls-8" transform="translate(169.35 630.89)">CP<tspan class="cls-9" x="14.29" y="0">U</tspan><tspan x="25.63" y="0">情報</tspan></text><text class="cls-8" transform="translate(273.5 630.89)">ブックマーク</text><text class="cls-8" transform="translate(406.83 630.89)">ソース</text><text class="cls-8" transform="translate(528.16 630.89)">同期</text><text class="cls-8" transform="translate(619.5 630.89)">ローディング</text><text class="cls-8" transform="translate(752.83 630.89)">サーバ</text><text class="cls-8" transform="translate(862.16 630.89)">コメント</text><text class="cls-8" transform="translate(983.5 630.89)">コピー</text><text class="cls-8" transform="translate(1092.83 630.89)">ペースト</text><text class="cls-8" transform="translate(60.19 773.38)">AB<tspan class="cls-9" x="14.83" y="0">C</tspan><tspan x="25.28" y="0">順</tspan></text><text class="cls-8" transform="translate(182.16 773.38)">昇順</text><text class="cls-8" transform="translate(297.5 773.38)">降順</text><text class="cls-8" transform="translate(412.83 773.38)">返信</text><text class="cls-8" transform="translate(534.16 773.38)">前</text><text class="cls-8" transform="translate(643.5 773.38)">ピン</text><text class="cls-8" transform="translate(760.11 773.38)">GPS</text><text class="cls-8" transform="translate(874.16 773.38)">最初</text><text class="cls-8" transform="translate(989.5 773.38)">最後</text><text class="cls-8" transform="translate(1104.83 773.38)">設定</text></g><g id="outline"><path class="cls-7" d="M111,129.71v-25H96v10l-17.6-17.6L41.27,134.31l1.91,1.91L53,126.38v49.34h50.15v-50l10.52,10.52,1.92-1.91ZM93.26,173H85.72V155.74h7.54Zm7.21-49.89V173H96V153H83v20H55.74V123.67L78.44,101l22.15,22.15Zm7.85,3.89-9.57-9.56v-10h9.57Z"/><path class="cls-7" d="M203,113.58v23.69H156.8v3H203v6.45h3v-6.45h23.69Zm3,7.25,16.45,16.44H206Z"/><path class="cls-7" d="M89.51,418.27h3v-6.1h22.73L89.51,386.45v22.72h-44v3h44Zm3-24.58L108,409.17H92.51Z"/><path class="cls-7" d="M67.58,415.19h-3v6.1H41.85L67.58,447V424.29h44v-3h-44Zm-3,24.58L49.09,424.29H64.58Z"/><rect class="cls-7" x="387.9" y="307.26" width="69.22" height="3"/><path class="cls-7" d="M421,255v49h3V255l10.78,10.79,2.12-2.12-14.4-14.41L408.1,263.71l2.12,2.12Zm1.5-1.5h0Z"/><rect class="cls-7" x="389.81" y="169.39" width="70.42" height="3"/><path class="cls-7" d="M439.66,151.53l-2.12-2.12-11,11V110.55h-3v49.88l-11-11-2.12,2.12L425,166.17Zm-14.6,10.36,0,0,0,0Z"/><path class="cls-7" d="M518.87,106.24v63.91l46.86-32Zm3,5.68,38.54,26.28-38.54,26.27Z"/><polygon class="cls-7" points="686.41 108.76 684.29 106.64 656.32 134.61 628.36 106.64 626.23 108.76 654.2 136.73 626.23 164.7 628.36 166.82 656.32 138.85 684.29 166.82 686.41 164.7 658.44 136.73 686.41 108.76"/><path class="cls-7" d="M796.68,123v36.77h-53V124.49h32.92v5.16h3v-5.16h15.41l-18.41-18.41v15.41H740.72v41.27h59V123Zm-17-9.67,8.17,8.17h-8.17Z"/><path class="cls-7" d="M920.63,127.51l-26.06-3.79L882.91,100.1l-11.66,23.62-26.06,3.79,18.86,18.38-4.46,26,23.32-12.26,23.31,12.26-4.45-26Zm-18.39,38.86-19.33-10.16-19.33,10.16,3.69-21.53L851.63,129.6l21.61-3.14,9.67-19.58,9.66,19.58,21.61,3.14-15.63,15.24Z"/><path class="cls-7" d="M959.91,111.67v53.2h79.89v-53.2Zm76.89,50.2H962.91v-47.2h73.89Z"/><polygon class="cls-7" points="1003.99 119.54 1000.99 119.54 1000.99 138.82 988.34 138.77 988.33 141.77 1003.99 141.83 1003.99 119.54"/><path class="cls-7" d="M1125.65,122.25h-23.88V104.47h23.88Zm-20.88-3h17.88V107.47h-17.88Z"/><path class="cls-7" d="M1113.71,170.9l-12.45-42.08h24.9Zm-8.44-39.08,8.44,28.5,8.43-28.5Z"/><path class="cls-7" d="M57.4,288.59l5.43,1.64.87-2.87L59,285.93l7.74-13.22L40.85,283.6l13.59,4.1-9.11,15.54h33v-3H50.57Zm-7.71-5.46L59.55,279,56,285Z"/><path class="cls-7" d="M81.4,247.52,88,259.32l-4.17,3.85,2,2.21L89.46,262l7.44,13.39,3.78-27.8-10.45,9.62-8.75-15.74L64.72,269.87l2.58,1.53Zm15.18,7.94-1.44,10.61-3.41-6.14Z"/><path class="cls-7" d="M116.17,304.61l-15.38-29.16-2.66,1.4,12.94,24.53-13.49-.6L96.5,295.2l-3,.58,1,4.86L79.2,300l21.69,17.78-2.72-13.93Zm-28.09-1.25,7,.31,1.26,6.47Z"/><rect class="cls-7" x="159.52" y="252.55" width="67.5" height="3"/><rect class="cls-7" x="159.52" y="276.42" width="67.5" height="3"/><rect class="cls-7" x="159.52" y="300.3" width="67.5" height="3"/><rect class="cls-7" x="305.31" y="243.89" width="3" height="10.29" transform="translate(-72.29 137.52) rotate(-22.67)"/><polygon class="cls-7" points="313.08 307.96 313.08 259.85 300.93 259.85 300.93 262.85 310.08 262.85 310.08 307.96 285.5 307.96 285.5 310.96 333.81 310.96 333.81 307.96 313.08 307.96"/><path class="cls-7" d="M541.28,303.17v-12.6h26.39V251.32H511.89v39.25h26.39v12.6H501.94v3h72.12v-3Zm-26.39-48.85h49.78v33.25H514.89Z"/><path class="cls-7" d="M667.18,312.73l-13.8-23.92,13.71-7.13L634.5,246.31,635.67,298l15-7.83,13.87,24Zm-29.5-58.54,24.54,26.64-23.66,12.31Z"/><path class="cls-7" d="M754.86,243.42l-14.4,16.34v53.45h58.86V243.42Zm41.46,66.79H743.46V260.9l12.75-14.48h40.11Z"/><rect class="cls-7" x="764.67" y="248.97" width="3" height="10.59"/><rect class="cls-7" x="774.77" y="248.97" width="3" height="10.59"/><rect class="cls-7" x="784.87" y="248.97" width="3" height="10.59"/><path class="cls-7" d="M898.38,243.4H853.77v66.86h57.71V256.64Zm.88,5.15,7.76,7.84h-7.76Zm-42.49,58.71V246.4h39.49v13h12.22v47.87Z"/><rect class="cls-7" x="863.45" y="263.41" width="31.23" height="3"/><rect class="cls-7" x="863.45" y="277.17" width="31.23" height="3"/><rect class="cls-7" x="863.45" y="290.93" width="31.23" height="3"/><path class="cls-7" d="M998.44,244.56l-39.51,65.32h81.64Zm.08,5.66,36.54,56.66H964.25Z"/><rect class="cls-7" x="996.98" y="260.52" width="3" height="33.55"/><rect class="cls-7" x="996.98" y="297.98" width="3" height="4"/><rect class="cls-7" x="1067" y="276.8" width="94.49" height="3" transform="translate(129.56 869.41) rotate(-45)"/><rect class="cls-7" x="78.24" y="529.73" width="3" height="37.95"/><polygon class="cls-7" points="87.53 540.7 87.53 543.7 114.22 543.7 114.22 582.31 46.09 582.31 46.09 543.7 72.45 543.7 72.45 540.7 43.09 540.7 43.09 585.31 117.22 585.31 117.22 540.7 87.53 540.7"/><path class="cls-7" d="M112.24,710.26H89.75V666.75h-3v43.51h-6v3h6v22.49Zm-22.49,3H105L89.75,728.51Z"/><path class="cls-7" d="M55.81,682.17h14.8v11.31h3V666.36H52.81v27.12h3Zm14.8-12.81v9.81H55.81v-9.81Z"/><polygon class="cls-7" points="54.31 708.87 54.31 711.87 68.77 711.87 50.96 731.85 72.11 731.85 72.11 728.85 57.66 728.85 75.46 708.87 54.31 708.87"/><path class="cls-7" d="M170.34,584.24h51v-51h-51Zm3-48h45v45h-45Z"/><rect class="cls-7" x="177.91" y="522.51" width="3" height="7.98"/><rect class="cls-7" x="188.99" y="522.51" width="3" height="7.98"/><rect class="cls-7" x="200.07" y="522.51" width="3" height="7.98"/><rect class="cls-7" x="211.15" y="522.51" width="3" height="7.98"/><rect class="cls-7" x="177.91" y="586.99" width="3" height="7.98"/><rect class="cls-7" x="188.99" y="586.99" width="3" height="7.98"/><rect class="cls-7" x="200.07" y="586.99" width="3" height="7.98"/><rect class="cls-7" x="211.15" y="586.99" width="3" height="7.98"/><rect class="cls-7" x="224.09" y="540.28" width="7.98" height="3"/><rect class="cls-7" x="224.09" y="551.36" width="7.98" height="3"/><rect class="cls-7" x="224.09" y="562.44" width="7.98" height="3"/><rect class="cls-7" x="224.09" y="573.52" width="7.98" height="3"/><rect class="cls-7" x="159.17" y="540.28" width="7.98" height="3"/><rect class="cls-7" x="159.17" y="551.36" width="7.98" height="3"/><rect class="cls-7" x="159.17" y="562.44" width="7.98" height="3"/><rect class="cls-7" x="159.17" y="573.52" width="7.98" height="3"/><path class="cls-7" d="M289.23,531l.85,58.38L307.43,572l18.08,16.4V531Zm33.28,50.65-15.18-13.77L293,582.22l-.7-48.24h30.24Z"/><polygon class="cls-7" points="683.3 392.61 642 442.34 622.96 424.09 620.89 426.25 642.25 446.74 685.61 394.52 683.3 392.61"/><path class="cls-7" d="M1117.94,445.29v-13h27.11V391h-57.21v41.27h27.1v13h-37.36v3h74.07v-3ZM1090.84,394h51.21v35.27h-51.21Z"/><polygon class="cls-7" points="1112.43 422.45 1103.28 413.68 1101.2 415.84 1112.68 426.84 1135.32 399.58 1133.01 397.67 1112.43 422.45"/><polygon class="cls-7" points="543.03 674.62 540.76 672.65 518.69 698.17 540.75 724 543.03 722.05 522.64 698.18 543.03 674.62"/><polygon class="cls-7" points="540.51 698.18 560.89 674.62 558.62 672.65 536.55 698.17 558.61 724 560.9 722.05 540.51 698.18"/><path class="cls-7" d="M787.82,700.89l13.94,0v-3l-13.93,0V682.37H771.71l0-14.44h-3l0,14.43H753.52V698l-14.78,0v3l14.77,0v15.69h15.27l0,14.28h3l0-14.27h16Zm-3-15.52V697.9l-13.07,0,0-12.56Zm-28.3,0h12.2l0,12.57-12.23,0Zm0,28.3V701l12.23,0,0,12.73Zm15.27,0,0-12.74,13.07,0v12.77Z"/><path class="cls-7" d="M1022.18,550.24v14.94h-4.65V539l-13.06-13.21H960v66.7h57.57V568.18h4.65v3.22h3v-3.22h14.94Zm-16.84-19.35,7.73,7.81h-7.73Zm9.19,58.55H963v-60.7h39.38v13h12.19v23.48H995.34v3h19.19Zm10.65-32,7.7,7.7h-7.7Z"/><rect class="cls-7" x="969.62" y="545.7" width="31.15" height="3"/><rect class="cls-7" x="969.62" y="559.43" width="31.15" height="3"/><rect class="cls-7" x="969.62" y="573.15" width="31.15" height="3"/><path class="cls-7" d="M1136.44,525.22h-43.29v39.57h-17.82v3h17.82v22.3h56v-52Zm.87,5.15,7.36,7.44h-7.36Zm-41.16,56.72v-19.3h5.21v3.09h3v-3.09h14.57l-17.57-17.57v14.57h-5.21V528.22h38.16v12.59h11.84v46.28Zm8.21-22.3v-7.33l7.33,7.33Z"/><path class="cls-7" d="M748.41,524.82v69h44v-69Zm41,66h-38v-63h38Z"/><rect class="cls-7" x="758.32" y="534.57" width="25.21" height="3"/><rect class="cls-7" x="758.32" y="542.1" width="25.21" height="3"/><rect class="cls-7" x="758.32" y="580.11" width="25.21" height="3"/><polygon class="cls-7" points="405.79 544.13 403.8 541.89 383.93 559.49 403.8 577.3 405.8 575.07 388.44 559.5 405.79 544.13"/><polygon class="cls-7" points="436.06 541.59 434.06 543.82 451.42 559.39 434.06 574.76 436.05 577 455.93 559.4 436.06 541.59"/><rect class="cls-7" x="396.74" y="558.27" width="34.07" height="3" transform="translate(-246.21 781.08) rotate(-72.07)"/><path class="cls-7" d="M230.67,711.06H208.52V668.28h-3v42.78h-5.88v3h5.88v22.15Zm-22.15,3h14.91L208.52,729Z"/><rect class="cls-7" x="160.17" y="729.99" width="37.54" height="3"/><rect class="cls-7" x="160.17" y="714.56" width="32.53" height="3"/><rect class="cls-7" x="160.17" y="699.43" width="27.53" height="3"/><rect class="cls-7" x="160.17" y="684.29" width="22.52" height="3"/><rect class="cls-7" x="160.17" y="670.03" width="17.52" height="3"/><path class="cls-7" d="M346.05,709.41H323.49V665.75h-3v43.66h-6v3h6V735Zm-22.56,3h15.32l-15.32,15.32Z"/><rect class="cls-7" x="274.49" y="667.56" width="38.29" height="3"/><rect class="cls-7" x="274.49" y="683.3" width="33.19" height="3"/><rect class="cls-7" x="274.49" y="698.74" width="28.08" height="3"/><rect class="cls-7" x="274.49" y="714.19" width="22.98" height="3"/><rect class="cls-7" x="274.49" y="728.73" width="17.87" height="3"/><path class="cls-7" d="M408.66,695.1V677l-21.1,21.1h18.1v5.26h3V698.1h43.51v23.43H426.36v3h28.81V695.1Zm-3,0H394.81l10.85-10.86Z"/><path class="cls-7" d="M1001.59,700.51H965.83v3h35.76v4.71h3v-4.71h19l-22-22Zm3-11.74,11.74,11.74h-11.74Z"/><rect class="cls-7" x="1023.69" y="673.7" width="3" height="53.58"/><rect class="cls-7" x="1033.26" y="673.7" width="3" height="53.58"/><path class="cls-7" d="M882.28,700.93V682.24l-21.7,21.69h18.7v4.61h3v-4.61h35.13v-3Zm-3,0H867.83l11.45-11.45Z"/><rect class="cls-7" x="857.55" y="674.6" width="3" height="52.67"/><rect class="cls-7" x="847.98" y="674.6" width="3" height="52.67"/><path class="cls-7" d="M1087.31,671.7h-3V678h-8.47v16.22h8.47V729h3v-34.8h8.47V678h-8.47Zm-8.47,19.48V681h5.47v10.22ZM1092.78,681v10.22h-5.47V681Z"/><path class="cls-7" d="M1116.12,671.7h-3V693h-8.63v16.22h8.63V729h3V709.26h8.32V693h-8.32Zm-8.63,34.56V696h5.63v10.22Zm14-10.22v10.22h-5.32V696Z"/><path class="cls-7" d="M1153.41,707.31h-8.48V671.7h-3v35.61h-8.47v16.22h8.47V729h3v-5.45h8.48Zm-17,13.22V710.31h5.47v10.22Zm14,0h-5.48V710.31h5.48Z"/><path class="cls-7" d="M962.33,394.77v48.88h70.84V394.77Zm67.84,45.88H965.33V397.77h64.84Z"/><rect class="cls-7" x="996.25" y="404.64" width="3" height="28.39"/><path class="cls-7" d="M565,582.31H515.52V568.76h3.39v-3h-3.39v-9.32l-12.31,12.32h9.31v16.55H568V560.72h-3Zm-52.48-16.55h-2.07l2.07-2.08Z"/><path class="cls-7" d="M515.73,534h49.48v13.55h-3.39v3h3.39v9.31l12.31-12.31h-9.31V531H512.73V555.6h3Zm52.48,16.55h2.07l-2.07,2.07Z"/><path class="cls-7" d="M673.47,528.93H631L650.44,558,631,587.14h42.45L654,558Zm-36.84,3h31.23l-15.62,23.41Zm31.23,52.21H636.63l15.61-23.4Z"/><path class="cls-7" d="M326.34,385.9H282.83v65.2h56.28V398.82Zm-.24,4,9.87,10H326.1ZM285.83,448.1V388.9H323.1v14h13v45.2Z"/><polygon class="cls-7" points="328.21 431.79 325.21 431.79 325.21 437.7 319.31 437.7 319.31 440.7 325.21 440.7 325.21 446.61 328.21 446.61 328.21 440.7 334.13 440.7 334.13 437.7 328.21 437.7 328.21 431.79"/><path class="cls-7" d="M232,396.75h-51L172,409.06h-15v34.59h61.57v-1.07h0Zm-16.55,43.9H159.91V412.06h55.57Zm-39.8-31.59,6.88-9.31H228L218.48,432v-23Z"/><polygon class="cls-7" points="432.01 438.28 435.01 438.28 435.01 432.29 441 432.29 441 429.29 435.01 429.29 435.01 423.3 432.01 423.3 432.01 429.29 426.02 429.29 426.02 432.29 432.01 432.29 432.01 438.28"/><path class="cls-7" d="M411.19,399l-8.44,11.41h-14v32.31h57.31v-1.08L458.68,399Zm31.87,40.72H391.75V413.4h51.31ZM406.48,410.4,412.7,402h42l-8.6,29.07V410.4Z"/><path class="cls-7" d="M580.49,413.3h-5.36v-5.08h-38l5.75-17.13-2.85-.95L534,408.22H500.05v23.7h42.61l-8.18,15.45,2.66,1.41,8.91-16.86h29.08v-3.86h5.36Zm-77.44,15.62v-17.7H533l-3.13,9.34h18.84l-4.42,8.36Zm69.08,0H547.64l6-11.36H534l2.13-6.34h36v17.7Zm5.36-3.86h-2.36V416.3h2.36Z"/><path class="cls-7" d="M785.46,420.54V381.92H756.34v38.62H741.77v37.31h57.57V420.54Zm-26.12-35.62h23.12v35.62H759.34Zm37,69.93H744.77V423.54h51.57Z"/><rect class="cls-7" x="778.64" y="429.96" width="14.26" height="3"/><rect class="cls-7" x="778.64" y="437.53" width="14.26" height="3"/><rect class="cls-7" x="778.64" y="445.08" width="14.26" height="3"/><path class="cls-7" d="M875.17,420.54V384.92h23.12v24.67h3V381.92H872.17v38.62H857.59v37.31h57.57V420.54Zm37,34.31H860.59V423.54h51.57Z"/><rect class="cls-7" x="894.46" y="429.96" width="14.26" height="3"/><rect class="cls-7" x="894.46" y="437.53" width="14.26" height="3"/><rect class="cls-7" x="894.46" y="445.08" width="14.26" height="3"/><path class="cls-7" d="M917.39,530.13H848.54v50.58H855v13.62l15.22-13.62h47.13ZM858,587.62v-6.91h7.72Zm56.35-9.91H851.54V533.13h62.85Z"/><rect class="cls-7" x="856.54" y="539.37" width="53.09" height="3"/><rect class="cls-7" x="856.54" y="548.8" width="53.09" height="3"/><rect class="cls-7" x="856.54" y="558.24" width="53.09" height="3"/><rect class="cls-7" x="856.54" y="567.67" width="53.09" height="3"/><path class="cls-7" d="M670.68,673l-2.71-.86,1.43-4.53-9.56-3-1.43,4.53-4.59-1.45-20.76,35.41,15.78,5-6,19.1,2.86.91,6-19.11,15.79,5Zm-8.88-4.64,3.84,1.21-.53,1.67-3.84-1.21Zm-24.25,33,17.64-30.1,12.32,3.89L664.8,710Z"/><path class="cls-7" d="M272.5,110.78v55.48h73.3V110.78Zm70.3,3v5.82H275.5v-5.82Zm-67.3,49.48V122.6h67.3v40.66Z"/><rect class="cls-7" x="283.08" y="127.8" width="51.98" height="3"/><rect class="cls-7" x="283.08" y="136.3" width="51.98" height="3"/><rect class="cls-7" x="283.08" y="144.81" width="51.98" height="3"/><rect class="cls-7" x="283.08" y="153.31" width="51.98" height="3"/></g></svg>