<svg xmlns="http://www.w3.org/2000/svg" viewBox="0 0 1190.55 841.89"><defs><style>.cls-1{font-size:19px;}.cls-1,.cls-2,.cls-3,.cls-5,.cls-7,.cls-8{fill:#fff;}.cls-1,.cls-2,.cls-5{font-family:KozGoPro-Medium-90ms-RKSJ-H, Kozuka Gothic Pro;}.cls-2{font-size:16px;}.cls-3,.cls-5{font-size:13px;}.cls-3{font-family:KozGoPro-Bold-90ms-RKSJ-H, Kozuka Gothic Pro;}.cls-4{letter-spacing:-0.5em;}.cls-6{fill:none;stroke:#dcdddd;stroke-miterlimit:10;}.cls-8{font-size:12px;font-family:KozGoPro-Regular-90ms-RKSJ-H, Kozuka Gothic Pro;}</style></defs><title>saya</title><g id="テンプレート"><text class="cls-1" transform="translate(960.28 46.3)">www.design-icon.com</text><text class="cls-2" transform="translate(447.3 55.3)">DESIGNER : さや</text><text class="cls-3" transform="translate(833.83 817.27)">利用規約：個人、商用、すべてフリーでご利用ください<tspan class="cls-4" x="325" y="0">。</tspan></text><text class="cls-5" transform="translate(447.3 30.16)">サイズ：100 x 100 px</text><rect class="cls-6" x="258.91" y="87.9" width="100" height="100"/><rect class="cls-6" x="833.42" y="508.54" width="100" height="100"/><rect class="cls-6" x="28.81" y="87.9" width="100" height="100"/><rect class="cls-6" x="490.3" y="87.9" width="100" height="100"/><rect class="cls-6" x="374.7" y="87.9" width="100" height="100"/><rect class="cls-6" x="604.74" y="87.9" width="100" height="100"/><rect class="cls-6" x="719.97" y="87.9" width="100" height="100"/><rect class="cls-6" x="833.42" y="87.9" width="100" height="100"/><rect class="cls-6" x="143.31" y="87.9" width="100" height="100"/><rect class="cls-6" x="948.34" y="87.9" width="100" height="100"/><rect class="cls-6" x="1064.14" y="87.9" width="100" height="100"/><rect class="cls-6" x="28.81" y="235.29" width="100" height="100"/><rect class="cls-6" x="143.31" y="235.29" width="100" height="100"/><rect class="cls-6" x="258.91" y="235.29" width="100" height="100"/><rect class="cls-6" x="374.7" y="235.29" width="100" height="100"/><rect class="cls-6" x="490.3" y="235.29" width="100" height="100"/><rect class="cls-6" x="604.74" y="235.29" width="100" height="100"/><rect class="cls-6" x="719.97" y="235.29" width="100" height="100"/><rect class="cls-6" x="833.42" y="235.29" width="100" height="100"/><rect class="cls-6" x="948.34" y="235.29" width="100" height="100"/><rect class="cls-6" x="1064.14" y="235.29" width="100" height="100"/><rect class="cls-6" x="28.81" y="369.67" width="100" height="100"/><rect class="cls-6" x="143.31" y="369.67" width="100" height="100"/><rect class="cls-6" x="490.3" y="369.67" width="100" height="100"/><rect class="cls-6" x="374.7" y="369.67" width="100" height="100"/><rect class="cls-6" x="604.74" y="369.67" width="100" height="100"/><rect class="cls-6" x="258.91" y="369.67" width="100" height="100"/><rect class="cls-6" x="719.97" y="369.67" width="100" height="100"/><rect class="cls-6" x="833.42" y="369.67" width="100" height="100"/><rect class="cls-6" x="948.34" y="369.67" width="100" height="100"/><rect class="cls-6" x="1064.14" y="369.67" width="100" height="100"/><rect class="cls-6" x="28.81" y="508.54" width="100" height="100"/><rect class="cls-6" x="143.31" y="508.54" width="100" height="100"/><rect class="cls-6" x="258.91" y="508.54" width="100" height="100"/><rect class="cls-6" x="374.7" y="508.54" width="100" height="100"/><rect class="cls-6" x="490.3" y="508.54" width="100" height="100"/><rect class="cls-6" x="604.74" y="508.54" width="100" height="100"/><rect class="cls-6" x="948.34" y="508.54" width="100" height="100"/><rect class="cls-6" x="1064.14" y="508.54" width="100" height="100"/><rect class="cls-6" x="719.97" y="508.54" width="100" height="100"/><rect class="cls-6" x="143.31" y="652.76" width="100" height="100"/><rect class="cls-6" x="258.91" y="652.76" width="100" height="100"/><rect class="cls-6" x="374.7" y="652.76" width="100" height="100"/><rect class="cls-6" x="490.3" y="652.76" width="100" height="100"/><rect class="cls-6" x="604.74" y="652.76" width="100" height="100"/><rect class="cls-6" x="719.97" y="652.76" width="100" height="100"/><rect class="cls-6" x="28.81" y="652.76" width="100" height="100"/><rect class="cls-6" x="833.42" y="652.76" width="100" height="100"/><rect class="cls-6" x="948.34" y="652.76" width="100" height="100"/><rect class="cls-6" x="1064.14" y="652.76" width="100" height="100"/><path class="cls-7" d="M134.1,30.65h-2.34a.37.37,0,0,0-.36.39v.15a.36.36,0,0,0,.36.39h2.34a.37.37,0,0,0,.36-.39V31A.37.37,0,0,0,134.1,30.65Z"/><path class="cls-7" d="M134.1,38.33h-2.34a.36.36,0,0,0-.36.38v.19a.38.38,0,0,0,.36.39h2.34a.38.38,0,0,0,.36-.39v-.19A.36.36,0,0,0,134.1,38.33Z"/><path class="cls-7" d="M118.09,35.5a8.94,8.94,0,0,0,1.83-.8c.5-.27,1.17-.6,1.17-.85s-.16-.2-.28-.2H118.5a.81.81,0,0,0-.83.84v.57A.39.39,0,0,0,118.09,35.5Z"/><path class="cls-7" d="M29,0V55.41a12,12,0,0,0,12,12H413.83a12,12,0,0,0,12-12V0ZM299.59,23.66a3.13,3.13,0,0,1,.92.42,34.26,34.26,0,0,1,5.28,3.78.64.64,0,0,1,.27.54c0,.87-2.13,3.3-2.82,3.3a1.31,1.31,0,0,1-.75-.45,30.82,30.82,0,0,0-5-3.51c-.25-.15-.54-.33-.54-.63C296.92,26.51,298.71,23.66,299.59,23.66ZM68.27,50.27a16.06,16.06,0,1,1,16-16.05A16.06,16.06,0,0,1,68.27,50.27Zm69.61-1.9a.93.93,0,0,1-.48-.15,22.1,22.1,0,0,1-3.48-2.34c-.27-.24-.78-.63-.78-.87,0-.45.78-1.2,1.11-1.5.15-.11.3-.24.3-.38a.37.37,0,0,0-.36-.37h-2.73a.37.37,0,0,0-.36.37c0,.17.09.23.93,1.07.21.21.84.78.84,1a.36.36,0,0,1-.36.33c-.21,0-.42-.06-.51-.06a.34.34,0,0,0-.24.09c-.69.57-4,2.88-4.68,2.88s-2.34-2.25-2.34-2.79c0-.27.36-.42.66-.57.54-.24,3.21-1.62,3.21-2,0-.21-.27-.27-.45-.27s-.33.06-.33.24v.15a.36.36,0,0,1-.39.36h-.24c-.54,0-.66.15-1.08.45a48.33,48.33,0,0,1-7,3.78,3.32,3.32,0,0,1-.94.33c-.36,0-.69-.42-1-.81-.12-.18-.33-.51-.56-.51s-.3.3-.34.45c-.14.72-.29.87-.6.87-.92,0-3.47-1.08-3.47-1.74a1.24,1.24,0,0,1,.12-.42,30.78,30.78,0,0,0,.93-4.49,44.4,44.4,0,0,0,.33-6v-.71c0-.94-.06-1.83-.06-2.76s.38-1.65,1.46-1.65c.31,0,.69-.06.69-.45a14.79,14.79,0,0,0-.69-2.31.87.87,0,0,1-.08-.36c0-.18.15-.24.15-.36s-.09-.15-.19-.15c-.36,0-.71,0-1.07,0-.58,0-.63-.3-.63-1V24.2c0-.69,0-.93.66-.93,1,0,1.91.06,2.87.06s1-.51,1-.9-.06-.81-.06-1.08.46-.36.69-.36c.66,0,3.06.18,3.78.24.3,0,.75.06.75.33s-.24.27-.48.39a.52.52,0,0,0-.32.54c0,.57.41.84,1,.84.75,0,1.5-.06,2.25-.06s.66.39.66.93v1.47c0,.87,0,1.11-.69,1.11-.12,0-.27,0-.27.15s.09.15.24.21.54.18.54.51-.27.36-.57.42-.3.09-.42.42-.36.9-.51,1.26a1.09,1.09,0,0,0-.09.33c0,.24.21.3.39.3l1.2,0c.63,0,.69.39.69,1.11V32.6c0,.75-.06,1.11-.69,1.11-.36,0-.69,0-.93,0s-.42.09-.42.36.21.36.36.5.54.52.54.79-.33.36-.75.36a.78.78,0,0,0-.6.21c-.87.62-4,2.7-4.95,2.7-.3,0-.62-.33-.77-.54s-.18-.21-.33-.21c-.4,0-.4,1.23-.4,1.73,0,.27,0,.55.34.55A18.86,18.86,0,0,0,121,38.71,16.3,16.3,0,0,0,123.69,37c.15-.12.42-.37.63-.37a.88.88,0,0,1,.51.27c.21.19,1.5,1.44,1.8,1.8a.73.73,0,0,1,.21.39c0,.15-.15.34-.48.34-.15,0-.39-.07-.48-.07a.71.71,0,0,0-.3.15,33.74,33.74,0,0,1-5.39,3.15,6,6,0,0,1-1.54.57c-.29,0-.56-.3-.75-.53s-.27-.4-.42-.4a.28.28,0,0,0-.23.27c-.1.51-.27,1.71-.27,1.83s.11.39.36.39a22.06,22.06,0,0,0,3.41-1.47,35.58,35.58,0,0,0,4-2.39,1,1,0,0,1,.54-.25c.24,0,1,.75,1.17,1s.27.27.36.27.18-.23.18-.36v-.21c0-.89.06-1.79.06-2.69V31.4c0-.93-.06-1.89-.06-2.82,0-1.26.63-1.41,1.62-1.41h.48c.72,0,.93-1.11.93-1.14,0-.36-.33-.36-.72-.36-.72,0-1.44.09-2.13.09s-.66-.3-.66-1.26V23c0-.84.06-1.14.66-1.14s1.68.06,2.7.06h6.39c1,0,2-.06,2.7-.06s.66.27.66,1v1.74c0,.87-.06,1.14-.63,1.14-.78,0-1.77-.09-2.73-.09h-.9a1.3,1.3,0,0,0-1.23,1.14.39.39,0,0,0,.42.42h.27l2.28-.06c1,0,1.56.24,1.56,1.38,0,1-.06,1.89-.06,2.85v7.2c0,1,.06,1.88.06,2.84s-.45,1.41-1.47,1.41h-.18c-.18,0-.48,0-.48.28s2.58,1.67,3.12,1.94c.27.15.42.27.42.51C140.13,46.3,138.6,48.37,137.88,48.37ZM160,44.05a24,24,0,0,1-6,1.5c-.69,0-1-.51-1.26-1.08a10.27,10.27,0,0,1-.93-2.84c0-.61.66-.73,1.14-.75a16.32,16.32,0,0,0,5.79-1.38c2.25-1,4.38-2.71,4.38-5.37,0-2.25-1.68-3.36-3.75-3.36-4,0-8.34,2.16-11.75,4a1.58,1.58,0,0,1-.9.31c-1.29,0-3.12-3.12-3.12-4.32,0-.45.39-.57.75-.66,2.66-.78,5.27-1.74,7.88-2.61a21.65,21.65,0,0,1,7-1.41,8.87,8.87,0,0,1,6.54,2.4,8.15,8.15,0,0,1,2.19,5.61C167.94,39,164.31,42.38,160,44.05Zm33.3-12c-.63.3-1.29.6-1.92.87-.36.15-.6.36-.6.75a2.17,2.17,0,0,0,.36.93,23.7,23.7,0,0,0,2.31,3.65,2.94,2.94,0,0,1,.84,1.54c0,.8-2.43,2.55-3.21,2.55-.27,0-.45-.16-.84-.55A7.47,7.47,0,0,0,185.34,40c-.87,0-2.25.27-2.25,1.37,0,1.65,2.73,1.92,3.93,1.92.36,0,1.32-.06,2-.14.33,0,.84-.1,1-.1.72,0,.87.48.87,1.74,0,2.85-.51,2.88-1.41,2.88a28.45,28.45,0,0,1-4.8-.27c-3.12-.57-5.81-2.43-5.81-5.88,0-3.62,2.84-5.36,6.17-5.36a9.86,9.86,0,0,1,1.62.15h.12a.45.45,0,0,0,.45-.42,2,2,0,0,0-.33-.69.73.73,0,0,0-.63-.42l-.3.05a40.52,40.52,0,0,1-7.79,1.36c-.54,0-.73-.34-.9-.88a10.12,10.12,0,0,1-.58-2.81c0-.42.12-.63,1.35-.69a37.52,37.52,0,0,0,6.12-.78.45.45,0,0,0,.39-.45c0-.24-.21-.54-.45-.54a3.34,3.34,0,0,0-.39.09,24.06,24.06,0,0,1-3.77.57c-.52,0-.67-.3-.85-.75a11.42,11.42,0,0,1-.69-2.67c0-.45.27-.78,1.08-.81.46,0,1.26-.09,1.86-.18s.87-.27.87-.72a2.44,2.44,0,0,0-.42-.9,3.66,3.66,0,0,1-.62-1.29c0-.48.92-.75,1.31-.87a10.43,10.43,0,0,1,2.46-.57c.78,0,.9.45,1.2,1.41s.54,1.17.93,1.17a6.91,6.91,0,0,0,1.68-.72,2.58,2.58,0,0,1,1.11-.42c.66,0,1.77,2.49,1.77,3.21,0,.48-.39.72-.75.93a15.14,15.14,0,0,1-1.86.9c-.24.09-.63.24-.63.51s.12.6.45.6a11.56,11.56,0,0,0,3.06-1.5,2.13,2.13,0,0,1,.93-.39c.45,0,.81.6,1.11,1.08a5.55,5.55,0,0,1,1,2.13C194.94,31.31,194.37,31.61,193.32,32.09Zm35.1-2.91a5.76,5.76,0,0,0-.42.45c-1.71,1.89-3.48,3.69-5.31,5.43l-.27.27c-.54.54-1.11,1.05-1.47,1.05s-1.8-1.11-2.31-1.53a.51.51,0,0,0-.3-.09c-.36,0-.45.18-.54.53-.93,3.79-2.31,7-5.19,9.78-.5.48-2.4,2.22-3,2.22s-3.73-2.4-3.73-3.06c0-.18.25-.33.87-.69a13.3,13.3,0,0,0,6.51-9.47,16.92,16.92,0,0,0,.12-2.19c0-.06,0-.09,0-.15,0-.24,0-.33.3-.33.87,0,3.81.12,4.5.21.51.06.6.18.6.33s-.09.18-.12.27a.23.23,0,0,0-.06.12.25.25,0,0,0,.27.24.27.27,0,0,0,.21-.09c.24-.21,2.13-1.86,2.13-2.25,0-.18-.15-.33-.48-.33H209.61c-1.11,0-2.19,0-3.26,0-.43,0-.85,0-1.26,0-.93,0-1-.33-1-2V26.42c0-.66.12-1.05.87-1.05,1.52,0,3.05.06,4.61.06h13.2a16.63,16.63,0,0,0,2.76-.18,3,3,0,0,1,.51-.06c.54,0,.9.39,1.29.78s1.68,1.65,1.68,2.37C229.05,28.67,228.72,28.94,228.42,29.18Zm27.09-4.11a1.91,1.91,0,0,0-1.08.51c-.72.72-2,2.37-4.29,4.65a2,2,0,0,0-.69,1.53v11c0,.81,0,1.62,0,2.43,0,.54,0,1.11,0,1.68,0,.93-.51,1-2,1h-1.23c-1.41,0-1.62-.18-1.62-.87,0-1.35.06-2.7.06-4.05V36.25c0-.44-.15-.75-.54-.75a2,2,0,0,0-.87.46c-.81.56-4.94,3.33-5.63,3.33s-3.51-2.77-3.51-3.54c0-.33.36-.46.63-.54a42.61,42.61,0,0,0,5.84-3.12,35.93,35.93,0,0,0,7.65-6.48A30.94,30.94,0,0,0,251,21.86c.06-.15.18-.36.39-.36.45,0,3,1.83,3.87,2.49.36.27.6.57.6.75S255.69,25,255.51,25.07Zm29.25,20.15h-1.71c-1.14,0-1.26-.12-1.38-.59-.18-.67-.6-.67-1.59-.67H268.29c-.39,0-.81.06-1.23.06-.71,0-.81-.39-.81-1.44V40.46c0-.9.06-1.17.69-1.17.4,0,1,.05,1.44.05.93,0,1.86,0,2.82,0h9.39a.94.94,0,0,0,.93-.94V31.91a.93.93,0,0,0-.93-.93h-9.42c-.87,0-1.73,0-2.58,0-.54,0-1,.06-1.55.06-.66,0-.81-.27-.81-1.62v-1.8c0-1.14.15-1.32.69-1.32s.89.06,1.31.06h13.35c.9,0,1.8,0,2.7,0,1.2,0,1.89.36,1.89,1.65,0,1,0,2,0,3V41.17c0,.87.06,1.75.06,2.64C286.2,45.07,286.17,45.22,284.76,45.22Zm31.44-9.66c-4.83,4.71-9.66,7.41-15.66,10.29a1.3,1.3,0,0,0-.81.78.26.26,0,0,1-.24.18c-.24,0-.42-.27-.53-.48A24.31,24.31,0,0,1,297.54,44a7.79,7.79,0,0,1-.87-1.8c0-.26.33-.42.58-.47a31.94,31.94,0,0,0,7.67-3.31,40.14,40.14,0,0,0,10.83-9.38c.06-.09.12-.15.18-.24.27-.39.51-.72.84-.72.6,0,1.53,1.62,1.8,2.1.06.09.09.21.18.33a4.77,4.77,0,0,1,.51,1.41C319.26,32.66,316.83,35,316.2,35.56Z"/><path class="cls-7" d="M134.1,34.52h-2.34a.37.37,0,0,0-.36.39v.15a.37.37,0,0,0,.36.39h2.34a.37.37,0,0,0,.36-.39v-.15A.37.37,0,0,0,134.1,34.52Z"/><path class="cls-7" d="M119.4,29.9c0,.12,0,.15-.09.21a.19.19,0,0,0-.08.18c0,.06,0,.15.21.15,1.07,0,1.22-.84,1.44-1.44a8.87,8.87,0,0,0,.44-1.62.65.65,0,0,0-.69-.66h-1.17a.69.69,0,0,0-.72.63,1.92,1.92,0,0,0,.12.45A10.59,10.59,0,0,1,119.4,29.9Z"/></g><g id="アイコン名"><text class="cls-8" transform="translate(60.83 213.41)">ホーム</text><text class="cls-8" transform="translate(176.16 213.41)">明るさ</text><text class="cls-8" transform="translate(297.5 213.41)">壁紙</text><text class="cls-8" transform="translate(412.83 213.41)">音量</text><text class="cls-8" transform="translate(528.16 213.41)">音楽</text><text class="cls-8" transform="translate(643.5 213.41)">設定</text><text class="cls-8" transform="translate(758.83 213.41)">電池</text><text class="cls-8" transform="translate(868.16 213.41)">充電中</text><text class="cls-8" transform="translate(965.5 213.41)">アップロード</text><text class="cls-8" transform="translate(1080.83 213.41)">ダウンロード</text><text class="cls-8" transform="translate(48.83 351.9)">メッセージ</text><text class="cls-8" transform="translate(152.16 351.9)">緊急メッセージ</text><text class="cls-8" transform="translate(297.5 351.9)">前へ</text><text class="cls-8" transform="translate(412.83 351.9)">停止</text><text class="cls-8" transform="translate(528.16 351.9)">次へ</text><text class="cls-8" transform="translate(631.5 351.9)">一時停止</text><text class="cls-8" transform="translate(758.83 351.9)">受信</text><text class="cls-8" transform="translate(874.16 351.9)">送信</text><text class="cls-8" transform="translate(971.5 351.9)">今日の温度</text><text class="cls-8" transform="translate(1104.83 351.9)">記入</text><text class="cls-8" transform="translate(66.83 492.39)">天気</text><text class="cls-8" transform="translate(176.16 492.39)">ロック</text><text class="cls-8" transform="translate(297.5 492.39)">時計</text><text class="cls-8" transform="translate(406.83 492.39)">連絡先</text><text class="cls-8" transform="translate(528.16 492.39)">友達</text><text class="cls-8" transform="translate(637.5 492.39)">カメラ</text><text class="cls-8" transform="translate(746.83 492.39)">アラーム</text><text class="cls-8" transform="translate(874.16 492.39)">メモ</text><text class="cls-8" transform="translate(977.5 492.39)">リピート</text><text class="cls-8" transform="translate(1092.83 492.39)">チェック</text><text class="cls-8" transform="translate(66.83 630.89)">異常</text><text class="cls-8" transform="translate(170.16 630.89)">おやすみ</text><text class="cls-8" transform="translate(285.5 630.89)">おはよう</text><text class="cls-8" transform="translate(406.83 630.89)">ごみ箱</text><text class="cls-8" transform="translate(528.16 630.89)">電卓</text><text class="cls-8" transform="translate(637.5 630.89)">マイク</text><text class="cls-8" transform="translate(758.83 630.89)">電波</text><text class="cls-8" transform="translate(868.16 630.89)">ヒント</text><text class="cls-8" transform="translate(989.5 630.89)">共有</text><text class="cls-8" transform="translate(1086.83 630.89)">メニュー　</text><text class="cls-8" transform="translate(54.83 773.38)">でんわ　</text><text class="cls-8" transform="translate(170.16 773.38)">ミュート</text><text class="cls-8" transform="translate(297.5 773.38)">保存</text><text class="cls-8" transform="translate(400.83 773.38)">不在着信</text><text class="cls-8" transform="translate(522.16 773.38)">非通知</text><text class="cls-8" transform="translate(643.5 773.38)">伝言</text><text class="cls-8" transform="translate(752.83 773.38)">現在地</text><text class="cls-8" transform="translate(868.16 773.38)">カート</text><text class="cls-8" transform="translate(989.5 773.38)">発信</text><text class="cls-8" transform="translate(1104.83 773.38)">着信</text></g><g id="アイコンデザイン"><polygon class="cls-7" points="126.29 132.07 110.14 132.07 110.14 129.07 117.93 129.07 78.81 96.84 39.68 129.07 47.8 129.07 47.8 132.07 31.32 132.07 78.81 92.96 126.29 132.07"/><path class="cls-7" d="M108.31,132.06v45.83h-59V132.06h59m3-3h-65v51.83h65V129.06Z"/><polygon class="cls-7" points="55.57 139.4 53.57 139.4 53.57 146.07 55.57 146.07 55.57 139.4 55.57 139.4"/><polygon class="cls-7" points="60.38 139.4 58.38 139.4 58.38 146.07 60.38 146.07 60.38 139.4 60.38 139.4"/><path class="cls-7" d="M56.91,155.66c-2,0-3.09-2.87-3.09-5.7h2c0,2.26.77,3.62,1.1,3.7.3-.08,1.07-1.44,1.07-3.7h2C60,152.79,58.93,155.66,56.91,155.66Z"/><rect class="cls-7" x="576.63" y="106.38" width="3" height="55.31"/><rect class="cls-7" x="525.08" y="106.38" width="3" height="55.31"/><path class="cls-7" d="M579.63,125.35H525.08V98.88h54.55Zm-51.55-3h48.55V101.88H528.08Z"/><path class="cls-7" d="M514.52,176.91a13.56,13.56,0,1,1,13.56-13.56A13.57,13.57,0,0,1,514.52,176.91Zm0-24.11a10.56,10.56,0,1,0,10.56,10.55A10.56,10.56,0,0,0,514.52,152.8Z"/><path class="cls-7" d="M566.07,176.91a13.56,13.56,0,1,1,13.56-13.56A13.57,13.57,0,0,1,566.07,176.91Zm0-24.11a10.56,10.56,0,1,0,10.56,10.55A10.56,10.56,0,0,0,566.07,152.8Z"/><polygon class="cls-7" points="533.56 104.54 531.56 104.54 531.56 111.21 533.56 111.21 533.56 104.54 533.56 104.54"/><polygon class="cls-7" points="538.38 104.54 536.38 104.54 536.38 111.21 538.38 111.21 538.38 104.54 538.38 104.54"/><path class="cls-7" d="M534.92,121.48c-2,0-3.09-2.87-3.09-5.7h2c0,2.26.77,3.62,1.09,3.7.31-.08,1.08-1.44,1.08-3.7h2C538,118.61,536.94,121.48,534.92,121.48Z"/><path class="cls-7" d="M410.93,179V102.71l42.15,31V148Zm2.5-71.31V174l37.15-27.28V134.93Z"/><path class="cls-7" d="M469.37,159.35l-18.79-10.84V133.16l18.79-10.84Zm-16.29-12.29,13.79,8V126.65l-13.79,8Z"/><polygon class="cls-7" points="418.09 132.72 416.09 132.72 416.09 139.38 418.09 139.38 418.09 132.72 418.09 132.72"/><polygon class="cls-7" points="422.91 132.72 420.91 132.72 420.91 139.38 422.91 139.38 422.91 132.72 422.91 132.72"/><path class="cls-7" d="M419.44,149.65c-2,0-3.08-2.86-3.08-5.7h2c0,2.26.77,3.62,1.09,3.7.31-.08,1.08-1.44,1.08-3.7h2C422.53,146.79,421.47,149.65,419.44,149.65Z"/><path class="cls-7" d="M404.33,151.52c-3.65,0-6.5-3.72-6.5-8.48s2.85-8.49,6.5-8.49v3c-1.9,0-3.5,2.51-3.5,5.49s1.6,5.48,3.5,5.48Z"/><path class="cls-7" d="M398.6,155.27c-5.06,0-9.18-5.49-9.18-12.23s4.12-12.24,9.18-12.24v3c-3.35,0-6.18,4.23-6.18,9.24s2.83,9.23,6.18,9.23Z"/><path class="cls-7" d="M393.34,162.49c-7.91,0-14.35-8.72-14.35-19.45s6.44-19.46,14.35-19.46v3C387.08,126.58,382,134,382,143s5.09,16.45,11.35,16.45Z"/><path class="cls-7" d="M110.42,312.17h-.85c-2.19-.22-7.89-1.2-10.57-2.74-2-1.13-7.88-5.5-9.55-8.6-.23-.42-.44-.85-.65-1.28H44.43a5.51,5.51,0,0,1-5.5-5.5V253.29a5.5,5.5,0,0,1,5.5-5.5h68.75a5.5,5.5,0,0,1,5.5,5.5V294a5.51,5.51,0,0,1-5.5,5.5h-6.59a6.88,6.88,0,0,0,.44.82,11.47,11.47,0,0,0,4.14,4l.51.34a52.27,52.27,0,0,0,4.79,2.86,2,2,0,0,1,1.23,2.33C117.09,312,112.38,312.17,110.42,312.17Zm-66-61.38a2.5,2.5,0,0,0-2.5,2.5V294a2.5,2.5,0,0,0,2.5,2.5H90.76l.39.9c.28.66.6,1.32.94,2,1.16,2.15,6.22,6.16,8.41,7.42,1.87,1.08,6.71,2.09,9.36,2.35A15.27,15.27,0,0,0,113,309c-1.08-.63-2-1.24-2.93-1.84l-.51-.33a14.57,14.57,0,0,1-5-4.88,12.48,12.48,0,0,1-1.47-3.55l-.52-1.89h10.66a2.5,2.5,0,0,0,2.5-2.5V253.29a2.5,2.5,0,0,0-2.5-2.5Z"/><polygon class="cls-7" points="47.86 258.45 45.86 258.45 45.86 265.12 47.86 265.12 47.86 258.45 47.86 258.45"/><polygon class="cls-7" points="52.67 258.45 50.67 258.45 50.67 265.12 52.67 265.12 52.67 258.45 52.67 258.45"/><path class="cls-7" d="M49.2,274.71c-2,0-3.09-2.86-3.09-5.69h2c0,2.26.77,3.61,1.1,3.7.31-.09,1.08-1.44,1.08-3.7h2C52.29,271.85,51.22,274.71,49.2,274.71Z"/><path class="cls-7" d="M164.9,294.62H152.4V247.79h12.5Zm-9.5-3h6.5V250.79h-6.5Z"/><path class="cls-7" d="M164.54,310.79H152.75V299h11.79Zm-8.79-3h5.79V302h-5.79Z"/><path class="cls-7" d="M227.28,312.18a6.39,6.39,0,0,1-.77,0c-1.81-.21-6.52-1.22-8.75-2.81-1.6-1.14-6.42-5.53-7.77-8.64-.17-.38-.33-.77-.48-1.16H173.88c-2.61,0-4.73-2.47-4.73-5.5V253.29c0-3,2.12-5.5,4.73-5.5h55.61c2.62,0,4.74,2.46,4.74,5.5V294c0,3-2.12,5.5-4.74,5.5h-5.06a7.81,7.81,0,0,0,.4.94,10.5,10.5,0,0,0,3.31,3.95l.42.33a38.72,38.72,0,0,0,3.84,2.84,2,2,0,0,1,1,2.39C232.71,311.88,229,312.18,227.28,312.18Zm-53.4-61.39c-.94,0-1.73,1.14-1.73,2.5V294c0,1.35.79,2.5,1.73,2.5h37.74l.36,1c.22.66.48,1.32.76,2,.94,2.15,5,6.14,6.76,7.39,1.46,1,5.27,2,7.37,2.27a8.56,8.56,0,0,0,2.32-.13c-.93-.66-1.73-1.31-2.51-1.94l-.41-.33a13.26,13.26,0,0,1-4.1-4.91,14.67,14.67,0,0,1-1.18-3.5l-.4-1.82h8.9c.94,0,1.74-1.15,1.74-2.5V253.29c0-1.36-.8-2.5-1.74-2.5Z"/><polygon class="cls-7" points="177.41 256.12 175.41 256.12 175.41 262.79 177.41 262.79 177.41 256.12 177.41 256.12"/><polygon class="cls-7" points="182.23 256.12 180.23 256.12 180.23 262.79 182.23 262.79 182.23 256.12 182.23 256.12"/><path class="cls-7" d="M179.06,268.12c.66,0,1.65,1.35,1.65,3.4s-1,3.39-1.65,3.39-1.65-1.35-1.65-3.39,1-3.4,1.65-3.4m0-2c-2,0-3.65,2.42-3.65,5.4s1.64,5.39,3.65,5.39,3.65-2.41,3.65-5.39-1.63-5.4-3.65-5.4Z"/><path class="cls-7" d="M336.13,256.21a41.12,41.12,0,0,0,.88,48.06l-61.68-23,60.8-25m13.5-8.8-82.51,34,83.58,31.2a38.11,38.11,0,0,1-1.07-65.17Z"/><polygon class="cls-7" points="301.3 273.06 299.3 273.06 299.3 279.73 301.3 279.73 301.3 273.06 301.3 273.06"/><polygon class="cls-7" points="306.12 273.06 304.12 273.06 304.12 279.73 306.12 279.73 306.12 273.06 306.12 273.06"/><path class="cls-7" d="M302.64,289.33c-2,0-3.09-2.87-3.09-5.7h2c0,2.26.77,3.62,1.1,3.7.31-.08,1.08-1.44,1.08-3.7h2C305.73,286.46,304.66,289.33,302.64,289.33Z"/><path class="cls-7" d="M457.58,312.87H391.83V247.12h65.75Zm-62.75-3h59.75V250.12H394.83Z"/><polygon class="cls-7" points="423.56 252.99 421.56 252.99 421.56 259.65 423.56 259.65 423.56 252.99 423.56 252.99"/><polygon class="cls-7" points="428.37 252.99 426.37 252.99 426.37 259.65 428.37 259.65 428.37 252.99 428.37 252.99"/><path class="cls-7" d="M424.9,269.25c-2,0-3.09-2.87-3.09-5.7h2c0,2.26.77,3.62,1.09,3.7.31-.08,1.08-1.44,1.08-3.7h2C428,266.38,426.92,269.25,424.9,269.25Z"/><path class="cls-7" d="M513.08,256.21l60.8,25-61.68,23a41.12,41.12,0,0,0,.88-48.06m-13.5-8.8a38.11,38.11,0,0,1-1.07,65.17l83.58-31.2-82.51-34Z"/><polygon class="cls-7" points="541.92 273.35 539.92 273.35 539.92 280.01 541.92 280.01 541.92 273.35 541.92 273.35"/><polygon class="cls-7" points="546.74 273.35 544.74 273.35 544.74 280.01 546.74 280.01 546.74 273.35 546.74 273.35"/><path class="cls-7" d="M543.26,289.61c-2,0-3.09-2.87-3.09-5.7h2c0,2.26.77,3.62,1.1,3.7.31-.08,1.08-1.44,1.08-3.7h2C546.35,286.74,545.29,289.61,543.26,289.61Z"/><path class="cls-7" d="M653.65,309h-26V251h26Zm-23-3h20V254h-20Z"/><path class="cls-7" d="M681.82,309h-26V251h26Zm-23-3h20V254h-20Z"/><polygon class="cls-7" points="635.84 257.45 633.84 257.45 633.84 264.11 635.84 264.11 635.84 257.45 635.84 257.45"/><polygon class="cls-7" points="640.65 257.45 638.65 257.45 638.65 264.11 640.65 264.11 640.65 257.45 640.65 257.45"/><path class="cls-7" d="M637.17,273.71c-2,0-3.08-2.87-3.08-5.7h2c0,2.26.77,3.62,1.09,3.7.31-.08,1.08-1.44,1.08-3.7h2C640.26,270.84,639.2,273.71,637.17,273.71Z"/><path class="cls-7" d="M794.5,307.88H723.67v-53h70.83Zm-67.83-3H791.5v-47H726.68Z"/><path class="cls-7" d="M732.77,259.37h52.65L759.09,284l-26.32-24.64m-7.59-3,33.91,31.75L793,256.38Z"/><polygon class="cls-7" points="755.69 263.44 755.68 269.5 757.68 269.5 757.69 263.44 755.69 263.44 755.69 263.44"/><polygon class="cls-7" points="760.5 263.44 760.5 269.5 762.5 269.5 762.5 263.44 760.5 263.44 760.5 263.44"/><path class="cls-7" d="M759,279.7c-2,0-3.08-2.87-3.08-5.7h2c0,2.26.76,3.62,1.09,3.7.31-.08,1.08-1.44,1.08-3.7h2C762.11,276.83,761.05,279.7,759,279.7Z"/><path class="cls-7" d="M806,308.82l-10.88-23.59h8.13V279.6c0-.52,0-12.68.49-16.67.22-2.1,1-7.13,2.87-8.43a8.06,8.06,0,0,1,3.67-1.53l.28,0c2.14-.41,3.48-.57,3.9.48s-.8,1.88-2.22,2.81a5.92,5.92,0,0,0-2.07,2.19,6.63,6.63,0,0,0-1.16,3.53c0,.38-.08.74-.14,1.09-.22,1.18-.33,8.9-.33,12.7v9.5h7.79Zm-7.75-21.59,7.7,16.71,7.32-16.71H806.5v-11.5c0-1.82.06-11.43.36-13.06.06-.3.09-.62.13-.94a8.45,8.45,0,0,1,1.51-4.47,8.66,8.66,0,0,1,2-2.3,6.06,6.06,0,0,0-2.8,1.18c-.56.39-1.56,2.82-2,7-.42,3.88-.47,16.33-.47,16.46v7.62Z"/><path class="cls-7" d="M931.53,305.11H860.7v-53h70.83Zm-67.83-3h64.83v-47H863.7Z"/><polygon class="cls-7" points="896.12 287.42 861.17 254.71 863.23 252.52 896.12 283.31 929.01 252.52 931.06 254.71 896.12 287.42"/><polygon class="cls-7" points="894.71 259.11 892.71 259.11 892.71 265.17 894.71 265.17 894.71 259.11 894.71 259.11"/><polygon class="cls-7" points="899.52 259.11 897.52 259.11 897.52 265.17 899.52 265.17 899.52 259.11 899.52 259.11"/><path class="cls-7" d="M896.05,275.37c-2,0-3.09-2.87-3.09-5.7h2c0,2.26.77,3.62,1.1,3.7.31-.08,1.07-1.44,1.07-3.7h2C899.13,272.5,898.07,275.37,896.05,275.37Z"/><path class="cls-7" d="M853,307.38a13.79,13.79,0,0,1-2.36-.31l-.28-.05a8,8,0,0,1-3.68-1.52c-1.9-1.31-2.64-6.34-2.86-8.44-.44-4-.48-16.15-.49-16.66v-5.63h-8.12l10.88-23.6,10.32,23.6h-7.79v9.49c0,3.81.11,11.52.33,12.7.06.35.1.72.14,1.1a6.62,6.62,0,0,0,1.16,3.52,5.88,5.88,0,0,0,2.06,2.2c1.43.92,2.66,1.72,2.23,2.81C854.34,307.17,853.82,307.38,853,307.38Zm-14.67-34.61h7v7.62c0,.12,0,12.58.47,16.45.46,4.2,1.45,6.63,2,7a6,6,0,0,0,2.8,1.19,10.16,10.16,0,0,1-3.52-6.77,9.48,9.48,0,0,0-.12-.95c-.3-1.63-.36-11.23-.36-13.06V272.77h6.73l-7.31-16.72Z"/><path class="cls-7" d="M108.39,456.81a15.94,15.94,0,0,1-11-4.19,29.67,29.67,0,0,1-26-.06,26.4,26.4,0,0,1-10.59,2.1c-10,0-17.76-4.76-17.76-10.83a7.62,7.62,0,0,1,1.93-5c-6.74-2.41-11-7.1-11-12.4,0-7.63,9.08-13.87,20.34-14.05,3-7.74,12.12-13.06,22.72-13.06s19.8,5.34,22.75,13.13c.61-.05,1.2-.07,1.76-.07,10.64,0,19.3,6.3,19.3,14.05a11.32,11.32,0,0,1-2.87,7.4,12.29,12.29,0,0,1,5.38,10C123.34,451,116.63,456.81,108.39,456.81Zm-10.43-8,.83.93a12.75,12.75,0,0,0,9.6,4.06c6.59,0,12-4.47,12-10,0-3.37-2-6.5-5.46-8.36l-1.86-1,1.56-1.42a8.88,8.88,0,0,0,3.25-6.57c0-6.09-7.31-11.05-16.3-11.05a23.26,23.26,0,0,0-2.64.16l-1.26.14-.35-1.21c-2-7-10.55-12.15-20.26-12.15s-18.12,5.05-20.21,12l-.33,1.09-1.42,0H54.8c-9.84,0-17.84,5-17.84,11.05,0,4.45,4.52,8.57,11.25,10.26l3.06.76-2.52,1.89c-1.25.94-2.75,2.48-2.75,4.45,0,4.25,6.76,7.83,14.76,7.83a22.9,22.9,0,0,0,10-2.13l.72-.36.7.4a26.32,26.32,0,0,0,24.73-.11Z"/><path class="cls-7" d="M119.34,431.75l-2.67-1.37a34.51,34.51,0,0,0,3-24.38,26.44,26.44,0,0,0-36.08-18.46,34.5,34.5,0,0,0-18.05,16.65l-2.67-1.37a37.56,37.56,0,0,1,19.63-18.08,29.44,29.44,0,0,1,40.07,20.51A37.46,37.46,0,0,1,119.34,431.75Z"/><polygon class="cls-7" points="54.06 418.28 52.06 418.28 52.06 424.95 54.06 424.95 54.06 418.28 54.06 418.28"/><polygon class="cls-7" points="58.88 418.28 56.88 418.28 56.88 424.95 58.88 424.95 58.88 418.28 58.88 418.28"/><path class="cls-7" d="M55.4,434.54c-2,0-3.09-2.86-3.09-5.69h2c0,2.26.77,3.61,1.1,3.69.31-.08,1.07-1.43,1.07-3.69h2C58.48,431.68,57.42,434.54,55.4,434.54Z"/><polygon class="cls-7" points="101.35 392.87 99.71 394.02 103.52 399.49 105.16 398.34 101.35 392.87 101.35 392.87"/><polygon class="cls-7" points="105.3 390.12 103.66 391.26 107.47 396.73 109.11 395.59 105.3 390.12 105.3 390.12"/><path class="cls-7" d="M110.55,405.82c-1.53,0-3.33-1.46-4.6-3.28l1.64-1.14c1.29,1.85,2.7,2.53,3,2.4s.06-1.79-1.23-3.65L111,399c1.62,2.32,2.39,5.28.72,6.44A2.07,2.07,0,0,1,110.55,405.82Z"/><path class="cls-7" d="M234.69,456.71H151.94v-62.5h82.75Zm-79.75-3h76.75v-56.5H154.94Z"/><rect class="cls-7" x="179.81" y="384.13" width="3" height="11.58"/><rect class="cls-7" x="202.06" y="385.34" width="3" height="9.41"/><rect class="cls-7" x="179.82" y="383.84" width="25.22" height="3"/><path class="cls-7" d="M203.2,447.9H190V425.48a10.68,10.68,0,1,1,6.47.28v7.89h6.75v6.57h-6.75v1h6.75Zm-11.22-2h9.22v-2.72h-6.75v-5h6.75v-2.57h-6.75V424.13l.81-.15a8.68,8.68,0,1,0-4-.18l.72.2Z"/><polygon class="cls-7" points="192.65 410.63 191.24 410.63 191.24 415.34 192.65 415.34 192.65 410.63 192.65 410.63"/><polygon class="cls-7" points="196.06 410.63 194.64 410.63 194.64 415.34 196.06 415.34 196.06 410.63 196.06 410.63"/><path class="cls-7" d="M193.6,422.16c-1.46,0-2.23-2.05-2.23-4.07h1.5c0,1.6.54,2.5.75,2.57a3.7,3.7,0,0,0,.7-2.57h1.5C195.82,420.11,195.06,422.16,193.6,422.16Z"/><path class="cls-7" d="M571.32,466.85h-62v-1.5c0-24.82,3.05-47.67,8-60.22a17.67,17.67,0,1,1,23-26.22,17.67,17.67,0,1,1,23,26.22c4.95,12.55,8,35.4,8,60.22Zm-59-3h56c-.12-24.69-3.27-47.12-8.26-58.78l-.55-1.27,1.23-.65a14.67,14.67,0,1,0-19.18-20.89l-1.26,2-1.26-2a14.67,14.67,0,1,0-19.18,20.89l1.23.65-.55,1.27C515.54,416.73,512.4,439.16,512.28,463.85Zm28-23.29-1.49-10.67c-1.46-10.49-3.53-19.07-6-24.82l-.55-1.27,1.23-.65a14.69,14.69,0,0,0,5.54-5.08l1.26-2,1.26,2a14.69,14.69,0,0,0,5.54,5.08l1.23.65-.55,1.27c-2.46,5.75-4.53,14.33-6,24.82Zm-4.22-35.43a89.09,89.09,0,0,1,4.22,15.37,89.09,89.09,0,0,1,4.22-15.37,18,18,0,0,1-4.22-3.71A18,18,0,0,1,536.08,405.13Z"/><polygon class="cls-7" points="524.67 378.95 523.25 378.95 523.25 383.66 524.67 383.66 524.67 378.95 524.67 378.95"/><polygon class="cls-7" points="528.07 378.95 526.66 378.95 526.66 383.66 528.07 383.66 528.07 378.95 528.07 378.95"/><path class="cls-7" d="M525.61,390.48c-1.46,0-2.22-2-2.22-4.06h1.5c0,1.6.54,2.5.74,2.57a3.62,3.62,0,0,0,.71-2.57h1.5C527.84,388.44,527.08,390.48,525.61,390.48Z"/><polygon class="cls-7" points="551 378.13 549.59 378.13 549.59 382.84 551 382.84 551 378.13 551 378.13"/><polygon class="cls-7" points="554.41 378.13 552.99 378.13 552.99 382.84 554.41 382.84 554.41 378.13 554.41 378.13"/><path class="cls-7" d="M552,389.66c-1.46,0-2.23-2.05-2.23-4.07h1.5c0,1.6.54,2.5.75,2.57a3.7,3.7,0,0,0,.7-2.57h1.5C554.17,387.61,553.41,389.66,552,389.66Z"/><path class="cls-7" d="M415.71,466.85H380.9v-1.5c0-24.83,3.06-47.67,8-60.22a17.68,17.68,0,1,1,18.8,0c5,12.55,8,35.4,8,60.22Zm-31.8-3h28.8c-.12-24.69-3.27-47.11-8.26-58.78l-.55-1.27,1.23-.65a14.68,14.68,0,1,0-13.64,0l1.23.65-.55,1.27C387.17,416.73,384,439.16,383.91,463.85Z"/><polygon class="cls-7" points="396.45 381.21 395.04 381.21 395.04 385.92 396.45 385.92 396.45 381.21 396.45 381.21"/><polygon class="cls-7" points="399.86 381.21 398.45 381.21 398.45 385.92 399.86 385.92 399.86 381.21 399.86 381.21"/><path class="cls-7" d="M397.4,392.74c-1.46,0-2.22-2.05-2.22-4.07h1.5c0,1.6.54,2.5.74,2.57a3.62,3.62,0,0,0,.71-2.57h1.5C399.63,390.69,398.86,392.74,397.4,392.74Z"/><rect class="cls-7" x="421.95" y="393.67" width="32.63" height="3"/><rect class="cls-7" x="421.95" y="412.92" width="32.63" height="3"/><rect class="cls-7" x="421.95" y="435.04" width="32.63" height="3"/><path class="cls-7" d="M468.78,466.85H412.71v-1.5c0-25.28-3.17-48.38-8.26-60.28l-.55-1.27,1.23-.65a14.66,14.66,0,0,0,1-25.37L401.82,375h67Zm-53.07-3h50.07V378H411.14a17.65,17.65,0,0,1-3.43,27.11C412.56,417.42,415.59,439.61,415.71,463.85Z"/><path class="cls-7" d="M695,451.62h-80.5V400.09h5.12V387.71h17.55v12.38H695Zm-77.5-3H692V403.09H634.16V390.71H622.61v12.38h-5.12Z"/><path class="cls-7" d="M654.74,444a16.86,16.86,0,1,1,16.86-16.86A16.88,16.88,0,0,1,654.74,444Zm0-30.72a13.86,13.86,0,1,0,13.86,13.86A13.88,13.88,0,0,0,654.74,413.29Z"/><polygon class="cls-7" points="653.74 419.23 652.33 419.23 652.33 423.94 653.74 423.94 653.74 419.23 653.74 419.23"/><polygon class="cls-7" points="657.14 419.23 655.73 419.23 655.73 423.94 657.14 423.94 657.14 419.23 657.14 419.23"/><path class="cls-7" d="M654.69,430.77c-1.46,0-2.23-2-2.23-4.07H654c0,1.6.54,2.5.75,2.57a3.7,3.7,0,0,0,.7-2.57h1.5C656.91,428.72,656.15,430.77,654.69,430.77Z"/><polygon class="cls-7" points="284 407.91 282.59 407.91 282.59 412.62 284 412.62 284 407.91 284 407.91"/><polygon class="cls-7" points="287.41 407.91 286 407.91 286 412.62 287.41 412.62 287.41 407.91 287.41 407.91"/><path class="cls-7" d="M285,419.44c-1.46,0-2.22-2-2.22-4.07h1.5c0,1.61.53,2.51.74,2.58a3.64,3.64,0,0,0,.71-2.58h1.5C287.18,417.4,286.41,419.44,285,419.44Z"/><path class="cls-7" d="M308.91,455.67a36,36,0,1,1,36-36A36,36,0,0,1,308.91,455.67Zm0-69a33,33,0,1,0,33,33A33,33,0,0,0,308.91,386.67Z"/><rect class="cls-7" x="307.41" y="392.4" width="3" height="27.91"/><rect class="cls-7" x="302.13" y="405.53" width="3" height="15.73" transform="translate(-189.68 272.95) rotate(-37.81)"/><path class="cls-7" d="M770,455.67h0a36,36,0,0,1,0-72h0a36,36,0,0,1,36,36h0a36,36,0,0,1-36,36Zm0-69a33,33,0,0,0,0,66h0a33,33,0,1,0,0-66Z"/><polygon class="cls-7" points="743.23 407.17 743.23 411.88 744.64 411.88 744.64 407.17 743.23 407.17 743.23 407.17"/><polygon class="cls-7" points="746.64 407.17 746.63 411.88 748.05 411.88 748.05 407.17 746.64 407.17 746.64 407.17"/><path class="cls-7" d="M745.59,418.71c-1.46,0-2.23-2-2.23-4.07h1.5c0,1.6.54,2.5.75,2.57a3.68,3.68,0,0,0,.71-2.57h1.5C747.81,416.66,747.05,418.71,745.59,418.71Z"/><rect class="cls-7" x="768.47" y="392.4" width="3" height="27.91"/><rect class="cls-7" x="763.19" y="405.53" width="3" height="15.73" transform="translate(-92.91 555.42) rotate(-37.8)"/><path class="cls-7" d="M767.76,444.47,784.29,420H774.05l16-23.48L787.49,412l14,1.08ZM777.83,418h10.23l-8.84,13.09,17.59-16.38-11.64-.9,1.42-8.68Z"/><polygon class="cls-7" points="897.56 450.62 896.65 440.1 905.36 443.89 897.56 450.62"/><path class="cls-7" d="M903.93,444.8l-6.79-2.9,25.32-54.21,6.14,2.61Zm-2.76-4.44,1.24.52,22.19-49-.65-.27Z"/><polygon class="cls-7" points="898.53 451.36 838.74 451.36 838.74 387.98 922.82 387.98 922.82 390.98 841.74 390.98 841.74 448.36 898.53 448.36 898.53 451.36"/><polygon class="cls-7" points="847.09 396.96 845.68 396.96 845.68 401.67 847.09 401.67 847.09 396.96 847.09 396.96"/><polygon class="cls-7" points="850.5 396.96 849.08 396.96 849.08 401.67 850.5 401.67 850.5 396.96 850.5 396.96"/><path class="cls-7" d="M848,408.5c-1.46,0-2.23-2.05-2.23-4.07h1.5c0,1.6.54,2.5.75,2.57a3.7,3.7,0,0,0,.7-2.57h1.5C850.26,406.45,849.5,408.5,848,408.5Z"/><path class="cls-7" d="M985.09,421.31,951.57,399l33.52-23.47v18.11h8.15c.76,0,18.53.11,24.37,1.08,6.1,1,10.6,3.8,12.21,6s1.5,8.28,1.14,10c-.31,1.48-.59,2.77-1.91,2.9-.57.06-1.36-.13-1.9-1.38-.09-.22-.18-.47-.27-.77a6.57,6.57,0,0,0-2.84-3.79,14.49,14.49,0,0,0-5.93-2.77l-.87-.23c-1.66-.46-13-.71-18.36-.71H985.09ZM956.89,399l25.2,16.74V401h16.79c.16,0,16.43.06,19.16.82l.82.22a17.23,17.23,0,0,1,7,3.28,13.14,13.14,0,0,1,2.32,2.2c0-2-.33-4.36-.76-5-1-1.37-4.7-3.88-10.29-4.8s-23.7-1-23.89-1H982.09V381.33Z"/><path class="cls-7" d="M1013.27,463.87V445.65h-7.6c-.72,0-17.48-.11-23-1.07-5.78-1-10-3.83-11.57-6s-1.4-8.23-1.07-9.91c.3-1.5.56-2.79,1.89-2.92.58-.06,1.37.15,1.88,1.41a6.36,6.36,0,0,1,.25.77,6.64,6.64,0,0,0,2.68,3.79,13.16,13.16,0,0,0,5.54,2.75l.83.23c1.55.46,12.21.7,17.25.7h12.92V417.93L1045,440.29Zm1.5-21.22h1.5V457.9l23.61-17.54-23.61-16.65v14.67h-15.92c-.15,0-15.5-.06-18.1-.82l-.78-.22a16,16,0,0,1-6.62-3.3,13,13,0,0,1-2-2c0,2,.32,4.2.72,4.77,1,1.37,4.4,3.86,9.63,4.78s22.32,1,22.49,1Z"/><polygon class="cls-7" points="971.51 393.09 970.1 393.09 970.1 397.8 971.51 397.8 971.51 393.09 971.51 393.09"/><polygon class="cls-7" points="974.91 393.09 973.5 393.09 973.5 397.8 974.91 397.8 974.91 393.09 974.91 393.09"/><path class="cls-7" d="M972.46,404.62c-1.46,0-2.23-2-2.23-4.07h1.5c0,1.61.54,2.51.75,2.58a3.71,3.71,0,0,0,.7-2.58h1.5C974.68,402.58,973.92,404.62,972.46,404.62Z"/><path class="cls-7" d="M124.7,597.54H32.91L78.81,518Zm-86.6-3h81.41L78.81,524Z"/><path class="cls-7" d="M86.53,577.44H71.08V538.38H86.53Zm-12.45-3h9.45V541.38H74.08Z"/><path class="cls-7" d="M86,593.3H71.61V578.91H86Zm-11.39-3H83v-8.39H74.61Z"/><polygon class="cls-7" points="77.4 542.65 75.4 542.65 75.4 549.32 77.4 549.32 77.4 542.65 77.4 542.65"/><polygon class="cls-7" points="82.21 542.65 80.21 542.65 80.21 549.32 82.21 549.32 82.21 542.65 82.21 542.65"/><path class="cls-7" d="M81.82,557.91h-2c0-2.26-.77-3.62-1.09-3.7-.31.08-1.08,1.44-1.08,3.7h-2c0-2.83,1.06-5.7,3.09-5.7S81.82,555.08,81.82,557.91Z"/><path class="cls-7" d="M201.34,597.76a32.58,32.58,0,0,1-29.67-46.06l.82-1.81,1.87,1.56.14.26a9.81,9.81,0,0,0,17.56-1.62c1.52-4.39.24-9.46-3-12.05l-.24-.18-.15-.26-.25-.44-.94-1.51,1.65-.67a32.28,32.28,0,0,1,12.25-2.39,32.59,32.59,0,0,1,0,65.17Zm-27.92-42.38a29.23,29.23,0,0,0-1.67,9.79A29.6,29.6,0,1,0,192.29,537a14.18,14.18,0,0,1,2.6,14.06,12.91,12.91,0,0,1-21.47,4.31Z"/><path class="cls-7" d="M185.94,558.53l-13.35-7-13.35,7,2.55-14.86L151,533.14,165.91,531l6.68-13.53L179.26,531l14.93,2.17-10.8,10.53Zm-13.35-10.4,9.37,4.92-1.79-10.43,7.58-7.39-10.48-1.52-4.68-9.49-4.69,9.49-10.47,1.52,7.58,7.39-1.79,10.43Z"/><polygon class="cls-7" points="201.1 540.35 199.69 540.35 199.69 545.06 201.1 545.06 201.1 540.35 201.1 540.35"/><polygon class="cls-7" points="204.5 540.35 203.09 540.35 203.09 545.06 204.5 545.06 204.5 540.35 204.5 540.35"/><path class="cls-7" d="M202.05,551.88c-1.47,0-2.23-2-2.23-4.07h1.5c0,1.61.54,2.5.74,2.58a3.66,3.66,0,0,0,.71-2.58h1.5C204.27,549.84,203.51,551.88,202.05,551.88Z"/><path class="cls-7" d="M304.67,601.75l-1-.13c-.58-.07-1.17-.16-1.75-.26l-.89-.15-.28-.86a10.18,10.18,0,0,0-10.24-7.23,11.53,11.53,0,0,0-4.94,1l-.78.37L284,594l-.27-.2-.8-.59,0-.82a12,12,0,0,0-3-8.95,10.43,10.43,0,0,0-7.76-3.18h-.87l-.42-.76c-.19-.34-.37-.69-.55-1l-.57-1.12.43-.72a12.86,12.86,0,0,0,1.24-10.11,10.31,10.31,0,0,0-5.26-6.56l-.82-.41v-1.05a2.62,2.62,0,0,1,0-.28c0-.16,0-.31,0-.47l0-1.18.81-.4a10.39,10.39,0,0,0,5.25-6.52,12.86,12.86,0,0,0-1.17-10.06l-.42-.72.38-.74c.11-.22.23-.43.35-.64l.61-1.1,1.07,0h0a10.41,10.41,0,0,0,7.8-3.11,12,12,0,0,0,3.06-8.92l-.11-2,2,.5a12.38,12.38,0,0,0,3,.37,10.24,10.24,0,0,0,10-6.65l.28-.74,1-.24a4.7,4.7,0,0,1,.51-.12l1-.22.57.86a11.1,11.1,0,0,0,17.55.46l.62-.82,2.28.64.16.92c.77,4.36,4,9,10.69,9a11.86,11.86,0,0,0,4.24-.75l.86-.33.68.62.38.36.85.81-.23.87a12.76,12.76,0,0,0,1.72,10.5,10.06,10.06,0,0,0,7.77,4.19l1,.06.77,2.24-.64.66a12.14,12.14,0,0,0-3.09,9.71,11,11,0,0,0,4.65,8.17l.79.53-.14,1c-.05.32-.11.63-.17.95l-.23,1.25-1,.2a9.85,9.85,0,0,0-7,5.33,13,13,0,0,0-.23,11.05l.38.83-.57.71c-.24.31-.49.61-.74.91l-.84,1-.95-.3a12.25,12.25,0,0,0-3.63-.52c-7.37,0-10.78,5.56-10.89,11.08v1l-.92.37-.84.32-1.24.46-.69-.78a10.34,10.34,0,0,0-8.13-3.46,10.17,10.17,0,0,0-9.51,5.51Zm-14.2-11.63a13.18,13.18,0,0,1,12.68,8.19,13.25,13.25,0,0,1,11.51-6,13.61,13.61,0,0,1,9,3.09c.86-6.13,5.27-12.07,13.73-12.07a15.64,15.64,0,0,1,3.09.3,16.08,16.08,0,0,1,.82-12.33,12.86,12.86,0,0,1,7.37-6.44,14.43,14.43,0,0,1-4.55-9.26,15.58,15.58,0,0,1,2.46-10.33,12.7,12.7,0,0,1-7.72-5.1A15.47,15.47,0,0,1,336.31,529a15.6,15.6,0,0,1-3.51.39,13.26,13.26,0,0,1-13-9.09,13.6,13.6,0,0,1-9.33,3.41,13.39,13.39,0,0,1-10.29-4.37,13.06,13.06,0,0,1-12.07,6.94,14.91,14.91,0,0,1-1.9-.12,14.78,14.78,0,0,1-3.87,9.27,13.06,13.06,0,0,1-8.7,4,16.12,16.12,0,0,1,.78,11.13,13.56,13.56,0,0,1-5.42,7.57,13.56,13.56,0,0,1,5.44,7.63,16.08,16.08,0,0,1-1.07,11.63,13.08,13.08,0,0,1,8.87,4.08,14.73,14.73,0,0,1,3.8,9.34A15,15,0,0,1,290.47,590.12Z"/><polygon class="cls-7" points="293.09 540.82 291.67 540.82 291.67 545.53 293.09 545.53 293.09 540.82 293.09 540.82"/><polygon class="cls-7" points="296.49 540.82 295.08 540.82 295.08 545.53 296.49 545.53 296.49 540.82 296.49 540.82"/><path class="cls-7" d="M294,552.35c-1.46,0-2.22-2.05-2.22-4.07h1.5c0,1.6.54,2.5.74,2.57a3.62,3.62,0,0,0,.71-2.57h1.5C296.26,550.3,295.49,552.35,294,552.35Z"/><path class="cls-7" d="M308.91,592.71a34.17,34.17,0,1,1,34.17-34.17A34.2,34.2,0,0,1,308.91,592.71Zm0-65.33a31.17,31.17,0,1,0,31.17,31.16A31.2,31.2,0,0,0,308.91,527.38Z"/><path class="cls-7" d="M424.7,535.05h-.48a1.5,1.5,0,0,1,0-3h.47c9.64,0,17.24-.38,22.06-.84-4.82-.47-12.42-.85-22.06-.85h-.41a1.5,1.5,0,0,1,0-3h.41c7.75,0,15,.25,20.51.69,8.46.69,9.83,1.5,9.83,3.16s-1.37,2.46-9.83,3.15C439.73,534.81,432.44,535.05,424.7,535.05Zm27.8-2.87h0Z"/><rect class="cls-7" x="432.68" y="543.88" width="17.85" height="3"/><rect class="cls-7" x="432.68" y="550.22" width="17.85" height="3"/><rect class="cls-7" x="442.59" y="538.18" width="3" height="20.74"/><rect class="cls-7" x="436.84" y="538.18" width="3" height="20.74"/><polygon class="cls-7" points="402.44 578.51 401.1 578.51 401.1 583.42 402.44 583.42 402.44 578.51 402.44 578.51"/><polygon class="cls-7" points="405.67 578.51 404.33 578.51 404.33 583.42 405.67 583.42 405.67 578.51 405.67 578.51"/><path class="cls-7" d="M403.34,590.5c-1.48,0-2.15-2.18-2.15-4.21h1.5a4.34,4.34,0,0,0,.65,2.68,4.34,4.34,0,0,0,.65-2.68h1.5C405.49,588.32,404.81,590.5,403.34,590.5Z"/><path class="cls-7" d="M412.77,534.84h-.06c-18.34-.68-18.34-2.18-18.34-3.63s0-3,18.32-3.64a1.5,1.5,0,0,1,.11,3c-4.44.17-7.77.4-10.21.64,2.44.24,5.78.47,10.24.63a1.5,1.5,0,0,1-.06,3Z"/><path class="cls-7" d="M453.54,602.39H395.87a1.5,1.5,0,0,1-1.5-1.5V532.68a1.5,1.5,0,0,1,3,0v66.71H452V532.68a1.5,1.5,0,0,1,3,0v68.21A1.5,1.5,0,0,1,453.54,602.39Z"/><path class="cls-7" d="M418.36,572,403.71,547.3H414.6v-5.12c0-.52.06-12.74.62-16.77.31-2.19,1.31-7.44,3.93-8.84a12.11,12.11,0,0,1,4.73-1.52l.36,0c2.75-.4,4.74-.69,5.24.92s-1.11,2.36-3.13,3.37a6.71,6.71,0,0,0-2.57,2.13,5.1,5.1,0,0,0-1.35,3.19c-.05.4-.11.79-.19,1.16-.26,1.07-.41,8.73-.41,12.54v9h10.43ZM409,550.3,418.29,566l8.83-15.67h-8.29v-12c0-.11,0-11.31.49-13.22.06-.29.1-.58.14-.88a8,8,0,0,1,2.1-4.8c.38-.42.68-.75,1-1a11.25,11.25,0,0,0-2,.85c-.49.26-1.76,2.28-2.37,6.61-.53,3.83-.59,16.23-.59,16.36v8.11Z"/><rect class="cls-7" x="653.24" y="536.86" width="3" height="13.54"/><rect class="cls-7" x="653.24" y="536.86" width="3" height="13.54"/><path class="cls-7" d="M639.84,568.07a23.75,23.75,0,1,1,23.75-23.75A23.78,23.78,0,0,1,639.84,568.07Zm0-44.5a20.75,20.75,0,1,0,20.75,20.75A20.78,20.78,0,0,0,639.84,523.57Z"/><rect class="cls-7" x="649.06" y="540.75" width="11.65" height="3"/><rect class="cls-7" x="649.06" y="544.89" width="11.65" height="3"/><polygon class="cls-7" points="625.24 532.39 623.9 532.39 623.9 537.3 625.24 537.3 625.24 532.39 625.24 532.39"/><polygon class="cls-7" points="628.47 532.39 627.13 532.39 627.13 537.3 628.47 537.3 628.47 532.39 628.47 532.39"/><path class="cls-7" d="M626.14,544.38c-1.48,0-2.15-2.18-2.15-4.21h1.5a4.36,4.36,0,0,0,.65,2.68,4.36,4.36,0,0,0,.65-2.68h1.5C628.29,542.2,627.61,544.38,626.14,544.38Z"/><polygon class="cls-7" points="687.79 597.04 650.36 564.37 652.33 562.11 687.7 592.98 689.83 590.96 658.95 554.16 661.25 552.23 693.93 591.18 687.79 597.04"/><path class="cls-7" d="M997.13,603.22l-1.2-.6A50.19,50.19,0,0,1,983,592.84a57,57,0,0,1-9.87-13.55,45.08,45.08,0,0,1-5-17.28,43.42,43.42,0,0,1,.29-9.52,49.3,49.3,0,0,1,1.93-8.15l-19.37-10,47.45-20.68,10.79,50.74-20.62-11.3a26.42,26.42,0,0,0-4,9.51,30.5,30.5,0,0,0,.16,12.39,45.94,45.94,0,0,0,4.86,12.83,43.88,43.88,0,0,0,8.65,11.29l1,.86ZM958,534.6,974,542.87l-.44,1.23a46.77,46.77,0,0,0-2.21,8.83,40.43,40.43,0,0,0-.27,8.85,42,42,0,0,0,4.68,16.13,53.64,53.64,0,0,0,9.34,12.83,55.87,55.87,0,0,0,6.58,5.75,53.64,53.64,0,0,1-4.72-7.17,48.49,48.49,0,0,1-5.18-13.67,33.52,33.52,0,0,1-.16-13.59,29.91,29.91,0,0,1,5.26-11.76l.78-1.08,17.23,9.44-8.67-40.74Z"/><path class="cls-7" d="M995.19,602.91l-.29-1.31a34.86,34.86,0,0,1-.4-11.28,39.41,39.41,0,0,1,3-11.26,31.15,31.15,0,0,1,7.14-10.31,29.76,29.76,0,0,1,5.27-4,34,34,0,0,1,4.88-2.4l-3.22-15.21,33,17-23.34,29-3-16.46a17.69,17.69,0,0,0-6.2,1.89,20.46,20.46,0,0,0-6.38,5.34,30.7,30.7,0,0,0-4.65,8,29.39,29.39,0,0,0-2.23,9.35l-.07,1.28ZM1017,558.6l1.19,5.64-1.23.44a32.51,32.51,0,0,0-5.58,2.61,26.94,26.94,0,0,0-4.75,3.64,28.25,28.25,0,0,0-6.45,9.32,36.36,36.36,0,0,0-2.74,10.41c-.09.85-.16,1.67-.2,2.47.25-.76.54-1.54.85-2.33a33.82,33.82,0,0,1,5.11-8.8,23.28,23.28,0,0,1,7.31-6.1,21,21,0,0,1,8.74-2.35l1.32-.08,2.33,12.67,16.94-21-24.1-12.44,1.24,5.86-1.47.31Z"/><polygon class="cls-7" points="1027.98 562.67 1026.57 562.67 1026.57 567.38 1027.98 567.38 1027.98 562.67 1027.98 562.67"/><polygon class="cls-7" points="1031.39 562.67 1029.98 562.67 1029.98 567.38 1031.39 567.38 1031.39 562.67 1031.39 562.67"/><path class="cls-7" d="M1028.93,574.2c-1.46,0-2.22-2-2.22-4.07h1.5a3.48,3.48,0,0,0,.74,2.58,3.66,3.66,0,0,0,.71-2.58h1.5C1031.16,572.16,1030.39,574.2,1028.93,574.2Z"/><path class="cls-7" d="M1085.79,571.47a12.93,12.93,0,1,1,12.93-12.93A12.94,12.94,0,0,1,1085.79,571.47Zm0-22.85a9.93,9.93,0,1,0,9.93,9.92A9.93,9.93,0,0,0,1085.79,548.62Z"/><path class="cls-7" d="M1114.14,571.47a12.93,12.93,0,1,1,12.92-12.93A12.94,12.94,0,0,1,1114.14,571.47Zm0-22.85a9.93,9.93,0,1,0,9.92,9.92A9.93,9.93,0,0,0,1114.14,548.62Z"/><path class="cls-7" d="M1142.49,571.47a12.93,12.93,0,1,1,12.92-12.93A12.94,12.94,0,0,1,1142.49,571.47Zm0-22.85a9.93,9.93,0,1,0,9.92,9.92A9.93,9.93,0,0,0,1142.49,548.62Z"/><polygon class="cls-7" points="1141.49 553.15 1140.08 553.15 1140.08 557.86 1141.49 557.86 1141.49 553.15 1141.49 553.15"/><polygon class="cls-7" points="1144.89 553.15 1143.48 553.15 1143.48 557.86 1144.89 557.86 1144.89 553.15 1144.89 553.15"/><path class="cls-7" d="M1142.44,564.68c-1.46,0-2.23-2-2.23-4.07h1.5c0,1.61.54,2.51.75,2.58a3.71,3.71,0,0,0,.7-2.58h1.5C1144.66,562.64,1143.9,564.68,1142.44,564.68Z"/><polygon class="cls-7" points="780.49 525.27 780.49 530.19 781.83 530.19 781.83 525.27 780.49 525.27 780.49 525.27"/><polygon class="cls-7" points="783.72 525.27 783.72 530.19 785.05 530.19 785.06 525.27 783.72 525.27 783.72 525.27"/><path class="cls-7" d="M782.72,537.27c-1.47,0-2.14-2.19-2.14-4.21h1.5a1.42,1.42,0,1,0,1.29,0h1.5C784.87,535.09,784.2,537.27,782.72,537.27Z"/><path class="cls-7" d="M788.67,599.39H776.84V546.53H758.93a2.91,2.91,0,0,1-2-5l23.84-23.24a2.92,2.92,0,0,1,4.07,0l23.83,23.25a2.92,2.92,0,0,1-2,5H788.68Zm-8.83-3h5.83V543.53H806.4l-23.63-23-23.63,23h20.71Z"/><path class="cls-7" d="M770.24,599.64H758.41V548.82h11.83Zm-8.83-3h5.83V551.82h-5.83Z"/><path class="cls-7" d="M756.24,599.64H744.41V559.81h11.83Zm-8.83-3h5.83V562.82h-5.83Z"/><path class="cls-7" d="M742.24,599.63H730.41V575.72h11.83Zm-8.83-3h5.83V578.72h-5.83Z"/><path class="cls-7" d="M176,718.83a23.75,23.75,0,1,1,23.75-23.75A23.78,23.78,0,0,1,176,718.83Zm0-44.5a20.75,20.75,0,1,0,20.75,20.75A20.78,20.78,0,0,0,176,674.33Z"/><rect class="cls-7" x="185.23" y="692.02" width="11.65" height="2"/><rect class="cls-7" x="185.23" y="696.15" width="11.65" height="2"/><rect class="cls-7" x="191.68" y="688.32" width="2" height="13.54"/><rect class="cls-7" x="187.92" y="688.32" width="2" height="13.54"/><polygon class="cls-7" points="161.41 683.15 160.07 683.15 160.07 688.06 161.41 688.06 161.41 683.15 161.41 683.15"/><polygon class="cls-7" points="164.64 683.15 163.3 683.15 163.3 688.06 164.64 688.06 164.64 683.15 164.64 683.15"/><path class="cls-7" d="M162.31,695.15c-1.48,0-2.15-2.19-2.15-4.22h1.5a4.31,4.31,0,0,0,.65,2.68,4.31,4.31,0,0,0,.65-2.68h1.5C164.46,693,163.79,695.15,162.31,695.15Z"/><polygon class="cls-7" points="223.97 747.81 186.53 715.13 188.5 712.88 223.88 743.75 226 741.72 195.12 704.92 197.42 703 230.11 741.95 223.97 747.81"/><path class="cls-7" d="M223.59,697.84l-8.73-8.73-8.71,8.72-11.39-11.39,8.71-8.72-8.69-8.7,11.38-11.38,8.7,8.69,8.72-8.71L235,669l-8.72,8.71,8.73,8.73Zm-8.73-13,8.73,8.73,7.15-7.15L222,677.72l8.71-8.71-7.14-7.15-8.72,8.72-8.7-8.7L199,669l8.7,8.7L199,686.44l7.15,7.14Z"/><polygon class="cls-7" points="307.97 700.76 306.63 700.76 306.63 705.67 307.97 705.67 307.97 700.76 307.97 700.76"/><polygon class="cls-7" points="311.19 700.76 309.86 700.76 309.86 705.67 311.19 705.67 311.19 700.76 311.19 700.76"/><path class="cls-7" d="M308.87,712.75c-1.48,0-2.15-2.18-2.15-4.21h1.5a4.34,4.34,0,0,0,.65,2.68,4.44,4.44,0,0,0,.64-2.68H311C311,710.57,310.34,712.75,308.87,712.75Z"/><path class="cls-7" d="M349.54,731.38H268.29V674.13h44.84l3.23,6.75h33.18Zm-78.25-3h75.25v-44.5H314.47l-3.23-6.75H271.29Z"/><path class="cls-7" d="M308.91,723.91l-15.4-15.4a10.15,10.15,0,1,1,14.36-14.36l1,1,1-1a10.15,10.15,0,1,1,14.36,14.36Zm-8.22-29.74a7.16,7.16,0,0,0-5.06,12.22l13.28,13.28,13.28-13.28a7.16,7.16,0,1,0-10.12-10.12l-3.16,3.16-3.16-3.16A7.12,7.12,0,0,0,300.69,694.17Z"/><polygon class="cls-7" points="431.59 668.5 430.25 668.5 430.25 673.41 431.59 673.41 431.59 668.5 431.59 668.5"/><polygon class="cls-7" points="434.82 668.5 433.48 668.5 433.48 673.41 434.82 673.41 434.82 668.5 434.82 668.5"/><path class="cls-7" d="M434.64,679.74h-1.5a4.36,4.36,0,0,0-.65-2.68,4.36,4.36,0,0,0-.65,2.68h-1.5c0-2,.67-4.21,2.15-4.21S434.64,677.71,434.64,679.74Z"/><path class="cls-7" d="M411,743.53l-19.59-.48V700.41h3.9l-5.93-5.93,8.71-8.72-8.7-8.7,11.39-11.39,8.7,8.7,8.71-8.71,4,4V662h37.22v33.29c-.2,1.6-.33,3.24-.45,4.83,0,.67-.1,1.34-.16,2-.11,1.31-.28,3-.58,4.76a57.57,57.57,0,0,1-2.57,10,47.26,47.26,0,0,1-4.52,9.28,27.85,27.85,0,0,1-2.15,3.12l-.72,1c-.41.52-.8.95-1.2,1.38l-.49.54-.52.57A14.82,14.82,0,0,1,444.8,734c-5.34,5.11-11,8.22-16.45,9a72.94,72.94,0,0,1-12.64.45Zm-16.59-3.4,16.59.4c.36,0,4.24-.12,4.76-.12a70.48,70.48,0,0,0,12.18-.42c4.81-.69,9.94-3.53,14.83-8.22l.08-.07a10.59,10.59,0,0,0,1-1c.18-.2.36-.4.55-.59l.48-.53c.35-.38.7-.76,1-1.17l.71-.95a29,29,0,0,0,2-2.88,45.12,45.12,0,0,0,4.27-8.77,53.74,53.74,0,0,0,2.42-9.44c.29-1.61.45-3.24.55-4.49.06-.66.11-1.32.16-2,.12-1.59.24-3.24.45-4.88V665H425.2v11.92l-7-7-8.71,8.71-8.7-8.69-7.14,7.14,8.69,8.7-8.71,8.72,7.14,7.14,8.72-8.71,8.73,8.73,6.74-6.74H445l-.3,3.16c-.05.55-.11,1.11-.19,1.67-.15,1-.34,2.12-.6,3.33-.07.33-.15.66-.22,1-.2.86-.42,1.67-.64,2.42a30.31,30.31,0,0,1-1.05,3,28.43,28.43,0,0,1-6.53,10.2,21.91,21.91,0,0,1-9.74,5.7,24.32,24.32,0,0,1-11.27.08l-1.18-.26V703.41H394.4Zm21.88-17.4a20.78,20.78,0,0,0,8.68-.28,19,19,0,0,0,8.4-4.93,25.7,25.7,0,0,0,5.86-9.18,27.94,27.94,0,0,0,.95-2.72c.21-.7.41-1.46.6-2.25l.21-.93c.24-1.14.42-2.17.56-3.13.06-.47.12-.95.17-1.41H426.18l-8,8L416.28,704Zm-10.07-22.32h6.52l-3.26-3.26Zm19-6.07-8.59-8.58,8.59-8.58Zm-4.34-8.58,1.34,1.34v-2.68Z"/><polygon class="cls-7" points="545.49 672.45 544.37 672.45 544.37 676.55 545.49 676.55 545.49 672.45 545.49 672.45"/><polygon class="cls-7" points="548.18 672.45 547.06 672.45 547.06 676.55 548.18 676.55 548.18 672.45 548.18 672.45"/><path class="cls-7" d="M546.24,682.6c-1.32,0-1.92-1.89-1.92-3.65h1.5a4.12,4.12,0,0,0,.42,2,4.24,4.24,0,0,0,.42-2h1.5C548.16,680.71,547.55,682.6,546.24,682.6Z"/><path class="cls-7" d="M528.49,739.79l-17.86-.44V700.51h22.78v20.2a18.63,18.63,0,0,0,7.66-.26A16.92,16.92,0,0,0,548.6,716a23,23,0,0,0,5.26-8.25,25,25,0,0,0,.87-2.45c.19-.67.37-1.34.53-2,.07-.28.13-.56.19-.84.22-1,.38-2,.5-2.82.06-.37.1-.74.14-1.11H538.47V665.78h33.94V696c-.19,1.45-.3,2.93-.41,4.37,0,.6-.09,1.21-.14,1.81h0c-.1,1.19-.25,2.75-.53,4.31a52.1,52.1,0,0,1-2.33,9,43.23,43.23,0,0,1-4.1,8.42,26.21,26.21,0,0,1-1.94,2.83l-.66.88c-.38.47-.74.87-1.1,1.26l-.44.48-.47.51a11.23,11.23,0,0,1-1.14,1.15c-4.84,4.64-10,7.47-14.94,8.17a67,67,0,0,1-11.45.41C532.32,739.68,528.49,739.79,528.49,739.79Zm-14.86-3.36,14.85.36s3.84-.11,4.3-.11a64.52,64.52,0,0,0,11-.38c4.32-.62,8.93-3.17,13.33-7.4l.08-.06a10.87,10.87,0,0,0,.88-.9l.49-.54.43-.47c.32-.34.64-.69.93-1s.41-.56.64-.86a24.89,24.89,0,0,0,1.78-2.59,40.7,40.7,0,0,0,3.85-7.9,49.5,49.5,0,0,0,2.19-8.52c.25-1.45.39-2.92.49-4h0c0-.6.09-1.19.14-1.79.11-1.44.22-2.93.41-4.42v-27H541.47v26.75H559.4l-.3,3c-.05.49-.1,1-.18,1.51-.13.94-.3,1.93-.54,3-.06.3-.13.6-.2.89-.18.77-.37,1.51-.58,2.2a28.16,28.16,0,0,1-1,2.7,25.89,25.89,0,0,1-5.93,9.28,20,20,0,0,1-8.87,5.18,22,22,0,0,1-10.26.08l-1.18-.26V703.51H513.63Z"/><path class="cls-7" d="M525.61,698.48h-8.34V684.77c0-.72,0-1.36,0-1.92,0-2.52,0-3.79.81-4.66s2.22-.89,4.89-.88h3.42v-2.55c0-.29,0-.54,0-.76v-.25c-.24,0-.58,0-.92,0l-1.16,0h-5.25a13.93,13.93,0,0,0-2.4.09,7.47,7.47,0,0,0,0,1.23v4.17h-7.94v-4.36c0-7.57.9-8.54,8.06-8.59h9.47c7.46,0,8.69.23,8.69,7.34v3.23c0,.64,0,1.22,0,1.74,0,2.66,0,3.87-.64,4.74s-1.93,1-4,1c-.87,0-2,0-3.27.09h-1.35Zm-6.34-2h4.34v-4.19h-4.34Zm0-7.39h4.34v-6.72h3.3c1.31-.07,2.42-.08,3.31-.09a6.61,6.61,0,0,0,2.48-.23c.25-.31.24-1.71.22-3.49,0-.52,0-1.1,0-1.75v-3.23c0-2.81-.11-4.23-.77-4.74s-2.7-.59-5.93-.6h-9.45c-6.07,0-6.07,0-6.07,6.59v2.36h3.94v-2.13c0-1.24,0-2.06.58-2.68s1.75-.69,3.86-.68h5.27l1.16,0c2,0,2.92.14,2.89,2.31,0,.2,0,.44,0,.71v2.2c0,.85,0,1.47-.51,1.94s-1.05.43-2,.43H523c-1.7,0-3.17,0-3.46.28s-.26,1.65-.24,3.23c0,.57,0,1.22,0,1.95Z"/><polygon class="cls-7" points="671.09 677.45 669.97 677.45 669.97 681.56 671.09 681.56 671.09 677.45 671.09 677.45"/><polygon class="cls-7" points="673.79 677.45 672.67 677.45 672.67 681.56 673.79 681.56 673.79 677.45 673.79 677.45"/><path class="cls-7" d="M671.84,687.6c-1.32,0-1.92-1.89-1.92-3.64h1.5a4.22,4.22,0,0,0,.42,2,4.19,4.19,0,0,0,.42-2h1.5C673.76,685.71,673.16,687.6,671.84,687.6Z"/><path class="cls-7" d="M654.09,744.79l-17.86-.44V705.51H659v20.2a18.63,18.63,0,0,0,7.66-.26,17,17,0,0,0,7.54-4.42,23.22,23.22,0,0,0,5.26-8.25,25,25,0,0,0,.86-2.45c.2-.66.37-1.34.53-2,.07-.28.13-.55.19-.84.22-1,.38-1.94.51-2.81.05-.38.09-.75.13-1.12H664.07V670.78H698V701c-.18,1.44-.3,2.92-.4,4.35l-.15,1.83c-.1,1.18-.25,2.74-.53,4.31a51.25,51.25,0,0,1-2.32,9,44.4,44.4,0,0,1-4.1,8.42,27.82,27.82,0,0,1-2,2.83l-.65.88c-.38.47-.74.87-1.11,1.26l-.43.48c-.19.19-.33.35-.47.51a11.35,11.35,0,0,1-1.15,1.15c-4.84,4.64-10,7.47-14.94,8.17a67,67,0,0,1-11.45.41C657.93,744.68,654.09,744.79,654.09,744.79Zm-14.86-3.36,14.85.36s3.84-.11,4.31-.11a64.59,64.59,0,0,0,11-.38c4.31-.62,8.92-3.17,13.32-7.39l.08-.07a9.48,9.48,0,0,0,.88-.9l.5-.54.43-.47c.31-.34.63-.69.92-1l.64-.86a25,25,0,0,0,1.79-2.59,40.72,40.72,0,0,0,3.84-7.9A48.71,48.71,0,0,0,694,711c.2-1.15.35-2.39.49-4h0c0-.6.1-1.21.14-1.81.11-1.44.23-2.92.41-4.4v-27H667.07v26.75H685l-.27,3c-.05.5-.11,1-.18,1.51-.14,1-.31,1.93-.55,3-.06.3-.13.6-.2.9-.17.76-.37,1.5-.57,2.19-.29,1-.62,1.88-1,2.71a25.94,25.94,0,0,1-5.93,9.27,19.86,19.86,0,0,1-8.87,5.18,22,22,0,0,1-10.26.08l-1.18-.26V708.51H639.23Z"/><path class="cls-7" d="M661.74,701.17l-5.58-.23a17.59,17.59,0,0,1-10.8-4.42,19.22,19.22,0,0,1-2.79-3H611.46V660.73h41.25v31.1l.06.29c0,.09.06.24.1.39s.07.32.09.4a8.21,8.21,0,0,0,4.07,5.26ZM614.46,690.5h29.66l.45.64a16.69,16.69,0,0,0,2.76,3.12,15.2,15.2,0,0,0,4,2.56,13.91,13.91,0,0,1-1.28-3h0c0-.1-.09-.36-.15-.61s-.07-.27-.08-.32l-.16-.88V663.73H614.46Z"/><polygon class="cls-7" points="767.84 670.04 766.59 670.04 766.59 674.65 767.84 674.65 767.84 670.04 767.84 670.04"/><polygon class="cls-7" points="770.87 670.04 769.61 670.04 769.61 674.65 770.87 674.65 770.87 670.04 770.87 670.04"/><path class="cls-7" d="M768.69,681.33c-1.42,0-2.06-2.07-2.06-4h1.5a4.2,4.2,0,0,0,.56,2.43,4.28,4.28,0,0,0,.56-2.43h1.5C770.75,679.26,770.1,681.33,768.69,681.33Z"/><path class="cls-7" d="M768.73,737.57,749,706.64c-.73-1.13-1.36-2-1.77-2.57-3.8-5.14-8.1-11-8.1-18.32,0-14.72,13.28-26.69,29.62-26.69s29.62,12,29.62,26.69c0,6.4-3.25,11.14-6.69,16.16-.5.72-1,1.45-1.49,2.19-.39.58-.71,1.06-1,1.43l-.09.16h0l0,0h0Zm0-75.51c-14.68,0-26.62,10.63-26.62,23.69,0,6.38,3.81,11.54,7.51,16.53.43.59,1.11,1.54,1.88,2.73l17.23,27,18.59-29.12,0,0,.32-.47c.5-.75,1-1.48,1.5-2.21,3.31-4.83,6.17-9,6.17-14.47C795.35,672.69,783.41,662.06,768.73,662.06Z"/><path class="cls-7" d="M768.46,704a20.07,20.07,0,1,1,20.06-20.07A20.09,20.09,0,0,1,768.46,704Zm0-37.14a17.07,17.07,0,1,0,17.06,17.07A17.09,17.09,0,0,0,768.46,666.87Z"/><path class="cls-7" d="M770,746.46c-9,0-17.47-.3-23.85-.85-10.42-.9-11.2-2-11.2-3.53s.78-2.64,11.2-3.54c6.38-.55,14.84-.85,23.85-.85s17.47.3,23.84.85c10.42.9,11.2,2,11.2,3.54s-.78,2.63-11.2,3.53C787.44,746.16,779,746.46,770,746.46Zm-28.58-4.38a296.53,296.53,0,0,0,57.15,0c-5.18-.73-15.16-1.39-28.57-1.39S746.57,741.35,741.39,742.08Z"/><polygon class="cls-7" points="82.15 665.71 80.81 665.71 80.81 670.62 82.15 670.62 82.15 665.71 82.15 665.71"/><polygon class="cls-7" points="85.37 665.71 84.03 665.71 84.03 670.62 85.37 670.62 85.37 665.71 85.37 665.71"/><path class="cls-7" d="M83,677.7c-1.47,0-2.15-2.18-2.15-4.21h1.5a4.36,4.36,0,0,0,.65,2.68,4.36,4.36,0,0,0,.65-2.68h1.5C85.19,675.52,84.52,677.7,83,677.7Z"/><path class="cls-7" d="M71.19,751.33,47.75,727.49l15-18.11,11,12.75a96.93,96.93,0,0,0,11.87-13.58,33.42,33.42,0,0,0,6-19.15l-18.72.11-.08-34.82h36.4v13.25c0,.2.3,6.58,0,12.14-.1,1.95-.17,4.07-.23,6.3-.3,10-.64,21.3-4.82,29.29-3.16,6.05-13.55,17.7-18,22.68-1,1.06-1.76,2-1.93,2.19-1.09,1.4-9.46,8-12,10Zm-19.4-24,19.66,20c4.84-3.81,9.84-7.88,10.42-8.61.22-.3.82-1,2.06-2.36,4.36-4.89,14.57-16.35,17.56-22.06,3.86-7.39,4.2-18.82,4.48-28,.07-2.25.13-4.38.24-6.37.29-5.41,0-11.84,0-11.91V657.69H75.82l.07,28.81,18.5-.12.14,1.36a35.77,35.77,0,0,1-6.42,22.55,98.32,98.32,0,0,1-13.45,15.12l-1.13,1L62.81,714Z"/><polygon class="cls-7" points="855.91 694.12 854.79 694.12 854.79 698.22 855.91 698.22 855.91 694.12 855.91 694.12"/><polygon class="cls-7" points="858.61 694.12 857.49 694.12 857.49 698.22 858.61 698.22 858.61 694.12 858.61 694.12"/><path class="cls-7" d="M856.66,704.26c-1.32,0-1.92-1.88-1.92-3.64h1.5a1.06,1.06,0,1,0,.84,0h1.5C858.58,702.38,858,704.26,856.66,704.26Z"/><path class="cls-7" d="M916.67,741H851l-15.14-56.64h95Zm-63.35-3h61l12.74-50.64H839.79Z"/><polygon class="cls-7" points="899.67 685.83 896.67 685.83 896.67 667.55 868.17 667.55 868.17 685.83 865.17 685.83 865.17 664.55 899.67 664.55 899.67 685.83"/><polygon class="cls-7" points="1014.67 680.54 1013.55 680.54 1013.55 684.64 1014.67 684.64 1014.67 680.54 1014.67 680.54"/><polygon class="cls-7" points="1017.37 680.54 1016.25 680.54 1016.25 684.64 1017.37 684.64 1017.37 680.54 1017.37 680.54"/><path class="cls-7" d="M1015.42,690.68c-1.32,0-1.92-1.88-1.92-3.64h1.5a4.24,4.24,0,0,0,.42,2,4.12,4.12,0,0,0,.42-2h1.5C1017.34,688.8,1016.74,690.68,1015.42,690.68Z"/><path class="cls-7" d="M996.05,747.53l-17.87-.43V708.26H1001v20.2a18.84,18.84,0,0,0,7.67-.27,17,17,0,0,0,7.53-4.42,22.86,22.86,0,0,0,5.26-8.25,24.3,24.3,0,0,0,.86-2.45c.2-.66.38-1.34.54-2,.06-.28.13-.57.19-.85.21-1,.38-1.94.5-2.81.06-.37.1-.75.14-1.11H1006V673.52H1040v30.27c-.19,1.43-.3,2.91-.41,4.34,0,.61-.09,1.22-.14,1.83-.1,1.19-.26,2.76-.53,4.32a52.22,52.22,0,0,1-2.33,9,43.63,43.63,0,0,1-4.1,8.43,27.11,27.11,0,0,1-1.94,2.82l-.66.88c-.38.48-.74.87-1.1,1.27l-.44.47c-.18.2-.32.36-.47.51a12.41,12.41,0,0,1-1.14,1.16c-4.85,4.63-10,7.46-14.94,8.17a67.12,67.12,0,0,1-11.46.4C999.88,747.42,996.05,747.53,996.05,747.53Zm-14.87-3.36,14.86.36s3.84-.11,4.3-.11a63.56,63.56,0,0,0,11-.37c4.32-.62,8.93-3.18,13.33-7.4l.08-.07a10.87,10.87,0,0,0,.88-.9c.16-.18.32-.36.49-.53l.43-.47c.32-.35.63-.69.93-1.06l.64-.86a24.89,24.89,0,0,0,1.78-2.59,41,41,0,0,0,3.85-7.9,48.74,48.74,0,0,0,2.18-8.51c.26-1.45.4-2.92.5-4h0c0-.6.09-1.2.14-1.81.11-1.44.22-2.92.41-4.4v-27H1009v26.76h17.9l-.27,3c-.05.5-.11,1-.18,1.52-.13.94-.31,1.93-.54,3-.06.3-.13.6-.2.9-.18.77-.37,1.51-.58,2.2-.29,1-.61,1.87-1,2.7a25.87,25.87,0,0,1-5.94,9.27,19.87,19.87,0,0,1-8.87,5.19,22.13,22.13,0,0,1-10.25.07l-1.19-.25V711.26H981.18Z"/><path class="cls-7" d="M997.83,705.1l-3.3-.4,0-1.28a24.78,24.78,0,0,0-1.76-7.92,26.29,26.29,0,0,0-3.8-6.83,17.31,17.31,0,0,0-5.28-4.57,14.84,14.84,0,0,0-5-1.65l-2.86,14.23-19.92-25.59,29-14.35-3,13.18a28.13,28.13,0,0,1,4,2.05,25.6,25.6,0,0,1,4.46,3.53,27,27,0,0,1,6,9,34,34,0,0,1,2.38,9.68,29.83,29.83,0,0,1-.51,9.67Zm-21.56-25.88,1.32.1a18,18,0,0,1,7.5,2.15,20.32,20.32,0,0,1,6.2,5.35,29.29,29.29,0,0,1,4.25,7.61l.16.45c0-.16,0-.31,0-.47a30.59,30.59,0,0,0-2.16-8.81,24,24,0,0,0-5.32-8,22.67,22.67,0,0,0-3.94-3.12,26.41,26.41,0,0,0-4.68-2.29l-1.22-.46,2.18-9.54-20,9.92,13.65,17.53Z"/><polygon class="cls-7" points="1130.98 673.72 1129.86 673.72 1129.86 677.83 1130.98 677.83 1130.98 673.72 1130.98 673.72"/><polygon class="cls-7" points="1133.67 673.72 1132.55 673.72 1132.55 677.83 1133.67 677.83 1133.67 673.72 1133.67 673.72"/><path class="cls-7" d="M1131.73,683.87c-1.32,0-1.92-1.89-1.92-3.65h1.5a4.12,4.12,0,0,0,.42,2,4.24,4.24,0,0,0,.42-2h1.5C1133.65,682,1133,683.87,1131.73,683.87Z"/><path class="cls-7" d="M1113.06,739.79l-17.86-.44V700.51H1118v20.2a18.46,18.46,0,0,0,7.66-.27,17,17,0,0,0,7.54-4.41,23.26,23.26,0,0,0,5.26-8.26,25,25,0,0,0,.86-2.45c.2-.66.37-1.34.54-2l.18-.84c.22-1,.39-2,.51-2.82,0-.37.1-.75.14-1.11H1123V665.77h34l0,30.27c-.18,1.43-.29,2.91-.4,4.34,0,.61-.09,1.23-.15,1.84-.1,1.19-.25,2.75-.53,4.31a51.71,51.71,0,0,1-2.32,9,43.81,43.81,0,0,1-4.1,8.42,26.3,26.3,0,0,1-2,2.83l-.65.87c-.38.48-.74.88-1.11,1.27l-.43.48-.47.51a13.69,13.69,0,0,1-1.14,1.15c-4.85,4.64-10,7.46-15,8.17a66.94,66.94,0,0,1-11.45.4C1116.9,739.67,1113.06,739.79,1113.06,739.79Zm-14.86-3.37,14.85.37s3.84-.12,4.31-.12a63.56,63.56,0,0,0,11-.37c4.32-.62,8.93-3.18,13.33-7.4l.07-.07a8.41,8.41,0,0,0,.88-.9c.17-.18.33-.36.5-.53l.43-.47c.31-.35.63-.69.93-1.06s.4-.55.63-.85a24.54,24.54,0,0,0,1.79-2.59,40.54,40.54,0,0,0,3.84-7.91,48.25,48.25,0,0,0,2.19-8.51c.26-1.44.4-2.92.49-4h0c.06-.6.1-1.2.15-1.81.11-1.44.22-2.92.41-4.4v-27h-28v26.76H1144l-.27,3c0,.49-.11,1-.18,1.51-.13.94-.31,1.93-.54,3-.07.31-.13.6-.2.9-.18.77-.38,1.51-.58,2.2a27.35,27.35,0,0,1-1,2.7,26,26,0,0,1-5.93,9.28,19.9,19.9,0,0,1-8.87,5.18,22.17,22.17,0,0,1-10.26.08l-1.18-.26V703.51H1098.2Z"/><path class="cls-7" d="M1117.16,699.13l-30.86-10,12.39-7.56a14.6,14.6,0,0,0-3.24-4.1,17.32,17.32,0,0,0-6.11-3.4,26.13,26.13,0,0,0-7.73-1.24,24.53,24.53,0,0,0-8,1.06l-1.22.4-1.5-3,1.12-.74a29.76,29.76,0,0,1,8.9-3.79,33.65,33.65,0,0,1,9.92-1.07,26.66,26.66,0,0,1,10.45,2.55,25.32,25.32,0,0,1,4.86,3,28.9,28.9,0,0,1,3.28,3l11.35-7.34Zm-23.72-10.8,21.15,6.82,2.46-22.19-8.21,5.31-.85-1a27.05,27.05,0,0,0-3.75-3.61A22.79,22.79,0,0,0,1100,671a23.88,23.88,0,0,0-9.29-2.27,30.6,30.6,0,0,0-9,1l-.44.11h.47a29,29,0,0,1,8.61,1.39,20.42,20.42,0,0,1,7.16,4,18.3,18.3,0,0,1,4.58,6.31l.54,1.21Z"/><polygon class="cls-7" points="996.93 245.01 994.93 245.01 994.93 251.07 996.93 251.07 996.93 245.01 996.93 245.01"/><polygon class="cls-7" points="1001.75 245.01 999.75 245.01 999.75 251.07 1001.75 251.07 1001.75 245.01 1001.75 245.01"/><path class="cls-7" d="M998.27,261.27c-2,0-3.09-2.87-3.09-5.7h2c0,2.26.77,3.62,1.1,3.7.31-.08,1.07-1.44,1.07-3.7h2C1001.35,258.4,1000.29,261.27,998.27,261.27Z"/><path class="cls-7" d="M998.34,331.45a6.42,6.42,0,0,1-6.42-6.41V264.88a13.69,13.69,0,1,1,12.83,0V325A6.42,6.42,0,0,1,998.34,331.45Zm0-89.33a10.68,10.68,0,0,0-4.23,20.49l1.12.48-.24,1.2a3.23,3.23,0,0,0-.07.69V325a3.42,3.42,0,0,0,6.83,0V265a3.23,3.23,0,0,0-.07-.69l-.24-1.2,1.12-.48a10.68,10.68,0,0,0-4.22-20.49Z"/><rect class="cls-7" x="996.84" y="274.71" width="3" height="47.5"/><path class="cls-7" d="M998.34,288.49a3.21,3.21,0,1,1,3.2-3.2A3.21,3.21,0,0,1,998.34,288.49Zm0-3.41a.21.21,0,0,0-.21.21c0,.22.41.22.41,0A.2.2,0,0,0,998.34,285.08Z"/><path class="cls-7" d="M645.82,102.61a26.44,26.44,0,0,1,21.43,41.91l-1.5,2.07,1.81,1.81,21.29,21.29-2.24,2.24-21.27-21.26-1.82-1.82-2.07,1.52a26.44,26.44,0,0,1-39.3-33.1l4.62,4.62,2.12,2.12,2.12-2.12,8.12-8.11,2.12-2.13-2.12-2.12-4.46-4.45a26.37,26.37,0,0,1,11.15-2.47m0-3a29.39,29.39,0,0,0-16.08,4.78l7.26,7.26-8.11,8.12-7.35-7.36a29.43,29.43,0,0,0,41.68,40.38l23.39,23.39,6.48-6.49-23.41-23.41a29.44,29.44,0,0,0-23.86-46.67Z"/><polygon class="cls-7" points="628.65 128.18 626.82 128.18 626.82 134.28 628.65 134.28 628.65 128.18 628.65 128.18"/><polygon class="cls-7" points="633.06 128.18 631.23 128.18 631.23 134.28 633.06 134.28 633.06 128.18 633.06 128.18"/><path class="cls-7" d="M629.88,143.53c-1.92,0-2.92-2.67-2.92-5.31h2c0,2.07.68,3.21.95,3.31.2-.1.88-1.24.88-3.31h2C632.79,140.86,631.79,143.53,629.88,143.53Z"/><path class="cls-7" d="M816.92,164.16l-84,0V146.89H723v-18h9.92V111.64l84,0Zm-81-3h78v-46.5h-78v17.25H726v12h9.91Z"/><polygon class="cls-7" points="740.85 120.27 740.85 126.38 742.68 126.38 742.68 120.27 740.85 120.27 740.85 120.27"/><polygon class="cls-7" points="745.27 120.28 745.26 126.38 747.1 126.38 747.1 120.28 745.27 120.28 745.27 120.28"/><path class="cls-7" d="M743.91,135.63h0c-1.91,0-2.91-2.67-2.91-5.31h2c0,2.07.68,3.21,1,3.31.2-.1.88-1.24.88-3.31h2a8.67,8.67,0,0,1-.65,3.45C745.46,135.38,744.45,135.63,743.91,135.63Z"/><path class="cls-7" d="M930.38,164.15h-84V146.9h-9.92v-18h9.92V111.65h84Zm-81-3h78v-46.5h-78V131.9h-9.92v12h9.92Z"/><path class="cls-7" d="M889.79,161.75l16.53-24.51H896.07l16-23.48-2.54,15.46,14,1.08Zm10.06-26.51h10.23l-8.83,13.09L918.84,132l-11.65-.9,1.43-8.68Z"/><polygon class="cls-7" points="857.31 119 855.48 119 855.48 125.11 857.31 125.11 857.31 119 857.31 119"/><polygon class="cls-7" points="861.73 119 859.89 119 859.89 125.11 861.73 125.11 861.73 119 861.73 119"/><path class="cls-7" d="M858.54,134.35c-1.91,0-2.91-2.66-2.91-5.3h2c0,2.07.68,3.2,1,3.31.2-.11.88-1.24.88-3.31h2C861.46,131.69,860.46,134.35,858.54,134.35Z"/><polygon class="cls-7" points="174.99 123.37 173.16 123.37 173.16 129.48 174.99 129.48 174.99 123.37 174.99 123.37"/><polygon class="cls-7" points="179.4 123.37 177.57 123.37 177.57 129.48 179.4 129.48 179.4 123.37 179.4 123.37"/><path class="cls-7" d="M176.22,138.72c-1.91,0-2.91-2.66-2.91-5.3h2c0,2.07.67,3.2.94,3.31.2-.11.88-1.24.88-3.31h2C179.13,136.06,178.13,138.72,176.22,138.72Z"/><rect class="cls-7" x="191.48" y="107.36" width="4" height="62.41"/><path class="cls-7" d="M193.31,171.1a33.21,33.21,0,1,1,33.21-33.2A33.23,33.23,0,0,1,193.31,171.1Zm0-62.41a29.21,29.21,0,1,0,29.21,29.21A29.24,29.24,0,0,0,193.31,108.69Z"/><path class="cls-7" d="M209.87,111.44a31.21,31.21,0,0,1-16.56,57.66V106.69A31,31,0,0,1,209.87,111.44Z"/><polygon class="cls-7" points="174.82 122.7 172.99 122.7 172.99 128.81 174.82 128.81 174.82 122.7 174.82 122.7"/><polygon class="cls-7" points="179.23 122.7 177.4 122.7 177.4 128.81 179.23 128.81 179.23 122.7 179.23 122.7"/><path class="cls-7" d="M176.05,138.06c-1.91,0-2.91-2.67-2.91-5.31h2c0,2.07.68,3.21,1,3.31.2-.1.87-1.24.87-3.31h2C179,135.39,178,138.06,176.05,138.06Z"/><rect class="cls-7" x="961.67" y="179.57" width="73.33" height="2"/><path class="cls-7" d="M1014,179.26c-3.78,0-8.65-.35-10.53-1.31-3.36-1.72-7.69-6.62-9.28-13.3-1.54-6.43-1.7-25.91-1.7-26.73v-9.07H963.92L1000,93.08l34.25,35.77h-27.35v15.23c0,6.07.42,18.26,1.1,20,.13.32.24.64.37,1a14.1,14.1,0,0,0,4.38,6.48,12.14,12.14,0,0,0,6.47,3.33c.41.09.78.17,1.09.26.53.16,1.92.58,1.82,1.94s-1.49,1.67-4,2A33.23,33.23,0,0,1,1014,179.26Zm-42.76-53.41h24.25V137.9c0,.19.16,19.95,1.61,26s5.43,10.14,7.74,11.33c1.3.66,6,1,9.49,1a19.53,19.53,0,0,1-8.73-10.22c-.11-.3-.22-.59-.34-.89-1.21-3-1.31-20.91-1.31-21.08V125.85h23.32L1000,97.36Z"/><polygon class="cls-7" points="997.88 103.42 996.05 103.42 996.05 109.52 997.88 109.52 997.88 103.42 997.88 103.42"/><polygon class="cls-7" points="1002.29 103.42 1000.46 103.42 1000.46 109.52 1002.29 109.52 1002.29 103.42 1002.29 103.42"/><path class="cls-7" d="M999.11,118.77c-1.91,0-2.91-2.67-2.91-5.3h2c0,2.06.68,3.2.94,3.3.2-.1.88-1.24.88-3.3h2C1002,116.1,1001,118.77,999.11,118.77Z"/><rect class="cls-7" x="1077.47" y="179.91" width="73.33" height="2"/><path class="cls-7" d="M1115,179.57l-36.1-35.77h28.54v-9.05c0-.84.17-20.32,1.7-26.75,1.59-6.68,5.93-11.58,9.28-13.3,2.77-1.41,12-1.51,14.72-1.11,2.5.37,3.89.57,4,2s-1.29,1.78-1.82,1.94c-.31.09-.68.17-1.09.26a12.17,12.17,0,0,0-6.47,3.33,14.1,14.1,0,0,0-4.38,6.48c-.12.33-.24.65-.37,1-.68,1.7-1.1,13.89-1.1,20V143.8h27.35Zm-28.81-32.77,28.75,28.49,27.28-28.49H1118.9V128.57c0-.17.1-18,1.31-21.08.12-.3.23-.59.34-.89a17.11,17.11,0,0,1,5.17-7.65,17.33,17.33,0,0,1,3.56-2.57c-3.51,0-8.19.33-9.49,1-2.31,1.19-6.27,5.18-7.74,11.33s-1.61,25.86-1.61,26.06v12Z"/><polygon class="cls-7" points="1112.85 154.34 1111.02 154.34 1111.02 160.44 1112.85 160.44 1112.85 154.34 1112.85 154.34"/><polygon class="cls-7" points="1117.26 154.34 1115.43 154.34 1115.43 160.44 1117.26 160.44 1117.26 154.34 1117.26 154.34"/><path class="cls-7" d="M1114.08,169.69c-1.91,0-2.91-2.67-2.91-5.31h2c0,2.07.68,3.21.95,3.31.19-.1.87-1.24.87-3.31h2C1117,167,1116,169.69,1114.08,169.69Z"/><path class="cls-7" d="M1148.15,326.23h-68V244.34h68Zm-65-3h62V247.34h-62Z"/><rect class="cls-7" x="1096.14" y="263.03" width="36" height="3"/><rect class="cls-7" x="1096.97" y="283.79" width="34.33" height="3"/><rect class="cls-7" x="1096.31" y="309.03" width="35.67" height="3"/><polygon class="cls-7" points="1089.43 253.4 1087.6 253.4 1087.6 259.51 1089.43 259.51 1089.43 253.4 1089.43 253.4"/><polygon class="cls-7" points="1093.85 253.4 1092.02 253.4 1092.02 259.51 1093.85 259.51 1093.85 253.4 1093.85 253.4"/><path class="cls-7" d="M1090.67,268.75c-1.92,0-2.92-2.66-2.92-5.3h2c0,2.07.68,3.2,1,3.31.2-.11.88-1.24.88-3.31h2C1093.58,266.09,1092.58,268.75,1090.67,268.75Z"/><path class="cls-7" d="M1104.68,446.69l-31.09-25.17,20.11-12.84,10.39,12.85L1139.9,392l14.21,29.81Zm-26-24.88,26.34,21.33,45.08-22.65-11.3-23.7-35.18,29-10.61-13.12Z"/><polygon class="cls-7" points="1089.97 416.86 1088.55 416.86 1088.55 421.57 1089.97 421.57 1089.97 416.86 1089.97 416.86"/><polygon class="cls-7" points="1093.37 416.86 1091.96 416.86 1091.96 421.57 1093.37 421.57 1093.37 416.86 1093.37 416.86"/><path class="cls-7" d="M1090.91,428.39c-1.46,0-2.22-2.05-2.22-4.07h1.5c0,1.6.54,2.5.74,2.57a3.62,3.62,0,0,0,.71-2.57h1.5C1093.14,426.34,1092.38,428.39,1090.91,428.39Z"/><polygon class="cls-7" points="882.58 526.71 881.24 526.71 881.24 531.62 882.58 531.62 882.58 526.71 882.58 526.71"/><polygon class="cls-7" points="885.81 526.71 884.47 526.71 884.47 531.62 885.81 531.62 885.81 526.71 885.81 526.71"/><path class="cls-7" d="M883.48,538.7c-1.48,0-2.15-2.18-2.15-4.21h1.5a1.42,1.42,0,1,0,1.3,0h1.5C885.63,536.52,885,538.7,883.48,538.7Z"/><path class="cls-7" d="M883.42,597.21c-12.1,0-21.94-10.26-21.94-22.88a24,24,0,0,1,.17-2.81,23,23,0,0,1,12-17.65,27.77,27.77,0,0,1-.48-5.22c0-.73,0-1.57,0-2.47-.07-5-.17-11.94,1.5-17.29,1.75-5.57,5.95-9,8.83-9s7.45,3.93,9.17,9.59c1.52,5,1.33,11.35,1.2,16,0,1.18-.07,2.27-.07,3.2a27.84,27.84,0,0,1-.48,5.22,23,23,0,0,1,12.12,20.46c0,.24,0,.47,0,.71a23.66,23.66,0,0,1-.71,5.11,23.23,23.23,0,0,1-1.85,4.93A21.81,21.81,0,0,1,883.42,597.21Zm0-74.33c-1.29,0-4.56,2.44-6,6.91-1.53,4.88-1.44,11.51-1.37,16.35,0,.91,0,1.76,0,2.51a23.93,23.93,0,0,0,.66,5.7l.29,1.21-1.13.51a19.86,19.86,0,0,0-11.31,15.8h0a20.18,20.18,0,0,0-.15,2.46c0,11,8.5,19.88,18.94,19.88a18.83,18.83,0,0,0,16.7-10.49,19.88,19.88,0,0,0,1.61-4.3,20.32,20.32,0,0,0,.62-4.47c0-.21,0-.41,0-.62a19.94,19.94,0,0,0-11.45-18.26l-1.14-.51.3-1.21a24.59,24.59,0,0,0,.65-5.7c0-1,0-2.07.07-3.29.13-4.42.3-10.49-1.07-15S884.84,522.88,883.42,522.88Z"/><path class="cls-7" d="M899.52,587.56a19.72,19.72,0,0,1-5.7-2.25c-5.74-3.31-8.68-8.24-6.82-11.46s7.59-3.15,13.34.17a20,20,0,0,1,4.62,3.62l-2.2,2a17.08,17.08,0,0,0-3.92-3.06c-4.57-2.63-8.52-2.51-9.24-1.27s1.15,4.73,5.72,7.36a16.63,16.63,0,0,0,4.81,1.91Z"/><path class="cls-7" d="M879.1,569.72a19.78,19.78,0,0,1-6.55-1.3c-3.69-1.38-6.66-3.5-7.74-5.56l2.65-1.4c.59,1.12,2.76,2.89,6.14,4.14,4.36,1.62,7.44,1.17,7.74.63.12-.6-1.92-3-6.28-4.56a17.42,17.42,0,0,0-5-1.12,8.84,8.84,0,0,0-1,0l-.18-3a10.28,10.28,0,0,1,1.36,0,20.35,20.35,0,0,1,5.89,1.29c4.88,1.81,9.21,5.29,8,8.43C883.51,569,881.55,569.72,879.1,569.72Z"/><path class="cls-7" d="M873.69,575.68a19.51,19.51,0,0,1-6.55-1.31,20.24,20.24,0,0,1-5-2.66l1.79-2.41a17.47,17.47,0,0,0,4.31,2.26c4.35,1.62,7.43,1.17,7.73.63.13-.6-1.91-3-6.27-4.57a17.44,17.44,0,0,0-5-1.11l.16-3a20.13,20.13,0,0,1,5.89,1.3c4.88,1.81,9.21,5.28,8,8.42C878.09,575,876.14,575.68,873.69,575.68Z"/><path class="cls-7" d="M868.78,582.35a18.66,18.66,0,0,1-5.54-1l.92-2.86c4.12,1.32,6.58.76,6.83.32.12-.6-1.92-3-6.28-4.57a19.26,19.26,0,0,0-2.09-.65l.73-2.91a21.43,21.43,0,0,1,2.4.75c4.88,1.81,9.21,5.28,8,8.42C873.15,581.64,871.19,582.35,868.78,582.35Z"/><polygon class="cls-7" points="276.06 119.54 274.22 119.54 274.22 125.64 276.06 125.64 276.06 119.54 276.06 119.54"/><polygon class="cls-7" points="280.47 119.54 278.63 119.54 278.63 125.64 280.47 125.64 280.47 119.54 280.47 119.54"/><path class="cls-7" d="M277.29,134.89c-1.92,0-2.92-2.67-2.92-5.3h2c0,2.07.68,3.2.95,3.31.2-.11.88-1.25.88-3.31h2C280.2,132.22,279.2,134.89,277.29,134.89Z"/><path class="cls-7" d="M338.34,165.77h-4V118.7l1.52,0a17.11,17.11,0,0,0,5.05-.47,4.48,4.48,0,0,0,1.42-2.5.57.57,0,0,0-.17-.5,15.2,15.2,0,0,0-3.28-2.26L333,110.14h6.54l1.23,0a41.08,41.08,0,0,1,5.92.05,6.74,6.74,0,0,1,5.11,4.58c.27,1.1.33,10,.24,34.2,0,3.31,0,5.69,0,6.31,0,.35,0,.7,0,1.06.1,2.38.25,6-3.62,7.48A32.18,32.18,0,0,1,338.34,165.77Zm-1-3h1a29.54,29.54,0,0,0,9-1.78c1.69-.66,1.81-1.84,1.7-4.56,0-.39,0-.78,0-1.15,0-.63,0-3,0-6.36,0-9.51.12-31.78-.16-33.51a3.78,3.78,0,0,0-2.66-2.29,13.62,13.62,0,0,0-2-.1l0,0a3.52,3.52,0,0,1,1.13,2.83,7.41,7.41,0,0,1-2.63,4.78c-1,.77-3.4,1-5.36,1Z"/><path class="cls-7" d="M337.62,161.64H265.76v-51.5H340l.32.15a17.67,17.67,0,0,1,3.88,2.78,3.58,3.58,0,0,1,1.09,2.82,7.39,7.39,0,0,1-2.54,4.75c-1,.78-3.26,1-5.15,1.07Zm-68.86-3h65.86V118.7l1.53,0a16,16,0,0,0,4.8-.46,4.53,4.53,0,0,0,1.36-2.51.59.59,0,0,0-.17-.52,14.13,14.13,0,0,0-2.85-2.09H268.76Z"/><path class="cls-7" d="M573.42,605.2H507.17V511.89h66.25Zm-63.25-3h60.25V514.89H510.17Z"/><path class="cls-7" d="M568.72,557.24H513.34V516h55.38Zm-52.38-3h49.38V519H516.34Z"/><path class="cls-7" d="M529.63,579.39A10.44,10.44,0,1,1,540.06,569,10.45,10.45,0,0,1,529.63,579.39Zm0-18.87a8.44,8.44,0,1,0,8.43,8.43A8.44,8.44,0,0,0,529.63,560.52Z"/><path class="cls-7" d="M551,579.39A10.44,10.44,0,1,1,561.41,569,10.45,10.45,0,0,1,551,579.39Zm0-18.87a8.44,8.44,0,1,0,8.44,8.43A8.44,8.44,0,0,0,551,560.52Z"/><path class="cls-7" d="M551,600.74a10.44,10.44,0,1,1,10.44-10.44A10.45,10.45,0,0,1,551,600.74Zm0-18.87a8.44,8.44,0,1,0,8.44,8.43A8.44,8.44,0,0,0,551,581.87Z"/><path class="cls-7" d="M529.63,600.74a10.44,10.44,0,1,1,10.43-10.44A10.45,10.45,0,0,1,529.63,600.74Zm0-18.87a8.44,8.44,0,1,0,8.43,8.43A8.44,8.44,0,0,0,529.63,581.87Z"/><polygon class="cls-7" points="521.02 522.77 519.68 522.77 519.68 527.68 521.02 527.68 521.02 522.77 521.02 522.77"/><polygon class="cls-7" points="524.25 522.77 522.9 522.77 522.9 527.68 524.25 527.68 524.25 522.77 524.25 522.77"/><path class="cls-7" d="M521.91,534.76c-1.47,0-2.14-2.18-2.14-4.21h1.5a4.46,4.46,0,0,0,.64,2.68,4.36,4.36,0,0,0,.65-2.68h1.5C524.06,532.58,523.39,534.76,521.91,534.76Z"/><rect class="cls-7" x="528.13" y="563.2" width="3" height="11.5" transform="translate(-247.19 541.12) rotate(-45)"/><rect class="cls-7" x="523.88" y="567.45" width="11.5" height="3" transform="translate(-247.19 541.14) rotate(-45)"/><rect class="cls-7" x="545.22" y="567.45" width="11.5" height="3"/><rect class="cls-7" x="528.13" y="584.55" width="3" height="11.5"/><rect class="cls-7" x="523.88" y="588.8" width="11.5" height="3"/><rect class="cls-7" x="545.73" y="588.8" width="10.48" height="3"/><circle class="cls-7" cx="550.97" cy="586.53" r="1.27"/><circle class="cls-7" cx="550.97" cy="594.12" r="1.31"/></g></svg>