<svg xmlns="http://www.w3.org/2000/svg" viewBox="0 0 52.1 44.21"><defs><style>.cls-1{fill:#fff;}</style></defs><title>download</title><g id="レイヤー_2" data-name="レイヤー 2"><g id="Lavel1"><path class="cls-1" d="M8.1,34.94v.88a2,2,0,0,0,2,2H42.66a2,2,0,0,0,2-2v-.88a2,2,0,0,0-2-1.95H10.05A2,2,0,0,0,8.1,34.94Zm2.34.39H42.27v.1H10.44Z"/><path class="cls-1" d="M17.83,21.4h0l2.24,3.89h0l2.47,4.27a3.41,3.41,0,0,0,5.92,0l6-10.37a3.42,3.42,0,0,0-3-5.13H28.26V1.25A1.24,1.24,0,0,0,27,0h-3.6a1.24,1.24,0,0,0-1.24,1.25V14.06H19.53a3.42,3.42,0,0,0-3,5.13Z"/><path class="cls-1" d="M46.26,21.4H35.89l-2.25,3.89H46.26a2,2,0,0,1,2,1.95V38.37a2,2,0,0,1-2,1.94H5.84a2,2,0,0,1-1.95-1.94V27.24a2,2,0,0,1,1.95-1.95H17.38L15.14,21.4H5.84A5.85,5.85,0,0,0,0,27.24V38.37a5.85,5.85,0,0,0,5.84,5.84H46.26a5.85,5.85,0,0,0,5.84-5.84V27.24A5.85,5.85,0,0,0,46.26,21.4Z"/></g></g></svg>