<svg xmlns="http://www.w3.org/2000/svg" viewBox="0 0 40.29 49.83"><defs><style>.cls-1{fill:#fff;}</style></defs><title>report</title><g id="レイヤー_2" data-name="レイヤー 2"><g id="Lavel1"><path class="cls-1" d="M32.37,0H7.92A7.94,7.94,0,0,0,0,7.92v34a7.94,7.94,0,0,0,7.92,7.93H32.37a7.93,7.93,0,0,0,7.92-7.93v-34A7.93,7.93,0,0,0,32.37,0Zm3.86,41.9a3.87,3.87,0,0,1-3.86,3.87H7.92A3.88,3.88,0,0,1,4.06,41.9v-34A3.88,3.88,0,0,1,7.92,4.06H32.37a3.87,3.87,0,0,1,3.86,3.86Z"/><path class="cls-1" d="M29.36,37.68H10.3a1.22,1.22,0,0,0,0,2.44H29.36A1.22,1.22,0,0,0,29.36,37.68Z"/><path class="cls-1" d="M29.36,27.51H10.3a1.22,1.22,0,0,0,0,2.44H29.36A1.22,1.22,0,0,0,29.36,27.51Z"/><path class="cls-1" d="M29.36,18.61H10.3a1.22,1.22,0,0,0,0,2.44H29.36A1.22,1.22,0,0,0,29.36,18.61Z"/><path class="cls-1" d="M16.65,12.15a1.22,1.22,0,0,0,0-2.44H9.87a1.22,1.22,0,0,0,0,2.44Z"/></g></g></svg>