<svg xmlns="http://www.w3.org/2000/svg" viewBox="0 0 25.85 24.94"><defs><style>.cls-1{fill:#231815;}</style></defs><title>writer</title><g id="レイヤー_2" data-name="レイヤー 2"><g id="Lavel2"><path class="cls-1" d="M25.1,2.15,23.87.86A2.75,2.75,0,0,0,20,.76L3.47,16.41a2.78,2.78,0,0,0-.83,1.65,1.46,1.46,0,0,0-.6.63L.21,22.51a1.67,1.67,0,0,0,.25,2,1.54,1.54,0,0,0,1.11.45,2,2,0,0,0,.87-.21L6.26,22.9h0a1.44,1.44,0,0,0,.53-.45,2.69,2.69,0,0,0,1.71-.74L25,6.05A2.76,2.76,0,0,0,25.1,2.15ZM2,23l1.31-2.74.08.09L4.6,21.61l.06.06Zm5-2.89a.62.62,0,0,1-.37.15.6.6,0,0,1-.37-.16L5,18.78H5A.53.53,0,0,1,5,18L18.38,5.36l2,2ZM23.45,4.43l-1.07,1-2-2,1.13-1.07a.54.54,0,0,1,.36-.14.57.57,0,0,1,.38.16l1.22,1.29A.52.52,0,0,1,23.45,4.43Z"/></g></g></svg>