<svg xmlns="http://www.w3.org/2000/svg" viewBox="0 0 91 91"><defs><style>.cls-1,.cls-2{fill:none;stroke:#fff;stroke-miterlimit:10;}.cls-2{stroke-width:0.5px;}.cls-3{writing-mode:tb;text-orientation:upright;glyph-orientation-vertical:0deg;}.cls-4{fill:#fff;}</style></defs><title>dora-mail</title><g id="レイヤー_2" data-name="レイヤー 2"><g id="レイヤー_1-2" data-name="レイヤー 1"><circle class="cls-1" cx="45.5" cy="45.5" r="45"/><rect class="cls-2" x="22.18" y="12.86" width="46.63" height="65.29"/><rect class="cls-2" x="45.1" y="15.79" width="2" height="3"/><rect class="cls-2" x="48.1" y="15.79" width="2" height="3"/><rect class="cls-2" x="51.1" y="15.79" width="2" height="3"/><rect class="cls-2" x="56.06" y="15.79" width="2" height="3"/><rect class="cls-2" x="59.06" y="15.79" width="2" height="3"/><rect class="cls-2" x="62.06" y="15.79" width="2" height="3"/><rect class="cls-2" x="65.06" y="15.79" width="2" height="3"/><line class="cls-2" x1="53.63" y1="17.29" x2="55.63" y2="17.29"/><text class="cls-3"/><path class="cls-4" d="M44.38,29.07a2,2,0,0,1,0,4"/><path class="cls-4" d="M44.38,37.07a2,2,0,0,1,0-4"/><path class="cls-4" d="M44.38,37.07a2,2,0,0,1,0,4"/><path class="cls-4" d="M44.38,45.07a2,2,0,0,1,0-4"/><path class="cls-4" d="M44.38,45.07a2,2,0,0,1,0,4"/><path class="cls-4" d="M44.38,53.07a2,2,0,0,1,0-4"/><path class="cls-4" d="M44.38,53.07a2,2,0,0,1,0,4"/><path class="cls-4" d="M44.38,61.07a2,2,0,0,1,0-4"/><path class="cls-4" d="M44.38,61.07a2,2,0,1,1,0,4"/><path class="cls-4" d="M44.38,69.07a2,2,0,1,1,0-4"/><text class="cls-3"/><path class="cls-4" d="M53.88,26.63a2,2,0,0,1,0,4"/><path class="cls-4" d="M53.88,34.63a2,2,0,1,1,0-4"/><path class="cls-4" d="M53.88,34.63a2,2,0,0,1,0,4"/><path class="cls-4" d="M53.88,42.63a2,2,0,0,1,0-4"/><path class="cls-4" d="M53.88,42.63a2,2,0,0,1,0,4"/><path class="cls-4" d="M53.88,50.63a2,2,0,0,1,0-4"/><path class="cls-4" d="M26.88,49.29a2,2,0,1,1,0,4"/><path class="cls-4" d="M26.88,57.29a2,2,0,0,1,0-4"/><path class="cls-4" d="M26.88,57.29a2,2,0,1,1,0,4"/><path class="cls-4" d="M26.88,65.29a2,2,0,1,1,0-4"/><path class="cls-4" d="M26.88,65.29a2,2,0,0,1,0,4"/><path class="cls-4" d="M26.88,73.29a2,2,0,1,1,0-4"/></g></g></svg>