<svg xmlns="http://www.w3.org/2000/svg" viewBox="0 0 64.86 64.86"><defs><style>.cls-1{fill:#fff;}</style></defs><title>hayato-user</title><g id="レイヤー_2" data-name="レイヤー 2"><g id="レイヤー_1-2" data-name="レイヤー 1"><path class="cls-1" d="M64.86,32.43a32.46,32.46,0,1,0-17.7,28.88,2.47,2.47,0,0,0,1.84-1A32.43,32.43,0,0,0,64.86,32.43ZM20.34,56V49.74c0-7.5,1.95-11.37,6.52-12.93a2.51,2.51,0,0,0,1.66-2,2.47,2.47,0,0,0-1.09-2.38,9,9,0,1,1,10,0,2.48,2.48,0,0,0,.92,4.5c3.35.62,6.19,6.51,6.19,12.84V56a26.43,26.43,0,0,1-24.19,0Zm29.14-3.3V49.74c0-6-2.19-12.67-6.32-15.9a14,14,0,1,0-21.43,0c-5.6,3.82-6.33,10.69-6.33,15.87v3a26.49,26.49,0,1,1,34.09,0Z"/></g></g></svg>