<svg xmlns="http://www.w3.org/2000/svg" viewBox="0 0 59.55 59.55"><defs><style>.cls-1{fill:#fbffff;stroke:#fff;stroke-linecap:round;stroke-linejoin:round;stroke-width:3.96px;}</style></defs><title>hayato-zoom</title><g id="レイヤー_2" data-name="レイヤー 2"><g id="レイヤー_1-2" data-name="レイヤー 1"><polygon class="cls-1" points="17.15 5.31 1.98 1.98 5.31 17.15 8.96 13.51 14.89 19.44 16 20.55 18.27 18.27 20.55 16 13.51 8.96 17.15 5.31"/><polygon class="cls-1" points="43.56 20.55 50.6 13.51 54.25 17.15 57.57 1.98 42.4 5.31 46.05 8.96 40.11 14.89 39.01 16 41.28 18.27 43.56 20.55"/><polygon class="cls-1" points="50.6 46.05 44.66 40.11 43.56 39.01 41.28 41.28 39.01 43.56 46.05 50.6 42.4 54.25 57.57 57.57 54.25 42.4 50.6 46.05"/><polygon class="cls-1" points="16 39.01 8.96 46.05 5.31 42.4 1.98 57.57 17.15 54.25 13.51 50.6 19.44 44.66 20.55 43.56 18.27 41.28 16 39.01"/></g></g></svg>