<svg xmlns="http://www.w3.org/2000/svg" viewBox="0 0 75.72 56.75"><defs><style>.cls-1{fill:#fff;}</style></defs><title>hayato-vol</title><g id="レイヤー_2" data-name="レイヤー 2"><g id="レイヤー_1-2" data-name="レイヤー 1"><path class="cls-1" d="M51.15,12.29a3,3,0,0,0,0,4.2,16.82,16.82,0,0,1,0,23.76,3,3,0,1,0,4.2,4.2,22.76,22.76,0,0,0,0-32.16A3,3,0,0,0,51.15,12.29Z"/><path class="cls-1" d="M67.25,7.9a3,3,0,0,0-4.2,4.2,23,23,0,0,1,0,32.54,3,3,0,1,0,4.2,4.2A29,29,0,0,0,67.25,7.9Z"/><path class="cls-1" d="M44.6.34a3,3,0,0,0-3.06.18L18.33,16.42H3a3,3,0,0,0-3,3v17.2a3,3,0,0,0,3,3H17.2L41.54,56.23a3,3,0,0,0,1.68.52,3.06,3.06,0,0,0,1.38-.34,3,3,0,0,0,1.59-2.63V3A3,3,0,0,0,44.6.34Zm-4.35,47.8-20.45-14a3,3,0,0,0-1.68-.52H5.94V22.36H19a3,3,0,0,0,1.92-.51L40.25,8.6Z"/></g></g></svg>