<svg xmlns="http://www.w3.org/2000/svg" viewBox="0 0 66.92 48.11"><defs><style>.cls-1{fill:#fbffff;}</style></defs><title>hayato-mail</title><g id="レイヤー_2" data-name="レイヤー 2"><g id="レイヤー_1-2" data-name="レイヤー 1"><path class="cls-1" d="M66.91,2.88a.88.88,0,0,0,0-.16,3.22,3.22,0,0,0-.14-.7s0-.06,0-.09,0,0,0,0a3,3,0,0,0-.39-.7l-.11-.13a2.78,2.78,0,0,0-.53-.5l-.05,0a3.57,3.57,0,0,0-.71-.34L64.75.12A3,3,0,0,0,64,0H3a3.11,3.11,0,0,0-.81.12L2,.18a3.24,3.24,0,0,0-.7.34l-.05,0a2.84,2.84,0,0,0-.54.5,1.47,1.47,0,0,1-.1.13,3.21,3.21,0,0,0-.39.7s0,0,0,0S.18,2,.17,2a2.72,2.72,0,0,0-.14.7.88.88,0,0,0,0,.16S0,2.94,0,3V45.14a3,3,0,0,0,3,3H64a3,3,0,0,0,3-3V3S66.91,2.91,66.91,2.88ZM56,5.94,33.46,25.35,11,5.94Zm5,36.23h-55V9.46L31.52,31.53a3,3,0,0,0,3.88,0L61,9.46Z"/></g></g></svg>