<svg xmlns="http://www.w3.org/2000/svg" viewBox="0 0 55.44 55.44"><defs><style>.cls-1{fill:#fff;}</style></defs><title>hayato-play</title><g id="レイヤー_2" data-name="レイヤー 2"><g id="レイヤー_1-2" data-name="レイヤー 1"><path class="cls-1" d="M27.72,0A27.72,27.72,0,1,0,55.44,27.72,27.76,27.76,0,0,0,27.72,0Zm0,49.5A21.78,21.78,0,1,1,49.5,27.72,21.8,21.8,0,0,1,27.72,49.5Z"/><path class="cls-1" d="M29.32,26l-11-6.36a2,2,0,0,0-3,1.72v12.7a2,2,0,0,0,1,1.72,2,2,0,0,0,2,0l11-6.36a2,2,0,0,0,0-3.42Z"/><path class="cls-1" d="M33.28,16.64a3,3,0,0,0-3,3V35.83a3,3,0,1,0,5.94,0V19.61A3,3,0,0,0,33.28,16.64Z"/></g></g></svg>