<svg xmlns="http://www.w3.org/2000/svg" viewBox="0 0 63.34 67.47"><defs><style>.cls-1{fill:#fff;}</style></defs><title>hayato-clock</title><g id="レイヤー_2" data-name="レイヤー 2"><g id="レイヤー_1-2" data-name="レイヤー 1"><path class="cls-1" d="M59.39,33.93a27.72,27.72,0,0,0-47.32-19.6,27.68,27.68,0,0,0,4,42.53L10.5,62.38a3,3,0,1,0,4.16,4.24l7-6.86a27.75,27.75,0,0,0,20.08,0l7,6.86a3,3,0,0,0,4.17-4.24l-5.61-5.52A27.7,27.7,0,0,0,59.39,33.93ZM16.27,49.33a21.78,21.78,0,0,1,30.8-30.8,21.78,21.78,0,0,1-30.8,30.8Z"/><path class="cls-1" d="M5.94,15.82A10.37,10.37,0,0,1,16.82,6,3,3,0,0,0,17.11,0,16.32,16.32,0,0,0,0,15.53a3,3,0,0,0,2.82,3.12H3A3,3,0,0,0,5.94,15.82Z"/><path class="cls-1" d="M58,4.23A16.22,16.22,0,0,0,46.23,0,3,3,0,1,0,46.52,6a10.39,10.39,0,0,1,10.89,9.87,3,3,0,0,0,3,2.83h.15a3,3,0,0,0,2.82-3.12A16.23,16.23,0,0,0,58,4.23Z"/><path class="cls-1" d="M40.57,24.21l-8.91,8.9-6.4-6.4a3,3,0,1,0-4.2,4.2l8.5,8.5a3,3,0,0,0,4.2,0l11-11a3,3,0,1,0-4.2-4.19Z"/></g></g></svg>