<svg xmlns="http://www.w3.org/2000/svg" viewBox="0 0 62.26 54.62"><defs><style>.cls-1{fill:#fff;}</style></defs><title>hayato-camera</title><g id="レイヤー_2" data-name="レイヤー 2"><g id="レイヤー_1-2" data-name="レイヤー 1"><path class="cls-1" d="M59.29,7.23H46.14V3a3,3,0,0,0-3-3H19.09a3,3,0,0,0-3,3V7.23H3a3,3,0,0,0-3,3V51.65a3,3,0,0,0,3,3H59.29a3,3,0,0,0,3-3V10.2A3,3,0,0,0,59.29,7.23Zm-3,41.45H5.94V13.17H19.09a3,3,0,0,0,3-3V5.94H40.2V10.2a3,3,0,0,0,3,3H56.32Z"/><path class="cls-1" d="M31.13,13.86A16.26,16.26,0,1,0,47.39,30.12,16.28,16.28,0,0,0,31.13,13.86Zm0,26.57A10.32,10.32,0,1,1,41.45,30.12,10.33,10.33,0,0,1,31.13,40.43Z"/></g></g></svg>