<svg xmlns="http://www.w3.org/2000/svg" viewBox="0 0 42.95 74.95"><defs><style>.cls-1{fill:#fff;}</style></defs><title>keito-user</title><g id="レイヤー_2" data-name="レイヤー 2"><g id="レイヤー_1-2" data-name="レイヤー 1"><path class="cls-1" d="M30.5,75H20.16V74H30.45ZM17.08,75H12.5a12.52,12.52,0,0,1-5.73-1.39l.46-.89A11.49,11.49,0,0,0,12.5,74h4.58Zm16.6-.42-.26-1a11.51,11.51,0,0,0,7.37-6.09l.9.44A12.57,12.57,0,0,1,33.68,74.53ZM4.14,71.73A12.55,12.55,0,0,1,0,62.45v-.24H1v.24A11.51,11.51,0,0,0,4.81,71Zm38.58-6.86-1-.2A11.68,11.68,0,0,0,42,62.45v-8h1v8A13.05,13.05,0,0,1,42.72,64.87ZM1,59.12H0V48.83H1Zm42-7.71H42V44.5a11.44,11.44,0,0,0-.45-3.19l1-.28A12.28,12.28,0,0,1,43,44.5ZM1,45.74H0V44.5A12.45,12.45,0,0,1,3.4,36l.73.69A11.41,11.41,0,0,0,1,44.5Zm39.32-7.13a11.54,11.54,0,0,0-7.88-5.44l.18-1a12.54,12.54,0,0,1,8.55,5.9ZM6.4,34.76l-.53-.85A12.44,12.44,0,0,1,12.5,32h3.58v1H12.5A11.45,11.45,0,0,0,6.4,34.76Zm23-1.76H19.16V32H29.45Z"/><path class="cls-1" d="M23.5,28.36H20.09a12.42,12.42,0,0,1-6.34-1.74l.51-.86a11.39,11.39,0,0,0,5.83,1.6h3.36Zm3-.38-.25-1a11.59,11.59,0,0,0,7.22-5.55l.87.5A12.64,12.64,0,0,1,26.52,28ZM11.34,24.76a12.36,12.36,0,0,1-3.75-8.9v-.23h1v.23A11.37,11.37,0,0,0,12,24.05Zm24.17-5.62-1-.26a11.39,11.39,0,0,0,.4-3V12.5a11.14,11.14,0,0,0-.41-3l1-.26A12.62,12.62,0,0,1,36,12.5v3.36A12.07,12.07,0,0,1,35.51,19.14ZM8.59,12.7h-1v-.2a12.37,12.37,0,0,1,3.77-8.92l.7.71A11.39,11.39,0,0,0,8.59,12.5ZM33.48,6.88a11.64,11.64,0,0,0-7.23-5.53l.25-1a12.6,12.6,0,0,1,7.85,6ZM14.28,2.59l-.51-.86A12.43,12.43,0,0,1,20.09,0h3.36l0,1H20.09A11.43,11.43,0,0,0,14.28,2.59Z"/></g></g></svg>