<svg xmlns="http://www.w3.org/2000/svg" viewBox="0 0 70.59 62.36"><defs><style>.cls-1{fill:#fff;}</style></defs><title>keito-zoom</title><g id="レイヤー_2" data-name="レイヤー 2"><g id="レイヤー_1-2" data-name="レイヤー 1"><rect class="cls-1" x="-0.98" y="51.06" width="5" height="1" transform="translate(-49.86 47.08) rotate(-83.33)"/><rect class="cls-1" x="-1.71" y="57.38" width="5" height="1" transform="translate(-56.79 51.94) rotate(-83.33)"/><rect class="cls-1" x="7.28" y="59.6" width="5" height="1" transform="translate(-11.77 3.15) rotate(-11.49)"/><rect class="cls-1" x="1.04" y="60.87" width="5" height="1" transform="translate(-12.15 1.93) rotate(-11.49)"/><rect class="cls-1" x="2.23" y="56.82" width="5" height="1" transform="translate(-36.34 17.05) rotate(-40.84)"/><path class="cls-1" d="M9.38,54l-.65-.76,8.13-7,.65.76ZM20,44.83l-.65-.76,8.12-7,.66.76Z"/><rect class="cls-1" x="29.58" y="33.18" width="5" height="1" transform="translate(-14.22 29.18) rotate(-40.84)"/><rect class="cls-1" x="36.41" y="27.29" width="5" height="1" transform="translate(-8.7 32.21) rotate(-40.84)"/><path class="cls-1" d="M43.56,24.43l-.65-.76,8.13-7,.65.76Zm10.57-9.14-.65-.75,8.12-7,.66.76Z"/><rect class="cls-1" x="63.76" y="3.65" width="5" height="1" transform="translate(13.42 44.34) rotate(-40.84)"/><rect class="cls-1" x="66.57" y="9.72" width="5" height="1" transform="translate(50.9 77.63) rotate(-83.33)"/><rect class="cls-1" x="67.3" y="3.4" width="5" height="1" transform="translate(57.83 72.78) rotate(-83.33)"/><rect class="cls-1" x="57.95" y="1.75" width="5" height="1" transform="translate(0.76 12.08) rotate(-11.49)"/><rect class="cls-1" x="64.18" y="0.49" width="5" height="1" transform="translate(1.14 13.3) rotate(-11.49)"/></g></g></svg>