<svg xmlns="http://www.w3.org/2000/svg" viewBox="0 0 40.8 36.15"><defs><style>.cls-1{fill:#fff;}</style></defs><title>keito-play</title><g id="レイヤー_2" data-name="レイヤー 2"><g id="レイヤー_1-2" data-name="レイヤー 1"><polygon class="cls-1" points="0 36.15 0 30.38 1 30.38 1 34.61 4.87 32.9 5.27 33.81 0 36.15"/><path class="cls-1" d="M1,27.83H0V19.35H1Zm0-11H0V8.31H1Z"/><polygon class="cls-1" points="1 5.77 0 5.77 0 0 5.27 2.34 4.87 3.25 1 1.54 1 5.77"/><path class="cls-1" d="M31.69,15.14,21.38,10.56l.4-.91L32.1,14.22Zm-13.41-6L8,4.62l.41-.91L18.69,8.28Z"/><polygon class="cls-1" points="35.2 20.56 34.79 19.64 38.33 18.07 34.79 16.51 35.2 15.59 40.8 18.07 35.2 20.56"/><path class="cls-1" d="M8.37,32.44,8,31.53,18.28,27l.41.91ZM21.78,26.5l-.4-.92L31.69,21l.41.92Z"/></g></g></svg>