<svg xmlns="http://www.w3.org/2000/svg" viewBox="0 0 73.33 54.96"><defs><style>.cls-1{fill:#fff;}</style></defs><title>keito-camera</title><g id="レイヤー_2" data-name="レイヤー 2"><g id="レイヤー_1-2" data-name="レイヤー 1"><polygon class="cls-1" points="23.15 17.73 17.65 17.73 17.65 16.73 22.15 16.73 22.15 12.23 23.15 12.23 23.15 17.73"/><polygon class="cls-1" points="23.15 5.5 22.15 5.5 22.15 0 27.65 0 27.65 1 23.15 1 23.15 5.5"/><rect class="cls-1" x="30.72" width="10.24" height="1"/><polygon class="cls-1" points="49.54 5.5 48.54 5.5 48.54 1 44.04 1 44.04 0 49.54 0 49.54 5.5"/><polygon class="cls-1" points="54.04 17.73 48.54 17.73 48.54 12.23 49.54 12.23 49.54 16.73 54.04 16.73 54.04 17.73"/><rect class="cls-1" x="56.62" y="16.73" width="8.62" height="1"/><polygon class="cls-1" points="73.33 22.23 72.33 22.23 72.33 17.73 67.83 17.73 67.83 16.73 73.33 16.73 73.33 22.23"/><path class="cls-1" d="M73.33,46.64h-1V37.25h1Zm0-12.21h-1V25h1Z"/><polygon class="cls-1" points="73.33 54.96 67.83 54.96 67.83 53.96 72.33 53.96 72.33 49.46 73.33 49.46 73.33 54.96"/><path class="cls-1" d="M65.08,55H55.92V54h9.16ZM53.17,55H44V54h9.17ZM41.25,55H32.08V54h9.17ZM29.33,55H20.17V54h9.16ZM17.42,55H8.25V54h9.17Z"/><polygon class="cls-1" points="5.5 54.96 0 54.96 0 49.46 1 49.46 1 53.96 5.5 53.96 5.5 54.96"/><path class="cls-1" d="M1,46.64H0V37.25H1ZM1,34.43H0V25H1Z"/><polygon class="cls-1" points="1 22.23 0 22.23 0 16.73 5.5 16.73 5.5 17.73 1 17.73 1 22.23"/><rect class="cls-1" x="7.78" y="16.73" width="7.59" height="1"/><polygon class="cls-1" points="44.3 41.08 38.8 41.08 38.8 40.08 43.3 40.08 43.3 35.58 44.3 35.58 44.3 41.08"/><polygon class="cls-1" points="33.88 41.08 28.38 41.08 28.38 35.58 29.38 35.58 29.38 40.08 33.88 40.08 33.88 41.08"/><polygon class="cls-1" points="29.38 30.66 28.38 30.66 28.38 25.16 33.88 25.16 33.88 26.16 29.38 26.16 29.38 30.66"/><polygon class="cls-1" points="44.3 30.66 43.3 30.66 43.3 26.16 38.8 26.16 38.8 25.16 44.3 25.16 44.3 30.66"/></g></g></svg>