<svg xmlns="http://www.w3.org/2000/svg" viewBox="0 0 64.18 64.18"><defs><style>.cls-1{fill:#fff;}</style></defs><title>keito-clock</title><g id="レイヤー_2" data-name="レイヤー 2"><g id="レイヤー_1-2" data-name="レイヤー 1"><polygon class="cls-1" points="32.09 64.18 28.2 60.29 28.91 59.59 32.09 62.77 35.27 59.59 35.98 60.29 32.09 64.18"/><path class="cls-1" d="M25.69,57.78,17.3,49.39l.71-.7,8.38,8.38Zm-10.9-10.9L6.4,38.5l.71-.71,8.39,8.38Z"/><polygon class="cls-1" points="3.89 35.98 0 32.09 3.89 28.2 4.6 28.91 1.41 32.09 4.6 35.27 3.89 35.98"/><path class="cls-1" d="M7.11,26.39l-.71-.7,8.39-8.39.7.71ZM18,15.49l-.71-.7L25.69,6.4l.7.71Z"/><polygon class="cls-1" points="35.27 4.6 32.09 1.41 28.91 4.6 28.2 3.89 32.09 0 35.98 3.89 35.27 4.6"/><path class="cls-1" d="M57.07,26.39,48.69,18l.7-.71,8.39,8.39ZM46.17,15.5,37.79,7.11l.7-.71,8.39,8.39Z"/><polygon class="cls-1" points="60.29 35.98 59.59 35.27 62.77 32.09 59.59 28.91 60.29 28.2 64.18 32.09 60.29 35.98"/><path class="cls-1" d="M38.49,57.78l-.7-.71,8.38-8.38.71.7Zm10.9-10.9-.7-.71,8.38-8.38.71.7Z"/><path class="cls-1" d="M29.54,33.63l-.71-.71,3.45-3.45.71.71Zm5.57-5.58-.71-.7,7.07-7.07.71.7Z"/><path class="cls-1" d="M40.85,43.92l-7.36-6.76.68-.74,7.36,6.76Zm-9.57-8.79-1.8-1.66.68-.73L32,34.39Z"/></g></g></svg>