<svg xmlns="http://www.w3.org/2000/svg" viewBox="0 0 75.27 52.38"><defs><style>.cls-1{fill:#fff;}</style></defs><title>keito-mail</title><g id="レイヤー_2" data-name="レイヤー 2"><g id="レイヤー_1-2" data-name="レイヤー 1"><polygon class="cls-1" points="4.21 6.29 0 3.15 0 0 5.5 0 5.5 1 1 1 1 2.65 4.81 5.49 4.21 6.29"/><path class="cls-1" d="M31.27,26.43l-6.94-5.16.6-.8,6.93,5.16Zm-9-6.71-6.94-5.17.6-.8,6.93,5.17Zm-9-6.72L6.29,7.84l.6-.8,6.94,5.16Z"/><polygon class="cls-1" points="37.66 31.19 33.35 27.98 33.94 27.18 37.66 29.94 41.36 27.17 41.96 27.97 37.66 31.19"/><path class="cls-1" d="M44,26.42l-.6-.8,6.93-5.19.6.8Zm9-6.74-.6-.8,6.93-5.18.59.8Zm9-6.74-.6-.8L68.38,7l.6.8Z"/><polygon class="cls-1" points="71.06 6.21 70.46 5.4 74.27 2.56 74.27 1 69.77 1 69.77 0 75.27 0 75.27 3.06 71.06 6.21"/><path class="cls-1" d="M66.93,1H57.48V0h9.45ZM54.64,1H45.19V0h9.45ZM42.36,1H32.91V0h9.45ZM30.07,1H20.62V0h9.45ZM17.79,1H8.33V0h9.46Z"/><polygon class="cls-1" points="37.66 35.51 33.35 32.29 33.95 31.49 37.66 34.26 41.36 31.49 41.96 32.29 37.66 35.51"/><path class="cls-1" d="M44,30.73l-.6-.8,6.93-5.19.6.8Zm9-6.75-.6-.8L59.38,18l.6.8Zm9-6.75-.59-.8,6.93-5.19L69,12Z"/><polygon class="cls-1" points="75.27 12.08 74.27 12.08 74.27 8.08 71.06 10.48 70.46 9.68 75.27 6.08 75.27 12.08"/><path class="cls-1" d="M75.27,43.28h-1v-12h1Zm0-15.6h-1v-12h1Z"/><polygon class="cls-1" points="75.27 52.38 69.77 52.38 69.77 51.38 74.27 51.38 74.27 46.88 75.27 46.88 75.27 52.38"/><path class="cls-1" d="M66.93,52.38H57.48v-1h9.45Zm-12.29,0H45.19v-1h9.45Zm-12.28,0H32.91v-1h9.45Zm-12.29,0H20.62v-1h9.45Zm-12.28,0H8.33v-1h9.46Z"/><polygon class="cls-1" points="5.5 52.38 0 52.38 0 46.88 1 46.88 1 51.38 5.5 51.38 5.5 52.38"/><path class="cls-1" d="M1,43.28H0v-12H1Zm0-15.6H0v-12H1Z"/><polygon class="cls-1" points="1 12.08 0 12.08 0 6.08 4.8 9.68 4.2 10.48 1 8.08 1 12.08"/><path class="cls-1" d="M31.27,30.73l-6.94-5.19.6-.8,6.94,5.19Zm-9-6.75-6.94-5.19.6-.8,6.94,5.19Zm-9-6.75L6.29,12l.59-.81,6.94,5.2Z"/></g></g></svg>