<svg xmlns="http://www.w3.org/2000/svg" viewBox="0 0 64.49 56.16"><defs><style>.cls-1{fill:#fff;}</style></defs><title>keito-vol</title><g id="レイヤー_2" data-name="レイヤー 2"><g id="レイヤー_1-2" data-name="レイヤー 1"><polygon class="cls-1" points="1 23.29 0 23.29 0 17.79 5.5 17.79 5.5 18.79 1 18.79 1 23.29"/><path class="cls-1" d="M23.21,18.79H19.46v-1h3.33l3.53-3.53L27,15Zm-6.36,0H8.12v-1h8.73Zm12-5.67-.71-.71,6.17-6.17.71.71Z"/><polygon class="cls-1" points="40.58 6.21 39.58 6.21 39.58 2.41 36.9 5.1 36.19 4.39 40.58 0 40.58 6.21"/><path class="cls-1" d="M40.58,46.83h-1V36.42h1Zm0-13.54h-1V22.87h1Zm0-13.54h-1V9.33h1Z"/><polygon class="cls-1" points="40.58 56.16 36.19 51.77 36.9 51.07 39.58 53.75 39.58 49.96 40.58 49.96 40.58 56.16"/><path class="cls-1" d="M34.34,49.92l-6.17-6.17.71-.71,6.17,6.18Zm-8-8-3.53-3.53H19.47v-1H23.2L27,41.19Zm-9.47-3.53H8.12v-1h8.73Z"/><polygon class="cls-1" points="5.5 38.37 0 38.37 0 32.87 1 32.87 1 37.37 5.5 37.37 5.5 38.37"/><rect class="cls-1" y="25.09" width="1" height="5.99"/><rect class="cls-1" x="63.49" y="15.76" width="1" height="21.89"/><rect class="cls-1" x="50.43" y="15.76" width="1" height="21.89"/><rect class="cls-1" x="57.02" y="15.76" width="1" height="21.89"/></g></g></svg>