<svg xmlns="http://www.w3.org/2000/svg" viewBox="0 0 78.08 78.08"><defs><style>.cls-1{fill:#fff;}</style></defs><title>ken-play</title><g id="レイヤー_2" data-name="レイヤー 2"><g id="レイヤー_1-2" data-name="レイヤー 1"><path class="cls-1" d="M64.08,78.08H14a14,14,0,0,1-14-14V14A14,14,0,0,1,14,0H64.08a14,14,0,0,1,14,14V64.08A14,14,0,0,1,64.08,78.08ZM14,4A10,10,0,0,0,4,14V64.08a10,10,0,0,0,10,10H64.08a10,10,0,0,0,10-10V14a10,10,0,0,0-10-10Z"/><path class="cls-1" d="M29.54,53.46V22.61L56.25,38Zm4-23.92v17L48.25,38Z"/></g></g></svg>