<svg xmlns="http://www.w3.org/2000/svg" viewBox="0 0 78.08 78.08"><defs><style>.cls-1{fill:#fff;}</style></defs><title>ken-clock</title><g id="レイヤー_2" data-name="レイヤー 2"><g id="レイヤー_1-2" data-name="レイヤー 1"><path class="cls-1" d="M64.08,78.08H14a14,14,0,0,1-14-14V14A14,14,0,0,1,14,0H64.08a14,14,0,0,1,14,14V64.08A14,14,0,0,1,64.08,78.08ZM14,4A10,10,0,0,0,4,14V64.08a10,10,0,0,0,10,10H64.08a10,10,0,0,0,10-10V14a10,10,0,0,0-10-10Z"/><path class="cls-1" d="M64.08,78.08H14a14,14,0,0,1-14-14V14A14,14,0,0,1,14,0H64.08a14,14,0,0,1,14,14V64.08A14,14,0,0,1,64.08,78.08ZM14,4A10,10,0,0,0,4,14V64.08a10,10,0,0,0,10,10H64.08a10,10,0,0,0,10-10V14a10,10,0,0,0-10-10Z"/><path class="cls-1" d="M64.08,78.08H14a14,14,0,0,1-14-14V14A14,14,0,0,1,14,0H64.08a14,14,0,0,1,14,14V64.08A14,14,0,0,1,64.08,78.08ZM14,4A10,10,0,0,0,4,14V64.08a10,10,0,0,0,10,10H64.08a10,10,0,0,0,10-10V14a10,10,0,0,0-10-10Z"/><path class="cls-1" d="M39.35,67.85A25.32,25.32,0,1,1,64.66,42.53,25.34,25.34,0,0,1,39.35,67.85Zm0-46.63A21.32,21.32,0,1,0,60.66,42.53,21.33,21.33,0,0,0,39.35,21.22Z"/><polygon class="cls-1" points="55.76 46.02 36.9 46.02 36.9 27.96 40.9 27.96 40.9 42.02 55.76 42.02 55.76 46.02"/><path class="cls-1" d="M64.18,26.49,47.71,15.22l.53-1.15a6.9,6.9,0,0,1,4.12-3.19,10.7,10.7,0,0,1,8.31.4,9.82,9.82,0,0,1,4.91,5.82A10.32,10.32,0,0,1,65,25ZM51.87,14.43,62.9,22a7.43,7.43,0,0,0-.18-4A6.81,6.81,0,0,0,59.33,14a7.84,7.84,0,0,0-6-.25A6.38,6.38,0,0,0,51.87,14.43Z"/><path class="cls-1" d="M14.1,27l-.78-1.5a10.27,10.27,0,0,1-.62-7.89,9.74,9.74,0,0,1,4.9-5.82,10.73,10.73,0,0,1,8.32-.4A6.89,6.89,0,0,1,30,14.53l.53,1.15Zm8.07-13.25a7.21,7.21,0,0,0-3.22.72,6.8,6.8,0,0,0-3.4,4.06,7.42,7.42,0,0,0-.17,4l11-7.55a6.81,6.81,0,0,0-1.48-.72A8.25,8.25,0,0,0,22.17,13.71Z"/></g></g></svg>