<svg xmlns="http://www.w3.org/2000/svg" viewBox="0 0 78.08 78.08"><defs><style>.cls-1{fill:#fff;}</style></defs><title>ken-camera</title><g id="レイヤー_2" data-name="レイヤー 2"><g id="レイヤー_1-2" data-name="レイヤー 1"><path class="cls-1" d="M64.08,78.08H14a14,14,0,0,1-14-14V14A14,14,0,0,1,14,0H64.08a14,14,0,0,1,14,14V64.08A14,14,0,0,1,64.08,78.08ZM14,4A10,10,0,0,0,4,14V64.08a10,10,0,0,0,10,10H64.08a10,10,0,0,0,10-10V14a10,10,0,0,0-10-10Z"/><path class="cls-1" d="M64.08,78.08H14a14,14,0,0,1-14-14V14A14,14,0,0,1,14,0H64.08a14,14,0,0,1,14,14V64.08A14,14,0,0,1,64.08,78.08ZM14,4A10,10,0,0,0,4,14V64.08a10,10,0,0,0,10,10H64.08a10,10,0,0,0,10-10V14a10,10,0,0,0-10-10Z"/><path class="cls-1" d="M69.78,62.94H8.37V20.28h17l5-5.68h17l4.17,5.68,18.32-.05Zm-57.41-4H65.78V24.25l-16.34,0L45.27,18.6H32.11l-5,5.68H12.37Z"/><path class="cls-1" d="M39,50.41a9.54,9.54,0,1,1,9.53-9.53A9.54,9.54,0,0,1,39,50.41Zm0-16.07a6.54,6.54,0,1,0,6.53,6.54A6.54,6.54,0,0,0,39,34.34Z"/><path class="cls-1" d="M39,55.21A14.34,14.34,0,1,1,53.38,40.88,14.35,14.35,0,0,1,39,55.21Zm0-25.67A11.34,11.34,0,1,0,50.38,40.88,11.35,11.35,0,0,0,39,29.54Z"/><path class="cls-1" d="M39,55.21A14.34,14.34,0,1,1,53.38,40.88,14.35,14.35,0,0,1,39,55.21Zm0-25.67A11.34,11.34,0,1,0,50.38,40.88,11.35,11.35,0,0,0,39,29.54Z"/></g></g></svg>