<svg xmlns="http://www.w3.org/2000/svg" viewBox="0 0 78.08 78.08"><defs><style>.cls-1{fill:#fff;}</style></defs><title>ken-vol</title><g id="レイヤー_2" data-name="レイヤー 2"><g id="レイヤー_1-2" data-name="レイヤー 1"><path class="cls-1" d="M64.08,78.08H14a14,14,0,0,1-14-14V14A14,14,0,0,1,14,0H64.08a14,14,0,0,1,14,14V64.08A14,14,0,0,1,64.08,78.08ZM14,4A10,10,0,0,0,4,14V64.08a10,10,0,0,0,10,10H64.08a10,10,0,0,0,10-10V14a10,10,0,0,0-10-10Z"/><path class="cls-1" d="M64.08,78.08H14a14,14,0,0,1-14-14V14A14,14,0,0,1,14,0H64.08a14,14,0,0,1,14,14V64.08A14,14,0,0,1,64.08,78.08ZM14,4A10,10,0,0,0,4,14V64.08a10,10,0,0,0,10,10H64.08a10,10,0,0,0,10-10V14a10,10,0,0,0-10-10Z"/><rect x="11.16" y="32.25" width="8.15" height="17.68"/><path class="cls-1" d="M21.31,51.93H9.16V30.25H21.31Zm-8.15-4h4.15V34.25H13.16Z"/><path class="cls-1" d="M41.91,61.44,17.31,51.26V31.07l24.6-13.61ZM21.31,48.59l16.6,6.86V24.24l-16.6,9.19Z"/><rect class="cls-1" x="56.9" y="29.42" width="4" height="23.34"/><rect class="cls-1" x="47.23" y="39.09" width="23.34" height="4"/></g></g></svg>