<svg xmlns="http://www.w3.org/2000/svg" viewBox="0 0 78.19 78.19"><defs><style>.cls-1{fill:#fff;}</style></defs><title>ken-zoom</title><g id="レイヤー_2" data-name="レイヤー 2"><g id="レイヤー_1-2" data-name="レイヤー 1"><path class="cls-1" d="M64.22,78.08l-50.08.11a14,14,0,0,1-14-14L0,14.14a14,14,0,0,1,14-14L64.05,0a14,14,0,0,1,14,14l.11,50.08A14,14,0,0,1,64.22,78.08ZM14,4.11a10,10,0,0,0-10,10l.11,50.07a10,10,0,0,0,10,10l50.07-.11a10,10,0,0,0,10-10L74.08,14a10,10,0,0,0-10-10Z"/><path class="cls-1" d="M48.54,51.38A21.92,21.92,0,1,1,70.46,29.47,21.94,21.94,0,0,1,48.54,51.38Zm0-38.83A16.92,16.92,0,1,0,65.46,29.47,16.94,16.94,0,0,0,48.54,12.55Z"/><rect class="cls-1" x="7.98" y="54.51" width="33.4" height="4" transform="translate(-32.9 34.44) rotate(-45.44)"/><rect class="cls-1" x="46.63" y="17.97" width="4" height="23.34"/><rect class="cls-1" x="36.96" y="27.64" width="23.34" height="4"/></g></g></svg>