<svg xmlns="http://www.w3.org/2000/svg" viewBox="0 0 78.08 78.08"><defs><style>.cls-1{fill:#fff;}</style></defs><title>ken-mail</title><g id="レイヤー_2" data-name="レイヤー 2"><g id="レイヤー_1-2" data-name="レイヤー 1"><path class="cls-1" d="M64.08,78.08H14a14,14,0,0,1-14-14V14A14,14,0,0,1,14,0H64.08a14,14,0,0,1,14,14V64.08A14,14,0,0,1,64.08,78.08ZM14,4A10,10,0,0,0,4,14V64.08a10,10,0,0,0,10,10H64.08a10,10,0,0,0,10-10V14a10,10,0,0,0-10-10Z"/><path class="cls-1" d="M64.08,78.08H14a14,14,0,0,1-14-14V14A14,14,0,0,1,14,0H64.08a14,14,0,0,1,14,14V64.08A14,14,0,0,1,64.08,78.08ZM14,4A10,10,0,0,0,4,14V64.08a10,10,0,0,0,10,10H64.08a10,10,0,0,0,10-10V14a10,10,0,0,0-10-10Z"/><path class="cls-1" d="M70,62.94H8.61V18.85L70,18.8Zm-57.4-4H66V22.82l-17.17,0H12.61Z"/><polygon class="cls-1" points="39.04 40.81 10.66 22.93 12.26 20.39 39.04 37.27 65.99 20.39 67.58 22.93 39.04 40.81"/></g></g></svg>