<svg xmlns="http://www.w3.org/2000/svg" viewBox="0 0 78.08 78.08"><defs><style>.cls-1{fill:#fff;}</style></defs><title>ken-user</title><g id="レイヤー_2" data-name="レイヤー 2"><g id="レイヤー_1-2" data-name="レイヤー 1"><path class="cls-1" d="M64.08,78.08H14a14,14,0,0,1-14-14V14A14,14,0,0,1,14,0H64.08a14,14,0,0,1,14,14V64.08A14,14,0,0,1,64.08,78.08ZM14,4A10,10,0,0,0,4,14V64.08a10,10,0,0,0,10,10H64.08a10,10,0,0,0,10-10V14a10,10,0,0,0-10-10Z"/><path class="cls-1" d="M64.08,78.08H14a14,14,0,0,1-14-14V14A14,14,0,0,1,14,0H64.08a14,14,0,0,1,14,14V64.08A14,14,0,0,1,64.08,78.08ZM14,4A10,10,0,0,0,4,14V64.08a10,10,0,0,0,10,10H64.08a10,10,0,0,0,10-10V14a10,10,0,0,0-10-10Z"/><path class="cls-1" d="M38.08,38.7a13,13,0,1,1,13-13A13,13,0,0,1,38.08,38.7Zm0-22.05a9,9,0,1,0,9,9A9,9,0,0,0,38.08,16.65Z"/><path class="cls-1" d="M62.25,64.11h-4c0-7.5-8.23-16.56-18.44-16.56S21.1,56.66,21.1,64.11h-4c0-9.31,10.13-20.56,22.71-20.56S62.25,54.6,62.25,64.11Z"/></g></g></svg>