<svg xmlns="http://www.w3.org/2000/svg" viewBox="0 0 90.95 76.16"><defs><style>.cls-1{fill:#fff;}</style></defs><title>kimura-camera</title><g id="レイヤー_2" data-name="レイヤー 2"><g id="レイヤー_1-2" data-name="レイヤー 1"><circle class="cls-1" cx="45.47" cy="34.96" r="8.88"/><path class="cls-1" d="M84.62,6.33h0a21.76,21.76,0,0,0-30.69,0l-8.46,8.45L37,6.33a21.76,21.76,0,0,0-30.69,0h0A21.76,21.76,0,0,0,6.33,37l8.45,8.45L45.47,76.16,76.16,45.47,84.62,37A21.76,21.76,0,0,0,84.62,6.33Zm-39.15,41A12.38,12.38,0,1,1,57.85,35,12.37,12.37,0,0,1,45.47,47.34Zm22.25-31.2a3.42,3.42,0,1,1,3.42-3.42A3.42,3.42,0,0,1,67.72,16.14Z"/></g></g></svg>