<svg xmlns="http://www.w3.org/2000/svg" viewBox="0 0 89.08 74.6"><defs><style>.cls-1{fill:#fff;}</style></defs><title>kimura-clock</title><g id="レイヤー_2" data-name="レイヤー 2"><g id="レイヤー_1-2" data-name="レイヤー 1"><path class="cls-1" d="M44.54,17.4a19,19,0,1,0,19,19A19,19,0,0,0,44.54,17.4Zm7.24,25.44v-2.1H45.91v0H43.16V27.58h-1.5l1.5-4v-.46h.17l1.21-3.25,1.2,3.25h.17v.46l1.5,4h-1.5V36h5.87V33.88l7.76,4.48Z"/><path class="cls-1" d="M82.88,6.2h0a21.31,21.31,0,0,0-30.06,0l-8.28,8.28L36.26,6.2A21.31,21.31,0,0,0,6.2,6.2h0a21.31,21.31,0,0,0,0,30.06l8.28,8.28L44.54,74.6,74.6,44.54l8.28-8.28A21.33,21.33,0,0,0,82.88,6.2ZM44.54,56.4a20,20,0,1,1,20-20A20,20,0,0,1,44.54,56.4Z"/></g></g></svg>