<svg xmlns="http://www.w3.org/2000/svg" viewBox="0 0 62.35 82.84"><defs><style>.cls-1{fill:#fff;}</style></defs><title>kimura-vol</title><g id="レイヤー_2" data-name="レイヤー 2"><g id="レイヤー_1-2" data-name="レイヤー 1"><path class="cls-1" d="M48.33,54.82a14,14,0,1,0,14,14A14,14,0,0,0,48.33,54.82Zm6.84,15.86H49.83V76h-3V70.68H41.5v-3h5.33V62.35h3v5.33h5.34Z"/><polygon class="cls-1" points="12.23 59.08 26.56 55.08 26.56 82.58 12.23 78.58 12.23 59.08"/><rect class="cls-1" y="59.43" width="7.33" height="19.51" transform="translate(7.33 138.37) rotate(180)"/><path class="cls-1" d="M12.89,34V4.37S15.62,0,27.33,0,41.78,4.37,41.78,4.37V34S37.22,38.69,28,38.91A23.53,23.53,0,0,1,12.89,34Z"/><path class="cls-1" d="M43.93,31.05v5.19l-.61.63c-.21.22-5.27,5.37-15.28,5.6h-.62A25.5,25.5,0,0,1,11.47,37l-.73-.64v-5.3c-4.83,2-7.86,4.85-7.86,8,0,6,11,10.93,24.45,10.93s24.46-4.89,24.46-10.93C51.79,35.9,48.76,33.05,43.93,31.05Z"/></g></g></svg>