<svg xmlns="http://www.w3.org/2000/svg" viewBox="0 0 70.71 90.03"><defs><style>.cls-1{fill:#fff;}</style></defs><title>kimura-zoom</title><g id="レイヤー_2" data-name="レイヤー 2"><g id="レイヤー_1-2" data-name="レイヤー 1"><path class="cls-1" d="M35.68,30.4A14.63,14.63,0,1,0,50.31,45,14.63,14.63,0,0,0,35.68,30.4ZM42.81,47H37.25v5.57H34.11V47H28.55V43.83h5.56V38.27h3.14v5.56h5.56Z"/><path class="cls-1" d="M66.25,82.48,55.43,71.67l-.11.12a9.93,9.93,0,0,0,1.6-5.41V23.68a9.94,9.94,0,0,0-1.65-5.49l.14.14L66.22,7.52l2,2L70.71,0,61.26,2.56l1.9,1.9L52.35,15.28l.09.09A9.91,9.91,0,0,0,47,13.72H23.71a9.94,9.94,0,0,0-5.44,1.62l0,0L7.49,4.49l2-2L0,0,2.53,9.45l1.9-1.9L15.25,18.36l.12-.12a9.87,9.87,0,0,0-1.63,5.44v42.7a9.91,9.91,0,0,0,1.56,5.33L4.5,82.51l-2-2L0,90l9.45-2.53-1.9-1.9,10.8-10.8a9.88,9.88,0,0,0,5.35,1.58H47a9.87,9.87,0,0,0,5.42-1.62L63.19,85.54l-2,2L70.68,90l-2.53-9.45ZM47,73.5H23.71a7.12,7.12,0,0,1-7.12-7.12V23.68a7.12,7.12,0,0,1,7.12-7.12H47a7.12,7.12,0,0,1,7.11,7.12v42.7A7.12,7.12,0,0,1,47,73.5Z"/></g></g></svg>