<svg xmlns="http://www.w3.org/2000/svg" viewBox="0 0 36.75 84.5"><defs><style>.cls-1{fill:#fff;}</style></defs><title>kimura-user</title><g id="レイヤー_2" data-name="レイヤー 2"><g id="レイヤー_1-2" data-name="レイヤー 1"><path class="cls-1" d="M9.24,21.49V2.77S11,0,18.38,0s9.13,2.77,9.13,2.77V21.49s-2.88,3-8.72,3.13A14.88,14.88,0,0,1,9.24,21.49Z"/><path class="cls-1" d="M28.87,19V22.3l-.38.39c-.13.14-3.34,3.4-9.67,3.55h-.39A16.13,16.13,0,0,1,8.34,22.77l-.46-.4V19c-3.06,1.27-5,3.07-5,5.08C2.9,27.91,9.83,31,18.38,31s15.47-3.09,15.47-6.91C33.85,22.08,31.93,20.28,28.87,19Z"/><path class="cls-1" d="M18.38,37.25C8.23,37.25,0,45.55,0,84.5H36.75C36.75,45.55,28.52,37.25,18.38,37.25Zm6.74,10-6.33-2-6.33,2V41.46l6.33,2,6.33-2Z"/></g></g></svg>