<svg xmlns="http://www.w3.org/2000/svg" viewBox="0 0 68.22 76.82"><defs><style>.cls-1{fill:#fff;}</style></defs><title>lab-user</title><g id="レイヤー_2" data-name="レイヤー 2"><g id="レイヤー_1-2" data-name="レイヤー 1"><circle class="cls-1" cx="23.77" cy="18.99" r="2.63"/><circle class="cls-1" cx="39.68" cy="18.99" r="2.63"/><path class="cls-1" d="M15.51,46.3a1.49,1.49,0,0,1-1.09-.47,27.14,27.14,0,1,1,39.79-.44,1.5,1.5,0,0,1-2.22-2,24.14,24.14,0,1,0-35.39.39,1.5,1.5,0,0,1-.06,2.12A1.48,1.48,0,0,1,15.51,46.3Z"/><path class="cls-1" d="M66.72,76.82a1.5,1.5,0,0,1-1.5-1.5c0-15-14-27.27-31.11-27.27S3,60.28,3,75.32a1.5,1.5,0,0,1-3,0C0,58.63,15.3,45.05,34.11,45.05S68.22,58.63,68.22,75.32A1.5,1.5,0,0,1,66.72,76.82Z"/></g></g></svg>