<svg xmlns="http://www.w3.org/2000/svg" viewBox="0 0 66.62 56.33"><defs><style>.cls-1{fill:#fff;}</style></defs><title>lab-vol</title><g id="レイヤー_2" data-name="レイヤー 2"><g id="レイヤー_1-2" data-name="レイヤー 1"><path class="cls-1" d="M25.55,55.81h-.07a1.49,1.49,0,0,1-1.1-.56l-9.7-11.94a5.85,5.85,0,0,0-3.53-1.8l-3.37-.18a1.5,1.5,0,0,1,.16-3l3.37.18A8.76,8.76,0,0,1,17,41.42L25.62,52A36,36,0,0,0,34.5,28.17,36,36,0,0,0,25.62,4.31L17,14.91A8.71,8.71,0,0,1,11.3,17.8l-6.9.33A1.5,1.5,0,0,0,3,19.6v20a1.5,1.5,0,0,1-3,0v-20a4.52,4.52,0,0,1,4.26-4.47l6.9-.33A5.75,5.75,0,0,0,14.68,13l9.7-11.94a1.49,1.49,0,0,1,1.1-.56A1.51,1.51,0,0,1,26.63,1,38.89,38.89,0,0,1,37.5,28.17,38.88,38.88,0,0,1,26.63,55.35,1.54,1.54,0,0,1,25.55,55.81Z"/><path class="cls-1" d="M56.36,56.33a1.57,1.57,0,0,1-.94-.32,1.52,1.52,0,0,1-.24-2.11c5.44-6.85,8.44-16,8.44-25.73s-3-18.88-8.44-25.74A1.5,1.5,0,0,1,57.53.57c5.86,7.38,9.09,17.18,9.09,27.6s-3.23,20.21-9.09,27.59A1.46,1.46,0,0,1,56.36,56.33Z"/><path class="cls-1" d="M46.58,43a1.47,1.47,0,0,1-.93-.33,1.5,1.5,0,0,1-.25-2.1,19.93,19.93,0,0,0,4.06-12.4,19.89,19.89,0,0,0-4.06-12.4,1.51,1.51,0,0,1,.25-2.11,1.49,1.49,0,0,1,2.1.24,22.92,22.92,0,0,1,4.71,14.27,22.91,22.91,0,0,1-4.71,14.26A1.49,1.49,0,0,1,46.58,43Z"/></g></g></svg>