<svg xmlns="http://www.w3.org/2000/svg" viewBox="0 0 44.45 48.69"><defs><style>.cls-1{fill:#fff;}</style></defs><title>lab-play</title><g id="レイヤー_2" data-name="レイヤー 2"><g id="レイヤー_1-2" data-name="レイヤー 1"><path class="cls-1" d="M2.86,48.69a2.71,2.71,0,0,1-1.39-.37A3.18,3.18,0,0,1,0,45.44V3.25A3.19,3.19,0,0,1,1.47.37,3.19,3.19,0,0,1,4.71.53l39,22.52a1.5,1.5,0,1,1-1.5,2.59L3.21,3.13,3,3s0,.12,0,.21V45.44c0,.09,0,.16,0,.21l.2-.09L36.83,26.15a1.5,1.5,0,0,1,2.05.55,1.51,1.51,0,0,1-.55,2.05L4.71,48.16A3.78,3.78,0,0,1,2.86,48.69Z"/></g></g></svg>