<svg xmlns="http://www.w3.org/2000/svg" viewBox="0 0 80.3 51.05"><defs><style>.cls-1{fill:#fff;}</style></defs><title>lab-mail</title><g id="レイヤー_2" data-name="レイヤー 2"><g id="レイヤー_1-2" data-name="レイヤー 1"><path class="cls-1" d="M1.5,51.05a1.5,1.5,0,0,1-.79-2.77L75.61,1.72a3.13,3.13,0,0,1,3.22-.26A3.12,3.12,0,0,1,80.3,4.33V46.72A4.33,4.33,0,0,1,76,51.05H10.11a1.5,1.5,0,0,1,0-3H76a1.33,1.33,0,0,0,1.33-1.33V4.21l-.11.06L2.29,50.83A1.5,1.5,0,0,1,1.5,51.05Z"/><path class="cls-1" d="M1.5,44.32A1.5,1.5,0,0,1,0,42.82V4.33A3.13,3.13,0,0,1,1.48,1.46a3.13,3.13,0,0,1,3.22.26L35.34,20.77a1.5,1.5,0,0,1-1.58,2.55L3.12,4.27,3,4.21a.49.49,0,0,0,0,.12V42.82A1.5,1.5,0,0,1,1.5,44.32Z"/><path class="cls-1" d="M69.72,3H10.45a1.5,1.5,0,0,1,0-3H69.72a1.5,1.5,0,0,1,0,3Z"/></g></g></svg>