<svg xmlns="http://www.w3.org/2000/svg" viewBox="0 0 83 50.17"><defs><style>.cls-1{fill:#fff;}</style></defs><title>lab-camera</title><g id="レイヤー_2" data-name="レイヤー 2"><g id="レイヤー_1-2" data-name="レイヤー 1"><path class="cls-1" d="M78.67,50.17H27.17a4.35,4.35,0,0,1-4.34-4.34V35.35a1,1,0,0,0,0-.35s-.14,0-.31.12L8.07,42.34a5.58,5.58,0,0,1-8.07-5V12.82A5.52,5.52,0,0,1,2.65,8.08a5.56,5.56,0,0,1,5.43-.24L18.9,13.28A1.5,1.5,0,0,1,17.55,16L6.73,10.52A2.57,2.57,0,0,0,3,12.82V37.35a2.57,2.57,0,0,0,3.73,2.3l14.4-7.21a3.09,3.09,0,0,1,4.7,2.91V45.83a1.34,1.34,0,0,0,1.34,1.34h51.5A1.34,1.34,0,0,0,80,45.83V4.33A1.34,1.34,0,0,0,78.67,3H27.17a1.34,1.34,0,0,0-1.34,1.33V16.46a1.5,1.5,0,0,1-3,0V4.33A4.34,4.34,0,0,1,27.17,0h51.5A4.33,4.33,0,0,1,83,4.33v41.5A4.34,4.34,0,0,1,78.67,50.17Z"/></g></g></svg>