<svg xmlns="http://www.w3.org/2000/svg" viewBox="0 0 53.67 68"><defs><style>.cls-1{fill:#fff;}</style></defs><title>lab-clock</title><g id="レイヤー_2" data-name="レイヤー 2"><g id="レイヤー_1-2" data-name="レイヤー 1"><path class="cls-1" d="M26.83,68a26.84,26.84,0,0,1,0-53.67h0a5.67,5.67,0,1,0-5.66-5.66A5.54,5.54,0,0,0,21.33,10a1.5,1.5,0,1,1-2.91.72,8.5,8.5,0,0,1-.25-2.07,8.67,8.67,0,1,1,8.66,8.66,23.85,23.85,0,1,0,17.88,8.08L29.9,40.22a2.72,2.72,0,0,1-3,.91,2.72,2.72,0,0,1-1.52-2.8V24.6a1.5,1.5,0,0,1,3,0V37.55L43.69,22.19a1.5,1.5,0,0,1,1.06-.44h0a1.52,1.52,0,0,1,1.06.44A26.83,26.83,0,0,1,26.83,68Z"/></g></g></svg>