<svg xmlns="http://www.w3.org/2000/svg" viewBox="0 0 57.65 57.65"><defs><style>.cls-1{fill:#fff;}</style></defs><title>lab-zoom</title><g id="レイヤー_2" data-name="レイヤー 2"><g id="レイヤー_1-2" data-name="レイヤー 1"><path class="cls-1" d="M1.5,24.42A1.5,1.5,0,0,1,0,22.92V4.33A4.33,4.33,0,0,1,4.33,0H22.92a1.5,1.5,0,0,1,0,3H4.33A1.34,1.34,0,0,0,3,4.33V22.92A1.5,1.5,0,0,1,1.5,24.42Z"/><path class="cls-1" d="M56.15,24.42a1.5,1.5,0,0,1-1.5-1.5V4.33A1.34,1.34,0,0,0,53.32,3H34.74a1.5,1.5,0,0,1,0-3H53.32a4.33,4.33,0,0,1,4.33,4.33V22.92A1.5,1.5,0,0,1,56.15,24.42Z"/><path class="cls-1" d="M22.92,57.65H4.33A4.33,4.33,0,0,1,0,53.32V34.74a1.5,1.5,0,0,1,3,0V53.32a1.34,1.34,0,0,0,1.33,1.33H22.92a1.5,1.5,0,0,1,0,3Z"/><path class="cls-1" d="M53.32,57.65H34.74a1.5,1.5,0,0,1,0-3H53.32a1.34,1.34,0,0,0,1.33-1.33V34.74a1.5,1.5,0,0,1,3,0V53.32A4.33,4.33,0,0,1,53.32,57.65Z"/></g></g></svg>