<svg xmlns="http://www.w3.org/2000/svg" viewBox="0 0 68.33 44.64"><defs><style>.cls-1{fill:#fbffff;}</style></defs><title>matuba-vol</title><g id="レイヤー_2" data-name="レイヤー 2"><g id="レイヤー_1-2" data-name="レイヤー 1"><path class="cls-1" d="M30.63,6.17l-15.7,9.07a3.33,3.33,0,0,0-1-.17H3.35A3.35,3.35,0,0,0,0,18.42V29a3.35,3.35,0,0,0,3.35,3.35H13.93a3.23,3.23,0,0,0,1.12-.21l15.58,9a2.82,2.82,0,0,0,4.23-2.44V8.61A2.82,2.82,0,0,0,30.63,6.17Z"/><path class="cls-1" d="M38.11,12.58a2,2,0,0,0,0,2.83,11.79,11.79,0,0,1,0,16.67,2,2,0,0,0,1.42,3.41,2,2,0,0,0,1.41-.58,15.8,15.8,0,0,0,0-22.33A2,2,0,0,0,38.11,12.58Z"/><path class="cls-1" d="M49.74,7a2,2,0,0,0-2.83,2.83,19.51,19.51,0,0,1,0,27.56,2,2,0,0,0,1.41,3.41,2,2,0,0,0,1.42-.59A23.52,23.52,0,0,0,49.74,7Z"/><path class="cls-1" d="M59.33.59A2,2,0,0,0,56.5,3.41a26.77,26.77,0,0,1,0,37.82,2,2,0,0,0,1.42,3.41,2,2,0,0,0,1.41-.59,30.73,30.73,0,0,0,0-43.46Z"/></g></g></svg>