<svg xmlns="http://www.w3.org/2000/svg" viewBox="0 0 61.12 42.23"><defs><style>.cls-1{fill:#fbffff;}</style></defs><title>matuba-mail</title><g id="レイヤー_2" data-name="レイヤー 2"><g id="レイヤー_1-2" data-name="レイヤー 1"><path class="cls-1" d="M30.56,18.09,56.88.09A5.62,5.62,0,0,0,56,0H5.17a5.64,5.64,0,0,0-.93.09Z"/><path class="cls-1" d="M32,23.18a2.53,2.53,0,0,1-2.82,0L.31,3.46A5.13,5.13,0,0,0,0,5.17V37.06a5.16,5.16,0,0,0,5.17,5.17H56a5.16,5.16,0,0,0,5.16-5.17V5.17a5.13,5.13,0,0,0-.31-1.71Z"/></g></g></svg>