<svg xmlns="http://www.w3.org/2000/svg" viewBox="0 0 57.25 57.38"><defs><style>.cls-1{fill:#fbffff;}</style></defs><title>matuba-zoom</title><g id="レイヤー_2" data-name="レイヤー 2"><g id="レイヤー_1-2" data-name="レイヤー 1"><path class="cls-1" d="M35.44,22.36H26.93V13.85a1.32,1.32,0,0,0-1.32-1.31h-2a1.32,1.32,0,0,0-1.32,1.31v8.51h-8.5a1.32,1.32,0,0,0-1.32,1.32v2A1.32,1.32,0,0,0,13.77,27h8.5v8.51a1.32,1.32,0,0,0,1.32,1.31h2a1.32,1.32,0,0,0,1.32-1.31V27h8.51a1.32,1.32,0,0,0,1.31-1.32v-2A1.32,1.32,0,0,0,35.44,22.36Z"/><path class="cls-1" d="M56.47,49.92,44.24,37.7a24.2,24.2,0,1,0-6.7,6.65L49.79,56.6a2.67,2.67,0,0,0,3.77,0l2.91-2.9A2.68,2.68,0,0,0,56.47,49.92ZM6,24.19A18.19,18.19,0,1,1,24.19,42.38,18.21,18.21,0,0,1,6,24.19Z"/></g></g></svg>