<svg xmlns="http://www.w3.org/2000/svg" viewBox="0 0 68.79 68.79"><defs><style>.cls-1{fill:#fbffff;}</style></defs><title>matuba-clock</title><g id="レイヤー_2" data-name="レイヤー 2"><g id="レイヤー_1-2" data-name="レイヤー 1"><path class="cls-1" d="M34.39,0a34.4,34.4,0,1,0,34.4,34.39A34.43,34.43,0,0,0,34.39,0ZM56.17,52.58l-3.83-3.83c-2.73-2.73-7,1.51-4.24,4.25l3.76,3.75a28.28,28.28,0,0,1-14.47,5.88V57.17c0-3.86-6-3.87-6,0v5.46a28.25,28.25,0,0,1-14.46-5.88L20.68,53c2.74-2.73-1.5-7-4.24-4.24l-3.83,3.83A28.34,28.34,0,0,1,6.24,38h4.18c3.86,0,3.87-6,0-6H6.1A28.24,28.24,0,0,1,11.24,18l3.36,3.35c2.73,2.74,7-1.5,4.24-4.24-1.21-1.2-2.41-2.41-3.62-3.62A28.26,28.26,0,0,1,31.39,6.16v4.91c0,3.86,6,3.87,6,0V6.16a28.24,28.24,0,0,1,14.16,5.63L48.1,15.25c-2.73,2.73,1.51,7,4.25,4.24l3.57-3.58A28.26,28.26,0,0,1,62.47,30.2H58.36c-3.86,0-3.86,6,0,6h4.36A28.19,28.19,0,0,1,56.17,52.58Z"/><path class="cls-1" d="M46.61,21.52,33.92,33.78l-7.59-7.16A3,3,0,0,0,22.21,31l9.68,9.13a3,3,0,0,0,4.14,0L50.78,25.83a3,3,0,1,0-4.17-4.31Z"/></g></g></svg>