<svg xmlns="http://www.w3.org/2000/svg" viewBox="0 0 58.78 45.72"><defs><style>.cls-1{fill:#fbffff;}</style></defs><title>matuba-camera</title><g id="レイヤー_2" data-name="レイヤー 2"><g id="レイヤー_1-2" data-name="レイヤー 1"><circle class="cls-1" cx="29.39" cy="27.35" r="8.16" transform="translate(-5.5 7.48) rotate(-13.28)"/><path class="cls-1" d="M51.46,9H46.8V3.35A3.36,3.36,0,0,0,43.44,0H15.34A3.36,3.36,0,0,0,12,3.35V9H7.32A7.32,7.32,0,0,0,0,16.3V38.4a7.32,7.32,0,0,0,7.32,7.32H51.46a7.32,7.32,0,0,0,7.32-7.32V16.3A7.32,7.32,0,0,0,51.46,9ZM29.39,40.82A13.47,13.47,0,1,1,42.86,27.35,13.47,13.47,0,0,1,29.39,40.82Z"/></g></g></svg>