<svg xmlns="http://www.w3.org/2000/svg" viewBox="0 0 47.63 67.15"><defs><style>.cls-1{fill:#fff;}</style></defs><title>nakazawa-zoom</title><g id="レイヤー_2" data-name="レイヤー 2"><g id="レイヤー_1-2" data-name="レイヤー 1"><path class="cls-1" d="M22.91,52,.33,39.11l-.11-26L22.7,0,45.28,12.92l.1,26ZM3.32,37.37l19.57,11.2L42.38,37.21l-.09-22.55L22.71,3.46,3.23,14.82Z"/><rect class="cls-1" x="38.2" y="41.84" width="3" height="26.35" transform="translate(-22.3 27.47) rotate(-30.23)"/><polygon class="cls-1" points="5.8 29.13 5.75 16.41 16.75 10 18.25 12.59 8.76 18.13 8.8 29.12 5.8 29.13"/><polygon class="cls-1" points="28.65 42.6 27.14 40 36.64 34.47 36.6 23.48 39.6 23.47 39.65 36.19 28.65 42.6"/><rect class="cls-1" y="56.99" width="15.5" height="3"/><rect class="cls-1" x="6.25" y="50.74" width="3" height="15.5"/></g></g></svg>