<svg xmlns="http://www.w3.org/2000/svg" viewBox="0 0 77.56 60.89"><defs><style>.cls-1{fill:#fff;}</style></defs><title>nakazawa-camera</title><g id="レイヤー_2" data-name="レイヤー 2"><g id="レイヤー_1-2" data-name="レイヤー 1"><path class="cls-1" d="M50.31,55.5h-23l-11.53-20,11.53-20H50.31l11.52,20ZM29,52.5H48.58l9.79-17-9.79-17H29l-9.79,17Z"/><polygon class="cls-1" points="46.62 21.96 30.95 21.96 23.11 35.53 30.95 49.11 46.62 49.11 54.46 35.53 46.62 21.96"/><path class="cls-1" d="M77.56,60.89H0V11H3V6.79H16.13V11h9.05L31.55,0H46l6.37,11H77.56ZM3,57.89H74.56V14H50.66L44.29,3h-11L26.91,14H13.13V9.79H6V14H3Z"/></g></g></svg>