<svg xmlns="http://www.w3.org/2000/svg" viewBox="0 0 71.95 56.5"><defs><style>.cls-1{fill:#fff;}</style></defs><title>nakazawa-vol</title><g id="レイヤー_2" data-name="レイヤー 2"><g id="レイヤー_1-2" data-name="レイヤー 1"><polygon class="cls-1" points="29.5 19.73 29.5 2.7 14.75 11.22 14.75 11.22 0 19.74 0 36.77 14.75 45.29 14.76 45.28 29.5 53.8 29.5 53.8 29.5 19.73 29.5 19.73"/><polygon class="cls-1" points="46.82 47.5 43.29 43.97 52.52 34.73 52.52 22.24 42.82 12.53 46.35 9 57.52 20.17 57.52 36.8 46.82 47.5"/><polygon class="cls-1" points="57.38 56.5 53.84 52.96 66.94 39.86 66.94 17.23 53.26 3.54 56.79 0 71.94 15.15 71.94 41.93 57.38 56.5"/></g></g></svg>