<svg xmlns="http://www.w3.org/2000/svg" viewBox="0 0 74 85.45"><defs><style>.cls-1{fill:#fff;}</style></defs><title>nakazawa-clock</title><g id="レイヤー_2" data-name="レイヤー 2"><g id="レイヤー_1-2" data-name="レイヤー 1"><polygon class="cls-1" points="56.06 52.7 43.13 45.23 43.13 40.69 38.62 38.09 38.62 11.7 35.27 11.7 35.27 38.22 30.98 40.69 30.98 47.71 37.06 51.22 41.17 48.84 54.01 56.25 56.06 52.7"/><path class="cls-1" d="M37,85.45,0,64.09V21.36L37,0,74,21.36V64.09ZM3,62.35,37,82,71,62.35V23.09L37,3.46,3,23.09Z"/><rect class="cls-1" x="35.89" y="71.79" width="2.22" height="7.55"/><rect class="cls-1" x="7.67" y="38.95" width="2.22" height="7.55" transform="translate(51.5 33.95) rotate(90)"/><rect class="cls-1" x="64" y="38.95" width="2.22" height="7.55" transform="translate(107.83 -22.39) rotate(90)"/></g></g></svg>