<svg xmlns="http://www.w3.org/2000/svg" viewBox="0 0 59.28 59.07"><defs><style>.cls-1{fill:#fff;}</style></defs><title>samu-zoom</title><g id="レイヤー_2" data-name="レイヤー 2"><g id="レイヤー_1-2" data-name="レイヤー 1"><polygon class="cls-1" points="39.06 0 39.06 3 54.16 3 32.98 24.18 35.1 26.3 56.28 5.12 56.28 20.23 59.28 20.23 59.28 0 39.06 0"/><polygon class="cls-1" points="20.23 3 20.23 0 0 0 0 20.23 3 20.23 3 5.12 24.18 26.3 26.3 24.18 5.12 3 20.23 3"/><polygon class="cls-1" points="56.28 53.95 35.1 32.77 32.98 34.89 54.16 56.07 39.06 56.07 39.06 59.07 59.28 59.07 59.28 38.85 56.28 38.85 56.28 53.95"/><polygon class="cls-1" points="24.18 32.77 3 53.95 3 38.85 0 38.85 0 59.07 20.23 59.07 20.23 56.07 5.12 56.07 26.3 34.89 24.18 32.77"/></g></g></svg>