<svg xmlns="http://www.w3.org/2000/svg" viewBox="0 0 83.58 65.18"><defs><style>.cls-1{fill:#fff;}</style></defs><title>saya-play</title><g id="レイヤー_2" data-name="レイヤー 2"><g id="レイヤー_1-2" data-name="レイヤー 1"><path class="cls-1" d="M14.57,8.8l60.8,25-61.68,23a41.2,41.2,0,0,0,8.2-24.6A41,41,0,0,0,14.57,8.8M1.08,0A38.08,38.08,0,0,1,18.89,32.26,38.11,38.11,0,0,1,0,65.18L83.58,34,1.08,0Z"/><polygon class="cls-1" points="43.41 25.94 41.41 25.94 41.41 32.61 43.41 32.61 43.41 25.94 43.41 25.94"/><polygon class="cls-1" points="48.23 25.94 46.23 25.94 46.23 32.61 48.23 32.61 48.23 25.94 48.23 25.94"/><path class="cls-1" d="M44.75,42.2c-2,0-3.09-2.86-3.09-5.69h2c0,2.26.77,3.61,1.1,3.69.31-.08,1.08-1.43,1.08-3.69h2C47.84,39.34,46.78,42.2,44.75,42.2Z"/></g></g></svg>