<svg xmlns="http://www.w3.org/2000/svg" viewBox="0 0 96.29 56.21"><defs><style>.cls-1{fill:#fff;}</style></defs><title>saya-mail</title><g id="レイヤー_2" data-name="レイヤー 2"><g id="レイヤー_1-2" data-name="レイヤー 1"><path class="cls-1" d="M96.29,53.94H25.45V.94H96.29Zm-67.84-3H93.29v-47H28.45Z"/><polygon class="cls-1" points="60.87 36.24 25.93 3.54 27.98 1.34 60.87 32.13 93.76 1.34 95.81 3.54 60.87 36.24"/><polygon class="cls-1" points="59.46 7.93 57.46 7.93 57.46 13.99 59.46 13.99 59.46 7.93 59.46 7.93"/><polygon class="cls-1" points="64.28 7.93 62.28 7.93 62.28 13.99 64.28 13.99 64.28 7.93 64.28 7.93"/><path class="cls-1" d="M60.8,24.2c-2,0-3.09-2.87-3.09-5.7h2c0,2.26.77,3.61,1.1,3.7.31-.09,1.08-1.44,1.08-3.7h2C63.89,21.33,62.83,24.2,60.8,24.2Z"/><path class="cls-1" d="M17.79,56.21a13.79,13.79,0,0,1-2.36-.31l-.28,0a7.89,7.89,0,0,1-3.67-1.52C9.58,53,8.84,48,8.61,45.89c-.43-4-.48-16.15-.48-16.67V23.6H0L10.88,0,21.2,23.6H13.41v9.49c0,3.81.12,11.52.33,12.7.07.35.11.72.15,1.09a6.54,6.54,0,0,0,1.16,3.53,5.88,5.88,0,0,0,2.06,2.2c1.42.92,2.65,1.72,2.22,2.8C19.09,56,18.58,56.21,17.79,56.21ZM3.13,21.6h7v7.62c0,.12,0,12.57.47,16.45.45,4.2,1.45,6.62,2,7a6.19,6.19,0,0,0,2.8,1.19,8.74,8.74,0,0,1-2-2.31,8.61,8.61,0,0,1-1.51-4.47c0-.32-.07-.64-.12-.94-.3-1.64-.37-11.24-.37-13.06V21.6h6.74L10.83,4.88Z"/></g></g></svg>