<svg xmlns="http://www.w3.org/2000/svg" viewBox="0 0 90.38 76.25"><defs><style>.cls-1{fill:#fff;}</style></defs><title>saya-vol</title><g id="レイヤー_2" data-name="レイヤー 2"><g id="レイヤー_1-2" data-name="レイヤー 1"><path class="cls-1" d="M31.94,76.25V0L74.09,31V45.29Zm2.5-71.31V71.31L71.59,44V32.22Z"/><path class="cls-1" d="M90.38,56.64,71.59,45.8V30.45L90.38,19.61ZM74.09,44.35l13.79,8V23.94l-13.79,8Z"/><polygon class="cls-1" points="39.1 30 37.1 30 37.1 36.67 39.1 36.67 39.1 30 39.1 30"/><polygon class="cls-1" points="43.92 30 41.92 30 41.92 36.67 43.92 36.67 43.92 30 43.92 30"/><path class="cls-1" d="M40.45,46.94c-2,0-3.09-2.86-3.09-5.7h2c0,2.26.77,3.62,1.1,3.7.31-.08,1.08-1.44,1.08-3.7h2C43.54,44.08,42.48,46.94,40.45,46.94Z"/><path class="cls-1" d="M25.33,48.81c-3.64,0-6.5-3.73-6.5-8.48s2.86-8.49,6.5-8.49v3c-1.89,0-3.5,2.51-3.5,5.49s1.61,5.48,3.5,5.48Z"/><path class="cls-1" d="M19.61,52.56c-5.07,0-9.18-5.49-9.18-12.23s4.11-12.24,9.18-12.24v3c-3.35,0-6.18,4.23-6.18,9.24s2.83,9.23,6.18,9.23Z"/><path class="cls-1" d="M14.35,59.78C6.44,59.78,0,51.06,0,40.33S6.44,20.87,14.35,20.87v3C8.09,23.87,3,31.25,3,40.33S8.09,56.78,14.35,56.78Z"/></g></g></svg>