<svg xmlns="http://www.w3.org/2000/svg" viewBox="0 0 76.39 96.09"><defs><style>.cls-1{fill:#fff;}</style></defs><title>saya-zoom</title><g id="レイヤー_2" data-name="レイヤー 2"><g id="レイヤー_1-2" data-name="レイヤー 1"><path class="cls-1" d="M28.78,67.3A22.52,22.52,0,1,1,51.3,44.78,22.54,22.54,0,0,1,28.78,67.3Zm0-42A19.52,19.52,0,1,0,48.3,44.78,19.53,19.53,0,0,0,28.78,25.27Z"/><path class="cls-1" d="M70.79,96.09,45.74,68a28.77,28.77,0,1,1,5.44-5.18L76.39,91.09ZM46.1,63.92,71,91.86l1.13-1-25-28,.88-1a25.78,25.78,0,0,0-2.25-36.45h0A25.79,25.79,0,1,0,45,64.82Z"/><polygon class="cls-1" points="21.51 32.47 18.49 32.47 18.49 42.53 21.51 42.53 21.51 32.47 21.51 32.47"/><polygon class="cls-1" points="28.78 32.47 25.76 32.47 25.76 42.53 28.78 42.53 28.78 32.47 28.78 32.47"/><path class="cls-1" d="M23.53,56.5c-2.36,0-4.15-3.48-4.15-8.09h2c0,3.66,1.3,6.09,2.15,6.09s2.15-2.43,2.15-6.09h2C27.68,53,25.9,56.5,23.53,56.5Z"/><path class="cls-1" d="M64.1,33.46H51.7V22.62H41.17V10.22H51.7V0H64.1V10.22H74.63v12.4H64.1Zm-9.4-3h6.4V19.62H71.63v-6.4H61.1V3H54.7V13.22H44.17v6.4H54.7Z"/></g></g></svg>