<svg xmlns="http://www.w3.org/2000/svg" viewBox="0 0 72 72"><defs><style>.cls-1{fill:#fff;}</style></defs><title>saya-clock</title><g id="レイヤー_2" data-name="レイヤー 2"><g id="レイヤー_1-2" data-name="レイヤー 1"><polygon class="cls-1" points="14.5 24.24 13.08 24.24 13.08 28.95 14.5 28.95 14.5 24.24 14.5 24.24"/><path class="cls-1" d="M12,35.78c-1.46,0-2.23-2.05-2.23-4.07h1.5c0,1.6.54,2.5.75,2.57a3.64,3.64,0,0,0,.7-2.57h1.5C14.26,33.73,13.5,35.78,12,35.78Z"/><path class="cls-1" d="M36,72A36,36,0,1,1,72,36,36,36,0,0,1,36,72ZM36,3A33,33,0,1,0,69,36,33,33,0,0,0,36,3Z"/><rect class="cls-1" x="34.5" y="8.73" width="3" height="27.91"/><rect class="cls-1" x="29.22" y="21.86" width="3" height="15.73" transform="translate(-11.77 25.07) rotate(-37.81)"/></g></g></svg>