<svg xmlns="http://www.w3.org/2000/svg" viewBox="0 0 88.83 88.83"><defs><style>.cls-1{fill:#fff;}</style></defs><title>saya-user</title><g id="レイヤー_2" data-name="レイヤー 2"><g id="レイヤー_1-2" data-name="レイヤー 1"><path class="cls-1" d="M44.42,88.83A44.42,44.42,0,1,1,88.83,44.42,44.47,44.47,0,0,1,44.42,88.83ZM44.42,3A41.42,41.42,0,1,0,85.83,44.42,41.47,41.47,0,0,0,44.42,3Z"/><path class="cls-1" d="M59.08,85.89h-3c0-20.5-2.57-39.21-6.69-48.84l-.55-1.28,1.23-.64a11.64,11.64,0,1,0-10.82,0l1.23.64-.54,1.28c-4.13,9.63-6.7,28.34-6.7,48.84h-3c0-20,2.46-38.53,6.44-48.8a14.64,14.64,0,1,1,16,0C56.63,47.36,59.08,65.84,59.08,85.89Z"/><polygon class="cls-1" points="43.3 15.85 41.35 15.85 41.35 22.32 43.3 22.32 43.3 15.85 43.3 15.85"/><polygon class="cls-1" points="47.97 15.85 46.03 15.85 46.03 22.32 47.97 22.32 47.97 15.85 47.97 15.85"/><path class="cls-1" d="M44.59,31.65c-2,0-3-2.79-3-5.55h2c0,2.24.75,3.47,1,3.55.25-.08,1-1.31,1-3.55h2C47.62,28.86,46.58,31.65,44.59,31.65Z"/></g></g></svg>