<svg xmlns="http://www.w3.org/2000/svg" viewBox="0 0 80.5 63.91"><defs><style>.cls-1{fill:#fff;}</style></defs><title>saya-camera</title><g id="レイヤー_2" data-name="レイヤー 2"><g id="レイヤー_1-2" data-name="レイヤー 1"><path class="cls-1" d="M80.5,63.91H0V12.38H5.13V0H22.67V12.38H80.5ZM3,60.91H77.5V15.38H19.67V3H8.13V15.38H3Z"/><path class="cls-1" d="M40.25,56.3A16.86,16.86,0,1,1,57.11,39.44,16.88,16.88,0,0,1,40.25,56.3Zm0-30.72A13.86,13.86,0,1,0,54.11,39.44,13.87,13.87,0,0,0,40.25,25.58Z"/><polygon class="cls-1" points="39.25 31.52 37.84 31.52 37.84 36.23 39.25 36.23 39.25 31.52 39.25 31.52"/><polygon class="cls-1" points="42.66 31.52 41.24 31.52 41.24 36.23 42.66 36.23 42.66 31.52 42.66 31.52"/><path class="cls-1" d="M40.2,43.06C38.74,43.06,38,41,38,39h1.5c0,1.6.53,2.5.74,2.57A3.62,3.62,0,0,0,40.93,39h1.5C42.43,41,41.66,43.06,40.2,43.06Z"/></g></g></svg>